<svg xmlns="http://www.w3.org/2000/svg" width="15" height="14.999" viewBox="0 0 15 14.999">
    <g id="prefix__close" transform="translate(0 -.016)">
        <g id="prefix__Group_86" data-name="Group 86" transform="translate(0 .016)">
            <path id="prefix__Path_188" d="M9.152 7.516l5.608-5.609a.822.822 0 0 0 0-1.16l-.491-.491a.822.822 0 0 0-1.16 0L7.5 5.864 1.892.256a.822.822 0 0 0-1.16 0L.24.747a.821.821 0 0 0 0 1.16l5.608 5.609L.24 13.124a.823.823 0 0 0 0 1.16l.492.491a.822.822 0 0 0 1.16 0L7.5 9.167l5.608 5.608a.814.814 0 0 0 .58.24.814.814 0 0 0 .58-.24l.491-.491a.823.823 0 0 0 0-1.16z" data-name="Path 188" transform="translate(0 -.016)" style="fill:#191970"/>
        </g>
    </g>
</svg>
