<svg xmlns="http://www.w3.org/2000/svg" width="20" height="19.999" viewBox="0 0 20 19.999">
    <g id="prefix__close" transform="translate(0 -.016)">
        <g id="prefix__Group_86" data-name="Group 86" transform="translate(0 .016)">
            <path id="prefix__Path_188" d="M12.2 10.015l7.48-7.478a1.1 1.1 0 000-1.547l-.655-.655a1.1 1.1 0 00-1.547 0L10 7.813 2.522.335a1.1 1.1 0 00-1.547 0L.32.99a1.1 1.1 0 000 1.547l7.48 7.478-7.48 7.478a1.1 1.1 0 000 1.547l.655.655a1.1 1.1 0 001.547 0L10 12.218l7.478 7.482a1.085 1.085 0 00.773.319 1.085 1.085 0 00.773-.319l.655-.655a1.1 1.1 0 000-1.547z" data-name="Path 188" transform="translate(0 -.016)" style="fill:#fff"/>
        </g>
    </g>
</svg>
