<svg width="273" height="273" viewBox="0 0 273 273" fill="none" xmlns="http://www.w3.org/2000/svg">
<g clip-path="url(#clip0_2419_34176)">
<path d="M171.688 186.651C171.688 172.48 171.711 164.577 172.256 156.356C167.078 167.302 147.343 192.193 135.034 209.929H167.26V232.957H112.528L96.313 233.094L164.421 131.556H198.1V209.929H251.219C264.913 188.695 272.885 163.419 272.885 136.28C272.885 100.375 258.963 67.7408 236.253 43.4409V86.9536H226.783V67.9906H209.16V86.9536H199.69V43.1456H209.16V60.2237H226.783V34.2205C202.824 13.1228 171.347 0.291504 136.896 0.291504C97.8119 0.291504 62.5884 16.7791 37.7888 43.1684H109.553V50.9352H96.2903V86.9763H86.8201V50.9352H31.0212C12.1717 74.2586 0.884766 103.964 0.884766 136.303C0.884766 160.308 7.10736 182.859 18.031 202.458C23.981 191.352 34.0644 180.679 49.5981 169.369C68.0615 155.856 73.6482 151.201 73.6482 139.778C73.6482 128.354 68.1524 122.064 57.1606 122.064C44.3294 122.064 39.7192 129.899 37.9251 141.299H10.4458C12.3307 118.702 27.0923 99.9211 57.1606 99.9211C90.7717 99.9211 102.286 119.929 102.286 139.505C102.286 159.081 94.0647 167.779 69.9919 184.676C53.8676 195.985 47.3725 203.457 45.1696 209.339H107.1L89.886 233.094H41.377C65.9268 257.326 99.6741 272.292 136.896 272.292C148.933 272.292 160.583 270.725 171.711 267.795V186.674L171.688 186.651ZM211.386 201.89H207.797V197.802H211.386V201.89ZM225.239 201.89L223.922 198.188H218.062L216.813 201.89H213.407L218.857 185.834H223.218L228.918 201.89H225.261H225.239ZM234.436 201.89H230.962V185.834H234.436V201.89ZM173.959 42.5098C185.632 42.5098 191.287 49.3682 192.354 56.6809H182.884C181.976 53.2971 179.614 49.936 173.664 49.936C165.852 49.936 162.831 56.9534 162.831 64.9247C162.831 72.3282 165.443 80.1405 173.914 80.1405C180.091 80.1405 182.044 76.0073 182.862 73.441H192.4C190.628 81.6167 184.474 87.5668 173.505 87.5668C159.606 87.5668 153.043 77.7333 153.043 65.2654C153.043 52.7975 159.811 42.487 173.959 42.487V42.5098ZM115.435 43.1456H146.503V50.9125H124.633V60.2918H145.594V68.0587H124.633V79.1867H147.752L146.639 86.9536H115.458V43.1456H115.435Z" fill="#122C50"/>
<path d="M220.924 188.354H220.901C220.515 189.944 219.697 192.465 218.789 195.349H223.172C222.037 191.965 221.31 189.785 220.924 188.354Z" fill="#122C50"/>
<path d="M198.1 257.757C210.863 251.307 222.468 242.927 232.528 232.957H198.1V257.757Z" fill="#122C50"/>
</g>
<defs>
<clipPath id="clip0_2419_34176">
<rect width="272" height="272" fill="white" transform="translate(0.884766 0.291504)"/>
</clipPath>
</defs>
</svg>
