<svg xmlns="http://www.w3.org/2000/svg" version="1.1" xmlns:xlink="http://www.w3.org/1999/xlink" xmlns:svgjs="http://svgjs.dev/svgjs" width="2000" height="469" viewBox="0 0 2000 469"><g transform="matrix(1,0,0,1,-1.2121212121212466,0.3071278809057958)"><svg viewBox="0 0 396 93" data-background-color="#f8f8f8" preserveAspectRatio="xMidYMid meet" height="469" width="2000" xmlns="http://www.w3.org/2000/svg" xmlns:xlink="http://www.w3.org/1999/xlink"><g id="tight-bounds" transform="matrix(1,0,0,1,0.2400000000000091,-0.060901690670021935)"><svg viewBox="0 0 395.52 93.12180338134003" height="93.12180338134003" width="395.52"><g><svg viewBox="0 0 395.52 93.12180338134003" height="93.12180338134003" width="395.52"><g><svg viewBox="0 0 395.52 93.12180338134003" height="93.12180338134003" width="395.52"><g id="textblocktransform"><svg viewBox="0 0 395.52 93.12180338134003" height="93.12180338134003" width="395.52" id="textblock"><g><svg viewBox="0 0 395.52 93.12180338134003" height="93.12180338134003" width="395.52"><g transform="matrix(1,0,0,1,0,0)"><svg width="395.52" viewBox="0.5 -37 159.69 37.6" height="93.12180338134003" data-palette-color="#272727"><path d="M16 0L11.25 0 11.25-30.8 0.5-30.8 0.5-35 26.75-35 26.75-30.8 16-30.8 16 0ZM37.4 0.6L37.4 0.6Q31.8 0.6 28.52-2.98 25.25-6.55 25.25-13L25.25-13Q25.25-16.9 26.72-19.98 28.2-23.05 30.85-24.83 33.5-26.6 37-26.6L37-26.6Q40.75-26.6 43.22-24.98 45.7-23.35 46.95-20.6 48.2-17.85 48.2-14.55L48.2-14.55Q48.2-12.8 48.05-11.15L48.05-11.15 29.85-11.15Q30.3-7.5 32.4-5.45 34.5-3.4 37.95-3.4L37.95-3.4Q40.2-3.4 42-3.88 43.8-4.35 45.45-5.1L45.45-5.1 46.5-1.25Q44.7-0.45 42.45 0.08 40.2 0.6 37.4 0.6ZM29.8-14.8L29.8-14.8 44.05-14.8Q44.05-18.6 42.15-20.65 40.25-22.7 36.9-22.7L36.9-22.7Q34-22.7 32.1-20.68 30.2-18.65 29.8-14.8ZM64.7 0.6L64.7 0.6Q61 0.6 58.22-1.13 55.45-2.85 53.95-5.93 52.45-9 52.45-13L52.45-13Q52.45-16.75 53.97-19.85 55.5-22.95 58.35-24.78 61.2-26.6 65.05-26.6L65.05-26.6Q67.25-26.6 68.92-26.2 70.6-25.8 72.15-25.05L72.15-25.05 70.8-21.25Q69.4-21.95 68.12-22.28 66.85-22.6 65.3-22.6L65.3-22.6Q61.8-22.6 59.42-20.08 57.05-17.55 57.05-13.1L57.05-13.1Q57.05-10.4 58.05-8.2 59.05-6 60.82-4.7 62.6-3.4 65-3.4L65-3.4Q66.9-3.4 68.25-3.83 69.6-4.25 71.15-5.05L71.15-5.05 72.55-1.25Q71-0.4 69.07 0.1 67.15 0.6 64.7 0.6ZM82.29 0L77.79 0 77.79-37 82.29-37 82.29-21.85Q83.69-23.9 85.84-25.25 87.99-26.6 90.89-26.6L90.89-26.6Q95.29-26.6 97.47-23.95 99.64-21.3 99.64-16.95L99.64-16.95 99.64 0 95.14 0 95.14-16.45Q95.14-19.25 93.84-20.95 92.54-22.65 90.19-22.65L90.19-22.65Q87.89-22.65 85.82-21.03 83.74-19.4 82.29-17.2L82.29-17.2 82.29 0ZM128.09 0L107.79 0Q107.64-0.9 107.64-1.85L107.64-1.85Q107.64-5.1 108.77-7.68 109.89-10.25 111.69-12.38 113.49-14.5 115.52-16.32 117.54-18.15 119.32-19.83 121.09-21.5 122.24-23.2 123.39-24.9 123.39-26.75L123.39-26.75Q123.39-28.85 121.84-30.23 120.29-31.6 117.84-31.6L117.84-31.6Q115.74-31.6 114.02-30.78 112.29-29.95 110.79-28.55L110.79-28.55 108.29-31.6Q110.29-33.4 112.72-34.5 115.14-35.6 118.34-35.6L118.34-35.6Q121.29-35.6 123.49-34.48 125.69-33.35 126.92-31.4 128.14-29.45 128.14-27.05L128.14-27.05Q128.14-24.65 127.09-22.6 126.04-20.55 124.39-18.75 122.74-16.95 120.84-15.28 118.94-13.6 117.19-11.85 115.44-10.1 114.22-8.2 112.99-6.3 112.69-4.1L112.69-4.1 128.09-4.1 128.09 0ZM156.04 0L151.54 0 151.54-7.45 136.59-7.45 136.59-11.05 147.04-35.35 150.94-33.7 141.49-11.55 151.54-11.55 151.54-21.5 156.04-21.5 156.04-11.55 160.19-11.55 160.19-7.45 156.04-7.45 156.04 0Z" opacity="1" transform="matrix(1,0,0,1,0,0)" fill="#272727" class="wordmark-text-0" data-fill-palette-color="primary" id="text-0"></path></svg></g></svg></g></svg></g></svg></g></svg></g><defs></defs></svg><rect width="395.52" height="93.12180338134003" fill="none" stroke="none" visibility="hidden"></rect></g></svg></g></svg>