<svg xmlns="http://www.w3.org/2000/svg" width="44.971" height="48.866" viewBox="0 0 44.971 48.866">
    <defs>
        <style>
            .prefix__cls-1{fill:none;stroke:#fff;stroke-linecap:round;stroke-linejoin:round;stroke-width:1.5px}
        </style>
    </defs>
    <g id="prefix__Group_331" data-name="Group 331" transform="translate(-.25 49.116)">
        <path id="prefix__Path_295" d="M29.365-22.735a6.633 6.633 0 00-6.629-6.63 6.633 6.633 0 00-6.63 6.63 6.633 6.633 0 006.63 6.63 6.633 6.633 0 006.629-6.63z" class="prefix__cls-1" data-name="Path 295"/>
        <path id="prefix__Path_296" d="M37.248-15.083a3.074 3.074 0 00-3.073-3.072 3.074 3.074 0 00-3.075 3.072 3.074 3.074 0 003.072 3.072 3.074 3.074 0 003.076-3.072z" class="prefix__cls-1" data-name="Path 296"/>
        <path id="prefix__Path_297" d="M9.808-6.938a3.074 3.074 0 00-3.073-3.072 3.074 3.074 0 00-3.072 3.072 3.074 3.074 0 003.072 3.072 3.074 3.074 0 003.073-3.072z" class="prefix__cls-1" data-name="Path 297"/>
        <path id="prefix__Path_298" d="M30.6-44.47a3.9 3.9 0 00-3.9-3.9 3.9 3.9 0 00-3.9 3.9 3.9 3.9 0 003.9 3.9 3.9 3.9 0 003.9-3.9z" class="prefix__cls-1" data-name="Path 298"/>
        <path id="prefix__Path_299" d="M29.946-10.469a14.189 14.189 0 01-1.33.692" class="prefix__cls-1" data-name="Path 299"/>
        <path id="prefix__Path_300" d="M24.012-8.565q-.63.055-1.276.056A14.227 14.227 0 018.509-22.735a14.227 14.227 0 0114.227-14.226 14.23 14.23 0 0114.108 12.387" data-name="Path 300" style="stroke-dasharray:2.869 4.781;fill:none;stroke:#fff;stroke-linecap:round;stroke-linejoin:round;stroke-width:1.5px"/>
        <path id="prefix__Path_301" d="M36.951-22.184a14.169 14.169 0 01-.136 1.495" class="prefix__cls-1" data-name="Path 301"/>
        <path id="prefix__Path_302" d="M3.38-12.836q-.34-.666-.637-1.357" class="prefix__cls-1" data-name="Path 302"/>
        <path id="prefix__Path_303" d="M1.285-19.209A21.912 21.912 0 011-22.735a21.747 21.747 0 0115.05-20.688" data-name="Path 303" style="stroke-dasharray:3.141 5.234;fill:none;stroke:#fff;stroke-linecap:round;stroke-linejoin:round;stroke-width:1.5px"/>
        <path id="prefix__Path_304" d="M18.589-44.075c.488-.094.983-.172 1.482-.233" class="prefix__cls-1" data-name="Path 304"/>
        <path id="prefix__Path_305" d="M33.447-41.652q.654.371 1.278.785" class="prefix__cls-1" data-name="Path 305"/>
        <path id="prefix__Path_306" d="M38.36-37.845a21.664 21.664 0 016.111 15.11A21.735 21.735 0 0122.736-1a21.71 21.71 0 01-7.278-1.248" data-name="Path 306" style="stroke-dasharray:2.841 4.736;fill:none;stroke:#fff;stroke-linecap:round;stroke-linejoin:round;stroke-width:1.5px"/>
        <path id="prefix__Path_307" d="M13.266-3.165q-.676-.329-1.325-.7" class="prefix__cls-1" data-name="Path 307"/>
    </g>
</svg>
