<svg xmlns="http://www.w3.org/2000/svg" width="46.547" height="43.125" viewBox="0 0 46.547 43.125">
    <defs>
        <style>
            .prefix__cls-1{fill:none;stroke:#fff;stroke-linecap:round;stroke-linejoin:round;stroke-width:1.5px}
        </style>
    </defs>
    <g id="prefix__Group_261" data-name="Group 261" transform="translate(-.25 43.375)">
        <path id="prefix__Path_245" d="M21.386-24.575a7.188 7.188 0 00-.137-1.385l1.82-.9-1.64-3.325-1.722.9a8.975 8.975 0 00-3.393-2.175V-33h-4v1.543a9.182 9.182 0 00-3.455 2.175l-1.8-.9-1.63 3.325 1.825.9a7.187 7.187 0 00-.134 1.385 7.188 7.188 0 00.138 1.385l-1.819.9 1.641 3.325 1.783-.9a9.174 9.174 0 003.455 2.175V-16h4v-1.693a8.975 8.975 0 003.393-2.175l1.774.9 1.615-3.325-1.833-.9a7.187 7.187 0 00.119-1.382z" class="prefix__cls-1" data-name="Path 245"/>
        <path id="prefix__Path_246" d="M17.748-24.614a3.538 3.538 0 00-3.536-3.537 3.538 3.538 0 00-3.536 3.537 3.538 3.538 0 003.536 3.537 3.538 3.538 0 003.536-3.537z" class="prefix__cls-1" data-name="Path 246"/>
        <path id="prefix__Path_247" d="M38.448-11.757a8.952 8.952 0 00-.172-1.737l2.283-1.126-2.059-4.171-2.044 1.13a13.255 13.255 0 00-4.142-2.729V-22h-5v1.61a8.052 8.052 0 00-4.458 2.729l-2.325-1.13-2.074 4.171 2.274 1.126a8.952 8.952 0 00-.176 1.737 9.03 9.03 0 00.169 1.737l-2.283 1.126L20.5-4.723l2.36-1.13a8.052 8.052 0 004.458 2.729V-1h5v-2.124a13.255 13.255 0 004.142-2.729l2.167 1.13 2-4.171-2.32-1.126a8.955 8.955 0 00.141-1.737z" class="prefix__cls-1" data-name="Path 247"/>
        <path id="prefix__Path_248" d="M33.883-11.806a4.439 4.439 0 00-4.436-4.437 4.439 4.439 0 00-4.437 4.437 4.439 4.439 0 004.437 4.437 4.439 4.439 0 004.436-4.437z" class="prefix__cls-1" data-name="Path 248"/>
        <path id="prefix__Path_249" d="M1.314-36h44" class="prefix__cls-1" data-name="Path 249"/>
        <path id="prefix__Path_250" d="M5.689-39.25a.324.324 0 00-.324-.324.324.324 0 00-.324.324.324.324 0 00.324.324.324.324 0 00.324-.324z" class="prefix__cls-1" data-name="Path 250"/>
        <path id="prefix__Path_251" d="M8.689-39.25a.324.324 0 00-.324-.324.324.324 0 00-.324.324.324.324 0 00.324.324.324.324 0 00.324-.324z" class="prefix__cls-1" data-name="Path 251"/>
        <path id="prefix__Path_252" d="M11.689-39.25a.324.324 0 00-.324-.324.324.324 0 00-.324.324.324.324 0 00.324.324.324.324 0 00.324-.324z" class="prefix__cls-1" data-name="Path 252"/>
        <path id="prefix__Path_253" d="M19.374-7H2a1 1 0 01-1-1v-33.625a1 1 0 011-1h43.047a1 1 0 011 1V-8a1 1 0 01-1 1h-5.334" class="prefix__cls-1" data-name="Path 253"/>
    </g>
</svg>
