<svg xmlns="http://www.w3.org/2000/svg" width="52.18" height="41.162" viewBox="0 0 52.18 41.162">
    <defs>
        <style>
            .prefix__cls-1{fill:none;stroke:#fff;stroke-linecap:round;stroke-linejoin:round;stroke-width:1.5px}
        </style>
    </defs>
    <g id="prefix__Group_64" data-name="Group 64" transform="translate(-.25 37.75)">
        <path id="prefix__Path_177" d="M24-14v5.509" class="prefix__cls-1" data-name="Path 177" transform="translate(2.34 2.34)"/>
        <path id="prefix__Path_178" d="M20-.186h8.814V-9H20z" class="prefix__cls-1" data-name="Path 178" transform="translate(1.933 2.849)"/>
        <path id="prefix__Path_179" d="M1-4h20.933" class="prefix__cls-1" data-name="Path 179" transform="translate(0 3.357)"/>
        <path id="prefix__Path_180" d="M28-4h20.933" class="prefix__cls-1" data-name="Path 180" transform="translate(2.747 3.357)"/>
        <path id="prefix__Path_181" d="M7-13.881h37.459V-26H7z" class="prefix__cls-1" data-name="Path 181" transform="translate(.61 1.119)"/>
        <path id="prefix__Path_182" d="M15.6-20.654a1.89 1.89 0 00-1.889-1.889 1.89 1.89 0 00-1.889 1.889 1.89 1.89 0 001.889 1.889 1.89 1.89 0 001.889-1.889z" class="prefix__cls-1" data-name="Path 182" transform="translate(1.101 1.471)"/>
        <path id="prefix__Path_183" d="M22.824-20.654a1.89 1.89 0 00-1.889-1.889 1.89 1.89 0 00-1.889 1.889 1.89 1.89 0 001.889 1.889 1.89 1.89 0 001.889-1.889z" class="prefix__cls-1" data-name="Path 183" transform="translate(1.836 1.471)"/>
        <path id="prefix__Path_184" d="M7-24.881h37.459V-37H7z" class="prefix__cls-1" data-name="Path 184" transform="translate(.61)"/>
        <path id="prefix__Path_185" d="M15.6-30.971a1.89 1.89 0 00-1.889-1.889 1.89 1.89 0 00-1.889 1.889 1.89 1.89 0 001.889 1.889 1.89 1.89 0 001.889-1.889z" class="prefix__cls-1" data-name="Path 185" transform="translate(1.101 .421)"/>
        <path id="prefix__Path_186" d="M22.824-30.971a1.89 1.89 0 00-1.889-1.889 1.89 1.89 0 00-1.889 1.889 1.89 1.89 0 001.889 1.889 1.89 1.89 0 001.889-1.889z" class="prefix__cls-1" data-name="Path 186" transform="translate(1.836 .421)"/>
    </g>
</svg>
