<svg xmlns="http://www.w3.org/2000/svg" width="47.336" height="33.761" viewBox="0 0 47.336 33.761">
    <defs>
        <style>
            .prefix__cls-1{fill:none;stroke:#fff;stroke-linecap:round;stroke-linejoin:round;stroke-width:1.5px}
        </style>
    </defs>
    <g id="prefix__Group_329" data-name="Group 329" transform="translate(-.25 34.011)">
        <path id="prefix__Path_288" d="M11.989-10.6c-1.714.555-3.831-1.247-4.729-4.023s0-5.22 1.717-5.775" class="prefix__cls-1" data-name="Path 288"/>
        <path id="prefix__Path_289" d="M32.082-33.261L1-23.2l1.184 3.656 20.38-2.556 11.885-3.847z" class="prefix__cls-1" data-name="Path 289"/>
        <path id="prefix__Path_290" d="M8.977-20.4l3.156 9.752 24.683-7.99-2.366-7.309L22.565-22.1z" class="prefix__cls-1" data-name="Path 290"/>
        <path id="prefix__Path_291" d="M25.616-14.58l4.367-1.52 1.03 6.5-2.4.833z" class="prefix__cls-1" data-name="Path 291"/>
        <path id="prefix__Path_292" d="M33.131-7.645a2.516 2.516 0 00-3.2-1.552A2.516 2.516 0 0028.38-6a2.516 2.516 0 003.2 1.551 2.516 2.516 0 001.551-3.196z" class="prefix__cls-1" data-name="Path 292"/>
        <path id="prefix__Path_293" d="M32.836-8h11v3h-11" class="prefix__cls-1" data-name="Path 293"/>
        <path id="prefix__Path_294" d="M43.836-1h3v-12h-3z" class="prefix__cls-1" data-name="Path 294"/>
    </g>
</svg>
