<svg xmlns="http://www.w3.org/2000/svg" width="50.835" height="49.033" viewBox="0 0 50.835 49.033">
    <defs>
        <style>
            .prefix__cls-1{fill:none;stroke:#fff;stroke-linecap:round;stroke-linejoin:round;stroke-width:1.5px}
        </style>
    </defs>
    <g id="prefix__Group_259" data-name="Group 259" transform="translate(-2.085 51.118)">
        <path id="prefix__Path_218" d="M15.439-27.172a11.412 11.412 0 0011.407 11.406 11.412 11.412 0 0011.406-11.406 11.412 11.412 0 00-11.406-11.407 11.412 11.412 0 00-11.407 11.407z" class="prefix__cls-1" data-name="Path 218"/>
        <path id="prefix__Path_219" d="M20.635-27.172c0 6.3 2.783 11.406 6.212 11.406s6.211-5.111 6.211-11.406-2.783-11.406-6.211-11.406-6.212 5.11-6.212 11.406z" class="prefix__cls-1" data-name="Path 219"/>
        <path id="prefix__Path_220" d="M37.592-30.743H16.47" class="prefix__cls-1" data-name="Path 220"/>
        <path id="prefix__Path_221" d="M37.077-23.016H16.47" class="prefix__cls-1" data-name="Path 221"/>
        <path id="prefix__Path_222" d="M26.773-38.471V-15.8" class="prefix__cls-1" data-name="Path 222"/>
        <path id="prefix__Path_223" d="M52.171-34.094a4.881 4.881 0 00-4.879-4.879 4.881 4.881 0 00-4.878 4.879 4.881 4.881 0 004.878 4.878 4.881 4.881 0 004.879-4.878z" class="prefix__cls-1" data-name="Path 223"/>
        <path id="prefix__Path_224" d="M50.839-13.27a3.548 3.548 0 00-3.547-3.546 3.548 3.548 0 00-3.546 3.546 3.548 3.548 0 003.546 3.547 3.548 3.548 0 003.547-3.547z" class="prefix__cls-1" data-name="Path 224"/>
        <path id="prefix__Path_225" d="M33.161-46.822a3.548 3.548 0 00-3.546-3.547 3.548 3.548 0 00-3.547 3.547 3.548 3.548 0 003.547 3.547 3.548 3.548 0 003.546-3.547z" class="prefix__cls-1" data-name="Path 225"/>
        <path id="prefix__Path_226" d="M19.58-9.17a4.1 4.1 0 00-4.1-4.1 4.1 4.1 0 00-4.1 4.1 4.1 4.1 0 004.1 4.1 4.1 4.1 0 004.1-4.1z" class="prefix__cls-1" data-name="Path 226"/>
        <path id="prefix__Path_227" d="M42.711-32.432l-4.834 2.354" class="prefix__cls-1" data-name="Path 227"/>
        <path id="prefix__Path_228" d="M35.515-19.771l8.23 4.683" class="prefix__cls-1" data-name="Path 228"/>
        <path id="prefix__Path_229" d="M9.653-44.07a3.548 3.548 0 00.593 4.98 3.548 3.548 0 004.98-.593 3.548 3.548 0 00-.593-4.98 3.548 3.548 0 00-4.98.593z" class="prefix__cls-1" data-name="Path 229"/>
        <path id="prefix__Path_230" d="M27.791-8.578a3.548 3.548 0 00.594 4.98 3.548 3.548 0 004.98-.594 3.548 3.548 0 00-.593-4.98 3.548 3.548 0 00-4.981.594z" class="prefix__cls-1" data-name="Path 230"/>
        <path id="prefix__Path_231" d="M3.6-25.209a3.548 3.548 0 00.593 4.981 3.548 3.548 0 004.981-.593 3.548 3.548 0 00-.595-4.979 3.548 3.548 0 00-4.979.591z" class="prefix__cls-1" data-name="Path 231"/>
        <path id="prefix__Path_232" d="M16.957-12.986l3.262-4.9" class="prefix__cls-1" data-name="Path 232"/>
        <path id="prefix__Path_233" d="M9.931-24.368l5.508-1.678" class="prefix__cls-1" data-name="Path 233"/>
        <path id="prefix__Path_234" d="M15.086-38.737l2.549 3.529" class="prefix__cls-1" data-name="Path 234"/>
        <path id="prefix__Path_235" d="M29.221-43.3l-.4 4.326" class="prefix__cls-1" data-name="Path 235"/>
        <path id="prefix__Path_236" d="M29.221-16.015l1.023 6.1" class="prefix__cls-1" data-name="Path 236"/>
    </g>
</svg>
