<svg xmlns="http://www.w3.org/2000/svg" id="prefix__Component_10_1" width="20" height="20" data-name="Component 10 – 1" viewBox="0 0 20 20">
    <g id="prefix__icon">
        <path id="prefix__Path_195" d="M10 0a10 10 0 1010 10A10 10 0 0010 0zm2.082 15.5q-.772.3-1.232.464a3.249 3.249 0 01-1.068.16 2.129 2.129 0 01-1.454-.456 1.472 1.472 0 01-.517-1.157 4.2 4.2 0 01.038-.558c.026-.19.068-.4.124-.643l.644-2.276c.057-.218.106-.426.145-.619a2.744 2.744 0 00.058-.536.825.825 0 00-.179-.607 1.019 1.019 0 00-.688-.17 1.806 1.806 0 00-.512.076c-.174.053-.324.1-.448.149l.17-.7q.632-.258 1.211-.441A3.576 3.576 0 019.465 8a2.09 2.09 0 011.432.449 1.491 1.491 0 01.5 1.165q0 .149-.035.522a3.5 3.5 0 01-.129.687L10.6 13.09c-.052.182-.1.39-.141.623a3.3 3.3 0 00-.062.53.761.761 0 00.2.616 1.133 1.133 0 00.7.164 2.031 2.031 0 00.53-.082 3.013 3.013 0 00.428-.144zm-.113-9.209a1.529 1.529 0 01-1.079.417 1.545 1.545 0 01-1.09-.419 1.33 1.33 0 01-.451-1.01A1.343 1.343 0 019.8 4.267a1.534 1.534 0 011.084-.421 1.517 1.517 0 011.079.421 1.364 1.364 0 010 2.022z" data-name="Path 195" style="fill:#272727"/>
    </g>
</svg>
