<svg xmlns="http://www.w3.org/2000/svg" width="19.36" height="19.642" viewBox="0 0 19.36 19.642">
    <defs>
        <style>
            .prefix__cls-1{fill:none;stroke:#191970;stroke-linecap:round;stroke-linejoin:round}
        </style>
    </defs>
    <g id="prefix__Group_392" data-name="Group 392" transform="translate(-.5 37.825)">
        <path id="prefix__Path_325" d="M17.4-26.337v9.737H1V-33h8.713" class="prefix__cls-1" data-name="Path 325" transform="translate(0 -2.083)"/>
        <path id="prefix__Path_326" d="M13.229-23.985l-2.977.485a.357.357 0 0 1-.409-.409l.485-2.977 10.284-10.283a.357.357 0 0 1 .5 0l2.4 2.4a.357.357 0 0 1 0 .5z" class="prefix__cls-1" data-name="Path 326" transform="translate(-4.308)"/>
        <path id="prefix__Path_327" d="M27.5-34.749l2.9 2.9-1.1 1.1-2.9-2.9z" class="prefix__cls-1" data-name="Path 327" transform="translate(-12.381 -1.231)"/>
        <path id="prefix__Path_328" d="M10.6-12.942l1.125 1.125" class="prefix__cls-1" data-name="Path 328" transform="translate(-4.679 -11.861)"/>
        <path id="prefix__Path_329" d="M11.038-16.893l2.7 2.7" class="prefix__cls-1" data-name="Path 329" transform="translate(-4.893 -9.936)"/>
    </g>
</svg>
