<svg width="72" height="72" viewBox="0 0 72 72" fill="none" xmlns="http://www.w3.org/2000/svg">
<path d="M56.4777 22.7551C42.7453 22.7551 29.1189 22.7551 15.3946 22.7551C22.2934 27.8613 29.1134 32.9132 35.9362 37.9678C42.7779 32.9023 49.5898 27.8559 56.4777 22.7551ZM56.4859 25.1833C56.3772 25.2512 56.3012 25.2946 56.2333 25.3462C52.1701 28.3529 48.1068 31.3596 44.0463 34.369C41.4715 36.2784 38.8967 38.1851 36.3273 40.1026C36.0747 40.29 35.8982 40.3634 35.5967 40.1379C33.6194 38.6468 31.6231 37.1828 29.6349 35.708C25.2594 32.465 20.8838 29.2221 16.5082 25.9818C16.1416 25.7102 15.7667 25.4495 15.3783 25.1724C15.3783 33.2826 15.3783 41.3248 15.3783 49.3698C29.0971 49.3698 42.7834 49.3698 56.4859 49.3698C56.4859 41.3085 56.4859 33.269 56.4859 25.1833ZM34.4369 0C35.4256 0 36.4169 0 37.4083 0C37.4952 0.0190125 37.5821 0.0461884 37.669 0.0516205C40.2927 0.171127 42.873 0.559486 45.4044 1.2548C51.6051 2.95506 56.9775 6.07853 61.5215 10.6225C64.4494 13.5504 66.7988 16.8912 68.5696 20.6366C70.3948 24.4961 71.5057 28.5512 71.8506 32.81C71.8968 33.3532 71.9511 33.8937 72 34.4369C72 35.4255 72 36.4169 72 37.4083C71.9783 37.5875 71.9457 37.7641 71.9321 37.9433C71.8696 38.6821 71.8398 39.4263 71.7528 40.1623C71.3047 43.9621 70.2835 47.6044 68.6592 51.0728C66.1469 56.4478 62.54 60.9456 57.8358 64.558C54.2234 67.3284 50.2308 69.3464 45.8525 70.604C43.6308 71.245 41.3737 71.6605 39.0732 71.8506C38.5164 71.8968 37.9651 71.9511 37.4083 72C36.4169 72 35.4256 72 34.4369 72C34.35 71.981 34.2631 71.9565 34.1762 71.9457C32.8833 71.8099 31.5823 71.723 30.2976 71.5328C26.1203 70.9217 22.2011 69.5311 18.5208 67.4778C14.3517 65.1528 10.7882 62.1135 7.81411 58.3735C5.04644 54.8915 3.00126 51.0266 1.65953 46.7895C0.861006 44.2609 0.350382 41.6779 0.146678 39.0352C0.105937 38.492 0.048889 37.9515 0 37.4083C0 36.4169 0 35.4255 0 34.4369C0.0190124 34.35 0.0488997 34.2631 0.0516157 34.1762C0.13853 32.0631 0.412857 29.9717 0.899031 27.9184C2.61558 20.6475 6.22794 14.4684 11.728 9.40842C14.7536 6.62445 18.1732 4.43803 21.9566 2.83285C25.186 1.46667 28.5431 0.575775 32.0359 0.225403C32.8344 0.146637 33.6357 0.0760498 34.4369 0Z" fill="#888888"/>
</svg>
