<svg width="72" height="72" viewBox="0 0 72 72" fill="none" xmlns="http://www.w3.org/2000/svg">
<path d="M72.0001 36.0003C72.0001 16.1182 55.8822 0.000297546 36.0001 0.000297546C16.1179 0.000297546 0 16.1182 0 36.0003C0 53.9689 13.1649 68.8622 30.375 71.5625V46.4067H21.2342V36.0003H30.375V28.0691C30.375 19.0467 35.7499 14.0627 43.9729 14.0627C47.9115 14.0627 52.0316 14.7656 52.0316 14.7656V23.6254H47.4918C43.0198 23.6254 41.6252 26.4003 41.6252 29.2473V36.0003H51.6097L50.0134 46.4067H41.6252V71.5625C58.8353 68.8622 72.0001 53.9689 72.0001 36.0003Z" fill="#4676ED"/>
<path d="M50.0136 46.4064L51.6099 36H41.6253V29.2469C41.6253 26.3999 43.02 23.625 47.492 23.625H52.0317V14.7653C52.0317 14.7653 47.9117 14.0623 43.9731 14.0623C35.7501 14.0623 30.3752 19.0463 30.3752 28.0688V36H21.2344V46.4064H30.3752V71.5621C32.2082 71.8501 34.0866 72 36.0002 72C37.9139 72 39.7923 71.8501 41.6253 71.5621V46.4064H50.0136Z" fill="white"/>
</svg>
