<svg width="72" height="72" viewBox="0 0 72 72" fill="none" xmlns="http://www.w3.org/2000/svg">
<path d="M72 36C72 55.8821 55.8821 72 36 72C16.1179 72 0 55.8821 0 36C0 16.1179 16.1179 0 36 0C55.8821 0 72 16.1179 72 36Z" fill="#4467AD"/>
<path d="M38.8028 31.0886C39.3943 30.4246 39.8812 29.7499 40.4887 29.1777C42.3559 27.4182 44.5639 26.5302 47.142 26.5521C48.5591 26.5638 49.9601 26.6662 51.326 27.0614C54.4508 27.9648 56.2668 30.1158 57.1324 33.168C57.782 35.4571 57.9014 37.8075 57.9057 40.1648C57.9142 45.1382 57.8913 50.111 57.902 55.0843C57.9031 55.5499 57.7729 55.672 57.3142 55.6678C54.7526 55.647 52.19 55.6464 49.6284 55.6688C49.1777 55.6726 49.0801 55.5328 49.0817 55.1072C49.0961 50.375 49.0993 45.6433 49.0844 40.911C49.0801 39.7254 49.0049 38.5403 48.6721 37.3872C48.0593 35.2635 46.5393 34.1814 44.3142 34.2987C41.2758 34.4593 39.6961 35.9638 39.3089 39.0528C39.2161 39.791 39.1724 40.5291 39.1729 41.2726C39.1772 45.8747 39.1681 50.4763 39.1852 55.0784C39.1868 55.5376 39.0721 55.6731 38.6033 55.6688C36.023 55.6459 33.4423 55.6486 30.8615 55.6667C30.4481 55.6699 30.3281 55.5584 30.3287 55.1403C30.3404 46.0288 30.3404 36.9174 30.3281 27.8059C30.3276 27.3552 30.4753 27.2507 30.9015 27.2539C33.3521 27.272 35.8033 27.2742 38.2535 27.2523C38.7047 27.2486 38.8209 27.3942 38.8108 27.8214C38.7857 28.9099 38.8028 29.9995 38.8028 31.0886Z" fill="#FEFEFE"/>
<path d="M24.7693 41.5007C24.7693 46.0079 24.7619 50.5156 24.78 55.0234C24.7821 55.5242 24.6573 55.6756 24.1389 55.6698C21.5784 55.6415 19.0168 55.6484 16.4557 55.666C16.0456 55.6692 15.9219 55.5663 15.9219 55.1423C15.9347 46.0159 15.9336 36.8895 15.9245 27.7631C15.924 27.3855 16.0157 27.2511 16.4168 27.2532C19.0147 27.2703 21.6131 27.2751 24.2109 27.2506C24.7101 27.2452 24.7784 27.4394 24.7773 27.8671C24.7651 32.4116 24.7693 36.9562 24.7693 41.5007Z" fill="#FEFEFE"/>
<path d="M25.4653 18.2106C25.4675 21.041 23.1709 23.3466 20.3475 23.3477C17.5597 23.3487 15.2435 21.041 15.2344 18.2548C15.2248 15.4383 17.54 13.1188 20.3576 13.1215C23.156 13.1242 25.4621 15.4223 25.4653 18.2106Z" fill="#FEFEFE"/>
</svg>
