<svg width="96" height="96" xmlns="http://www.w3.org/2000/svg" xmlns:xlink="http://www.w3.org/1999/xlink" xml:space="preserve" overflow="hidden"><defs><clipPath id="clip0"><rect x="680" y="188" width="96" height="96"/></clipPath></defs><g clip-path="url(#clip0)" transform="translate(-680 -188)"><path d="M727.1 207.7C724.8 207.7 722.9 209.6 722.9 211.9 722.9 214.2 724.8 216.1 727.1 216.1 729.4 216.1 731.3 214.2 731.3 211.9 731.3 209.6 729.4 207.7 727.1 207.7Z" fill="#2B7C9F"/><path d="M718.7 232.2C718.7 234.52 716.82 236.4 714.5 236.4 712.18 236.4 710.3 234.52 710.3 232.2 710.3 229.88 712.18 228 714.5 228 716.82 228 718.7 229.88 718.7 232.2Z" fill="#2B7C9F"/><path d="M739 213.3 736.5 214.5C736.3 215.3 735.9 216 735.5 216.7L736.4 219.3 734.4 221.3 731.8 220.4C731.1 220.8 730.4 221.1 729.6 221.3L728.4 223.7 725.6 223.7 724.4 221.2C723.6 221 722.9 220.7 722.2 220.3L719.6 221.2 717.6 219.2 718.5 216.6C718.1 215.9 717.8 215.2 717.6 214.4L715.1 213.2 715.1 210.4 717.6 209.2C717.8 208.4 718.1 207.7 718.5 207L717.7 204.4 719.7 202.4 722.3 203.3C723 202.9 723.7 202.6 724.5 202.4L725.7 199.9 728.5 199.9 729.7 202.3C730.5 202.5 731.2 202.8 731.9 203.2L734.5 202.3 736.5 204.3 735.6 206.9C736 207.6 736.3 208.3 736.5 209.1L739 210.3 739 213.3ZM726.4 233.6 723.9 234.8C723.7 235.6 723.4 236.3 723 237L723.8 239.6 721.8 241.6 719.2 240.7C718.5 241.1 717.8 241.4 717 241.6L715.9 244 713.1 244 711.9 241.5C711.1 241.3 710.4 241 709.7 240.6L707.1 241.4 705.1 239.4 706 236.8C705.6 236.1 705.3 235.4 705.1 234.6L702.6 233.4 702.6 230.6 705.1 229.4C705.3 228.6 705.6 227.9 706 227.2L705.1 224.6 707.1 222.6 709.7 223.5C710.4 223.1 711.1 222.8 711.9 222.6L713.1 220.1 716 220.1 717.2 222.6C718 222.8 718.7 223.1 719.4 223.5L722 222.6 724 224.6 723.1 227.2C723.5 227.9 723.8 228.6 724 229.4L726.5 230.6 726.4 233.6 726.4 233.6ZM761 237.3 754.1 225.3 754.1 224.8C754.5 213.8 748.9 203.5 739.4 197.8 729.9 192.2 718.2 192.2 708.7 197.8 699.2 203.4 693.6 213.8 694 224.8 694 234.3 698.3 243.2 705.8 249L705.8 274.3 737.4 274.3 737.4 262.3 742.3 262.3C745.5 262.3 748.5 261 750.7 258.8 752.9 256.5 754.1 253.5 754.1 250.3L754.1 244.3 758.5 244.3C761.1 244 763.4 241 761 237.3Z" fill="#2B7C9F"/></g></svg>