<svg width="64" height="64" xmlns="http://www.w3.org/2000/svg" xmlns:xlink="http://www.w3.org/1999/xlink" xml:space="preserve" overflow="hidden"><defs><clipPath id="clip0"><rect x="187" y="336" width="64" height="64"/></clipPath></defs><g clip-path="url(#clip0)" transform="translate(-187 -336)"><path d="M202.964 384.595C200.354 382.244 198.471 379.427 197.237 376.401 193.965 368.376 195.497 358.833 201.886 352.249L207.781 358.144C208.106 358.469 208.69 358.235 208.768 357.755L211.988 336.681C212.04 336.33 211.741 336.031 211.391 336.083L190.303 339.303C189.823 339.381 189.589 339.966 189.914 340.29L195.822 346.198C186.07 356.171 184.408 371.129 190.81 382.816 192.732 386.335 195.394 389.555 198.783 392.256 204.548 396.839 211.638 399.034 218.675 398.891L220 390.23C213.936 390.749 207.703 388.88 202.964 384.595Z" fill="#2B7C9F"/><path d="M242.178 389.801C251.929 379.829 253.592 364.871 247.19 353.184 245.268 349.665 242.606 346.445 239.217 343.744 233.452 339.161 226.362 336.966 219.325 337.109L218 345.77C224.051 345.251 230.297 347.12 235.036 351.405 237.646 353.756 239.529 356.573 240.762 359.599 244.035 367.623 242.502 377.167 236.114 383.751L230.219 377.855C229.894 377.531 229.31 377.765 229.232 378.245L226.012 399.319C225.96 399.67 226.258 399.969 226.609 399.917L247.696 396.696C248.177 396.618 248.398 396.034 248.086 395.71L242.178 389.801Z" fill="#2B7C9F"/></g></svg>