<svg width="147" height="147" xmlns="http://www.w3.org/2000/svg" xmlns:xlink="http://www.w3.org/1999/xlink" xml:space="preserve" overflow="hidden"><defs><clipPath id="clip0"><rect x="946" y="305" width="147" height="147"/></clipPath></defs><g clip-path="url(#clip0)" transform="translate(-946 -305)"><rect x="981.219" y="326.438" width="80" height="110" fill="#fdffef"/><path d="M981.219 326.438 1057.78 326.438 1057.78 430.562 981.219 430.562 981.219 326.438ZM972.031 439.75 1066.97 439.75 1066.97 317.25 972.031 317.25 972.031 439.75Z" stroke="#2B7C9F" stroke-width="0.333333" fill="#2B7C9F"/><path d="M1022.56 340.219 1048.59 340.219 1048.59 346.344 1022.56 346.344Z" stroke="#2B7C9F" stroke-width="0.333333" fill="#2B7C9F"/><path d="M1022.56 364.719 1048.59 364.719 1048.59 370.844 1022.56 370.844Z" stroke="#2B7C9F" stroke-width="0.333333" fill="#2B7C9F"/><path d="M1022.56 413.719 1048.59 413.719 1048.59 419.844 1022.56 419.844Z" stroke="#2B7C9F" stroke-width="0.333333" fill="#2B7C9F"/><path d="M1022.56 389.219 1048.59 389.219 1048.59 395.344 1022.56 395.344Z" stroke="#2B7C9F" stroke-width="0.333333" fill="#2B7C9F"/><path d="M1013.07 336.85 1008.78 332.562 998.675 342.669 994.694 338.688 990.406 342.975 998.675 351.244Z" stroke="#2B7C9F" stroke-width="0.333333" fill="#2B7C9F"/><path d="M1013.07 361.35 1008.78 357.062 998.675 367.169 994.694 363.188 990.406 367.475 998.675 375.744Z" stroke="#2B7C9F" stroke-width="0.333333" fill="#2B7C9F"/><path d="M1013.07 385.85 1008.78 381.562 998.675 391.669 994.694 387.688 990.406 391.975 998.675 400.244Z" stroke="#2B7C9F" stroke-width="0.333333" fill="#2B7C9F"/><path d="M1013.07 410.044 1008.78 405.756 998.675 415.862 994.694 411.881 990.406 416.169 998.675 424.438Z" stroke="#2B7C9F" stroke-width="0.333333" fill="#2B7C9F"/></g></svg>