<svg width="68" height="67" xmlns="http://www.w3.org/2000/svg" xmlns:xlink="http://www.w3.org/1999/xlink" xml:space="preserve" overflow="hidden"><defs><clipPath id="clip0"><rect x="225" y="619" width="68" height="67"/></clipPath></defs><g clip-path="url(#clip0)" transform="translate(-225 -619)"><path d="M38.1833 40.4294 38.1833 0 6.73823 0 6.73823 40.4294 0 40.4294 0 44.9216 44.9216 44.9216 44.9216 40.4294 38.1833 40.4294ZM20.2147 4.49219 24.7069 4.49219 24.7069 8.98438 20.2147 8.98438 20.2147 4.49219ZM20.2147 13.4765 24.7069 13.4765 24.7069 17.9686 20.2147 17.9686 20.2147 13.4765ZM20.2147 22.4607 24.7069 22.4607 24.7069 26.9529 20.2147 26.9529 20.2147 22.4607ZM15.7225 26.9529 11.2303 26.9529 11.2303 22.4607 15.7225 22.4607 15.7225 26.9529ZM15.7225 17.9686 11.2303 17.9686 11.2303 13.4765 15.7225 13.4765 15.7225 17.9686ZM15.7225 8.98427 11.2303 8.98427 11.2303 4.49219 15.7225 4.49219 15.7225 8.98427ZM26.9529 40.4294 17.9686 40.4294 17.9686 31.4451 26.9529 31.4451 26.9529 40.4294ZM33.6912 26.9529 29.199 26.9529 29.199 22.4607 33.6912 22.4607 33.6912 26.9529ZM33.6912 17.9686 29.199 17.9686 29.199 13.4765 33.6912 13.4765 33.6912 17.9686ZM33.6912 8.98427 29.199 8.98427 29.199 4.49219 33.6912 4.49219 33.6912 8.98427Z" fill="#2B7C9F" transform="matrix(1.01493 0 0 1 225 641.061)"/><path d="M32.5098 36.7303 41.8554 36.7303 41.8554 46.076 32.5098 46.076Z" fill="#2B7C9F" transform="matrix(1 0 0 5.59536 239.865 428.17)"/><path d="M32.5098 36.7303 41.8554 36.7303 41.8554 46.076 32.5098 46.076Z" fill="#2B7C9F" transform="matrix(1 0 0 5.59536 251.127 428.17)"/><path d="M30.2556 34.1835 38.9533 34.1835 38.9533 42.8812 30.2556 42.8812Z" fill="#2B7C9F" transform="matrix(1.0745 0 0 1 239.865 589.125)"/><path d="M30.2556 34.1835 38.9533 34.1835 38.9533 42.8812 30.2556 42.8812Z" fill="#2B7C9F" transform="matrix(1.0745 0 0 1 251.127 589.125)"/><path d="M11.7552 14.2936 32.7984 14.2936 32.7984 19.259 11.7552 19.259Z" fill="#2B7C9F" fill-rule="evenodd" transform="matrix(1.01493 0 0 1 225.187 621.802)"/></g></svg>