<svg width="96" height="96" xmlns="http://www.w3.org/2000/svg" xmlns:xlink="http://www.w3.org/1999/xlink" xml:space="preserve" overflow="hidden"><defs><clipPath id="clip0"><rect x="680" y="558" width="96" height="96"/></clipPath></defs><g clip-path="url(#clip0)" transform="translate(-680 -558)"><path d="M744 578C744 572.477 739.523 568 734 568L722 568C716.477 568 712 572.477 712 578L712 605 744 605Z" fill="#2B7C9F"/><path d="M755 593 750 593C748.343 593 747 594.343 747 596L747 596C747.002 597.268 747.804 598.396 749 598.816L749 609.043C748.998 610.068 748.464 611.017 747.59 611.552 746.886 610.021 745.356 609.039 743.671 609.037L712.328 609.037C710.643 609.039 709.114 610.021 708.41 611.552 707.536 611.017 707.002 610.068 707 609.043L707 598.816C708.196 598.396 708.997 597.268 709 596L709 596C709 594.343 707.657 593 706 593L701 593C699.343 593 698 594.343 698 596L698 596C698 597.657 699.343 599 701 599L703 599 703 609.043C703.004 612.367 705.356 615.224 708.617 615.868 709.389 617.186 710.801 617.997 712.328 618L726 618 726 630 718.11 630C714.307 630.005 711.032 632.682 710.271 636.408 708.28 637.365 707.441 639.754 708.397 641.746 709.354 643.737 711.744 644.576 713.735 643.619 715.726 642.663 716.565 640.273 715.609 638.282 715.317 637.674 714.876 637.15 714.327 636.758 714.86 635.118 716.386 634.006 718.11 634L726 634 726 636.555C724.087 637.66 723.431 640.106 724.536 642.019 725.641 643.932 728.087 644.588 730 643.483 731.913 642.379 732.569 639.932 731.464 638.019 731.113 637.411 730.608 636.906 730 636.555L730 634 738 634C739.697 634.005 741.205 635.082 741.76 636.686 739.913 637.914 739.412 640.407 740.64 642.254 741.868 644.101 744.361 644.602 746.208 643.374 748.055 642.146 748.556 639.653 747.328 637.806 746.955 637.245 746.447 636.787 745.85 636.474 745.116 632.718 741.827 630.006 738 630L730 630 730 618 743.671 618C745.198 617.997 746.61 617.186 747.382 615.868 750.643 615.224 752.995 612.367 753 609.043L753 599 755 599C756.657 599 758 597.657 758 596L758 596C758 594.343 756.657 593 755 593Z" fill="#2B7C9F"/></g></svg>