<svg width="62" height="62" xmlns="http://www.w3.org/2000/svg" xmlns:xlink="http://www.w3.org/1999/xlink" xml:space="preserve" overflow="hidden"><defs><clipPath id="clip0"><rect x="233" y="347" width="62" height="62"/></clipPath></defs><g clip-path="url(#clip0)" transform="translate(-233 -347)"><path d="M284.667 357.462C284.667 359.959 282.643 361.983 280.146 361.983 277.649 361.983 275.625 359.959 275.625 357.462 275.625 354.966 277.649 352.942 280.146 352.942 282.643 352.942 284.667 354.966 284.667 357.462Z" fill="#2B7C9F"/><path d="M252.375 357.462C252.375 359.959 250.351 361.983 247.854 361.983 245.357 361.983 243.333 359.959 243.333 357.462 243.333 354.966 245.357 352.942 247.854 352.942 250.351 352.942 252.375 354.966 252.375 357.462Z" fill="#2B7C9F"/><path d="M268.521 357.462C268.521 359.959 266.497 361.983 264 361.983 261.503 361.983 259.479 359.959 259.479 357.462 259.479 354.966 261.503 352.942 264 352.942 266.497 352.942 268.521 354.966 268.521 357.462Z" fill="#2B7C9F"/><path d="M275.496 378.517 272.59 367.796C272.46 367.408 272.267 367.021 272.008 366.763 270.781 365.471 269.231 364.502 267.552 363.921 266.454 363.533 265.292 363.34 264.065 363.34 262.837 363.34 261.675 363.533 260.577 363.921 258.833 364.502 257.348 365.471 256.121 366.763 255.863 367.085 255.669 367.408 255.54 367.796L252.633 378.517C252.375 379.55 252.892 380.712 253.99 380.971 254.183 381.035 254.312 381.035 254.506 381.035 255.346 381.035 256.121 380.454 256.379 379.615L258.962 370.185 258.962 403.058 262.837 403.058 262.837 384.587 265.421 384.587 265.421 402.994 269.296 402.994 269.296 370.185 271.879 379.615C272.138 380.454 272.913 381.035 273.752 381.035 273.946 381.035 274.075 381.035 274.269 380.971 275.173 380.712 275.754 379.55 275.496 378.517Z" fill="#2B7C9F"/><path d="M251.277 378.194 254.183 367.473C254.312 366.892 254.635 366.375 254.958 365.923 253.925 365.019 252.633 364.308 251.277 363.856 250.179 363.469 249.017 363.275 247.79 363.275 246.562 363.275 245.4 363.469 244.302 363.856 242.558 364.438 241.073 365.406 239.846 366.698 239.587 367.021 239.394 367.344 239.265 367.731L236.358 378.517C236.1 379.55 236.617 380.712 237.715 380.971 237.908 381.035 238.038 381.035 238.231 381.035 239.071 381.035 239.846 380.454 240.104 379.615L242.688 370.185 242.688 403.058 246.562 403.058 246.562 384.587 249.146 384.587 249.146 402.994 253.021 402.994 253.021 382.069C251.665 381.423 250.89 379.808 251.277 378.194Z" fill="#2B7C9F"/><path d="M291.642 378.517 288.671 367.796C288.542 367.408 288.348 367.021 288.09 366.763 286.862 365.471 285.312 364.502 283.633 363.921 282.535 363.533 281.373 363.34 280.146 363.34 278.919 363.34 277.756 363.533 276.658 363.921 275.302 364.373 274.075 365.083 272.977 365.987 273.365 366.44 273.623 366.956 273.752 367.473L276.658 378.194C277.11 379.808 276.271 381.423 274.915 382.069L274.915 403.058 278.79 403.058 278.79 384.587 281.373 384.587 281.373 402.994 285.248 402.994 285.248 370.185 287.831 379.615C288.09 380.454 288.865 381.035 289.704 381.035 289.898 381.035 290.027 381.035 290.221 380.971 291.319 380.712 291.9 379.55 291.642 378.517Z" fill="#2B7C9F"/></g></svg>