<svg width="148" height="148" xmlns="http://www.w3.org/2000/svg" xmlns:xlink="http://www.w3.org/1999/xlink" xml:space="preserve" overflow="hidden"><defs><clipPath id="clip0"><rect x="588" y="262" width="148" height="148"/></clipPath></defs><g clip-path="url(#clip0)" transform="translate(-588 -262)"><path d="M679.421 319.504C672.946 319.504 667.858 314.263 667.858 307.942 667.858 301.621 673.1 296.379 679.421 296.379 685.896 296.379 690.983 301.621 690.983 307.942 690.983 314.263 685.742 319.504 679.421 319.504ZM705.475 300.696C704.858 298.538 704.088 296.533 703.008 294.683L705.475 287.438 699.925 281.888 692.679 284.354C690.829 283.275 688.825 282.504 686.667 281.888L683.275 275.104 675.567 275.104 672.175 281.888C670.017 282.504 668.013 283.275 666.162 284.354L658.917 281.888 653.367 287.438 655.833 294.683C654.754 296.533 653.983 298.538 653.367 300.696L646.583 304.087 646.583 311.796 653.367 315.188C653.983 317.346 654.754 319.35 655.833 321.2L653.367 328.446 658.763 333.842 666.008 331.375C667.858 332.454 669.862 333.225 672.021 333.842L675.412 340.625 683.121 340.625 686.513 333.842C688.671 333.225 690.675 332.454 692.525 331.375L699.771 333.842 705.321 328.446 702.854 321.2C703.933 319.35 704.858 317.192 705.475 315.188L712.258 311.796 712.258 304.087 705.475 300.696Z" stroke="#2B7C9F" stroke-width="1.54167" fill="#2B7C9F"/><path d="M644.579 375.621C638.104 375.621 633.017 370.379 633.017 364.058 633.017 357.583 638.258 352.496 644.579 352.496 651.054 352.496 656.142 357.737 656.142 364.058 656.142 370.379 651.054 375.621 644.579 375.621L644.579 375.621ZM668.167 350.8 670.633 343.554 665.083 338.004 657.838 340.471C655.987 339.392 653.829 338.621 651.825 338.004L648.433 331.221 640.725 331.221 637.333 338.004C635.175 338.621 633.171 339.392 631.321 340.471L624.075 338.004 618.679 343.4 620.992 350.646C619.912 352.496 619.142 354.654 618.525 356.658L611.742 360.05 611.742 367.758 618.525 371.15C619.142 373.308 619.912 375.312 620.992 377.162L618.679 384.408 624.075 389.804 631.321 387.492C633.171 388.571 635.175 389.342 637.333 389.958L640.725 396.742 648.433 396.742 651.825 389.958C653.983 389.342 655.987 388.571 657.838 387.492L665.083 389.958 670.479 384.408 668.167 377.317C669.246 375.467 670.017 373.462 670.633 371.304L677.417 367.912 677.417 360.204 670.633 356.812C670.017 354.654 669.246 352.65 668.167 350.8Z" stroke="#2B7C9F" stroke-width="1.54167" fill="#2B7C9F"/></g></svg>