<svg width="96" height="96" xmlns="http://www.w3.org/2000/svg" xmlns:xlink="http://www.w3.org/1999/xlink" xml:space="preserve" overflow="hidden"><defs><clipPath id="clip0"><rect x="623" y="338" width="96" height="96"/></clipPath></defs><g clip-path="url(#clip0)" transform="translate(-623 -338)"><path d="M687 368C687 376.837 679.837 384 671 384 662.163 384 655 376.837 655 368 655 359.163 662.163 352 671 352 679.837 352 687 359.163 687 368Z" fill="#2B7C9F"/><path d="M703 420 703 404C703 401.6 701.8 399.2 699.8 397.6 695.4 394 689.8 391.6 684.2 390 680.2 388.8 675.8 388 671 388 666.6 388 662.2 388.8 657.8 390 652.2 391.6 646.6 394.4 642.2 397.6 640.2 399.2 639 401.6 639 404L639 420 703 420Z" fill="#2B7C9F"/></g></svg>