<svg width="30" height="53" xmlns="http://www.w3.org/2000/svg" xmlns:xlink="http://www.w3.org/1999/xlink" xml:space="preserve" overflow="hidden"><defs><clipPath id="clip0"><rect x="235" y="228" width="52" height="53"/></clipPath></defs><g clip-path="url(#clip0)" transform="translate(-246 -228)"><path d="M33.2319 23.6214C31.1914 22.4937 29.0219 21.6345 26.874 20.7431 25.6282 20.2276 24.4361 19.6262 23.3836 18.7885 21.3108 17.1346 21.7082 14.4496 24.1354 13.3864 24.8227 13.0857 25.5423 12.989 26.2726 12.9461 29.0864 12.7957 31.7606 13.3112 34.3059 14.5356 35.5732 15.1477 35.992 14.9544 36.4216 13.6334 36.8727 12.2373 37.2486 10.8196 37.6674 9.41272 37.9466 8.46762 37.603 7.84472 36.7116 7.44735 35.0791 6.72779 33.4037 6.21228 31.6424 5.93305 29.3441 5.57864 29.3441 5.5679 29.3334 3.25886 29.3227 0.00472548 29.3227 0.00472548 26.0578 0.00472548 25.5852 0.00472548 25.1127-0.00601424 24.6401 0.00472548 23.1151 0.0476844 22.8573 0.316177 22.8144 1.85196 22.7929 2.5393 22.8144 3.22664 22.8036 3.92472 22.7929 5.96527 22.7822 5.93305 20.8275 6.64187 16.1021 8.36023 13.1809 11.5821 12.8694 16.7372 12.5902 21.3016 14.9744 24.3839 18.7226 26.6285 21.0316 28.0139 23.5876 28.8301 26.0363 29.9148 26.9921 30.3337 27.905 30.817 28.6998 31.4828 31.0518 33.4267 30.6222 36.6594 27.8298 37.8837 26.337 38.5388 24.7583 38.6999 23.1366 38.4959 20.6342 38.1844 18.2393 37.5293 15.9839 36.3587 14.6629 35.6713 14.2763 35.8539 13.8252 37.2823 13.4386 38.5174 13.0949 39.7632 12.7513 41.009 12.2895 42.6844 12.4613 43.0817 14.0615 43.8657 16.1021 44.8538 18.2822 45.3586 20.5053 45.713 22.2452 45.9922 22.2989 46.0674 22.3204 47.8717 22.3311 48.6879 22.3311 49.5148 22.3418 50.3311 22.3526 51.3621 22.8466 51.9635 23.9098 51.985 25.1127 52.0064 26.3263 52.0064 27.5291 51.9742 28.5172 51.9527 29.0219 51.4158 29.0219 50.417 29.0219 49.3 29.0756 48.1724 29.0327 47.0554 28.979 45.917 29.473 45.3371 30.5685 45.0364 33.0923 44.349 35.2402 42.9958 36.8942 40.9768 41.4908 35.3921 39.7402 27.2192 33.2319 23.6214Z" fill="#2B7C9F" transform="matrix(1 0 0 1.01923 235 228)"/></g></svg>
