<svg width="96" height="96" xmlns="http://www.w3.org/2000/svg" xmlns:xlink="http://www.w3.org/1999/xlink" xml:space="preserve" overflow="hidden"><defs><clipPath id="clip0"><rect x="39" y="571" width="96" height="96"/></clipPath></defs><g clip-path="url(#clip0)" transform="translate(-39 -571)"><path d="M118 635.96C117.89 633.052 116.544 630.33 114.3 628.478 111.165 625.817 106.868 623.527 100.868 621.301 102.976 621.072 105.043 620.557 107.012 619.771 107.012 619.771 104.751 618.418 103.349 612.881 102.46 609.402 105.862 600.704 105.891 594.581 105.891 589.681 104.499 587.488 101.871 585.999 100.353 585.139 96.855 585.932 96.855 585.932 96.855 585.932 95.047 582.507 89 580.622 84.028 579.268 78.7217 579.946 74.25 582.507 70.51 584.923 68.702 587.58 68.615 596.723 68.538 605.101 69.688 612.543 69.157 616.051 68.9118 617.993 68.1729 619.84 67.011 621.415 68.8508 621.569 70.6983 621.609 72.543 621.534 66.864 623.688 62.743 625.91 59.716 628.478 57.4606 630.339 56.1116 633.078 56.011 636L56.019 653.57 56.909 654.164C62.409 657.831 76.241 658.7 81.932 658.903L84.5 659 77.943 628.7C80.8812 629.592 83.9385 630.031 87.009 630 90.0782 630.03 93.1341 629.592 96.071 628.7L89.507 659.01 92.064 658.931C97.93 658.751 112.12 657.921 117.211 654.102L118.011 653.502ZM75.009 604 75.009 598.941C75.4967 598.912 75.9822 598.853 76.463 598.766 79.8178 598.324 83.0918 597.403 86.185 596.031 89.662 594.283 91.656 593.425 94.541 590.812 94.9221 590.438 95.5344 590.444 95.9085 590.825 96.0502 590.969 96.143 591.154 96.174 591.354 96.404 592.943 97.002 596.442 97.798 597.838 98.1569 598.524 98.5618 599.185 99.01 599.817L99.01 604C99.0028 610.624 93.6344 615.993 87.01 616L87.01 616C80.3852 615.993 75.0162 610.625 75.009 604ZM87.009 626C83.5777 626.099 80.1681 625.425 77.033 624.027L77.9 623.671C79.7783 622.904 81.0043 621.076 81 619.047L81 618.822C84.8478 620.393 89.1582 620.393 93.006 618.822L93.006 619.044C93.0009 621.073 94.2271 622.903 96.106 623.67L96.977 624.028C93.8442 625.424 90.4375 626.098 87.009 626Z" fill="#2B7C9F"/></g></svg>