<svg width="49" height="49" xmlns="http://www.w3.org/2000/svg" xmlns:xlink="http://www.w3.org/1999/xlink" xml:space="preserve" overflow="hidden"><defs><clipPath id="clip0"><rect x="238" y="106" width="49" height="49"/></clipPath></defs><g clip-path="url(#clip0)" transform="translate(-238 -106)"><path d="M264.133 136.217C264.133 137.119 263.402 137.85 262.5 137.85 261.598 137.85 260.867 137.119 260.867 136.217 260.867 135.315 261.598 134.583 262.5 134.583 263.402 134.583 264.133 135.315 264.133 136.217Z" fill="#2B7C9F"/><path d="M285.367 111.717C285.365 111.266 285 110.901 284.55 110.9L273.117 110.9 273.117 113.35 278.833 113.35C279.284 113.35 279.65 113.716 279.65 114.167 279.65 114.618 279.284 114.983 278.833 114.983L273.117 114.983 273.117 117.433 285.367 117.433 285.367 111.717ZM282.917 114.983 282.1 114.983C281.649 114.983 281.283 114.618 281.283 114.167 281.283 113.716 281.649 113.35 282.1 113.35L282.917 113.35C283.368 113.35 283.733 113.716 283.733 114.167 283.733 114.618 283.368 114.983 282.917 114.983Z" fill="#2B7C9F"/><path d="M248.617 132.133C248.617 133.035 247.885 133.767 246.983 133.767 246.081 133.767 245.35 133.035 245.35 132.133 245.35 131.231 246.081 130.5 246.983 130.5 247.885 130.5 248.617 131.231 248.617 132.133Z" fill="#2B7C9F"/><path d="M251.883 114.983 251.067 114.983C250.616 114.983 250.25 114.618 250.25 114.167 250.25 113.716 250.616 113.35 251.067 113.35L251.883 113.35 251.883 110.9 240.45 110.9C240 110.901 239.635 111.266 239.633 111.717L239.633 117.433 251.883 117.433 251.883 114.983ZM247.8 114.983 242.083 114.983C241.632 114.983 241.267 114.618 241.267 114.167 241.267 113.716 241.632 113.35 242.083 113.35L247.8 113.35C248.251 113.35 248.617 113.716 248.617 114.167 248.617 114.618 248.251 114.983 247.8 114.983Z" fill="#2B7C9F"/><path d="M271.483 107.633C271.482 107.183 271.117 106.818 270.667 106.817L254.333 106.817C253.883 106.818 253.518 107.183 253.517 107.633L253.517 114.983 271.483 114.983 271.483 107.633ZM264.95 111.717 255.967 111.717C255.516 111.717 255.15 111.351 255.15 110.9 255.15 110.449 255.516 110.083 255.967 110.083L264.95 110.083C265.401 110.083 265.767 110.449 265.767 110.9 265.767 111.351 265.401 111.717 264.95 111.717ZM269.033 111.717 268.217 111.717C267.766 111.717 267.4 111.351 267.4 110.9 267.4 110.449 267.766 110.083 268.217 110.083L269.033 110.083C269.484 110.083 269.85 110.449 269.85 110.9 269.85 111.351 269.484 111.717 269.033 111.717Z" fill="#2B7C9F"/><path d="M279.65 132.133C279.65 133.035 278.919 133.767 278.017 133.767 277.115 133.767 276.383 133.035 276.383 132.133 276.383 131.231 277.115 130.5 278.017 130.5 278.919 130.5 279.65 131.231 279.65 132.133Z" fill="#2B7C9F"/><path d="M286.183 150.917 282.1 150.917C282.097 150.016 281.368 149.286 280.467 149.283L278.833 149.283 278.833 138.667 284.55 138.667C285 138.665 285.365 138.3 285.367 137.85L285.367 119.067 273.117 119.067 273.117 138.667 277.2 138.667 277.2 149.283 275.567 149.283C274.666 149.286 273.936 150.016 273.933 150.917L266.583 150.917C266.581 150.016 265.851 149.286 264.95 149.283L263.317 149.283 263.317 142.75 270.667 142.75C271.117 142.749 271.482 142.384 271.483 141.933L271.483 116.617 253.517 116.617 253.517 141.933C253.518 142.384 253.883 142.749 254.333 142.75L261.683 142.75 261.683 149.283 260.05 149.283C259.149 149.286 258.419 150.016 258.417 150.917L251.067 150.917C251.064 150.016 250.334 149.286 249.433 149.283L247.8 149.283 247.8 138.667 251.883 138.667 251.883 119.067 239.633 119.067 239.633 137.85C239.635 138.3 240 138.665 240.45 138.667L246.167 138.667 246.167 149.283 244.533 149.283C243.632 149.286 242.903 150.016 242.9 150.917L238.817 150.917C238.366 150.917 238 151.282 238 151.733 238 152.184 238.366 152.55 238.817 152.55L242.9 152.55C242.903 153.451 243.632 154.181 244.533 154.183L249.433 154.183C250.334 154.181 251.064 153.451 251.067 152.55L258.417 152.55C258.419 153.451 259.149 154.181 260.05 154.183L264.95 154.183C265.851 154.181 266.581 153.451 266.583 152.55L273.933 152.55C273.936 153.451 274.666 154.181 275.567 154.183L280.467 154.183C281.368 154.181 282.098 153.451 282.1 152.55L286.184 152.55C286.635 152.55 287 152.184 287 151.733 287 151.282 286.634 150.917 286.183 150.917ZM244.533 120.7 249.433 120.7C249.884 120.7 250.25 121.066 250.25 121.517 250.25 121.968 249.884 122.333 249.433 122.333L244.533 122.333C244.082 122.333 243.717 121.968 243.717 121.517 243.717 121.066 244.082 120.7 244.533 120.7ZM244.533 123.967 249.433 123.967C249.884 123.967 250.25 124.332 250.25 124.783 250.25 125.234 249.884 125.6 249.433 125.6L244.533 125.6C244.082 125.6 243.717 125.234 243.717 124.783 243.717 124.332 244.082 123.967 244.533 123.967ZM244.673 134.443C244.061 133.831 243.716 133 243.717 132.133 243.717 130.329 245.179 128.867 246.983 128.867 248.787 128.867 250.25 130.329 250.25 132.133 250.25 133.937 248.787 135.4 246.983 135.4 246.117 135.4 245.286 135.056 244.673 134.443ZM258.417 118.25 266.583 118.25C267.034 118.25 267.4 118.616 267.4 119.067 267.4 119.518 267.034 119.883 266.583 119.883L258.417 119.883C257.966 119.883 257.6 119.518 257.6 119.067 257.6 118.616 257.966 118.25 258.417 118.25ZM258.417 121.517 266.583 121.517C267.034 121.517 267.4 121.882 267.4 122.333 267.4 122.784 267.034 123.15 266.583 123.15L258.417 123.15C257.966 123.15 257.6 122.784 257.6 122.333 257.6 121.882 257.966 121.517 258.417 121.517ZM257.6 125.6C257.601 125.15 257.966 124.785 258.417 124.783L266.583 124.783C267.034 124.783 267.4 125.149 267.4 125.6 267.4 126.051 267.034 126.417 266.583 126.417L258.417 126.417C257.966 126.415 257.601 126.05 257.6 125.6ZM260.19 138.527C259.577 137.914 259.233 137.083 259.233 136.217 259.233 134.413 260.696 132.95 262.5 132.95 264.304 132.95 265.767 134.413 265.767 136.217 265.767 138.021 264.304 139.483 262.5 139.483 261.634 139.484 260.803 139.139 260.19 138.527ZM275.567 120.7 280.467 120.7C280.918 120.7 281.283 121.066 281.283 121.517 281.283 121.968 280.918 122.333 280.467 122.333L275.567 122.333C275.116 122.333 274.75 121.968 274.75 121.517 274.75 121.066 275.116 120.7 275.567 120.7ZM275.567 123.967 280.467 123.967C280.918 123.967 281.283 124.332 281.283 124.783 281.283 125.234 280.918 125.6 280.467 125.6L275.567 125.6C275.116 125.6 274.75 125.234 274.75 124.783 274.75 124.332 275.116 123.967 275.567 123.967ZM275.707 134.443C275.094 133.831 274.75 133 274.75 132.133 274.75 130.329 276.213 128.867 278.017 128.867 279.821 128.867 281.283 130.329 281.283 132.133 281.283 133.937 279.821 135.4 278.017 135.4 277.15 135.4 276.319 135.056 275.707 134.443Z" fill="#2B7C9F"/></g></svg>