<svg width="96" height="96" xmlns="http://www.w3.org/2000/svg" xmlns:xlink="http://www.w3.org/1999/xlink" xml:space="preserve" overflow="hidden"><defs><clipPath id="clip0"><rect x="39" y="135" width="96" height="96"/></clipPath></defs><g clip-path="url(#clip0)" transform="translate(-39 -135)"><path d="M83.946 195 90.066 195 92.006 189 82.006 189 83.946 195Z" fill="#2B7C9F"/><path d="M84.096 197 82.736 216.73 87.006 221 91.276 216.73 89.916 197 84.096 197Z" fill="#2B7C9F"/><path d="M119 199.96C118.944 197.026 117.573 194.273 115.266 192.46 111.53 189.402 107.139 187.514 102.53 185.866L97.625 183.853C97.2499 183.699 97.005 183.333 97.005 182.928L97.005 180.474C100.708 177.51 102.902 173.053 102.991 168.311L105.539 163.94C105.921 163.039 106.074 162.057 105.985 161.083 105.405 154.529 101.431 148.76 95.514 145.883 95.0374 145.659 94.4774 145.709 94.048 146.014L93.038 146.714 91.921 145.187C91.5772 144.705 91.0599 144.376 90.478 144.268 89.4376 144.088 88.3837 143.999 87.328 144 78.3214 144.001 70.5897 150.41 68.918 159.26L68.878 159.478C68.3925 162.075 67.387 164.547 65.922 166.745L71.01 166.745 71.01 168C71.0103 172.85 73.2141 177.436 77 180.467L77 182.923C77 183.328 76.7551 183.694 76.38 183.848L71.48 185.857C66.868 187.506 62.48 189.391 58.766 192.428 56.4331 194.254 55.0511 197.038 55.006 200L55.006 217.5 55.806 218.1C60.191 221.389 71.788 222.449 78.306 222.788L80.659 222.91 76.767 188.01 77.898 187.546C79.7767 186.78 81.0035 184.952 81 182.923L81 182.823C84.8478 184.394 89.1582 184.394 93.006 182.823L93.006 182.923C93.0013 184.952 94.2274 186.781 96.106 187.548L97.237 188.012 93.344 222.912 95.696 222.79C102.219 222.451 113.816 221.39 118.202 218.102L119.002 217.502ZM75.01 168 75.01 166.745 81.979 166.745C92.259 166.745 90.861 158.552 95.359 157.379 96.5952 157.149 97.8724 157.313 99.01 157.849L99.01 168C99.01 174.627 93.6374 180 87.01 180 80.3826 180 75.01 174.627 75.01 168ZM111.005 205 102.005 205 102.005 203 111.005 203Z" fill="#2B7C9F"/></g></svg>