<svg width="96" height="96" xmlns="http://www.w3.org/2000/svg" xmlns:xlink="http://www.w3.org/1999/xlink" xml:space="preserve" overflow="hidden"><defs><clipPath id="clip0"><rect x="95" y="379" width="96" height="96"/></clipPath></defs><g clip-path="url(#clip0)" transform="translate(-95 -379)"><path d="M142.984 388.86C143.221 388.86 143.414 388.667 143.414 388.43 143.414 388.193 143.221 388 142.984 388 142.746 388 142.554 388.193 142.554 388.43 142.554 388.667 142.746 388.86 142.984 388.86Z" fill="#2b7c9f"/><path d="M151.048 461.078C150.45 460.27 149.734 459.555 148.925 458.958L155.676 452.207C152.541 449.513 148.628 447.89 144.506 447.576L144.506 457.125C143.513 456.958 142.499 456.958 141.506 457.125L141.506 447.576C137.384 447.89 133.47 449.513 130.335 452.208L137.086 458.959C136.276 459.555 135.56 460.27 134.962 461.078L128.213 454.329C125.502 457.483 123.874 461.423 123.571 465.571 127.689 466.25 131.843 466.684 136.012 466.871 136.18 463.009 139.447 460.014 143.309 460.182 146.948 460.34 149.857 463.261 150 466.9 154.169 466.728 158.324 466.308 162.443 465.641 162.154 461.468 160.526 457.501 157.8 454.328Z" fill="#2b7c9f"/><path d="M174 443.959C173.891 441.051 172.545 438.328 170.3 436.477 167.158 433.81 162.849 431.515 156.828 429.284L153.628 427.971C153.253 427.817 153.008 427.452 153.008 427.046L153.008 426 158.882 426C158.882 426 165.156 414.578 160.182 401.859 160.561 401.206 160.762 400.465 160.764 399.71L160.764 397.71C163.764 396.27 165.504 394.47 165.504 392.5 165.484 387.81 155.414 383 142.984 383 130.554 383 120.484 387.81 120.484 392.5 120.484 394.5 122.254 396.27 125.224 397.71L125.224 399.8C125.227 400.541 125.419 401.27 125.784 401.915 120.851 414.611 127.1 426 127.1 426L133 426 133 427.046C133 427.452 132.755 427.817 132.379 427.971L129.265 429.254C123.2 431.5 118.871 433.8 115.716 436.477 113.46 438.338 112.111 441.077 112.011 444L112.019 461.57 112.909 462.163C115.293 463.533 117.894 464.486 120.599 464.979 121.026 460.246 122.946 455.771 126.082 452.2L121.438 447.556C120.852 446.97 120.853 446.02 121.438 445.435 122.024 444.849 122.974 444.849 123.56 445.435L128.2 450.077C131.905 446.823 136.58 444.882 141.5 444.556L141.5 438C141.5 437.172 142.172 436.5 143 436.5 143.828 436.5 144.5 437.172 144.5 438L144.5 444.556C149.42 444.881 154.095 446.822 157.8 450.076L162.443 445.433C163.039 444.857 163.988 444.874 164.564 445.47 165.125 446.051 165.125 446.973 164.564 447.554L159.929 452.2C163.084 455.794 165.007 460.304 165.416 465.069 168.859 464.302 171.597 463.315 173.216 462.104L174.016 461.504ZM131.009 412 131.009 405.817C138.531 409.774 147.531 409.725 155.009 405.685L155.009 412C155.009 418.627 149.636 424 143.009 424 136.382 424 131.009 418.627 131.009 412ZM138.209 392.309C138.235 392.164 138.339 392.045 138.479 391.999 138.611 391.938 138.766 391.957 138.879 392.049L140.449 393.259C140.562 393.342 140.62 393.48 140.599 393.619 140.59 393.761 140.501 393.885 140.369 393.939L139.869 394.149C140.197 395.389 141.216 396.326 142.479 396.549L142.479 391.149 138.969 391.149 138.969 390.07 142.479 390.07 142.479 389.8C141.694 389.502 141.3 388.624 141.598 387.839 141.896 387.054 142.774 386.66 143.559 386.958 144.344 387.257 144.738 388.134 144.44 388.919 144.286 389.325 143.965 389.646 143.559 389.8L143.559 390.07 147.029 390.07 147.029 391.15 143.479 391.15 143.479 396.55C144.733 396.336 145.75 395.416 146.089 394.19L145.589 393.98C145.46 393.921 145.37 393.8 145.349 393.66 145.329 393.519 145.387 393.378 145.499 393.29L147.069 392.08C147.177 391.974 147.339 391.942 147.479 392 147.61 392.056 147.702 392.178 147.719 392.32L147.979 394.32C147.996 394.454 147.948 394.588 147.849 394.68 147.736 394.769 147.584 394.792 147.449 394.74L147.129 394.6C146.709 395.969 145.644 397.045 144.279 397.48L143.169 398.08C143.051 398.146 142.907 398.146 142.789 398.08L141.659 397.47C140.302 397.036 139.244 395.963 138.829 394.6L138.509 394.74C138.374 394.792 138.223 394.769 138.109 394.68 137.996 394.592 137.936 394.453 137.949 394.31ZM143.009 432C140.36 432.025 137.721 431.657 135.18 430.908 136.335 429.959 137.004 428.541 137 427.046L137 426.821C140.848 428.392 145.158 428.392 149.006 426.821L149.006 427.043C149.002 428.539 149.672 429.958 150.829 430.907 148.291 431.656 145.655 432.025 143.009 432Z" fill="#2b7c9f"/></g></svg>