<svg width="68" height="67" xmlns="http://www.w3.org/2000/svg" xmlns:xlink="http://www.w3.org/1999/xlink" xml:space="preserve" overflow="hidden"><defs><clipPath id="clip0"><rect x="183" y="142" width="68" height="67"/></clipPath></defs><g clip-path="url(#clip0)" transform="translate(-183 -142)"><path d="M22.8189 63.0578 16.9575 63.0578 16.9575 66.6974 50.0425 66.6974 50.0425 63.0578 44.1811 63.0578Z" fill="#2B7C9F" transform="matrix(1.01493 0 0 1 183 142)"/><path d="M23.3635 58.3289 23.3635 61.9685 43.6365 61.9685 43.6365 58.3289 35.6354 58.3289 31.3646 58.3289Z" fill="#2B7C9F" transform="matrix(1.01493 0 0 1 183 142)"/><path d="M33.5 13.7372C32.9424 13.7372 32.4064 13.6421 31.9093 13.4735L31.9093 57.2396 35.095 57.2396 35.095 13.4735C34.5936 13.6464 34.0576 13.7372 33.5 13.7372Z" fill="#2B7C9F" transform="matrix(1.01493 0 0 1 183 142)"/><path d="M35.0907 4.16697 35.0907 1.89329C35.0907 1.01581 34.3775 0.302581 33.5 0.302581 32.6225 0.302581 31.9093 1.01581 31.9093 1.89329L31.9093 4.16697C32.4107 3.99406 32.9424 3.90329 33.5 3.90329 34.0576 3.90329 34.5936 3.99406 35.0907 4.16697Z" fill="#2B7C9F" transform="matrix(1.01493 0 0 1 183 142)"/><path d="M33.5 12.6479C35.6094 12.6479 37.3298 10.9318 37.3298 8.81806 37.3298 6.70864 35.6137 4.98826 33.5 4.98826 31.3906 4.98826 29.6702 6.70432 29.6702 8.81806 29.6702 10.9318 31.3906 12.6479 33.5 12.6479Z" fill="#2B7C9F" transform="matrix(1.01493 0 0 1 183 142)"/><path d="M66.183 33.1066C66.183 33.1023 66.183 33.1023 66.183 33.098 66.183 33.0894 66.183 33.0807 66.1787 33.0721 66.1787 33.0634 66.1744 33.0548 66.1744 33.0461 66.1744 33.0375 66.1701 33.0288 66.1701 33.0202 66.1701 33.0115 66.1657 33.0029 66.1614 32.9943 66.1571 32.9856 66.1571 32.977 66.1528 32.9683 66.1485 32.9554 66.1441 32.9424 66.1398 32.9337L56.816 9.96787 61.2294 9.96787 61.2294 7.68123 38.2808 7.68123C38.3672 8.04865 38.4148 8.43336 38.4148 8.82671 38.4148 9.22006 38.3672 9.60477 38.2808 9.97219L54.9314 9.97219 45.6075 32.9381C45.6032 32.951 45.5989 32.964 45.5946 32.9726 45.5903 32.9813 45.5903 32.9899 45.5859 32.9986 45.5816 33.0072 45.5816 33.0159 45.5773 33.0245 45.573 33.0332 45.573 33.0418 45.573 33.0504 45.573 33.0591 45.5686 33.0677 45.5686 33.0764 45.5686 33.085 45.5643 33.0937 45.5643 33.1023L45.5643 33.111 45.5643 33.1542C45.5643 35.9077 46.6363 38.4969 48.5815 40.4421 50.5266 42.3872 53.1159 43.4592 55.8694 43.4592 58.6228 43.4592 61.2121 42.3872 63.1572 40.4421 65.1067 38.4969 66.1787 35.9077 66.1787 33.1542 66.183 33.1326 66.183 33.1196 66.183 33.1066ZM46.9216 32.6052 55.878 10.5428 64.8344 32.6052Z" fill="#2B7C9F" transform="matrix(1.01493 0 0 1 183 142)"/><path d="M21.4314 33.1455C21.4314 33.1326 21.4314 33.1153 21.4314 33.1023 21.4314 33.098 21.4314 33.098 21.4314 33.0937 21.4314 33.085 21.4314 33.0764 21.427 33.0677 21.427 33.0591 21.4227 33.0504 21.4227 33.0418 21.4227 33.0332 21.4184 33.0245 21.4184 33.0159 21.4184 33.0072 21.4141 32.9986 21.4097 32.9899 21.4054 32.9813 21.4054 32.9726 21.4011 32.964 21.3968 32.951 21.3925 32.9381 21.3881 32.9294L12.0643 9.96355 28.7149 9.96355C28.6285 9.59613 28.5809 9.21142 28.5809 8.81806 28.5809 8.42471 28.6285 8.04 28.7149 7.67258L5.77065 7.67258 5.77065 9.95923 10.184 9.95923 0.860194 32.9294C0.855871 32.9424 0.851548 32.9554 0.847226 32.964 0.842903 32.9726 0.842903 32.9813 0.838581 32.9899 0.834258 32.9986 0.834258 33.0072 0.829935 33.0159 0.825613 33.0245 0.825613 33.0332 0.825613 33.0418 0.825613 33.0504 0.82129 33.0591 0.82129 33.0677 0.82129 33.0764 0.816968 33.085 0.816968 33.0937L0.816968 33.1023 0.816968 33.1455C0.816968 35.899 1.88897 38.4883 3.83845 40.4334 5.78361 42.3786 8.37284 43.4506 11.1263 43.4506 13.8798 43.4506 16.469 42.3786 18.4142 40.4334 20.3594 38.4883 21.4314 35.899 21.4314 33.1455ZM2.16994 32.6052 11.1263 10.5428 20.0827 32.6052Z" fill="#2B7C9F" transform="matrix(1.01493 0 0 1 183 142)"/></g></svg>