<svg width="68" height="69" xmlns="http://www.w3.org/2000/svg" xmlns:xlink="http://www.w3.org/1999/xlink" xml:space="preserve" overflow="hidden"><defs><clipPath id="clip0"><rect x="227" y="474" width="68" height="69"/></clipPath></defs><g clip-path="url(#clip0)" transform="translate(-227 -474)"><path d="M67.8586 34C67.8586 34.5156 67.8422 35.0256 67.8191 35.5357 68.1035 33.0015 68.0721 30.5068 67.5865 27.9604 67.3825 27.2135 67.1799 26.4667 66.9757 25.7214 67.0437 25.3827 66.8397 24.7719 66.5011 23.9571 66.1624 22.9396 65.8902 21.8527 65.4156 20.8352 64.1941 18.0534 62.6337 15.4064 60.7336 13.0314 58.9012 10.7924 56.8649 8.7561 54.5579 7.05979 54.464 6.98355 54.3633 6.92246 54.2681 6.84755 62.5181 13.0397 67.8586 22.9002 67.8586 34Z" fill="#2B7C9F" transform="matrix(1 0 0 1.01471 227 474)"/><path d="M24.7148 2.83268C24.6878 2.84131 24.661 2.85008 24.6345 2.86336 24.6537 2.86336 24.6817 2.85167 24.7148 2.83268Z" fill="#2B7C9F" transform="matrix(1 0 0 1.01471 227 474)"/><path d="M66.0262 34.068C65.9582 34.136 65.9582 34.272 65.9582 34.34 66.0942 34.272 66.0942 34.204 66.0262 34.068Z" fill="#2B7C9F" transform="matrix(1 0 0 1.01471 227 474)"/><path d="M29.5859 34.204C29.6046 34.1865 29.6006 34.1804 29.6009 34.1721 29.601 34.1713 29.6008 34.1707 29.6009 34.17 29.5997 34.162 29.5915 34.1502 29.5883 34.1414 29.5872 34.1408 29.586 34.1401 29.586 34.1401 29.5859 34.2029 29.5859 34.204 29.5859 34.204Z" fill="#2B7C9F" transform="matrix(1 0 0 1.01471 227 474)"/><path d="M65.8236 37.8686C65.8236 38.1406 65.8236 38.8181 65.9596 39.0221 66.0262 38.0713 65.9596 37.0538 65.8916 36.0363 65.8236 36.5791 65.8236 37.3258 65.8236 37.8686Z" fill="#2B7C9F" transform="matrix(1 0 0 1.01471 227 474)"/><path d="M28.5017 8.76022C28.4993 8.75783 28.4993 8.75384 28.4984 8.75052 28.4965 8.75265 28.4975 8.75584 28.5017 8.76022Z" fill="#2B7C9F" transform="matrix(1 0 0 1.01471 227 474)"/><path d="M66.4342 25.652C66.2982 25.0412 66.0956 24.4305 65.9596 23.8877 65.0767 21.5807 62.9737 18.0521 62.8377 18.1202 62.6337 18.2562 64.3979 20.902 64.5341 21.242 64.6021 21.4461 64.6021 21.378 64.5341 21.31 65.2129 22.8022 65.8916 24.2959 66.4344 25.788 66.4342 25.72 66.4342 25.72 66.4342 25.652Z" fill="#2B7C9F" transform="matrix(1 0 0 1.01471 227 474)"/><path d="M18.7976 14.0502C18.7976 14.0747 18.7976 14.0829 18.7976 14.0925 18.8111 14.0544 18.8166 14.0299 18.7976 14.0502Z" fill="#2B7C9F" transform="matrix(1 0 0 1.01471 227 474)"/><path d="M29.5192 9.57092C29.6552 9.43492 29.4512 9.57092 29.3832 9.57092 29.3152 9.70692 29.4512 9.63892 29.5192 9.57092Z" fill="#2B7C9F" transform="matrix(1 0 0 1.01471 227 474)"/><path d="M25.2439 10.6564C25.1759 10.5204 25.1079 10.5204 24.9719 10.5884 24.9039 10.6564 25.1079 10.5884 25.2439 10.6564Z" fill="#2B7C9F" transform="matrix(1 0 0 1.01471 227 474)"/><path d="M48.4762 5.20715C48.4675 5.19187 48.4588 5.17806 48.4501 5.16093 48.4431 5.16093 48.4533 5.17806 48.4762 5.20715Z" fill="#2B7C9F" transform="matrix(1 0 0 1.01471 227 474)"/><path d="M52.1351 5.37994C51.6855 5.09319 51.2281 4.8176 50.7646 4.55171 50.8772 4.61851 50.9894 4.68558 51.0973 4.75279 51.4536 4.95002 51.791 5.16903 52.1351 5.37994Z" fill="#2B7C9F" transform="matrix(1 0 0 1.01471 227 474)"/><path d="M50.1045 4.18182C50.3262 4.30241 50.5458 4.4262 50.7645 4.55171 50.5509 4.42487 50.3301 4.30122 50.1045 4.18182Z" fill="#2B7C9F" transform="matrix(1 0 0 1.01471 227 474)"/><path d="M52.1351 5.37994C52.8111 5.81119 53.4736 6.25997 54.1156 6.73612 53.4791 6.24643 52.818 5.79751 52.1351 5.37994Z" fill="#2B7C9F" transform="matrix(1 0 0 1.01471 227 474)"/><path d="M27.6869 7.46793C27.8909 7.39993 28.0936 7.39993 28.2977 7.19592 28.0257 7.33192 27.8216 7.26392 27.6869 7.46793Z" fill="#2B7C9F" transform="matrix(1 0 0 1.01471 227 474)"/><path d="M66.2982 32.7105C66.2302 32.9145 66.1622 33.1186 66.2302 33.2532 66.2302 33.1172 66.3662 32.9812 66.2982 32.7105Z" fill="#2B7C9F" transform="matrix(1 0 0 1.01471 227 474)"/><path d="M66.2302 39.5635C66.2982 40.4463 65.9596 41.2611 65.8916 42.2106 66.2302 41.8039 66.2982 40.3103 66.2982 39.7676 66.2982 39.6995 66.2982 39.6315 66.2302 39.5635Z" fill="#2B7C9F" transform="matrix(1 0 0 1.01471 227 474)"/><path d="M65.1447 43.1615C65.2127 43.1615 65.2807 43.0935 65.3487 43.0935 65.3487 43.0935 65.3487 43.0255 65.4167 42.9574 65.3487 42.9574 65.0087 43.1615 65.1447 43.1615Z" fill="#2B7C9F" transform="matrix(1 0 0 1.01471 227 474)"/><path d="M66.7731 34.272C66.8411 34.068 66.7731 33.9333 66.705 33.7973 66.2304 34.068 66.3664 35.0175 66.3664 35.4936 66.7731 35.0868 66.6384 34.8828 66.7731 34.272Z" fill="#2B7C9F" transform="matrix(1 0 0 1.01471 227 474)"/><path d="M65.8222 39.0221C65.4836 39.2248 65.4836 39.2248 65.4836 39.5648 65.5514 39.3608 65.7556 39.2261 65.8222 39.0221Z" fill="#2B7C9F" transform="matrix(1 0 0 1.01471 227 474)"/><path d="M8.82131 35.1535C8.75331 35.0175 8.82131 35.2215 8.82131 35.1535L8.82131 35.1535Z" fill="#2B7C9F" transform="matrix(1 0 0 1.01471 227 474)"/><path d="M19.5416 13.377C19.5433 13.3763 19.5456 13.3753 19.5473 13.3745 19.5461 13.3738 19.5444 13.3742 19.5416 13.377Z" fill="#2B7C9F" transform="matrix(1 0 0 1.01471 227 474)"/><path d="M11.1964 27.7577C11.1393 27.8148 11.1326 27.9957 11.1311 28.0992 11.2658 28.2325 11.4004 28.3005 11.5351 28.3005 11.6725 28.1645 11.3324 27.6217 11.1964 27.7577Z" fill="#2B7C9F" transform="matrix(1 0 0 1.01471 227 474)"/><path d="M10.315 25.7894C10.1789 25.8574 10.5176 25.7894 10.315 25.7894L10.315 25.7894Z" fill="#2B7C9F" transform="matrix(1 0 0 1.01471 227 474)"/><path d="M11.1257 28.163C11.127 28.163 11.127 28.1644 11.1284 28.1644 11.1284 28.1535 11.1312 28.1182 11.1312 28.099 11.1299 28.0977 11.1299 28.0977 11.1284 28.0962 11.1284 28.1046 11.127 28.129 11.1257 28.163Z" fill="#2B7C9F" transform="matrix(1 0 0 1.01471 227 474)"/><path d="M19.8151 28.9792C20.0178 28.9792 19.6791 28.9112 19.8151 28.9792L19.8151 28.9792Z" fill="#2B7C9F" transform="matrix(1 0 0 1.01471 227 474)"/><path d="M16.3546 8.48542C16.5586 8.41742 17.5081 7.39993 17.3041 7.19592 17.2361 7.05992 16.5573 7.39993 16.4893 7.46793 16.2498 7.52783 16.6239 7.68017 16.6729 7.62438 16.647 7.57139 16.6553 7.51959 16.7599 7.46793 16.8905 7.46793 16.885 7.5346 16.7055 7.65971 16.7626 7.82427 16.5449 8.15896 16.4226 8.28142 16.4226 8.34942 16.3546 8.41742 16.3546 8.48542Z" fill="#2B7C9F" transform="matrix(1 0 0 1.01471 227 474)"/><path d="M21.3753 56.8689C21.5114 56.6649 21.1046 56.8689 21.3753 56.8689L21.3753 56.8689Z" fill="#2B7C9F" transform="matrix(1 0 0 1.01471 227 474)"/><path d="M16.0824 8.28142C16.0144 8.34942 16.0144 8.41742 15.8784 8.55342 16.0824 8.55342 16.1504 8.48542 16.0824 8.28142Z" fill="#2B7C9F" transform="matrix(1 0 0 1.01471 227 474)"/><path d="M17.0319 6.3811C16.9639 6.3811 16.8959 6.4491 16.8279 6.5171 16.8973 6.5171 16.9653 6.5171 17.0319 6.3811Z" fill="#2B7C9F" transform="matrix(1 0 0 1.01471 227 474)"/><path d="M17.2359 9.84293C17.0319 9.97893 18.1854 10.1149 18.1188 10.0469 18.4574 10.1829 18.5254 9.64025 18.3908 9.43611 17.9841 8.89343 17.712 9.30011 17.0333 9.50412 16.7613 9.57212 16.5586 9.77612 16.2865 9.9108 16.4893 10.1136 16.9653 9.9776 17.2359 9.84293Z" fill="#2B7C9F" transform="matrix(1 0 0 1.01471 227 474)"/><path d="M16.6933 7.6706C16.7014 7.66516 16.6987 7.66383 16.7068 7.65838 16.7014 7.64072 16.7068 7.61615 16.6933 7.6026 16.7014 7.61894 16.681 7.61761 16.6743 7.62438 16.6824 7.63926 16.6783 7.65559 16.6933 7.6706Z" fill="#2B7C9F" transform="matrix(1 0 0 1.01471 227 474)"/><path d="M49.4953 4.69355C49.4805 4.68864 49.4691 4.68479 49.4691 4.68479 49.4789 4.68811 49.4872 4.6909 49.4953 4.69355Z" fill="#2B7C9F" transform="matrix(1 0 0 1.01471 227 474)"/><path d="M49.4953 4.69355C49.4977 4.69435 49.5002 4.69515 49.5027 4.69608 49.5005 4.69528 49.4975 4.69435 49.4953 4.69355Z" fill="#2B7C9F" transform="matrix(1 0 0 1.01471 227 474)"/><path d="M26.488 7.09512C26.5042 7.08489 26.5197 7.0736 26.5335 7.05979 26.5137 7.07307 26.4995 7.08449 26.488 7.09512Z" fill="#2B7C9F" transform="matrix(1 0 0 1.01471 227 474)"/><path d="M65.6126 44.1748C65.07 45.3283 64.6632 46.5498 64.1205 47.7033 63.9165 48.178 63.4417 48.4501 63.2376 48.9248 63.035 49.401 62.763 49.9437 62.3562 50.3503 61.6107 51.0972 61.1347 52.2507 60.1852 52.7933 59.7105 53.0653 59.0317 52.9973 58.625 53.4042 58.3543 52.7933 59.0317 51.9105 59.2358 51.3678 59.4398 50.4183 59.3718 49.5368 59.7785 48.6542 60.4573 46.9578 59.7105 45.0577 60.4573 43.4293 60.7293 42.7505 61.0014 42.2078 61.3401 41.597 61.6801 41.0542 61.5441 40.0368 61.6121 39.358 61.7481 38.5445 61.4081 37.323 61.0694 36.5762 60.9334 36.3042 60.0519 35.0826 60.3906 34.7439 60.9333 34.3372 60.7293 32.0288 60.1186 31.6901 59.7799 31.5541 59.2371 32.1648 58.9651 31.6901 58.7611 31.3514 58.7611 30.8766 58.3543 30.6726 57.8116 30.4006 55.9126 31.7581 55.6406 31.6901 55.1645 31.4861 54.6898 31.4181 54.2151 31.5541 53.671 31.6901 53.3323 32.1649 52.7896 31.8261 52.4496 31.6901 52.2469 31.4194 51.9748 31.1473 51.296 30.6046 50.4146 30.2644 50.2105 29.3149 50.0065 28.5681 48.989 28.4335 48.921 27.6186 48.2422 28.1613 48.3102 26.8051 48.2422 26.6011 47.8355 25.8543 47.9702 25.6516 48.1742 24.8368 48.5128 23.2752 46.6805 21.919 48.0382 20.5615 48.3102 20.2908 47.9035 19.748 48.3102 19.544 48.5142 19.408 48.5142 19.2053 48.5142 19.0013 48.5142 18.5946 49.3957 18.3905 49.5997 17.9838 49.8037 17.373 49.3277 16.8983 49.5317 16.2195 49.5997 15.8795 50.0063 15.8795 50.1425 15.5407 50.2105 15.3367 50.0745 14.7259 50.2785 14.6579 50.6852 14.5219 51.636 15.4727 52.0428 14.7259 52.3148 14.3192 52.9256 14.1832 53.4003 14.0471 53.6723 13.9791 55.1646 13.7751 55.3006 13.9111 55.5046 14.1151 56.2514 14.5899 56.1154 15.1326 55.9114 15.7419 57.3369 15.8779 57.6756 16.014 58.0823 16.15 58.2184 16.6929 58.6931 16.6929 59.0331 16.6929 59.1678 16.9635 59.4399 17.0995 59.9161 17.3702 58.8973 15.2672 59.6439 15.81 60.1186 16.15 60.7974 16.4889 61.4083 16.6249 61.4083 16.4902 61.4763 16.4222 61.5443 16.2862 61.9524 16.1502 62.2231 16.6943 61.7483 15.8115 61.6123 15.6088 60.5948 13.5725 60.3228 13.7085 60.1868 13.7765 60.3908 13.9125 60.3228 13.9805 60.1868 14.0472 59.9161 13.5724 59.8481 13.7085 59.8481 13.7085 59.9161 13.9125 59.9161 13.9805 59.7801 14.1165 58.0838 12.4883 58.0158 12.2162 58.0838 12.2162 58.2198 12.1482 58.2878 12.1482 58.2878 12.0122 58.2198 11.9442 58.1518 11.8762 58.2198 11.8082 58.2878 11.8082 58.3558 11.8082 58.2878 11.6735 58.2878 11.5375 58.3558 11.4015 58.4904 11.2655 59.0331 11.8082 59.2373 11.8082 59.1013 11.1294 57.8798 10.248 57.3369 9.97587 57.2689 10.0439 57.3369 10.1799 57.3369 10.2479 57.2009 10.0439 56.8623 10.0439 56.7943 9.70506 56.9303 9.84107 57.0649 9.90907 57.2689 9.90907 57.4049 9.77307 56.7263 9.23025 56.6581 9.16225 56.6581 9.29692 56.6581 9.43293 56.7261 9.56893 56.5234 9.70493 56.3874 9.43293 56.2514 9.43293 56.522 10.2431 57.4621 11.3876 58.1399 11.8004 58.0765 11.8057 57.7637 12.0801 57.9476 12.0801 57.6089 12.0801 57.5409 12.2161 57.4049 12.2161 57.4049 12.6242 58.1504 12.8269 58.3544 13.0989 58.4891 13.3029 58.5571 13.6417 58.6931 13.9137 58.4224 13.8457 57.7436 13.2349 57.7436 13.2349 57.5396 13.2349 56.7261 12.2854 56.5901 12.0814 56.1834 11.6052 56.0473 11.4706 55.5726 11.1986 54.8938 10.8586 54.2151 10.1811 53.6043 9.97707 53.1976 9.84107 53.8083 10.5879 53.8083 10.5879 54.147 10.8599 54.5551 11.0626 54.8938 11.3347 55.4365 11.7414 56.2513 11.8094 56.7261 12.4202 56.5901 12.2842 56.4554 12.2842 56.2514 12.2162 56.2514 12.4869 56.7261 12.827 56.7941 13.2337 56.7941 13.3017 56.9301 13.8445 56.9301 13.9125 56.7955 13.9125 55.9126 13.5058 55.9806 13.3698 56.0486 13.2338 56.9981 13.4378 56.5914 12.8952 56.2514 12.4885 55.8446 12.2178 55.3699 11.9457 54.6231 11.5375 53.7418 10.7922 52.9269 10.5202 53.131 11.5376 51.6374 10.7922 51.7734 11.199 51.7734 11.335 52.4523 11.8098 51.9095 11.9458 51.5694 12.0138 51.7054 12.2845 51.6374 12.5566 51.6374 12.6926 52.3163 13.6421 51.7734 13.7781 51.2988 13.9128 52.1121 14.1168 51.1626 14.1168 50.7545 14.1168 50.6199 14.5929 50.3478 14.3888 49.8731 14.0501 49.8731 14.1181 49.3303 14.0501 49.0596 13.9834 49.0596 13.9834 48.9916 13.7114 48.8556 13.3714 48.449 13.3714 48.517 12.9646 48.517 12.4219 48.1783 12.2178 48.0423 11.7431 48.0423 11.6751 47.4315 10.9963 48.0423 11.0643 48.3143 11.0643 50.0106 11.4043 50.1466 11.1323 50.6893 10.3175 48.2463 9.16398 47.8396 9.02797 48.1116 8.89197 48.3837 8.95997 48.7224 8.95997 48.6544 8.7573 48.5184 8.68929 48.4504 8.62129 48.4504 8.62129 49.5359 8.7573 49.0612 8.21461 49.0612 8.21461 49.1972 7.26512 49.1972 7.33312 49.1972 7.06244 49.8761 6.99444 49.6039 6.85844 48.9931 6.51976 48.7224 6.24762 48.5864 5.70494 48.9931 5.97694 49.6039 6.92644 50.1466 6.92644 50.3506 6.92644 50.8254 6.92644 50.8934 6.79044 51.2321 6.38376 51.0294 6.79044 51.5042 6.72244 51.4362 6.24776 50.6227 5.97562 50.5547 5.63694 50.6894 5.63694 50.7574 5.77294 50.9614 5.77294 50.9614 5.70494 49.4679 4.89012 50.2146 5.02612 50.4853 4.68612 49.6719 4.4153 49.4678 4.3473 49.6025 4.48198 49.7385 4.54998 49.8745 4.68598 48.8556 5.49947 47.7021 3.39648 46.6846 3.32848 46.7526 3.59916 47.5661 4.14197 47.7701 4.34598 48.1783 4.68598 48.789 4.75412 49.1956 5.09279 49.6038 5.50094 49.8745 5.97562 50.0785 6.3823 49.8965 6.68631 48.6757 5.46149 48.4762 5.20702 48.5355 5.31154 48.5949 5.38087 48.6543 5.49947 48.4503 5.63415 48.2476 5.15947 48.0435 5.22747 47.7048 5.43147 48.3155 5.77161 47.5008 5.49947 46.9581 5.29547 46.0086 4.68465 45.9406 4.14197 45.8726 3.87129 44.6511 2.37766 44.5151 2.51379 44.9218 1.97098 46.8901 2.7178 47.4329 3.05647 47.4329 3.12448 47.3649 3.05647 47.3649 3.12448 47.3649 3.19248 48.3157 3.59916 48.6544 3.66716 48.5864 3.59916 48.0436 3.32848 48.0436 3.19248 48.1796 3.39648 49.1291 3.66716 49.3331 3.80329 49.5924 3.91818 49.8506 4.04727 50.1046 4.18182 45.2953 1.5639 39.7874 0.0707904 33.9292 0.0707904 15.2011 0.0707904 0 15.2704 0 34 0 52.7296 15.2011 67.9292 33.9292 67.9292 52.1432 67.9292 67.0165 53.5525 67.8204 35.5357 67.7864 35.8378 67.7674 36.1397 67.717 36.439 66.8342 39.1527 66.6981 41.5958 65.6126 44.1748ZM60.4613 14.4571C60.5973 14.5237 60.6653 14.6597 60.6653 14.7957 60.4627 14.7277 60.3947 14.5931 60.4613 14.4571ZM59.5119 14.6611C59.3759 14.7291 59.3079 14.7971 59.3079 14.7291 59.1732 14.5931 58.9692 14.7291 58.9012 14.4571 59.1051 14.5251 59.3092 14.5251 59.5119 14.6611ZM54.3551 12.9647C54.1511 13.3034 53.7443 12.4221 53.4723 12.2859 53.6083 12.2179 53.6763 12.1499 53.7443 12.0819 53.9484 12.0819 54.4231 12.8287 54.3551 12.9647ZM53.2016 11.4032C53.3363 11.2672 53.6083 11.8779 53.6083 11.9459 53.5403 11.8779 52.9975 11.5392 53.2016 11.4032ZM52.4561 12.9647C52.3881 12.9647 52.3201 12.9647 52.2521 12.8967 51.912 12.8287 52.7268 12.6247 52.4561 12.9647ZM44.1082 5.63428C44.1762 5.70228 44.2442 5.70228 44.1762 5.83829 44.1762 5.83829 44.2442 5.90629 44.2442 5.97429 44.1762 5.97429 43.9722 5.63561 44.1082 5.63428ZM40.1048 1.08962C40.2261 1.08962 39.9698 1.14354 39.9607 1.15523 39.5558 1.02188 39.0834 1.02068 38.6793 0.885478 39.154 0.81761 39.7648 1.02029 40.1048 1.08962ZM39.086 3.53129C39.29 3.46329 41.0543 3.66596 40.4435 3.93797 39.9688 4.14197 39.29 4.41265 38.8833 4.00597 38.7473 3.9393 38.2045 3.66729 38.1365 3.66729 38.1365 3.46329 38.9513 3.53129 39.086 3.53129ZM28.5725 1.15894C29.386 0.684263 31.0142 0.616262 31.897 0.684263 32.9145 0.820266 33.9333 0.480259 34.8828 0.684263 35.2895 0.684263 35.6296 0.752265 36.0363 0.752265 36.375 0.820266 35.9683 1.15894 36.375 1.22695 36.5777 1.22695 37.0524 1.76976 37.2565 1.70163 37.2565 2.04031 37.0525 1.83763 37.1885 2.17631 37.1885 2.24298 37.6632 2.51499 37.5952 2.51499 37.5272 2.58299 36.4417 2.51499 36.5097 2.51499 36.4417 2.51499 36.5097 2.71899 36.5777 2.65099 36.7803 2.71899 37.255 2.65099 37.5272 2.65099 36.983 3.19513 36.1017 3.12713 35.4908 3.53381 35.0827 3.80449 34.54 3.73649 34.1333 3.94049 34.1333 4.34863 33.7947 4.89131 33.5225 5.366 33.3185 5.502 31.8942 4.82331 31.7582 4.61918 31.4182 4.2805 30.7394 3.263 31.4862 2.99086 32.4357 2.65086 31.4862 2.92286 31.2142 2.71886 31.4182 2.37885 31.6903 2.51485 32.029 2.58286 31.825 2.31085 31.6223 2.24285 31.3502 2.37885 31.2822 2.10685 31.7569 1.83617 31.3502 1.56403 31.2142 1.42803 30.1967 1.56403 30.1967 1.42803 30.13 1.02135 31.4182 1.22402 31.6222 0.885345 30.6727 0.681341 29.6539 1.63216 28.7724 1.49616 28.5684 1.49616 28.4337 1.49616 28.2296 1.49616 28.2297 1.29229 28.8405 1.29229 28.5725 1.15894ZM28.5017 1.56297C28.2977 1.76697 27.8909 1.76697 27.3482 1.69897 27.5509 1.69897 27.2122 1.56297 27.0762 1.63097 27.6869 1.22429 27.8216 1.49629 28.5017 1.56297ZM27.0762 1.42697C27.0762 1.42697 26.8735 1.83511 26.7375 1.69897 26.6695 1.63097 26.6015 1.69897 26.5335 1.63097 26.6681 1.36029 26.8722 1.42829 27.0762 1.42697ZM25.7853 2.03911C26.0573 1.83511 26.3279 1.83511 26.6001 1.83511 26.3294 1.97111 26.1254 2.03911 25.7853 2.03911ZM25.8547 2.03911C25.7867 2.10711 25.7867 2.10711 25.7187 2.10711 25.7187 2.03911 25.7867 2.03911 25.8547 2.03911ZM26.2627 1.49497C26.0587 1.63097 26.1267 1.56297 26.1947 1.49497 25.9227 1.63097 25.652 1.56297 25.3799 1.63097 25.7867 1.36029 25.9227 1.36029 26.2627 1.49497ZM8.61731 35.2895C8.54931 35.2215 8.54931 34.7468 8.61731 34.6787 8.68531 34.8147 8.75331 35.0174 8.82131 35.1534 8.82131 35.2895 8.75331 35.3576 8.61731 35.2895ZM9.09345 35.0855C9.02545 35.4256 8.95745 34.8148 9.09345 35.0855L9.09345 35.0855ZM22.0567 59.8547C21.8527 59.5827 22.3954 59.2439 21.8527 59.1079 21.5127 59.0399 21.6487 59.2426 21.6487 58.8359 21.5807 58.1571 21.242 58.0211 21.7847 58.1571 21.7167 58.1571 21.8527 56.7329 21.31 57.0716 21.7847 57.5463 21.242 57.7504 21.242 57.6143 21.242 57.0716 20.5632 55.3753 20.4272 55.2393 20.3592 55.1033 20.4952 54.8326 20.4952 54.6284 20.4272 54.0856 20.4272 53.4749 20.4952 52.9321 20.4952 52.5934 20.2246 52.1866 20.0885 51.9146 19.9525 51.6426 20.2246 51.5079 20.0205 51.2358 19.6805 50.8291 20.0885 50.0143 19.8845 49.5395 19.5445 48.8607 19.6805 47.9113 19.6125 47.1645 19.6125 45.9443 18.8657 44.9935 17.8482 44.4508 16.5587 43.772 15.8119 42.9586 15.2691 41.601 14.9971 40.6502 13.9796 39.09 13.2328 38.4112 12.7566 38.0712 13.5714 36.3749 13.5714 36.3749 13.0968 36.0362 13.0288 35.9682 13.2328 35.2894 13.3008 35.0187 13.5048 34.68 13.4368 34.4079 13.4368 34.3399 13.9115 34.0692 13.9795 33.8651 14.0475 33.5251 15.065 32.7796 14.7263 32.5076 14.4543 32.1689 14.9303 31.2861 14.7263 30.8794 14.5903 30.6074 14.3181 29.5219 13.9115 29.5219 13.3688 29.5899 13.4368 30.6754 13.1646 30.5394 12.826 30.4034 12.5538 29.8606 12.1471 29.7245 11.8751 29.6565 11.8751 29.0457 11.4724 28.8553 11.4724 28.9233 11.4724 28.9913 11.4044 29.0593 11.1065 29.2375 11.1229 28.4214 11.131 28.1751 10.6589 28.0363 10.7256 27.2256 10.5896 27.023 10.3869 26.819 9.30144 26.887 9.02943 26.4121 8.82543 26.0735 8.68943 25.3946 8.28261 25.2586 7.80793 25.1906 7.73993 25.6668 7.26512 25.3946 7.06111 25.2586 5.83961 24.2411 5.83961 23.9691 5.83961 23.5625 5.2288 23.0183 5.70361 22.6796 5.70361 22.6116 5.83961 22.0688 5.90762 22.0008 6.17962 20.9833 5.63694 19.8285 6.04362 18.879 6.17829 18.6763 6.5183 16.776 6.4503 16.708 5.97416 16.504 5.3648 21.118 5.09279 21.322 5.29547 20.3045 5.09279 19.287 5.56748 18.4722 5.90615 18.1322 5.97416 17.4534 6.11029 17.0467 6.3143 16.504 6.72111 15.9612 6.65297 15.3504 6.65297 14.5355 9.9788 10.5989 10.9283 9.71755 12.6246 8.01991 14.2528 6.59573 16.2891 5.30623 17.5106 4.55941 18.8001 3.88072 20.0897 3.26991 20.6326 2.9979 21.2432 2.79523 21.8541 2.59109 22.1927 2.86177 21.7861 2.86177 21.6501 2.99777 21.9221 3.13377 22.1927 3.06577 22.3969 2.86177 22.2609 2.45509 24.0932 1.70827 24.7039 1.70827 24.5692 1.84427 24.4332 1.84427 24.3652 1.91227 24.4999 2.04827 24.6359 1.91227 24.7719 1.91227 24.5679 2.18295 22.7356 2.92977 22.7356 2.92977 22.8716 3.26977 23.8891 2.59109 24.1611 2.59109 24.0931 2.86177 23.7544 2.79377 23.6184 2.92977 24.2658 3.04678 24.557 2.29996 25.1528 2.18707 25.0793 2.19663 25.0004 2.19796 24.9079 2.18295 25.1786 1.98027 25.5172 1.91227 25.7894 1.84427 25.5908 1.99395 25.4276 2.14085 25.1949 2.18295 25.2738 2.17206 25.3568 2.1694 25.4492 2.18428 25.3324 2.30115 24.9162 2.717 24.7148 2.83241 24.8259 2.79695 24.9449 2.79509 25.1092 2.79509 25.0412 2.99777 24.7025 2.92977 24.6345 3.20177 25.0412 2.99777 25.5174 2.92977 25.924 2.59096 25.856 2.52296 25.856 2.45495 25.788 2.38695 26.128 2.11628 26.6029 1.91227 27.0775 1.84427 26.8055 2.04695 26.6029 2.11495 26.4667 2.31895 26.8734 2.18428 27.1455 1.91227 27.6202 1.98027 27.6202 2.11628 27.4842 2.11628 27.4162 2.25228 27.6202 2.25228 27.7549 2.25228 27.9589 2.11628 27.8909 2.04827 27.8229 2.11628 27.7549 2.04827 27.8909 1.98027 28.0936 1.91227 28.2296 1.98027 28.0936 2.45495 28.5016 2.38695 28.8404 2.59109 29.1111 2.79377 28.3643 2.86177 28.5684 2.99777 28.7724 3.20045 29.1792 3.20045 29.3832 3.40445 29.3165 3.53912 28.6377 3.87913 28.5017 3.81113 28.4337 3.81113 27.7549 3.13231 27.8909 3.74313 28.0936 4.42195 28.0936 4.62462 27.1441 4.14981 27.1441 4.21781 27.4841 4.55649 27.4161 4.62449 27.3481 4.75916 26.3986 4.48849 26.3986 4.35248 26.1946 3.8098 25.3811 4.14981 25.3131 3.9458 25.3131 4.0138 28.2989 3.26699 27.0774 2.5883 26.8734 2.4523 25.8559 2.79098 25.7199 3.06298 25.5839 3.33366 25.2438 3.40166 24.9051 3.46966 24.8449 3.46966 24.4145 3.46966 24.3624 3.46966 24.2277 3.60566 24.4984 4.08048 24.5664 4.14848 24.2944 4.35248 23.5489 4.21648 23.2769 4.21648 23.4116 4.08048 23.6156 4.14848 23.6836 3.94448 23.3436 3.74047 21.5113 4.62183 21.1726 4.82597 20.2218 5.30211 20.2218 5.57279 19.7471 6.18347 19.8831 6.31815 20.4939 6.04747 20.4259 6.52215 20.4259 6.79283 21.3074 6.92883 21.3754 6.92883 21.1727 7.13283 21.0367 7.33551 20.9007 7.53965 20.9687 7.60765 21.1727 7.53965 21.1727 7.67565 21.106 7.81165 20.97 7.74365 20.834 7.60765 20.63 7.94633 20.766 8.35447 21.1727 8.21847 21.5809 8.01446 21.6474 7.74232 21.9195 7.40364 22.3262 6.79283 23.209 6.86096 23.5477 6.18214 23.7517 5.77546 23.209 5.84214 23.8197 5.50333 24.0917 5.36732 24.3624 4.96064 24.5665 4.68851 24.9732 4.14582 25.924 4.95918 26.2629 5.09519 25.38 6.31669 27.0097 5.56987 27.4844 5.23119 27.6204 6.31669 27.823 6.72483 28.7059 7.13151 28.6379 7.26751 28.5699 7.19951 28.5019 7.26751 28.6379 7.26751 29.2487 7.53819 29.1127 7.74219 28.9943 7.97887 28.8583 8.09721 28.706 8.17198 28.7808 8.13253 28.8801 8.1162 29.0447 8.14887 28.9791 8.21448 28.4732 8.65768 28.4987 8.74986 28.5264 8.71719 29.1807 8.89994 29.1807 8.96369 29.7915 8.75969 29.3847 9.23437 29.7234 9.30237 29.7234 9.37037 29.7234 10.5239 29.2487 9.98119 29.3167 9.91319 29.3167 9.84518 29.3167 9.77718 29.1127 9.70918 28.6379 9.98119 28.5019 9.98119 28.5019 9.84518 28.7059 9.91319 28.7059 9.77718 28.5019 9.64118 27.2804 9.70918 27.2804 9.64118 27.2804 9.57451 27.4164 9.43851 27.5524 9.3025 27.8584 8.9965 28.3114 8.54346 28.4515 8.40334 28.4842 8.38701 28.5359 8.35301 28.5019 8.35301 28.5657 8.28912 28.6161 8.22643 28.6855 8.18433 28.4066 8.31223 28.0747 8.29855 27.687 8.55701 27.0082 9.03315 25.8547 8.69301 25.0399 8.76101 24.2944 8.82902 23.4797 9.64384 22.8009 10.0505 23.6157 10.0505 24.2945 8.96502 25.3119 9.16902 25.9227 9.3037 24.7692 9.5757 24.6331 9.5757 24.7678 9.71171 24.9038 9.77971 25.0398 9.71171 25.2438 9.98238 24.6331 10.5932 25.6506 10.5932 26.1933 10.5932 26.1933 10.0505 26.6001 10.0505L26.7361 10.3892C26.5321 10.8639 24.7678 11.136 24.2251 11.4747 23.7504 11.7467 24.4291 10.7292 24.8359 10.5932 24.8359 10.5932 24.8359 10.5932 24.8359 10.5252 24.0891 10.7972 23.2757 11.204 22.5289 11.34 22.0542 11.4067 21.7821 11.8827 21.8501 12.2895 21.4419 12.4935 20.9673 12.4255 20.5606 12.5615 20.6952 12.6295 20.7632 12.5615 20.8993 12.6295 20.4932 12.9002 19.8872 13.2365 19.5475 13.3738 19.5769 13.3894 19.2003 14.3092 19.1351 13.919 19.0671 13.715 19.0671 13.3763 19.3391 13.3082 18.9324 13.3082 19.1351 13.987 18.7283 13.7829 18.7283 13.8496 19.1349 14.1896 18.7963 14.1216 18.7963 14.1216 18.7963 14.1135 18.7963 14.0957 18.7609 14.1896 18.6603 14.3922 18.6603 14.3922 18.6603 14.4589 18.8643 14.5269 18.7963 14.7309 18.7296 14.9349 18.4576 14.7989 18.4576 15.0029 18.5936 14.8669 18.6616 15.0029 18.6616 15.1389 18.5256 15.3429 18.0508 15.5456 17.8468 15.6816 17.2359 16.0203 16.6253 16.4284 16.0824 16.9031 15.3356 17.5139 15.201 20.4996 14.9289 20.4996 14.7249 20.4996 14.7929 20.2289 14.6569 20.0929 14.4543 19.8903 14.7929 17.5833 14.2503 17.9219 13.9116 18.1246 13.5714 17.7859 13.1648 17.7179 13.1648 17.7179 12.1473 17.6499 12.1473 17.7859 12.1473 17.8539 12.4179 17.9219 12.4859 17.9219L12.4179 18.3286C12.2139 18.3953 11.8071 18.2606 11.6711 18.0566 11.5351 17.8526 10.7896 18.1926 10.6536 17.9886 10.7896 18.1246 9.77214 18.6674 9.70413 18.7354 9.36413 19.0754 9.29745 19.9569 9.02532 20.1609 8.00649 20.7717 8.3465 22.5374 8.2785 23.4188 8.1425 24.1656 8.88931 24.3016 9.432 24.0296 9.636 23.8936 9.83868 24.2336 9.97468 23.9616 10.1107 23.6896 10.3134 23.5549 10.4494 23.2828 10.584 23.0107 11.7375 21.8572 12.0095 22.4679 12.0775 22.6039 11.3987 23.8921 11.2627 24.1642 11.06 24.1642 10.924 24.4363 10.924 24.9111 10.924 24.9111 10.3814 25.9966 10.856 25.6579 11.06 25.4539 12.9604 25.5899 12.7564 26.0646 12.2817 27.1501 11.8749 28.5756 12.8244 29.5251 13.367 30.0677 13.7072 29.1169 14.1139 29.2531 14.5885 29.4557 15.0634 29.6597 15.1994 30.2026 15.4034 30.2026 16.0822 27.9636 16.4889 28.5744 16.6235 28.3717 17.913 27.5569 18.049 27.6249 17.913 27.5569 17.913 28.7104 17.777 28.8464 17.0997 29.4572 18.5239 29.8639 18.049 28.9824 17.777 28.5077 18.117 28.3716 18.5237 28.2356 18.7277 28.1676 18.5917 27.8289 18.7277 27.7609 18.7277 27.8289 19.3385 28.2356 19.4065 28.2356 19.8812 28.5062 19.3385 28.7782 20.1534 28.6422 20.7642 28.5062 21.1029 29.1849 21.6455 28.7102 22.0522 28.3702 22.5284 28.7102 22.867 28.5742 22.7324 28.6422 22.5964 28.7102 22.4604 28.6422 22.5284 29.0504 23.5459 29.1184 23.4779 29.4571 23.4099 29.7957 23.7485 29.7957 23.9525 29.8637 24.4287 30.0677 24.4287 30.4079 24.7674 30.7466 25.0394 31.0172 25.7862 31.6281 26.261 31.2892 26.7357 31.0172 28.636 31.7639 28.636 32.3747 28.7707 32.2387 29.5855 34.0029 29.5855 34.0711 29.5855 34.0711 29.5855 34.0721 29.5855 34.1349 29.5855 34.1363 29.5872 34.1387 29.5877 34.1404 29.5923 34.1432 29.6021 34.1521 29.6004 34.1689 29.6004 34.1689 29.6004 34.1689 29.6004 34.1689 29.6002 34.1697 29.6004 34.1704 29.6004 34.1711 29.6002 34.1717 29.6005 34.1723 29.6004 34.1731 29.6398 34.3893 30.082 34.8233 30.5362 34.9525 30.6709 35.834 30.8749 35.0872 31.4857 35.2912 31.7577 35.3592 32.5032 35.5619 32.7072 35.7659 32.8432 35.9019 32.7752 36.4447 32.8432 36.4447 32.8432 36.4447 33.2499 36.2407 33.1819 36.3087 33.3859 36.038 33.8607 36.3767 33.9967 36.3767 34.4034 36.5127 34.8795 36.3767 35.2862 36.4447 36.033 36.5127 36.4397 37.2595 37.0505 37.5982 37.7973 38.0049 38.068 37.4622 38.34 38.4797 38.544 39.1585 38.476 39.8372 38.0013 40.312 37.5266 40.8547 36.5758 42.0084 36.237 42.1444 35.6262 42.347 36.169 45.4688 35.4222 46.0797 34.6754 46.6905 34.8114 48.0467 33.7259 47.7078 33.5899 47.6398 32.9124 48.0465 32.7084 48.1145 32.0976 48.3852 31.5549 48.6573 31.0802 49.132 30.5374 49.6082 31.0122 50.4895 30.4694 51.1003 30.4694 51.1003 29.3839 52.5245 29.1799 52.7967 29.1119 52.7287 29.1119 52.6607 29.0439 52.6607 28.9079 52.8647 28.5677 52.9993 28.7719 53.2715 28.7719 53.0675 28.9079 52.9995 29.0439 52.9995 29.1799 53.1355 28.7052 53.6783 28.6372 53.6783 28.2972 54.0183 28.0945 53.6783 27.8224 53.8823 27.4837 54.0863 26.8729 53.6116 26.6009 53.5436 26.5329 53.8823 27.4824 54.4264 27.6184 54.7651 28.0265 55.8506 25.718 55.7146 25.3794 55.7826 25.3794 55.9853 25.7194 56.46 25.6514 56.6641 25.4474 57.1388 24.7019 56.4601 24.4979 56.6641 24.3619 56.7988 24.9726 57.5456 25.0406 57.6136 24.9726 57.7496 24.8366 58.4284 24.7686 58.4284 24.4965 58.3604 24.1577 58.7671 24.4965 59.0392 24.7006 59.1752 24.9712 59.1752 25.1754 59.3112 25.65 59.5832 24.7672 59.8554 24.9714 60.1941 25.2434 60.6687 24.3605 60.3967 25.1754 61.1436 24.1892 61.202 24.8842 61.6537 25.1087 61.7843 25.0991 61.7692 25.1523 61.7544 25.2434 61.6182 25.1767 61.5502 24.9727 61.6862 24.9047 61.5502 24.702 61.0076 25.7195 61.6862 25.7195 61.6182 26.0582 61.8209 26.601 61.8209 26.805 62.0249 26.669 62.0249 26.3303 62.1609 26.1942 62.1609 25.3794 62.0249 24.2259 62.0929 23.5471 61.4141 23.0036 61.0082 22.3941 60.4654 22.0567 59.8547ZM26.3974 3.26061C26.4654 3.05661 26.6014 3.05661 26.9401 3.05661 26.8041 3.26061 26.6001 3.26061 26.3974 3.26061ZM24.2944 4.54878C24.2264 4.61679 24.1584 4.68479 24.0224 4.75279 24.0904 4.61679 24.2251 4.54878 24.2944 4.54878ZM23.9544 4.34478C23.7504 4.48078 23.6157 4.54878 23.4116 4.54878 23.6143 4.41411 23.7504 4.41411 23.9544 4.34478ZM25.3059 9.98331C25.3193 10.0151 25.6571 10.1817 25.7187 10.1817 25.7867 10.2497 25.8547 10.1817 25.9227 10.1817 25.5907 10.5803 25.1933 10.0676 25.3059 9.98331ZM25.7187 8.8241C26.0587 8.8241 26.2614 8.8921 26.5335 9.09611 26.1934 9.16424 25.9227 9.02811 25.7187 8.8241ZM23.0928 28.9834C23.0855 28.982 23.0797 28.9808 23.0716 28.9793 23.0716 28.9793 23.2076 28.5712 23.4103 28.5726 23.7503 28.7753 23.2076 28.9793 23.0716 28.9793 23.0716 28.9792 23.0803 28.9809 23.0928 28.9834ZM23.1983 29.004C23.181 29.0007 23.1523 28.995 23.1117 28.987 23.1393 28.9925 23.1748 28.9995 23.1983 29.004ZM21.3753 24.2292C20.9686 25.2467 19.9511 23.5504 21.3753 24.2292L21.3753 24.2292ZM15.8104 23.3464C15.4718 23.4144 16.0144 23.0757 16.0144 23.0077 15.8104 22.465 14.2501 22.3969 14.1141 21.9902 14.1821 21.9902 14.2501 21.9222 14.2501 21.8542 13.7074 21.6502 13.4353 22.2609 12.9606 22.2609 13.9795 20.5646 16.3545 22.5315 17.3719 23.2784 16.8293 23.2784 16.2866 23.2784 15.8104 23.3464ZM16.0824 24.4319C16.0144 24.7025 15.2676 24.3639 15.1996 24.2279 15.4716 24.0919 15.6743 24.1599 15.9464 24.2959 16.0144 24.2959 16.0824 24.2959 16.0824 24.4319ZM13.7074 22.2609C13.7074 22.3969 13.6394 22.4649 13.5034 22.3969 13.5034 22.3289 13.7074 22.0569 13.7074 22.2609ZM16.1216 21.1626C15.9972 20.834 15.8978 20.8112 16.1504 20.4966 16.2184 20.8366 16.2184 20.9712 16.1504 21.1754 16.1504 21.1256 16.1146 21.113 16.1216 21.1626ZM18.0494 24.0919C17.8468 23.7532 18.0494 23.6172 17.6428 23.481 17.9828 23.0064 19.2724 23.549 19.6111 23.753 19.6111 23.8211 19.4751 23.753 19.4751 23.8211 19.4751 23.8211 20.2899 24.4999 19.7471 24.2957 19.1363 24.0237 18.7963 24.3624 18.3896 24.6344 18.0496 24.1597 17.5068 24.4997 17.1001 24.2957 16.8293 24.1612 17.9148 24.1612 18.0494 24.0919ZM25.2439 57.4797C25.2439 57.7504 24.7012 57.3437 25.1079 57.2757 25.1759 57.2756 25.2439 57.3436 25.2439 57.4797ZM40.9225 66.9771C39.1581 67.3837 37.326 67.5879 35.4936 67.6559 32.0318 67.7919 28.4352 67.5199 25.1107 66.5024 25.5188 66.5704 26.0615 66.7744 26.4682 66.7064 26.06 66.4357 25.5174 66.5037 25.1787 66.2317 26.5349 66.4357 27.8924 66.3677 29.182 66.5037 29.046 66.2997 27.8925 66.029 27.8925 65.961 28.0285 65.961 28.978 65.893 28.978 65.893 29.3847 65.5543 28.2992 65.6223 28.4353 65.3503 28.4353 65.2823 28.774 65.4183 28.842 65.2823 28.978 65.0797 28.842 64.9437 28.91 64.8077 28.978 64.741 30.6063 64.401 30.8103 64.469 30.6076 64.6037 30.4036 64.469 30.4716 64.8077 30.2676 64.8077 29.7928 64.8077 29.7248 65.0117 29.7248 64.9437 30.2676 65.7585 30.3356 65.7585 30.5383 66.0292 31.2171 66.2332 31.2851 66.64 31.4211 67.2508 34.611 67.1827 35.0858 67.1147 36.3073 66.9787 37.3928 66.572 38.5463 66.3678 39.2236 66.2332 39.9704 66.0292 40.6493 65.9612 40.9879 65.9612 42.0734 65.5545 42.3456 65.6225 42.4802 66.1652 45.0592 65.4185 45.6701 65.5545 45.6698 65.6902 41.3945 66.8437 40.9225 66.9771ZM44.9243 7.87461C44.7203 7.6706 44.8563 7.19579 44.3816 7.05979 44.5163 6.99179 44.6523 6.99179 44.7203 6.92378 44.3803 6.17829 45.4658 7.05979 45.6018 7.19579 46.2125 7.80661 45.2617 8.21329 44.9243 7.87461ZM46.8233 8.48542C46.6873 8.07874 47.162 8.07874 47.1633 8.01207 47.1633 7.94407 46.5525 7.87607 46.4845 7.87607 46.6192 7.87607 46.2805 7.40139 46.2125 7.26525 46.2805 7.26525 46.4165 7.26525 46.4845 7.19725 46.4165 6.99325 45.399 6.38243 45.331 6.45043 44.9228 6.65443 44.5162 5.63694 44.4482 5.50094 45.059 5.43293 45.4657 6.11029 46.0765 6.38243 46.5512 6.58511 48.3155 7.46793 48.3835 8.01074 48.4515 8.28142 47.0273 8.14674 46.8233 8.48542Z" fill="#2B7C9F" transform="matrix(1 0 0 1.01471 227 474)"/><path d="M24.2931 61.5509C24.4291 61.4829 24.4291 61.4829 24.3611 61.4149 24.2251 61.4829 24.1584 61.4829 24.2931 61.5509Z" fill="#2B7C9F" transform="matrix(1 0 0 1.01471 227 474)"/><path d="M23.0716 60.8722C23.0036 60.8722 23.0036 60.9402 23.0716 61.0082 23.2076 60.9402 23.2076 60.9402 23.0716 60.8722Z" fill="#2B7C9F" transform="matrix(1 0 0 1.01471 227 474)"/><path d="M22.1901 51.6441C22.3941 51.5761 21.9861 51.6441 22.1901 51.6441L22.1901 51.6441Z" fill="#2B7C9F" transform="matrix(1 0 0 1.01471 227 474)"/><path d="M25.1759 61.823C25.1759 61.823 25.1473 61.808 25.1092 61.7849 25.1147 61.7917 25.131 61.7999 25.1759 61.823Z" fill="#2B7C9F" transform="matrix(1 0 0 1.01471 227 474)"/><path d="M21.3753 24.2292C21.1046 24.1612 21.3073 24.3639 21.3753 24.2292L21.3753 24.2292Z" fill="#2B7C9F" transform="matrix(1 0 0 1.01471 227 474)"/><path d="M49.5101 4.69847C49.5961 4.72715 49.5512 4.71215 49.5101 4.69847L49.5101 4.69847Z" fill="#2B7C9F" transform="matrix(1 0 0 1.01471 227 474)"/><path d="M27.2109 3.59929C27.3469 3.53129 27.4829 3.59929 27.6176 3.46329 27.4149 3.32861 27.3469 3.32861 27.2109 3.59929Z" fill="#2B7C9F" transform="matrix(1 0 0 1.01471 227 474)"/><path d="M22.7329 7.19592C22.5969 7.26392 22.4609 7.26392 22.3262 7.33192 22.5969 7.39993 22.5969 7.39993 22.7329 7.19592Z" fill="#2B7C9F" transform="matrix(1 0 0 1.01471 227 474)"/><path d="M26.7361 3.93943C26.8041 3.93943 26.8721 3.93943 26.9401 3.93943 26.9402 3.93943 27.0082 3.66729 26.7361 3.93943Z" fill="#2B7C9F" transform="matrix(1 0 0 1.01471 227 474)"/><path d="M23.6143 3.73529C23.7503 3.66729 23.7503 3.59929 23.6143 3.59929 23.4783 3.66729 23.4783 3.66729 23.6143 3.73529Z" fill="#2B7C9F" transform="matrix(1 0 0 1.01471 227 474)"/><path d="M24.0904 3.66729C23.9544 3.66729 23.8864 3.66729 23.8184 3.73529 23.5477 3.87143 24.1584 3.80329 24.0904 3.66729Z" fill="#2B7C9F" transform="matrix(1 0 0 1.01471 227 474)"/><path d="M26.8055 7.19446C26.7362 7.12779 26.6682 7.05979 26.5335 7.05979 26.5937 7.18264 26.3799 7.1942 26.488 7.09512 26.3437 7.18583 26.113 7.16219 25.9907 7.4666 26.1267 7.26246 26.8055 7.26246 26.8055 7.19446Z" fill="#2B7C9F" transform="matrix(1 0 0 1.01471 227 474)"/><path d="M22.5969 8.55342C22.6078 8.54253 22.6363 8.52487 22.6608 8.50853 22.6349 8.57521 22.3942 8.90711 23.0716 8.28142 23.0716 8.28142 22.7927 8.42287 22.6608 8.50853 22.6689 8.48821 22.6608 8.48954 22.5969 8.55342Z" fill="#2B7C9F" transform="matrix(1 0 0 1.01471 227 474)"/><path d="M24.7012 8.34942C24.9039 8.34942 24.4971 8.28142 24.7012 8.34942L24.7012 8.34942Z" fill="#2B7C9F" transform="matrix(1 0 0 1.01471 227 474)"/><path d="M23.8864 6.5171C23.8184 6.4491 23.8184 6.3811 23.7504 6.4491 23.8184 6.58511 23.8184 6.58511 23.8864 6.5171Z" fill="#2B7C9F" transform="matrix(1 0 0 1.01471 227 474)"/><path d="M17.9828 8.8921C18.1188 9.02811 18.3214 8.6881 18.3214 8.6201 18.2534 8.48542 17.9148 8.8241 17.9828 8.8921Z" fill="#2B7C9F" transform="matrix(1 0 0 1.01471 227 474)"/><path d="M18.7976 4.41411C18.7296 4.34611 18.3229 4.61811 18.1868 4.68612 18.1188 4.75412 18.0508 4.75412 17.9828 4.89012 18.0508 4.82079 19.0003 4.61679 18.7976 4.41411Z" fill="#2B7C9F" transform="matrix(1 0 0 1.01471 227 474)"/><path d="M16.7626 10.7911C16.6946 10.8591 15.8798 12.0126 16.0158 12.1486 16.0838 12.2166 17.6441 10.5884 17.8481 10.4523 18.3908 10.1136 17.9161 11.1311 17.7121 11.2671 17.8468 11.1991 17.9828 11.0631 18.0508 11.1311 18.1188 11.2658 18.0508 11.4018 17.9148 11.5378 18.1854 11.4698 18.7963 10.927 18.7963 10.5883 19.2044 11.1324 19.4071 10.4536 19.0003 10.2496 18.3894 10.0456 17.3039 10.3857 16.7626 10.7911ZM18.9336 10.4537C18.7976 10.5217 18.7296 10.5217 18.7296 10.3857 18.7296 10.3857 19.0003 10.3177 18.9336 10.4537Z" fill="#2B7C9F" transform="matrix(1 0 0 1.01471 227 474)"/><path d="M17.3669 12.1683C17.3684 12.1623 17.3693 12.1566 17.3719 12.1499 17.3672 12.1596 17.3661 12.1651 17.3669 12.1683Z" fill="#2B7C9F" transform="matrix(1 0 0 1.01471 227 474)"/><path d="M18.1188 5.2956C18.1188 5.12228 17.524 5.44369 17.309 5.54051 17.5402 5.468 18.1188 5.3555 18.1188 5.2956Z" fill="#2B7C9F" transform="matrix(1 0 0 1.01471 227 474)"/><path d="M17.309 5.54051C17.2776 5.55034 17.2523 5.55951 17.2359 5.56761 17.2459 5.56761 17.2726 5.55685 17.309 5.54051Z" fill="#2B7C9F" transform="matrix(1 0 0 1.01471 227 474)"/><path d="M17.3669 12.1683C17.295 12.467 18.7296 11.9459 18.7296 11.9459 18.4576 12.0139 18.6616 11.9459 18.7296 11.9459 18.8656 11.8779 19.0016 11.8099 19.1363 11.6739 18.8643 11.6739 17.8468 11.7419 17.7108 11.8099 17.8372 11.7467 17.3779 12.2116 17.3669 12.1683Z" fill="#2B7C9F" transform="matrix(1 0 0 1.01471 227 474)"/><path d="M18.9336 11.4712C19.2043 11.7419 21.1046 11.3352 19.8831 11.1992 19.5444 11.1311 19.2043 11.1991 18.9336 11.4712Z" fill="#2B7C9F" transform="matrix(1 0 0 1.01471 227 474)"/><path d="M19.6791 3.66729C20.0178 3.59929 20.4939 3.46329 20.7646 3.19261 20.3578 3.26061 20.0178 3.46329 19.6791 3.66729Z" fill="#2B7C9F" transform="matrix(1 0 0 1.01471 227 474)"/><path d="M19.7471 10.2497C19.7471 10.1817 19.6791 10.1817 19.6111 10.2497 19.6791 10.3177 19.6791 10.3177 19.7471 10.2497Z" fill="#2B7C9F" transform="matrix(1 0 0 1.01471 227 474)"/></g></svg>