<svg width="16" height="24" viewBox="0 0 16 24" fill="none" xmlns="http://www.w3.org/2000/svg">
<path d="M10.2857 11.1429H8.57143V4.28571H9.42857C10.3379 4.28571 11.21 4.64694 11.8529 5.28992C12.4959 5.9329 12.8571 6.80497 12.8571 7.71429C12.8571 7.94161 12.9474 8.15963 13.1082 8.32038C13.2689 8.48112 13.487 8.57143 13.7143 8.57143C13.9416 8.57143 14.1596 8.48112 14.3204 8.32038C14.4811 8.15963 14.5714 7.94161 14.5714 7.71429C14.57 6.35075 14.0277 5.04347 13.0636 4.0793C12.0994 3.11514 10.7921 2.57285 9.42857 2.57143H8.57143V0.857143C8.57143 0.629814 8.48112 0.411797 8.32038 0.251051C8.15963 0.0903058 7.94161 0 7.71429 0C7.48696 0 7.26894 0.0903058 7.10819 0.251051C6.94745 0.411797 6.85714 0.629814 6.85714 0.857143V2.57143H6C4.63603 2.57143 3.32792 3.11326 2.36345 4.07774C1.39898 5.04221 0.857143 6.35032 0.857143 7.71429C0.857143 9.07826 1.39898 10.3864 2.36345 11.3508C3.32792 12.3153 4.63603 12.8571 6 12.8571H6.85714V19.7143H5.14286C4.23354 19.7143 3.36147 19.3531 2.71849 18.7101C2.07551 18.0671 1.71429 17.195 1.71429 16.2857C1.71429 16.0584 1.62398 15.8404 1.46323 15.6796C1.30249 15.5189 1.08447 15.4286 0.857143 15.4286C0.629814 15.4286 0.411797 15.5189 0.251051 15.6796C0.090306 15.8404 0 16.0584 0 16.2857C0.00141813 17.6493 0.543709 18.9565 1.50787 19.9207C2.47204 20.8849 3.77932 21.4272 5.14286 21.4286H6.85714V23.1429C6.85714 23.3702 6.94745 23.5882 7.10819 23.7489C7.26894 23.9097 7.48696 24 7.71429 24C7.94161 24 8.15963 23.9097 8.32038 23.7489C8.48112 23.5882 8.57143 23.3702 8.57143 23.1429V21.4286H10.2857C11.6497 21.4286 12.9578 20.8867 13.9223 19.9223C14.8867 18.9578 15.4286 17.6497 15.4286 16.2857C15.4286 14.9217 14.8867 13.6136 13.9223 12.6492C12.9578 11.6847 11.6497 11.1429 10.2857 11.1429ZM6 11.1429C5.09069 11.1429 4.21862 10.7816 3.57563 10.1387C2.93265 9.49567 2.57143 8.6236 2.57143 7.71429C2.57143 6.80497 2.93265 5.9329 3.57563 5.28992C4.21862 4.64694 5.09069 4.28571 6 4.28571H6.85714V11.1429H6ZM10.2857 19.7143H8.57143V12.8571H10.2857C11.195 12.8571 12.0671 13.2184 12.7101 13.8613C13.3531 14.5043 13.7143 15.3764 13.7143 16.2857C13.7143 17.195 13.3531 18.0671 12.7101 18.7101C12.0671 19.3531 11.195 19.7143 10.2857 19.7143Z" fill="white"/>
</svg>
