<svg xmlns="http://www.w3.org/2000/svg" width="20.5" height="20.5" viewBox="0 0 20.5 20.5">
    <defs>
        <style>
            .prefix__cls-1{fill:none;stroke:#191970;stroke-linecap:round;stroke-linejoin:round;stroke-width:1.5px}
        </style>
    </defs>
    <g id="prefix__Group_27" data-name="Group 27" transform="translate(-.25 35.75)">
        <path id="prefix__Path_312" d="M10-13.26h8.987V-20H10z" class="prefix__cls-1" data-name="Path 312" transform="translate(-3.994 -6.641)"/>
        <path id="prefix__Path_313" d="M12-24.059v-2.049a3.346 3.346 0 0 1 3.37-3.153 3.346 3.346 0 0 1 3.37 3.153v2.049" class="prefix__cls-1" data-name="Path 313" transform="translate(-4.87 -2.538)"/>
        <path id="prefix__Path_314" d="M20-16.791a.792.792 0 0 1-.791.791H1.791A.791.791 0 0 1 1-16.791v-17.418A.791.791 0 0 1 1.791-35h17.418a.792.792 0 0 1 .791.791z" class="prefix__cls-1" data-name="Path 314"/>
    </g>
</svg>
