<svg width="432" height="514" viewBox="0 0 432 514" fill="none" xmlns="http://www.w3.org/2000/svg">
<path d="M351.399 156C371.399 160 389.499 172.2 401.399 188.8C413.199 205.4 418.699 226.3 417.099 246.7C416.499 254 415.099 261.3 413.299 268.4C406.499 296.3 395.299 322.9 383.599 349.2C386.199 350.1 388.899 351.1 391.499 352C395.599 343.2 399.599 334.4 403.699 325.7C410.199 311.8 416.599 297.8 420.899 283C428.999 254.9 428.399 224.3 419.399 196.5C417.399 190.2 414.899 183.9 411.399 178.2C407.199 171.4 401.699 165.5 395.199 160.8C379.599 149.7 358.599 146.8 340.599 153.2M292.699 346.4L292.199 346.9L292.699 346.4ZM216.099 46.0998C210.699 46.0998 204.999 46.8998 199.899 44.9998C193.699 42.5998 189.399 35.8998 189.899 29.2998C189.699 33.2998 192.299 37.0998 195.799 39.1998C199.299 41.1998 203.399 41.7998 207.499 41.7998C211.499 41.7998 215.599 41.2998 219.599 41.3998C232.399 41.7998 243.999 48.5998 254.999 55.0998C257.199 51.0998 252.599 45.1998 255.799 41.9998C256.399 41.3998 257.099 41.0998 257.799 40.6998C262.199 38.4998 266.599 36.3998 270.999 34.1998C269.199 35.0998 266.899 39.9998 265.499 41.5998C263.699 43.7998 261.799 45.8998 259.899 47.9998C257.299 50.7998 254.499 53.7998 250.399 53.9998C245.199 54.2998 239.799 50.9998 234.999 49.4998C228.999 47.3998 222.599 46.0998 216.099 46.0998Z" fill="white"/>
<path d="M216.099 46.0998C210.699 46.0998 204.999 46.8998 199.899 44.9998C193.699 42.5998 189.399 35.8998 189.899 29.2998C189.699 33.2998 192.299 37.0998 195.799 39.1998C199.299 41.1998 203.399 41.7998 207.499 41.7998C211.499 41.7998 215.599 41.2998 219.599 41.3998C232.399 41.7998 243.999 48.5998 254.999 55.0998C257.199 51.0998 252.599 45.1998 255.799 41.9998C256.399 41.3998 257.099 41.0998 257.799 40.6998C262.199 38.4998 266.599 36.3998 270.999 34.1998C269.199 35.0998 266.899 39.9998 265.499 41.5998C263.699 43.7998 261.799 45.8998 259.899 47.9998C257.299 50.7998 254.499 53.7998 250.399 53.9998C245.199 54.2998 239.799 50.9998 234.999 49.4998C228.999 47.3998 222.599 46.0998 216.099 46.0998ZM365.199 237.5C367.099 231.4 367.099 224.9 365.299 218.8C364.799 217.1 363.899 215.3 362.199 214.9C360.399 214.5 358.699 215.7 357.599 217C352.399 223.7 357.099 234.1 352.299 241.1C355.699 242.3 359.599 241.9 362.699 240.2M167.699 497.9C167.099 497.7 166.399 497.4 166.099 496.7C165.399 495.3 166.199 493.2 167.299 492.6C168.399 491.9 169.599 492.3 170.799 492.6C183.499 496.4 205.699 492.6 218.299 495C216.499 507.4 173.299 500 167.699 497.9ZM253.499 513.2C252.899 513.4 252.199 513.6 251.499 513.2C250.099 512.5 249.499 510.4 249.899 509.2C250.399 508 251.599 507.5 252.699 507.1C264.999 502.3 276.299 491.3 287.699 485.4C293.999 496.2 259.299 511.4 253.499 513.2ZM44.2989 314.9C43.7989 313.6 43.199 312.3 42.099 311.4C40.999 310.5 39.4989 310.1 38.1989 310.7C37.0989 311.3 36.3989 312.5 36.2989 313.8C36.1989 315.1 36.5989 316.3 36.9989 317.5C37.8989 320 40.0989 327.9 43.4989 326.8C47.6989 325.5 45.2989 317.5 44.2989 314.9ZM83.0989 289.4C83.6989 287.4 83.499 284.6 81.599 283.8C80.299 283.2 78.799 283.7 77.6989 284.5C74.4989 286.7 73.299 290.7 72.399 294.5C71.499 298.5 68.6989 305.3 74.9989 300.4C78.5989 297.7 81.8989 293.8 83.0989 289.4ZM88.4989 329.3C89.3989 328 90.0989 326.6 90.0989 325C89.9989 323.5 89.0989 321.9 87.4989 321.5C85.6989 321.1 83.9989 322.5 82.6989 323.9C80.899 325.9 74.0989 333 76.9989 335.3C80.1989 338 86.8989 331.5 88.4989 329.3Z" fill="white"/>
<path d="M315.099 130.5C314.399 130.9 313.499 130.7 312.999 130C312.599 129.3 312.799 128.4 313.499 127.9C315.499 126.7 316.799 125.8 317.799 123.1C318.099 122.3 318.999 121.9 319.699 122.3C320.499 122.6 320.799 123.5 320.499 124.2C319.399 127.6 317.599 129 315.099 130.5ZM294.699 108.5C295.499 108.3 296.299 108.9 296.399 109.7C296.999 113.1 293.799 115.4 293.799 117.5C293.799 117.9 294.199 118.3 294.199 118.4C294.999 118.1 295.799 118.4 296.199 119.2C296.699 120.2 295.899 121.4 294.299 121.4C292.399 121.4 290.899 119.5 290.799 117.6C290.699 114.4 293.799 112.2 293.399 110.3C293.399 109.4 293.899 108.6 294.699 108.5ZM300.199 123.7C300.699 123 301.599 122.9 302.299 123.4C302.999 123.9 303.099 124.8 302.599 125.5C301.199 127.5 298.599 128.5 296.199 128.1C295.399 127.9 294.899 127.2 294.999 126.3C295.099 125.4 295.899 125 296.799 125.1C298.099 125.3 299.499 124.7 300.199 123.7ZM349.299 208C350.099 208 350.799 208.7 350.699 209.6L350.399 215.8C350.399 216.6 349.699 217.2 348.899 217.2H348.799C347.999 217.2 347.299 216.5 347.399 215.6L347.699 209.4C347.799 208.6 348.499 207.9 349.299 208ZM269.399 167.4C270.899 167.5 271.099 167.4 272.399 166.3C275.399 163.7 277.599 163.7 280.599 162.5C282.299 161.8 284.299 160.4 284.299 158.6C284.299 157.8 284.899 157.1 285.799 157.1C286.599 157.1 287.299 157.8 287.299 158.6C287.399 161.9 284.399 164.3 281.699 165.4C279.299 166.3 276.799 166.7 275.099 168.1C274.199 168.8 273.199 169.9 271.699 170.4C268.599 171.3 267.599 168.6 259.799 175C259.499 175.2 259.199 175.3 258.899 175.3C257.499 175.3 256.899 173.5 257.999 172.6C261.599 169.5 264.799 167.2 269.399 167.4ZM345.899 180.4C345.199 180 344.899 179.1 345.299 178.4C346.199 176.7 348.299 176.4 349.799 177.1C350.999 177.7 351.799 178.7 352.399 179.7C352.799 180.4 353.299 181.2 353.799 181.5C354.899 182.3 356.699 182 358.599 181.4C359.199 181.2 359.799 181.5 360.199 182C360.599 182.5 360.599 183.2 360.199 183.7C359.399 184.9 359.599 186.7 360.599 187.4C361.099 187.8 361.799 187.9 362.399 187.7C362.699 187.6 363.299 187.4 363.599 186.8C363.899 186 364.799 185.7 365.499 186C366.299 186.3 366.599 187.2 366.299 187.9C365.199 190.8 361.099 191.7 358.599 189.8C357.099 188.6 356.399 186.8 356.599 184.9C355.099 185.1 353.299 185 351.899 183.9C350.999 183.2 350.399 182.3 349.899 181.5C349.599 181 349.099 180.1 348.399 179.8C348.199 179.7 347.899 179.7 347.799 179.8C347.499 180.5 346.599 180.8 345.899 180.4ZM368.299 82.3C368.599 83.1 368.199 83.9 367.399 84.2C366.599 84.5 365.799 84.1 365.499 83.3C360.199 68.7 347.599 56.8 332.799 52.3C331.999 52.1 331.599 51.2 331.799 50.4C331.999 49.6 332.899 49.2 333.699 49.4C349.399 54.2 362.699 66.8 368.299 82.3ZM371.399 63.9C370.599 64.2 369.799 63.7 369.499 63C366.299 53.6 358.099 46.1 348.399 43.9C347.599 43.7 347.099 42.9 347.299 42.1C347.499 41.3 348.299 40.8 349.099 41C359.699 43.5 368.899 51.8 372.399 62.1C372.599 62.7 372.199 63.6 371.399 63.9ZM256.999 41.9L255.799 54.6C255.699 55.7 254.599 56.3 253.599 55.8L228.399 43.6L205.699 43.9C196.099 44 188.299 36.4 188.199 26.9L188.099 18.1C187.999 8.6 195.599 0.699998 205.099 0.599998L256.099 0H256.299C260.999 0 265.299 1.9 268.399 5C271.499 8.1 273.499 12.3 273.499 17.1L273.599 24.6C273.699 29.4 271.799 33.9 268.299 37.3C265.299 40.1 261.299 41.8 256.999 41.9ZM208.999 16.9C206.199 16.9 203.999 19 203.999 21.5C203.999 24.1 206.299 26.1 208.999 26.1C211.799 26.1 213.999 24 213.999 21.5C214.099 19 211.799 16.9 208.999 16.9ZM232.899 16.6C230.099 16.6 227.899 18.7 227.899 21.2C227.899 23.7 230.199 25.9 232.899 25.9C235.699 25.9 237.899 23.8 237.899 21.2C237.899 18.6 235.699 16.6 232.899 16.6ZM254.499 16.2C251.699 16.2 249.499 18.3 249.499 20.9C249.499 23.5 251.799 25.5 254.499 25.5C257.299 25.5 259.499 23.4 259.499 20.9C259.499 18.3 257.299 16.2 254.499 16.2ZM344.499 247.5C344.499 246.7 345.099 246 345.899 245.9C346.699 245.8 347.399 246.5 347.499 247.3C347.999 256.3 348.399 261.5 347.199 270.4C347.099 271.2 346.499 271.7 345.699 271.7C344.799 271.7 344.099 270.9 344.199 270C345.299 261.5 344.999 256.7 344.499 248V247.5ZM375.899 268.9C378.299 266.5 378.699 265.8 379.899 265.7C380.499 265.6 381.199 265.8 381.699 266.2C382.799 267.1 382.799 268.4 382.899 269.1C383.599 268.7 385.999 266.7 387.699 264.1C388.199 263.4 389.099 263.2 389.799 263.7C390.499 264.2 390.699 265.1 390.199 265.8C388.799 267.9 387.099 269.7 385.099 271.3C383.299 272.7 381.999 272.3 381.299 272C380.099 271.3 379.899 270.1 379.799 269.3L376.599 272.6C376.199 273 375.599 273.2 374.999 273C374.399 272.8 374.099 272.3 373.999 271.7C373.999 271.5 373.899 271.4 373.699 271.3C373.299 271 372.699 270.8 372.199 270.8C369.599 271 367.899 274.2 364.599 275.2C363.799 275.4 362.999 275 362.699 274.2C362.499 273.4 362.899 272.6 363.699 272.3C366.299 271.5 367.999 268.1 371.899 267.8C373.199 267.7 374.699 268.1 375.699 269C375.799 268.8 375.899 268.8 375.899 268.9ZM359.999 297.9C360.499 297.3 361.399 297.1 362.099 297.5C362.799 298 362.999 298.9 362.499 299.6C361.999 300.3 361.199 300.8 360.199 300.9H359.899C358.899 300.9 357.999 300.5 357.399 299.8C356.199 298.5 355.899 296.4 357.299 294.1C356.499 293.3 356.199 292.3 356.499 291.3C357.099 289.7 359.399 290.1 359.399 291.8C359.899 291.7 360.499 291.8 360.899 292.3C361.399 292.9 361.399 293.7 360.899 294.3C360.299 295 359.699 295.7 359.499 296.4C359.299 296.9 359.299 297.5 359.599 297.8C359.699 297.9 359.899 297.9 359.999 297.9ZM219.099 244.9C219.999 245.9 221.099 247.2 221.299 248.9C221.399 250.7 220.499 252.1 219.599 253.4C218.999 254.3 218.399 255.2 218.399 255.9C218.399 256.2 218.599 256.6 218.799 257.1L218.899 257.3C220.599 261.5 220.999 266.3 220.099 270.8C219.999 271.5 219.299 272 218.599 272H218.299C217.499 271.8 216.999 271 217.099 270.2C217.899 266.3 217.499 262.1 216.099 258.4L215.999 258.2C215.799 257.6 215.499 257 215.399 256.2C215.299 254.4 216.199 253 217.099 251.7C217.699 250.8 218.299 249.9 218.299 249.2C218.199 248.5 217.599 247.7 216.899 246.9C216.699 246.7 216.499 246.4 216.299 246.2C214.199 243.7 213.299 240.3 213.599 236.8C213.899 233.3 215.599 230.2 218.199 228.2C218.899 227.7 219.799 227.8 220.299 228.5C220.799 229.2 220.699 230.1 219.999 230.6C218.099 232.1 216.799 234.5 216.499 237.2C216.199 239.9 216.899 242.5 218.499 244.4C218.699 244.5 218.899 244.7 219.099 244.9ZM255.799 245.1C262.599 245.6 267.699 250.4 267.299 255.9C266.899 261.4 261.099 265.4 254.299 264.9C247.499 264.4 242.399 259.6 242.799 254.1C243.199 248.7 248.999 244.6 255.799 245.1ZM255.099 476C253.699 477.1 252.399 478 251.199 478.9C250.899 479.1 250.599 479.2 250.299 479.2C249.799 479.2 249.299 478.9 249.099 478.5C247.699 476.5 243.399 470.2 239.699 464.7C243.999 451.9 249.499 434.9 255.699 417.8C262.999 427.9 272.499 440.3 278.799 449.8C279.799 451.3 280.299 452.8 279.299 454.4C279.599 454.5 279.899 454.7 280.099 454.9C284.699 461.1 288.699 466 292.699 471.9C295.699 476.4 294.799 482.4 290.599 485.6C289.299 486.6 288.699 487 286.999 488.3C285.999 489 285.699 489.4 285.099 489.4C283.699 489.4 283.099 487.6 284.199 486.7C284.999 486.1 286.599 484.9 288.899 483.2C291.799 481 292.499 476.7 290.399 473.6C285.499 466.3 277.999 457.3 277.699 456.3C271.799 461.8 264.299 468.6 257.599 474C258.899 475.9 260.299 478.2 261.699 480C262.399 481 261.699 482.4 260.499 482.4C258.899 483.4 252.999 489.3 252.199 490.2C249.699 493.4 248.199 497.2 247.599 501.3C247.199 503.9 248.099 506.7 249.499 507.7C250.399 508.3 251.499 508.1 252.899 507.3C264.099 500.3 269.399 498.3 278.599 491.2C279.299 490.7 280.199 490.8 280.699 491.5C281.199 492.2 281.099 493.1 280.399 493.6C270.999 500.9 265.699 503 254.499 509.9C251.799 511.5 249.599 511.4 247.899 510.3C245.199 508.5 244.199 504.3 244.699 501C245.299 496.4 247.099 492.1 249.899 488.5C249.999 488.4 254.999 482.8 258.299 480.5C256.799 478.5 256.199 477.6 255.099 476ZM179.699 489.4C180.399 489.8 180.699 490.7 180.399 491.4C179.999 492.1 179.099 492.4 178.399 492.1C175.999 490.9 175.099 487.7 176.499 485.4C176.899 484.7 177.899 484.5 178.599 484.9C179.299 485.3 179.499 486.3 179.099 487C178.599 487.7 178.899 489 179.699 489.4Z" fill="white"/>
<path d="M273.598 481.9C273.398 481.1 273.998 480.3 274.798 480.2C276.998 479.8 278.998 478.5 280.398 476.7C280.898 476 281.798 475.9 282.498 476.4C283.198 476.9 283.298 477.8 282.798 478.5C280.998 480.9 278.298 482.6 275.398 483.2C274.598 483.2 273.798 482.7 273.598 481.9ZM338.698 85.6001C341.498 86.1001 343.998 87.8001 345.098 90.3001C345.998 92.2001 345.898 94.5001 344.998 96.6001C344.498 97.6001 343.898 98.4001 343.098 99.1001C344.898 101.1 345.598 104.1 344.598 106.6C343.698 108.9 341.498 110.5 339.198 110.9C340.598 114.8 337.998 118.5 334.098 118.9C334.498 120.4 334.798 121.9 334.398 123.5C334.098 125.1 332.998 126.6 331.498 127.4C331.098 127.6 330.698 127.8 330.198 127.9C330.598 131.8 328.098 133.4 325.898 132.8C325.998 135.5 326.098 138.3 326.298 141.6C326.298 142.4 325.698 143.1 324.898 143.2C324.098 143.2 323.398 142.6 323.298 141.8C322.998 136.8 322.898 133.4 322.698 129.2C321.898 126.7 321.398 121.5 321.598 118C321.598 117.6 321.798 117.2 322.098 116.9C322.198 116.4 322.498 116 322.898 115.7C325.198 114.6 326.598 113.7 327.598 112C328.298 110.8 328.398 108.7 327.998 107.5C327.798 107.2 327.598 106.9 327.398 106.7C326.598 106.5 325.498 106.9 324.498 107.3C318.698 109.3 312.698 108.6 306.898 105.4C305.498 104.8 304.498 104.3 302.698 102.6C301.698 101.8 300.698 101 299.798 100.1C299.298 99.8001 298.698 99.6001 298.098 99.5001C295.898 99.2001 293.498 99.0001 291.198 98.2001C290.498 99.5001 289.898 100.8 289.598 102.2C288.298 108.6 288.398 115.3 289.898 121.6C291.198 127.1 293.498 131 296.598 133.1C299.998 135.4 305.198 135.1 307.398 131.7C307.898 131 308.798 130.8 309.498 131.3C310.198 131.8 310.398 132.7 309.898 133.4C307.798 136.7 303.498 138.4 298.798 137.3C298.498 139.7 298.598 138.5 298.198 141.6V141.7L298.298 141.8V141.9C298.598 142 298.798 142.2 298.998 142.5C301.498 146.5 306.498 149.4 311.698 149.9C316.898 150.3 322.298 148.3 325.498 144.7C325.698 144.5 325.898 144.4 326.198 144.3C326.698 143.9 327.398 143.8 327.898 144.1C328.398 144.4 330.698 145.7 331.298 146.1C332.198 146.6 332.298 147.8 331.598 148.5C331.098 149 330.398 149.1 329.798 148.7C329.498 148.6 330.798 149.3 327.198 147.2C318.598 156 303.198 154.5 296.598 144.5C287.598 149.6 277.498 154.3 268.898 158.2C261.198 161.8 261.598 161.7 261.098 161.7C259.498 161.7 258.998 159.5 260.498 158.8C263.098 157.6 265.898 156.3 271.698 153.6C279.298 150 287.898 146 295.198 141.8C295.098 141.6 295.098 141.4 295.198 141.2C295.198 140.9 295.898 136.3 295.898 136.2C290.898 133.6 288.298 127.8 286.998 122.3C285.398 115.6 285.298 108.4 286.698 101.6C287.098 99.8001 287.698 98.3001 288.498 96.9001C285.398 94.9001 284.198 92.2001 284.398 88.9001C284.498 87.8001 284.998 86.1001 285.698 84.4001C286.498 82.6001 288.698 78.3001 291.898 77.7001C292.198 77.6001 292.498 77.6001 292.798 77.6001C292.898 72.7001 297.598 69.5001 301.898 72.1001C302.398 72.4001 302.798 72.8001 303.198 73.2001C307.298 67.5001 314.498 68.6001 316.198 74.3001C320.298 71.9001 324.598 73.6001 325.698 77.4001C334.198 73.3001 341.098 79.6001 338.698 85.6001ZM382.498 337.6C381.798 337.2 381.398 336.3 381.798 335.6C389.798 318.8 396.098 301.1 400.498 282.9C400.698 282.1 401.498 281.6 402.298 281.8C403.098 282 403.598 282.8 403.398 283.6C398.998 301.9 392.598 319.8 384.498 336.8C384.098 337.6 383.198 337.9 382.498 337.6ZM398.798 183.8C397.598 181.6 393.998 180.4 392.798 177.1C392.498 176.3 392.898 175.5 393.698 175.2C394.498 174.9 395.298 175.3 395.598 176.1C395.998 177.2 397.098 178.1 398.198 179C401.198 181.4 401.798 182.5 402.498 185.8C403.098 188.7 403.398 188.9 404.798 189.3C405.298 189.4 405.798 189.6 406.298 189.9C408.698 191.3 408.798 194.4 408.898 195.9L409.398 206.3C409.398 207.2 408.798 207.9 407.898 207.9C407.098 207.9 406.398 207.3 406.398 206.5C405.798 196.2 406.198 193.4 404.798 192.6C404.298 192.3 403.398 192.2 402.498 191.7C399.398 189.8 399.898 185.9 398.798 183.8ZM108.098 429.2C108.898 429 109.698 429.6 109.898 430.4C110.098 431.2 109.498 432 108.698 432.2C97.2984 434.3 85.8984 436.1 76.1984 438.7C76.0984 438.7 75.8984 438.8 75.7984 438.8C75.0984 438.8 74.4984 438.4 74.3984 437.7C74.1984 436.9 74.6984 436.1 75.3984 435.9C85.2984 433.1 96.5984 431.3 108.098 429.2ZM30.9984 427.3C33.7984 429.5 38.8984 432.1 41.9984 434.5C42.6984 435 42.7984 436 42.1984 436.6C41.6984 437.3 40.6985 437.4 40.0984 436.8C37.2985 434.6 32.1985 432 29.0984 429.6C28.3984 429.1 28.2984 428.1 28.8984 427.5C29.3984 426.9 30.2984 426.8 30.9984 427.3ZM92.1984 406.4C91.4984 406.4 90.8984 405.9 90.6984 405.2C90.4984 404.4 91.0984 403.6 91.8984 403.4L98.4984 402C99.2984 401.8 100.098 402.4 100.298 403.2C100.498 404 99.8984 404.8 99.0984 405C92.0984 406.4 92.4984 406.4 92.1984 406.4ZM82.6984 404.5C81.7984 404.9 80.8984 405.2 79.8984 405.3C79.0984 405.4 78.2984 404.9 78.1984 404C78.0984 403.2 78.5984 402.4 79.4984 402.3C80.1984 402.2 80.8984 402 81.4984 401.7C82.2984 401.4 83.0984 401.7 83.4984 402.5C83.7984 403.2 83.4984 404.1 82.6984 404.5ZM70.0984 412.7C67.7985 412.7 65.4984 412.9 63.2984 413.5C62.4984 413.7 61.6984 413.2 61.4984 412.4C61.2984 411.6 61.7985 410.8 62.5984 410.6C65.0984 410 67.5984 409.7 70.0984 409.7C70.8984 409.7 71.5984 410.4 71.5984 411.2C71.5984 412.1 70.8984 412.7 70.0984 412.7Z" fill="white"/>
<path d="M1.49921 431.6L22.3992 431.5C19.3992 429.3 16.3992 427.2 13.6992 425.1C12.9992 424.6 12.8992 423.6 13.4992 422.9C14.9992 421.2 15.7992 417.2 13.9992 412.2C13.8992 411.8 13.8992 411.5 13.9992 411.1C14.0992 410.4 14.5992 409.9 15.1992 409.8C16.8992 409.5 18.8992 409.1 20.8992 408.7C15.1992 404.7 9.49924 400.6 4.59924 396.9C3.89925 396.4 3.79922 395.4 4.39923 394.7C5.89923 393 6.69923 389 4.89923 384C4.79922 383.6 4.79922 383.3 4.89923 383C4.99924 382.3 5.49924 381.8 6.09924 381.7C6.39925 381.6 20.4992 378.8 34.0992 376.3C33.1992 373.2 31.9992 368.7 29.9992 361.6C28.6992 357.2 31.9992 352.6 36.6992 352.5C40.1992 352.5 44.2992 352.5 48.3992 352.6C46.7992 348 45.1992 343.8 43.8992 339.5C43.4992 339.6 42.9992 339.5 42.6992 339.2C34.2992 332.9 30.7992 330.9 26.4992 322.6C24.7992 319.4 23.5992 315 23.5992 311.7C23.4992 307.8 25.0992 304.2 27.7992 301.8C33.0992 297.2 41.8992 298.4 46.6992 302.4C51.1992 306.2 53.5992 312.5 53.0992 319.2C52.5992 325.1 50.2992 330.7 47.9992 336C47.6992 336.6 47.0992 337 46.3992 336.9C47.8992 342 49.6992 347.1 51.6992 352.6H52.8992C52.4992 339.4 55.1992 326.3 60.7992 314.3C60.3992 313.2 62.4992 296.2 63.7992 291.6C65.0992 286.4 67.4992 282.2 70.8992 279.1C83.5992 267.5 97.0993 285.3 84.2993 300.3C80.0993 305.3 73.4992 308.3 67.6992 311.5C66.9992 311.9 66.1992 311.7 65.7992 311.1C58.8992 323.9 55.4992 338.3 55.8992 352.8C58.2992 352.8 60.6992 352.9 63.0992 352.9C64.8992 349.7 66.6992 346.6 68.6992 343.6C67.5992 344.4 66.1992 343.5 66.2992 342.3C67.1992 332.6 68.8992 322.5 75.1992 314.4C80.3992 307.7 86.5992 307.1 91.8992 310.6C96.5992 313.7 98.8992 319.5 97.9992 325.2C97.1992 330.1 93.9992 334.8 89.0992 338.4C84.5992 341.7 78.1992 342.5 72.9992 343.9C72.5992 344 72.2992 344 71.9992 343.8C69.9992 346.8 68.1992 349.8 66.3992 352.9C69.3992 352.9 72.2992 353 74.7992 352.9C79.6992 352.9 82.9992 357.5 81.6992 362L76.9992 377.7C90.9992 382.2 104.099 386.6 113.999 389.9C114.499 390.1 114.899 390.5 114.999 391C118.099 394.2 117.599 400.2 116.399 403.5C115.099 407.2 111.999 410.1 108.299 410.9C107.099 411.2 105.799 411.5 104.199 411.9C111.499 414.3 117.699 416.4 122.999 418.2C123.499 418.4 123.899 418.8 123.999 419.3C126.999 422.5 126.599 428.3 125.399 431.6H148.199C148.999 431.6 149.699 432.3 149.699 433.1C149.699 433.9 148.999 434.6 148.199 434.6H124.099C122.499 436.9 120.199 438.5 117.499 439.1C102.399 442.6 86.4992 446.3 70.9992 449.2C70.1992 449.4 69.3992 448.8 69.2992 448C69.0992 447.2 69.6992 446.4 70.4992 446.3C85.8992 443.4 101.799 439.7 116.899 436.3C119.599 435.7 121.799 433.6 122.799 430.8C123.799 428 123.999 423.3 121.899 421.3C99.0992 424 76.1992 430.9 53.5992 436.1C55.7992 440 55.8992 445.1 54.0992 449C57.4992 448.6 60.9992 448 64.7992 447.3C65.5992 447.2 66.3992 447.7 66.4992 448.5C66.5992 449.3 66.0992 450.1 65.2992 450.2C60.5992 451 56.1992 451.7 52.0992 452.2C51.7992 452.2 51.7992 452.2 51.5992 452.1H51.4992C51.1992 452.1 50.8992 452 50.5992 451.8C43.4992 446.5 34.8992 440.4 26.4992 434.4L1.49921 434.6C0.699203 434.6 -0.000793457 433.9 -0.000793457 433.1C-0.000793457 432.3 0.699203 431.6 1.49921 431.6ZM50.2992 319C50.7992 313.2 48.7992 307.9 44.9992 304.7C40.6992 301.1 33.6992 300.8 29.8992 304C27.8992 305.8 26.6992 308.5 26.7992 311.6C26.7992 314.4 27.8992 318.4 29.3992 321.2C33.1992 328.4 36.0992 330.3 43.0992 335.5C41.8992 331.1 41.0992 326.6 40.8992 322C40.8992 321.2 41.4992 320.5 42.2992 320.4C43.0992 320.4 43.7992 321 43.8992 321.8C44.0992 325.9 44.7992 329.9 45.7992 333.9C47.7992 329.2 49.7992 324.2 50.2992 319ZM82.1992 298.4C85.3992 294.6 88.0993 288.6 85.7993 283.2C82.0993 274.2 70.3992 278.6 66.7992 292.4C66.0992 295.2 65.0992 302.1 64.4992 307.6C66.6992 303.8 69.0992 300.2 71.8992 296.7C72.3992 296.1 73.3992 295.9 73.9992 296.5C74.5992 297 74.7992 298 74.1992 298.6C71.6992 301.7 69.4992 305 67.4992 308.3C72.5992 305.5 78.5992 302.6 82.1992 298.4ZM87.4992 336C91.7992 332.8 94.4992 328.8 95.1992 324.7C96.4992 317.1 90.2992 310.8 84.6992 311.5C82.2992 311.8 79.9992 313.4 77.7992 316.2C71.9992 323.6 70.3992 333.3 69.4992 342.5V342.7C72.1992 338.6 75.0992 334.5 78.0992 330.7C78.5992 330 79.5992 329.9 80.1992 330.5C80.8992 331 80.9992 332 80.4992 332.6C78.3992 335.2 76.4992 337.9 74.5992 340.6C78.8992 339.4 84.0992 338.5 87.4992 336ZM41.9992 420.2C43.9992 416.8 43.7992 411.8 41.3992 408.4C40.2992 408.1 32.7992 402 8.69922 386.4C9.29922 389.9 8.89925 393.1 7.59924 395.4C17.9992 403.1 31.5992 412.4 41.9992 420.2ZM45.9992 377.6C41.9992 372.7 39.6992 366.4 39.5992 360.1C39.5992 359.5 39.0992 359.1 38.5992 359.1C38.0992 359.1 37.5992 359.6 37.5992 360.1C37.7992 366.9 40.1992 373.5 44.4992 378.8C44.6992 379.1 44.9992 379.2 45.2992 379.2C45.4992 379.2 45.6992 379.1 45.8992 379C46.1992 378.7 46.2992 378.1 45.9992 377.6ZM75.0992 357.9C71.8992 358.3 70.0992 362.1 72.1992 364.8C71.8992 364.9 71.5992 364.9 70.7992 365.1C69.8992 365.2 68.7992 365.9 68.3992 366.9C67.6992 368.5 69.1992 369.3 69.4992 369.6C69.4992 370.3 67.7992 370.9 67.4992 372.4C66.9992 374.2 68.6992 375.6 68.1992 376.3C67.6992 376.4 67.2992 376.9 67.3992 377.4C67.4992 378 68.0992 378.3 68.5992 378.2C70.0992 378 70.5992 376.1 70.0992 374.7C69.2992 372.7 68.9992 373.1 70.5992 371.6C71.4992 370.8 71.9992 369.5 71.2992 368.4C70.9992 368 70.5992 367.7 70.3992 367.6C70.4992 367.4 70.8992 367.1 71.2992 367.1C72.6992 366.9 74.0992 366.7 74.7992 365.3C74.9992 364.9 74.7992 364.3 74.4992 364.1C73.6992 363.6 73.3992 362.5 73.5992 361.6C73.7992 360.7 74.6992 360 75.5992 359.9C76.0992 359.8 76.4992 359.3 76.4992 358.8C76.0992 358.3 75.5992 357.9 75.0992 357.9ZM76.3992 380.7L75.0992 385.1C74.1992 388 71.5992 390.1 68.5992 390.2L44.1992 391.1H43.8992C40.7992 391.1 37.9992 389 37.0992 386C36.3992 383.5 35.8992 382.1 35.1992 379.3C26.9992 380.8 18.0992 382.5 10.5992 384C23.6992 392.5 32.3992 398.5 42.1992 405.4H42.4992C63.7992 400.6 85.4992 394.1 107.199 390.9C96.8992 387.4 87.0992 384.1 76.3992 380.7ZM113.699 402.6C114.699 399.8 114.899 395.1 112.799 393.1C90.0993 395.8 67.2992 402.6 44.4992 407.9C46.9992 412.5 46.8992 418.6 43.8992 422.6C43.8992 422.7 43.8992 422.9 43.7992 423C60.4992 419.8 98.3992 410.2 98.6992 410.2C102.299 409.3 105.399 408.6 107.599 408.1C110.499 407.4 112.699 405.3 113.699 402.6ZM50.9992 448.4C52.9992 445 52.7992 440 50.3992 436.6C49.3992 436.3 40.9992 429.7 17.6992 414.6C18.2992 418.1 17.8992 421.3 16.5992 423.6C27.0992 431.3 40.4992 440.5 50.9992 448.4Z" fill="white"/>
<path d="M88.8991 493.9H166.099C164.699 492.5 164.199 490.8 164.499 489.1C165.499 483.8 168.899 481.3 173.699 478.6C177.399 476.6 180.699 475.4 184.999 474.5C189.199 473.6 193.199 472.9 197.199 473.3C197.399 470.7 197.599 468.3 197.699 466.2C197.599 466.2 197.399 466.1 197.299 466.1C196.499 465.9 195.999 465.2 196.099 464.5C196.999 456.6 198.199 447.1 199.799 436.6C208.399 395.6 226.899 332.7 233.599 314C234.499 311.5 235.399 308.9 236.299 306.3C238.799 298.4 241.199 292.6 248.299 288.8H248.499C252.399 287.2 256.599 286.4 261.099 286.9C273.999 288.3 290.699 290.8 307.299 293.7C307.399 292.8 307.399 291.9 307.499 291C307.899 284.3 308.199 278.5 307.999 270.4C307.999 269.6 308.599 268.9 309.499 268.9C310.299 268.9 310.999 269.5 310.999 270.4C311.199 278.6 310.899 284.4 310.499 291.2C310.499 292.2 310.399 293.2 310.299 294.2C332.699 298.1 354.399 302.6 366.099 305.4L370.199 306.2C371.899 306.5 373.099 306.4 373.399 305.9C373.499 305.6 373.599 305.1 373.599 304.7L374.599 282.1C369.199 282.5 363.999 282.4 358.999 281.7C354.099 280.8 351.099 280.5 331.299 277.8C326.999 277.2 327.399 273.8 327.799 271.3L327.899 270.3C317.799 270.1 308.199 267.6 298.599 264.5C298.499 264.5 298.299 264.6 297.899 264.5C296.799 264.1 295.799 263.8 294.799 263.2C292.999 262.2 292.399 261 292.299 260.8C292.099 260.6 291.999 260.4 291.999 260.2C291.699 259.6 290.899 257.8 292.099 256.5C292.299 256.3 292.299 256.2 292.499 256C291.999 255.6 291.499 255.3 291.099 254.9C289.299 252.9 289.999 249.9 292.399 248.5C290.399 246.2 291.199 243.3 294.399 242.2C293.299 239.5 295.499 237.3 298.499 237.3C300.399 237.3 301.999 237.9 307.399 239.8C306.699 238.9 306.099 238 305.599 237.1C305.099 236.2 304.499 235 304.499 233.7C304.499 231.3 306.599 229.7 307.799 229.9C307.799 229.1 307.899 228.3 307.899 227.4C291.899 225.1 277.799 223.6 263.999 222.3H263.499C263.399 222.3 263.299 222.3 263.199 222.2C255.699 221.5 248.399 220.9 240.799 220.3C228.999 219.3 216.799 218.3 203.399 217C203.899 219.3 204.399 223.4 205.099 230.6C205.899 238.5 206.599 246.8 206.699 248.3C207.099 257.5 207.899 267.1 208.499 275.5C208.699 278.5 208.899 281.4 209.099 284.1C220.099 286.8 231.499 287.6 242.599 288.4C243.399 288.5 244.199 288.5 244.999 288.6C239.099 292.7 236.699 298.8 234.499 305.8C233.699 308.3 232.799 310.9 231.899 313.5C226.299 329 211.499 378.8 202.499 416.6C196.599 401.8 191.099 386.7 185.899 371.5C178.399 399.2 170.699 431.4 163.099 454C162.399 456.2 160.699 457.1 159.199 457.1C156.799 457.1 154.799 455 155.199 452C159.699 421.5 161.699 373.5 167.399 341.3C163.299 340.9 159.199 340.1 155.499 338.1L155.299 338C151.999 336.1 150.499 332.4 151.399 328.7C152.299 325.3 154.999 322.9 158.399 322.5C162.399 320.2 168.499 318.9 173.099 318.4C173.599 314.2 174.899 310.2 177.399 306.5C185.499 294.6 195.799 287.6 206.799 286.6C206.399 286.3 206.199 286 206.199 285.5C205.999 282.4 205.699 279.2 205.499 275.8C204.899 267.3 204.199 257.7 203.699 248.5C203.599 246.6 202.999 240 202.299 233.2C201.599 231.9 200.699 229.4 199.699 226.8C198.799 224.4 197.999 222 197.399 221C196.499 219.5 195.599 217.2 194.699 214.9C193.899 212.9 193.099 210.9 192.399 209.6C191.999 208.9 192.299 208 192.999 207.6C193.199 207.5 193.399 207.5 193.499 207.4C193.499 207 193.699 206.6 193.999 206.3C194.299 206.1 194.499 205.8 194.799 205.6C194.099 204.4 193.399 203.5 192.599 202.7C191.399 201.5 190.099 200.6 188.599 200.1C187.499 199.7 186.299 199.7 184.999 199.7H183.399C178.899 199.5 174.399 198.8 170.099 197.4C168.999 197.1 167.699 196.6 166.399 196C164.699 195.1 163.799 193.3 164.299 191.4C164.399 190.8 164.699 190.3 164.999 189.9C163.799 189 162.699 187.7 162.299 186.4C161.899 185.2 162.099 184.1 162.699 183.1C162.899 182.7 163.199 182.5 163.499 182.2C162.999 181.5 162.599 180.6 162.599 179.5C162.499 177.7 163.399 175.6 165.299 175C165.099 174.3 165.099 173.6 165.299 172.9C165.899 170.7 167.999 169.1 169.799 168.5C171.999 167.8 179.799 168.8 182.299 169.3C182.699 168.3 183.299 167.5 184.199 166.7C185.499 165.6 187.299 165 189.399 164.7C195.299 164 201.499 166.2 206.399 171C210.299 174.8 212.999 179.4 215.599 183.9L215.799 184.3C215.899 184.2 215.999 184 216.199 183.9C216.499 183.5 216.899 183.3 217.399 183.4C217.899 183.4 218.299 183.6 218.599 184C225.299 193.2 228.699 199.7 232.199 206.6C232.599 207.4 232.999 208.2 233.499 209.1C233.699 206.7 233.999 204.2 234.299 201.6C234.999 194.6 235.899 186.6 236.499 179.1C237.299 169.9 245.599 166.3 254.399 162C255.099 161.6 255.999 162 256.399 162.7C256.799 163.4 256.399 164.3 255.699 164.7C253.699 165.7 251.799 166.6 249.899 167.5C240.699 172.2 239.699 176 239.399 179.3C238.799 186.8 237.899 194.8 237.199 201.8C236.799 205.6 236.399 209.1 236.099 212.4C236.099 212.7 235.899 213 235.699 213.2C236.299 214.4 236.999 215.5 237.699 216.8C237.699 216.8 237.699 216.9 237.799 217C238.799 217.1 239.799 217.2 240.699 217.2L261.999 219V218.6C262.099 217.4 262.299 215.8 262.599 214.1C263.099 210.2 263.699 205.3 263.799 204.2C263.799 203.4 264.499 202.7 265.299 202.7C266.099 202.7 266.799 203.4 266.799 204.2C266.799 205.4 266.299 209.2 265.599 214.4C265.399 215.8 265.199 217.2 265.099 218.4C265.199 218.6 265.199 218.9 265.199 219.2V219.3C278.999 220.6 293.199 222.1 309.399 224.5C310.199 224.6 310.699 225.3 310.699 226.1C310.599 228 310.499 229.7 310.499 231.3C316.599 234.6 324.199 238.2 331.599 241.1C331.699 240.8 331.699 240.5 331.799 240.2C331.999 239.5 332.599 239.1 333.299 239.1C343.899 239.3 343.799 240.1 358.299 239.1C359.699 233.7 359.999 228.2 359.399 222.7C359.299 221.9 359.899 221.1 360.699 221C361.499 220.9 362.299 221.5 362.399 222.3C362.999 227.8 362.699 233.4 361.499 238.8C362.799 238.7 364.099 238.6 365.299 238.5C366.099 238.4 366.799 239.1 366.899 239.9C366.999 240.7 366.299 241.4 365.499 241.5C342.699 243 349.799 242.5 334.399 242C333.899 244 333.999 243.5 330.499 271.6C330.099 274.6 330.299 274.6 331.499 274.8C354.699 278 354.699 277.8 359.299 278.7C375.899 281 396.899 277.6 404.199 262.5C406.999 256.6 406.899 250.3 403.799 242.2C403.499 241.4 403.899 240.6 404.699 240.3C405.499 240 406.299 240.4 406.599 241.2C408.899 247.3 410.999 255.3 406.899 263.9C406.599 264.4 406.299 265 405.999 265.6C400.199 275.6 388.999 280.3 377.399 281.8L376.399 304.9C376.399 305.6 376.299 306.5 375.899 307.4C375.499 308.1 374.899 308.7 373.899 309.1C375.799 327.4 367.999 347.2 356.799 351.8C355.699 352.3 354.599 352.7 353.499 353.1C361.399 351.6 369.399 350 377.199 348.2C377.799 348.1 378.399 348.3 378.699 348.8C378.999 348.4 379.499 348.1 379.999 348.1C384.099 348.2 388.199 349.3 391.899 351.2C403.299 330.3 410.599 314 417.799 293.7C426.499 269.2 429.599 246.1 427.199 225C424.399 200.3 413.199 178.6 397.399 166.9C379.899 154 364.899 153.6 344.599 153.8C357.499 159.5 369.099 166.8 377.099 172.5C392.199 183.1 393.699 199.8 398.399 214.7C399.299 217.5 399.799 220.2 400.399 222.8C401.099 226.3 401.799 229.6 403.199 233C403.499 233.8 403.099 234.6 402.399 235C401.599 235.3 400.799 234.9 400.399 234.2C397.799 227.7 397.599 222 395.599 215.6C390.799 200.3 389.499 184.8 375.399 174.9C365.499 167.9 350.299 158.4 333.799 152.8C332.999 152.5 332.599 151.7 332.899 150.9C333.199 150.1 333.999 149.7 334.799 150C336.299 150.5 337.699 151 339.099 151.6C339.399 151.2 339.799 150.9 340.299 150.9C363.999 150.6 379.999 150.3 399.199 164.5C415.699 176.7 427.299 199.2 430.199 224.7C432.699 246.2 429.499 269.8 420.599 294.8C413.399 315.1 405.799 332 394.499 352.8C396.599 354.2 398.599 355.8 400.299 357.7C400.899 358.4 401.199 359.7 400.899 360.6C400.699 361.3 400.199 361.7 399.599 361.9C397.999 362.3 389.699 364 380.199 366C380.299 366.1 380.399 366.3 380.399 366.5C383.799 382.3 386.299 402.6 388.799 422.4C390.499 436.4 392.199 449.6 393.999 460.4C394.399 462.5 393.199 464.4 391.099 464.9C390.699 465 390.299 465.1 389.899 465.1C388.299 465.1 386.899 464.2 386.199 462.5C380.899 449 375.399 430.9 369.999 413.3C365.199 397.5 360.599 382.5 356.199 370.8C353.599 371.3 350.899 371.9 348.299 372.5C345.499 383.7 342.399 400.1 339.299 417.4C335.299 439.3 331.099 461.9 327.099 475.3C327.099 475.4 326.999 475.5 326.999 475.6H399.799C400.599 475.6 401.299 476.3 401.299 477.1C401.299 477.9 400.599 478.6 399.799 478.6H304.199C303.399 478.6 302.699 477.9 302.699 477.1C302.699 476.3 303.399 475.6 304.199 475.6H320.099C319.899 475.1 319.799 474.5 319.899 473.9C321.099 461.5 321.699 443.8 322.399 426.7C323.099 408.5 323.699 389.8 325.099 376.7C306.699 378.6 288.599 378.5 267.499 374.4C263.199 387.6 258.599 401.7 253.999 415.7C254.099 415.9 254.199 416 254.299 416.2C246.699 436.9 239.799 458.8 233.099 478.5C232.699 478.8 231.999 478.9 231.499 478.5C230.999 478.2 230.599 477.9 230.099 477.7C230.099 481.1 229.999 484.6 229.699 488.1C229.299 493.5 224.799 497.6 219.599 497.6C217.099 497.6 214.699 497.5 213.799 497.5C212.999 497.5 212.299 496.8 212.299 496C212.299 495.2 212.999 494.5 213.799 494.5C214.499 494.5 217.499 494.6 219.599 494.6C223.299 494.7 226.399 491.7 226.699 487.9C226.999 483.9 227.099 479.9 227.099 476.1C218.599 471.8 208.599 469 200.599 467.1C200.499 469.8 200.099 472.7 200.099 475.3C200.099 476.2 199.199 476.9 198.299 476.7C194.299 476 189.999 476.8 185.599 477.7C181.599 478.5 178.499 479.6 175.099 481.5C171.899 483.3 169.699 484.9 168.799 486.4C168.099 487.4 167.699 488.6 167.399 489.9C167.099 491.7 168.799 492.9 170.599 493.1C188.599 495.1 199.299 493.6 200.599 494.4H206.499C207.299 494.4 207.999 495.1 207.999 495.9C207.999 496.7 207.299 497.4 206.499 497.4C198.899 497.4 191.799 497.4 185.499 497.2H88.7991C87.9991 497.2 87.2991 496.5 87.2991 495.7C87.2991 494.9 88.0992 493.9 88.8991 493.9ZM169.599 383.4C169.799 383.8 170.099 384 170.499 384C171.199 384 171.699 383.3 171.399 382.6C169.799 378.9 171.799 374 175.499 372.4C175.999 372.2 176.199 371.6 175.999 371.1C174.299 366.8 175.599 361.4 178.899 358.3C179.299 357.9 179.299 357.3 178.999 356.9C178.599 356.5 177.999 356.5 177.599 356.8C173.799 360.3 172.299 366 173.799 370.9C171.899 372 170.399 373.7 169.499 375.9C168.599 378.4 168.599 381.1 169.599 383.4ZM156.699 335L156.899 335.1C162.299 338.2 168.899 337.9 175.299 338.8C174.199 334.7 173.199 330.3 172.899 325.8C168.399 325.2 163.899 324.9 159.399 325C153.899 325.1 151.999 332.3 156.699 335ZM166.599 322.2C168.599 322.3 170.699 322.5 172.699 322.8V321.1C170.599 321.3 168.599 321.7 166.599 322.2ZM192.799 315.6C192.499 315.1 191.899 315 191.399 315.3C189.399 316.7 186.599 318.5 185.399 321.5C184.099 324.7 184.899 328.1 185.799 331.6L195.299 367.3C195.399 367.8 195.899 368.2 196.499 368C196.999 367.9 197.399 367.3 197.199 366.8L187.599 331.1C185.399 323 186.599 320.8 192.299 316.9C192.999 316.7 193.099 316 192.799 315.6ZM202.299 297.7C201.999 297.2 201.399 297.1 200.899 297.4L193.399 302.2C192.899 302.5 192.799 303.1 193.099 303.6C193.399 304.1 193.999 304.2 194.499 303.9L201.999 299.1C202.499 298.8 202.599 298.1 202.299 297.7ZM213.699 186.2L212.999 185.1C210.499 180.8 207.899 176.3 204.299 172.8C199.999 168.7 194.699 166.7 189.699 167.3C188.099 167.5 186.899 168 185.999 168.7C185.099 169.4 184.599 170.5 184.899 171.3C185.199 172.3 186.499 173 187.699 173.2C188.299 173.3 188.999 173.4 189.699 173.5C190.799 173.7 191.999 173.8 193.199 174.2C197.399 175.7 199.399 179.9 200.599 182.9L201.199 184.4C202.199 187.1 203.199 189.7 205.099 191.5C205.699 192.1 205.699 193 205.199 193.6C204.899 193.9 204.499 194.1 204.099 194.1C203.699 194.1 203.399 194 203.099 193.7C200.599 191.4 199.499 188.4 198.399 185.4C198.199 184.9 197.999 184.5 197.899 184C196.399 180.1 194.599 177.9 192.299 177C191.399 176.7 190.499 176.5 189.399 176.4C188.699 176.3 187.899 176.2 187.199 176C184.499 175.4 182.699 173.9 182.099 171.9V171.8C179.999 171.3 172.099 170.4 170.799 170.8C169.599 171.2 168.499 172.2 168.299 173.1C168.199 173.4 168.199 173.7 168.599 174.2C169.399 174.2 170.299 174.3 171.299 174.5L185.799 176.7C186.599 176.8 187.199 177.6 187.099 178.4C186.999 179.2 186.199 179.8 185.399 179.7L170.899 177.5C168.899 177.2 167.299 177.2 166.399 177.4C166.199 177.5 165.799 178.1 165.799 178.9C165.799 179.3 165.899 180 166.599 180.2C166.699 180.2 166.699 180.2 166.799 180.3C167.299 180.2 167.799 180.1 168.199 180.1C169.899 180 171.899 180.2 173.799 180.6C175.899 181.1 177.999 181.6 179.999 182C181.999 182.5 184.099 182.9 186.299 183.4C187.099 183.6 187.599 184.4 187.399 185.2C187.199 186 186.399 186.5 185.599 186.3C183.499 185.8 181.399 185.3 179.399 184.9C177.399 184.4 175.299 184 173.099 183.5C171.499 183.1 169.799 182.9 168.499 183.1C166.899 183.2 165.899 183.6 165.399 184.4C165.299 184.5 165.199 184.7 165.399 185.1C165.699 186.1 166.999 187.2 167.699 187.5C167.799 187.6 167.999 187.6 168.099 187.7C168.499 187.6 168.799 187.6 169.199 187.6C169.799 187.6 170.399 187.7 170.999 187.8C172.699 188.1 174.499 188.4 176.199 188.6C177.899 188.9 179.699 189.2 181.399 189.4C182.099 189.5 182.699 189.6 183.299 189.7L185.199 190C185.999 190.1 186.599 190.9 186.399 191.7C186.299 192.5 185.499 193.1 184.699 192.9C184.099 192.8 183.399 192.7 182.799 192.6C182.199 192.5 181.499 192.4 180.899 192.3C179.199 192 177.399 191.7 175.699 191.5C173.999 191.2 172.199 190.9 170.499 190.7C169.999 190.6 169.499 190.6 168.999 190.6C167.999 190.6 167.499 191.3 167.399 191.7C167.299 192.2 167.399 192.6 167.899 192.8C168.999 193.3 170.099 193.7 171.199 194C175.199 195.2 179.499 196 183.699 196.1H185.299C186.799 196.1 188.299 196.1 189.899 196.6C191.799 197.3 193.699 198.4 195.099 200C195.899 200.9 196.699 201.8 197.399 203C198.099 202.4 198.899 201.8 199.599 201.2C203.699 197.8 207.999 194.2 211.299 190.2C212.099 189.2 212.999 188 213.899 186.8C213.999 186.6 214.099 186.5 214.299 186.3C213.899 186.4 213.799 186.3 213.699 186.2ZM229.599 207.6C226.099 200.9 223.099 195.1 217.299 187C216.799 187.6 216.399 188.2 215.899 188.8C214.999 190 214.099 191.2 213.199 192.2C209.699 196.5 205.299 200.1 201.099 203.6C199.399 205 197.599 206.5 195.899 208C195.699 208.2 195.499 208.3 195.299 208.3C195.999 209.6 196.699 211.4 197.399 213.2C198.299 215.4 199.199 217.6 199.899 218.9C200.199 219.4 200.499 220.1 200.899 221C200.599 218.4 200.199 216.5 199.999 215.7C199.699 215.4 199.599 215 199.699 214.6C199.799 213.8 200.499 213.2 201.299 213.3H201.399C213.199 214.5 223.899 215.4 234.299 216.3C232.499 213.2 230.999 210.4 229.599 207.6ZM330.999 243.8C330.099 243.6 317.099 238.3 307.299 232.8C306.899 233.5 307.399 234.5 307.899 235.3C309.899 238.8 313.099 241.6 316.699 243.5C317.399 243.9 317.699 244.8 317.299 245.5C316.899 246.2 315.999 246.5 315.299 246.1C311.099 243.9 306.999 242.6 301.099 240.5C300.099 240.2 299.099 239.8 298.199 239.9C297.399 239.9 296.799 240.2 296.699 240.4C296.699 240.5 296.799 240.8 297.099 241.1C297.299 241.3 297.599 241.5 297.999 241.8C298.899 242.1 299.699 242.5 300.599 243C305.399 245 311.099 246.7 316.499 248.3C317.299 248.5 317.699 249.4 317.499 250.2C317.299 251 316.399 251.4 315.599 251.2C310.799 249.8 301.699 247.1 296.799 244.7C295.099 244.3 293.899 245.1 293.799 245.5C293.699 245.7 293.899 246.2 294.399 246.6C295.299 247.3 296.799 247.8 298.699 248.6C304.299 250.9 307.699 252.2 314.499 253.6C315.299 253.8 315.799 254.6 315.699 255.4C315.499 256.2 314.699 256.7 313.899 256.6C308.499 255.5 303.999 254.2 295.299 250.5C295.099 250.6 294.899 250.6 294.699 250.6C293.099 250.5 292.299 252.1 292.899 252.7C293.499 253.4 294.499 253.9 295.999 254.5C296.299 254.6 296.499 254.6 296.699 254.8C297.399 255 298.899 255.5 302.199 256.5C305.199 257.4 307.299 258.1 309.199 258.4C309.899 258.5 310.499 258.6 311.099 258.6C311.899 258.6 312.599 259.3 312.499 260.2C312.499 261 311.699 261.7 310.899 261.6C310.199 261.6 309.499 261.5 308.599 261.4C306.399 261 304.099 260.3 301.099 259.4C295.799 257.7 296.499 258 294.999 257.5C294.799 257.5 294.599 257.6 294.399 257.7L294.199 257.9C293.999 258.2 293.999 258.7 294.199 259V259.1C294.699 259.6 296.299 260.8 296.799 260.9C306.899 264.3 317.099 267.1 327.599 267.3H327.699C330.799 245.1 330.799 245.5 330.999 243.8ZM313.999 308.7C313.599 308.3 312.999 308.3 312.599 308.8C310.599 311 307.999 312.6 307.399 312.8V312.7C306.899 310.4 307.599 309.8 306.799 309.3C306.499 309.1 306.099 309.1 305.799 309.2C301.599 311.1 301.299 311.4 301.099 311.3C300.899 311.3 300.799 310.5 300.699 310C300.499 309 300.299 307.6 298.899 307.1C297.899 306.8 297.799 307 289.999 309.2C289.499 309.3 289.199 309.9 289.299 310.4C289.499 310.9 289.999 311.2 290.499 311.1C297.999 309 297.999 308.9 298.199 309C298.899 309.2 298.199 312.7 300.499 313.2C301.499 313.4 301.999 313.1 305.099 311.6C305.099 312.1 305.199 312.6 305.299 313C305.599 314.6 306.799 315.2 308.499 314.3C310.499 313.1 312.399 311.7 313.899 310C314.499 309.7 314.399 309 313.999 308.7ZM348.599 326.2C348.199 325.8 347.599 325.7 347.199 326.1C339.599 332.5 330.399 337.2 320.699 339.6C320.199 339.7 319.799 340.3 319.999 340.8C320.099 341.3 320.699 341.7 321.199 341.5C331.199 339 340.599 334.2 348.499 327.6C348.899 327.3 348.999 326.7 348.599 326.2ZM375.699 400.2L376.999 405.8C377.099 406.3 377.499 406.6 377.999 406.6H378.199C378.699 406.5 379.099 405.9 378.999 405.4L377.699 399.8C377.599 399.3 376.999 398.9 376.499 399C375.899 399.1 375.499 399.7 375.699 400.2ZM268.399 371.3C296.499 376.7 325.099 375.3 349.399 369C352.699 368.2 390.399 360.6 397.799 359C393.299 354.1 386.599 351.1 379.999 350.9C379.499 350.9 379.099 350.6 378.799 350.3C378.599 350.6 378.299 350.9 377.899 351C364.299 354.1 350.099 356.7 334.999 359.4C326.599 361 317.899 361.5 309.099 361.5C297.499 361.5 274.299 360 274.199 360C274.199 359.1 274.099 358.1 273.899 357.1C274.099 357 274.299 357 274.499 357C274.299 357 274.099 357 273.899 356.9C273.299 353.4 271.899 349.9 269.899 347.6C269.499 347.2 268.899 347.1 268.499 347.5C268.099 347.9 267.999 348.5 268.399 348.9C270.099 350.9 271.399 354 271.899 357.1C270.599 365.2 271.199 362.6 268.399 371.3ZM226.199 455C226.499 455 226.699 454.9 226.899 454.7C229.399 452.3 231.699 449.6 233.699 446.8C233.999 446.4 233.899 445.7 233.499 445.4C232.999 445.1 232.399 445.2 232.099 445.6C230.099 448.3 227.899 450.9 225.499 453.3C224.899 454 225.299 455 226.199 455ZM224.099 451.5C224.399 451.5 224.699 451.4 224.899 451.1L229.199 445.8C229.499 445.4 229.499 444.7 228.999 444.4C228.599 444.1 227.899 444.1 227.599 444.6L223.299 449.9C222.799 450.5 223.299 451.5 224.099 451.5ZM217.799 421.3C218.199 421.3 218.599 421 218.799 420.6L228.199 391.5C228.899 389.3 229.799 386.5 229.099 383.8C228.799 382.5 227.999 381.2 227.899 380C227.799 378.9 228.399 377.7 228.999 376.6C231.099 372.4 233.599 368.3 236.199 364.5C240.799 357.9 241.599 356.2 241.499 348.1C241.199 337.3 244.199 327.2 249.399 319.1C249.699 318.6 249.599 318 249.099 317.7C248.599 317.4 247.999 317.5 247.699 318C242.299 326.5 239.199 336.9 239.499 348.1C239.499 350.9 239.599 353.5 238.799 356C237.299 360.7 233.399 363.6 227.199 375.7C225.499 379 225.599 380.2 226.699 382.9C226.899 383.4 227.099 383.8 227.199 384.3C227.699 386.4 226.999 388.9 226.299 390.9L216.899 420C216.699 420.6 217.099 421.3 217.799 421.3Z" fill="white"/>
</svg>
