<svg width="40" height="40" viewBox="0 0 40 40" fill="none" xmlns="http://www.w3.org/2000/svg">
<path d="M19.9998 6.6665C12.636 6.6665 6.6665 12.636 6.6665 19.9998C6.6665 27.3636 12.636 33.3332 19.9998 33.3332C27.3636 33.3332 33.3332 27.3636 33.3332 19.9998C33.3332 12.636 27.3636 6.6665 19.9998 6.6665Z" stroke="white" stroke-width="2" stroke-linecap="round" stroke-linejoin="round"/>
<path d="M9.69482 28.4608C9.69482 28.4608 12.6669 24.6665 20.0002 24.6665C27.3335 24.6665 30.3056 28.4608 30.3056 28.4608" stroke="white" stroke-width="2" stroke-linecap="round" stroke-linejoin="round"/>
<path d="M20 20C22.2091 20 24 18.2091 24 16C24 13.7909 22.2091 12 20 12C17.7909 12 16 13.7909 16 16C16 18.2091 17.7909 20 20 20Z" stroke="white" stroke-width="2" stroke-linecap="round" stroke-linejoin="round"/>
</svg>
