<svg width="652" height="454" viewBox="0 0 652 454" fill="none" xmlns="http://www.w3.org/2000/svg">
<path d="M322.467 362.177C322.467 358.604 319.565 355.701 315.991 355.701C312.418 355.701 309.497 358.604 309.497 362.177C309.497 365.751 312.418 368.653 315.991 368.653C319.565 368.653 322.467 365.751 322.467 362.177ZM73.3587 155.299C73.4377 155.391 73.5343 155.467 73.6428 155.521C73.7514 155.575 73.8697 155.607 73.9908 155.614C74.1118 155.622 74.2332 155.605 74.3476 155.565C74.4621 155.525 74.5673 155.462 74.6571 155.38C74.7469 155.299 74.8194 155.2 74.8704 155.09C74.9213 154.98 74.9497 154.861 74.9538 154.74C74.9579 154.618 74.9377 154.498 74.8943 154.384C74.8509 154.271 74.7852 154.168 74.7011 154.08L69.1139 147.916C68.9477 147.757 68.7273 147.667 68.4972 147.664C68.2671 147.66 68.0444 147.745 67.874 147.899C67.7037 148.054 67.5983 148.268 67.5793 148.497C67.5603 148.726 67.6289 148.954 67.7715 149.135L73.3587 155.299ZM112.854 175.627L113.117 172.137C113.123 171.904 113.039 171.677 112.883 171.504C112.726 171.331 112.509 171.224 112.277 171.207C112.044 171.189 111.813 171.262 111.633 171.41C111.452 171.558 111.335 171.769 111.307 172.001L111.043 175.493C110.955 176.69 112.76 176.837 112.854 175.627ZM480.107 417.669C486.402 417.669 491.009 412.626 490.393 406.422C489.776 400.218 484.189 395.193 477.876 395.193C471.581 395.193 466.974 400.218 467.59 406.422C468.207 412.626 473.812 417.669 480.107 417.669ZM478.456 401.016C481.486 401.016 484.189 403.447 484.479 406.422C484.787 409.415 482.574 411.846 479.527 411.846C476.497 411.846 473.812 409.415 473.504 406.422C473.214 403.447 475.427 401.016 478.456 401.016ZM618.309 400.751L612.691 398.061C612.583 398.006 612.466 397.973 612.345 397.964C612.224 397.956 612.103 397.971 611.988 398.01C611.874 398.049 611.768 398.11 611.678 398.191C611.587 398.271 611.514 398.369 611.461 398.478C611.409 398.587 611.379 398.706 611.374 398.827C611.368 398.947 611.387 399.068 611.428 399.182C611.47 399.296 611.534 399.4 611.617 399.488C611.7 399.576 611.799 399.648 611.909 399.697L617.526 402.387C617.743 402.491 617.992 402.505 618.219 402.425C618.446 402.345 618.632 402.178 618.736 401.961C618.84 401.744 618.853 401.494 618.773 401.268C618.693 401.041 618.526 400.855 618.309 400.751ZM550.546 278.253C551.782 277.953 552.759 277.123 553.547 276.453C553.73 276.297 553.843 276.075 553.862 275.835C553.881 275.595 553.804 275.357 553.648 275.174C553.492 274.991 553.27 274.878 553.03 274.859C552.79 274.84 552.552 274.917 552.369 275.073C551.665 275.671 550.936 276.292 550.12 276.488C549.51 276.64 548.73 276.448 548.511 275.945C548.293 275.437 548.602 274.681 548.928 273.883C550.816 269.258 551.094 264.133 549.719 259.331C549.645 259.108 549.488 258.924 549.281 258.815C549.073 258.706 548.832 258.681 548.607 258.746C548.382 258.811 548.191 258.96 548.074 259.163C547.956 259.365 547.922 259.606 547.977 259.833C549.24 264.223 548.982 268.968 547.225 273.264C546.824 274.24 546.325 275.454 546.846 276.664C547.446 278.051 549.12 278.592 550.546 278.253ZM561.305 258.739C555.945 256.626 552.854 258.748 552.725 258.841C552.53 258.978 552.397 259.187 552.356 259.421C552.315 259.656 552.369 259.897 552.505 260.092C552.641 260.289 552.85 260.425 553.085 260.469C553.321 260.513 553.564 260.463 553.762 260.328C553.862 260.263 556.253 258.703 560.643 260.424C560.754 260.468 560.872 260.489 560.991 260.487C561.11 260.485 561.227 260.459 561.336 260.411C561.446 260.364 561.544 260.295 561.627 260.21C561.709 260.124 561.774 260.023 561.818 259.912C561.861 259.801 561.882 259.683 561.88 259.564C561.878 259.445 561.852 259.328 561.805 259.219C561.757 259.109 561.688 259.011 561.603 258.928C561.517 258.846 561.416 258.783 561.305 258.739ZM556.757 262.182C556.174 262.182 555.616 262.414 555.203 262.826C554.791 263.238 554.56 263.797 554.56 264.38C554.56 264.963 554.791 265.522 555.203 265.934C555.616 266.346 556.174 266.578 556.757 266.578C557.947 266.578 558.929 265.594 558.929 264.379C558.929 263.164 557.947 262.182 556.757 262.182ZM541.271 262.182C540.688 262.182 540.129 262.414 539.717 262.826C539.305 263.238 539.073 263.797 539.073 264.38C539.073 264.963 539.305 265.522 539.717 265.934C540.129 266.346 540.688 266.578 541.271 266.578C542.459 266.578 543.442 265.594 543.442 264.379C543.442 263.164 542.459 262.182 541.271 262.182ZM553.3 280.636C550.847 282.342 548.081 281.222 547.965 281.173C547.746 281.09 547.503 281.095 547.287 281.187C547.071 281.28 546.9 281.452 546.808 281.667C546.717 281.883 546.712 282.126 546.796 282.345C546.88 282.564 547.045 282.742 547.257 282.842C549.225 283.688 552.126 283.659 554.334 282.128C554.516 281.984 554.637 281.777 554.672 281.548C554.707 281.319 554.652 281.085 554.52 280.894C554.388 280.704 554.188 280.571 553.961 280.523C553.734 280.475 553.498 280.516 553.3 280.636ZM396.634 189.399H239.604C239.364 189.399 239.133 189.495 238.963 189.665C238.793 189.835 238.697 190.066 238.697 190.306C238.697 190.547 238.793 190.778 238.963 190.948C239.133 191.118 239.364 191.213 239.604 191.213H396.634C396.875 191.213 397.106 191.118 397.276 190.948C397.446 190.778 397.541 190.547 397.541 190.306C397.541 190.066 397.446 189.835 397.276 189.665C397.106 189.495 396.875 189.399 396.634 189.399ZM396.634 212.443H239.604C239.364 212.443 239.133 212.539 238.963 212.709C238.793 212.879 238.697 213.11 238.697 213.35C238.697 213.591 238.793 213.821 238.963 213.992C239.133 214.162 239.364 214.257 239.604 214.257H396.634C396.875 214.257 397.106 214.162 397.276 213.992C397.446 213.821 397.541 213.591 397.541 213.35C397.541 213.11 397.446 212.879 397.276 212.709C397.106 212.539 396.875 212.443 396.634 212.443ZM396.634 235.487H239.604C239.364 235.487 239.133 235.582 238.963 235.753C238.793 235.923 238.697 236.153 238.697 236.394C238.697 236.634 238.793 236.865 238.963 237.035C239.133 237.205 239.364 237.301 239.604 237.301H396.634C396.875 237.301 397.106 237.205 397.276 237.035C397.446 236.865 397.541 236.634 397.541 236.394C397.541 236.153 397.446 235.923 397.276 235.753C397.106 235.582 396.875 235.487 396.634 235.487ZM396.634 258.531H239.604C239.364 258.531 239.133 258.626 238.963 258.796C238.793 258.966 238.697 259.197 238.697 259.438C238.697 259.678 238.793 259.909 238.963 260.079C239.133 260.249 239.364 260.345 239.604 260.345H396.634C396.875 260.345 397.106 260.249 397.276 260.079C397.446 259.909 397.541 259.678 397.541 259.438C397.541 259.197 397.446 258.966 397.276 258.796C397.106 258.626 396.875 258.531 396.634 258.531ZM396.634 281.574H239.604C239.364 281.574 239.133 281.67 238.963 281.84C238.793 282.01 238.697 282.241 238.697 282.481C238.697 282.722 238.793 282.952 238.963 283.123C239.133 283.293 239.364 283.388 239.604 283.388H396.634C396.875 283.388 397.106 283.293 397.276 283.123C397.446 282.952 397.541 282.722 397.541 282.481C397.541 282.241 397.446 282.01 397.276 281.84C397.106 281.67 396.875 281.574 396.634 281.574ZM239.604 89.838H308.993C309.233 89.838 309.464 89.7424 309.634 89.5723C309.804 89.4022 309.9 89.1715 309.9 88.9309C309.9 88.6904 309.804 88.4597 309.634 88.2896C309.464 88.1195 309.233 88.0239 308.993 88.0239H239.608C239.367 88.0239 239.137 88.1195 238.966 88.2896C238.796 88.4597 238.701 88.6904 238.701 88.9309C238.701 89.1715 238.796 89.4022 238.966 89.5723C239.137 89.7424 239.367 89.838 239.608 89.838H239.604ZM308.995 112.41C309.235 112.41 309.466 112.314 309.636 112.144C309.806 111.974 309.902 111.744 309.902 111.503C309.902 111.262 309.806 111.032 309.636 110.862C309.466 110.692 309.235 110.596 308.995 110.596H239.604C239.364 110.596 239.133 110.692 238.963 110.862C238.793 111.032 238.697 111.262 238.697 111.503C238.697 111.744 238.793 111.974 238.963 112.144C239.133 112.314 239.364 112.41 239.604 112.41H308.993H308.995ZM308.995 134.98C309.235 134.98 309.466 134.885 309.636 134.715C309.806 134.544 309.902 134.314 309.902 134.073C309.902 133.833 309.806 133.602 309.636 133.432C309.466 133.262 309.235 133.166 308.995 133.166H282.39C282.149 133.166 281.919 133.262 281.749 133.432C281.579 133.602 281.483 133.833 281.483 134.073C281.483 134.314 281.579 134.544 281.749 134.715C281.919 134.885 282.149 134.98 282.39 134.98H308.993H308.995ZM365.683 96.7259L357.15 114.166H374.216L365.683 96.7259Z" fill="white"/>
<path d="M331.099 151.965H400.269C400.758 151.965 401.176 151.566 401.176 151.058V77.336C401.176 76.8462 400.758 76.429 400.269 76.429H331.099C330.61 76.429 330.192 76.8462 330.192 77.336V151.058C330.192 151.566 330.61 151.965 331.099 151.965ZM346.415 127.85L364.051 91.8011C364.661 90.5585 366.7 90.5585 367.311 91.8011L384.953 127.85C385.164 128.282 385.196 128.781 385.04 129.236C384.884 129.691 384.553 130.066 384.121 130.278C383.689 130.489 383.19 130.521 382.735 130.365C382.279 130.209 381.905 129.878 381.693 129.446L375.991 117.794H355.375L349.675 129.444C349.453 129.857 349.079 130.168 348.632 130.312C348.185 130.455 347.7 130.42 347.279 130.214C346.857 130.008 346.532 129.647 346.371 129.206C346.21 128.765 346.226 128.279 346.415 127.85ZM518.66 135.111C518.419 135.111 518.189 135.207 518.018 135.377C517.848 135.547 517.753 135.778 517.753 136.018V197.383C517.753 197.624 517.848 197.855 518.018 198.025C518.189 198.195 518.419 198.29 518.66 198.29H547.82L558.445 213.097C558.69 213.438 559.173 213.603 559.624 213.351C564.435 213.238 564.733 213.605 565.181 213.02L575.753 198.29C615.627 198.227 613.853 198.552 613.853 197.383V136.02C613.854 135.917 613.835 135.814 613.796 135.719C613.757 135.623 613.699 135.536 613.626 135.463C613.553 135.39 613.466 135.332 613.371 135.293C613.275 135.254 613.173 135.234 613.069 135.235L518.66 135.111ZM606.807 196.476H570.079C569.935 196.476 569.793 196.511 569.665 196.576C569.537 196.642 569.426 196.737 569.342 196.854L559.184 211.01L549.023 196.854C548.939 196.737 548.828 196.641 548.7 196.576C548.571 196.51 548.429 196.476 548.285 196.476H519.567V136.925H606.809V196.476H606.807ZM64.614 73.8712H120.985L131.61 88.6773C131.739 88.8595 131.932 88.9866 132.15 89.0336C132.368 89.0807 132.596 89.0441 132.789 88.9313H137.702C137.827 88.9297 137.95 88.8992 138.062 88.8423C138.174 88.7854 138.271 88.7035 138.346 88.603L148.918 73.8712L159.022 73.7496C159.463 73.7496 159.809 73.405 159.809 72.9642V22.485C159.81 22.3816 159.79 22.279 159.751 22.1833C159.712 22.0875 159.654 22.0006 159.581 21.9274C159.508 21.8543 159.421 21.7965 159.325 21.7573C159.23 21.7182 159.127 21.6986 159.024 21.6995L64.614 21.5762C64.3735 21.5762 64.1428 21.6717 63.9727 21.8418C63.8026 22.0119 63.707 22.2426 63.707 22.4832V72.966C63.707 73.2065 63.8026 73.4372 63.9727 73.6073C64.1428 73.7774 64.3735 73.8712 64.614 73.8712ZM65.5211 23.3902H152.762V72.059H143.245C143.101 72.0589 142.959 72.0931 142.831 72.1587C142.703 72.2243 142.593 72.3195 142.509 72.4363L132.35 86.593L122.19 72.4363C122.106 72.3195 121.995 72.2243 121.867 72.1587C121.739 72.0931 121.597 72.0589 121.453 72.059H65.5211V23.3884V23.3902Z" fill="white"/>
<path d="M87.1756 39.2478C85.354 39.2492 83.6075 39.9735 82.3195 41.2615C81.0315 42.5495 80.3072 44.296 80.3058 46.1175C80.3053 47.0197 80.4827 47.9132 80.8278 48.7468C81.1729 49.5804 81.6789 50.3378 82.317 50.9756C82.955 51.6135 83.7125 52.1193 84.5462 52.4642C85.3799 52.809 86.2734 52.9862 87.1756 52.9855C88.0776 52.986 88.9709 52.8086 89.8044 52.4637C90.6378 52.1187 91.3951 51.6128 92.033 50.975C92.6708 50.3371 93.1767 49.5798 93.5217 48.7464C93.8667 47.9129 94.044 47.0196 94.0435 46.1175C94.042 44.2963 93.3181 42.5501 92.0304 41.2621C90.7428 39.9742 88.9968 39.2497 87.1756 39.2478ZM109.144 39.2478C107.322 39.2497 105.576 39.9742 104.289 41.2621C103.001 42.5501 102.277 44.2963 102.276 46.1175C102.275 47.0196 102.452 47.9129 102.797 48.7464C103.142 49.5798 103.648 50.3371 104.286 50.975C104.924 51.6128 105.681 52.1187 106.515 52.4637C107.348 52.8086 108.241 52.986 109.144 52.9855C110.046 52.986 110.939 52.8086 111.772 52.4637C112.606 52.1187 113.363 51.6128 114.001 50.975C114.639 50.3371 115.145 49.5798 115.49 48.7464C115.835 47.9129 116.012 47.0196 116.011 46.1175C116.01 44.2963 115.286 42.5501 113.998 41.2621C112.711 39.9742 110.965 39.2497 109.144 39.2478ZM131.111 52.9855C132.014 52.986 132.907 52.8086 133.74 52.4637C134.574 52.1187 135.331 51.6128 135.969 50.975C136.607 50.3371 137.113 49.5798 137.458 48.7464C137.803 47.9129 137.98 47.0196 137.979 46.1175C137.978 44.2963 137.254 42.5501 135.966 41.2621C134.679 39.9742 132.933 39.2497 131.111 39.2478C129.29 39.2497 127.544 39.9742 126.257 41.2621C124.969 42.5501 124.245 44.2963 124.244 46.1175C124.243 47.0196 124.42 47.9129 124.765 48.7464C125.11 49.5798 125.616 50.3371 126.254 50.975C126.892 51.6128 127.649 52.1187 128.483 52.4637C129.316 52.8086 130.209 52.986 131.111 52.9855ZM544.131 153.354H580.152C580.393 153.354 580.624 153.259 580.794 153.089C580.964 152.918 581.059 152.688 581.059 152.447C581.059 152.207 580.964 151.976 580.794 151.806C580.624 151.636 580.393 151.54 580.152 151.54H544.129C543.889 151.54 543.658 151.636 543.488 151.806C543.318 151.976 543.222 152.207 543.222 152.447C543.222 152.688 543.318 152.918 543.488 153.089C543.658 153.259 543.889 153.354 544.129 153.354H544.131ZM532.01 161.521H592.272C592.512 161.521 592.743 161.425 592.913 161.255C593.083 161.085 593.179 160.855 593.179 160.614C593.179 160.373 593.083 160.143 592.913 159.973C592.743 159.803 592.512 159.707 592.272 159.707H532.01C531.769 159.707 531.538 159.803 531.368 159.973C531.198 160.143 531.103 160.373 531.103 160.614C531.103 160.855 531.198 161.085 531.368 161.255C531.538 161.425 531.769 161.521 532.01 161.521ZM532.01 170.223H592.272C592.512 170.223 592.743 170.127 592.913 169.957C593.083 169.787 593.179 169.556 593.179 169.316C593.179 169.075 593.083 168.845 592.913 168.675C592.743 168.504 592.512 168.409 592.272 168.409H532.01C531.769 168.409 531.538 168.504 531.368 168.675C531.198 168.845 531.103 169.075 531.103 169.316C531.103 169.556 531.198 169.787 531.368 169.957C531.538 170.127 531.769 170.223 532.01 170.223ZM532.01 178.923H592.272C592.512 178.923 592.743 178.827 592.913 178.657C593.083 178.487 593.179 178.257 593.179 178.016C593.179 177.775 593.083 177.545 592.913 177.375C592.743 177.205 592.512 177.109 592.272 177.109H532.01C531.769 177.109 531.538 177.205 531.368 177.375C531.198 177.545 531.103 177.775 531.103 178.016C531.103 178.257 531.198 178.487 531.368 178.657C531.538 178.827 531.769 178.923 532.01 178.923ZM430.636 383.156C430.612 383.039 430.564 382.927 430.496 382.828C430.429 382.73 430.342 382.645 430.242 382.58C430.141 382.514 430.029 382.47 429.911 382.448C429.793 382.427 429.672 382.429 429.555 382.454C429.437 382.48 429.327 382.528 429.228 382.597C429.13 382.666 429.046 382.753 428.982 382.854C428.918 382.956 428.874 383.068 428.854 383.187C428.834 383.305 428.837 383.426 428.864 383.543L440.697 437.953C440.951 439.123 442.723 438.742 442.467 437.566L430.636 383.156ZM519.732 75.4432C536.597 75.4432 550.272 61.7836 550.272 44.9058C550.272 28.0425 536.597 14.3828 519.734 14.3828C502.871 14.3828 489.197 28.0425 489.197 44.9058C489.197 61.7836 502.869 75.4432 519.732 75.4432ZM522.531 55.6612C522.165 56.0298 521.729 56.3223 521.248 56.522C520.768 56.7216 520.253 56.8243 519.733 56.8243C519.213 56.8243 518.698 56.7216 518.218 56.522C517.738 56.3223 517.302 56.0298 516.935 55.6612C516.196 54.9178 515.781 53.9122 515.781 52.8639C515.781 51.8157 516.196 50.8101 516.935 50.0667C517.678 49.3271 518.684 48.9118 519.733 48.9118C520.782 48.9118 521.788 49.3271 522.531 50.0667C523.27 50.8101 523.685 51.8157 523.685 52.8639C523.685 53.9122 523.27 54.9178 522.531 55.6612ZM528.476 47.3257C528.306 47.4957 528.075 47.5913 527.835 47.5913C527.594 47.5913 527.363 47.4957 527.193 47.3257C526.214 46.3454 525.051 45.5677 523.771 45.0371C522.491 44.5065 521.119 44.2333 519.733 44.2333C518.347 44.2333 516.975 44.5065 515.695 45.0371C514.415 45.5677 513.252 46.3454 512.273 47.3257C512.189 47.4123 512.089 47.4814 511.979 47.529C511.868 47.5765 511.749 47.6015 511.628 47.6026C511.508 47.6036 511.389 47.5807 511.277 47.535C511.166 47.4894 511.064 47.4221 510.979 47.3369C510.894 47.2518 510.827 47.1505 510.781 47.039C510.735 46.9276 510.712 46.8081 510.714 46.6877C510.715 46.5673 510.74 46.4482 510.787 46.3376C510.835 46.2269 510.904 46.1268 510.99 46.0432C512.138 44.8942 513.501 43.9828 515.001 43.3609C516.501 42.739 518.109 42.4189 519.733 42.4189C521.357 42.4189 522.965 42.739 524.465 43.3609C525.965 43.9828 527.328 44.8942 528.476 46.0432C528.646 46.2133 528.741 46.4439 528.741 46.6844C528.741 46.9249 528.646 47.1556 528.476 47.3257ZM531.26 43.2604C524.893 36.8932 514.575 36.8841 508.208 43.2604C508.124 43.3471 508.024 43.4162 507.913 43.4637C507.803 43.5112 507.684 43.5363 507.563 43.5373C507.443 43.5383 507.323 43.5154 507.212 43.4698C507.1 43.4242 506.999 43.3568 506.914 43.2717C506.829 43.1865 506.761 43.0852 506.716 42.9738C506.67 42.8623 506.647 42.7429 506.648 42.6224C506.649 42.502 506.674 42.383 506.722 42.2723C506.769 42.1617 506.839 42.0616 506.925 41.9779C513.998 34.8977 525.465 34.8977 532.543 41.9779C533.392 42.8251 532.108 44.1076 531.26 43.2604ZM502.858 37.909C512.179 28.5849 527.28 28.5813 536.61 37.9108C537.459 38.7598 536.175 40.0423 535.328 39.1934C526.713 30.5803 512.759 30.5713 504.142 39.1934C504.058 39.2777 503.958 39.3446 503.848 39.3902C503.738 39.4359 503.62 39.4594 503.5 39.4594C503.381 39.4594 503.263 39.4359 503.153 39.3902C503.043 39.3446 502.942 39.2777 502.858 39.1934C502.774 39.109 502.707 39.0089 502.661 38.8987C502.616 38.7886 502.592 38.6705 502.592 38.5512C502.592 38.4319 502.616 38.3138 502.661 38.2037C502.707 38.0935 502.774 37.9934 502.858 37.909ZM59.2213 213.299L61.126 212.091C61.2265 212.027 61.3135 211.944 61.382 211.847C61.4505 211.75 61.4992 211.64 61.5252 211.524C61.5512 211.407 61.5541 211.287 61.5337 211.17C61.5133 211.053 61.47 210.941 61.4063 210.84C61.3426 210.74 61.2597 210.653 61.1623 210.584C61.065 210.516 60.9551 210.467 60.8389 210.441C60.7228 210.415 60.6027 210.412 60.4854 210.432C60.3681 210.453 60.256 210.496 60.1555 210.56L58.2508 211.768C58.1502 211.832 58.0633 211.915 57.9948 212.012C57.9264 212.11 57.8778 212.22 57.8519 212.336C57.8259 212.452 57.8231 212.572 57.8436 212.69C57.8641 212.807 57.9076 212.919 57.9714 213.02C58.0352 213.12 58.1183 213.207 58.2157 213.276C58.3132 213.344 58.4232 213.393 58.5394 213.419C58.6556 213.445 58.7758 213.447 58.8931 213.427C59.0104 213.406 59.1207 213.363 59.2213 213.299Z" fill="white"/>
<path d="M650.335 371.411C648.046 352.255 642.439 330.432 634.394 318.06C634.007 317.375 633.567 316.721 633.078 316.105C633.053 316.076 633.02 316.063 632.993 316.037C631.437 313.933 629.797 312.174 628.077 310.858C615.633 301.335 594.499 298.831 580.767 298.269L579.697 282.452C598.262 277.857 599.463 234.195 587.045 228.195C579.256 224.429 576.66 232.719 560.709 228.692C544.758 224.664 523.609 237.334 530.221 247.891C531.004 249.143 532.087 250.081 533.372 250.779C532.806 254.747 533.022 259.545 536.287 262.589C536.668 271.514 538.464 281.763 544.051 287.078C547.055 289.921 550.883 291.082 555.421 290.53C555.51 291.548 556.194 298.579 556.314 299.595C546.01 301.445 530.718 305.853 519.688 316.339C513.865 321.871 510.02 338.96 507.48 359.821H483.39V171.994C483.39 171.413 482.9 170.924 482.337 170.924L456.741 171.087V78.8179C456.741 67.2117 446.958 57.5011 434.786 58.3338C434.441 58.2068 443.66 58.2975 235.066 58.2721C223.725 58.2721 214.513 67.4457 214.513 78.807V153.237L192.563 171.087H166.804C166.296 171.087 165.897 171.486 165.897 171.994V192.783L132.301 220.102C129.887 214.787 118.032 219.039 112.65 221.191L113.091 219.032C113.199 218.56 112.909 218.089 112.438 217.962L107.431 216.637C107.812 210.143 108.102 205.082 108.211 202.851C111.73 204.193 122.088 207.767 127.004 205.481C140.301 199.295 155.122 152.003 155.739 149.99C155.866 149.554 155.666 149.083 155.249 148.901L153.816 148.266C158.097 144.929 163.339 139.595 162.904 133.627C162.813 132.23 162.487 131.106 161.435 129.908C161.017 128.802 160.274 127.695 159.294 126.679C164.453 123.436 172.834 120.205 173.353 116.394C173.614 114.464 171.849 112.113 167.185 112.367C159.149 112.711 145.036 119.55 142.006 123.051C137.87 128.004 134.133 136.276 132.991 138.942L132.047 138.525C131.835 138.425 131.593 138.412 131.372 138.49C131.151 138.569 130.97 138.731 130.868 138.942L117.154 166.77C104.909 148.901 92.5557 145.817 91.9752 145.69L85.2815 144.439C85.3123 143.291 85.3812 140.023 85.4048 138.616C86.4043 138.688 87.9499 138.779 89.9798 138.888C96.757 139.401 93.2505 125.023 91.3657 118.504C96.2237 113.201 97.1416 102.511 95.0301 98.5909C93.9453 96.57 92.4215 96.5537 91.5943 96.7369C89.7041 97.1215 88.3617 98.4058 87.0773 99.6394C84.6901 101.916 82.2284 104.265 75.4693 102.117C70.2358 100.447 66.3429 100.612 63.8813 102.633C61.5666 104.543 61.2727 107.518 61.2908 108.931C58.9779 109.666 57.5267 111.024 56.9571 112.973C54.646 120.8 68.3728 135.829 70.2104 137.801L70.6785 141.772C60.0482 140.43 49.6719 143.405 41.926 150.044C38.2979 153.146 35.4318 156.865 33.4 161.11C30.8241 166.423 20.7471 210.867 29.8082 228.701C30.4613 240.038 31.3502 250.397 32.0214 257.635C32.0577 258.07 32.4277 258.413 32.874 258.44L27.4845 347.912L35.2939 355.763C35.3802 355.847 35.449 355.947 35.4962 356.058C35.5434 356.169 35.5681 356.288 35.5688 356.408C35.5695 356.529 35.5462 356.648 35.5003 356.759C35.4543 356.871 35.3867 356.972 35.3013 357.057C35.2159 357.142 35.1145 357.209 35.0029 357.254C34.8913 357.299 34.7719 357.322 34.6514 357.32C34.531 357.319 34.4121 357.294 34.3016 357.246C34.1911 357.198 34.0912 357.129 34.0077 357.042L27.3375 350.337L22.534 430.075H26.8804L27.2541 432.996L26.9457 449.921C26.93 450.7 27.1528 451.466 27.5842 452.115H16.2737C16.0332 452.115 15.8025 452.211 15.6324 452.381C15.4623 452.551 15.3667 452.782 15.3667 453.022C15.3667 454.815 -9.77582 453.509 633.046 453.93C633.286 453.93 633.517 453.834 633.687 453.664C633.857 453.494 633.953 453.263 633.953 453.022C633.953 452.782 633.857 452.551 633.687 452.381C633.517 452.211 633.286 452.115 633.046 452.115H628.913C630.219 444.624 630.882 436.333 630.726 429.059C636.857 426.157 641.773 422.347 645.836 417.34C647.54 415.236 648.875 412.105 649.826 408.125L649.829 408.116C652.429 397.413 651.64 382.333 650.337 371.409L650.335 371.411ZM557.937 296.743C564.88 293.21 569.656 284.326 569.867 283.954C569.991 283.709 570.027 283.429 569.971 283.161C569.915 282.892 569.768 282.65 569.556 282.476C569.344 282.303 569.079 282.208 568.805 282.208C568.532 282.208 568.266 282.303 568.054 282.476C561.121 288.012 551.619 291.786 545.303 285.752C540.423 281.126 538.681 272.111 538.21 263.857C538.143 262.709 538.098 261.56 538.076 260.41C538.143 260.386 538.213 260.37 538.275 260.328C538.375 260.263 540.768 258.703 545.156 260.425C545.266 260.468 545.385 260.489 545.504 260.487C545.623 260.485 545.74 260.459 545.849 260.412C545.958 260.364 546.057 260.295 546.139 260.21C546.222 260.124 546.287 260.023 546.33 259.912C546.374 259.801 546.395 259.683 546.393 259.564C546.391 259.445 546.365 259.328 546.317 259.219C546.27 259.11 546.201 259.011 546.115 258.928C546.03 258.846 545.929 258.781 545.818 258.738C541.963 257.219 539.305 257.889 538.054 258.42C538.052 256.361 538.106 254.303 538.217 252.247C548.677 253.629 564.094 247.362 564.094 247.362C557.888 251.868 567.136 256.39 567.136 256.39C567.136 256.39 566.189 267.011 567.88 267.311C569.393 267.583 570.906 254.44 575.84 257.537C578.924 259.472 577.768 282.784 577.768 282.784C577.812 282.781 577.854 282.768 577.899 282.763L579.007 298.995L565.094 313.997L558.201 300.627L557.937 296.743ZM537.502 361.633L558.146 451.228H431.508L417.286 389.388L417.268 389.334L416.869 387.574L410.883 361.633H537.502ZM29.0427 434.416L39.2793 437.527C39.2866 437.531 39.2938 437.527 39.3029 437.529C39.3809 437.552 39.4625 437.565 39.5424 437.565C39.7365 437.532 39.8562 437.542 40.0503 437.413L46.2797 433.219C61.4015 442.218 60.567 441.848 60.9552 441.89C65.2001 442.842 71.054 441.28 73.7224 446.739H28.8178L29.0427 434.416ZM68.0463 440.809L61.3434 440.107L47.1395 431.617L47.0779 430.077H53.3363L68.8862 338.784L68.8717 338.782C67.6599 338.557 68.5216 338.753 74.7854 303.513C74.7998 303.431 74.8305 303.352 74.8757 303.282C74.9209 303.212 74.9797 303.151 75.0487 303.104C75.1177 303.057 75.1955 303.024 75.2773 303.007C75.3592 302.991 75.4436 302.991 75.5256 303.007C75.691 303.038 75.8375 303.133 75.9328 303.272C76.028 303.411 76.0642 303.582 76.0335 303.747C69.122 339.81 69.9728 338.644 69.0658 338.765L80.1677 430.077H85.9037L86.2755 432.997C86.1848 450.18 85.4483 450.374 86.6057 452.117H75.6725C76.077 451.506 76.3165 450.777 76.3165 449.991C76.3165 445.249 72.761 441.302 68.0463 440.809ZM107.304 247.367L107.561 246.097C108.704 246.692 110.981 247.842 113.78 249.109L99.6976 260.559C96.2328 256.254 93.9761 253.473 94.0251 253.535L101.463 247.494C102.344 247.61 106.157 248.075 106.306 248.075C106.917 248.075 107.213 247.784 107.304 247.367ZM133.625 249.798L134.913 248.746C136.858 248.446 139.249 247.44 138.687 245.68C291.379 121.444 245.392 158.862 256.942 149.467L262.565 156.433C158.81 240.799 297.202 128.258 113.508 277.643L107.908 270.721L128.365 254.079C134.026 254.95 135.521 251.692 133.625 249.798ZM138.922 238.623C143.922 237.045 142.663 233.55 138.161 231.603C135.73 233.584 200.513 180.865 249.867 140.705L255.799 148.052C179.555 210.092 194.445 197.995 141.553 241.018C141.462 239.772 140.065 239.059 138.922 238.623ZM263.715 128.071C264.443 132.145 267.071 135.537 271.066 137.177L263.601 154.828L244.889 131.652L263.715 128.071ZM214.513 307.932H193.567C193.326 307.932 193.095 308.028 192.925 308.198C192.755 308.368 192.66 308.599 192.66 308.839C192.66 309.08 192.755 309.311 192.925 309.481C193.095 309.651 193.326 309.746 193.567 309.746H215.4C215.408 309.748 215.413 309.752 215.42 309.752L436.188 309.748C436.429 309.748 436.66 309.653 436.83 309.483C437 309.312 437.095 309.082 437.095 308.841C437.095 308.601 437 308.37 436.83 308.2C436.66 308.03 436.429 307.934 436.188 307.934H417.449V172.901H464.106V335.021H167.711V235.902L214.513 197.844V307.932ZM307.682 362.179C307.682 357.608 311.419 353.889 315.99 353.889C320.562 353.889 324.281 357.608 324.281 362.179C324.281 366.751 320.562 370.469 315.99 370.469C311.419 370.469 307.682 366.751 307.682 362.179ZM375.202 389.392L391.097 426.184H301.447L285.553 389.392H375.202ZM87.841 446.648L88.0642 434.416L98.3244 437.529C98.4024 437.552 98.484 437.565 98.5638 437.565C98.582 437.565 98.5965 437.552 98.6128 437.551C99.0536 437.525 105.12 433.346 105.303 433.219C120.425 442.218 119.59 441.848 119.979 441.89C124.174 442.82 129.997 441.309 132.7 446.648H87.841ZM104.347 431.669L98.4151 435.664L88.0424 432.508L87.734 430.077H104.283L104.347 431.669ZM105.161 349.358L100.953 353.588C100.87 353.678 100.77 353.751 100.659 353.801C100.548 353.852 100.427 353.879 100.305 353.882C100.183 353.885 100.061 353.863 99.9476 353.817C99.8341 353.772 99.7309 353.704 99.6443 353.618C99.5576 353.532 99.4893 353.429 99.4435 353.315C99.3976 353.202 99.3751 353.081 99.3774 352.958C99.3797 352.836 99.4066 352.715 99.4567 352.604C99.5067 352.492 99.5788 352.392 99.6686 352.309L103.877 348.079C103.96 347.989 104.06 347.916 104.171 347.866C104.282 347.815 104.403 347.788 104.525 347.785C104.647 347.782 104.769 347.804 104.882 347.849C104.996 347.895 105.099 347.963 105.186 348.049C105.272 348.135 105.341 348.238 105.387 348.351C105.432 348.465 105.455 348.586 105.453 348.708C105.45 348.831 105.423 348.951 105.373 349.063C105.323 349.174 105.251 349.275 105.161 349.358ZM95.9117 291.956C94.8267 292.829 93.4394 293.236 92.0549 293.086C90.6703 292.936 89.4019 292.243 88.5286 291.158C75.1537 274.54 75.5165 275.191 75.0702 274.326C74.5214 273.252 74.3588 272.022 74.6099 270.843C74.861 269.663 75.5103 268.606 76.4489 267.849L87.7685 258.707C107.387 283.214 65.1366 230.68 107.204 282.779L95.9117 291.958V291.956ZM106.771 269.315L100.839 261.97L115.648 249.925C118.986 251.376 122.778 252.846 126.043 253.626L106.771 269.315ZM67.9139 284.058C69.1332 284.056 70.3022 283.571 71.1646 282.709C72.027 281.847 72.5123 280.679 72.5143 279.459V266.48C72.5143 266.311 72.5812 266.15 72.7002 266.031C72.8193 265.912 72.9808 265.845 73.1492 265.845C73.3176 265.845 73.4791 265.912 73.5981 266.031C73.7172 266.15 73.7841 266.311 73.7841 266.48V268.196C73.0863 269.312 72.7162 270.601 72.7162 271.917C72.7162 273.233 73.0863 274.523 73.7841 275.639V279.459C73.7822 281.015 73.1632 282.506 72.063 283.606C70.9629 284.706 69.4713 285.324 67.9157 285.326C67.7473 285.326 67.5858 285.259 67.4667 285.14C67.3477 285.021 67.2808 284.859 67.2808 284.691C67.2808 284.523 67.3477 284.361 67.4667 284.242C67.5858 284.123 67.7473 284.056 67.9157 284.056L67.9139 284.058ZM135.338 449.991C135.338 445.249 131.782 441.302 127.068 440.809L120.367 440.107L106.161 431.617L106.099 430.077H111.911L107.594 337.124L100.425 344.329C100.341 344.414 100.241 344.481 100.131 344.527C100.021 344.573 99.9034 344.597 99.7842 344.597C99.6651 344.598 99.547 344.575 99.4367 344.529C99.3264 344.484 99.2262 344.418 99.1416 344.334C99.057 344.25 98.9898 344.15 98.9438 344.04C98.8978 343.93 98.8739 343.812 98.8735 343.693C98.8731 343.574 98.8962 343.456 98.9414 343.345C98.9866 343.235 99.0531 343.135 99.1371 343.05L107.482 334.668L105.374 289.299C104.307 289.436 103.095 289.705 101.717 289.6L103.331 288.275C103.734 288.275 104.891 288.036 105.316 288.036L105.254 286.732C181.552 224.585 122.264 272.885 165.897 237.372V388.481C165.897 388.971 166.296 389.388 166.804 389.388H283.575L299.47 426.184H274.765C274.311 426.184 273.927 426.456 273.745 426.841L262.057 451.393C261.965 451.624 261.947 451.878 262.007 452.119H134.694C135.098 451.506 135.338 450.777 135.338 449.991ZM394.484 389.39H415.418L429.861 452.119H421.353C421.524 451.521 423.146 455.968 394.484 389.39ZM454.927 78.8197V171.087H417.449V78.807C417.449 68.4815 425.85 60.0789 436.188 60.0789C446.521 60.0789 454.927 68.4869 454.927 78.8197ZM216.327 78.807C216.327 68.594 224.565 60.0861 235.066 60.0861H427.735C420.519 63.3478 415.632 70.6438 415.632 78.8197L415.635 307.932H216.327V196.375C265.693 156.166 264.524 157.306 264.684 156.928L277.546 126.522C277.675 126.213 277.718 125.876 277.671 125.545C277.624 125.214 277.488 124.902 277.278 124.642C277.068 124.382 276.791 124.184 276.477 124.069C276.163 123.953 275.824 123.925 275.496 123.987L243.061 130.153C242.907 130.204 242.762 130.279 242.631 130.375L216.327 151.769V78.807ZM167.711 172.901H190.332L167.711 191.295V172.901ZM243.099 132.325L248.722 139.291C202.954 176.542 181.843 193.728 136.183 230.878C133.335 229.952 129.78 229.354 126.224 228.973C128.92 227.634 132.211 225.154 132.61 222.17L243.099 132.325ZM122.088 228.664C121.886 228.726 121.711 228.855 121.592 229.03C121.473 229.205 121.418 229.415 121.435 229.626C121.544 230.455 122.233 230.379 122.415 230.46H122.505C135.596 231.453 141.571 234.578 140.12 236.029C139.249 236.864 136.546 237.553 134.224 237.209C133.114 237.04 132.758 238.678 133.843 238.968C135.679 239.512 139.303 240.329 139.757 241.326C139.43 242.433 135.476 242.959 131.848 241.979C130.687 241.713 130.248 243.329 131.285 243.703C132.437 244.187 136.735 245.604 136.963 246.061C136.093 247.549 129.865 247.166 127.911 246.714C126.943 246.371 125.919 245.892 125.571 246.859C125.205 247.839 126.19 248.116 127.186 248.383C128.347 248.782 129.635 249.326 130.65 249.889C132.729 250.957 132.403 251.376 132.573 251.558C131.158 255.452 112.082 246.377 108.374 244.483C109.981 235.648 112.247 223.144 112.214 223.328C136.025 213.477 134.395 225.04 122.088 228.664ZM151.911 147.414L145.105 144.366C149.894 141.52 150.975 137.721 151.203 135.858C152.637 135.82 158.318 138.311 161.072 133.555C161.072 133.627 161.09 133.682 161.09 133.754C161.489 139.232 156.011 144.366 151.911 147.414ZM167.258 114.163C169.09 114.09 170.378 114.38 171.049 115.033C173.879 117.763 163.254 121.937 157.934 125.391C154.65 122.765 150.427 121.586 145.943 122.217C150.913 118.97 161.054 114.435 167.258 114.163ZM143.095 124.593C143.24 124.648 143.385 124.63 143.53 124.593C153.032 121.68 160.796 128.793 159.856 131.849C158.414 136.582 152.181 133.887 150.496 133.917C150.361 133.892 150.221 133.898 150.089 133.936C149.957 133.973 149.835 134.042 149.734 134.135C149.635 134.227 149.557 134.339 149.507 134.465C149.457 134.591 149.435 134.726 149.444 134.861C149.444 134.915 149.687 140.161 143.009 143.427L134.659 139.686C135.73 137.165 139.285 129.346 143.095 124.593ZM71.9936 137.33C71.9973 137.143 71.3424 127.088 73.7623 126.233C73.9187 126.168 74.0882 126.14 74.2572 126.153C74.4261 126.166 74.5897 126.218 74.7346 126.306C75.4875 126.712 76.0861 127.888 76.663 128.989C77.6915 130.95 78.7219 130.839 78.4081 128.401C78.1958 126.743 77.7514 124.871 79.4366 124.452C81.5228 123.86 82.3391 121.992 79.5455 119.2H89.675C90.8542 123.354 94.3915 137.074 90.0887 137.074C86.4551 136.874 85.1744 136.784 84.7082 136.727C84.5268 136.666 83.2661 136.17 82.633 134.645C82.5469 134.443 82.3933 134.278 82.1987 134.177C82.0041 134.077 81.7805 134.047 81.5663 134.093C81.3556 134.146 81.1695 134.27 81.0393 134.445C80.9092 134.619 80.8429 134.832 80.8516 135.049C80.8697 135.24 81.1763 139.276 83.5073 141.701L83.4493 145.039L80.6194 153.511L72.5832 142.518L71.9936 137.33ZM29.4817 222.807C26.9421 213.225 27.9616 198.882 29.2804 189.011C30.4794 180.21 39.3319 170.376 39.4244 170.276C39.5738 170.096 39.648 169.866 39.6317 169.632C39.6154 169.399 39.5099 169.181 39.3371 169.024C39.1642 168.866 38.9373 168.782 38.7036 168.787C38.4699 168.793 38.2473 168.888 38.0821 169.053C37.8245 169.336 33.8227 173.788 30.7715 179.473C32.5601 169.494 33.039 169.209 32.8939 168.692C33.4744 165.971 34.1819 163.668 35.0345 161.89C36.9574 157.881 39.6784 154.362 43.1069 151.423C50.6533 144.965 60.8119 142.171 71.1864 143.695L80.184 155.994C80.6085 156.547 81.5355 156.477 81.7804 155.74L84.9731 146.217C87.8755 146.88 101.601 146.646 116.291 168.745L115.832 175.972C115.755 177.164 117.566 177.293 117.642 176.085L118.092 168.988L118.097 168.984L132.102 140.54C132.31 140.631 153.961 150.318 153.761 150.227C153.38 151.419 152.557 153.933 151.403 157.244L134.95 150.216C134.728 150.122 134.479 150.119 134.255 150.209C134.032 150.298 133.853 150.473 133.759 150.694C133.664 150.916 133.662 151.166 133.751 151.389C133.841 151.612 134.016 151.791 134.237 151.885L150.799 158.96C147.775 167.486 142.919 180.117 137.576 189.908C137.624 184.493 134.966 179.967 134.819 179.718C134.758 179.616 134.677 179.527 134.582 179.456C134.486 179.385 134.377 179.334 134.262 179.305C134.146 179.276 134.026 179.27 133.909 179.288C133.791 179.305 133.678 179.346 133.576 179.407C133.474 179.468 133.384 179.549 133.314 179.645C133.243 179.74 133.191 179.849 133.162 179.964C133.134 180.08 133.128 180.2 133.145 180.318C133.163 180.435 133.203 180.548 133.264 180.651C133.306 180.723 137.538 187.907 134.89 194.495C132.009 199.059 129.054 202.519 126.224 203.83C121.992 205.802 111.507 202.276 107.757 200.726L107.748 200.717L98.747 196.763C98.526 196.668 98.2764 196.663 98.0523 196.751C97.8281 196.838 97.6476 197.011 97.5498 197.231C97.4536 197.451 97.4489 197.701 97.5366 197.925C97.6243 198.149 97.7974 198.33 98.0178 198.426L106.431 202.123C106.335 203.876 106.052 209.151 105.635 216.184L62.6241 204.882L64.0935 194.887C64.1275 194.649 64.0666 194.408 63.9241 194.214C63.7816 194.021 63.5688 193.891 63.3316 193.853C63.0939 193.82 62.8528 193.881 62.6596 194.024C62.4664 194.166 62.3365 194.378 62.2976 194.615L60.7738 205.067L55.5948 209.232C55.4071 209.383 55.2871 209.602 55.2611 209.842C55.235 210.081 55.3052 210.321 55.456 210.509C55.6068 210.696 55.826 210.816 56.0653 210.842C56.3047 210.868 56.5445 210.798 56.7322 210.647L61.8115 206.559L98.2681 216.129L94.6128 236.668C94.4006 237.853 96.1892 238.163 96.3979 236.987L100.028 216.592C100.659 216.755 111.648 219.634 111.15 219.504C105.29 248.078 107.126 239.17 105.689 246.188C105.254 246.188 81.4883 243.295 62.5171 239.881C52.1281 237.417 50.1454 228.095 50.0601 227.667C50.0066 227.439 49.8668 227.24 49.67 227.113C49.4732 226.985 49.2348 226.939 49.0047 226.984C48.7745 227.028 48.5706 227.16 48.4356 227.352C48.3006 227.543 48.2451 227.78 48.2806 228.011C48.2987 228.102 49.5976 234.306 55.2573 238.507C48.6506 237.187 42.6716 235.772 38.2979 234.324C33.3765 232.706 30.8187 227.841 29.4817 222.807ZM31.84 231.877C33.4 233.818 35.3411 235.251 37.7356 236.049C52.1789 240.802 83.8447 245.234 98.9774 247.188L87.3495 256.639H33.7447C33.2368 251.088 32.4749 242.145 31.84 231.877ZM32.7978 288.266C32.6316 288.241 32.4821 288.151 32.3818 288.017C32.2816 287.882 32.2387 287.713 32.2626 287.546C32.3134 287.202 32.6327 286.984 32.9828 287.009L41.4072 288.239C47.1305 289.092 52.295 284.531 52.1009 278.683L51.5966 263.351C51.5935 263.267 51.6069 263.184 51.636 263.106C51.6652 263.027 51.7095 262.956 51.7665 262.895C51.8235 262.834 51.892 262.784 51.9681 262.75C52.0442 262.716 52.1263 262.696 52.2098 262.694C52.5399 262.719 52.8538 262.957 52.8628 263.307L53.3708 278.639C53.5884 285.235 47.7999 290.449 41.2222 289.498L32.7978 288.266ZM29.2749 360.79C29.4455 360.62 29.6764 360.525 29.9169 360.526C30.1574 360.527 30.3878 360.623 30.5574 360.793L34.766 365.024C34.8524 365.108 34.9212 365.208 34.9684 365.319C35.0155 365.429 35.0402 365.548 35.0409 365.669C35.0416 365.789 35.0183 365.909 34.9724 366.02C34.9265 366.131 34.8588 366.232 34.7734 366.317C34.688 366.402 34.5866 366.469 34.475 366.515C34.3634 366.56 34.244 366.582 34.1236 366.581C34.0031 366.58 33.8842 366.554 33.7737 366.507C33.6632 366.459 33.5633 366.389 33.4799 366.303L29.2713 362.072C29.1017 361.902 29.0069 361.671 29.0075 361.43C29.0082 361.19 29.1044 360.959 29.2749 360.79ZM45.262 430.077L45.3255 431.669L39.3936 435.664L29.021 432.508L28.7108 430.077H45.262ZM627.079 452.117H600.857V440.734C600.857 440.502 600.676 440.319 600.442 440.319L566.737 440.014L566.552 439.227C577.536 438.699 587.191 438.075 595.678 437.188C606.18 436.201 619.237 434.082 628.93 429.895C629.02 436.934 628.367 444.916 627.079 452.117ZM644.422 416.199C629.793 434.265 600.257 435.793 566.122 437.427L558.844 406.883L608.808 390.502L620.834 398.191C620.934 398.259 621.047 398.306 621.165 398.329C621.284 398.352 621.406 398.352 621.524 398.327C621.643 398.302 621.755 398.254 621.854 398.186C621.954 398.117 622.039 398.03 622.104 397.928C622.169 397.826 622.213 397.712 622.234 397.593C622.254 397.474 622.251 397.352 622.224 397.234C622.196 397.117 622.146 397.006 622.075 396.908C622.004 396.81 621.915 396.727 621.811 396.664L609.779 388.967L607.687 371.066C607.674 370.947 607.637 370.831 607.578 370.726C607.52 370.621 607.441 370.529 607.346 370.455C607.252 370.38 607.144 370.326 607.028 370.294C606.912 370.262 606.791 370.253 606.671 370.268C606.182 370.322 605.819 370.776 605.873 371.284L607.941 388.862L558.422 405.11L547.683 360.046C547.66 359.955 547.608 359.874 547.535 359.815C547.461 359.757 547.37 359.724 547.276 359.723L529.339 359.819C528.505 345.053 530.01 331.992 530.028 331.756C530.046 331.638 530.039 331.517 530.009 331.402C529.979 331.286 529.926 331.178 529.853 331.083C529.781 330.988 529.69 330.909 529.586 330.85C529.482 330.791 529.367 330.754 529.248 330.74C529.129 330.725 529.008 330.733 528.892 330.765C528.776 330.796 528.667 330.851 528.573 330.926C528.478 331 528.399 331.092 528.341 331.198C528.282 331.303 528.246 331.419 528.233 331.538C528.124 332.482 526.654 345.271 527.471 359.819H509.33C511.761 339.556 515.444 322.867 520.94 317.643C531.625 307.502 546.518 303.203 556.568 301.407L564.078 315.974C565.214 318.105 566.814 314.12 580.422 300.119C593.955 300.682 614.98 303.112 626.971 312.31C628.995 313.855 630.914 316.083 632.716 318.822C634.765 322.327 638.829 331.852 634.228 347.195C633.882 348.345 635.625 348.866 635.964 347.718C638.305 339.912 638.508 333.554 637.838 328.634C643.099 340.96 646.843 357.383 648.541 371.629C649.633 380.771 649.96 389.138 649.575 396.209C647.357 385.905 641.316 376.131 640.96 375.565C640.828 375.372 640.626 375.237 640.397 375.189C640.168 375.142 639.929 375.184 639.731 375.308C639.532 375.433 639.39 375.629 639.332 375.856C639.275 376.083 639.308 376.323 639.424 376.526C639.54 376.713 650.916 395.115 648.117 407.449C647.233 411.272 645.996 414.258 644.422 416.201V416.199Z" fill="white"/>
<path d="M112.178 111.499C112.177 112.003 112.276 112.501 112.469 112.967C112.661 113.432 112.943 113.855 113.299 114.211C113.655 114.567 114.077 114.85 114.542 115.043C115.007 115.236 115.506 115.336 116.009 115.336C116.512 115.336 117.011 115.238 117.476 115.045C117.942 114.853 118.365 114.571 118.721 114.215C119.077 113.859 119.36 113.437 119.553 112.972C119.746 112.507 119.845 112.008 119.846 111.505C119.846 110.488 119.443 109.512 118.725 108.793C118.006 108.073 117.031 107.669 116.014 107.668C114.998 107.667 114.022 108.071 113.303 108.789C112.583 109.508 112.178 110.483 112.178 111.499ZM583.187 102.67C586.379 104.297 589.382 106.271 592.141 108.557C593.066 109.319 594.227 107.929 593.3 107.16C590.438 104.789 587.322 102.741 584.01 101.054C583.904 101 583.789 100.968 583.67 100.958C583.551 100.949 583.432 100.963 583.319 101C583.206 101.037 583.101 101.096 583.011 101.173C582.92 101.25 582.846 101.345 582.792 101.451C582.738 101.557 582.706 101.672 582.696 101.791C582.687 101.909 582.701 102.029 582.738 102.142C582.775 102.255 582.833 102.36 582.911 102.45C582.988 102.54 583.082 102.615 583.188 102.669L583.187 102.67ZM375.035 4.04317L377.787 1.57245C377.962 1.41064 378.066 1.18662 378.077 0.948746C378.088 0.710876 378.005 0.47824 377.846 0.301055C377.686 0.123871 377.464 0.016357 377.226 0.00171723C376.989 -0.0129225 376.755 0.0664903 376.575 0.222811L373.823 2.69353C373.649 2.85534 373.545 3.07936 373.534 3.31723C373.523 3.5551 373.606 3.78773 373.765 3.96492C373.924 4.1421 374.146 4.24962 374.384 4.26426C374.622 4.2789 374.855 4.19949 375.035 4.04317ZM424.887 40.3674C425.397 40.3783 425.904 40.2871 426.379 40.0993C426.853 39.9115 427.286 39.6308 427.65 39.2736C428.015 38.9165 428.304 38.4902 428.502 38.0196C428.7 37.5491 428.801 37.0438 428.801 36.5334C428.801 36.023 428.699 35.5178 428.501 35.0475C428.303 34.5771 428.013 34.151 427.648 33.7943C427.283 33.4375 426.85 33.1572 426.375 32.9698C425.901 32.7824 425.393 32.6918 424.883 32.7031C423.866 32.7036 422.892 33.1079 422.173 33.8271C421.455 34.5462 421.051 35.5214 421.052 36.538C421.052 37.5546 421.457 38.5293 422.176 39.2478C422.895 39.9663 423.87 40.3679 424.887 40.3674ZM594.296 69.9271C594.799 69.9273 595.298 69.8284 595.763 69.636C596.228 69.4435 596.651 69.1613 597.007 68.8055C597.364 68.4496 597.646 68.0271 597.839 67.562C598.032 67.097 598.131 66.5984 598.132 66.095C598.132 65.5915 598.033 65.0929 597.84 64.6276C597.648 64.1624 597.366 63.7396 597.01 63.3834C596.654 63.0272 596.232 62.7446 595.766 62.5517C595.301 62.3588 594.803 62.2594 594.299 62.2592C593.283 62.2587 592.307 62.6622 591.588 63.3808C590.869 64.0995 590.464 65.0745 590.464 66.0913C590.463 67.1082 590.867 68.0835 591.585 68.8029C592.304 69.5222 593.279 69.9266 594.296 69.9271ZM118.545 319.112C118.331 319.013 118.088 319.001 117.866 319.079C117.643 319.156 117.46 319.316 117.353 319.526C117.247 319.736 117.226 319.979 117.295 320.204C117.364 320.429 117.517 320.618 117.723 320.732C120.917 322.355 123.92 324.328 126.677 326.615C126.863 326.769 127.101 326.843 127.341 326.821C127.46 326.81 127.575 326.776 127.681 326.72C127.786 326.664 127.88 326.589 127.956 326.497C128.032 326.405 128.09 326.299 128.125 326.186C128.161 326.072 128.173 325.952 128.162 325.833C128.151 325.714 128.117 325.599 128.061 325.493C128.006 325.388 127.93 325.294 127.838 325.218C124.975 322.845 121.859 320.799 118.545 319.112ZM150.904 291.767C150.4 291.768 149.902 291.867 149.437 292.06C148.972 292.253 148.55 292.536 148.194 292.892C147.839 293.248 147.556 293.671 147.364 294.136C147.172 294.601 147.073 295.1 147.073 295.603C147.074 296.106 147.173 296.605 147.366 297.07C147.559 297.535 147.842 297.957 148.198 298.313C148.554 298.668 148.977 298.95 149.442 299.143C149.907 299.335 150.406 299.434 150.909 299.433C151.926 299.433 152.901 299.028 153.619 298.309C154.337 297.589 154.74 296.614 154.74 295.598C154.739 294.581 154.334 293.606 153.615 292.888C152.896 292.17 151.92 291.767 150.904 291.767ZM9.61766 254.278C6.30504 255.964 3.18946 258.012 0.327985 260.384C0.23627 260.461 0.160443 260.554 0.104836 260.659C0.0492287 260.765 0.014931 260.88 0.00389758 260.999C-0.00713582 261.118 0.00531169 261.237 0.040532 261.351C0.0757524 261.465 0.133053 261.571 0.209165 261.662C0.285277 261.754 0.378711 261.83 0.484128 261.886C0.589544 261.941 0.704882 261.976 0.823554 261.987C0.942226 261.998 1.06191 261.985 1.17577 261.95C1.28963 261.915 1.39544 261.857 1.48715 261.781C4.24507 259.495 7.24741 257.52 10.4394 255.893C10.6535 255.784 10.8156 255.594 10.8899 255.366C10.9642 255.137 10.9448 254.889 10.8358 254.675C10.7268 254.461 10.5373 254.299 10.3088 254.224C10.0804 254.15 9.83176 254.169 9.61766 254.278ZM31.4296 97.4805L34.1815 95.0098C34.2723 94.9308 34.3464 94.8346 34.3996 94.7267C34.4528 94.6188 34.484 94.5014 34.4914 94.3813C34.4988 94.2613 34.4822 94.1409 34.4427 94.0273C34.4031 93.9137 34.3413 93.8091 34.261 93.7196C34.1806 93.6301 34.0833 93.5575 33.9745 93.5059C33.8658 93.4544 33.748 93.425 33.6278 93.4195C33.5076 93.414 33.3876 93.4324 33.2746 93.4737C33.1616 93.515 33.058 93.5784 32.9697 93.6601L30.2197 96.1308C30.045 96.2927 29.9409 96.5167 29.9299 96.7545C29.919 96.9924 30.002 97.2251 30.1611 97.4022C30.3202 97.5794 30.5426 97.6869 30.7802 97.7016C31.0179 97.7162 31.25 97.6368 31.4296 97.4805ZM303.252 39.1048C303.458 38.9908 303.611 38.8014 303.68 38.5764C303.749 38.3515 303.728 38.1086 303.622 37.8988C303.515 37.6889 303.332 37.5286 303.11 37.4514C302.887 37.3742 302.644 37.3862 302.43 37.4849C299.117 39.1718 296.001 41.2203 293.139 43.5928C293.047 43.6687 292.971 43.762 292.916 43.8672C292.861 43.9724 292.826 44.0875 292.815 44.206C292.804 44.3244 292.817 44.4438 292.852 44.5574C292.887 44.671 292.945 44.7766 293.021 44.868C294.16 46.2558 295.011 43.2826 303.252 39.1048ZM216.915 432.799C216.701 432.701 216.458 432.689 216.235 432.766C216.013 432.843 215.829 433.003 215.723 433.213C215.617 433.423 215.596 433.666 215.665 433.891C215.734 434.116 215.887 434.305 216.093 434.419C219.286 436.043 222.289 438.017 225.047 440.302C225.139 440.378 225.245 440.435 225.358 440.47C225.472 440.505 225.592 440.518 225.71 440.506C225.829 440.495 225.944 440.461 226.049 440.405C226.154 440.349 226.247 440.273 226.323 440.182C226.399 440.09 226.456 439.984 226.491 439.87C226.526 439.757 226.538 439.637 226.527 439.519C226.516 439.4 226.482 439.285 226.426 439.18C226.37 439.075 226.294 438.981 226.203 438.905C223.342 436.533 220.227 434.486 216.915 432.799ZM186.753 400.613C185.736 400.614 184.762 401.018 184.043 401.738C183.325 402.457 182.922 403.432 182.922 404.449C182.923 405.465 183.328 406.44 184.047 407.158C184.766 407.877 185.742 408.28 186.758 408.279C187.775 408.278 188.749 407.874 189.468 407.155C190.186 406.435 190.589 405.46 190.589 404.443C190.588 403.427 190.183 402.452 189.464 401.734C188.745 401.015 187.769 400.612 186.753 400.613ZM480.22 144.228C482.979 141.942 485.983 139.968 489.176 138.342C489.39 138.232 489.552 138.043 489.626 137.814C489.7 137.585 489.681 137.337 489.572 137.123C489.462 136.909 489.272 136.747 489.044 136.672C488.815 136.598 488.567 136.618 488.353 136.727C485.041 138.412 481.926 140.458 479.065 142.828C478.879 142.981 478.762 143.202 478.739 143.441C478.716 143.681 478.789 143.92 478.942 144.106C479.095 144.291 479.316 144.409 479.556 144.432C479.795 144.455 480.034 144.381 480.22 144.228ZM525.466 101.134C525.649 101.134 525.829 101.078 525.98 100.974C526.131 100.87 526.247 100.723 526.313 100.551C526.378 100.38 526.39 100.193 526.347 100.014C526.304 99.8359 526.208 99.6747 526.072 99.5521L523.322 97.0814C523.142 96.9251 522.908 96.8457 522.67 96.8603C522.433 96.875 522.21 96.9825 522.051 97.1596C521.892 97.3368 521.809 97.5695 521.82 97.8073C521.831 98.0452 521.935 98.2692 522.11 98.431L524.86 100.902C525.026 101.052 525.242 101.135 525.466 101.134ZM507.159 225.363C507.104 225.469 507.072 225.584 507.062 225.703C507.053 225.822 507.067 225.941 507.103 226.054C507.14 226.167 507.199 226.272 507.276 226.363C507.354 226.453 507.448 226.528 507.554 226.582C509.176 227.405 510.774 228.338 512.307 229.354C512.507 229.486 512.753 229.534 512.988 229.486C513.224 229.438 513.431 229.298 513.564 229.098C513.697 228.897 513.744 228.652 513.696 228.416C513.648 228.181 513.509 227.973 513.308 227.841C511.72 226.79 510.073 225.83 508.376 224.967C508.27 224.913 508.154 224.88 508.036 224.871C507.917 224.861 507.798 224.876 507.685 224.912C507.572 224.949 507.467 225.008 507.377 225.085C507.287 225.162 507.212 225.257 507.159 225.363ZM610.14 233.522C610.139 234.026 610.238 234.524 610.43 234.989C610.623 235.454 610.905 235.877 611.26 236.233C611.616 236.59 612.038 236.872 612.503 237.065C612.968 237.258 613.467 237.358 613.97 237.358C614.473 237.358 614.972 237.26 615.437 237.067C615.902 236.875 616.325 236.593 616.681 236.237C617.037 235.882 617.32 235.459 617.513 234.994C617.706 234.529 617.805 234.031 617.806 233.528C617.806 232.511 617.403 231.536 616.685 230.817C615.967 230.097 614.992 229.693 613.975 229.692C612.959 229.691 611.983 230.094 611.264 230.813C610.545 231.531 610.14 232.506 610.14 233.522Z" fill="white"/>
</svg>
