<svg width="36" height="36" viewBox="0 0 36 36" fill="none" xmlns="http://www.w3.org/2000/svg">
<path d="M34.2 25.728V7.8C34.1986 7.32305 34.0085 6.86604 33.6712 6.52878C33.334 6.19152 32.877 6.00142 32.4 6H29.4V5.4C29.3986 4.92305 29.2085 4.46604 28.8712 4.12878C28.534 3.79152 28.077 3.60142 27.6 3.6H24V3C24 2.20435 23.6839 1.44129 23.1213 0.87868C22.5587 0.316071 21.7957 0 21 0H15C14.2044 0 13.4413 0.316071 12.8787 0.87868C12.3161 1.44129 12 2.20435 12 3V3.6H8.4C7.92305 3.60142 7.46604 3.79152 7.12878 4.12878C6.79152 4.46604 6.60142 4.92305 6.6 5.4V6H3.6C3.12305 6.00142 2.66604 6.19152 2.32878 6.52878C1.99152 6.86604 1.80142 7.32305 1.8 7.8V25.728L0.018 32.856L0 34.2C0.00142445 34.677 0.191524 35.134 0.528781 35.4712C0.866039 35.8085 1.32305 35.9986 1.8 36H34.2C34.677 35.9986 35.134 35.8085 35.4712 35.4712C35.8085 35.134 35.9986 34.677 36 34.2V33L34.2 25.728ZM13.2 3C13.2014 2.52305 13.3915 2.06604 13.7288 1.72878C14.066 1.39152 14.523 1.20142 15 1.2H21C21.477 1.20142 21.934 1.39152 22.2712 1.72878C22.6085 2.06604 22.7986 2.52305 22.8 3V3.6H13.2V3ZM7.8 5.4C7.8 5.24087 7.86321 5.08826 7.97574 4.97574C8.08826 4.86321 8.24087 4.8 8.4 4.8H27.6C27.7591 4.8 27.9117 4.86321 28.0243 4.97574C28.1368 5.08826 28.2 5.24087 28.2 5.4V10.8H24.6V10.2C24.6 9.72261 24.4104 9.26477 24.0728 8.92721C23.7352 8.58964 23.2774 8.4 22.8 8.4C22.3226 8.4 21.8648 8.58964 21.5272 8.92721C21.1896 9.26477 21 9.72261 21 10.2V10.8H15V10.2C15 9.72261 14.8104 9.26477 14.4728 8.92721C14.1352 8.58964 13.6774 8.4 13.2 8.4C12.7226 8.4 12.2648 8.58964 11.9272 8.92721C11.5896 9.26477 11.4 9.72261 11.4 10.2V10.8H7.8V5.4ZM13.2 14.4C13.677 14.3986 14.134 14.2085 14.4712 13.8712C14.8085 13.534 14.9986 13.077 15 12.6V12H21V12.6C21 13.0774 21.1896 13.5352 21.5272 13.8728C21.8648 14.2104 22.3226 14.4 22.8 14.4C23.2774 14.4 23.7352 14.2104 24.0728 13.8728C24.4104 13.5352 24.6 13.0774 24.6 12.6V12H27V19.8C27 19.9591 26.9368 20.1117 26.8243 20.2243C26.7117 20.3368 26.5591 20.4 26.4 20.4H9.6C9.44087 20.4 9.28826 20.3368 9.17574 20.2243C9.06321 20.1117 9 19.9591 9 19.8V12H11.4V12.6C11.4014 13.077 11.5915 13.534 11.9288 13.8712C12.266 14.2085 12.723 14.3986 13.2 14.4ZM12.6 12.6V10.2C12.6 10.0409 12.6632 9.88826 12.7757 9.77574C12.8883 9.66321 13.0409 9.6 13.2 9.6C13.3591 9.6 13.5117 9.66321 13.6243 9.77574C13.7368 9.88826 13.8 10.0409 13.8 10.2V12.6C13.8 12.7591 13.7368 12.9117 13.6243 13.0243C13.5117 13.1368 13.3591 13.2 13.2 13.2C13.0409 13.2 12.8883 13.1368 12.7757 13.0243C12.6632 12.9117 12.6 12.7591 12.6 12.6ZM22.2 12.6V10.2C22.2 10.0409 22.2632 9.88826 22.3757 9.77574C22.4883 9.66321 22.6409 9.6 22.8 9.6C22.9591 9.6 23.1117 9.66321 23.2243 9.77574C23.3368 9.88826 23.4 10.0409 23.4 10.2V12.6C23.4 12.7591 23.3368 12.9117 23.2243 13.0243C23.1117 13.1368 22.9591 13.2 22.8 13.2C22.6409 13.2 22.4883 13.1368 22.3757 13.0243C22.2632 12.9117 22.2 12.7591 22.2 12.6ZM7.2 12H7.8V19.8C7.80142 20.277 7.99152 20.734 8.32878 21.0712C8.66604 21.4085 9.12305 21.5986 9.6 21.6H26.4C26.877 21.5986 27.334 21.4085 27.6712 21.0712C28.0085 20.734 28.1986 20.277 28.2 19.8V12H28.8C28.9591 12 29.1117 11.9368 29.2243 11.8243C29.3368 11.7117 29.4 11.5591 29.4 11.4V9.6H30.6V22.8H5.4V9.6H6.6V11.4C6.6 11.5591 6.66321 11.7117 6.77574 11.8243C6.88826 11.9368 7.04087 12 7.2 12ZM3 7.8C3 7.64087 3.06321 7.48826 3.17574 7.37574C3.28826 7.26321 3.44087 7.2 3.6 7.2H6.6V8.4H4.8C4.64087 8.4 4.48826 8.46321 4.37574 8.57574C4.26321 8.68826 4.2 8.84087 4.2 9V23.4C4.2 23.5591 4.26321 23.7117 4.37574 23.8243C4.48826 23.9368 4.64087 24 4.8 24H31.2C31.3591 24 31.5117 23.9368 31.6243 23.8243C31.7368 23.7117 31.8 23.5591 31.8 23.4V9C31.8 8.84087 31.7368 8.68826 31.6243 8.57574C31.5117 8.46321 31.3591 8.4 31.2 8.4H29.4V7.2H32.4C32.5591 7.2 32.7117 7.26321 32.8243 7.37574C32.9368 7.48826 33 7.64087 33 7.8V25.2H3V7.8ZM2.868 26.4H33.132L34.632 32.4H22.668L22.182 30.456C22.1498 30.3259 22.0751 30.2103 21.9696 30.1277C21.8641 30.0451 21.734 30.0001 21.6 30H14.4C14.266 30.0001 14.1359 30.0451 14.0304 30.1277C13.9249 30.2103 13.8502 30.3259 13.818 30.456L13.332 32.4H1.368L2.868 26.4ZM21.432 32.4H14.568L14.868 31.2H21.132L21.432 32.4ZM34.8 34.2C34.8 34.3591 34.7368 34.5117 34.6243 34.6243C34.5117 34.7368 34.3591 34.8 34.2 34.8H1.8C1.64087 34.8 1.48826 34.7368 1.37574 34.6243C1.26321 34.5117 1.2 34.3591 1.2 34.2V33.6H34.8V34.2Z" fill="#0D99FF"/>
<path d="M21.0002 27.5996H22.2002V28.7996H21.0002V27.5996ZM4.2002 27.5996H5.4002V28.7996H4.2002V27.5996ZM6.6002 27.5996H7.8002V28.7996H6.6002V27.5996ZM9.0002 27.5996H10.2002V28.7996H9.0002V27.5996ZM11.4002 27.5996H12.6002V28.7996H11.4002V27.5996ZM23.4002 27.5996H24.6002V28.7996H23.4002V27.5996ZM25.8002 27.5996H27.0002V28.7996H25.8002V27.5996ZM28.2002 27.5996H29.4002V28.7996H28.2002V27.5996ZM13.8002 27.5996H15.0002V28.7996H13.8002V27.5996ZM16.2002 27.5996H17.4002V28.7996H16.2002V27.5996ZM18.6002 27.5996H19.8002V28.7996H18.6002V27.5996ZM30.6002 27.5996H31.8002V28.7996H30.6002V27.5996ZM23.4002 29.9996H27.0002V31.1996H23.4002V29.9996ZM28.2002 29.9996H29.4002V31.1996H28.2002V29.9996ZM30.6002 29.9996H31.8002V31.1996H30.6002V29.9996ZM4.2002 29.9996H5.4002V31.1996H4.2002V29.9996ZM6.6002 29.9996H7.8002V31.1996H6.6002V29.9996ZM9.0002 29.9996H12.6002V31.1996H9.0002V29.9996Z" fill="#0D99FF"/>
</svg>
