<svg width="24" height="22" viewBox="0 0 24 22" fill="none" xmlns="http://www.w3.org/2000/svg">
<path d="M15.7994 16.5519C15.7994 16.7514 15.7201 16.9428 15.579 17.0839C15.4379 17.225 15.2466 17.3042 15.047 17.3042H4.51411C4.34859 17.3042 4.1906 17.4547 4.05517 17.5525L1.5047 19.5613V7.52365C1.5047 7.32412 1.58397 7.13276 1.72506 6.99166C1.86615 6.85057 2.05752 6.7713 2.25705 6.7713H5.16113V5.2666H2.25705C1.65845 5.2666 1.08436 5.5044 0.661076 5.92768C0.237796 6.35096 0 6.92505 0 7.52365V21.066C0.00111972 21.2057 0.0411288 21.3424 0.115543 21.4606C0.189958 21.5789 0.295837 21.6741 0.421317 21.7356C0.542204 21.7905 0.675488 21.8125 0.80763 21.7993C0.939771 21.7861 1.06606 21.7382 1.17367 21.6603L5.04828 18.8089H15.1599C15.445 18.8173 15.7289 18.7671 15.9938 18.6614C16.2588 18.5557 16.4992 18.3967 16.7002 18.1943C16.9012 17.9919 17.0585 17.7503 17.1624 17.4846C17.2663 17.2189 17.3145 16.9348 17.3041 16.6497V15.7995H15.7994V16.5519Z" fill="white"/>
<path d="M21.8182 0H9.02823C8.42962 0 7.85553 0.237796 7.43225 0.661076C7.00897 1.08436 6.77118 1.65845 6.77118 2.25705V11.2853C6.77118 11.8839 7.00897 12.458 7.43225 12.8812C7.85553 13.3045 8.42962 13.5423 9.02823 13.5423H19.2226L22.8188 16.3335C22.9257 16.4126 23.0517 16.4619 23.1838 16.4764C23.316 16.491 23.4496 16.4702 23.5712 16.4163C23.6992 16.3553 23.8074 16.2594 23.8833 16.1396C23.9591 16.0198 23.9996 15.881 24 15.7392V2.25705C24.0003 1.67126 23.7729 1.10828 23.3658 0.687097C22.9586 0.265915 22.4037 0.0195265 21.8182 0ZM22.5706 14.2495L19.9373 12.1956C19.806 12.0937 19.6446 12.0381 19.4784 12.0376H9.02823C8.8287 12.0376 8.63733 11.9584 8.49624 11.8173C8.35515 11.6762 8.27588 11.4848 8.27588 11.2853V2.25705C8.27588 2.05752 8.35515 1.86615 8.49624 1.72506C8.63733 1.58397 8.8287 1.5047 9.02823 1.5047H21.8182C22.0193 1.52295 22.2068 1.61411 22.3454 1.76099C22.4839 1.90788 22.564 2.10036 22.5706 2.30219V14.2495Z" fill="white"/>
</svg>
