<?xml version="1.0" standalone="no"?>
<!DOCTYPE svg PUBLIC "-//W3C//DTD SVG 20010904//EN"
 "http://www.w3.org/TR/2001/REC-SVG-20010904/DTD/svg10.dtd">
<svg version="1.0" xmlns="http://www.w3.org/2000/svg"
 width="1456.000000pt" height="816.000000pt" viewBox="0 0 1456.000000 816.000000"
 preserveAspectRatio="xMidYMid meet">

<g transform="translate(0.000000,816.000000) scale(0.100000,-0.100000)"
fill="#000000" stroke="none">
<path d="M0 4080 l0 -4080 7280 0 7280 0 0 4080 0 4080 -7280 0 -7280 0 0
-4080z m4350 3656 c0 -3 -4 -8 -10 -11 -5 -3 -10 -1 -10 4 0 6 5 11 10 11 6 0
10 -2 10 -4z m-388 -88 c-7 -7 -12 -8 -12 -2 0 14 12 26 19 19 2 -3 -1 -11 -7
-17z m-32 -3 c-7 -9 -15 -13 -19 -10 -3 3 1 10 9 15 21 14 24 12 10 -5z m-50
-19 c0 -2 -7 -9 -15 -16 -13 -11 -14 -10 -9 4 5 14 24 23 24 12z m-50 -46 c-8
-5 -17 -7 -19 -4 -3 3 1 9 9 14 8 5 17 7 19 4 3 -3 -1 -9 -9 -14z m54 -25
c-15 -22 -31 -36 -21 -17 2 4 7 15 10 25 4 9 11 17 17 17 6 0 3 -11 -6 -25z
m-104 -6 c0 6 5 11 10 11 6 0 10 -7 10 -15 0 -8 -5 -15 -11 -15 -5 0 -7 -4 -4
-10 4 -6 -1 -7 -11 -3 -14 5 -15 3 -5 -15 12 -23 15 -39 4 -29 -3 4 -12 2 -19
-4 -8 -7 -14 -7 -19 1 -5 8 -11 8 -21 -1 -10 -8 -14 -8 -14 -1 0 13 -29 4 -45
-12 -5 -6 -19 -31 -31 -56 l-21 -45 2 36 c1 20 6 43 11 50 5 8 7 23 6 34 l-3
20 17 -20 c14 -16 16 -17 11 -2 -4 9 -5 17 -3 17 3 0 12 3 22 7 13 5 15 3 9
-7 -6 -9 -4 -11 5 -5 10 6 10 11 -3 20 -10 7 -17 18 -17 26 0 11 2 11 10 -1 8
-12 14 -11 47 7 27 16 41 19 50 11 9 -7 13 -7 13 1z m-66 -125 c3 -8 2 -12 -4
-9 -6 3 -10 10 -10 16 0 14 7 11 14 -7z m-136 -6 c-2 -7 -6 -16 -10 -19 -5 -3
-9 -17 -10 -33 -2 -23 -4 -25 -14 -11 -10 13 -14 10 -30 -22 -9 -21 -17 -46
-16 -56 0 -9 -4 -15 -9 -11 -6 3 -8 12 -5 19 3 8 -3 19 -11 27 -15 11 -16 11
-10 -5 4 -11 3 -16 -3 -12 -6 3 -10 -1 -10 -9 0 -9 -4 -16 -9 -16 -5 0 -1 20
8 45 9 25 21 45 28 45 7 0 17 8 22 18 10 16 10 15 12 -3 0 -12 5 -7 11 14 6
23 12 30 17 22 6 -10 10 -9 14 3 7 19 28 22 25 4z m-99 -175 c1 5 6 5 11 2 6
-4 8 -11 4 -16 -4 -6 -11 -6 -19 1 -15 12 -19 4 -31 -62 -3 -21 -11 -38 -16
-38 -6 0 -7 8 -3 18 4 9 7 29 6 44 -1 14 6 33 14 41 19 20 19 28 0 21 -17 -7
-39 -69 -31 -89 3 -8 1 -15 -5 -15 -6 0 -7 -4 -4 -10 3 -5 2 -10 -2 -10 -8 0
-14 -10 -48 -80 -18 -35 -28 -120 -15 -120 4 0 7 -7 7 -15 0 -8 -4 -12 -8 -9
-4 2 -10 -8 -12 -23 -2 -18 -5 -9 -6 22 -2 28 -5 43 -8 35 -2 -8 -8 -24 -13
-35 -5 -11 -11 -27 -13 -35 -3 -8 -6 1 -6 20 -1 77 55 255 97 307 13 16 20 22
16 14 -5 -9 -3 -12 4 -7 7 4 9 18 6 32 -5 21 -3 24 19 24 14 0 29 6 33 12 6 9
10 5 15 -12 4 -14 7 -21 8 -17z m5438 -43 c-1 -10 -3 -17 -5 -15 -3 2 -13 0
-23 -6 -12 -6 -19 -6 -19 0 0 5 9 13 20 16 11 3 20 11 20 16 0 5 2 9 4 9 3 0
4 -9 3 -20z m-126 -27 c-12 -20 -14 -14 -5 12 4 9 9 14 11 11 3 -2 0 -13 -6
-23z m424 17 c3 -5 2 -10 -4 -10 -5 0 -13 5 -16 10 -3 6 -2 10 4 10 5 0 13 -4
16 -10z m-368 -56 c-9 -9 -28 6 -21 18 4 6 10 6 17 -1 6 -6 8 -13 4 -17z m-20
-37 c0 -8 -6 -14 -13 -14 -7 0 -10 6 -7 14 3 7 8 13 12 13 4 0 8 -6 8 -13z
m125 -20 c-7 -8 -9 -17 -5 -20 3 -4 1 -7 -5 -7 -6 0 -9 12 -8 28 5 38 5 37 18
24 8 -8 8 -15 0 -25z m68 2 c0 -6 -4 -7 -10 -4 -5 3 -10 11 -10 16 0 6 5 7 10
4 6 -3 10 -11 10 -16z m-5625 -50 c-9 -17 -19 -29 -22 -26 -5 5 25 57 33 57 3
0 -3 -14 -11 -31z m85 11 c0 -5 -5 -10 -11 -10 -5 0 -7 5 -4 10 3 6 8 10 11
10 2 0 4 -4 4 -10z m5480 -32 c0 -5 -7 -3 -15 6 -8 8 -15 18 -15 22 0 3 7 1
15 -6 8 -7 15 -17 15 -22z m-5500 2 c0 -5 -3 -10 -8 -10 -4 0 -13 -14 -21 -31
-7 -16 -15 -28 -18 -26 -6 7 29 77 39 77 4 0 8 -4 8 -10z m30 -35 c0 15 3 16
9 7 4 -7 6 -24 3 -37 -3 -18 -10 -24 -26 -23 -18 2 -21 7 -18 35 4 31 5 32 18
16 13 -17 13 -17 14 2z m-86 -79 c-3 -15 -8 -25 -11 -23 -2 3 -1 17 3 31 3 15
8 25 11 23 2 -3 1 -17 -3 -31z m5271 -17 c11 -16 1 -19 -13 -3 -7 8 -8 14 -3
14 5 0 13 -5 16 -11z m-5214 -32 c-10 -9 -11 -8 -5 6 3 10 9 15 12 12 3 -3 0
-11 -7 -18z m30 -14 c-12 -20 -14 -14 -5 12 4 9 9 14 11 11 3 -2 0 -13 -6 -23z
m4909 3 c0 -2 -7 -7 -16 -10 -8 -3 -12 -2 -9 4 6 10 25 14 25 6z m-57 -43 c-8
-19 -22 -16 -18 5 2 9 4 22 4 27 1 6 5 4 10 -4 5 -8 7 -20 4 -28z m-105 -25
c-1 -13 -7 -30 -14 -38 -6 -8 -15 -25 -19 -38 -3 -12 -10 -20 -14 -17 -5 2 -7
-9 -5 -26 2 -18 0 -28 -6 -24 -6 3 -10 -1 -10 -10 0 -9 5 -13 10 -10 12 7 8
-31 -5 -42 -4 -5 -5 -2 -1 5 4 6 2 12 -3 12 -16 0 -14 35 5 102 12 43 21 58
31 54 8 -3 11 -2 8 4 -4 7 14 50 22 50 1 0 1 -10 1 -22z m362 18 c0 -2 -8 -10
-17 -17 -16 -13 -17 -12 -4 4 13 16 21 21 21 13z m-5038 -89 c-6 -7 -20 -33
-30 -57 l-19 -45 1 47 c1 25 4 41 8 35 5 -8 13 -5 23 11 9 12 19 22 22 22 3 0
1 -6 -5 -13z m4763 -7 c-10 -11 -15 -20 -11 -20 4 0 4 -5 1 -10 -4 -6 -11 -8
-16 -5 -11 7 19 55 34 55 5 0 2 -9 -8 -20z m43 14 c-4 -3 -2 -19 3 -36 6 -21
5 -36 -3 -45 -8 -10 -8 -17 -1 -24 8 -8 13 -7 17 0 4 6 12 11 19 11 6 0 2 -6
-8 -14 -11 -8 -23 -12 -27 -10 -5 3 -8 -2 -8 -11 0 -10 -5 -13 -12 -9 -8 5 -7
0 2 -11 9 -11 10 -16 2 -11 -8 4 -15 -1 -22 -16 -5 -13 -18 -34 -30 -48 l-21
-25 3 25 c2 14 9 25 18 25 10 0 14 8 12 27 -2 14 2 29 8 33 5 3 8 11 4 16 -3
5 2 21 11 36 9 14 12 22 6 18 -8 -4 -11 1 -9 18 4 24 24 57 36 57 3 0 3 -3 0
-6z m34 -66 c-6 -6 -7 0 -4 19 5 21 7 23 10 9 2 -10 0 -22 -6 -28z m-5052 5
c0 -14 4 -21 10 -18 6 3 10 1 10 -5 0 -7 -7 -10 -15 -6 -8 3 -15 1 -15 -4 0
-6 -8 -10 -17 -10 -15 0 -14 2 3 15 19 15 19 15 -3 34 l-22 19 24 0 c20 0 25
-6 25 -25z m30 17 c0 -5 -5 -10 -11 -10 -5 0 -7 5 -4 10 3 6 8 10 11 10 2 0 4
-4 4 -10z m4916 -51 c1 -19 -1 -26 -6 -19 -6 9 -10 8 -19 -6 -6 -11 -11 -14
-11 -8 0 6 7 17 15 24 8 6 14 15 13 18 -1 10 2 22 5 22 1 0 3 -14 3 -31z m29
22 c3 -5 2 -12 -3 -15 -5 -3 -9 1 -9 9 0 17 3 19 12 6z m-85 -24 c0 -7 -4 -6
-10 3 -5 8 -10 11 -11 5 0 -5 -2 -20 -5 -33 -2 -13 0 -21 5 -18 5 4 4 -8 -2
-24 -10 -26 -13 -28 -19 -13 -5 14 -7 11 -7 -10 -1 -16 3 -26 9 -22 6 3 10 2
10 -4 0 -5 -4 -13 -10 -16 -5 -3 -10 -13 -10 -21 0 -8 4 -13 9 -10 5 3 13 0
18 -7 12 -15 27 -54 17 -44 -4 4 -14 1 -22 -6 -13 -10 -14 -7 -10 20 4 27 2
31 -10 21 -8 -7 -18 -21 -22 -33 -6 -16 -8 -12 -8 15 0 19 6 41 12 49 8 11 8
13 -1 7 -7 -4 -13 -3 -13 3 0 5 5 13 10 16 6 3 10 18 9 33 0 15 -3 21 -6 15
-2 -7 -9 -13 -15 -13 -6 0 -7 7 -4 16 6 15 4 15 -10 3 -16 -13 -16 -12 -5 9
11 21 13 21 28 7 19 -19 30 -10 37 27 2 15 7 32 11 38 8 13 25 3 25 -13z
m-4849 -5 c-9 -3 -8 -8 4 -22 15 -16 14 -18 -9 -22 -15 -3 -27 0 -30 7 -6 16
25 55 38 47 6 -3 5 -7 -3 -10z m4730 -5 c-10 -9 -11 -8 -5 6 3 10 9 15 12 12
3 -3 0 -11 -7 -18z m-4691 -62 c-8 -9 -5 -14 11 -18 12 -3 18 -10 14 -16 -3
-6 -12 -8 -18 -4 -7 4 -18 8 -25 9 -22 4 -23 9 -6 32 8 12 20 20 25 16 6 -4 6
-10 -1 -19z m-36 0 c-4 -8 -10 -15 -15 -15 -5 0 -9 -8 -10 -17 0 -10 -3 -13
-5 -6 -6 14 13 53 26 53 5 0 7 -7 4 -15z m4996 11 c0 -3 -4 -8 -10 -11 -5 -3
-10 -1 -10 4 0 6 5 11 10 11 6 0 10 -2 10 -4z m-232 -48 c2 -9 -4 -22 -12 -31
-8 -8 -12 -18 -8 -23 4 -5 0 -3 -9 4 -14 11 -15 18 -6 42 12 31 30 35 35 8z
m216 13 c3 -5 -2 -15 -12 -22 -15 -12 -16 -12 -5 2 7 9 10 19 6 22 -3 4 -4 7
0 7 3 0 8 -4 11 -9z m-4951 -19 c3 7 6 3 6 -9 1 -17 -5 -23 -19 -23 -14 0 -20
7 -20 21 0 17 3 19 14 10 11 -9 15 -9 19 1z m40 -29 c-3 -7 -9 -13 -14 -13 -5
0 -9 6 -9 13 0 8 6 14 14 14 8 0 12 -6 9 -14z m4887 -10 c0 5 5 5 10 2 7 -4 7
-13 0 -26 -16 -28 -27 -23 -27 11 0 20 3 26 9 18 4 -7 8 -9 8 -5z m-4920 -28
c0 -14 -4 -25 -10 -25 -11 0 -14 33 -3 43 11 11 13 8 13 -18z m4833 8 c-6 -15
-4 -16 9 -5 12 9 18 10 23 2 4 -6 4 -14 1 -17 -3 -4 -6 -1 -6 6 0 7 -4 10 -9
7 -4 -3 -7 -17 -6 -30 3 -26 -19 -54 -29 -38 -3 6 1 15 9 22 16 13 21 35 6 26
-6 -4 -8 29 -2 42 5 11 9 -2 4 -15z m-4663 -14 c0 -6 -4 -7 -10 -4 -5 3 -10
11 -10 16 0 6 5 7 10 4 6 -3 10 -11 10 -16z m4726 4 c0 -11 6 -18 16 -17 14 1
16 -5 11 -40 -3 -22 -6 -55 -7 -72 0 -21 -7 -36 -21 -44 -16 -10 -18 -10 -7 1
18 20 15 33 -5 18 -17 -13 -17 -12 -2 6 20 24 14 52 -7 34 -8 -6 -11 -16 -7
-22 3 -6 1 -7 -5 -3 -7 4 -12 1 -12 -6 -1 -14 -50 -78 -50 -65 0 14 62 101 82
115 15 11 17 17 7 28 -9 11 -9 18 -1 26 8 8 8 15 1 24 -6 7 -8 18 -4 24 9 15
13 12 11 -7z m-4862 -56 c4 4 4 0 0 -10 -3 -9 -11 -17 -16 -17 -6 0 -8 -9 -5
-20 3 -12 1 -18 -5 -14 -12 8 -4 -23 19 -79 11 -25 19 -34 24 -25 4 7 11 9 16
5 4 -5 2 -11 -4 -15 -13 -8 -6 -52 7 -52 5 0 11 8 14 18 3 9 4 0 1 -20 -3 -30
-1 -36 12 -31 11 4 14 3 9 -6 -5 -7 -1 -20 6 -29 13 -14 13 -21 2 -42 -15 -27
-15 -26 -19 6 -1 11 -25 73 -54 137 -48 108 -51 121 -45 169 6 43 9 49 19 35
7 -9 15 -14 19 -10z m16 -57 c6 -11 8 -20 5 -20 -4 0 -3 -5 1 -11 4 -8 9 -7
16 2 8 11 9 11 5 -1 -7 -25 -28 -17 -42 18 -15 35 -3 45 15 12z m62 -63 c7 4
9 0 5 -10 -6 -15 7 -22 34 -19 4 1 6 -6 5 -16 0 -9 5 -16 12 -14 8 1 11 -2 7
-8 -10 -17 5 -49 27 -56 13 -4 17 -9 9 -13 -12 -8 -9 -79 5 -115 5 -14 4 -17
-4 -12 -7 4 -12 3 -12 -3 0 -5 6 -12 13 -14 7 -3 5 -6 -5 -6 -21 -1 -24 -17
-4 -28 7 -4 17 -19 21 -32 5 -18 4 -22 -6 -16 -11 6 -12 5 -1 -6 6 -7 12 -21
12 -31 0 -10 5 -17 11 -15 6 1 14 -4 17 -12 3 -10 0 -12 -12 -8 -9 4 -16 2
-16 -2 0 -5 4 -11 9 -13 6 -1 12 -16 15 -33 3 -16 26 -71 51 -122 25 -50 45
-97 45 -102 0 -6 5 -11 11 -11 6 0 9 -8 7 -17 -2 -10 4 -25 15 -35 10 -9 19
-25 20 -36 0 -11 6 -18 13 -15 13 5 27 -24 18 -38 -3 -5 1 -9 9 -9 7 0 14 -7
14 -15 0 -9 -6 -14 -14 -11 -10 4 -9 -2 4 -24 9 -17 23 -30 29 -30 7 0 10 -8
6 -22 -3 -14 -2 -19 6 -14 8 5 12 -1 12 -14 0 -17 4 -20 23 -16 12 3 16 3 9 0
-10 -5 -10 -9 -1 -20 9 -11 9 -14 0 -14 -7 0 -10 -4 -7 -9 4 -5 1 -11 -6 -13
-7 -3 -9 -11 -4 -24 8 -18 8 -18 17 3 5 15 14 21 24 17 17 -7 20 -20 5 -29 -6
-4 -8 -11 -4 -16 3 -5 9 -7 14 -4 5 3 11 1 15 -5 4 -6 12 -7 18 -3 7 3 3 -3
-7 -15 -18 -21 -20 -21 -32 -4 -13 16 -15 16 -28 -1 -11 -14 -14 -51 -15 -144
0 -69 -1 -127 -3 -129 -2 -1 -10 1 -18 7 -11 7 -12 11 -3 17 9 5 10 17 4 37
l-9 30 -1 -27 c-1 -39 -19 -35 -24 5 -2 17 -3 -3 -1 -46 1 -44 7 -84 13 -90 6
-6 11 -15 11 -20 0 -5 -9 2 -20 16 -11 14 -20 33 -20 44 0 15 -2 16 -10 3 -14
-21 -13 -27 9 -47 11 -10 21 -26 23 -37 1 -10 21 -37 43 -60 22 -23 61 -67 86
-96 41 -49 49 -54 82 -52 21 2 47 -2 58 -9 17 -8 20 -8 14 1 -6 9 5 10 46 4
30 -4 66 -8 81 -9 14 0 24 -3 22 -7 -3 -4 10 -15 28 -24 32 -17 33 -17 18 2
-8 10 10 -3 41 -30 32 -26 65 -64 75 -85 11 -20 20 -38 21 -40 2 -2 29 20 61
50 148 138 318 279 336 279 6 0 4 -5 -4 -10 -8 -5 -11 -10 -6 -10 5 0 4 -6 -2
-12 -6 -7 -8 -26 -5 -41 5 -27 6 -27 24 -11 11 9 19 27 19 38 0 12 20 46 45
76 25 30 50 69 56 87 7 23 15 31 29 28 11 -2 22 1 26 6 3 6 20 20 38 31 25 16
26 18 7 13 -17 -5 -21 -4 -16 5 6 9 3 9 -14 1 -32 -18 -26 -5 27 51 40 43 43
50 22 43 -24 -7 -24 -7 -5 9 11 8 25 16 32 16 6 0 15 4 18 10 3 6 -1 7 -12 4
-11 -3 -6 5 12 20 17 14 26 26 20 27 -5 0 1 5 15 10 19 8 22 12 10 19 -8 5
-18 6 -22 4 -21 -13 -4 18 27 50 38 39 45 59 18 49 -27 -11 -5 15 28 32 32 17
31 18 33 -45 0 -19 -2 -37 -6 -40 -4 -3 -10 -30 -13 -60 -4 -30 -10 -59 -15
-64 -5 -5 -6 -15 -3 -22 7 -18 -16 -75 -36 -90 -12 -10 -11 -13 10 -18 38 -11
150 -58 146 -62 -2 -2 -30 8 -63 21 -68 28 -147 32 -199 11 -24 -10 -46 -33
-71 -73 -20 -32 -55 -78 -78 -103 -55 -58 -85 -106 -63 -97 35 13 4 -23 -34
-40 -21 -9 -39 -20 -39 -23 0 -4 -20 -6 -44 -5 -25 0 -43 -2 -40 -6 7 -12 -38
-39 -64 -39 -12 0 -25 -7 -28 -15 -3 -8 -14 -17 -23 -20 -10 -3 -33 -19 -52
-36 -36 -34 -35 -34 24 -4 20 10 37 22 37 27 0 4 6 8 13 8 6 0 40 18 75 40 54
34 83 48 82 38 -1 -2 -9 -27 -19 -57 -15 -42 -25 -57 -50 -67 -30 -12 -30 -12
-18 9 7 12 25 39 40 60 19 24 23 35 13 31 -12 -5 -77 -91 -91 -121 0 -1 -14
-4 -30 -7 -17 -3 -39 -8 -50 -10 -99 -19 -141 -17 -230 12 -229 74 -457 236
-534 379 -22 40 -31 49 -58 51 -43 4 -79 -22 -94 -66 -7 -20 -14 -31 -16 -24
-8 23 -39 12 -75 -25 -40 -42 -54 -89 -31 -102 12 -7 11 -9 -6 -14 -12 -3 -19
-2 -16 3 2 4 -5 16 -17 26 -12 11 -18 13 -14 7 8 -15 -10 -18 -19 -3 -3 6 -12
10 -18 10 -8 0 -8 -3 2 -9 9 -6 4 -10 -18 -13 -17 -2 -31 -1 -31 4 0 4 6 8 14
8 8 0 16 7 20 15 6 17 -9 21 -19 4 -5 -6 -12 -4 -21 8 -12 16 -13 15 -7 -16 5
-31 4 -33 -16 -26 -14 4 -21 2 -21 -7 0 -10 -3 -9 -10 2 -15 24 -12 31 14 26
17 -3 23 -1 20 8 -4 10 -16 11 -47 5 -45 -8 -53 -6 -43 9 3 6 17 9 31 8 15 -2
22 1 18 7 -4 6 0 8 10 4 10 -3 17 -3 17 2 0 16 -13 19 -31 8 -15 -9 -24 -9
-40 1 -23 15 -49 1 -49 -25 0 -8 -5 -11 -10 -8 -6 4 -9 1 -8 -6 2 -7 -2 -13
-9 -14 -6 0 -15 -4 -20 -9 -5 -5 -2 -6 6 -1 9 5 12 4 7 -6 -3 -8 -9 -22 -12
-31 -8 -24 -41 -23 -49 1 -10 31 -30 31 -64 1 -32 -30 -40 -50 -19 -50 6 0 9
-2 6 -5 -3 -3 -12 -3 -21 1 -14 5 -13 10 5 40 11 19 15 34 9 34 -6 0 -11 -4
-11 -9 0 -5 -8 -8 -17 -7 -10 0 -18 -4 -18 -11 0 -6 -4 -15 -9 -20 -5 -5 -6
-3 -2 5 4 7 1 12 -8 12 -9 0 -16 -5 -16 -11 0 -8 -5 -7 -15 1 -9 7 -18 10 -22
6 -3 -3 0 -6 7 -6 9 0 8 -6 -5 -20 -18 -20 -18 -21 1 -35 10 -8 14 -15 8 -15
-5 0 -20 9 -32 20 -12 12 -22 16 -22 10 0 -5 -9 -10 -19 -10 -11 0 -27 -10
-37 -22 -15 -20 -16 -21 -10 -3 6 19 5 19 -8 3 -7 -10 -23 -18 -35 -18 -11 0
-21 -4 -21 -9 0 -5 -9 -13 -20 -16 -25 -8 -27 -26 -2 -19 9 2 7 -1 -5 -7 -27
-14 -31 -31 -5 -23 13 4 14 3 4 -4 -8 -5 -13 -11 -12 -13 1 -2 -1 -11 -4 -19
-12 -39 -16 -43 -13 -14 2 22 -2 35 -15 43 -14 9 -18 8 -18 -4 0 -8 5 -15 11
-15 8 0 8 -5 -1 -15 -7 -8 -9 -15 -4 -15 5 0 1 -5 -9 -11 -13 -8 -15 -14 -7
-30 9 -16 6 -24 -17 -46 -17 -15 -23 -28 -16 -30 14 -5 -35 -59 -50 -55 -6 2
-3 -5 6 -16 21 -24 9 -35 -26 -26 -14 3 -28 1 -31 -5 -4 -6 -1 -9 7 -5 10 3
16 -4 19 -21 4 -19 2 -25 -8 -21 -16 6 -19 -21 -4 -44 5 -9 5 -19 -1 -26 -5
-7 -11 -26 -12 -43 -1 -17 -6 -31 -11 -31 -5 0 -2 -7 5 -16 11 -14 10 -18 -6
-30 -17 -13 -20 -12 -27 3 -6 16 -7 16 -7 1 -1 -9 5 -23 12 -30 21 -20 17 -50
-5 -45 -10 3 -18 1 -18 -5 0 -5 -5 -6 -11 -2 -8 5 -8 1 0 -13 11 -22 6 -34
-12 -27 -7 2 -18 -5 -25 -16 -13 -21 -12 -21 20 -3 18 9 37 16 42 14 5 -1 3 5
-4 14 -7 8 -10 19 -6 22 11 11 27 -20 20 -37 -4 -8 -6 -21 -5 -27 4 -42 -3
-90 -14 -101 -4 -4 -4 4 -1 18 5 17 4 21 -2 11 -13 -19 -32 -5 -32 24 0 12 -6
25 -14 28 -11 4 -13 -1 -10 -21 3 -15 11 -30 17 -35 8 -6 7 -7 -5 -4 -24 8
-30 -4 -10 -19 16 -12 16 -13 -3 -14 -12 0 -28 6 -35 13 -13 10 -13 10 -3 -2
10 -12 10 -18 0 -30 -10 -12 -9 -13 3 -6 19 12 50 14 50 3 0 -4 -5 -8 -11 -8
-5 0 -8 -4 -5 -9 4 -5 0 -11 -6 -14 -10 -4 -10 -7 0 -18 11 -12 15 -11 26 4
13 17 37 24 35 10 -4 -23 3 -32 17 -26 14 5 13 3 -2 -15 -20 -23 -25 -27 -23
-14 1 4 1 15 0 25 -1 14 -5 16 -20 7 -30 -15 -38 -12 -50 18 -8 20 -10 21 -7
5 2 -13 0 -23 -5 -23 -5 0 -9 -5 -9 -10 0 -6 3 -9 8 -9 21 4 32 -3 32 -18 0
-15 -2 -14 -14 3 -14 18 -15 18 -25 -8 -6 -15 -8 -34 -5 -42 3 -8 1 -17 -5
-21 -6 -3 -11 -12 -11 -18 0 -8 4 -7 9 2 7 10 9 -2 8 -36 0 -29 4 -57 9 -65 6
-7 10 -29 8 -48 -1 -19 2 -43 7 -52 6 -11 4 -21 -6 -31 -13 -13 -12 -17 2 -29
9 -7 14 -8 10 -2 -4 6 3 20 16 30 12 10 17 12 10 5 -8 -10 -9 -20 -2 -33 6
-12 6 -18 0 -18 -7 0 -7 -8 -2 -23 7 -18 6 -24 -5 -24 -8 0 -14 5 -14 11 0 5
-6 2 -12 -7 -8 -10 -24 -16 -43 -14 -28 2 -30 5 -30 42 0 22 3 45 6 50 10 15
7 105 -3 105 -5 0 -5 7 1 18 5 9 9 52 9 95 1 145 44 412 95 582 30 97 110 304
133 342 37 62 177 184 263 230 47 25 97 53 111 62 14 8 28 16 31 16 21 1 342
164 351 179 4 6 8 7 8 3 0 -5 13 1 29 12 16 12 33 21 38 21 10 0 140 90 167
117 11 10 42 38 70 62 50 43 84 92 152 218 28 51 32 66 24 88 -5 14 -17 28
-25 31 -8 4 -15 17 -15 31 0 13 -4 22 -9 18 -5 -3 -12 -1 -16 5 -3 5 -1 10 4
10 6 0 11 4 11 10 0 5 -7 6 -17 3 -9 -4 -14 -2 -11 3 3 5 1 20 -4 34 -7 20
-11 22 -18 10 -5 -8 -12 -11 -17 -7 -4 5 -1 12 7 17 13 8 12 11 -4 23 -13 9
-17 21 -13 36 3 14 1 21 -9 21 -8 0 -14 -4 -14 -10 0 -5 -5 -10 -11 -10 -8 0
-8 4 -1 13 6 7 8 23 5 36 -4 16 -8 19 -14 10 -4 -8 -11 -10 -15 -6 -4 3 -2 12
4 19 8 10 3 29 -16 71 -15 32 -29 56 -32 54 -3 -3 -6 4 -6 16 -2 27 -8 49 -16
62 -3 6 -11 37 -18 70 -7 33 -15 67 -18 75 -3 8 -4 21 -3 28 1 6 -2 12 -8 12
-15 0 -41 59 -34 78 6 13 9 10 20 -13 l14 -30 -6 40 c-16 108 -52 217 -71 216
-5 -1 -9 5 -9 12 0 6 6 11 13 10 6 -2 13 3 13 10 1 6 3 4 6 -6 2 -9 9 -14 15
-10z m4821 -25 c-4 -9 -14 -28 -22 -42 -9 -13 -14 -26 -11 -29 3 -2 -2 -5 -11
-6 -23 -4 -13 32 12 46 11 5 19 17 19 27 0 15 -2 15 -10 2 -5 -8 -10 -10 -10
-4 0 14 22 34 31 28 5 -2 5 -12 2 -22z m-55 -19 c-9 -10 -26 -43 -38 -73 -36
-90 -39 -96 -39 -82 -1 20 58 155 72 164 20 12 21 9 5 -9z m-98 -18 c-6 -8 -8
-20 -4 -27 4 -7 3 -10 -1 -5 -5 4 -17 -1 -29 -10 -12 -12 -9 -4 8 20 16 20 31
37 33 37 3 0 0 -7 -7 -15z m285 -150 c-1 -27 2 -35 11 -31 8 3 13 0 11 -7 -1
-7 4 -11 11 -9 6 1 12 -2 12 -6 0 -19 -13 -19 -32 0 -19 19 -20 19 -34 1 -12
-14 -16 -15 -21 -4 -5 11 -7 11 -14 0 -6 -10 -8 -7 -6 8 1 20 3 21 18 7 15
-14 17 -12 25 13 7 26 10 37 13 56 0 4 3 7 5 7 2 0 3 -16 1 -35z m-4398 -39
c-3 -8 -3 -17 1 -19 4 -2 1 -2 -7 0 -10 2 -12 -4 -8 -24 4 -16 4 -22 1 -15 -5
10 -9 10 -20 1 -26 -22 -26 -1 0 28 14 15 26 31 26 35 0 5 3 8 6 8 3 0 4 -6 1
-14z m4110 -68 c-3 -8 -6 -5 -6 6 -1 11 2 17 5 13 3 -3 4 -12 1 -19z m-294 -3
c-3 -9 -8 -14 -10 -11 -3 3 -2 9 2 15 9 16 15 13 8 -4z m202 -56 c-12 -27 -14
-29 -12 -9 5 33 20 67 24 54 2 -6 -3 -26 -12 -45z m-4395 21 c0 -5 -2 -10 -4
-10 -3 0 -8 5 -11 10 -3 6 -1 10 4 10 6 0 11 -4 11 -10z m4327 -12 c-3 -8 -6
-5 -6 6 -1 11 2 17 5 13 3 -3 4 -12 1 -19z m-4296 -29 c20 -23 15 -51 -7 -42
-9 3 -13 12 -10 19 3 8 1 14 -4 14 -6 0 -10 7 -10 15 0 21 9 19 31 -6z m4546
-1 c-3 -8 -6 -5 -6 6 -1 11 2 17 5 13 3 -3 4 -12 1 -19z m107 -10 c2 -10 -1
-18 -7 -18 -6 0 -7 -3 -4 -7 4 -3 -3 -18 -15 -31 -13 -14 -17 -22 -10 -18 11
7 11 4 1 -12 -7 -12 -17 -19 -21 -16 -9 6 -4 -54 5 -63 4 -3 -2 -18 -13 -33
-11 -16 -20 -33 -20 -40 0 -6 -5 -8 -10 -5 -8 5 -7 11 0 20 7 8 9 18 6 23 -3
6 1 15 9 22 8 7 15 17 15 22 0 7 -5 6 -13 -1 -8 -6 -18 -7 -22 -3 -5 4 -5 2
-2 -5 4 -6 4 -19 1 -28 -5 -13 -8 -14 -15 -3 -7 10 -9 9 -9 -4 0 -10 -5 -18
-10 -18 -7 0 -7 6 -1 19 6 10 8 28 6 40 -3 14 0 19 7 15 8 -5 9 -1 5 10 -4 10
-3 15 3 11 6 -3 10 0 10 7 1 8 6 6 15 -6 13 -18 14 -18 12 2 -1 14 -7 19 -19
17 -22 -5 -22 -6 -1 41 9 22 16 43 15 47 -1 4 7 3 17 -3 17 -8 22 -6 32 12 11
20 10 21 -3 10 -13 -10 -17 -10 -21 2 -4 10 2 13 23 12 19 0 31 -7 34 -18z
m-4235 -17 c12 -8 12 -12 2 -25 -7 -9 -11 -25 -8 -36 3 -11 2 -20 -3 -20 -4 0
-10 10 -13 23 -3 12 -9 32 -12 45 -8 24 8 30 34 13z m4490 -28 c-31 -39 -49
-56 -49 -46 0 10 48 63 58 63 2 0 -2 -8 -9 -17z m1846 -25 c-3 -43 7 -60 16
-28 6 21 7 19 8 -13 1 -23 -3 -36 -9 -32 -5 3 -10 -1 -10 -10 0 -9 5 -13 10
-10 6 3 10 -3 10 -15 0 -12 -4 -18 -10 -15 -5 3 -10 1 -10 -4 0 -6 5 -11 10
-11 7 0 10 -20 9 -47 -2 -39 -9 -54 -33 -76 -39 -37 -106 -72 -106 -55 0 9 -3
9 -12 0 -8 -8 -16 -8 -23 -2 -8 7 -19 4 -35 -10 -17 -15 -21 -27 -18 -52 4
-25 0 -36 -18 -51 -50 -39 -46 -160 6 -197 26 -19 70 -24 70 -8 0 4 7 8 15 8
21 0 20 -52 -6 -188 -18 -96 -27 -122 -63 -176 -55 -86 -68 -104 -61 -86 4 8
-1 6 -9 -4 -9 -11 -16 -23 -16 -27 0 -12 -67 -47 -78 -40 -6 4 -5 11 4 19 8 7
14 8 14 3 0 -6 7 -8 15 -5 13 5 13 8 -1 21 -10 10 -11 19 -5 27 5 6 9 26 9 43
-1 44 -22 32 -47 -28 -27 -61 -46 -56 -36 8 11 76 7 73 92 73 61 0 122 27 129
57 4 15 -5 62 -24 121 -17 54 -33 106 -36 117 -10 38 -36 190 -36 215 0 34 50
131 64 123 6 -4 5 0 -2 9 -7 9 -21 40 -31 69 -19 53 -14 100 11 115 6 4 7 0 1
-12 -8 -17 -9 -25 -4 -51 0 -4 7 2 15 12 8 11 12 23 9 28 -3 5 3 17 12 27 9
10 17 24 19 32 2 19 16 38 26 38 5 0 7 -9 5 -21 -3 -13 0 -19 8 -16 7 3 11 10
10 16 -2 6 2 11 8 11 5 0 8 4 4 9 -3 5 -1 12 5 16 5 3 10 1 10 -5 0 -6 5 -8
11 -5 7 5 4 14 -8 28 -14 17 -14 19 -1 9 10 -8 19 -9 22 -3 3 5 0 12 -6 15 -7
3 -3 3 9 0 13 -3 31 0 40 6 16 10 16 11 1 6 -10 -3 -20 -1 -23 4 -4 6 0 10 8
10 8 0 25 9 38 20 13 10 24 19 25 20 0 0 0 -15 -1 -32z m-6695 8 c0 -3 -4 -8
-10 -11 -5 -3 -10 -1 -10 4 0 6 5 11 10 11 6 0 10 -2 10 -4z m370 -71 c0 -14
0 -28 1 -32 0 -4 -4 -9 -10 -11 -5 -2 -9 12 -8 32 2 40 17 50 17 11z m6081
-18 c-10 -9 -11 -8 -5 6 3 10 9 15 12 12 3 -3 0 -11 -7 -18z m-4986 -48 c17
-5 47 -25 67 -43 34 -31 37 -38 28 -62 -6 -15 -8 -34 -6 -43 3 -9 -4 -32 -14
-51 l-19 -35 -1 42 c0 37 -26 162 -36 172 -2 3 -1 -17 2 -43 7 -47 6 -48 -14
-37 -16 8 -22 21 -22 45 0 39 -21 60 -53 54 -13 -2 -29 2 -36 9 -10 11 -5 12
31 7 24 -3 57 -10 73 -15z m4983 -8 c-7 -9 -13 -18 -15 -20 -1 -2 -1 5 0 16 0
11 7 20 14 20 10 0 10 -4 1 -16z m-2037 -18 c-12 -20 -14 -14 -5 12 4 9 9 14
11 11 3 -2 0 -13 -6 -23z m2012 -39 c-3 -9 -7 -29 -8 -43 -1 -24 -5 -26 -37
-23 -28 2 -38 -2 -41 -15 -4 -16 -5 -16 -6 -1 0 9 11 23 27 30 15 7 27 18 27
25 0 6 4 15 9 20 5 5 6 3 2 -4 -4 -7 -2 -13 3 -13 6 0 11 9 11 20 0 11 4 20
10 20 5 0 7 -7 3 -16z m-1923 -28 c0 -3 -4 -8 -10 -11 -5 -3 -10 -1 -10 4 0 6
5 11 10 11 6 0 10 -2 10 -4z m-17 -51 c-3 -9 -8 -14 -10 -11 -3 3 -2 9 2 15 9
16 15 13 8 -4z m281 -16 c-9 -10 -14 -25 -11 -34 4 -8 1 -14 -6 -12 -7 1 -10
-5 -9 -13 2 -8 0 -12 -4 -7 -4 4 -16 -1 -27 -10 -20 -18 -20 -18 -2 12 44 72
60 93 68 88 4 -3 1 -13 -9 -24z m77 8 c-10 -9 -11 -8 -5 6 3 10 9 15 12 12 3
-3 0 -11 -7 -18z m-4478 -146 c-5 -7 -83 72 -83 84 0 5 19 -10 43 -35 23 -25
41 -47 40 -49z m57 43 c0 -10 -14 -34 -19 -34 -12 0 -28 43 -23 63 3 17 5 16
23 -4 10 -12 19 -23 19 -25z m4400 10 c0 -8 -4 -12 -10 -9 -5 3 -10 13 -10 21
0 8 5 12 10 9 6 -3 10 -13 10 -21z m1290 12 c0 -6 5 -4 10 4 8 13 11 13 24 0
13 -13 11 -20 -20 -57 -20 -24 -42 -43 -50 -43 -9 0 -12 5 -9 10 4 6 10 8 14
6 4 -3 7 16 7 43 -1 32 3 48 12 48 6 0 12 -5 12 -11z m523 -48 c-40 -105 -43
-110 -56 -105 -7 2 -12 24 -12 57 0 43 -4 54 -20 62 -17 7 -17 8 6 5 14 -2 31
2 37 10 7 7 22 13 32 13 11 0 20 5 20 10 0 6 4 10 9 10 5 0 -2 -28 -16 -62z
m-2092 39 c-8 -10 -7 -17 2 -26 9 -10 9 -12 -2 -9 -8 2 -17 -5 -19 -16 -3 -13
0 -16 9 -10 7 4 0 -10 -16 -30 -35 -46 -44 -33 -16 23 12 22 21 47 21 55 0 8
6 17 13 19 19 8 20 8 8 -6z m-2994 -69 c0 -7 -9 -22 -19 -32 -18 -19 -18 -19
-18 2 0 16 15 34 36 42 0 0 1 -6 1 -12z m-1522 -58 c3 -5 1 -10 -4 -10 -6 0
-11 5 -11 10 0 6 2 10 4 10 3 0 8 -4 11 -10z m4517 -14 c6 4 5 -2 -1 -15 -15
-27 -16 -27 -17 7 -1 15 1 21 3 14 3 -6 9 -9 15 -6z m-3016 -15 c0 -12 -9 -21
-23 -24 -25 -5 -31 11 -11 31 18 18 34 15 34 -7z m-1293 -171 c-3 -11 -9 -23
-14 -26 -10 -6 -12 39 -3 49 12 12 22 -3 17 -23z m27 -21 c0 -11 4 -18 9 -15
5 3 16 -5 25 -19 9 -14 12 -25 6 -25 -5 0 -10 6 -10 13 -1 7 -6 5 -14 -6 -14
-17 -15 -17 -22 5 -4 13 -7 26 -6 31 1 4 -2 7 -8 7 -5 0 -7 7 -4 15 9 22 24
18 24 -6z m4271 -26 c-12 -20 -14 -14 -5 12 4 9 9 14 11 11 3 -2 0 -13 -6 -23z
m-4185 -46 c8 3 14 0 14 -7 0 -6 -8 -10 -17 -8 -10 1 -24 -1 -31 -6 -12 -7
-12 -4 -1 15 7 14 14 19 16 12 3 -7 11 -9 19 -6z m31 -63 c-3 -3 -12 -4 -19
-1 -8 3 -5 6 6 6 11 1 17 -2 13 -5z m4 -38 c5 3 7 10 4 15 -4 5 2 6 11 2 10
-4 13 -8 7 -10 -7 -3 -9 -12 -6 -21 4 -13 3 -14 -5 -4 -5 8 -13 13 -18 12 -5
0 -9 5 -10 12 -1 10 0 10 3 0 3 -7 9 -10 14 -6z m6109 -21 c0 -21 -17 -45 -32
-45 -9 0 -6 27 7 68 6 18 10 20 16 10 5 -7 9 -22 9 -33z m-430 11 c0 -2 -7 -7
-16 -10 -8 -3 -12 -2 -9 4 6 10 25 14 25 6z m-4781 -45 c9 -6 10 -11 2 -15 -6
-4 -11 -2 -11 4 0 6 -4 8 -10 5 -5 -3 -10 -1 -10 4 0 13 10 14 29 2z m3734
-138 c3 -39 8 -76 12 -83 4 -6 2 -16 -3 -23 -13 -17 -21 -67 -10 -67 5 0 6 -6
1 -12 -4 -7 -8 -22 -8 -33 -1 -11 -7 -40 -15 -65 -7 -25 -13 -48 -12 -52 1 -5
-2 -8 -7 -8 -4 0 -7 -16 -6 -35 1 -25 -2 -34 -11 -31 -8 3 -11 0 -8 -8 3 -7 1
-23 -4 -36 l-9 -24 -17 27 c-17 26 -17 30 13 135 42 148 71 287 71 346 0 71 8
52 13 -31z m-3257 5 l29 -33 -32 29 c-31 28 -38 36 -30 36 2 0 16 -15 33 -32z
m2681 -10 c-3 -8 -6 -5 -6 6 -1 11 2 17 5 13 3 -3 4 -12 1 -19z m-10 -50 c-3
-8 -6 -5 -6 6 -1 11 2 17 5 13 3 -3 4 -12 1 -19z m-4888 -44 c-10 -12 -9 -18
4 -32 11 -10 17 -12 17 -4 0 7 5 12 12 12 9 0 9 -3 0 -12 -17 -17 -15 -33 3
-18 8 7 15 9 15 6 0 -4 -7 -14 -15 -22 -9 -9 -15 -11 -15 -4 0 6 -4 9 -9 6 -5
-3 -8 2 -7 11 0 9 -5 18 -12 20 -7 3 -10 -1 -7 -9 4 -9 -2 -14 -15 -14 -20 0
-28 21 -11 28 5 2 11 12 13 23 3 23 18 36 31 28 4 -2 3 -11 -4 -19z m6851 6
c-6 -11 -13 -20 -16 -20 -2 0 0 9 6 20 6 11 13 20 16 20 2 0 0 -9 -6 -20z
m-44 -85 c-36 -61 -44 -57 -10 5 15 28 29 48 32 46 2 -3 -8 -26 -22 -51z
m-5975 32 c21 3 39 2 39 -3 0 -5 -23 -10 -50 -12 -42 -2 -50 0 -50 15 0 12 3
14 11 6 6 -6 28 -9 50 -6z m-620 -20 c-10 -9 -11 -8 -5 6 3 10 9 15 12 12 3
-3 0 -11 -7 -18z m-369 -5 c-10 -3 -10 -7 -2 -17 9 -11 7 -14 -9 -12 -11 0
-19 6 -18 11 3 18 22 34 32 28 5 -3 4 -7 -3 -10z m347 -5 c7 -10 10 -21 7 -24
-3 -4 -6 -1 -6 6 0 7 -6 11 -14 8 -8 -3 -16 2 -19 13 -6 24 13 22 32 -3z m98
-6 c0 -11 -6 -17 -14 -14 -16 6 -17 20 0 26 6 3 13 6 14 6 1 1 1 -8 0 -18z
m-313 -6 c-4 -8 -10 -12 -15 -9 -14 8 -10 24 6 24 9 0 12 -6 9 -15z m146 11
c0 -3 -4 -8 -10 -11 -5 -3 -10 -1 -10 4 0 6 5 11 10 11 6 0 10 -2 10 -4z
m6660 -6 c0 -6 -7 -13 -16 -17 -8 -3 -13 -12 -10 -19 3 -9 -2 -14 -13 -14 -13
0 -18 7 -17 23 1 15 7 21 19 19 9 -2 17 2 17 8 0 5 5 10 10 10 6 0 10 -5 10
-10z m-6690 -4 c0 -2 -7 -6 -15 -10 -8 -3 -15 -1 -15 4 0 6 7 10 15 10 8 0 15
-2 15 -4z m6617 -28 c-3 -8 -6 -5 -6 6 -1 11 2 17 5 13 3 -3 4 -12 1 -19z
m-5063 -10 c-3 -5 -12 -7 -20 -4 -8 3 -13 0 -11 -5 3 -14 -121 -84 -131 -75
-9 10 79 93 103 98 29 6 66 -3 59 -14z m5002 -44 c-4 -10 -2 -13 7 -7 6 4 23
8 37 9 14 0 35 4 48 8 22 7 21 4 -16 -71 -22 -43 -49 -89 -61 -103 l-21 -25
-6 23 c-5 17 -12 22 -25 19 -13 -3 -17 -1 -12 6 4 6 6 25 5 41 -2 26 33 116
45 116 3 0 2 -7 -1 -16z m-7016 -8 c0 -3 -4 -8 -10 -11 -5 -3 -10 -1 -10 4 0
6 5 11 10 11 6 0 10 -2 10 -4z m6660 -171 l55 -17 -1 -167 c-1 -188 -12 -331
-25 -331 -5 0 -14 -11 -21 -25 -17 -37 -41 -16 -63 55 l-19 62 -33 -7 c-21 -4
-33 -2 -33 5 0 6 -5 8 -10 5 -6 -4 -8 -11 -4 -16 3 -5 0 -17 -7 -25 -6 -8 -9
-17 -6 -21 4 -3 0 -15 -8 -26 -12 -16 -12 -24 -2 -36 11 -14 10 -14 -5 -2 -15
11 -21 11 -33 1 -19 -16 -19 -47 -1 -82 20 -37 13 -35 -31 10 -29 29 -73 105
-78 132 -2 12 -28 86 -34 95 -3 6 -7 17 -8 25 -23 144 -30 254 -13 215 5 -11
9 -15 9 -10 1 10 29 -36 50 -83 17 -37 36 -51 52 -41 12 8 12 10 -1 19 -10 6
-11 10 -2 10 6 0 11 6 10 13 -2 7 5 11 16 9 17 -3 18 -1 7 12 -11 13 -10 18 2
30 8 8 17 12 21 9 6 -7 10 26 6 66 -1 13 3 21 8 17 8 -5 16 9 26 44 0 3 11 19
23 36 14 20 19 35 13 44 -15 24 11 30 49 10 20 -9 61 -25 91 -35z m326 -20
c-11 -8 -27 -15 -35 -15 -9 1 -2 7 14 15 39 18 44 18 21 0z m-69 -21 c-3 -3
-12 -4 -19 -1 -8 3 -5 6 6 6 11 1 17 -2 13 -5z m-472 -93 c3 -5 1 -12 -5 -16
-5 -3 -10 1 -10 9 0 18 6 21 15 7z m-6691 -266 c-4 -8 -8 -15 -10 -15 -2 0 -4
7 -4 15 0 8 4 15 10 15 5 0 7 -7 4 -15z m14 -120 c-3 -3 -9 2 -12 12 -6 14 -5
15 5 6 7 -7 10 -15 7 -18z m-202 -178 c2 -15 1 -27 -4 -27 -16 0 -22 13 -11
27 9 9 8 13 0 13 -6 0 -11 8 -11 17 0 25 20 2 26 -30z m28 -2 c3 -8 1 -15 -4
-15 -6 0 -10 7 -10 15 0 8 2 15 4 15 2 0 6 -7 10 -15z m7255 -61 c8 -23 10
-39 3 -46 -9 -9 -16 8 -27 65 -7 31 11 18 24 -19z m-7309 -68 c0 -3 -4 -8 -10
-11 -5 -3 -10 -1 -10 4 0 6 5 11 10 11 6 0 10 -2 10 -4z m7040 -530 c0 -1 -9
-2 -21 -2 -11 0 -30 13 -41 29 l-21 29 42 -27 c22 -15 41 -28 41 -29z m25 -15
c3 -5 2 -12 -3 -15 -5 -3 -9 1 -9 9 0 17 3 19 12 6z m16 -71 c6 0 7 5 3 12 -4
7 -3 8 5 4 6 -4 9 -11 6 -16 -8 -12 30 -31 48 -24 10 3 18 -2 22 -15 7 -24 22
-28 22 -6 0 8 -4 12 -8 10 -3 -3 -9 5 -12 17 -4 12 -9 19 -13 16 -3 -4 -18 4
-32 17 -14 13 -29 22 -34 19 -4 -3 -5 2 -2 10 5 13 14 11 59 -11 30 -15 52
-30 49 -35 -3 -4 2 -11 11 -14 8 -4 22 -18 30 -33 l14 -26 1 28 c0 15 -5 27
-12 27 -6 0 -9 2 -6 5 2 3 38 -7 79 -21 88 -32 192 -41 283 -25 81 14 107 5
104 -39 -1 -16 -8 -32 -16 -35 -7 -3 -11 -9 -7 -15 3 -5 -12 -12 -35 -16 -23
-4 -37 -10 -31 -13 6 -4 7 -12 1 -21 -6 -8 -10 -19 -10 -25 0 -5 4 -5 8 2 5 8
12 3 19 -17 9 -23 8 -28 0 -23 -7 4 -4 -4 6 -17 9 -14 20 -32 24 -40 4 -8 17
-25 30 -37 13 -12 23 -27 23 -33 0 -6 5 -8 10 -5 6 4 7 12 4 18 -4 7 -3 8 2 4
5 -5 9 -14 9 -20 1 -7 7 -11 14 -9 7 1 10 -2 6 -8 -7 -11 17 -40 34 -40 6 0
22 -18 36 -41 23 -35 28 -39 43 -27 8 7 13 8 9 2 -8 -13 16 -37 26 -27 4 3 7
-1 7 -10 0 -9 6 -16 13 -14 6 1 11 -4 9 -12 -2 -9 3 -11 13 -7 9 3 18 0 21 -9
3 -8 14 -17 25 -20 11 -4 17 -11 14 -16 -5 -8 7 -13 27 -11 3 1 12 -5 18 -13
7 -8 19 -15 26 -15 8 0 14 -5 14 -12 0 -6 3 -9 6 -5 3 3 17 -6 30 -20 13 -14
28 -22 35 -17 7 4 9 3 6 -3 -4 -6 6 -16 23 -22 17 -5 30 -15 30 -20 0 -6 7
-11 15 -11 9 0 18 -7 21 -15 4 -8 12 -15 18 -15 18 0 119 -101 143 -143 l21
-35 -136 -111 c-76 -61 -186 -153 -247 -206 -60 -52 -118 -98 -128 -101 -11
-3 -27 2 -37 11 -12 11 -28 15 -41 12 -11 -3 -27 -3 -35 0 -11 4 -10 9 3 30
14 21 14 26 2 33 -8 6 -18 5 -23 0 -6 -6 -28 28 -59 91 -27 55 -50 106 -51
112 -9 50 -35 78 -37 40 0 -12 -2 -13 -6 -5 -3 7 0 19 7 26 7 10 8 16 0 21 -5
3 -10 1 -10 -6 0 -7 -3 -9 -7 -6 -3 4 1 15 11 26 15 16 15 19 1 31 -8 7 -15
25 -15 41 0 31 -20 41 -21 12 0 -10 -7 0 -15 21 -8 22 -12 41 -10 44 3 2 8 -8
12 -22 5 -21 9 -24 20 -15 9 7 12 20 8 33 -4 12 -7 27 -7 35 0 8 -9 16 -20 19
-14 4 -16 7 -5 13 11 7 10 10 -1 21 -12 11 -13 10 -6 -2 5 -8 5 -12 0 -8 -4 4
-15 2 -24 -5 -14 -10 -14 -10 -4 4 7 9 9 20 5 24 -4 5 -1 5 6 1 15 -9 15 -1 1
26 -8 15 -8 23 2 32 9 8 11 7 6 -5 -3 -9 0 -16 9 -16 7 0 11 4 8 9 -3 4 -12
20 -21 36 -12 23 -14 23 -10 4 3 -12 1 -20 -4 -16 -5 3 -9 12 -9 20 0 8 -5 12
-10 9 -6 -4 -8 -11 -5 -16 10 -15 -2 -10 -16 8 -10 11 -10 14 -1 9 6 -4 12 -2
12 3 0 6 -4 11 -9 11 -5 0 -13 9 -16 20 -4 11 -11 17 -17 14 -6 -4 -8 -2 -5 3
4 6 -2 13 -13 16 -11 3 -20 2 -20 -1 1 -12 67 -112 71 -107 3 2 5 -5 5 -17 0
-15 -2 -17 -9 -7 -4 8 -64 106 -134 219 -69 113 -126 211 -126 218 0 6 -3 12
-7 12 -14 0 -101 141 -94 152 4 6 3 9 -2 5 -5 -3 -24 17 -42 44 -18 27 -30 49
-28 49 2 0 24 -11 49 -25 51 -29 207 -88 214 -81 2 2 -13 10 -34 16 -119 39
-293 147 -293 182 0 5 12 -4 26 -21 14 -17 30 -31 35 -31z m716 3 c0 -21 2
-47 4 -57 6 -31 -17 -29 -40 3 l-21 29 27 30 c16 16 28 30 28 31 1 0 1 -16 2
-36z m3153 -278 c7 -8 10 -25 6 -38 -5 -20 -206 -254 -320 -372 l-39 -40 32
38 c17 21 28 43 25 49 -4 6 -3 8 3 5 6 -4 16 -1 22 7 9 10 8 16 -4 26 -13 11
-15 10 -10 -1 2 -8 -7 -23 -22 -33 -16 -12 -23 -14 -18 -5 5 8 -3 4 -17 -8
-13 -13 -29 -23 -34 -23 -16 0 -64 -24 -64 -32 0 -5 -6 -8 -14 -8 -8 0 -17 14
-21 31 -5 23 -11 29 -23 24 -10 -4 -33 -12 -52 -17 -19 -6 -40 -18 -47 -27 -8
-10 -15 -12 -20 -6 -11 14 -43 18 -43 5 0 -5 6 -10 13 -10 25 0 127 -109 127
-136 0 -4 -18 9 -40 31 -39 38 -56 43 -44 11 3 -9 12 -16 19 -16 8 0 23 -12
35 -27 26 -33 36 -35 70 -15 25 15 25 15 7 -5 -18 -20 -18 -23 8 -73 14 -28
25 -63 23 -78 -3 -24 -4 -25 -20 -9 -10 10 -19 13 -23 7 -12 -20 -47 28 -52
72 -4 37 -9 44 -26 44 -14 -1 -26 9 -36 29 -8 17 -25 43 -38 59 -14 16 -22 37
-20 47 3 11 -6 30 -20 45 -25 27 -19 43 15 44 8 0 12 5 10 11 -2 6 -7 9 -12 7
-5 -2 -13 8 -18 22 -7 19 -5 27 8 37 10 7 14 13 9 13 -7 0 27 33 50 48 6 4 16
19 22 34 8 17 25 30 50 38 21 7 42 19 46 26 4 8 14 14 21 14 8 0 19 7 26 15 6
7 33 17 58 20 26 4 57 11 69 17 32 16 223 12 223 -4 0 -19 39 -5 66 23 l29 30
-332 -4 c-183 -2 -333 -2 -333 0 0 2 7 17 15 33 l15 29 153 4 c433 8 474 8
487 -8z m-730 -39 c0 -8 -14 -26 -31 -40 -55 -47 -82 -26 -32 26 28 30 63 37
63 14z m-122 -125 c-52 -57 -179 -202 -268 -305 -52 -60 -138 -156 -192 -214
-53 -57 -112 -126 -130 -153 -19 -28 -41 -49 -51 -49 -18 0 -18 1 0 24 10 13
63 73 118 132 55 60 136 151 180 203 96 114 298 347 326 378 12 13 25 20 31
17 5 -4 -1 -18 -14 -33z m-2518 -416 c0 -5 -5 -3 -10 5 -5 8 -10 20 -10 25 0
6 5 3 10 -5 5 -8 10 -19 10 -25z m-5527 -142 c-7 -2 -19 -2 -25 0 -7 3 -2 5
12 5 14 0 19 -2 13 -5z m5611 -118 c-4 -8 -8 -15 -10 -15 -2 0 -4 7 -4 15 0 8
4 15 10 15 5 0 7 -7 4 -15z m-5496 -83 c-14 -9 -40 -27 -57 -40 -17 -13 -31
-18 -31 -12 0 11 87 70 104 70 6 0 -1 -8 -16 -18z m8178 -81 c-31 -61 -32 -85
-6 -142 11 -24 20 -55 20 -68 0 -24 -2 -23 -37 15 -27 29 -40 55 -50 99 -25
110 -27 135 -11 135 9 0 22 -9 29 -21 14 -21 14 -21 44 8 17 16 31 28 33 27 2
-1 -8 -25 -22 -53z m-115 -14 c-10 -9 -11 -8 -5 6 3 10 9 15 12 12 3 -3 0 -11
-7 -18z m-2418 -52 c-5 -13 -23 -22 -23 -11 0 15 14 35 21 31 4 -3 6 -12 2
-20z m1510 -2 c-7 -2 -19 -2 -25 0 -7 3 -2 5 12 5 14 0 19 -2 13 -5z m139
-115 c-2 -15 -8 -28 -11 -28 -4 0 -8 13 -8 28 0 16 5 29 12 29 6 0 9 -12 7
-29z m48 14 c0 -13 -12 -22 -22 -16 -10 6 -1 24 13 24 5 0 9 -4 9 -8z m664
-85 c68 -64 77 -76 68 -93 -6 -10 -14 -36 -17 -56 -3 -21 -9 -40 -14 -42 -4
-3 -6 6 -3 19 5 28 -12 55 -37 55 -9 0 -23 11 -33 24 -16 22 -59 118 -73 164
-6 21 -5 22 12 13 10 -6 53 -44 97 -84z m-609 61 c29 -13 32 -37 7 -67 l-17
-22 -23 21 c-29 27 -30 80 -1 80 5 0 20 -5 34 -12z m-7333 -14 c30 -16 31 -17
13 -30 -42 -31 -97 -10 -81 31 7 19 29 19 68 -1z m-3282 -54 c0 -5 -12 -10
-27 -10 -39 -1 -109 -34 -162 -78 -35 -28 -42 -31 -28 -12 27 38 147 110 185
110 17 0 32 -4 32 -10z m54 -127 c14 -34 26 -68 26 -75 0 -23 -57 86 -64 122
-9 48 7 28 38 -47z m10121 15 c-3 6 -1 12 5 12 19 0 23 -31 6 -48 -12 -12 -16
-13 -16 -3 0 8 -6 11 -15 7 -9 -3 -18 1 -21 9 -4 8 -11 12 -16 9 -6 -4 -9 -1
-6 7 3 8 10 14 16 14 5 0 14 3 18 7 4 4 13 0 21 -10 8 -9 12 -11 8 -4z m115
-4 c15 -15 4 -37 -25 -51 -20 -9 -25 -8 -25 3 0 8 -6 13 -12 12 -21 -5 -22 40
-1 45 26 6 52 2 63 -9z m745 -55 c-10 -15 -25 -10 -19 6 4 8 10 12 15 9 5 -3
7 -10 4 -15z m55 -93 c0 -7 -8 -20 -17 -27 -16 -13 -17 -12 -5 3 8 9 11 22 7
28 -3 5 -1 10 4 10 6 0 11 -6 11 -14z m-1840 -126 c0 -5 -8 -10 -17 -10 -15 0
-16 2 -3 10 19 12 20 12 20 0z m16 -439 c11 9 14 9 14 0 0 -7 4 -10 9 -7 4 3
19 -3 31 -14 18 -16 25 -17 31 -8 11 18 60 -9 133 -75 57 -51 59 -55 64 -110
2 -31 1 -57 -4 -57 -5 0 -65 -7 -134 -15 -69 -8 -170 -15 -225 -15 -99 0 -100
0 -112 27 -7 15 -13 40 -13 56 0 16 -4 26 -10 22 -6 -4 -10 14 -11 47 -1 46
-2 49 -9 23 l-9 -30 2 29 c3 41 21 43 40 4 13 -25 17 -28 17 -13 1 12 8 3 20
-25 10 -25 20 -40 21 -35 1 6 3 15 4 20 2 6 3 17 4 25 1 13 2 13 11 0 6 -10 8
2 7 39 -2 46 1 54 17 57 10 1 23 9 27 16 6 9 9 3 9 -17 1 -27 2 -28 10 -9 5
12 14 25 21 30 8 5 10 3 4 -6 -5 -9 -4 -11 3 -6 7 4 10 19 7 34 -3 15 -2 21 1
14 5 -10 9 -10 20 -1z m-7756 -311 c0 -5 -5 -10 -11 -10 -5 0 -7 5 -4 10 3 6
8 10 11 10 2 0 4 -4 4 -10z"/>
<path d="M3720 7520 c0 -5 7 -10 15 -10 8 0 15 5 15 10 0 6 -7 10 -15 10 -8 0
-15 -4 -15 -10z"/>
<path d="M3615 7430 c-3 -5 -1 -10 4 -10 6 0 11 5 11 10 0 6 -2 10 -4 10 -3 0
-8 -4 -11 -10z"/>
<path d="M3485 7350 c-3 -5 -2 -17 3 -26 8 -14 10 -12 10 9 0 29 -3 33 -13 17z"/>
<path d="M8345 6681 c-3 -5 -2 -12 3 -15 5 -3 9 1 9 9 0 17 -3 19 -12 6z"/>
<path d="M3366 6582 c-3 -5 1 -9 9 -9 8 0 12 4 9 9 -3 4 -7 8 -9 8 -2 0 -6 -4
-9 -8z"/>
<path d="M8130 6480 c-6 -11 -8 -20 -6 -20 3 0 10 9 16 20 6 11 8 20 6 20 -3
0 -10 -9 -16 -20z"/>
<path d="M5066 4763 c-6 -14 -5 -15 5 -6 7 7 10 15 7 18 -3 3 -9 -2 -12 -12z"/>
<path d="M3512 4656 c1 -14 5 -23 9 -20 7 4 0 44 -7 44 -2 0 -3 -11 -2 -24z"/>
<path d="M3535 4670 c3 -5 8 -10 11 -10 2 0 4 5 4 10 0 6 -5 10 -11 10 -5 0
-7 -4 -4 -10z"/>
<path d="M3465 4630 c-3 -5 -1 -18 4 -27 6 -10 11 -12 11 -5 0 6 5 12 11 12 5
0 8 -3 6 -7 -3 -5 6 -9 19 -9 25 -2 33 11 12 18 -7 3 -23 4 -36 3 -15 -1 -21
3 -18 12 6 15 0 18 -9 3z"/>
<path d="M3230 4555 c-10 -12 -10 -15 1 -15 12 0 12 -2 0 -9 -7 -5 -10 -14 -7
-20 12 -19 25 -2 23 29 -2 35 -1 34 -17 15z"/>
<path d="M4870 4515 c-23 -9 -28 -14 -15 -14 11 0 31 6 45 14 31 18 16 18 -30
0z"/>
<path d="M2673 4243 c-7 -2 -13 -9 -13 -14 0 -6 5 -7 11 -3 6 3 3 -6 -7 -22
l-18 -29 21 18 c12 10 23 27 26 38 5 19 2 21 -20 12z"/>
<path d="M2645 4070 c3 -5 11 -10 16 -10 6 0 7 5 4 10 -3 6 -11 10 -16 10 -6
0 -7 -4 -4 -10z"/>
<path d="M2582 4007 c-6 -6 -14 -25 -17 -40 -4 -15 -11 -30 -16 -33 -10 -6 -3
-24 10 -24 4 0 8 7 9 15 1 8 3 22 4 30 1 8 6 15 11 15 6 0 7 3 4 6 -3 4 -2 15
4 25 11 22 6 25 -9 6z"/>
<path d="M2515 3829 c-4 -6 -4 -13 -1 -16 3 -4 6 -1 6 6 0 8 6 11 16 7 8 -3
12 -2 9 4 -8 13 -22 13 -30 -1z"/>
<path d="M2543 3653 c4 -3 2 -12 -4 -19 -7 -8 -6 -14 2 -20 7 -4 9 -3 5 4 -3
6 -2 13 4 17 14 8 13 25 -2 25 -6 0 -8 -3 -5 -7z"/>
<path d="M8336 5763 c-6 -14 -5 -15 5 -6 7 7 10 15 7 18 -3 3 -9 -2 -12 -12z"/>
<path d="M8329 5653 c-13 -16 -12 -17 4 -4 16 13 21 21 13 21 -2 0 -10 -8 -17
-17z"/>
<path d="M9650 2691 c0 -6 4 -13 10 -16 6 -3 7 1 4 9 -7 18 -14 21 -14 7z"/>
<path d="M9686 2665 c4 -8 10 -15 15 -15 5 0 9 -8 9 -17 0 -15 2 -16 9 -3 11
17 7 26 -19 40 -16 8 -18 8 -14 -5z"/>
<path d="M9741 2612 c-8 -15 -7 -21 3 -25 17 -7 31 22 17 36 -6 6 -13 2 -20
-11z"/>
<path d="M9779 2537 c6 -8 7 -18 3 -22 -4 -5 -1 -5 6 -1 10 6 10 11 1 22 -6 8
-14 14 -16 14 -3 0 0 -6 6 -13z"/>
<path d="M9808 2487 c8 -9 11 -26 7 -39 -5 -18 -4 -20 4 -8 10 13 12 13 21 0
5 -8 8 -21 5 -27 -6 -18 -2 -16 19 9 15 18 16 20 2 15 -15 -6 -18 -2 -20 33
-1 8 -6 15 -11 15 -6 0 -17 4 -25 10 -13 7 -13 6 -2 -8z"/>
<path d="M9860 2394 c-14 -16 -3 -37 16 -30 16 6 18 -5 4 -22 -7 -9 -7 -9 2
-2 9 7 15 4 24 -11 11 -21 11 -21 25 9 7 17 17 28 23 25 5 -4 6 -1 2 6 -6 9
-14 8 -32 -4 -13 -8 -24 -11 -24 -6 0 5 5 13 10 16 14 9 5 21 -19 28 -11 3
-25 -1 -31 -9z m20 -14 c0 -5 -5 -10 -11 -10 -5 0 -7 5 -4 10 3 6 8 10 11 10
2 0 4 -4 4 -10z"/>
<path d="M9940 2315 c-12 -13 -27 -22 -32 -19 -5 4 -2 -8 6 -25 9 -17 21 -31
27 -31 6 0 8 -4 5 -8 -7 -11 10 -35 26 -38 7 -1 26 -5 42 -8 27 -5 27 -4 12
13 -9 10 -13 22 -9 27 5 5 -2 0 -14 -10 -22 -18 -22 -18 -18 3 2 12 0 19 -4
16 -7 -4 -21 15 -25 35 -1 3 -5 11 -10 18 -5 8 0 20 15 33 12 10 18 19 12 19
-5 0 -20 -11 -33 -25z m-3 -40 c0 -8 -4 -12 -9 -9 -4 3 -8 9 -8 15 0 5 4 9 8
9 5 0 9 -7 9 -15z"/>
<path d="M9993 2288 c1 -15 6 -23 11 -18 4 4 4 16 -2 26 -9 16 -10 14 -9 -8z"/>
<path d="M10041 2166 c-9 -11 -9 -16 0 -22 8 -4 9 -3 5 4 -11 19 5 14 21 -5
12 -16 13 -15 2 7 -16 33 -14 33 -28 16z"/>
<path d="M10115 2020 c10 -11 20 -20 22 -20 2 0 -2 9 -9 20 -7 11 -17 20 -22
20 -5 0 -1 -9 9 -20z"/>
<path d="M13229 2213 c-13 -16 -12 -17 4 -4 16 13 21 21 13 21 -2 0 -10 -8
-17 -17z"/>
<path d="M12795 2160 c3 -5 10 -10 16 -10 5 0 9 5 9 10 0 6 -7 10 -16 10 -8 0
-12 -4 -9 -10z"/>
<path d="M10690 361 c0 -5 5 -13 10 -16 6 -3 10 -2 10 4 0 5 -4 13 -10 16 -5
3 -10 2 -10 -4z"/>
</g>
</svg>
