<svg width="508" height="454" viewBox="0 0 508 454" fill="none" xmlns="http://www.w3.org/2000/svg">
<path d="M432.093 0.157803C431.816 0.307323 431.474 0.691811 431.367 0.990856C431.004 2.01615 431.453 2.50743 433.952 3.83177C442.261 8.21063 450.57 15.4731 456.679 23.7182C460.738 29.1864 464.305 36.1072 466.483 42.7075C466.868 43.8823 467.295 44.9717 467.466 45.1426C467.851 45.5698 468.961 45.5271 469.474 45.0571C470.072 44.5018 470.008 43.6687 469.175 41.1909C463.621 24.8289 451.766 10.4321 436.899 1.97343C433.418 -0.0130806 432.841 -0.226681 432.093 0.157803Z" fill="white"/>
<path d="M401.335 7.29219C388.262 8.33884 375.852 13.978 366.475 23.1629C363.911 25.662 363.634 26.196 364.424 27.1145C365.342 28.1612 365.834 27.9689 368.44 25.4484C376.898 17.2461 386.724 12.4187 398.451 10.6671C401.548 10.1972 407.785 10.0904 411.139 10.4749C421.413 11.5856 431.047 15.6013 439.121 22.1162C443.585 25.7048 448.413 31.2584 451.318 36.1286C453.71 40.123 456.166 46.0825 457.085 50.0768C457.555 52.1061 458.666 52.7682 459.755 51.6789C460.396 51.0594 460.396 50.9099 459.862 48.8166C457.961 41.3832 453.945 33.5226 449.011 27.6485C439.847 16.7121 427.138 9.64182 413.083 7.65531C410.968 7.33491 403.449 7.1213 401.335 7.29219Z" fill="white"/>
<path d="M295.879 8.01867C294.854 8.53131 293.764 9.66341 293.337 10.6887C293.081 11.2868 293.038 14.9821 293.038 31.8568C293.038 52.0422 293.038 52.2985 293.487 53.1957C293.722 53.7083 294.298 54.4559 294.747 54.8618C296.349 56.3143 295.751 56.2716 316.321 56.2716H334.84L337.916 57.6173C339.603 58.3649 342.978 59.7747 345.392 60.7359L349.792 62.5088L349.92 65.5419C350.689 82.6302 359.938 98.864 374.421 108.497C381.619 113.304 389.223 116.209 398.024 117.512C401.506 118.024 410.028 118.024 413.36 117.512C422.31 116.123 429.594 113.346 436.9 108.497C445.166 103.008 451.574 95.7667 455.889 86.9663C458.538 81.6049 460.097 76.692 460.973 71.1383C461.357 68.6819 461.443 67.1653 461.443 62.9787C461.464 58.194 461.443 57.7881 461.058 57.3609C460.545 56.7842 459.413 56.7628 458.922 57.3182C458.58 57.6813 458.538 58.3221 458.495 62.7224C458.409 71.2665 457 77.5251 453.539 84.8516C452.493 87.0731 450.143 91.1316 449.224 92.3064L448.861 92.7977L445.294 91.0034C437.968 87.3508 432.798 86.3041 428.441 87.6498C427.651 87.9062 426.006 88.7392 424.66 89.5936C420.452 92.2209 417.44 93.1821 412.826 93.3744C407.914 93.588 405.137 92.9258 399.028 90.1063C394.029 87.8207 392.876 87.4149 390.761 87.3081C389.223 87.2013 388.796 87.2867 386.596 87.9916C382.879 89.1878 379.547 90.5335 376.13 92.2423C370.918 94.8482 369.273 96.0658 368.205 98.1804L367.735 99.0776L366.71 97.9668C359.255 89.8499 354.449 79.4048 353.167 68.5324C352.804 65.4138 352.761 63.7477 353.039 63.7477C353.146 63.7477 353.573 63.8972 353.979 64.0681C354.406 64.2389 354.983 64.3885 355.261 64.3885C355.859 64.3885 356.692 63.5768 356.692 62.9573C356.692 62.7224 355.965 60.8427 355.068 58.8134C353.189 54.4773 353.189 54.6268 354.427 49.8208C356.051 43.4981 359.084 36.9832 362.694 32.1131C363.911 30.4683 364.082 29.4217 363.271 28.8449C362.053 27.9905 361.37 28.5245 358.934 32.2412C355.581 37.325 353.359 42.3019 351.501 48.9023L351.202 49.9703L349.985 47.4711L348.788 44.9933V28.4605C348.788 18.357 348.703 11.6713 348.575 11.2227C348.126 9.64205 346.716 9.00124 345.777 9.94109C345.413 10.3042 345.349 10.5392 345.499 11.1586C345.584 11.6072 345.712 19.6387 345.777 29.0372L345.905 46.1254L348.276 51.1451C351.33 57.5959 352.42 60.1164 352.206 60.1164C351.886 60.1164 343.47 56.6988 339.24 54.8618L335.118 53.0675H316.321C303.825 53.0675 297.374 53.0034 297.096 52.8539C295.986 52.2558 296.028 53.2811 296.028 31.7499V11.7994L296.648 11.18L297.267 10.5605H319.204C341.27 10.5605 341.739 10.5392 342.209 9.83429C342.508 9.38573 342.38 8.27499 341.996 7.93323C341.633 7.59146 339.732 7.5701 319.183 7.5701C296.883 7.5701 296.776 7.5701 295.879 8.01867Z" fill="white"/>
<path d="M208.665 16.7764C198.967 17.759 189.868 22.0738 182.99 28.9518C180.875 31.0665 177.906 34.954 177.906 35.5735C177.906 36.6415 178.953 37.4318 179.892 37.0687C180.17 36.9619 181.025 36.0007 181.815 34.9327C187.753 26.9439 197.237 21.4116 207.49 19.9377C209.242 19.7028 214.026 19.6387 216.013 19.8523C217.316 20.0018 217.423 19.9805 217.935 19.4678C218.619 18.7843 218.64 18.2289 218.021 17.524C217.593 17.0327 217.273 16.9473 215.308 16.7551C212.809 16.5201 211.271 16.5201 208.665 16.7764Z" fill="white"/>
<path d="M303.889 23.9533C303.718 24.1669 303.504 24.5086 303.44 24.7222C303.27 25.1921 303.782 26.2602 304.252 26.4524C304.444 26.5165 311.814 26.5806 320.614 26.5806H336.634L337.147 26.0466C337.788 25.4271 337.83 24.5941 337.254 24.0173C336.827 23.5901 336.549 23.5901 320.529 23.5901C305.256 23.5901 304.188 23.6115 303.889 23.9533Z" fill="white"/>
<path d="M232.182 25.6194C229.555 26.1961 226.586 27.9263 224.471 30.105C222.399 32.2411 221.353 32.4333 219.153 31.0876C217.508 30.0623 216.077 29.6992 214.453 29.8487C212.317 30.0409 211.1 30.9167 209.348 33.544C208.152 35.3383 207.34 35.7014 204.051 36.0005C197.066 36.5985 195.357 38.4355 192.944 47.8341C190.829 56.1219 189.804 62.5299 189.804 67.5923C189.804 72.7188 190.53 75.1966 192.837 77.9521C196.062 81.7756 196.511 82.7154 196.938 86.7739C197.216 89.2517 197.109 90.9391 196.276 98.6715C195.55 105.379 194.823 115.717 195.016 116.251C195.251 116.871 196.084 117.234 196.81 117.063C197.6 116.871 197.899 115.952 198.07 113.197C198.305 109.138 199.031 101 199.587 96.1083C200.035 92.1353 201.018 86.7098 202.043 82.6513C202.748 79.7677 201.701 77.6957 198.839 76.2432C196.895 75.2607 195.913 72.7188 196.468 70.0915C196.959 67.8059 197.515 67.6564 200.398 68.9594C206.059 71.544 211.014 71.7789 217.786 69.8138C221.716 68.6817 225.668 66.1612 231.029 61.3978C233.55 59.155 233.998 58.9414 235.216 59.4968C235.899 59.7958 237.8 63.6193 238.334 65.734C239.402 69.8992 238.975 78.0802 237.373 84.4883C234.553 95.7879 228.423 102.217 221.652 100.936C219.259 100.509 217.807 99.526 215.97 97.0909C215.372 96.3006 214.731 96.2365 213.919 96.8773C213.193 97.454 213.193 98.223 213.962 99.4405C215.842 102.367 219.943 104.311 223.724 104.076C224.407 104.033 224.899 104.097 224.92 104.225C224.92 104.332 225.005 106.297 225.091 108.583C225.262 112.534 225.304 112.769 225.753 113.132C226.458 113.709 227.355 113.624 227.889 112.94C228.295 112.428 228.316 112.171 228.231 110.334C228.167 109.202 228.06 107.152 227.996 105.785L227.868 103.285L229.427 102.474C232.417 100.914 235.707 97.0482 237.715 92.7334C240.492 86.7952 241.837 80.024 241.859 72.078C241.859 67.9768 241.752 66.567 241.239 64.5805C241.111 64.0252 241.111 64.0252 242.585 63.9184C244.486 63.7688 245.81 63.0639 247.541 61.2697C251.449 57.1899 251.471 50.9954 247.562 46.6379C246.878 45.8689 246.387 45.0786 246.238 44.4805C246.003 43.6047 246.024 43.3911 246.707 41.5114C247.391 39.6317 247.434 39.3327 247.412 36.9403C247.391 34.8684 247.306 34.1208 246.942 33.1168C244.87 27.4991 238.505 24.2523 232.182 25.6194Z" fill="white"/>
<path d="M386.852 27.435C381.939 28.738 378.821 31.942 377.881 36.684C377.219 39.9948 378.244 43.4552 380.508 45.7194C382.174 47.3855 384.866 48.5817 386.981 48.5817C387.856 48.5817 387.92 48.6244 387.814 49.0516C386.575 53.9431 386.511 64.5164 387.664 70.1556C388.753 75.517 392.278 78.4861 397.511 78.4861H399.156L399.284 79.1482C399.348 79.5114 399.412 81.092 399.412 82.6513C399.412 85.0864 399.476 85.5563 399.797 85.9835C400.309 86.5816 401.356 86.6243 401.997 86.0476C402.424 85.6631 402.445 85.4922 402.381 81.5406L402.296 77.4394L403.257 76.7772C404.475 75.9015 404.752 75.5597 404.752 74.8335C404.752 74.1713 403.898 73.3596 403.214 73.3596C403.001 73.3596 402.339 73.68 401.762 74.0858C400.245 75.1325 399.348 75.3888 397.276 75.3888C394.35 75.3888 392.641 74.3635 391.402 71.9285C389.565 68.2331 389.245 56.8267 390.783 49.671C391.146 47.9836 391.167 47.9622 392.192 47.3214C392.769 46.9583 393.303 46.6592 393.367 46.6592C393.41 46.6592 393.859 47.001 394.328 47.4068C395.332 48.2399 397.276 48.9661 398.985 49.0943C400.907 49.2652 407.187 49.6283 408.405 49.6497C408.49 49.6497 408.597 50.141 408.683 50.7391C408.982 53.0032 410.498 56.3782 412.613 59.5395C414.364 62.1454 415.539 62.8076 416.607 61.7182C417.184 61.1629 417.269 60.7357 416.949 60.1376C416.522 59.3686 417.782 57.7666 418.807 57.7666C419.769 57.7666 421.114 58.7278 421.648 59.8385C422.075 60.7357 422.097 60.9279 421.883 61.9746C421.584 63.363 420.11 65.5631 419.128 66.0971C417.739 66.8447 417.718 66.8874 417.867 68.7671C417.932 69.707 418.081 71.4372 418.209 72.612C418.359 74.1286 418.359 75.6238 418.188 77.7385L417.953 80.7075L418.508 81.1988C419.79 82.2882 420.858 81.4765 421.136 79.2123C421.349 77.3326 421.306 71.9712 421.029 70.1769L420.837 68.8099L422.054 67.5923C422.866 66.7806 423.571 65.7767 424.105 64.7087C424.831 63.2135 424.916 62.8717 424.938 61.4192C424.938 59.454 424.617 58.5142 423.549 57.1471L422.738 56.1218L423.229 54.413C425.023 48.2399 424.041 43.7329 420.132 40.2084C419.384 39.5249 418.829 38.9268 418.871 38.8841C418.914 38.8414 419.427 38.7346 420.004 38.6278C421.798 38.3074 422.396 36.7053 421.05 35.8082C420.559 35.5092 420.367 35.4878 418.914 35.7869L417.312 36.1286L417.419 35.082C417.504 34.5052 417.462 33.8217 417.355 33.544C417.12 32.8819 416.03 32.4974 415.326 32.8178C414.706 33.0955 414.535 33.5013 414.386 35.3383C414.258 36.6626 414.236 36.7267 413.724 36.684C413.425 36.6413 411.694 36.5772 409.879 36.5131C408.063 36.449 406.269 36.2995 405.884 36.1713C405.479 36.0432 404.795 35.4664 404.197 34.7402C401.527 31.5148 399.263 29.6351 396.614 28.4176C393.602 27.0291 389.864 26.6446 386.852 27.435Z" fill="white"/>
<path d="M307.371 37.6025C307.114 37.9229 306.922 38.3288 306.922 38.5424C306.922 38.756 307.114 39.1618 307.371 39.4822L307.798 40.0376H318.798C329.5 40.0376 329.799 40.0162 330.205 39.6104C330.44 39.3754 330.632 38.9055 330.632 38.5424C330.632 38.1793 330.44 37.7093 330.205 37.4744C329.799 37.0685 329.5 37.0472 318.798 37.0472H307.798L307.371 37.6025Z" fill="white"/>
<path d="M43.6352 46.3179C42.5886 46.6383 41.3924 47.3218 41.4565 47.5568C41.7983 48.4966 78.1535 72.5697 79.8196 72.9541C81.4857 73.3173 80.8876 73.7445 100.261 58.835C105.559 54.7765 111.176 50.4618 112.757 49.2442C114.338 48.0267 115.662 46.98 115.705 46.8732C115.748 46.7878 115.449 46.5742 115.064 46.4247C114.06 45.9975 44.9596 45.912 43.6352 46.3179Z" fill="white"/>
<path d="M112.415 53.1314C109.468 55.3742 103.444 60.0094 99.0225 63.4057L90.991 69.5788L91.6745 70.3691C94.2164 73.2955 107.78 88.8885 108.848 90.106C109.874 91.2595 110.194 91.7721 110.194 92.2848C110.194 93.0965 109.617 93.6518 108.805 93.6518C108.058 93.6518 108.549 94.1858 98.2535 82.3522C93.7251 77.119 89.7094 72.5051 89.3463 72.0993L88.6841 71.3517L86.1422 73.2528C83.3868 75.3033 82.1051 75.9228 80.5458 75.9228C78.9865 75.9228 78.1962 75.6024 75.6757 74.0217L73.3474 72.5265L72.1726 73.6586C71.5318 74.278 67.6869 77.7598 63.6285 81.4124C55.5329 88.6962 50.9191 92.9469 45.28 98.3938L41.5633 101.961L42.7168 102.516L43.8702 103.05H75.0776H106.264L108.72 104.46C113.12 106.959 119.998 110.163 123.224 111.167C124.612 111.616 125.424 111.424 125.766 110.569C125.979 110.078 125.83 109.288 124.954 105.72C123.608 100.316 122.327 95.8519 120.447 89.9779L118.952 85.364L118.93 68.1904C118.93 52.5974 118.888 50.9526 118.567 50.0982C118.375 49.5856 118.119 49.1156 117.99 49.0943C117.884 49.0515 115.363 50.8672 112.415 53.1314Z" fill="white"/>
<path d="M39.2991 50.8458C38.9573 52.1915 39 97.2403 39.3418 98.5647C39.4913 99.0987 39.6622 99.5259 39.7477 99.5259C39.8331 99.5259 42.3322 97.219 45.3013 94.378C51.1754 88.803 55.3407 84.9582 64.6537 76.5849C67.9646 73.5945 70.656 71.0526 70.6133 70.9458C70.5919 70.839 69.353 69.9632 67.9005 69.0234C60.7235 64.3668 45.4295 54.1566 42.6527 52.1701L39.5341 49.9273L39.2991 50.8458Z" fill="white"/>
<path d="M393.367 56.0151C392.769 56.6559 392.342 59.1337 392.235 62.4659C392.128 65.4136 392.15 65.6059 392.62 66.4176C393.26 67.4856 394.692 68.1478 395.888 67.9342C396.87 67.7419 397.917 66.7593 397.917 66.0331C397.917 64.8796 396.657 64.1747 395.482 64.7087C395.097 64.8796 395.076 64.7942 395.204 62.4446C395.268 61.0989 395.461 59.2832 395.653 58.4075C395.995 56.8909 395.995 56.8054 395.61 56.2714C395.076 55.5665 393.88 55.4384 393.367 56.0151Z" fill="white"/>
<path d="M397.191 68.7887C396.849 68.9809 396.229 69.1304 395.802 69.1304C395.012 69.1304 394.286 69.4081 394.029 69.814C393.709 70.2839 393.858 71.3733 394.307 71.7791C395.204 72.5908 398.323 72.0568 399.476 70.9247C399.967 70.4334 399.946 69.4081 399.412 68.8741C398.899 68.3615 398.045 68.3401 397.191 68.7887Z" fill="white"/>
<path d="M231.584 74.1073C231.221 74.2568 230.88 74.5772 230.815 74.7908C230.303 76.5424 230.474 77.525 231.734 80.494C232.973 83.3777 232.866 84.5525 231.414 84.3175C230.837 84.2321 230.58 84.3175 230.153 84.7447C229.427 85.471 229.448 86.0691 230.239 86.8594C230.837 87.4575 230.986 87.5002 232.054 87.4148C232.866 87.3507 233.421 87.1585 233.955 86.7312C235.921 85.2574 236.091 82.865 234.532 79.2551C233.763 77.5036 233.614 76.9055 233.635 75.9229C233.656 75.0044 233.571 74.62 233.293 74.385C232.695 73.8724 232.289 73.8083 231.584 74.1073Z" fill="white"/>
<path d="M203.56 86.5175C203.026 87.2011 203.026 87.3292 203.432 89.273C203.966 91.7508 205.568 93.6305 208.28 94.9548C209.498 95.5316 210.352 95.3607 210.673 94.4849C210.993 93.5664 210.673 92.8402 209.711 92.3489C208.75 91.879 207.063 90.3837 206.721 89.7643C206.593 89.5293 206.401 88.7604 206.294 88.0341C206.166 87.3079 205.931 86.5389 205.738 86.3466C205.204 85.7486 204.094 85.8554 203.56 86.5175Z" fill="white"/>
<path d="M226.18 90.2344C225.604 90.8111 225.625 91.751 226.244 92.3277C227.868 93.8443 231.478 93.8016 231.862 92.2423C232.161 91.0248 231.179 90.149 229.747 90.3839C229.299 90.448 228.786 90.3626 228.359 90.149C227.462 89.6791 226.693 89.7218 226.18 90.2344Z" fill="white"/>
<path d="M325.719 99.6115C324.715 99.9532 322.536 100.85 320.849 101.619L317.794 103.029L316.812 102.41C313.373 100.231 306.794 101.598 301.368 105.635C296.477 109.266 294.191 113.923 292.312 124.112C291.842 126.611 291.778 127.23 291.991 127.7C292.418 128.619 294.042 128.726 294.512 127.871C294.619 127.658 295.067 125.756 295.473 123.663C297.182 115.162 298.891 111.531 302.65 108.433C304.466 106.959 308.246 105.101 310.425 104.631C313.117 104.054 315.381 104.503 315.936 105.742C316.321 106.575 315.616 107.258 312.839 108.754C309.848 110.334 309.058 110.932 308.097 112.342C306.837 114.201 306.495 115.674 306.26 120.117C306.068 124.283 305.854 125.735 305.32 126.76C304.466 128.427 305.341 129.836 306.922 129.302C308.311 128.811 308.973 126.355 309.25 120.63C309.549 114.542 310.083 113.56 314.313 111.402C315.488 110.804 316.855 109.971 317.325 109.565C318.286 108.732 319.097 107.301 319.097 106.383C319.097 105.849 319.29 105.699 321.298 104.759C324.245 103.35 327.108 102.217 328.112 102.068C329.094 101.897 330.696 102.303 331.187 102.858C331.401 103.093 331.508 103.285 331.465 103.328C331.422 103.371 328.154 104.952 324.224 106.874C320.294 108.796 316.94 110.505 316.812 110.697C316.15 111.531 316.897 113.09 317.965 113.09C318.222 113.09 321.319 111.659 324.886 109.886C333.772 105.486 334.584 105.208 335.203 106.447C335.63 107.237 335.481 107.365 333.345 107.942C332.426 108.198 331.273 108.604 330.782 108.839C328.56 109.971 319.162 115.525 318.841 115.909C318.051 116.806 318.692 118.302 319.866 118.28C320.272 118.28 322.152 117.298 325.185 115.525C327.77 114.03 330.461 112.47 331.166 112.086C334.498 110.249 338.023 109.993 337.617 111.616C337.296 112.791 336.677 113.432 335.417 113.901C333.58 114.564 322.494 120.096 321.938 120.609C320.999 121.484 321.533 123.129 322.75 123.129C323.113 123.129 325.548 122.04 328.88 120.374C336.143 116.742 336.869 116.443 337.574 116.764C337.873 116.892 338.172 117.255 338.258 117.554C338.535 118.622 337.98 119.071 333.238 121.527C330.739 122.83 327.898 124.411 326.937 125.052C323.519 127.316 320.379 130.84 318.136 134.984C316.876 137.291 314.59 142.482 313.736 144.938C313.352 146.049 313.031 146.967 313.01 147.01C312.946 147.095 310.746 146.262 307.883 145.066C306.367 144.447 302.223 142.823 298.698 141.499C295.174 140.153 292.226 139.021 292.119 138.936C292.034 138.85 292.098 138.402 292.269 137.91C292.461 137.419 292.696 135.924 292.803 134.6C292.931 133.297 293.081 131.908 293.166 131.524C293.401 130.328 292.013 129.366 290.902 129.964C290.325 130.263 290.069 131.246 289.834 133.959C289.706 135.305 289.492 136.714 289.321 137.12C289.044 137.782 288.958 137.825 288.189 137.718C287.036 137.569 285.925 138.081 285.284 139.085C284.985 139.534 284.558 140.794 284.302 141.926C283.768 144.276 282.144 150.086 281.952 150.299C281.866 150.385 278.791 145.963 275.095 140.495C261.019 119.605 260.25 118.537 257.302 115.738C254.29 112.876 252.026 111.68 248.48 111.061C246.964 110.804 245.105 110.74 239.424 110.783L232.268 110.847L230.986 112.769C227.569 117.917 222.143 121.997 216.461 123.663C214.176 124.347 210.117 124.603 207.682 124.219C205.546 123.898 202.705 123.044 200.911 122.168C197.557 120.587 194.033 117.789 192.281 115.354C191.299 113.966 191 113.731 190.252 113.731C189.505 113.731 188.8 114.414 188.8 115.14C188.8 116.379 192.431 120.416 195.443 122.552C202.171 127.316 211.356 128.747 218.555 126.205C224.45 124.112 230.281 119.583 233.336 114.756L233.977 113.731H240.171C247.113 113.752 248.843 113.944 251.065 114.97C254.504 116.593 256.768 118.985 261.98 126.547C270.61 139.021 281.204 155.041 281.119 155.447C281.076 155.661 281.397 156.387 281.824 157.028C283.127 158.993 283.127 159.228 282.016 161.279C280.969 163.201 280.692 164.675 280.67 168.328C280.67 169.545 280.542 170.399 280.222 171.168C279.73 172.429 279.901 173.176 280.734 173.561C281.866 174.073 282.892 173.262 283.447 171.403C283.554 170.998 283.746 169.139 283.832 167.302L284.003 163.949L284.921 162.432C286.352 160.061 286.331 158.438 284.836 155.96L284.109 154.742L284.408 153.418C284.579 152.67 285.241 150.193 285.882 147.907C286.502 145.622 287.142 143.165 287.271 142.439C287.42 141.713 287.591 141.008 287.698 140.88C287.805 140.687 288.979 141.029 292.098 142.204C299.339 144.938 304.722 147.031 307.413 148.163C308.845 148.762 310.511 149.381 311.087 149.552C311.685 149.723 312.711 150.15 313.373 150.513C315.274 151.517 315.594 152.756 314.932 156.878C314.398 160.189 313.053 164.931 310.895 171.275C309.763 174.565 308.845 177.256 308.845 177.256C308.845 177.277 297.438 177.277 283.49 177.277C260.891 177.277 244.336 177.427 238.676 177.705C237.629 177.747 235.322 177.854 233.55 177.897C229.534 178.046 223.681 178.281 222.976 178.345C222.677 178.367 222.143 178.41 221.78 178.41C221.438 178.431 220.968 178.58 220.776 178.709C220.541 178.901 219.665 181.635 218.298 186.356C216.248 193.469 213.813 201.714 208.558 219.357C207.191 223.928 205.076 231.148 203.837 235.377C202.62 239.607 201.573 243.195 201.509 243.323C201.36 243.772 199.95 242.811 198.156 241.017C197.237 240.119 196.489 239.244 196.489 239.051C196.489 238.816 196.895 238.731 198.433 238.646C200.163 238.56 200.441 238.496 200.783 238.069C201.317 237.407 201.295 236.702 200.676 235.719C199.736 234.224 197.408 229.439 196.425 226.919C195.016 223.33 193.819 219.25 192.965 215.085C191.982 210.151 191.619 207.032 191.363 201.329C191 193.362 190.829 192.187 188.8 183.258C188.33 181.25 187.817 178.666 187.668 177.512C187.39 175.59 187.39 175.312 187.689 174.672C187.881 174.266 188.18 173.967 188.394 173.967C188.885 173.967 189.654 172.963 189.654 172.343C189.654 171.04 187.817 170.528 186.45 171.446C186.044 171.724 185.403 172.471 185.019 173.112C184.378 174.202 184.25 174.308 183.353 174.437C182.029 174.629 181.003 175.312 180.32 176.466C179.871 177.256 179.722 177.79 179.658 179.2C179.572 180.909 179.572 180.951 180.149 181.4C180.875 181.977 181.324 181.998 182.007 181.443C182.456 181.101 182.563 180.802 182.648 179.627C182.776 178.111 183.203 177.384 183.972 177.384C184.378 177.384 184.485 177.705 185.126 180.866C185.51 182.767 186.194 185.907 186.664 187.851C187.71 192.166 188.073 195.263 188.351 201.628C188.607 207.182 188.971 210.407 189.91 215.192C191.128 221.493 193.349 228.136 195.977 233.391C196.618 234.673 197.066 235.698 196.981 235.698C196.169 235.698 191.213 236.403 190.295 236.638C187.839 237.279 185.361 238.453 180.149 241.422C176.09 243.751 171.647 245.865 168.55 246.997C167.204 247.489 166.008 247.873 165.88 247.873C165.731 247.873 165.239 246.848 164.791 245.566C164.321 244.306 163.573 242.277 163.103 241.038C159.557 231.639 156.952 222.818 155.285 214.658C154.73 211.945 154.538 211.39 154.068 210.963C153.769 210.706 153.342 210.493 153.107 210.493C152.658 210.493 151.633 211.39 151.633 211.774C151.633 212.992 154.324 224.142 155.755 228.863L156.503 231.319L156.631 236.979C156.973 254.837 160.305 266.286 167.781 275.449C169.618 277.692 173.527 281.366 175.984 283.139C188.116 291.939 203.581 296.447 222.122 296.596L225.646 296.617L222.976 297.023C218.811 297.621 215.308 297.856 210.459 297.878C205.653 297.878 204.82 297.835 198.967 297.194C172.545 294.289 153.705 282.221 143.836 261.864C134.758 243.195 131.597 218.311 135.207 194.045C135.933 189.026 135.933 189.239 135.42 188.727C134.865 188.171 133.818 188.15 133.284 188.684C132.729 189.239 131.768 195.669 131.084 203.444C130.742 207.524 130.742 220.19 131.084 224.163C132.964 245.246 138.753 262.291 148.215 274.574C152.017 279.508 158.895 285.595 164.769 289.205C177.18 296.852 193.093 300.954 210.48 300.954C219.858 300.954 226.821 299.95 246.259 295.827C253.521 294.289 255.081 294.054 255.551 294.439C255.721 294.588 255.85 294.802 255.828 294.909C255.636 295.443 248.374 299.138 244.443 300.697C230.645 306.144 212.061 310.288 196.169 311.42C195.229 311.506 194.033 311.591 193.499 311.634C192.068 311.783 179.487 311.762 178.013 311.634C170.515 310.907 166.542 310.288 161.971 309.177C160.54 308.814 159.28 308.536 159.13 308.536C158.682 308.536 157.827 309.562 157.827 310.096C157.827 311.228 158.853 311.634 165.859 313.129C166.307 313.236 166.307 313.278 166.435 326.522C166.628 344.529 166.841 351.962 168.187 390.346C169.063 415.252 169.319 424.053 169.554 435.075C169.725 443.363 169.725 443.384 170.195 443.79C170.9 444.345 171.797 444.281 172.288 443.662C172.63 443.234 172.801 442.124 173.292 436.549C175.065 416.342 176.539 397.822 179.294 360.762C181.409 332.524 182.755 315.158 182.862 315.03C182.926 314.987 185.126 314.902 187.774 314.838C190.423 314.774 192.965 314.688 193.414 314.645C193.883 314.581 195.208 314.496 196.383 314.411C197.557 314.346 200.249 314.09 202.364 313.855C204.478 313.62 206.593 313.407 207.041 313.385L207.874 313.343L208.387 315.692C212.36 333.656 217.465 352.688 228.316 390.047C230.345 396.968 233.122 406.666 234.532 411.6C236.689 419.183 237.159 420.635 237.629 421.062C238.697 422.002 241.068 421.447 241.581 420.08C241.752 419.631 241.688 418.521 241.239 415.231C240.086 406.559 237.01 385.134 233.678 362.578C229.641 335.215 226.18 310.95 226.18 309.989C226.18 309.754 226.522 309.562 227.312 309.391C229.427 308.9 236.326 306.849 239.103 305.888C243.204 304.499 247.028 302.94 250.488 301.274C253.308 299.907 253.521 299.843 253.521 300.27C253.521 300.526 253.372 302.235 253.201 304.051C252.304 313.834 251.663 326.693 250.851 351.684C250.189 371.699 249.634 383.789 248.908 393.23C248.609 397.374 247.711 405.79 247.37 407.969C247.049 409.976 247.348 410.275 250.552 411.173L251.748 411.493L252.005 413.907C252.752 420.892 255.038 427.428 258.904 433.601C263.283 440.586 271.25 447.806 277.424 450.347L278.812 450.903L260.293 451.01C240.15 451.116 241.325 451.052 241.026 452.291C240.94 452.676 241.026 453.017 241.346 453.423L241.795 454H294.747H347.699L348.019 453.53C348.532 452.804 348.447 451.971 347.806 451.458L347.229 451.01H319.033H290.816L291.778 450.411C294.405 448.724 295.623 445.819 294.875 442.935C294.405 441.12 294.02 440.415 290.795 435.523C287.698 430.867 286.032 428.026 284.237 424.416C282.956 421.874 281.503 418.371 281.503 417.858C281.503 417.581 282.272 417.666 286.245 418.35C290.453 419.076 291.03 419.119 291.543 418.862C291.97 418.649 292.162 418.35 292.269 417.752C292.333 417.303 292.974 409.442 293.679 400.279C294.405 391.115 295.388 378.513 295.9 372.297C296.755 361.937 296.797 360.912 296.52 360.335C296.327 359.972 294.426 356.618 292.29 352.859C280.927 332.951 272.318 319.729 260.271 303.73C258.135 300.911 256.384 298.54 256.341 298.476C256.32 298.412 256.619 298.091 257.024 297.792L257.751 297.215L262.984 304.222C265.846 308.067 269.67 313.3 271.485 315.863C275.48 321.545 274.604 320.242 278.684 326.586C285.583 337.394 291.65 347.604 298.912 360.762C304.829 371.464 316.513 390.539 324.01 401.795C329.051 409.314 332.512 414.035 333.153 414.206C333.58 414.313 334.135 414.099 335.566 413.351C336.592 412.796 337.467 412.347 337.531 412.347C337.595 412.347 338.343 413.672 339.176 415.295C340.693 418.243 342.081 420.293 347.079 426.979C352.185 433.793 355.88 436.741 361.135 438.236C363.292 438.856 366.88 438.898 368.739 438.322C370.768 437.723 372.477 436.741 373.844 435.438C377.368 432.084 377.924 427.962 375.489 422.878C373.63 418.926 363.826 404.295 360.494 400.428C360.152 400.044 359.917 399.659 359.981 399.574C360.024 399.489 360.707 399.083 361.476 398.677C362.971 397.865 363.441 397.288 363.249 396.498C363.164 396.22 360.985 392.012 358.379 387.142C344.025 360.207 339.005 350.381 330.547 332.567C318.82 307.917 311.344 293.029 308.311 288.351C307.712 287.411 306.559 285.531 305.747 284.186C302.8 279.273 298.485 272.267 297.032 270.088C292.418 263.189 286.95 257.058 281.439 252.572C280.2 251.569 279.132 250.629 279.068 250.458C278.897 250.073 279.495 249.155 279.901 249.155C280.393 249.155 284.323 252.423 287.228 255.243C292.952 260.753 297.31 266.521 303.291 276.496C304.402 278.312 305.32 279.85 305.363 279.892C305.406 279.956 305.576 279.85 305.747 279.679C306.452 278.974 306.922 271.647 306.516 267.375C305.769 259.301 303.526 253.491 299.596 249.411C298.762 248.578 298.143 247.873 298.186 247.873C298.228 247.852 299.147 247.809 300.194 247.745C301.603 247.66 302.223 247.531 302.479 247.275C302.693 247.062 303.569 244.413 304.551 240.931C306.26 234.95 308.78 226.47 311.75 216.73C312.625 213.868 313.33 211.24 313.33 210.899C313.33 210.151 312.668 209.425 311.963 209.425C310.831 209.425 310.682 209.809 307.883 219.037C305.213 227.816 302.18 238.09 301.048 242.213C300.706 243.388 300.386 244.413 300.322 244.498C300.151 244.712 297.011 244.84 282.892 245.203C280.542 245.267 277.509 245.353 276.163 245.417C264.629 245.865 228.978 246.015 216.995 245.652C213.642 245.566 209.776 245.438 208.408 245.417C205.931 245.353 204.393 245.054 204.393 244.648C204.393 244.199 208.323 230.678 213.684 212.736C217.423 200.176 220.007 191.461 221.609 185.822C222.271 183.472 222.912 181.485 223.019 181.421C223.126 181.357 224.194 181.272 225.411 181.25C226.629 181.229 227.953 181.165 228.38 181.122C228.808 181.101 231.435 180.994 234.233 180.909C237.031 180.823 239.851 180.738 240.492 180.695C248.075 180.225 318.478 180.118 318.756 180.567C318.905 180.802 316.897 188.492 314.526 196.801C313.394 200.71 312.476 204.17 312.476 204.49C312.476 205.238 313.074 205.793 313.886 205.793C314.612 205.793 314.889 205.623 315.189 205.046C315.851 203.807 322.002 181.357 322.216 179.371C322.323 178.495 322.28 178.281 321.874 177.918C321.447 177.534 321.041 177.491 316.791 177.427C314.249 177.384 312.134 177.32 312.113 177.299C312.091 177.277 313.01 174.479 314.142 171.083C316.961 162.752 318.243 157.348 318.243 153.738C318.243 151.944 317.431 149.701 316.492 148.932L315.808 148.334L316.406 146.476C317.816 142.14 320.977 135.689 323.049 132.912C325.741 129.324 328.09 127.551 334.37 124.368C339.048 121.997 339.881 121.442 340.693 120.181C341.205 119.37 341.312 118.964 341.312 117.875C341.312 116.721 341.227 116.422 340.565 115.418L339.796 114.307L340.244 113.282C341.077 111.317 340.586 109.095 339.133 108.305C338.493 107.963 338.429 107.835 338.407 106.938C338.386 105.08 337.04 103.328 335.331 102.901C334.776 102.751 334.498 102.516 334.221 101.961C333.43 100.274 331.038 98.992 328.752 98.992C327.983 98.992 326.873 99.227 325.719 99.6115ZM193.841 240.547C196.425 244.99 201.381 247.745 209.391 249.155C214.432 250.052 216.419 251.035 218.512 253.641C220.691 256.353 220.968 259.216 219.11 260.241C218.597 260.519 218.512 260.476 216.419 258.746C213.898 256.631 210.075 253.875 209.263 253.555C208.152 253.149 207.02 254.175 207.319 255.328C207.383 255.606 208.344 256.439 209.583 257.314C214.582 260.86 217.145 263.21 219.516 266.414C221.075 268.529 222.036 270.408 222.378 272.053C222.698 273.57 222.421 274.04 221.331 273.869C220.306 273.698 219.003 272.865 214.731 269.618C212.595 268.016 210.609 266.628 210.331 266.563C209.989 266.478 209.626 266.585 209.242 266.905C208.75 267.268 208.643 267.503 208.708 268.123C208.772 268.87 208.985 269.063 212.51 271.754C215.543 274.061 216.29 274.744 216.504 275.364C217.188 277.308 215.521 278.397 213.407 277.415C212.958 277.222 211.1 275.513 209.242 273.634C205.568 269.917 204.756 269.234 204.051 269.234C203.432 269.234 202.727 269.853 202.577 270.536C202.449 271.028 202.833 271.498 206.102 274.809C209.541 278.29 210.245 279.145 210.01 279.529C209.84 279.828 208.152 279.7 207.34 279.316C206.892 279.123 204.585 277.18 202.235 275.001C198.348 271.455 197.856 271.049 197.173 271.049C196.254 271.049 195.507 271.882 195.72 272.715C195.785 273.036 197.408 274.68 199.693 276.774C203.111 279.935 203.496 280.362 203.132 280.554C202.449 280.896 201.36 280.789 200.227 280.255C198.476 279.422 190.124 272.074 185.275 267.076C179.316 260.924 174.082 253.897 173.057 250.693C172.779 249.838 172.566 249.048 172.566 248.941C172.566 248.813 173.741 248.172 175.193 247.489C176.624 246.805 178.91 245.609 180.277 244.84C186.963 241.038 188.65 240.205 191.213 239.543C192.068 239.329 192.815 239.137 192.88 239.137C192.965 239.116 193.392 239.756 193.841 240.547ZM173.954 265.538C174.488 266.585 175.45 268.059 176.09 268.87C177.287 270.323 177.479 270.857 177.009 271.327C176.56 271.775 176.026 271.605 175.193 270.707C173.655 269.041 171.498 265.474 171.498 264.577C171.498 264.064 171.904 263.68 172.48 263.68C172.865 263.68 173.164 264.043 173.954 265.538ZM250.488 266.499C250.958 266.969 250.745 267.589 249.741 268.7C249.164 269.319 248.267 270.344 247.711 270.985C246.003 272.993 244.059 273.57 242.307 272.587C241.517 272.139 241.41 272.117 240.812 272.438C239.851 272.929 237.886 272.865 237.138 272.309C236.369 271.733 236.262 271.092 236.882 270.665C237.288 270.366 237.416 270.366 238.035 270.665C238.996 271.113 240.064 270.9 240.791 270.088C241.624 269.148 242.307 269.234 242.777 270.344C243.055 270.985 243.824 271.284 244.636 271.07C244.935 271.006 245.725 270.302 246.408 269.533C249.313 266.2 249.826 265.837 250.488 266.499ZM287.719 297.151C290.881 300.42 294.661 305.995 299.51 314.56C302.436 319.729 305.021 324.642 310.767 335.984C316.449 347.199 319.012 352.09 321.276 355.935C322.195 357.516 322.942 358.925 322.942 359.075C322.942 359.438 321.96 360.1 321.682 359.908C320.806 359.374 317.431 353.222 309.955 338.548C297.395 313.834 292.44 305.375 286.673 298.753C285.818 297.771 285.156 296.895 285.199 296.831C285.241 296.746 285.348 296.511 285.412 296.297C285.669 295.592 286.502 295.891 287.719 297.151ZM265.782 341.474C266.081 341.901 266.06 342.008 265.505 343.012C264.33 345.084 264.18 347.241 264.864 351.642C265.27 354.269 264.8 355.743 263.283 356.512C262.856 356.747 262.6 356.768 262.279 356.597C261.681 356.277 261.745 355.593 262.493 354.739C263.24 353.884 263.283 353.393 262.792 350.573C262.172 347.049 262.685 343.567 264.095 341.73C264.736 340.897 265.312 340.812 265.782 341.474ZM286.438 360.228C286.651 360.356 286.843 360.634 286.843 360.848C286.843 361.061 286.181 364.03 285.348 367.448C283.682 374.305 283.533 375.779 284.302 376.761C284.558 377.082 284.985 377.423 285.263 377.53C285.519 377.637 285.84 377.915 285.968 378.15C286.16 378.491 285.968 378.833 284.579 380.457C282.486 382.87 281.717 384.43 281.717 386.245C281.717 387.911 282.08 388.83 283.084 389.62C283.853 390.24 284.131 391.222 283.661 391.521C283.255 391.756 282.166 393.914 281.589 395.58C281.14 396.947 280.991 397.865 280.884 400.044C280.777 402.5 280.713 402.821 280.329 403.077C279.944 403.333 279.816 403.312 279.41 403.034C278.983 402.735 278.94 402.543 278.94 400.599C278.94 397.502 279.752 394.234 281.098 391.906L281.567 391.073L280.927 390.197C280.03 388.958 279.73 387.676 279.837 385.711C279.965 383.725 280.67 382.144 282.358 380.115L283.426 378.833L282.742 377.851C282.059 376.889 282.037 376.783 282.059 374.796C282.059 372.98 282.251 371.976 283.511 366.743C284.323 363.454 285.135 360.591 285.305 360.378C285.669 359.951 285.861 359.929 286.438 360.228ZM341.398 377.381C341.462 377.637 341.568 378.47 341.633 379.239C341.889 381.93 342.551 383.81 343.683 385.092C344.495 386.032 345.755 386.715 346.652 386.715C347.592 386.715 348.147 387.078 348.147 387.655C348.147 388.253 347.87 388.488 346.823 388.83C345.883 389.129 345.093 390.005 344.73 391.115C344.025 393.209 346.246 395.43 348.596 394.96C349.066 394.875 349.344 394.96 349.643 395.259C349.878 395.494 350.07 395.772 350.07 395.879C350.07 396.263 349.408 396.733 348.66 396.883C346.118 397.353 343.448 395.537 342.807 392.91C342.508 391.628 342.914 389.898 343.79 388.851L344.345 388.189L342.978 386.95C340.885 385.028 339.966 382.785 339.689 378.769C339.539 376.932 339.561 376.889 340.052 376.697C340.693 376.462 341.269 376.74 341.398 377.381ZM262.279 384.237C262.407 384.408 262.493 384.771 262.45 385.049C262.365 385.69 260.506 386.416 259.78 386.096C259.225 385.839 259.118 384.985 259.588 384.6C260.335 383.981 261.873 383.789 262.279 384.237ZM260.229 389.962C260.399 390.24 260.293 390.902 259.759 392.739C258.242 397.951 257.986 398.677 257.558 398.89C257.003 399.19 256.298 398.805 256.298 398.186C256.298 397.673 258.37 390.475 258.691 389.855C258.947 389.364 259.887 389.449 260.229 389.962ZM358.678 403.077C361.241 406.26 364.595 411.023 367.692 415.872C372.028 422.622 372.819 423.989 373.459 425.911C374.485 428.923 373.887 431.337 371.644 433.345C368.974 435.737 365.364 436.378 361.391 435.16C356.734 433.708 353.658 430.888 347.272 422.173C344.217 418.008 343.106 416.299 341.846 413.821L340.266 410.724L341.59 409.998C342.316 409.592 346.033 407.456 349.856 405.256C353.68 403.056 356.905 401.24 357.012 401.24C357.14 401.24 357.888 402.073 358.678 403.077ZM259.972 413.501C264.479 414.505 270.14 415.616 275.074 416.47L277.915 416.961L278.406 418.435C280.094 423.69 282.849 428.966 287.826 436.506C291.115 441.526 291.585 442.316 291.949 443.704C292.483 445.669 291.094 447.763 288.745 448.574C287.036 449.173 283.447 449.13 281.183 448.489C278.897 447.827 275.651 446.182 273.194 444.431C270.802 442.743 266.423 438.578 264.479 436.164C259.267 429.692 255.636 421.062 255.081 413.864C254.974 412.476 254.995 412.283 255.294 412.412C255.487 412.476 257.58 412.967 259.972 413.501Z" fill="white"/>
<path d="M191.128 109.758C191.085 109.8 188.693 110.249 185.809 110.74C178.675 111.936 175.108 112.748 171.818 113.88C170.109 114.457 168.016 114.991 166.371 115.269C155.072 117.063 145.075 121.997 137.065 129.729C133.797 132.869 131.576 135.518 129.183 139.107C125.787 144.212 123.181 149.915 121.387 156.216C119.422 162.987 116.388 176.188 116.388 177.876C116.388 179.627 118.888 179.883 119.272 178.175C119.336 177.918 119.678 176.252 120.041 174.501C121.643 166.661 124.078 157.199 125.552 153.076C130.059 140.495 138.411 130.456 149.668 124.112C152.594 122.446 157.101 120.566 160.241 119.711L161.694 119.306L160.262 120.844C157.016 124.347 155.499 127.551 153.79 134.45C151.975 141.798 150.565 153.162 150.565 160.424C150.565 162.688 150.8 163.564 151.547 163.906C152.936 164.525 153.769 163.521 153.598 161.428C153.47 159.741 153.897 153.076 154.41 148.462C155.52 138.829 157.336 131.246 159.579 126.91C161.352 123.514 164.705 120.374 168.614 118.43C172.801 116.379 176.453 115.397 186.087 113.752C192.602 112.62 192.901 112.556 193.349 112C194.183 110.954 193.478 109.672 192.046 109.672C191.598 109.672 191.171 109.715 191.128 109.758Z" fill="white"/>
<path d="M164.129 126.846C162.783 128.277 161.8 129.922 161.095 131.929C160.647 133.19 160.519 134.001 160.433 136.116C160.326 139.021 160.519 139.79 161.394 140.196C162.099 140.516 163.082 140.153 163.296 139.491C163.381 139.256 163.424 138.167 163.402 137.12C163.381 136.052 163.466 134.706 163.595 134.129C164 132.463 165.197 130.178 166.371 128.832C167.546 127.444 167.653 127.081 166.991 126.248C166.243 125.308 165.41 125.479 164.129 126.846Z" fill="white"/>
<path d="M369.508 127.636C364.873 128.533 361.519 133.361 362.245 138.081C362.822 141.798 365.812 144.981 369.465 145.75C370.939 146.049 451.574 146.091 453.219 145.771C456.935 145.066 459.883 141.926 460.545 138.017C461.336 133.254 457.769 128.405 452.92 127.615C451.296 127.358 370.875 127.38 369.508 127.636ZM412.656 133.489C413.916 134.13 414.578 135.283 414.578 136.864C414.578 140.068 410.925 141.606 408.618 139.406C407.593 138.444 407.444 137.868 407.636 136.009C407.764 134.813 407.892 134.493 408.426 134.001C409.43 133.04 411.31 132.827 412.656 133.489ZM435.618 133.681C437.305 134.578 437.882 136.671 436.964 138.508C435.853 140.687 433.119 141.072 431.282 139.299C430.641 138.679 430.021 137.205 430.256 136.842C430.299 136.757 430.406 136.202 430.47 135.625C430.748 133.297 433.183 132.378 435.618 133.681ZM388.604 133.98C391.231 135.518 390.825 139.47 387.963 140.559C387.109 140.879 386.831 140.901 385.977 140.666C384.844 140.367 383.905 139.576 383.477 138.551C383.05 137.569 383.307 135.219 383.905 134.514C384.887 133.403 387.151 133.126 388.604 133.98Z" fill="white"/>
<path d="M264.202 147.053C263.454 147.8 263.668 148.42 265.163 150.064C266.743 151.773 267.897 153.952 268.239 155.896C268.367 156.601 268.623 157.348 268.837 157.562C269.285 158.053 270.225 158.053 270.845 157.541C271.464 157.028 271.464 155.917 270.802 153.781C270.161 151.624 269.008 149.701 267.406 148.057C265.846 146.476 265.035 146.22 264.202 147.053Z" fill="white"/>
<path d="M216.675 152.051C214.838 153.974 213.919 155.49 213.449 157.284C212.83 159.784 213.556 162.325 215.351 163.821L216.333 164.632L215.756 165.38C215.244 166.063 215.18 166.32 215.18 167.965C215.18 169.652 215.244 169.951 216.013 171.596C217.059 173.881 217.209 175.013 216.589 175.804C215.671 176.979 216.333 178.324 217.786 178.196C218.384 178.153 218.704 177.94 219.217 177.32C219.836 176.53 219.879 176.38 219.879 174.65C219.879 172.941 219.815 172.621 218.982 170.72C217.807 168.05 217.807 167.473 218.918 166.384C220.691 164.654 220.477 163.094 218.341 162.069C215.393 160.638 215.543 157.797 218.811 154.144C220.327 152.436 220.562 151.688 219.772 150.898C218.96 150.086 218.298 150.321 216.675 152.051Z" fill="white"/>
<path d="M261.681 154.956C261.425 155.212 261.211 155.64 261.211 155.939C261.211 156.729 261.873 159.506 262.13 159.848C262.749 160.595 264.202 160.446 264.65 159.613C264.992 158.95 264.266 155.64 263.625 154.999C263.027 154.422 262.3 154.401 261.681 154.956Z" fill="white"/>
<path d="M150.266 169.118C149.817 169.588 149.774 169.823 149.646 173.518C149.326 182.447 149.561 195.647 150.138 200.881C150.287 202.183 150.458 202.782 150.757 203.081C151.782 204.106 153.491 203.059 153.256 201.543C152.765 198.445 152.615 194.067 152.615 182.34L152.594 169.438L152.081 169.032C151.419 168.498 150.864 168.52 150.266 169.118Z" fill="white"/>
<path d="M115.235 185.266C114.38 186.227 112.415 203.23 111.646 216.367C111.326 222.155 111.326 239.521 111.668 244.776C112.501 258.019 114.573 268.315 118.204 277.158C120.425 282.584 123.63 288.052 126.748 291.768L127.645 292.836L126.171 297.856C120.404 317.572 115.983 334.916 105.794 377.957C103.487 387.655 100.518 400.086 99.172 405.619C96.1388 417.986 96.2029 417.687 96.3951 418.392C96.6728 419.524 98.4671 420.058 99.5565 419.353C100.283 418.884 105.046 406.195 122.476 358.306C137.343 317.486 141.999 304.905 142.277 304.905C142.362 304.905 143.772 305.567 145.396 306.358C146.998 307.169 149.262 308.194 150.415 308.643C152.38 309.412 152.573 309.455 153.085 309.177C153.384 309.006 153.726 308.579 153.833 308.237C154.153 307.255 153.513 306.657 151.184 305.717C145.951 303.602 139.842 300.035 135.933 296.745C123.993 286.749 117.371 272.288 115.235 251.504C114.637 245.673 114.402 240.077 114.402 230.785C114.402 216.046 115.256 203.956 117.264 190.243C117.905 185.8 117.905 185.287 117.115 184.988C116.474 184.732 115.598 184.86 115.235 185.266Z" fill="white"/>
<path d="M77.7903 189.602C77.2349 189.88 76.9786 190.457 75.8465 194.259C73.2619 202.824 71.6385 211.326 70.6346 221.707C70.2074 226.043 70.2715 239.82 70.7414 244.456C71.2327 249.176 72.023 254.538 72.8347 258.66C73.561 262.227 75.0562 268.208 75.398 268.828C75.8465 269.682 77.5767 269.597 77.9825 268.7C78.1748 268.272 78.0253 267.397 77.1281 263.744C75.3766 256.631 74.4795 251.398 73.7318 244.028C73.2833 239.35 73.2192 226.684 73.625 222.027C74.5222 212.18 76.4873 202.055 79.2214 193.575C80.1399 190.692 80.1399 190.051 79.2428 189.581C78.7302 189.303 78.4098 189.303 77.7903 189.602Z" fill="white"/>
<path d="M183.46 194.942C182.947 195.498 182.947 195.369 183.353 198.744C183.609 200.987 183.737 201.478 184.122 201.778C184.912 202.44 186.087 202.162 186.45 201.222C186.557 200.944 186.514 199.77 186.322 198.296C186.172 196.95 186.044 195.733 186.023 195.583C186.023 195.092 185.169 194.472 184.528 194.472C184.165 194.472 183.716 194.665 183.46 194.942Z" fill="white"/>
<path d="M59.6343 201.479C59.0149 201.564 58.9508 201.671 57.4769 204.619C54.8069 209.98 53.0126 215.876 51.9873 222.455C51.0902 228.286 51.496 239.351 52.7563 243.302C53.1408 244.541 54.7001 244.798 55.405 243.73C55.704 243.281 55.704 243.003 55.3195 240.803C53.2262 228.927 54.871 216.944 60.1256 206.05C60.8732 204.491 61.4927 202.995 61.4927 202.718C61.4927 201.927 60.5955 201.308 59.6343 201.479Z" fill="white"/>
<path d="M263.006 204.064C260.635 204.448 258.648 205.367 257.089 206.819C255.743 208.079 255.145 209.04 254.675 210.621C253.116 216.004 258.499 221.387 265.483 221.387C270.823 221.387 275.031 218.46 275.929 214.124C276.762 210.108 273.408 205.708 268.474 204.405C266.979 203.999 264.415 203.85 263.006 204.064Z" fill="white"/>
<path d="M185.596 205.088C184.955 205.323 184.528 205.879 184.528 206.455C184.528 207.801 186.301 220.66 186.514 220.938C187.198 221.749 188.608 221.6 189.035 220.681C189.206 220.318 189.035 218.524 188.394 213.419C187.903 209.702 187.518 206.52 187.518 206.349C187.518 205.622 186.322 204.832 185.596 205.088Z" fill="white"/>
<path d="M431.944 207.758C431.688 207.887 431.367 208.25 431.239 208.591C431.004 209.125 431.089 209.425 432.051 211.496C433.909 215.491 434.358 217.926 433.695 220.233C433.161 222.134 432.67 222.753 430.47 224.398C428.163 226.128 427.544 226.812 426.775 228.435C426.283 229.46 426.219 229.866 426.241 231.639C426.262 233.54 426.348 233.925 427.501 237.3L428.761 240.931V243.921C428.761 246.591 428.697 247.104 428.184 248.621C427.629 250.329 426.369 252.679 425.792 253.128C425.621 253.256 425.258 253.341 425.002 253.299C424.724 253.277 424.361 253.234 424.169 253.234C423.891 253.213 423.806 252.807 423.699 250.799C423.635 249.496 423.378 247.638 423.122 246.698C422.588 244.584 421.178 241.572 419.982 239.927L419.064 238.688L419.384 237.364C419.854 235.399 420.003 232.045 419.726 229.866C418.658 221.813 414.151 215.491 406.995 211.988C404.539 210.77 401.634 209.852 400.309 209.852C399.968 209.852 399.54 210.023 399.348 210.236C398.921 210.706 398.878 212.052 399.263 212.394C399.434 212.522 400.502 212.864 401.676 213.163C409.729 215.213 415.603 221.899 416.735 230.272C416.97 232.002 416.864 235.249 416.564 236.039C416.479 236.296 416.351 236.274 415.774 235.933C414.898 235.399 412.997 234.843 412.015 234.843C409.9 234.843 407.764 236.061 406.803 237.834C406.269 238.795 406.205 239.115 406.29 240.376C406.376 242.106 406.931 243.067 408.362 244.05C410.989 245.801 414.428 245.31 416.693 242.832C417.782 241.657 417.761 241.636 418.957 244.135C419.982 246.271 420.559 248.514 420.708 251.056L420.837 253.256L412.164 253.192L403.492 253.106L402.744 253.833C399.861 256.631 397.02 262.355 396.187 267.097C395.824 269.169 395.824 274.232 396.187 276.282C398.195 287.432 407.422 296.382 418.765 298.155C421.136 298.54 425.792 298.433 428.184 297.963C433.567 296.916 438.523 294.353 442.368 290.658C444.739 288.372 446.106 286.599 447.366 284.143C449.395 280.234 450.207 277.243 450.378 272.865C450.527 269.447 450.186 266.713 449.203 263.658C448.114 260.262 446.084 256.695 443.927 254.345L443.094 253.448L436.323 253.384C432.585 253.341 429.53 253.277 429.53 253.234C429.53 253.192 429.829 252.53 430.171 251.782C431.453 249.069 431.773 247.467 431.773 243.815L431.752 240.504L430.513 236.766C428.462 230.635 428.654 229.61 432.35 226.79C435.96 224.035 436.899 222.198 436.878 218.075C436.878 215.961 436.793 215.512 436.088 213.44C435.276 211.048 434.037 208.378 433.546 207.993C433.076 207.609 432.435 207.523 431.944 207.758ZM413.061 238.047C413.467 238.154 414.172 238.496 414.621 238.795C415.411 239.329 415.432 239.35 415.133 239.927C414.535 241.08 412.976 242.106 411.801 242.106C411.011 242.106 409.558 241.401 409.366 240.931C409.088 240.162 409.259 239.393 409.836 238.838C410.819 237.898 411.737 237.663 413.061 238.047ZM436.365 256.417H441.812L442.838 257.784C444.119 259.493 445.55 262.27 446.213 264.299C446.789 266.093 446.917 265.922 444.376 266.905C439.826 268.657 434.187 269.917 427.821 270.622C426.262 270.793 419.299 270.793 417.333 270.622C414.941 270.408 410.69 269.703 408.063 269.084C406.098 268.614 399.69 266.585 399.455 266.35C399.412 266.307 399.69 265.388 400.053 264.278C400.843 261.928 402.039 259.643 403.535 257.613L404.624 256.139L417.782 256.268C425.002 256.353 433.375 256.417 436.365 256.417ZM446.704 277.713C446.362 279.187 445.102 282.199 444.141 283.801C443.414 285.04 442.389 286.279 440.744 287.924L438.395 290.273H423.122H407.849L405.906 288.351C403.855 286.343 401.975 283.694 400.929 281.366C400.203 279.764 399.498 277.607 399.668 277.457C399.711 277.393 400.865 277.628 402.21 277.991C416.33 281.708 432.734 281.515 445.337 277.478C446.747 277.03 446.853 277.051 446.704 277.713Z" fill="white"/>
<path d="M457.854 228.67C457.555 228.905 457.299 229.333 457.299 229.589C457.299 229.867 458.004 231.469 458.879 233.156C464.241 243.516 466.953 253.833 467.445 265.709C467.573 268.571 467.466 271.007 466.996 276.838C466.868 278.419 466.889 278.611 467.317 279.038C467.893 279.615 468.726 279.615 469.346 278.995C469.773 278.568 469.88 278.119 470.136 275.62C470.499 272.075 470.499 263.573 470.136 260.262C469.004 250.052 466.249 240.76 461.72 231.981C459.776 228.243 459.136 227.666 457.854 228.67Z" fill="white"/>
<path d="M477.612 233.69C477.356 234.01 477.164 234.352 477.164 234.48C477.164 234.587 477.57 235.548 478.039 236.638C480.859 242.896 482.376 250.265 482.269 257.229C482.226 259.472 482.269 259.899 482.611 260.262C483.102 260.796 484.02 260.817 484.661 260.283C485.174 259.878 485.174 259.835 485.152 255.627C485.131 250.949 484.832 248.322 483.807 244.135C482.803 240.034 480.731 234.544 479.791 233.519C479.257 232.921 478.146 233.028 477.612 233.69Z" fill="white"/>
<path d="M398.942 290.914C398.9 290.936 397.767 291.021 396.422 291.106C395.076 291.192 393.538 291.299 393.004 291.341C392.47 291.406 390.462 291.598 388.518 291.79C375.318 293.05 366.304 295.314 363.655 298.027C362.245 299.501 362.373 301.295 363.975 302.641C365.556 303.987 369.337 305.439 373.673 306.379C378.778 307.49 387.707 308.665 394.179 309.071C395.354 309.135 396.614 309.241 396.956 309.284C397.319 309.327 398.857 309.412 400.373 309.498C401.911 309.562 403.577 309.669 404.111 309.711C410.007 310.245 438.566 310.245 443.414 309.711C443.82 309.669 445.422 309.583 446.939 309.498C448.477 309.434 450.25 309.327 450.89 309.284C451.531 309.22 453.795 309.028 455.91 308.857C471.695 307.511 480.88 305.375 484.042 302.342C484.982 301.424 485.067 301.274 485.067 300.334C485.067 298.54 483.956 297.386 481.008 296.083C475.647 293.712 462.51 291.662 447.772 290.893L445.187 290.743L443.393 292.303C439.142 295.977 434.165 298.412 428.74 299.501C426.113 300.014 420.281 300.014 417.782 299.48C414.215 298.753 410.84 297.472 407.999 295.806C406.226 294.759 403.3 292.516 402.296 291.47C401.698 290.829 401.57 290.786 400.331 290.829C399.583 290.85 398.964 290.893 398.942 290.914Z" fill="white"/>
<path d="M72.4075 312.83C71.1046 313.086 68.8831 314.154 67.4733 315.201C66.8325 315.692 63.9275 318.405 61.0439 321.225C58.1602 324.066 54.5503 327.569 53.0124 329.042C50.0006 331.947 49.1462 333.144 47.7364 336.561C46.5189 339.488 46.0917 341.56 45.9635 345.063C45.7499 350.638 47.0529 355.273 50.0219 359.694C51.0045 361.168 53.4396 363.753 54.9348 364.949C56.5582 366.252 58.0748 365.974 58.0748 364.372C58.0748 363.86 57.6903 363.411 55.9387 361.766C53.4182 359.417 52.2221 357.815 50.9191 355.038C49.6161 352.304 49.0821 350.189 48.9539 347.177C48.7617 343.012 49.5734 339.253 51.5172 335.579C52.2648 334.148 52.8415 333.443 54.9562 331.392C56.366 330.046 59.9545 326.522 62.9663 323.596C65.9781 320.648 68.9472 317.871 69.5666 317.422C71.9162 315.735 74.394 315.244 76.7864 315.991C79.6273 316.867 81.1012 318.512 83.3867 323.361C86.0995 329.107 87.317 334.959 87.0607 341.111C86.6976 349.89 83.5362 356.896 78.3457 360.357C76.5301 361.553 75.0135 362.258 68.9685 364.671C62.5604 367.235 62.9236 367.171 64.1411 365.611C69.8443 358.178 72.9202 347.904 71.6599 340.406C71.1473 337.309 69.6948 333.357 68.819 332.631C68.3704 332.268 67.3238 332.332 66.8325 332.781C66.2131 333.336 66.2985 334.084 67.1529 335.942C68.3491 338.526 68.819 340.855 68.819 344.101C68.8404 351.471 65.7858 358.84 59.5059 366.637C57.7971 368.751 55.063 371.827 50.086 377.21C45.9208 381.696 43.208 385.006 41.2002 387.976L40.303 389.321L38.0175 387.1C36.7786 385.861 34.1085 383.447 32.0793 381.738C30.0714 380.029 28.3626 378.534 28.2985 378.427C28.2345 378.299 28.3199 378.15 28.5121 378.086C29.0248 377.893 30.4986 374.54 31.0754 372.254C33.3396 363.347 30.7977 354.141 24.3896 348.032C22.04 345.789 15.6532 341.047 13.5172 339.979C10.5909 338.505 6.81008 339.231 4.50317 341.73C3.37108 342.948 3.13612 343.461 2.21762 346.472C0.466079 352.24 0.145675 353.842 0.0388734 357.815C-0.0465678 360.763 -0.00384722 361.916 0.295197 363.582C2.32442 374.988 11.1676 384.109 22.3177 386.288C23.3216 386.48 23.7488 386.48 24.0906 386.288C24.9877 385.818 25.0945 384.43 24.3042 383.789C24.1333 383.682 23.2789 383.404 22.4031 383.212C13.3891 381.247 6.08384 374.113 3.67012 364.97C2.94387 362.215 2.75163 357.43 3.26428 354.568C3.67012 352.218 5.42167 345.896 5.97703 344.828C6.46832 343.845 7.62178 342.82 8.62571 342.499C9.07428 342.35 9.99277 342.286 10.6763 342.329C12.0647 342.435 12.9405 342.948 18.2592 346.9C24.475 351.492 27.2092 355.422 28.4908 361.617C28.8966 363.625 28.9607 367.641 28.5976 369.606C28.1277 372.169 26.5684 376.27 26.0771 376.227C25.8421 376.206 23.8129 373.707 22.9371 372.318C21.9118 370.695 21.3564 369.456 20.8011 367.491C20.2671 365.569 19.7117 365.099 18.5796 365.547C17.7252 365.91 17.5543 366.573 17.8961 368.153C18.4728 370.951 20.1603 374.049 22.8517 377.231C24.475 379.154 26.0557 380.606 31.3744 385.156C34.5785 387.89 38.6369 391.799 38.6369 392.141C38.6369 392.226 38.2952 392.974 37.8679 393.807C36.7359 396.05 35.7106 398.805 35.0911 401.304C34.6425 403.077 34.5144 404.167 34.4289 407.157L34.3008 410.852H22.6381C9.50148 410.852 10.0141 410.788 10.0141 412.348C10.0141 413.971 6.8528 413.843 46.0489 413.843C80.8662 413.843 81.1439 413.843 81.5711 413.416C81.8061 413.181 81.9983 412.711 81.9983 412.348C81.9983 411.984 81.8061 411.515 81.5711 411.28C81.1439 410.852 80.8662 410.852 64.2693 410.852H47.3946V408.61V406.345L48.7403 405.512C49.4666 405.042 51.1968 404.081 52.5638 403.376C54.9989 402.116 55.1057 402.095 55.597 402.415C56.0456 402.714 57.1776 402.778 63.0304 402.885C68.9258 402.992 70.2288 402.949 72.0658 402.65C81.8274 400.984 88.5346 394.704 88.9831 386.822C89.2394 382.422 87.0821 378.128 83.4935 375.822C81.1653 374.326 77.8971 373.878 74.9494 374.625C68.2636 376.356 60.1894 384.237 56.6864 392.418C56.2592 393.465 55.5756 394.789 55.1698 395.388C54.2726 396.776 54.0163 397.438 54.0163 398.421C54.0163 399.19 53.9736 399.232 52.2434 400.108C51.2822 400.599 49.7229 401.454 48.8044 401.988C47.8646 402.522 47.0742 402.906 47.0315 402.864C46.9888 402.821 46.7325 401.945 46.4334 400.898C45.6431 397.929 44.5537 395.409 42.9944 392.974L42.2895 391.863L43.6779 389.791C45.3868 387.249 46.6257 385.647 49.4452 382.443C52.1153 379.389 57.7757 373.301 58.502 372.703C59.5059 371.849 61.8128 370.716 65.1237 369.456C71.5531 366.978 77.4058 364.501 79.0933 363.497C81.507 362.065 84.5402 359.011 85.9927 356.512C92.0376 346.259 91.3755 330.687 84.412 318.683C81.7206 314.048 77.2563 311.869 72.4075 312.83ZM41.7128 396.904C42.7381 398.955 43.5925 401.497 43.977 403.547L44.2119 404.872L42.439 406.644C41.4565 407.606 40.2817 408.951 39.8331 409.635C39.1068 410.703 38.8932 410.852 38.2952 410.852C37.8679 410.852 37.5689 410.724 37.4835 410.511C37.2271 409.848 37.3553 405.534 37.6757 403.675C38.1243 401.091 40.2176 395.046 40.6661 395.046C40.7302 395.046 41.2002 395.879 41.7128 396.904ZM44.4042 409.891C44.4042 410.852 44.4042 410.852 43.6566 410.852C43.2507 410.852 42.909 410.788 42.909 410.724C42.909 410.575 44.1906 408.93 44.3188 408.93C44.3615 408.93 44.4042 409.357 44.4042 409.891Z" fill="white"/>
<path d="M422.503 314.325L422.011 314.773L422.075 344.187L422.118 373.578L413.232 385.818C408.341 392.546 404.282 398.228 404.218 398.463C404.09 398.869 403.855 398.89 397.468 398.89C391.146 398.89 390.847 398.912 390.441 399.318C390.206 399.552 390.014 400.022 390.014 400.386C390.014 400.749 390.206 401.219 390.441 401.454C390.868 401.881 391.146 401.881 448.819 401.881C513.476 401.881 507.709 402.03 507.709 400.386C507.709 398.762 510.486 398.89 474.985 398.89C444.867 398.89 443.201 398.869 443.201 398.506C443.201 398.314 439.164 392.482 434.251 385.561L425.322 373.002L425.194 362.279C425.109 356.405 425.045 343.332 425.045 333.25V314.923L424.511 314.41C423.87 313.748 423.143 313.727 422.503 314.325ZM431.154 386.437C434.315 390.88 437.583 395.494 438.437 396.69L439.997 398.89H432.627H425.258V388.637C425.258 382.998 425.301 378.384 425.344 378.384C425.408 378.384 428.014 382.016 431.154 386.437ZM422.268 388.851V398.89H414.877H407.486L408.234 397.865C422.225 378.577 422.033 378.812 422.182 378.812C422.225 378.812 422.268 383.319 422.268 388.851Z" fill="white"/>
</svg>
