<svg width="407" height="424" viewBox="0 0 407 424" fill="none" xmlns="http://www.w3.org/2000/svg">
<path d="M385.497 201.266L315.685 201.187C315.052 201.187 314.497 200.633 314.497 199.999C314.497 199.366 315.052 198.812 315.685 198.812C323.363 198.812 376.553 198.812 385.497 198.891C386.13 198.891 386.684 199.445 386.684 200.078C386.684 200.712 386.13 201.266 385.497 201.266ZM254.5 290.945C253.867 290.866 253.392 290.233 253.55 289.6L260.12 252.002C260.199 251.369 260.832 250.894 261.465 251.052C262.099 251.132 262.574 251.765 262.415 252.398C253.788 301.789 256.321 287.304 255.846 289.995C255.766 290.629 255.133 291.104 254.5 290.945Z" fill="white"/>
<path d="M370.933 266.171C370.3 266.012 369.904 265.379 370.062 264.746C372.754 253.269 380.669 216.384 384.468 199.762C384.626 199.129 385.26 198.733 385.893 198.891C386.526 199.05 386.922 199.683 386.764 200.316C383.043 216.542 375.207 253.031 372.358 265.3C372.279 265.854 371.566 266.329 370.933 266.171ZM365.946 290.154H365.709C364.601 290.154 364.126 288.808 364.918 288.096C366.263 282.08 367.53 276.777 368.638 271.87C368.796 271.237 369.429 270.841 370.062 270.999C370.696 271.157 371.091 271.791 370.933 272.424C369.746 277.569 368.479 283.03 367.055 289.283C366.975 289.758 366.501 290.154 365.946 290.154ZM291.385 299.89C290.752 299.81 290.277 299.256 290.277 298.623L291.068 289.679C291.148 289.046 291.702 288.571 292.335 288.571C292.968 288.65 293.443 289.204 293.443 289.837L292.652 298.782C292.652 299.494 292.018 299.969 291.385 299.89ZM262.415 282.634C262.099 282.634 261.703 282.476 261.545 282.16C260.911 281.289 261.386 282.397 265.344 261.58C265.423 261.184 265.502 260.947 265.502 260.709C265.661 260.076 266.294 259.68 266.927 259.759C267.56 259.918 267.956 260.551 267.877 261.184C267.877 261.342 267.798 261.501 267.719 261.976C266.452 268.862 265.265 274.719 263.998 280.26C291.939 281.21 327.637 279.943 358.902 280.497C364.443 256.673 370.062 233.243 374.732 208.231C364.68 208.231 337.689 207.915 320.751 207.915C320.117 207.915 319.563 207.361 319.563 206.727C319.563 206.094 320.117 205.54 320.751 205.54C330.091 205.54 376.078 205.857 376.157 205.857C376.87 205.857 377.424 206.49 377.344 207.281C372.516 233.243 366.659 257.622 360.96 282.001C360.802 282.555 360.327 282.951 359.773 282.951C327.716 282.318 290.989 283.663 262.415 282.634ZM349.72 293.399H353.836V294.982H349.72V293.399ZM309.353 293.241H309.273C308.482 293.557 308.64 295.457 309.828 294.982C310.54 294.745 310.698 293.953 310.065 293.399C309.907 293.241 309.59 293.162 309.353 293.241Z" fill="white"/>
<path d="M372.119 298.306H363.096C364.362 295.852 365.312 294.111 366.895 289.362C366.974 289.125 366.974 288.887 366.895 288.65L367.133 288.175H366.658C366.42 287.937 366.104 287.779 365.787 287.779C363.967 287.779 371.407 287.779 299.933 287.541C299.774 288.491 298.191 299.81 298.191 299.889C298.112 300.206 297.954 300.364 297.716 300.522H340.775C370.141 300.76 358.505 300.681 372.199 300.681C372.832 300.681 373.386 300.127 373.386 299.493C373.386 298.86 372.832 298.306 372.119 298.306ZM310.381 296.565C308.639 297.198 306.977 295.852 307.215 293.874C307.373 292.766 308.164 291.974 308.718 291.816C309.272 291.499 310.301 291.578 311.093 292.291C312.676 293.636 312.201 295.852 310.381 296.565ZM324.865 295.14H320.116C319.641 295.14 319.325 294.744 319.325 294.349C319.325 293.874 319.721 293.557 320.116 293.557H324.865C325.34 293.557 325.657 293.953 325.657 294.349C325.657 294.744 325.261 295.14 324.865 295.14ZM338.005 295.378H333.256C332.781 295.378 332.464 294.982 332.464 294.586C332.464 294.111 332.86 293.795 333.256 293.795H338.005C338.48 293.795 338.796 294.19 338.796 294.586C338.796 294.982 338.401 295.378 338.005 295.378ZM355.418 295.773C355.418 296.248 355.102 296.565 354.627 296.565H348.928C348.453 296.565 348.136 296.248 348.136 295.773V292.607C348.136 292.132 348.453 291.816 348.928 291.816H354.627C355.102 291.816 355.418 292.132 355.418 292.607V295.773ZM296.529 299.573C296.529 299.414 298.191 287.621 298.27 287.462C294.313 287.462 201.23 287.067 201.388 287.067C200.755 287.067 200.201 287.621 200.201 288.254V297.99H185.558C184.924 297.99 184.37 298.544 184.37 299.177C184.37 299.81 184.924 300.364 185.558 300.364L297.004 300.443C296.687 300.285 296.45 299.968 296.529 299.573ZM156.429 252.16C156.113 252.16 155.796 252.002 155.559 251.765C155.321 251.527 155.242 251.131 155.242 250.815L161.02 202.928C161.099 202.295 161.654 201.82 162.366 201.899C162.999 201.978 163.474 202.532 163.395 203.244L157.775 249.865L307.769 249.232C307.769 249.074 320.116 160.502 320.116 160.344C320.196 159.711 320.829 159.236 321.462 159.315C322.095 159.394 322.57 160.027 322.491 160.66C322.491 160.819 310.064 250.419 309.985 250.498C309.906 251.052 309.431 251.527 308.798 251.527L156.429 252.16ZM163.395 192.559C162.762 192.48 162.287 191.926 162.366 191.213L168.381 137.311C168.461 136.756 168.936 136.282 169.49 136.282C335.472 127.733 325.578 127.654 326.29 128.445C326.528 128.683 326.607 129.079 326.607 129.395L323.282 153.141C323.203 153.774 322.57 154.249 321.937 154.17C321.304 154.091 320.829 153.458 320.908 152.824L323.995 130.503L170.519 138.577L164.582 191.53C164.661 192.163 164.028 192.638 163.395 192.559Z" fill="white"/>
<path d="M168.223 151.954C168.223 151.321 168.698 150.766 169.41 150.766C219.83 149.104 272.545 146.492 322.965 144.909C323.599 144.909 324.153 145.384 324.153 146.096C324.153 146.809 323.678 147.284 322.965 147.284C272.545 148.946 219.83 151.558 169.41 153.141C168.777 153.141 168.302 152.587 168.223 151.954Z" fill="white"/>
<path d="M181.677 147.838C183.557 147.838 185.081 146.208 185.081 144.197C185.081 142.186 183.557 140.556 181.677 140.556C179.797 140.556 178.273 142.186 178.273 144.197C178.273 146.208 179.797 147.838 181.677 147.838Z" fill="white"/>
<path d="M193.708 147.442C195.588 147.442 197.112 145.812 197.112 143.801C197.112 141.79 195.588 140.16 193.708 140.16C191.828 140.16 190.305 141.79 190.305 143.801C190.305 145.812 191.828 147.442 193.708 147.442Z" fill="white"/>
<path d="M205.267 146.967C207.147 146.967 208.67 145.337 208.67 143.326C208.67 141.315 207.147 139.685 205.267 139.685C203.387 139.685 201.863 141.315 201.863 143.326C201.863 145.337 203.387 146.967 205.267 146.967Z" fill="white"/>
<path d="M248.957 141.031C248.957 140.398 249.432 139.844 250.144 139.844C262.492 139.448 292.016 137.627 304.047 136.757C304.68 136.677 305.234 137.232 305.313 137.865C305.393 138.498 304.839 139.052 304.205 139.131C291.858 140.081 262.809 141.822 250.144 142.297C249.511 142.218 249.036 141.664 248.957 141.031ZM358.345 233.243L320.669 232.847L321.461 220.025L360.166 220.975L358.345 233.243Z" fill="white"/>
<path d="M358.348 234.43C311.965 233.955 325.817 234.114 320.593 234.035C320.276 234.035 319.96 233.876 319.722 233.639C319.485 233.401 319.406 233.085 319.406 232.768L320.197 219.946C320.276 219.312 320.751 218.837 321.384 218.837L360.09 219.787C360.802 219.787 361.356 220.42 361.198 221.133L359.377 233.401C359.457 233.955 358.982 234.43 358.348 234.43ZM321.938 231.66L357.319 231.977L358.823 222.083L322.572 221.212L321.938 231.66ZM353.283 249.786H315.923C315.29 249.786 314.736 249.232 314.736 248.599C314.736 247.965 315.29 247.411 315.923 247.411H353.283C353.916 247.411 354.47 247.965 354.47 248.599C354.47 249.232 353.916 249.786 353.283 249.786ZM350.75 265.854H286.637C286.003 265.854 285.449 265.3 285.449 264.667C285.449 264.033 286.003 263.479 286.637 263.479H350.75C351.383 263.479 351.937 264.033 351.937 264.667C351.937 265.3 351.383 265.854 350.75 265.854Z" fill="white"/>
<path d="M372.834 336.299C372.992 338.199 373.388 340.099 374.1 341.84C373.071 340.178 372.596 338.278 372.834 336.299ZM383.836 350.23C381.461 349.755 379.087 348.805 377.187 347.381L377.424 347.697C377.345 347.618 377.266 347.46 377.187 347.381C375.525 346.114 374.179 344.373 373.704 342.315L375.921 345.481C375.208 344.373 374.654 343.106 374.179 341.919C379.245 350.309 390.959 348.33 398.083 341.286C403.782 335.587 403.624 328.701 400.458 324.901C401.962 325.693 403.228 326.88 404.178 328.226C411.222 338.278 401.17 353.792 383.836 350.23Z" fill="white"/>
<path d="M387.316 313.266C377.185 313.266 368.953 321.498 368.953 331.629C368.953 341.761 377.185 349.993 387.316 349.993C397.448 349.993 405.68 341.761 405.68 331.629C405.601 321.498 397.369 313.266 387.316 313.266ZM396.577 326.959L385.496 338.041C385.021 338.516 384.309 338.516 383.834 338.041L378.689 332.896C378.214 332.421 378.214 331.709 378.689 331.234C379.164 330.759 379.876 330.759 380.351 331.234L384.704 335.587L394.994 325.297C395.469 324.822 396.182 324.822 396.656 325.297C397.131 325.772 397.052 326.485 396.577 326.959Z" fill="white"/>
<path d="M302.466 388.857C303.257 386.165 303.257 385.216 305.553 364.953C305.711 363.765 305.79 362.578 306.344 361.47C307.611 358.858 310.46 358.304 312.835 361.391C316.634 366.298 316.792 374.53 309.906 382.287C307.373 385.136 304.286 387.511 301.199 389.727" fill="white"/>
<path d="M282.044 423.051C281.015 417.985 282.202 412.444 285.447 406.666C290.355 397.959 298.508 392.102 303.89 383.87C307.531 378.251 310.064 369.94 306.423 363.291C306.106 362.737 306.344 362.024 306.898 361.708C307.452 361.391 308.164 361.629 308.481 362.183C312.676 369.702 309.906 378.963 305.869 385.137C300.486 393.527 292.175 399.542 287.505 407.774C284.498 412.998 283.469 417.985 284.339 422.497C284.498 423.13 284.023 423.763 283.389 423.921C282.835 424.08 282.202 423.684 282.044 423.051Z" fill="white"/>
<path d="M297.478 393.764C297.003 393.368 296.844 392.577 297.319 392.102C299.852 388.936 304.364 387.986 307.451 386.64C310.617 385.215 313.941 384.345 316.474 382.287C319.799 379.596 321.223 375.321 321.777 372.155C323.044 365.348 321.54 357.908 317.741 351.655C315.999 348.805 312.437 347.935 309.588 349.597C306.976 351.101 303.097 355.85 298.744 359.649C297.478 360.757 296.132 361.945 295.42 363.211C290.829 370.81 292.728 380.15 299.536 385.136C300.09 385.532 300.169 386.244 299.773 386.798C299.377 387.353 298.665 387.432 298.111 387.036C290.433 381.416 288.138 370.651 293.362 362.024C294.707 359.887 297.082 358.145 298.665 356.483C305.235 349.993 306.343 348.726 308.321 347.539C312.279 345.244 317.266 346.51 319.64 350.388C323.756 357.116 325.339 365.19 323.994 372.551C323.36 376.034 321.777 380.941 317.82 384.107C314.97 386.403 311.408 387.432 308.321 388.777C305.155 390.202 301.119 390.994 299.061 393.526C298.902 393.922 297.953 394.239 297.478 393.764ZM290.433 423.604C289.8 423.525 289.325 422.971 289.404 422.259C289.958 416.956 288.613 411.969 285.526 407.774C280.697 401.363 270.803 397.405 269.062 388.223C268.904 387.59 269.379 386.957 270.012 386.798C270.645 386.64 271.278 387.115 271.437 387.748C272.94 395.743 282.518 399.779 287.425 406.27C290.908 410.94 292.491 416.56 291.779 422.417C291.62 423.209 291.066 423.683 290.433 423.604Z" fill="white"/>
<path d="M273.177 403.025C261.7 400.967 253.864 390.123 255.605 378.567C256.001 376.034 256.872 373.501 257.505 371.127C258.613 367.248 263.283 365.428 266.766 367.881C269.774 370.019 273.019 371.997 275.473 374.847C280.459 380.546 281.409 389.569 277.689 396.139C277.372 396.693 276.66 396.93 276.106 396.614C275.552 396.297 275.314 395.585 275.631 395.031C278.876 389.253 278.005 381.416 273.652 376.43C271.357 373.818 268.191 371.918 265.341 369.86C263.283 368.435 260.434 369.385 259.8 371.839C259.167 374.134 258.297 376.667 257.98 378.963C256.397 389.253 263.362 398.909 273.573 400.73C274.206 400.809 274.681 401.442 274.523 402.075C274.444 402.708 273.81 403.183 273.177 403.025ZM285.525 423.842C284.971 423.525 284.733 422.813 285.05 422.259C290.274 412.128 305.076 412.602 308.954 403.104C309.191 402.471 309.904 402.234 310.537 402.471C311.17 402.708 311.408 403.421 311.17 404.054C309.033 409.357 303.651 412.207 298.664 414.581C294.153 416.718 289.483 418.855 287.187 423.367C286.95 423.763 286.158 424.159 285.525 423.842Z" fill="white"/>
<path d="M299.3 414.265C305.949 414.898 313.151 415.294 318.455 410.782C320.987 408.645 322.729 405.32 322.412 401.996C322.096 398.672 319.642 395.506 316.397 394.872C313.626 394.397 310.856 395.664 308.481 397.326C304.365 400.255 301.199 404.45 299.379 409.199C298.983 410.228 297.875 411.178 297.875 412.286C297.954 413.394 298.271 414.66 299.3 414.265Z" fill="white"/>
<path d="M299.456 415.452C298.19 415.768 296.765 414.898 296.765 412.286C296.765 410.703 298.032 409.674 298.348 408.803C300.169 403.895 303.572 399.463 307.846 396.455C311.012 394.239 313.941 393.289 316.632 393.843C320.273 394.476 323.36 398.038 323.677 401.996C323.993 405.478 322.252 409.278 319.244 411.811C316.791 413.948 313.387 415.293 309.429 415.768C306.105 416.006 302.781 415.768 299.456 415.452ZM317.74 409.832C320.194 407.774 321.54 404.766 321.302 402.075C321.065 399.146 318.849 396.534 316.237 396.059C314.179 395.664 311.883 396.455 309.271 398.276C305.393 401.046 302.306 405.083 300.564 409.594C300.169 410.623 299.14 411.652 299.14 412.286C299.14 412.602 299.14 412.919 299.219 413.077C300.723 412.919 311.329 415.293 317.74 409.832ZM317.107 424H264.234C263.6 424 263.046 423.446 263.046 422.813C263.046 422.18 263.6 421.626 264.234 421.626H317.107C317.74 421.626 318.294 422.18 318.294 422.813C318.294 423.446 317.82 424 317.107 424ZM141.943 414.264C141.231 412.523 140.914 410.386 140.993 407.932C141.073 404.449 140.835 402.629 140.598 398.592C140.598 397.959 141.073 397.405 141.706 397.326C142.339 397.247 142.893 397.801 142.972 398.434C143.21 402.312 143.447 404.291 143.368 407.932C143.289 410.069 143.605 411.89 144.16 413.315C144.397 413.948 144.08 414.581 143.447 414.818C142.893 415.214 142.181 414.898 141.943 414.264Z" fill="white"/>
<path d="M33.5047 283.901C32.9506 284.217 30.6552 287.146 30.022 287.067C28.8347 286.909 29.3096 284.534 29.3096 283.268C29.3096 282.08 28.6764 279.231 27.7266 278.439C28.4389 279.073 38.1747 275.986 39.2828 275.669C41.5782 275.115 47.0397 272.582 48.9394 274.403C45.2984 277.806 37.7789 281.289 33.5047 283.901ZM100.863 273.374C102.921 274.403 104.267 276.777 103.871 278.993C103.554 280.656 102.367 282.001 102.288 283.743C102.209 285.167 103 286.434 103.238 287.858C103.713 290.866 101.496 293.874 98.8053 295.22C96.1141 296.565 92.8689 296.723 89.7819 296.803C89.2279 296.09 89.5445 294.903 90.336 294.27C91.8399 293.082 94.7685 293.557 97.2223 291.816C98.4095 290.945 99.2802 289.362 98.9636 287.938C98.8053 287.225 99.5177 286.275 99.4385 285.484C99.2802 283.584 99.1219 282.001 99.2011 280.101C99.2802 278.439 98.8844 277.727 97.2223 277.569C94.9268 277.331 90.336 280.418 91.2858 276.223C92.0774 272.582 98.2512 272.028 100.863 273.374ZM143.21 405.637C142.893 402.392 142.497 399.146 142.181 395.98C142.576 399.621 155.557 397.405 157.141 398.592C153.499 402.154 148.117 404.45 143.21 405.637ZM41.1033 302.581C38.0955 302.739 34.7711 302.422 32.634 300.364C30.1011 297.832 30.2594 293.795 30.4969 290.233C31.4467 293.557 32.7132 297.198 35.8001 298.623C37.6206 299.415 39.7577 299.335 41.7365 299.098C47.9104 298.544 54.0843 297.278 60.2581 296.644C59.2292 301.314 45.0609 302.422 41.1033 302.581ZM78.4632 272.424C79.0172 274.957 79.4921 277.648 78.7798 280.181C80.1254 275.59 86.4575 268.941 83.2123 263.954C78.4632 256.831 77.8299 269.574 78.4632 272.424Z" fill="white"/>
<path d="M56.3007 348.726C56.1424 348.726 55.905 348.647 55.7467 348.568C55.1926 348.251 54.6385 348.014 54.0845 347.618C43.6364 341.365 36.2752 327.197 33.1091 315.482C32.9508 314.849 33.3466 314.216 33.9798 314.057C34.613 313.899 35.2462 314.295 35.4045 314.928C36.9876 320.865 39.4413 326.564 42.5282 331.788C46.3276 338.278 50.5226 342.79 55.3509 345.639C55.8258 345.956 56.3799 346.193 56.8548 346.51C57.4089 346.827 57.6463 347.539 57.4089 348.093C57.1714 348.489 56.6965 348.726 56.3007 348.726ZM90.0196 309.308C89.1489 308.675 89.9404 309.229 88.7532 293.953C88.674 293.32 89.2281 292.766 89.8613 292.686C90.4945 292.607 91.0486 293.161 91.1277 293.794C91.5235 298.86 91.761 302.976 91.8401 306.775C105.454 302.66 120.81 299.493 137.353 297.356C137.511 285.8 137.669 274.165 137.748 262.609C121.681 263.954 105.217 264.746 89.1489 266.091C89.2281 269.574 89.4655 273.294 89.7821 277.727C90.2571 277.568 90.8111 277.331 91.5235 277.093C93.0274 276.618 94.373 276.302 96.1935 276.144C97.3016 276.064 98.6472 276.381 99.4387 276.935C99.9136 277.252 100.151 277.727 100.151 278.36C100.23 279.31 99.7553 280.418 99.2013 280.972C98.7264 281.447 98.014 281.447 97.5391 281.051C97.0642 280.576 97.0642 279.864 97.4599 279.389C97.6182 279.23 97.6974 278.993 97.7765 278.835C97.4599 278.676 96.8267 278.597 96.4309 278.597C94.8479 278.756 93.6606 279.072 92.2359 279.468C91.286 279.705 90.732 280.022 90.1779 280.18C89.7821 280.339 89.4655 280.497 89.0698 280.576C88.7532 280.655 88.3574 280.655 88.0408 280.418C87.7242 280.18 87.5659 279.864 87.4867 279.547C87.091 273.927 86.7744 269.336 86.6952 265.062C86.6952 264.429 87.1701 263.875 87.8033 263.875C96.2726 263.163 105.059 262.529 113.449 261.975C121.76 261.421 130.387 260.867 138.777 260.155C139.094 260.155 139.411 260.234 139.648 260.471C139.886 260.709 140.044 261.025 140.044 261.342C139.886 274.244 139.727 285.8 139.569 298.465C139.569 299.019 139.094 299.573 138.54 299.652C121.047 301.868 105.059 305.192 90.8903 309.546C90.732 309.625 90.3362 309.546 90.0196 309.308Z" fill="white"/>
<path d="M90.3363 309.071C87.4076 308.042 84.8747 307.251 82.5002 306.459C80.0465 305.668 77.5136 304.797 74.585 303.847C74.0309 303.689 73.7143 303.135 73.7934 302.581C73.8726 302.027 74.2683 301.631 74.8224 301.552C80.0465 300.84 85.5871 300.285 90.0988 299.811C90.732 299.731 91.3652 300.206 91.4444 300.84C91.5235 301.473 91.0486 302.106 90.4154 302.185C87.4076 302.502 83.9249 302.897 80.3631 303.293C83.8458 304.401 87.091 305.509 91.2069 306.934C91.8401 307.172 92.1568 307.805 91.9193 308.438C91.6818 308.992 90.9695 309.309 90.3363 309.071ZM128.646 359.65C128.646 359.808 128.646 359.887 128.567 360.045C127.3 355.455 125.638 350.785 124.055 346.431H125.322C125.876 346.431 126.271 346.748 126.43 347.302C128.25 353.317 128.567 354.267 128.567 354.426C128.646 354.426 128.646 354.346 128.646 359.65ZM136.007 419.805C129.754 402.471 123.818 377.063 117.644 359.808C117.406 359.175 117.723 358.542 118.356 358.304C118.989 358.067 119.623 358.383 119.86 359.016C126.113 376.351 132.049 401.759 138.223 419.014C138.461 419.647 138.144 420.28 137.511 420.518C136.878 420.755 136.245 420.439 136.007 419.805ZM95.8769 415.769C95.2437 415.689 94.7688 415.056 94.9271 414.423C97.8557 397.722 101.022 376.747 103.95 360.045C104.03 359.412 104.663 358.937 105.296 359.096C105.929 359.175 106.404 359.808 106.246 360.441C103.317 377.063 100.151 398.118 97.2225 414.819C97.2225 415.373 96.5893 415.927 95.8769 415.769ZM23.0568 413.157C22.4236 412.919 22.107 412.286 22.3445 411.653L40.9452 359.491C41.1827 358.858 41.8159 358.542 42.4491 358.779C43.0824 359.016 43.399 359.65 43.1615 360.283L24.5607 412.444C24.3233 413.077 23.6901 413.394 23.0568 413.157ZM65.4824 419.33C62.4747 402.708 57.4881 377.538 54.4803 360.837C54.4011 360.204 54.7969 359.57 55.4301 359.491C56.0633 359.412 56.6965 359.808 56.7757 360.441C59.7835 377.063 64.7701 402.234 67.7779 418.935C67.857 419.568 67.4613 420.201 66.828 420.28C66.1948 420.359 65.5616 419.964 65.4824 419.33ZM30.8929 295.536C29.0724 290.629 27.6477 284.138 27.3311 278.598C27.2519 277.965 27.806 277.41 28.4392 277.331C29.0724 277.252 29.6265 277.806 29.7056 278.439C30.1014 283.743 31.3678 289.996 33.1883 294.745C34.3756 297.911 35.4046 298.702 40.2329 298.148C49.0188 297.119 57.963 295.457 64.0577 293.716C64.6909 293.558 65.3241 293.874 65.4824 294.507C65.6408 295.141 65.3241 295.774 64.6909 296.011C58.4379 297.753 49.4145 299.494 40.4703 300.523C35.3254 301.077 32.6343 300.365 30.8929 295.536Z" fill="white"/>
<path d="M29.9417 315.245C29.4668 315.087 29.1502 314.691 29.071 314.216C28.6753 307.251 28.042 291.658 28.4378 286.829V286.671C28.517 286.038 29.071 285.563 29.7834 285.642C30.4166 285.721 30.9707 286.275 30.8124 287.067C30.4958 291.499 30.9707 305.984 31.4456 313.187C51.946 319.202 72.8422 316.828 88.831 306.776C89.385 306.459 90.0974 306.617 90.4932 307.171C90.8889 307.725 90.6515 308.438 90.0974 308.834C72.5256 319.915 50.363 321.419 29.9417 315.245ZM79.2536 279.547C78.6203 279.547 78.0663 278.993 78.1454 278.281C78.3829 273.848 79.2536 266.408 79.4119 262.055C79.4119 261.421 79.9659 260.867 80.6783 260.946C81.3115 260.946 81.8656 261.5 81.7864 262.213C81.549 266.645 80.6783 274.086 80.52 278.439C80.4408 279.072 79.8868 279.547 79.2536 279.547ZM87.3271 243.85C82.8946 239.734 77.4331 236.409 71.4966 233.956C70.8634 233.718 70.626 233.006 70.8634 232.372C71.1009 231.739 71.8132 231.502 72.4465 231.739C78.462 234.193 84.161 237.676 88.9893 242.108C89.4642 242.583 89.4642 243.295 89.0684 243.77C88.5935 244.245 87.802 244.245 87.3271 243.85ZM99.5957 263.954L99.1999 260.234C96.113 254.456 93.1052 250.023 89.4642 245.828C88.9893 245.353 89.0684 244.562 89.5434 244.166C90.0183 243.691 90.8098 243.77 91.2056 244.245C95.0049 248.52 98.2501 253.269 101.416 259.284C101.495 259.443 101.495 259.522 101.575 259.68L102.049 263.638C102.129 264.271 101.654 264.904 101.02 264.983C100.229 265.062 99.6749 264.587 99.5957 263.954ZM85.5066 283.98C85.3483 283.347 85.8232 282.713 86.4564 282.555C87.802 282.318 88.9893 282.001 90.1766 281.684C92.7094 281.051 95.2423 280.26 97.6169 279.31C98.2501 279.072 98.8833 279.389 99.1208 280.022C99.3582 280.655 99.0416 281.289 98.4084 281.526C95.9547 282.476 93.2635 283.267 90.6515 283.98C89.4642 284.296 88.1978 284.534 86.8522 284.85C86.219 285.088 85.5857 284.613 85.5066 283.98Z" fill="white"/>
<path d="M50.6017 285.088C48.5438 284.376 47.4356 282.397 47.7522 279.785C47.9105 278.281 47.5939 275.906 47.6731 274.007C47.6731 273.373 48.2272 272.819 48.8604 272.819C49.4936 272.819 50.0477 273.373 50.0477 274.007C49.9685 275.748 50.2851 278.202 50.1268 279.943C50.0477 280.497 49.9685 282.238 51.3932 282.713C52.4222 283.03 52.4222 282.872 72.6852 280.497C74.664 280.26 76.6428 279.468 78.305 278.202C79.8881 277.014 81.6294 275.985 83.9248 274.561C84.4789 274.165 85.1913 273.769 85.9828 273.69C87.0909 273.532 88.3573 273.927 88.7531 275.036C89.228 276.46 87.9616 277.489 86.9326 278.518C87.4867 278.439 88.0407 278.281 88.5948 278.202C89.228 278.123 89.8612 278.518 89.9404 279.152C90.0195 279.785 89.6238 280.418 88.9906 280.497C87.2492 280.814 85.3496 281.209 83.4499 281.605C82.975 281.764 82.4209 281.526 82.1043 281.051C81.8669 280.576 81.946 280.022 82.2626 279.626L85.8245 276.065C85.587 276.144 85.3496 276.302 85.1121 276.46C82.975 277.806 81.1545 278.914 79.6506 280.022C77.6718 281.526 75.2972 282.476 72.8435 282.793C66.5905 283.505 60.4166 284.296 54.1636 285.088C52.9763 285.325 51.789 285.484 50.6017 285.088ZM84.7163 288.096C84.558 287.463 84.9538 286.829 85.587 286.671C89.5446 285.8 93.1856 284.692 96.7475 283.347C97.3016 283.109 97.7765 282.951 98.1722 282.634C98.4097 282.397 98.4888 282.159 98.4888 282.159C98.4097 282.001 98.3305 281.764 98.2514 281.605C96.9849 281.605 96.6683 279.943 97.6973 279.389C99.0429 278.677 100.309 280.022 100.784 281.526C101.101 282.555 100.705 283.663 99.8344 284.455C99.2012 285.009 98.4888 285.325 97.6973 285.642C94.0563 287.067 90.3362 288.175 86.2202 289.125C85.5079 289.125 84.8747 288.729 84.7163 288.096Z" fill="white"/>
<path d="M86.2991 290.708C86.2199 290.075 86.6157 289.441 87.2489 289.362C91.3648 288.729 93.2645 288.254 96.9847 286.592C97.143 286.513 97.3804 286.275 97.9345 285.563V285.326C97.3013 285.167 96.9055 284.455 97.143 283.822C97.3013 283.188 97.9345 282.793 98.5677 283.03C99.3592 283.268 99.9133 283.822 100.151 284.534C100.388 285.326 100.309 286.275 99.8341 286.988C99.2801 287.779 98.6468 288.492 97.8553 288.808C93.8977 290.55 91.8398 291.024 87.5655 291.737C87.0115 291.816 86.4574 291.341 86.2991 290.708Z" fill="white"/>
<path d="M81.3144 295.615C76.2486 295.615 74.2698 294.032 69.4415 295.457C68.8083 295.615 68.1751 295.299 67.9377 294.666C67.7794 294.032 68.096 293.399 68.7292 293.162C72.2119 292.133 74.5073 292.449 76.8819 292.766C81.3144 293.478 82.1059 293.083 83.4515 293.083C88.3589 292.924 92.554 292.766 96.9865 289.758C97.1448 289.679 97.4615 289.046 97.6198 288.492V288.413C97.1449 288.175 96.9074 287.621 97.0657 287.067C97.224 286.434 97.9364 286.038 98.4904 286.275C99.5194 286.592 100.153 287.7 99.836 288.967C99.6777 289.916 99.0445 291.262 98.253 291.816C93.2664 295.14 88.5172 295.378 83.4515 295.536L82.1059 295.615H81.3144ZM22.9 279.627C23.1375 272.899 24.0873 266.012 25.7495 259.285C25.9078 258.651 26.541 258.256 27.1742 258.414C27.8075 258.572 28.2032 259.205 28.0449 259.839C26.541 265.854 25.5912 271.949 25.2746 277.964C34.7729 275.036 44.3503 272.899 53.6903 271.632C54.1652 269.099 54.4026 266.567 54.9567 264.113C55.115 263.48 55.7482 263.084 56.3814 263.163C57.0146 263.321 57.4104 263.954 57.3312 264.588C56.7772 267.279 56.5397 270.128 55.9065 272.978C55.8274 273.453 55.4316 273.849 54.8775 273.928C44.9043 275.194 34.6145 277.569 24.4039 280.814C23.6124 281.051 22.8209 280.418 22.9 279.627ZM28.0449 255.485C27.4117 255.327 27.0951 254.615 27.2534 253.981C28.2032 250.815 29.3905 247.57 30.7361 244.404C31.6859 242.029 32.9524 239.417 35.3269 237.438C38.9679 234.352 44.6669 233.243 49.2577 231.344C51.1574 230.552 52.5821 229.761 53.6903 228.89C54.1652 228.494 54.7984 228.573 55.1941 228.89C59.1518 232.373 64.3758 236.172 68.5709 239.655C69.0458 237.28 69.7582 234.747 70.0748 232.531C70.1539 231.74 70.708 231.423 71.2621 231.423C71.8953 231.423 72.5285 231.977 72.3702 232.769C72.2119 234.035 71.6578 236.647 71.4204 237.518C71.1037 239.022 70.708 240.605 70.5497 242.108C70.4705 242.583 70.2331 242.9 69.7582 243.058C69.3624 243.217 68.8875 243.137 68.5709 242.821C66.2755 240.842 63.6634 238.784 61.1306 236.805C58.8351 234.985 56.4606 233.164 54.3235 231.344C49.2577 234.826 40.9467 235.697 36.7517 239.259C34.7729 240.921 33.7439 243.137 32.8732 245.354C31.6068 248.441 30.4195 251.607 29.4697 254.694C29.3113 255.327 28.6781 255.723 28.0449 255.485Z" fill="white"/>
<path d="M71.2591 234.035C70.6259 234.035 70.0718 233.48 70.0718 232.847L69.9927 226.99C69.9927 226.357 70.5467 225.803 71.18 225.803C71.8132 225.803 72.3673 226.278 72.3673 226.99C72.3673 227.702 72.4464 233.243 72.4464 232.847C72.4464 233.48 71.8923 234.035 71.2591 234.035ZM44.2682 288.966C43.7933 288.57 43.635 287.779 44.1099 287.304L47.9883 282.476C48.3841 282.001 49.1756 281.843 49.6506 282.317C50.1255 282.792 50.2838 283.505 49.8089 283.98L45.9304 288.808C45.4555 289.283 44.7431 289.362 44.2682 288.966ZM34.295 290.866C33.5826 290.154 33.3452 289.045 33.5826 288.096C32.6328 286.987 32.2371 285.404 32.6328 284.059C32.7911 283.426 33.4243 283.03 34.0576 283.188C34.6908 283.346 35.0865 283.98 34.9282 284.613C34.6908 285.404 35.0865 286.354 35.7198 286.829C36.2738 287.225 36.353 288.096 35.8781 288.65C35.7989 288.729 35.7989 289.045 35.8781 289.204C36.353 289.679 36.353 290.391 35.8781 290.866C35.4823 291.262 34.7699 291.262 34.295 290.866ZM110.281 264.033C109.727 263.717 109.49 263.004 109.806 262.45C110.519 261.105 111.31 259.68 112.023 258.334C113.606 255.485 115.822 251.448 118.038 246.778C118.355 246.145 118.988 245.907 119.621 246.224C120.254 246.541 120.492 247.174 120.175 247.807C119.305 249.707 117.484 253.348 116.455 255.247C114.951 258.097 113.368 260.788 111.943 263.558C111.627 263.954 110.835 264.35 110.281 264.033ZM131.177 262.767C130.307 262.767 129.673 261.817 130.148 261.025L133.314 255.089C133.631 254.535 134.343 254.298 134.898 254.614C135.452 254.931 135.689 255.643 135.372 256.197L132.206 262.134C132.048 262.529 131.652 262.767 131.177 262.767ZM127.695 246.461C126.428 245.274 126.507 241.554 128.328 240.763C128.407 240.763 128.486 240.683 128.565 240.683C129.436 240.446 130.465 240.525 131.415 240.683C131.89 240.763 132.365 240.842 132.602 240.763C133.789 240.683 134.898 240.208 135.135 239.575C135.214 239.179 134.898 238.705 134.502 238.388C133.869 237.913 132.998 237.676 132.206 237.438C129.753 236.726 128.09 236.409 126.27 237.834C125.558 238.388 124.845 239.1 124.291 239.654C123.5 240.525 122.629 242.029 121.837 243.375C121.758 243.533 121.679 243.77 121.521 244.008C120.888 245.037 119.384 244.641 119.305 243.454C119.305 243.137 119.384 242.82 119.621 242.425C120.492 240.763 121.521 239.021 122.55 237.992C123.737 236.805 125.162 235.38 126.824 234.826C128.882 234.114 130.94 234.589 132.84 235.143C133.869 235.459 134.977 235.776 135.927 236.488C138.855 238.705 137.668 242.9 132.681 243.137C131.731 243.216 129.99 242.741 129.278 242.9C129.119 243.295 129.119 244.404 129.278 244.72C129.753 245.195 129.753 245.907 129.278 246.382C128.961 246.936 128.17 246.936 127.695 246.461Z" fill="white"/>
<path d="M134.347 256.831C134.03 256.831 133.793 256.751 133.555 256.514C133.08 256.039 133.08 255.327 133.555 254.852C135.851 252.477 137.038 251.211 139.017 248.915C138.621 249.153 138.146 249.311 137.592 249.311C135.297 249.232 134.347 246.699 136.088 244.641C136.642 244.087 137.117 243.454 137.83 242.821C138.463 242.267 139.254 241.713 139.967 241.158C141.075 240.367 142.262 240.05 143.291 240.367C145.032 240.842 145.745 242.742 145.349 244.245C144.953 245.749 143.766 247.016 142.658 248.282C139.413 252.081 138.146 253.427 135.218 256.514C134.98 256.672 134.664 256.831 134.347 256.831ZM139.175 246.541C139.729 246.857 139.888 247.491 139.65 248.045C140.125 247.57 140.442 247.174 141.708 245.67C142.262 245.037 142.895 244.245 143.054 243.533C143.133 243.137 142.975 242.583 142.658 242.504C142.341 242.425 141.866 242.583 141.391 242.9L141.075 243.137C139.334 244.404 139.096 244.72 138.225 245.67L137.988 245.987C137.75 246.303 137.592 246.62 137.592 246.778H137.671C137.988 246.383 138.621 246.303 139.175 246.541Z" fill="white"/>
<path d="M132.764 246.303C131.418 244.799 132.605 242.029 134.03 240.842C134.505 240.446 135.296 240.446 135.692 241C136.088 241.475 136.088 242.267 135.534 242.662C134.901 243.216 134.426 244.404 134.505 244.72C134.98 245.116 136.088 244.641 136.484 244.166C136.879 243.612 137.592 243.533 138.146 243.929C138.7 244.325 138.779 245.037 138.383 245.591C137.671 246.541 136.405 247.253 135.217 247.253C134.188 247.253 133.318 246.937 132.764 246.303ZM142.024 242.267C141.549 241.871 141.391 241.158 141.708 240.684C141.708 240.525 141.629 239.971 141.47 239.734C141.312 239.496 140.52 238.863 140.204 238.784C139.65 238.784 139.096 238.388 139.017 237.834C138.937 237.438 138.858 237.28 138.383 237.043C137.75 236.726 136.563 236.489 136.167 236.568C135.692 236.726 135.138 236.568 134.822 236.172C134.505 235.776 134.505 235.222 134.742 234.826C135.613 233.481 142.024 223.903 142.183 222.32C142.262 222.004 142.104 221.766 141.945 221.608C141.708 221.45 141.154 221.529 140.679 221.766C139.808 222.241 139.966 222.32 129.202 236.33C128.806 236.884 128.094 236.963 127.539 236.568C126.985 236.172 126.906 235.46 127.302 234.905L137.275 221.924C137.829 221.212 138.463 220.341 139.412 219.787C140.679 219.075 142.183 218.996 143.212 219.629C144.161 220.262 144.636 221.37 144.478 222.637C144.399 223.508 144.003 224.299 143.528 225.011C141.787 228.178 139.808 231.344 137.829 234.351C139.254 234.668 140.52 235.301 141.075 236.647C142.104 237.043 143.132 238.072 143.449 238.546C143.924 239.338 144.399 241 143.607 242.029C143.291 242.583 142.499 242.662 142.024 242.267Z" fill="white"/>
<path d="M133.794 242.504C133.398 242.029 133.477 241.238 133.952 240.842C134.585 240.288 138.622 237.122 139.255 236.568C139.73 236.172 140.522 236.251 140.917 236.726C141.313 237.201 141.234 237.993 140.759 238.388C140.047 238.942 136.089 242.188 135.456 242.663C135.298 242.9 134.269 243.058 133.794 242.504ZM194.82 375.084C193.158 372.947 191.575 370.731 189.913 368.594C189.517 368.04 189.596 367.327 190.15 366.932C190.704 366.536 191.416 366.615 191.812 367.169C199.015 376.588 199.411 378.409 204.397 376.192C209.067 374.134 216.745 369.623 219.99 366.694C221.257 365.586 222.523 364.32 222.998 362.816C223.394 361.549 223.157 359.887 221.89 359.096C220.782 358.383 219.278 358.462 218.487 358.621C217.22 358.858 215.795 359.096 214.45 359.57C203.052 363.528 198.619 357.275 197.511 355.217C197.195 354.663 197.432 353.951 197.986 353.634C198.54 353.317 199.253 353.555 199.569 354.109C200.677 356.167 204.318 360.599 213.658 357.354C215.162 356.8 216.745 356.563 218.091 356.325C219.516 356.088 221.573 356.009 223.236 357.196C225.214 358.541 226.006 361.154 225.214 363.607C224.581 365.665 223.077 367.169 221.574 368.594C218.012 371.76 210.176 376.351 205.347 378.488C200.598 380.467 198.065 379.359 194.82 375.084ZM144.4 417.985C143.925 417.51 143.925 416.798 144.321 416.323C144.796 415.848 145.508 415.848 145.983 416.243C148.358 418.46 152.315 418.46 155.561 418.381C165.85 418.143 169.966 418.618 172.816 416.639C173.845 415.927 174.715 414.74 174.478 413.631C174.32 412.761 173.37 411.89 172.024 411.257C170.679 410.624 169.096 410.307 167.512 409.753C161.259 407.537 157.777 403.658 157.302 398.197C157.223 397.564 157.698 396.93 158.331 396.93C158.964 396.851 159.597 397.326 159.597 397.959C160.468 406.666 169.808 407.695 172.974 409.12C174.161 409.674 176.298 410.94 176.773 413.236C177.169 415.215 176.14 417.352 174.161 418.697C171.312 420.676 167.512 420.676 164.742 420.755L155.561 420.913C151.603 420.755 147.329 420.676 144.4 417.985ZM47.3594 360.837H127.224C125.878 355.929 124.058 351.022 122.396 346.352H47.3594V360.837ZM45.7763 346.352H24.1678C23.5345 346.352 22.9805 346.906 22.9805 347.539V359.65C22.9805 360.283 23.5345 360.837 24.1678 360.837H45.7763V346.352Z" fill="white"/>
<path d="M116.067 285.553C118.946 285.358 121.169 283.573 121.033 281.567C120.898 279.561 118.454 278.093 115.575 278.288C112.697 278.483 110.473 280.267 110.609 282.273C110.745 284.279 113.189 285.748 116.067 285.553Z" fill="white"/>
<path d="M165.767 396.297C163.947 384.424 159.435 362.974 156.665 350.626C148.908 342.394 140.201 335.666 131.811 331.392C126.666 328.859 124.846 329.176 120.492 335.745C121.046 337.645 121.679 339.703 122.392 341.919C122.708 342.157 122.629 342.394 123.579 344.927C126.033 351.892 129.278 360.441 130.545 368.435V368.831C133.711 379.754 136.481 390.044 137.827 397.801C137.906 398.355 138.381 398.751 138.935 398.751C147.167 399.463 156.586 398.751 164.817 397.563C165.134 397.484 165.451 397.326 165.609 397.088C165.688 396.93 165.767 396.613 165.767 396.297ZM136.243 359.333C135.927 359.57 135.452 359.729 135.056 359.729C133.315 359.729 132.128 357.908 132.919 355.692C133.236 354.979 133.473 354.584 134.106 353.555C134.265 353.238 134.265 353.08 134.265 353.08C134.106 353.001 133.473 352.842 132.998 352.446C132.128 351.655 132.444 350.468 132.682 349.676C133.157 347.935 132.761 348.647 131.494 348.093C130.386 347.618 129.911 346.431 129.99 345.402C130.07 344.452 130.465 343.661 130.782 342.948C131.019 342.552 131.494 342.394 131.811 342.632C132.207 342.869 132.365 343.344 132.128 343.661C131.811 344.294 131.494 344.927 131.494 345.56C131.494 346.035 131.653 346.589 132.048 346.748C132.523 346.906 133.236 346.827 133.869 347.381C134.74 348.172 134.423 349.36 134.186 350.151C133.869 351.418 133.948 351.338 134.423 351.576C134.819 351.734 135.294 351.892 135.61 352.446C136.323 353.713 134.898 355.059 134.344 356.404C134.027 357.196 134.106 358.225 134.898 358.304C134.977 358.304 135.135 358.304 135.215 358.225C135.531 357.908 136.085 357.987 136.323 358.304C136.639 358.541 136.56 359.095 136.243 359.333Z" fill="white"/>
<path d="M201.943 349.518C180.493 328.701 149.307 308.596 132.606 298.465C131.735 297.911 130.706 298.623 130.786 299.652C127.145 299.256 122.079 300.206 118.754 300.602C111.393 301.552 104.27 303.689 97.225 306.142C95.3253 306.855 93.0299 308.2 90.9719 308.042C90.1804 307.963 89.3889 307.884 88.5974 307.963C86.6186 308.359 85.5104 310.258 83.7691 311.129C82.8193 311.604 81.632 311.841 80.5238 312.158L76.962 313.345C63.1104 317.936 47.5965 320.548 34.1406 314.928C38.2565 326.326 43.2431 338.753 53.4538 345.085H107.752C113.372 340.89 113.293 340.653 117.646 337.249C117.646 337.012 117.725 337.012 118.359 335.983C120.258 332.896 122.949 328.701 126.274 328.384C128.49 328.147 130.627 329.097 132.369 329.967C142.183 334.875 152.315 343.107 160.863 353.08C168.937 359.254 177.485 366.377 186.509 374.53C187.063 375.005 187.933 374.926 188.329 374.293C192.999 366.773 197.353 358.541 201.943 351.022C202.418 350.468 202.339 349.914 201.943 349.518ZM43.718 330.838C43.4014 330.838 43.0848 330.68 43.0057 330.363L41.7392 327.039C41.5809 326.643 41.8184 326.168 42.2142 326.01C42.6099 325.851 43.0848 326.089 43.2431 326.485L44.5096 329.809C44.6679 330.284 44.2721 330.838 43.718 330.838ZM49.1004 327.593C48.8629 327.593 48.5463 327.434 48.388 327.197L46.7258 324.268C46.4884 323.873 46.6467 323.398 47.0424 323.16C47.4382 322.923 47.9131 323.081 48.1506 323.477L49.8128 326.405C50.0502 326.88 49.7336 327.593 49.1004 327.593ZM94.4547 326.643C83.8483 330.917 71.8171 332.025 60.6566 329.572C60.2609 329.492 59.9443 329.097 60.0234 328.622C60.1026 328.226 60.4983 327.909 60.9732 327.988C71.8171 330.284 83.5316 329.334 93.8214 325.139C94.2172 324.981 94.6921 325.139 94.8504 325.614C95.0087 326.01 94.8504 326.485 94.4547 326.643ZM122.237 305.905C120.575 305.826 118.834 306.301 117.567 307.33C117.251 307.567 116.696 307.567 116.459 307.171C116.222 306.855 116.222 306.301 116.617 306.063C118.2 304.797 120.337 304.164 122.395 304.243C122.87 304.243 123.187 304.639 123.108 305.113C123.029 305.588 122.633 305.905 122.237 305.905ZM180.335 344.61C178.277 346.906 174.636 346.668 172.182 345.006C167.67 341.919 166.958 335.508 162.921 332.658C161.18 331.471 158.964 330.996 156.827 330.205C151.523 328.147 148.199 324.902 133.556 312.712C133.239 312.396 133.16 311.921 133.477 311.604C133.793 311.287 134.268 311.208 134.585 311.525C149.545 324.031 152.473 326.88 157.381 328.78C159.518 329.572 161.813 330.046 163.792 331.471C168.304 334.637 168.937 340.969 173.053 343.819C174.794 345.006 177.644 345.323 179.148 343.74C179.464 343.423 179.939 343.423 180.256 343.661C180.572 343.819 180.651 344.294 180.335 344.61Z" fill="white"/>
<path d="M56.5388 346.668C61.9212 349.122 68.095 349.755 74.0315 349.993C83.134 350.468 92.7905 350.072 101.26 347.143C100.943 348.172 102.131 349.043 103.001 348.489C103.951 347.856 104.822 347.222 105.692 346.589H56.5388V346.668ZM33.9804 257.622C33.5846 257.147 33.6638 256.356 34.1387 255.96C36.6716 253.902 36.355 249.469 37.8589 246.145C38.8879 243.929 40.7875 242.029 43.0829 241.079C43.7161 240.842 44.3494 241.079 44.666 241.712C44.9034 242.346 44.666 242.979 44.0328 243.295C42.2914 244.008 40.8667 245.433 40.0751 247.174C38.6504 250.261 39.0462 255.168 35.6426 257.859C35.4843 257.939 34.3762 258.097 33.9804 257.622ZM69.9155 269.811C69.2823 269.811 68.7283 269.257 68.8074 268.545L68.8866 266.566C68.0159 265.933 67.4618 264.983 67.3035 263.954C67.1452 262.609 67.6993 261.184 68.8074 260.392C69.3615 259.997 70.0738 260.076 70.4696 260.63C70.8654 261.184 70.7862 261.896 70.2321 262.292C69.8364 262.609 69.5989 263.163 69.6781 263.638C69.7572 264.113 70.153 264.587 70.5488 264.825C71.0237 264.983 71.3403 265.458 71.2611 266.012L71.1028 268.703C71.1028 269.337 70.5488 269.811 69.9155 269.811ZM52.8978 313.187C51.7897 312.554 50.919 311.525 50.3649 310.417C50.0483 309.863 50.2858 309.15 50.919 308.834C51.4731 308.517 52.1854 308.754 52.502 309.388C52.8978 310.1 53.4519 310.733 54.1642 311.208C54.7183 311.525 54.8766 312.316 54.56 312.87C54.1642 313.345 53.4519 313.504 52.8978 313.187ZM46.1699 314.137L43.2412 310.654C42.8455 310.179 42.8455 309.388 43.3995 308.992C43.8744 308.596 44.666 308.596 45.0617 309.15L47.9904 312.633C48.3861 313.108 48.3861 313.899 47.8321 314.295C47.3571 314.77 46.5656 314.691 46.1699 314.137ZM212.944 362.736C212.865 362.103 213.339 361.47 213.973 361.391L218.563 360.757C219.197 360.678 219.83 361.153 219.909 361.786C219.988 362.42 219.513 363.053 218.88 363.132L214.289 363.765C213.577 363.844 213.023 363.369 212.944 362.736ZM149.78 413.789C148.672 412.048 148.118 409.99 148.197 407.932C148.197 407.299 148.751 406.745 149.384 406.745C150.018 406.745 150.572 407.299 150.572 407.932C150.493 409.515 150.967 411.177 151.838 412.523C152.155 413.077 151.996 413.789 151.442 414.185C150.888 414.502 150.097 414.344 149.78 413.789ZM10.6305 321.181C-0.925736 299.81 -3.22115 273.215 4.53577 250.182C4.77323 249.549 5.40645 249.232 6.03967 249.469C6.67288 249.707 6.9895 250.34 6.75204 250.973C-0.767426 273.452 1.44884 299.256 12.6885 320.073C13.0051 320.627 12.7676 321.34 12.2135 321.656C11.6595 321.973 10.9471 321.735 10.6305 321.181ZM62.7127 221.845C62.4752 221.212 62.871 220.579 63.425 220.341C64.0583 220.104 64.6915 220.5 64.9289 221.054C65.6413 223.191 68.4908 223.982 70.5488 223.349C72.6067 222.637 74.4272 220.895 76.0103 218.046C77.8308 214.801 78.8597 211.081 79.0972 207.36C79.1764 205.619 78.464 204.036 77.8308 202.295C71.4194 206.965 64.2957 207.519 58.5968 203.719C58.3593 203.561 58.201 203.482 57.3303 203.719C56.6971 203.957 55.9056 205.936 56.2222 206.965C56.5388 207.994 57.172 208.706 58.2802 209.656C58.7551 210.052 58.8342 210.843 58.4385 211.318C58.0427 211.793 57.2512 211.872 56.7763 211.476C55.589 210.526 54.4808 209.418 53.9268 207.598C53.4519 205.777 54.4808 202.295 56.5388 201.503C57.4886 201.186 58.6759 200.949 59.8632 201.741C65.1664 205.223 71.5777 204.353 77.6725 199.366C78.3057 198.812 79.3347 199.129 79.5721 199.999C80.2053 202.453 81.5509 204.59 81.3926 207.519C80.9969 214.167 77.5933 223.587 71.2611 225.645C68.095 226.674 63.8208 225.328 62.7127 221.845Z" fill="white"/>
<path d="M60.4975 219.787C58.7561 218.6 58.3604 217.017 57.9646 215.276C57.8063 214.642 58.2021 214.009 58.8353 213.851C59.4685 213.693 60.1017 214.088 60.26 214.722C60.6558 216.384 60.8932 217.254 61.7639 217.888C62.318 218.283 62.4763 218.996 62.0805 219.55C61.7639 220.025 61.0515 220.183 60.4975 219.787ZM72.8452 215.671C73.241 215.197 73.8742 215.117 74.3491 215.355C74.6657 215.038 74.27 214.009 74.1908 213.613C73.241 210.527 74.6657 209.339 75.7739 209.893C76.3279 210.21 76.6445 210.922 76.3279 211.476C75.9322 212.268 77.2778 214.088 76.8028 215.909C76.5654 216.7 75.853 217.413 75.0615 217.65C73.3993 218.125 71.9745 216.78 72.8452 215.671ZM70.3124 219.787C69.8374 219.312 69.8374 218.6 70.3124 218.125C70.7873 217.65 71.4996 217.65 71.9745 218.125C72.1328 218.283 72.3703 218.363 72.6078 218.363C73.241 218.283 73.8742 218.679 73.9534 219.312C74.0325 219.946 73.6367 220.579 73.0035 220.658C72.0537 220.895 71.0247 220.579 70.3124 219.787Z" fill="white"/>
<path d="M44.588 218.521C46.8043 220.42 52.6616 223.745 55.6694 221.766C56.6983 221.054 57.2524 219.866 57.4899 218.6C57.7273 217.334 57.8065 216.938 57.8856 215.671C57.8856 214.563 58.5188 212.03 58.3605 211.081C58.1231 210.052 57.1733 209.972 56.6192 209.181C55.986 208.389 55.5902 207.756 55.3527 206.727C54.6404 203.007 57.8065 201.424 60.2602 203.561C63.1888 206.094 68.8086 207.994 72.2122 205.382C72.6079 205.065 73.0037 204.669 73.5578 204.59C74.3493 204.511 74.9825 205.223 75.5366 205.777C76.0906 206.331 76.8822 206.965 77.6737 206.569C78.4652 206.173 78.7818 204.669 79.6525 204.907C80.6023 205.065 80.444 206.885 81.5522 206.806C82.1062 206.806 82.5811 206.331 82.6603 205.777C83.2935 201.424 81.8688 196.754 78.9401 193.509C76.3281 190.659 70.3917 190.58 66.3549 190.738C65.88 190.738 65.5634 190.343 65.6425 189.868C66.1175 187.177 68.6503 183.852 60.5768 181.636C56.9358 180.607 52.9782 180.607 49.5746 182.269C46.1711 183.931 43.6382 187.493 43.6382 191.292C43.6382 195.092 46.7252 198.891 50.5245 198.97C47.9916 200.632 45.4587 202.295 43.6382 204.669C41.7386 207.044 40.5513 210.131 41.2636 213.138C41.422 215.276 42.8467 217.096 44.588 218.521Z" fill="white"/>
<path d="M54.9564 230.236C54.3232 230.157 53.8483 229.523 53.9274 228.89L55.0356 220.262C55.1147 219.629 55.7479 219.154 56.3812 219.234C57.0144 219.313 57.4893 219.946 57.4101 220.579L56.302 229.207C56.2229 229.84 55.5896 230.315 54.9564 230.236ZM35.485 203.245C35.8016 202.691 36.5139 202.453 37.068 202.77C37.2263 202.849 37.7804 202.612 38.1761 202.137C38.3344 201.978 38.4927 201.741 38.5719 201.583C39.9966 199.604 40.9465 199.208 43.321 199.366H43.6376C45.6956 199.445 47.7536 199.05 49.5741 198.021C50.1281 197.704 50.8405 197.942 51.1571 198.496C51.4737 199.05 51.2363 199.762 50.6822 200.079C46.8037 202.216 43.321 201.662 43.1627 201.662C41.5797 201.583 41.4214 201.583 40.4716 202.928C40.3133 203.166 40.1549 203.403 39.9966 203.561C37.7012 206.411 34.5351 204.907 35.485 203.245ZM116.853 421.468H57.0935C56.4603 421.468 55.9062 420.913 55.9062 420.28C55.9062 419.647 56.4603 419.093 57.0935 419.093H116.853C117.487 419.093 118.041 419.647 118.041 420.28C118.041 420.913 117.487 421.468 116.853 421.468ZM51.7903 421.468H9.83963C9.20641 421.468 8.65234 420.913 8.65234 420.28C8.65234 419.647 9.20641 419.093 9.83963 419.093H51.7903C52.4235 419.093 52.9776 419.647 52.9776 420.28C52.9776 420.913 52.4235 421.468 51.7903 421.468ZM219.039 421.468H183.579C182.946 421.468 182.392 420.913 182.392 420.28C182.392 419.647 182.946 419.093 183.579 419.093H219.039C219.672 419.093 220.226 419.647 220.226 420.28C220.226 420.913 219.672 421.468 219.039 421.468Z" fill="white"/>
<path d="M183.577 421.467C183.023 421.467 182.469 421.071 182.39 420.517C182.152 419.33 183.577 418.618 184.448 419.488C184.685 419.726 184.764 420.042 184.764 420.359C184.764 420.913 184.21 421.467 183.577 421.467Z" fill="white"/>
<path d="M183.578 421.467C182.945 421.467 182.391 420.913 182.391 420.28C182.391 419.647 182.945 419.093 183.578 419.093C184.211 419.093 184.765 419.647 184.765 420.28C184.765 420.913 184.211 421.467 183.578 421.467ZM346.236 161.61C345.444 160.819 344.969 159.711 344.969 158.524V131.295C344.969 129 346.79 127.1 349.085 126.942L387.078 125.359C389.532 125.28 391.59 127.258 391.59 129.712L391.511 138.419C391.511 139.052 390.957 139.606 390.324 139.606C389.69 139.606 389.136 139.052 389.136 138.419L389.215 129.712C389.215 128.604 388.266 127.733 387.158 127.733L349.164 129.316C348.135 129.396 347.265 130.187 347.265 131.295V158.524C347.265 159.632 348.135 160.502 349.244 160.502L386.92 160.423C387.949 160.423 388.82 159.553 388.899 158.524C388.899 155.199 389.057 147.046 389.057 145.147C389.057 144.514 389.611 143.96 390.244 143.96C390.878 143.96 391.432 144.514 391.432 145.147L391.273 158.524C391.273 160.898 389.295 162.798 386.92 162.798L349.244 162.877C349.085 162.798 347.581 162.956 346.236 161.61ZM365.707 200.158C365.074 200.158 364.52 199.604 364.52 198.97L364.757 167.547C364.757 166.914 365.311 166.36 365.945 166.36C366.578 166.36 367.132 166.914 367.132 167.547L366.895 198.97C366.895 199.604 366.42 200.158 365.707 200.158ZM387.949 315.166C387.316 315.166 386.762 314.612 386.762 313.979V271.078H374.651C374.018 271.078 373.464 270.524 373.464 269.891C373.464 269.258 374.018 268.704 374.651 268.704H387.949C388.582 268.704 389.136 269.258 389.136 269.891V313.979C389.136 314.612 388.661 315.166 387.949 315.166Z" fill="white"/>
<path d="M95.9575 173.246C97.6197 173.325 99.3611 173.404 101.023 173.008C102.685 172.613 104.269 171.504 104.743 169.842C105.218 168.18 104.269 166.122 102.527 165.964C97.224 170.08 90.1003 171.188 83.4515 170.317C76.8027 169.446 70.5496 166.834 64.4549 163.906C63.5842 166.28 63.98 168.972 65.0881 171.267C68.3334 177.995 70.3913 177.362 76.7235 175.62C83.0557 173.879 89.5462 173.087 95.9575 173.246Z" fill="white"/>
<path d="M98.2541 140.16L66.8307 141.981C63.5854 142.139 60.9734 145.068 61.0525 148.392L61.1317 165.41C61.1317 168.734 63.6646 171.505 66.8307 171.663L67.6222 171.742V177.599C67.6222 178.628 68.8886 179.182 69.6801 178.47L75.9332 172.217L97.7792 173.483C101.579 173.721 104.903 170.871 104.982 167.151C105.219 160.582 105.22 153.537 105.457 146.967C105.457 145.068 102.212 139.923 98.2541 140.16ZM90.418 160.977H72.6088C72.1339 160.977 71.8172 160.661 71.8172 160.186C71.8172 159.711 72.1339 159.394 72.6088 159.394H90.418C90.8929 159.394 91.2096 159.711 91.2096 160.186C91.2096 160.661 90.8929 160.977 90.418 160.977ZM99.5997 152.271C83.6109 152.666 69.7593 152.983 69.9176 152.983C69.5218 152.983 69.1261 152.666 69.1261 152.192C69.1261 151.717 69.4427 151.4 69.9176 151.4C85.9064 151.004 99.758 150.688 99.5997 150.688C99.9955 150.688 100.391 151.004 100.391 151.479C100.391 151.875 100.075 152.271 99.5997 152.271ZM113.135 152.35C112.343 145.543 108.386 139.131 102.766 135.332C102.212 134.936 102.053 134.224 102.449 133.67C102.845 133.116 103.557 132.958 104.111 133.353C110.364 137.628 114.639 144.593 115.509 152.112C115.588 152.746 115.114 153.379 114.48 153.458C113.768 153.458 113.214 152.983 113.135 152.35ZM118.28 144.83C117.726 141.031 115.984 137.39 113.372 134.62C112.897 134.145 112.976 133.353 113.451 132.958C113.926 132.562 114.718 132.562 115.114 133.037C118.042 136.203 119.942 140.24 120.575 144.514C120.654 145.147 120.258 145.78 119.546 145.859C118.992 145.859 118.359 145.464 118.28 144.83ZM283.154 179.42L280.146 173.958C279.829 173.404 280.067 172.692 280.621 172.375C281.175 172.059 281.887 172.296 282.204 172.85L285.212 178.312C285.528 178.866 285.291 179.578 284.737 179.895C284.183 180.211 283.47 179.974 283.154 179.42Z" fill="white"/>
<path d="M283.072 179.341C282.913 178.707 283.23 178.074 283.863 177.837L289.245 176.175C289.879 176.016 290.512 176.333 290.749 176.966C290.908 177.599 290.591 178.233 289.958 178.47L284.575 180.132C283.942 180.291 283.23 179.974 283.072 179.341Z" fill="white"/>
<path d="M289.562 178.154C288.929 177.916 288.613 177.283 288.771 176.65L290.275 172.138C290.512 171.505 291.145 171.188 291.779 171.346C292.412 171.584 292.728 172.217 292.57 172.85L291.066 177.362C290.908 177.995 290.196 178.312 289.562 178.154Z" fill="white"/>
<path d="M297.24 174.75L291.304 173.562C290.67 173.404 290.275 172.85 290.354 172.138C290.512 171.504 291.145 171.109 291.779 171.188L297.715 172.375C298.348 172.533 298.744 173.087 298.665 173.8C298.586 174.433 297.952 174.908 297.24 174.75Z" fill="white"/>
<path d="M296.449 179.894C295.816 179.815 295.341 179.182 295.499 178.549L296.449 173.325C296.528 172.692 297.162 172.217 297.795 172.375C298.428 172.454 298.903 173.087 298.745 173.721L297.795 178.945C297.716 179.657 297.082 180.053 296.449 179.894Z" fill="white"/>
<path d="M299.933 183.298C298.825 181.874 297.479 180.686 295.975 179.736C295.421 179.42 295.184 178.707 295.579 178.074C295.896 177.52 296.608 177.283 297.242 177.678C299.062 178.707 300.645 180.132 301.912 181.794C302.307 182.348 302.228 183.061 301.674 183.457C301.12 183.931 300.328 183.852 299.933 183.298Z" fill="white"/>
<path d="M300.091 183.219C299.695 182.665 299.853 181.952 300.408 181.557C302.07 180.449 303.811 179.578 305.711 178.865C306.344 178.628 306.977 178.945 307.215 179.578C307.452 180.211 307.135 180.844 306.502 181.082C304.84 181.715 303.178 182.586 301.674 183.535C301.199 183.931 300.487 183.773 300.091 183.219Z" fill="white"/>
<path d="M308.956 186.147C308.006 184.248 306.74 182.506 305.315 180.923C304.84 180.449 304.919 179.657 305.394 179.261C305.869 178.865 306.661 178.865 307.057 179.34C308.64 181.082 309.906 182.981 311.014 185.039C311.331 185.593 311.093 186.306 310.539 186.622C309.985 186.939 309.273 186.702 308.956 186.147Z" fill="white"/>
<path d="M304.759 190.026C304.363 189.472 304.521 188.76 305.076 188.364C306.421 187.494 307.688 186.385 308.717 185.04C309.112 184.565 309.904 184.407 310.379 184.881C310.933 185.277 311.012 186.069 310.537 186.544C309.35 188.048 307.925 189.314 306.342 190.343C305.867 190.739 305.155 190.58 304.759 190.026Z" fill="white"/>
<path d="M304.683 193.905L304.445 189.868C304.445 189.235 304.92 188.681 305.553 188.602C306.266 188.602 306.741 189.076 306.82 189.71L307.057 193.746C307.057 194.38 306.582 194.934 305.949 195.013C305.237 195.013 304.683 194.538 304.683 193.905Z" fill="white"/>
<path d="M310.461 196.596C309.194 195.883 307.216 195.487 305.791 195.092C305.158 194.933 304.762 194.221 304.999 193.588C305.158 192.955 305.87 192.559 306.503 192.796C308.086 193.271 310.144 193.667 311.648 194.538C312.202 194.854 312.44 195.567 312.123 196.121C311.727 196.675 311.015 196.912 310.461 196.596Z" fill="white"/>
<path d="M309.35 203.482C308.717 203.324 308.322 202.69 308.401 202.057C308.876 199.841 309.113 197.941 309.667 195.567C309.825 194.933 310.459 194.538 311.092 194.696C311.725 194.854 312.121 195.488 311.963 196.121C311.408 198.416 311.092 200.395 310.696 202.532C310.617 203.244 309.984 203.64 309.35 203.482Z" fill="white"/>
<path d="M309.194 203.719C307.373 203.482 305.79 203.165 303.732 202.611C303.099 202.453 302.703 201.74 302.941 201.107C303.099 200.474 303.811 200.078 304.445 200.316C306.344 200.87 307.848 201.186 309.51 201.345C310.144 201.424 310.619 201.978 310.539 202.69C310.46 203.403 309.827 203.798 309.194 203.719Z" fill="white"/>
<path d="M299.536 205.54C299.14 204.986 299.299 204.274 299.853 203.878C301.515 202.77 302.544 201.741 303.177 200.712C303.494 200.158 304.206 199.92 304.76 200.237C305.314 200.554 305.552 201.266 305.235 201.82C304.444 203.166 303.098 204.511 301.198 205.778C300.644 206.253 299.853 206.094 299.536 205.54Z" fill="white"/>
<path d="M301.673 211.081C301.119 209.181 300.407 207.281 299.536 205.461C299.219 204.907 299.536 204.194 300.09 203.878C300.644 203.561 301.356 203.878 301.673 204.432C302.623 206.331 303.335 208.389 303.889 210.447C304.048 211.081 303.731 211.714 303.098 211.872C302.465 212.11 301.831 211.714 301.673 211.081Z" fill="white"/>
<path d="M296.368 214.009C296.13 213.376 296.447 212.743 297.08 212.505C298.901 211.872 300.563 210.922 302.146 209.814C302.7 209.418 303.412 209.577 303.808 210.052C304.204 210.606 304.046 211.318 303.571 211.714C301.829 212.98 299.93 214.009 297.951 214.722C297.318 214.88 296.605 214.563 296.368 214.009Z" fill="white"/>
<path d="M296.527 214.247L293.599 210.131C293.203 209.577 293.361 208.865 293.915 208.469C294.469 208.073 295.182 208.231 295.578 208.785L298.506 212.901C298.902 213.455 298.744 214.168 298.19 214.564C297.636 214.959 296.923 214.801 296.527 214.247Z" fill="white"/>
<path d="M288.058 210.368C287.979 209.735 288.533 209.181 289.166 209.102C290.908 208.943 292.095 208.706 294.232 208.389C294.865 208.31 295.499 208.706 295.578 209.418C295.657 210.131 295.261 210.685 294.549 210.764C292.333 211.081 291.145 211.318 289.246 211.476C288.692 211.476 288.058 211.001 288.058 210.368Z" fill="white"/>
<path d="M286.556 216.463C285.922 216.226 285.685 215.513 285.922 214.88L288.139 209.735C288.376 209.102 289.088 208.865 289.722 209.102C290.355 209.339 290.592 210.052 290.355 210.685L288.139 215.83C287.901 216.384 287.189 216.701 286.556 216.463Z" fill="white"/>
<path d="M286.95 216.621C284.655 216.305 283.467 215.751 280.855 214.959C280.222 214.801 279.905 214.089 280.064 213.455C280.222 212.822 280.934 212.506 281.568 212.664C284.338 213.455 285.288 213.93 287.346 214.247C287.979 214.326 288.454 214.959 288.375 215.593C288.137 216.226 287.583 216.701 286.95 216.621Z" fill="white"/>
<path d="M280.936 214.959C280.303 214.88 279.828 214.247 279.907 213.613L280.619 208.231C280.699 207.598 281.332 207.123 281.965 207.202C282.598 207.281 283.073 207.914 282.994 208.548L282.282 213.93C282.202 214.642 281.569 215.117 280.936 214.959Z" fill="white"/>
<path d="M281.096 209.418C279.988 208.389 278.563 207.044 277.296 205.857C276.822 205.382 276.822 204.669 277.217 204.194C277.692 203.719 278.405 203.719 278.879 204.115C279.988 205.144 281.412 206.49 282.679 207.677C283.154 208.152 283.154 208.864 282.758 209.339C282.362 209.893 281.571 209.893 281.096 209.418Z" fill="white"/>
<path d="M271.753 208.469C271.436 207.915 271.674 207.202 272.307 206.886C274.048 206.015 275.869 205.065 277.531 204.115C278.085 203.799 278.797 203.957 279.193 204.511C279.51 205.065 279.352 205.778 278.797 206.173C277.056 207.202 275.236 208.152 273.415 209.023C272.703 209.26 271.99 209.023 271.753 208.469Z" fill="white"/>
<path d="M271.674 208.785C270.011 207.123 268.587 205.223 267.558 203.086C267.241 202.532 267.478 201.82 268.112 201.503C268.666 201.187 269.378 201.503 269.695 202.057C270.645 203.957 271.832 205.619 273.336 207.123C273.811 207.598 273.811 208.31 273.336 208.785C272.861 209.181 272.148 209.26 271.674 208.785Z" fill="white"/>
<path d="M267.716 203.324C267.321 202.77 267.479 202.057 267.954 201.662L273.02 198.021C273.574 197.625 274.286 197.783 274.682 198.258C275.078 198.812 274.919 199.525 274.444 199.92L269.379 203.561C268.825 203.957 268.112 203.878 267.716 203.324Z" fill="white"/>
<path d="M272.465 199.287C272.149 197.704 271.516 195.884 271.199 194.142C271.041 193.509 271.436 192.876 272.07 192.718C272.703 192.559 273.336 192.955 273.494 193.588C273.811 195.171 274.444 197.071 274.761 198.733C274.919 199.366 274.523 200 273.89 200.158C273.257 200.316 272.624 199.92 272.465 199.287Z" fill="white"/>
<path d="M272.068 195.013L267.002 193.272C266.369 193.034 266.052 192.401 266.29 191.768C266.527 191.135 267.16 190.818 267.794 191.055L272.859 192.797C273.493 193.034 273.809 193.667 273.572 194.301C273.334 194.934 272.701 195.25 272.068 195.013Z" fill="white"/>
<path d="M266.847 193.192C266.214 192.955 265.898 192.322 266.056 191.688L268.035 185.594C268.272 184.96 268.905 184.644 269.539 184.802C270.172 185.04 270.488 185.673 270.33 186.306L268.351 192.401C268.114 193.034 267.481 193.35 266.847 193.192Z" fill="white"/>
<path d="M268.826 187.177C268.193 187.018 267.797 186.385 268.034 185.752C268.193 185.119 268.826 184.723 269.459 184.96C271.28 185.435 273.259 185.593 275.158 185.356C275.791 185.277 276.425 185.752 276.504 186.385C276.583 187.018 276.108 187.651 275.475 187.731C273.259 187.889 270.963 187.731 268.826 187.177Z" fill="white"/>
<path d="M274.603 187.414C274.049 187.018 273.89 186.306 274.286 185.752L276.898 181.715C277.294 181.161 278.006 181.003 278.56 181.399C279.115 181.794 279.273 182.507 278.877 183.061L276.265 187.098C275.869 187.652 275.157 187.731 274.603 187.414Z" fill="white"/>
<path d="M276.897 182.823L274.126 177.52C273.81 176.966 274.047 176.254 274.601 175.937C275.155 175.621 275.868 175.858 276.184 176.412L278.954 181.715C279.271 182.269 279.034 182.982 278.48 183.298C277.925 183.615 277.134 183.378 276.897 182.823Z" fill="white"/>
<path d="M274.05 177.441C273.733 176.887 273.971 176.174 274.604 175.858C276.583 174.908 278.561 173.483 280.699 172.454C281.253 172.137 281.965 172.375 282.282 173.008C282.598 173.562 282.361 174.275 281.728 174.591C279.749 175.541 277.77 176.966 275.633 177.995C275.079 178.232 274.366 177.995 274.05 177.441ZM297.4 199.999C294.629 203.403 289.484 204.59 285.448 202.849C281.49 201.028 278.957 196.358 279.67 192.084C280.382 187.73 284.26 184.169 288.614 183.773C291.938 183.456 294.075 184.248 296.925 186.781L298.033 187.968C300.645 191.451 300.249 196.596 297.4 199.999Z" fill="white"/>
<path d="M285.049 203.878C280.538 201.82 277.767 196.675 278.559 191.847C279.351 186.939 283.704 182.981 288.611 182.586C292.331 182.269 294.785 183.14 297.793 185.91C301.909 189.63 301.909 196.358 298.347 200.791C295.26 204.511 289.561 205.856 285.049 203.878ZM288.849 184.881C285.049 185.198 281.567 188.443 280.934 192.163C280.3 195.883 282.517 200.078 285.999 201.661C289.561 203.244 294.073 202.215 296.527 199.208C299.059 196.121 299.297 191.688 297.16 188.601L296.131 187.572C293.598 185.277 291.777 184.644 288.849 184.881ZM360.561 151.558C357.236 149.738 355.574 148.471 352.091 147.521C351.3 147.284 350.904 146.334 351.458 145.622C353.991 142.456 357.632 140.002 360.482 136.915C360.956 136.44 361.669 136.44 362.144 136.836C362.619 137.311 362.619 138.023 362.223 138.498C359.69 141.268 356.841 143.326 354.466 145.78C357.157 146.73 358.899 147.917 361.669 149.5C362.223 149.817 362.46 150.529 362.144 151.083C361.827 151.716 361.115 151.875 360.561 151.558ZM363.094 157.257C362.46 157.02 362.144 156.307 362.381 155.753C365.152 148.629 367.684 140.556 370.851 132.482C371.088 131.849 371.8 131.612 372.354 131.849C372.988 132.087 373.225 132.799 372.988 133.353C369.742 141.506 367.368 149.342 364.518 156.545C364.439 157.178 363.727 157.494 363.094 157.257ZM371.405 151.558C371.088 151.004 371.325 150.292 371.959 149.975C374.571 148.629 376.787 147.284 379.003 145.78C377.658 144.276 375.441 142.06 373.383 140.952C372.829 140.635 372.592 139.923 372.908 139.369C373.225 138.815 373.937 138.577 374.492 138.894C377.262 140.398 380.111 143.485 381.615 145.226C382.09 145.78 381.932 146.571 381.378 146.967C378.766 148.867 376.154 150.529 372.988 152.112C372.434 152.35 371.721 152.112 371.405 151.558ZM181.36 238.863H181.202C180.568 238.784 180.094 238.151 180.173 237.517C183.576 213.772 185.318 188.839 189.354 165.172C189.434 164.539 190.067 164.064 190.7 164.222C191.333 164.302 191.808 164.935 191.65 165.568C189.434 178.945 187.85 192.876 186.347 206.331C185.159 216.7 183.972 227.465 182.468 237.834C182.468 238.388 181.914 238.863 181.36 238.863Z" fill="white"/>
<path d="M178.435 174.275C180.315 174.275 181.838 172.645 181.838 170.634C181.838 168.623 180.315 166.993 178.435 166.993C176.555 166.993 175.031 168.623 175.031 170.634C175.031 172.645 176.555 174.275 178.435 174.275Z" fill="white"/>
<path d="M178.435 175.462C175.902 175.462 173.844 173.325 173.844 170.634C173.844 167.943 175.902 165.806 178.435 165.806C180.967 165.806 183.025 167.943 183.025 170.634C183.025 173.325 180.967 175.462 178.435 175.462ZM178.435 168.18C177.247 168.18 176.218 169.288 176.218 170.634C176.218 171.98 177.168 173.088 178.435 173.088C179.701 173.088 180.651 171.98 180.651 170.634C180.651 169.288 179.622 168.18 178.435 168.18Z" fill="white"/>
<path d="M175.743 192.955C177.623 192.955 179.147 191.325 179.147 189.314C179.147 187.303 177.623 185.673 175.743 185.673C173.864 185.673 172.34 187.303 172.34 189.314C172.34 191.325 173.864 192.955 175.743 192.955Z" fill="white"/>
<path d="M175.743 194.063C173.21 194.063 171.152 191.926 171.152 189.235C171.152 186.543 173.21 184.406 175.743 184.406C178.276 184.406 180.334 186.543 180.334 189.235C180.334 191.926 178.276 194.063 175.743 194.063ZM175.743 186.86C174.556 186.86 173.527 187.968 173.527 189.314C173.527 190.659 174.477 191.767 175.743 191.767C177.01 191.767 177.959 190.659 177.959 189.314C177.959 187.968 177.01 186.86 175.743 186.86Z" fill="white"/>
<path d="M173.607 211.555C175.486 211.555 177.01 209.925 177.01 207.914C177.01 205.904 175.486 204.273 173.607 204.273C171.727 204.273 170.203 205.904 170.203 207.914C170.203 209.925 171.727 211.555 173.607 211.555Z" fill="white"/>
<path d="M173.606 212.743C171.074 212.743 169.016 210.606 169.016 207.915C169.016 205.224 171.074 203.086 173.606 203.086C176.139 203.086 178.197 205.224 178.197 207.915C178.197 210.606 176.139 212.743 173.606 212.743ZM173.606 205.461C172.419 205.461 171.39 206.569 171.39 207.915C171.39 209.26 172.34 210.368 173.606 210.368C174.873 210.368 175.823 209.26 175.823 207.915C175.823 206.569 174.794 205.461 173.606 205.461Z" fill="white"/>
<path d="M171.864 231.898C173.744 231.898 175.268 230.268 175.268 228.257C175.268 226.246 173.744 224.616 171.864 224.616C169.985 224.616 168.461 226.246 168.461 228.257C168.461 230.268 169.985 231.898 171.864 231.898Z" fill="white"/>
<path d="M171.864 233.085C169.331 233.085 167.273 230.948 167.273 228.257C167.273 225.566 169.331 223.428 171.864 223.428C174.397 223.428 176.455 225.566 176.455 228.257C176.455 230.948 174.397 233.085 171.864 233.085ZM171.864 225.803C170.677 225.803 169.648 226.911 169.648 228.257C169.648 229.602 170.598 230.71 171.864 230.71C173.131 230.71 174.081 229.602 174.081 228.257C174.081 226.911 173.131 225.803 171.864 225.803ZM195.927 170.634C195.927 170.001 196.401 169.447 197.114 169.447L260.99 167.864C261.623 167.784 262.177 168.338 262.177 169.051C262.177 169.684 261.702 170.238 260.99 170.238L197.114 171.821C196.481 171.821 195.927 171.346 195.927 170.634ZM199.647 186.306C199.647 185.673 200.122 185.119 200.834 185.119L224.58 184.565C225.213 184.565 225.767 185.04 225.767 185.752C225.767 186.385 225.292 186.939 224.58 186.939L200.834 187.493C200.28 187.493 199.726 186.939 199.647 186.306ZM194.423 200.237C194.423 199.604 194.898 199.049 195.61 199.049L230.199 198.179C230.833 198.179 231.387 198.654 231.387 199.366C231.387 199.999 230.912 200.553 230.199 200.553L195.61 201.424C195.056 201.424 194.502 200.87 194.423 200.237ZM235.028 185.673C235.028 185.04 235.503 184.485 236.215 184.485L249.038 184.169C249.671 184.169 250.225 184.644 250.225 185.356C250.225 185.989 249.75 186.543 249.038 186.543L236.215 186.86C235.582 186.86 235.028 186.306 235.028 185.673ZM253.391 185.673C253.391 185.04 253.866 184.485 254.578 184.485L258.932 184.406C259.565 184.406 260.119 184.881 260.119 185.594C260.119 186.227 259.644 186.781 258.932 186.781L254.578 186.86C254.024 186.86 253.391 186.385 253.391 185.673ZM235.819 200.158C235.819 199.524 236.294 198.97 237.007 198.97L241.597 198.891C242.231 198.812 242.785 199.366 242.785 200.078C242.785 200.712 242.31 201.266 241.597 201.266L237.007 201.345C236.453 201.345 235.898 200.791 235.819 200.158ZM248.721 200.553C248.721 199.92 249.196 199.366 249.908 199.366L254.974 199.208C255.607 199.129 256.161 199.683 256.161 200.395C256.161 201.028 255.687 201.582 254.974 201.582L249.908 201.741C249.275 201.741 248.721 201.266 248.721 200.553ZM190.94 214.563C190.94 213.93 191.415 213.376 192.127 213.376L256.003 211.793C256.636 211.793 257.19 212.268 257.19 212.98C257.19 213.614 256.716 214.168 256.003 214.168L192.127 215.751C191.494 215.751 190.94 215.276 190.94 214.563ZM189.04 226.515C189.04 225.882 189.515 225.328 190.228 225.328L207.72 224.932C208.353 224.932 208.908 225.407 208.908 226.12C208.908 226.753 208.433 227.307 207.72 227.307L190.228 227.703C189.594 227.703 189.04 227.149 189.04 226.515ZM215.952 226.515C215.952 225.882 216.427 225.328 217.139 225.328L229.487 225.011C230.12 225.011 230.674 225.486 230.674 226.199C230.674 226.832 230.199 227.386 229.487 227.386L217.139 227.703C216.506 227.703 215.952 227.228 215.952 226.515ZM245.238 226.278C245.238 225.645 245.713 225.091 246.426 225.091L260.198 224.774C260.831 224.774 261.385 225.249 261.385 225.961C261.385 226.594 260.911 227.149 260.198 227.149L246.426 227.465C245.792 227.465 245.238 226.99 245.238 226.278ZM246.03 130.662C245.476 130.345 245.238 129.633 245.555 129.079L258.932 103.513C259.09 103.117 259.486 102.879 259.882 102.879L291.147 100.505C291.78 100.426 292.334 100.98 292.413 101.613C292.492 102.246 291.938 102.8 291.305 102.879L260.673 105.254L247.613 130.266C247.296 130.741 246.584 130.979 246.03 130.662ZM341.171 87.3657C341.092 86.6533 340.538 86.1784 339.825 86.2575L293.996 92.2731C293.363 92.3522 292.888 92.9063 292.967 93.5395L294.075 110.557C294.155 111.19 294.629 111.665 295.263 111.665H341.488C342.2 111.665 342.754 111.111 342.675 110.399L341.171 87.3657ZM302.149 104.858C299.141 104.858 297.479 101.771 298.508 99.0802C299.933 95.4392 304.919 96.6265 305.711 100.426C306.107 102.009 304.365 104.858 302.149 104.858ZM322.728 103.117L315.288 103.592C314.892 103.592 314.497 103.275 314.417 102.879C314.417 102.405 314.734 102.088 315.13 102.009L322.57 101.534C323.045 101.534 323.362 101.851 323.441 102.246C323.441 102.721 323.124 103.117 322.728 103.117ZM329.219 101.138L329.377 101.93L329.456 102.721C328.19 102.721 328.19 101.138 329.219 101.138ZM335.076 97.6554C306.977 99.476 311.331 99.2385 310.856 99.2385C310.46 99.2385 310.064 98.9219 310.064 98.5261C310.064 98.0512 310.381 97.7346 310.776 97.6554L334.997 96.0724C335.472 96.0724 335.789 96.389 335.868 96.7848C335.868 97.2597 335.472 97.6554 335.076 97.6554ZM355.656 103.275C352.569 91.0067 343.862 80.4794 332.385 75.0971C331.752 74.8596 331.514 74.1472 331.831 73.514C332.068 72.8808 332.781 72.6433 333.414 72.9599C345.524 78.5798 354.706 89.7402 357.951 102.721C358.11 103.354 357.714 103.988 357.081 104.146C356.447 104.304 355.814 103.908 355.656 103.275Z" fill="white"/>
<path d="M210.288 97.3575C193.015 97.3575 178.883 83.225 178.883 65.952C178.883 48.6789 193.015 34.5464 210.288 34.5464C227.561 34.5464 241.694 48.6789 241.694 65.952C241.694 83.225 227.561 97.3575 210.288 97.3575ZM210.288 37.6869C194.743 37.6869 182.023 50.4062 182.023 65.952C182.023 81.4977 194.743 94.217 210.288 94.217C225.834 94.217 238.553 81.4977 238.553 65.952C238.553 50.4062 225.834 37.6869 210.288 37.6869Z" fill="white"/>
<path d="M193.016 80.0845C190.346 80.0845 188.305 78.0431 188.305 75.3737C188.305 72.7042 190.346 70.6628 193.016 70.6628C195.685 70.6628 197.726 72.7042 197.726 75.3737C197.726 78.0431 195.685 80.0845 193.016 80.0845ZM193.016 73.8034C192.073 73.8034 191.445 74.4315 191.445 75.3737C191.445 76.3158 192.073 76.9439 193.016 76.9439C193.958 76.9439 194.586 76.3158 194.586 75.3737C194.586 74.4315 193.958 73.8034 193.016 73.8034ZM211.859 70.6628C208.404 70.6628 205.578 67.8363 205.578 64.3817C205.578 60.9271 208.404 58.1006 211.859 58.1006C215.313 58.1006 218.14 60.9271 218.14 64.3817C218.14 67.8363 215.313 70.6628 211.859 70.6628ZM211.859 61.2411C210.132 61.2411 208.718 62.6544 208.718 64.3817C208.718 66.109 210.132 67.5223 211.859 67.5223C213.586 67.5223 214.999 66.109 214.999 64.3817C214.999 62.6544 213.586 61.2411 211.859 61.2411ZM224.421 86.3656C221.752 86.3656 219.71 84.3242 219.71 81.6548C219.71 78.9853 221.752 76.9439 224.421 76.9439C227.091 76.9439 229.132 78.9853 229.132 81.6548C229.132 84.3242 227.091 86.3656 224.421 86.3656ZM224.421 80.0845C223.479 80.0845 222.851 80.7126 222.851 81.6548C222.851 82.5969 223.479 83.225 224.421 83.225C225.363 83.225 225.991 82.5969 225.991 81.6548C225.991 80.7126 225.363 80.0845 224.421 80.0845ZM227.562 67.5223C224.892 67.5223 222.851 65.4809 222.851 62.8114C222.851 60.1419 224.892 58.1006 227.562 58.1006C230.231 58.1006 232.272 60.1419 232.272 62.8114C232.272 65.4809 230.231 67.5223 227.562 67.5223ZM227.562 61.2411C226.619 61.2411 225.991 61.8693 225.991 62.8114C225.991 63.7536 226.619 64.3817 227.562 64.3817C228.504 64.3817 229.132 63.7536 229.132 62.8114C229.132 61.8693 228.504 61.2411 227.562 61.2411Z" fill="white"/>
<path d="M191.445 58.1005C192.313 58.1005 193.016 57.3975 193.016 56.5302C193.016 55.663 192.313 54.96 191.445 54.96C190.578 54.96 189.875 55.663 189.875 56.5302C189.875 57.3975 190.578 58.1005 191.445 58.1005Z" fill="white"/>
<path d="M205.578 76.9438C206.445 76.9438 207.148 76.2407 207.148 75.3735C207.148 74.5063 206.445 73.8032 205.578 73.8032C204.711 73.8032 204.008 74.5063 204.008 75.3735C204.008 76.2407 204.711 76.9438 205.578 76.9438Z" fill="white"/>
<path d="M205.578 54.9598C202.909 54.9598 200.867 52.9184 200.867 50.2489C200.867 47.5794 202.909 45.5381 205.578 45.5381C208.247 45.5381 210.289 47.5794 210.289 50.2489C210.289 52.9184 208.247 54.9598 205.578 54.9598ZM205.578 48.6786C204.636 48.6786 204.008 49.3068 204.008 50.2489C204.008 51.1911 204.636 51.8192 205.578 51.8192C206.52 51.8192 207.148 51.1911 207.148 50.2489C207.148 49.3068 206.52 48.6786 205.578 48.6786Z" fill="white"/>
<path d="M219.711 48.6786C220.578 48.6786 221.281 47.9756 221.281 47.1084C221.281 46.2411 220.578 45.5381 219.711 45.5381C218.844 45.5381 218.141 46.2411 218.141 47.1084C218.141 47.9756 218.844 48.6786 219.711 48.6786Z" fill="white"/>
<path d="M210.289 87.9355C211.156 87.9355 211.859 87.2324 211.859 86.3652C211.859 85.498 211.156 84.7949 210.289 84.7949C209.422 84.7949 208.719 85.498 208.719 86.3652C208.719 87.2324 209.422 87.9355 210.289 87.9355Z" fill="white"/>
<path d="M249.547 51.8193C250.414 51.8193 251.117 51.1162 251.117 50.249C251.117 49.3817 250.414 48.6787 249.547 48.6787C248.68 48.6787 247.977 49.3817 247.977 50.249C247.977 51.1162 248.68 51.8193 249.547 51.8193Z" fill="white"/>
<path d="M241.695 42.3977C239.026 42.3977 236.984 40.3564 236.984 37.6869C236.984 35.0174 239.026 32.9761 241.695 32.9761C244.365 32.9761 246.406 35.0174 246.406 37.6869C246.406 40.3564 244.365 42.3977 241.695 42.3977ZM241.695 36.1166C240.753 36.1166 240.125 36.7447 240.125 37.6869C240.125 38.6291 240.753 39.2572 241.695 39.2572C242.637 39.2572 243.265 38.6291 243.265 37.6869C243.265 36.7447 242.637 36.1166 241.695 36.1166ZM260.539 23.5544C257.869 23.5544 255.828 21.513 255.828 18.8435C255.828 16.1741 257.869 14.1327 260.539 14.1327C263.208 14.1327 265.249 16.1741 265.249 18.8435C265.249 21.513 263.208 23.5544 260.539 23.5544ZM260.539 17.2733C259.596 17.2733 258.968 17.9014 258.968 18.8435C258.968 19.7857 259.596 20.4138 260.539 20.4138C261.481 20.4138 262.109 19.7857 262.109 18.8435C262.109 17.9014 261.481 17.2733 260.539 17.2733ZM241.695 18.8435C239.026 18.8435 236.984 16.8022 236.984 14.1327C236.984 11.4632 239.026 9.42188 241.695 9.42188C244.365 9.42188 246.406 11.4632 246.406 14.1327C246.406 16.8022 244.365 18.8435 241.695 18.8435ZM241.695 12.5624C240.753 12.5624 240.125 13.1905 240.125 14.1327C240.125 15.0749 240.753 15.703 241.695 15.703C242.637 15.703 243.265 15.0749 243.265 14.1327C243.265 13.1905 242.637 12.5624 241.695 12.5624Z" fill="white"/>
<path d="M251.113 29.8354C251.98 29.8354 252.684 29.1323 252.684 28.2651C252.684 27.3979 251.98 26.6948 251.113 26.6948C250.246 26.6948 249.543 27.3979 249.543 28.2651C249.543 29.1323 250.246 29.8354 251.113 29.8354Z" fill="white"/>
<path d="M225.992 23.5541C226.859 23.5541 227.562 22.8511 227.562 21.9839C227.562 21.1166 226.859 20.4136 225.992 20.4136C225.125 20.4136 224.422 21.1166 224.422 21.9839C224.422 22.8511 225.125 23.5541 225.992 23.5541Z" fill="white"/>
<path d="M265.25 36.1166C266.117 36.1166 266.82 35.4136 266.82 34.5464C266.82 33.6791 266.117 32.9761 265.25 32.9761C264.383 32.9761 263.68 33.6791 263.68 34.5464C263.68 35.4136 264.383 36.1166 265.25 36.1166Z" fill="white"/>
<path d="M244.835 62.8111V61.2409C244.835 59.5136 243.422 58.1003 241.695 58.1003C241.067 58.1003 240.438 58.2573 239.81 58.7284L237.926 56.216C239.025 55.4308 240.281 54.9598 241.695 54.9598C244.521 54.9598 246.877 56.8441 247.662 59.5136C251.744 59.0425 255.827 57.7863 259.282 55.7449C259.125 54.9598 258.968 54.1746 258.968 53.3895C258.968 48.9927 262.422 45.5381 266.819 45.5381C267.604 45.5381 268.389 45.6951 269.175 45.8521C271.844 41.4554 273.1 36.4305 273.1 31.4056C273.1 15.8598 260.381 3.14056 244.835 3.14056C229.29 3.14056 216.57 15.8598 216.57 31.4056C216.57 32.9759 216.727 34.7032 217.041 36.2734L213.901 36.7445C213.587 35.0172 213.43 33.2899 213.43 31.4056C213.43 14.1325 227.562 0 244.835 0C262.108 0 276.241 14.1325 276.241 31.4056C276.241 37.5297 274.514 43.4967 271.059 48.6786L270.274 49.9349L269.018 49.3068C268.232 48.8357 267.604 48.6786 266.819 48.6786C264.15 48.6786 262.108 50.72 262.108 53.3895C262.108 54.1746 262.265 54.8027 262.736 55.5879L263.365 56.8441L262.108 57.6292C257.555 60.7698 252.059 62.4971 246.406 62.8111H244.835Z" fill="white"/>
</svg>
