<svg width="56" height="56" viewBox="0 0 56 56" fill="none" xmlns="http://www.w3.org/2000/svg">
    <rect x="0.25" y="0.25" width="55.5" height="55.5" rx="3.95" fill="white"/>
    <rect x="0.25" y="0.25" width="55.5" height="55.5" rx="3.95" stroke="#D9DFE9" stroke-width="0.5"/>
    <path d="M14 17.5V28C14 28 14 33.25 26.25 33.25C38.5 33.25 38.5 28 38.5 28V17.5" stroke="black" stroke-width="1.925" stroke-linecap="round" stroke-linejoin="round"/>
    <path d="M26.25 12.25C38.5 12.25 38.5 17.5 38.5 17.5C38.5 17.5 38.5 22.75 26.25 22.75C14 22.75 14 17.5 14 17.5C14 17.5 14 12.25 26.25 12.25Z" stroke="black" stroke-width="1.925" stroke-linecap="round" stroke-linejoin="round"/>
    <path d="M26.25 43.75C14 43.75 14 38.5 14 38.5V28" stroke="black" stroke-width="1.925" stroke-linecap="round" stroke-linejoin="round"/>
    <path d="M37.2848 36.9483L38.8757 33.5748C39.0799 33.1417 39.67 33.1417 39.8743 33.5748L41.4652 36.9483L45.0231 37.4926C45.4797 37.5624 45.6615 38.1497 45.3311 38.4866L42.757 41.1105L43.3645 44.8175C43.4425 45.2935 42.9651 45.6567 42.5567 45.4318L39.375 43.6806L36.1933 45.4318C35.7849 45.6567 35.3075 45.2935 35.3855 44.8175L35.9929 41.1105L33.4189 38.4866C33.0885 38.1497 33.2703 37.5624 33.7269 37.4926L37.2848 36.9483Z" stroke="black" stroke-width="1.925" stroke-linecap="round" stroke-linejoin="round"/>
</svg>
    