<svg width="24" height="17" viewBox="0 0 24 17" fill="none" xmlns="http://www.w3.org/2000/svg">
<path d="M0 0.765957C0 0.562813 0.0806988 0.367989 0.224344 0.224344C0.367989 0.0806988 0.562813 0 0.765957 0H23.234C23.4372 0 23.632 0.0806988 23.7757 0.224344C23.9193 0.367989 24 0.562813 24 0.765957C24 0.969102 23.9193 1.16393 23.7757 1.30757C23.632 1.45122 23.4372 1.53191 23.234 1.53191H0.765957C0.562813 1.53191 0.367989 1.45122 0.224344 1.30757C0.0806988 1.16393 0 0.969102 0 0.765957ZM0.765957 6.6383H17.1064C17.3095 6.6383 17.5044 6.5576 17.648 6.41395C17.7916 6.27031 17.8723 6.07548 17.8723 5.87234C17.8723 5.6692 17.7916 5.47437 17.648 5.33073C17.5044 5.18708 17.3095 5.10638 17.1064 5.10638H0.765957C0.562813 5.10638 0.367989 5.18708 0.224344 5.33073C0.0806988 5.47437 0 5.6692 0 5.87234C0 6.07548 0.0806988 6.27031 0.224344 6.41395C0.367989 6.5576 0.562813 6.6383 0.765957 6.6383ZM23.234 10.2128H0.765957C0.562813 10.2128 0.367989 10.2935 0.224344 10.4371C0.0806988 10.5808 0 10.7756 0 10.9787C0 11.1819 0.0806988 11.3767 0.224344 11.5203C0.367989 11.664 0.562813 11.7447 0.765957 11.7447H23.234C23.4372 11.7447 23.632 11.664 23.7757 11.5203C23.9193 11.3767 24 11.1819 24 10.9787C24 10.7756 23.9193 10.5808 23.7757 10.4371C23.632 10.2935 23.4372 10.2128 23.234 10.2128ZM17.1064 15.3191H0.765957C0.562813 15.3191 0.367989 15.3998 0.224344 15.5435C0.0806988 15.6871 0 15.882 0 16.0851C0 16.2883 0.0806988 16.4831 0.224344 16.6267C0.367989 16.7704 0.562813 16.8511 0.765957 16.8511H17.1064C17.3095 16.8511 17.5044 16.7704 17.648 16.6267C17.7916 16.4831 17.8723 16.2883 17.8723 16.0851C17.8723 15.882 17.7916 15.6871 17.648 15.5435C17.5044 15.3998 17.3095 15.3191 17.1064 15.3191Z" fill="#A5A8B5"/>
</svg>