<svg width="16" height="16" viewBox="0 0 16 16" fill="none" xmlns="http://www.w3.org/2000/svg">
    <path d="M14.8125 11.1581C14.6482 11.3442 14.4462 11.4932 14.2199 11.5953C13.9936 11.6973 13.7482 11.7501 13.5 11.75H10.25V12.5C10.2492 13.2291 9.95918 13.9281 9.44363 14.4436C8.92808 14.9592 8.22909 15.2492 7.5 15.25C7.36077 15.25 7.2243 15.2112 7.10585 15.138C6.98741 15.0648 6.89168 14.9601 6.82937 14.8356L4.53625 10.25H2C1.66848 10.25 1.35054 10.1183 1.11612 9.88388C0.881696 9.64946 0.75 9.33152 0.75 9V3.5C0.75 3.16848 0.881696 2.85054 1.11612 2.61612C1.35054 2.3817 1.66848 2.25 2 2.25H12.75C13.1765 2.25006 13.5883 2.4059 13.9081 2.68821C14.2278 2.97053 14.4334 3.35989 14.4862 3.78312L15.2362 9.78312C15.2671 10.0293 15.2453 10.2791 15.1722 10.5162C15.0992 10.7532 14.9765 10.9721 14.8125 11.1581ZM2.25 8.75H4.25V3.75H2.25V8.75ZM13.75 9.96875L13 3.96875C12.9923 3.908 12.9627 3.85217 12.9166 3.81185C12.8705 3.77153 12.8112 3.74952 12.75 3.75H5.75V9.32312L7.92625 13.675C8.1676 13.5875 8.37615 13.4277 8.52353 13.2175C8.67091 13.0073 8.74998 12.7567 8.75 12.5V11C8.75 10.8011 8.82902 10.6103 8.96967 10.4697C9.11032 10.329 9.30109 10.25 9.5 10.25H13.5C13.5356 10.2503 13.5709 10.2429 13.6035 10.2285C13.636 10.214 13.6651 10.1927 13.6888 10.1661C13.7125 10.1395 13.7302 10.1081 13.7407 10.074C13.7513 10.04 13.7545 10.0041 13.75 9.96875Z" fill="#54616C"/>
</svg>    