<?xml version="1.0" encoding="utf-8"?><svg style="fill: #fff;"  width="54" height="46" stroke="white" version="1.1" id="Layer_1" xmlns="http://www.w3.org/2000/svg" xmlns:xlink="http://www.w3.org/1999/xlink" x="0px" y="0px" viewBox="0 0 115.53 122.88" xml:space="preserve"><g><path d="M97.65,36.83c0.95,0,1.77,0.58,2.13,1.4l15.49,23.96c0.2,0.38,0.28,0.79,0.25,1.18l-1.03,57.19c0,1.27-1.03,2.31-2.31,2.31 v0.01H3.55c-1.28,0-2.32-1.04-2.32-2.32L0,63.26l0-0.02l0-0.02v0l0-0.02l0-0.02l0-0.02l0-0.01l0-0.02l0-0.03v0l0-0.01l0-0.04 l0-0.01l0-0.01l0-0.04l0-0.01l0-0.01l0.01-0.04l0,0l0-0.02l0.01-0.04l0,0l0,0l0.01-0.04l0-0.02v0l0.01-0.04l0.01-0.02l0-0.02 l0-0.02l0-0.01l0-0.01l0.01-0.02l0.01-0.02l0-0.01l0-0.01l0.01-0.02L0.1,62.6l0-0.01l0-0.01l0.01-0.02l0-0.01l0.01-0.03l0.01-0.02 l0.01-0.02l0.01-0.02l0.01-0.02l0.01-0.02v0l0.01-0.02l0.01-0.02v0l0.02-0.04l0.01-0.02l0.02-0.03l0,0l0.01-0.02l0.01-0.01l0-0.01 l0.01-0.02l0.01-0.02l0.01-0.02l0.01-0.02l0.02-0.03l0.01-0.02l0,0l0.02-0.03l0.01-0.02l0.01-0.02l0.01-0.02l15.7-23.99 c0.41-0.78,1.22-1.23,2.05-1.23v-0.01l31.05,0L67.16,0l29.47,13.19L85.25,36.83H97.65L97.65,36.83z M46.88,41.47h-27.4L6.15,60.96 h103.28l-13.18-19.5H83.03l-3.49,7.26l2.56,0c1.28,0,2.32,1.04,2.32,2.32s-1.04,2.32-2.32,2.32H36.84c-1.28,0-2.32-1.04-2.32-2.32 c0-1.28,1.04-2.32,2.32-2.3h3.9l2.58,0L46.88,41.47L46.88,41.47z M74.04,48.73l13.7-28.58c-2.3-1.12-3.25-3.91-2.13-6.21L73.21,9.1 c-1.12,2.3-3.91,3.25-6.21,2.13l-17.66,36.1l0,0c0.69,0.34,1.26,0.83,1.69,1.41C58.49,48.73,66.76,48.73,74.04,48.73L74.04,48.73z M61.76,31.35c1.79-3.66,6.19-5.17,9.85-3.38c3.66,1.79,5.17,6.19,3.38,9.85c-1.79,3.66-6.19,5.17-9.85,3.38 C61.48,39.42,59.97,35.01,61.76,31.35L61.76,31.35z M4.63,65.59l1.23,52.65h104.01l1.04-52.65H4.63L4.63,65.59z"/></g></svg>