<svg width="87" height="50" viewBox="0 0 87 50" fill="none" xmlns="http://www.w3.org/2000/svg">
<path d="M25.0455 42.6728C18.9091 42.6728 13.4845 39.531 10.3182 34.8182C10.3918 29.9091 20.1364 27.2091 25.0455 27.2091C29.9545 27.2091 39.6991 29.9091 39.7727 34.8182C38.15 37.2345 35.958 39.2147 33.3898 40.5844C30.8216 41.9541 27.9561 42.6713 25.0455 42.6728ZM25.0455 7.81823C26.9984 7.81823 28.8714 8.59404 30.2523 9.97499C31.6333 11.3559 32.4091 13.2289 32.4091 15.1819C32.4091 17.1348 31.6333 19.0078 30.2523 20.3887C28.8714 21.7697 26.9984 22.5455 25.0455 22.5455C23.0925 22.5455 21.2195 21.7697 19.8386 20.3887C18.4576 19.0078 17.6818 17.1348 17.6818 15.1819C17.6818 13.2289 18.4576 11.3559 19.8386 9.97499C21.2195 8.59404 23.0925 7.81823 25.0455 7.81823ZM25.0455 0.45459C21.8221 0.45459 18.6303 1.08948 15.6523 2.323C12.6743 3.55653 9.96845 5.36453 7.6892 7.64379C3.08603 12.247 0.5 18.4902 0.5 25C0.5 31.5099 3.08603 37.7531 7.6892 42.3563C9.96845 44.6356 12.6743 46.4436 15.6523 47.6771C18.6303 48.9106 21.8221 49.5455 25.0455 49.5455C31.5553 49.5455 37.7985 46.9595 42.4017 42.3563C47.0049 37.7531 49.5909 31.5099 49.5909 25C49.5909 11.4264 38.5455 0.45459 25.0455 0.45459Z" fill="black"/>
<path d="M61.8648 43.1728H61.865C64.8576 43.1712 67.8039 42.4338 70.4445 41.0256C73.085 39.6173 75.3387 37.5813 77.0071 35.097L77.0944 34.9671L77.092 34.8107C77.0709 33.4049 76.3552 32.1958 75.2932 31.1945C74.2334 30.1952 72.7961 29.3693 71.2358 28.712C68.1175 27.3984 64.3883 26.7091 61.8648 26.7091C59.3413 26.7091 55.6121 27.3984 52.4937 28.712C50.9335 29.3693 49.4962 30.1952 48.4364 31.1945C47.3744 32.1958 46.6587 33.4049 46.6376 34.8107L46.6352 34.9672L46.7225 35.0971C49.9775 39.9418 55.5545 43.1728 61.8648 43.1728ZM67.4252 9.62143C65.9505 8.14671 63.9504 7.31823 61.8648 7.31823C59.7792 7.31823 57.7791 8.14671 56.3044 9.62143C54.8296 11.0962 54.0012 13.0963 54.0012 15.1819C54.0012 17.2674 54.8296 19.2676 56.3044 20.7423C57.7791 22.217 59.7792 23.0455 61.8648 23.0455C63.9504 23.0455 65.9505 22.217 67.4252 20.7423C68.8999 19.2676 69.7284 17.2674 69.7284 15.1819C69.7284 13.0963 68.8999 11.0962 67.4252 9.62143ZM52.663 2.78494C55.5803 1.57654 58.7071 0.95459 61.8648 0.95459C75.0896 0.95459 85.9102 11.7035 85.9102 25C85.9102 31.3773 83.3769 37.4934 78.8675 42.0028C74.3581 46.5121 68.242 49.0455 61.8648 49.0455C58.7071 49.0455 55.5803 48.4235 52.663 47.2151C49.7457 46.0068 47.0949 44.2356 44.8621 42.0028C40.3527 37.4934 37.8193 31.3773 37.8193 25C37.8193 18.6228 40.3527 12.5067 44.8621 7.99734C47.0949 5.76451 49.7457 3.99334 52.663 2.78494Z" fill="black" stroke="black"/>
</svg>