<svg width="26" height="26" viewBox="0 0 26 26" fill="none" xmlns="http://www.w3.org/2000/svg">
<path d="M6.54215 3.98682C6.76443 3.98693 6.98263 4.0465 7.17413 4.15934C7.36564 4.27218 7.52347 4.43419 7.63128 4.62858L9.15593 7.37383C9.2542 7.55091 9.30783 7.74928 9.31217 7.95176C9.31651 8.15424 9.27144 8.35472 9.18085 8.53586L7.71228 11.473C7.71228 11.473 8.13783 13.6606 9.91857 15.442C11.6999 17.2227 13.8801 17.6414 13.8801 17.6414L16.8166 16.1728C16.9979 16.082 17.1986 16.0369 17.4013 16.0412C17.604 16.0455 17.8026 16.0993 17.9799 16.1978L20.7338 17.7293C20.9279 17.8373 21.0895 17.9953 21.202 18.1867C21.3145 18.3782 21.3738 18.5963 21.3737 18.8184V21.9792C21.3737 23.5893 19.8784 24.7519 18.3531 24.2372C15.2203 23.1805 10.3578 21.1674 7.27488 18.0857C4.19317 15.0033 2.18065 10.1403 1.1233 7.00746C0.608644 5.48219 1.77129 3.98682 3.38131 3.98682H6.54215Z" stroke="white" stroke-width="1.5" stroke-linejoin="round"/>
<path d="M21.8847 7.23071H14.4079V1H21.8847V2.86921L25.0001 1.62307V6.60764L21.8847 5.3615V7.23071Z" stroke="white" stroke-width="1.5" stroke-linecap="round" stroke-linejoin="round"/>
</svg>
