<svg width="46" height="50" viewBox="0 0 46 50" fill="none" xmlns="http://www.w3.org/2000/svg">
<path d="M33.4983 19.6322L23.7729 13.878C23.5231 13.73 23.238 13.6521 22.9477 13.6523C22.6573 13.6526 22.3724 13.7311 22.1228 13.8796L12.3974 19.6338C12.1549 19.7768 11.954 19.9807 11.8144 20.2251C11.6748 20.4696 11.6015 20.7463 11.6016 21.0278V32.212C11.6016 32.7858 11.9047 33.3159 12.3974 33.606L22.1228 39.3602C22.372 39.5098 22.6572 39.5888 22.9479 39.5888C23.2385 39.5888 23.5237 39.5098 23.7729 39.3602L33.4983 33.606C33.7408 33.463 33.9418 33.2592 34.0814 33.0147C34.2209 32.7702 34.2943 32.4936 34.2942 32.212V21.0278C34.2943 20.7461 34.2209 20.4692 34.0813 20.2245C33.9418 19.9797 33.7408 19.7756 33.4983 19.6322ZM31.0524 31.2881L22.9479 36.0828L14.8434 31.2881V21.9517L22.9479 17.1571L31.0524 21.9517V31.2881Z" fill="white"/>
<path d="M6.7385 31.781V17.008L16.7881 11.0691L15.1396 8.27786L4.29255 14.6885C4.05005 14.8319 3.84911 15.0361 3.70955 15.2808C3.56999 15.5255 3.49662 15.8024 3.49669 16.0841V31.781C2.55133 32.1142 1.73224 32.7318 1.15182 33.549C0.571406 34.3662 0.258096 35.343 0.254883 36.3454C0.254883 39.0264 2.43662 41.2081 5.11759 41.2081C7.79857 41.2081 9.9803 39.0264 9.9803 36.3454C9.97709 35.343 9.66378 34.3662 9.08336 33.549C8.50294 32.7318 7.68386 32.1142 6.7385 31.781ZM5.11759 37.9663C4.70024 37.9477 4.30618 37.7687 4.01745 37.4668C3.72872 37.1649 3.56758 36.7632 3.56758 36.3454C3.56758 35.9277 3.72872 35.526 4.01745 35.224C4.30618 34.9221 4.70024 34.7432 5.11759 34.7245C5.53494 34.7432 5.92901 34.9221 6.21774 35.224C6.50647 35.526 6.66761 35.9277 6.66761 36.3454C6.66761 36.7632 6.50647 37.1649 6.21774 37.4668C5.92901 37.7687 5.53494 37.9477 5.11759 37.9663ZM40.7775 31.4827C38.0965 31.4827 35.9148 33.6644 35.9148 36.3454C35.9148 36.9176 36.0315 37.459 36.2146 37.9696L22.9475 45.8082L12.5673 39.6748L10.9188 42.4659L22.1225 49.0857C22.372 49.2342 22.6569 49.3127 22.9473 49.313C23.2377 49.3133 23.5227 49.2353 23.7726 49.0873L38.2959 40.5047C39.0253 40.9407 39.8681 41.2081 40.7775 41.2081C43.4584 41.2081 45.6402 39.0264 45.6402 36.3454C45.6402 33.6644 43.4584 31.4827 40.7775 31.4827ZM40.7775 37.9663C40.3601 37.9477 39.966 37.7687 39.6773 37.4668C39.3886 37.1649 39.2274 36.7632 39.2274 36.3454C39.2274 35.9277 39.3886 35.526 39.6773 35.224C39.966 34.9221 40.3601 34.7432 40.7775 34.7245C41.1948 34.7432 41.5889 34.9221 41.8776 35.224C42.1663 35.526 42.3275 35.9277 42.3275 36.3454C42.3275 36.7632 42.1663 37.1649 41.8776 37.4668C41.5889 37.7687 41.1948 37.9477 40.7775 37.9663ZM22.9475 10.411C24.1324 10.411 25.2038 9.96846 26.0483 9.26337L39.1566 17.0097V28.2409H42.3984V16.0841C42.3984 15.8024 42.3251 15.5255 42.1855 15.2808C42.0459 15.0361 41.845 14.8319 41.6025 14.6885L27.7162 6.48352C27.7746 6.18041 27.8102 5.86919 27.8102 5.54826C27.8102 2.86728 25.6285 0.685547 22.9475 0.685547C20.2666 0.685547 18.0848 2.86728 18.0848 5.54826C18.0848 8.22923 20.2666 10.411 22.9475 10.411ZM22.9475 3.92735C23.2686 3.92703 23.5825 4.02196 23.8496 4.20012C24.1166 4.37828 24.3248 4.63167 24.4479 4.92822C24.5709 5.22476 24.6031 5.55113 24.5406 5.86602C24.478 6.18091 24.3235 6.47016 24.0964 6.69717C23.8694 6.92419 23.5802 7.07875 23.2653 7.1413C22.9504 7.20386 22.624 7.17159 22.3275 7.04858C22.0309 6.92558 21.7776 6.71736 21.5994 6.45029C21.4212 6.18322 21.3263 5.8693 21.3266 5.54826C21.3266 4.65352 22.0544 3.92735 22.9475 3.92735Z" fill="white"/>
</svg>
