<svg width="9" height="14" viewBox="0 0 9 14" fill="none" xmlns="http://www.w3.org/2000/svg">
<path d="M7.80638 0.00288797L5.99751 0C3.9653 0 2.652 1.34074 2.652 3.41589V4.99084H0.833256C0.676095 4.99084 0.548828 5.11762 0.548828 5.274V7.55593C0.548828 7.71231 0.67624 7.83895 0.833256 7.83895H2.652V13.597C2.652 13.7534 2.77927 13.88 2.93643 13.88H5.30937C5.46653 13.88 5.5938 13.7532 5.5938 13.597V7.83895H7.72033C7.87749 7.83895 8.00476 7.71231 8.00476 7.55593L8.00563 5.274C8.00563 5.19892 7.97559 5.12701 7.92233 5.07387C7.86907 5.02073 7.79652 4.99084 7.72105 4.99084H5.5938V3.65573C5.5938 3.01403 5.74747 2.68826 6.58755 2.68826L7.80609 2.68783C7.96311 2.68783 8.09038 2.56105 8.09038 2.40481V0.285909C8.09038 0.129814 7.96325 0.00317676 7.80638 0.00288797Z" fill="#000B33"/>
</svg>
