<svg width="701" height="391" viewBox="0 0 701 391" fill="none" xmlns="http://www.w3.org/2000/svg">
<path d="M473.494 280.443C470.53 279.892 461.363 286.58 463.9 295.729C465.859 302.806 474.717 307.185 481.695 303.241C491.109 300.715 493.151 289.74 487.464 283.632C484.086 280.008 478.211 278.327 473.494 280.443ZM473.565 286.517C473.855 286.395 474.807 286.138 475.077 286.13C482.324 285.982 484.992 296.405 477.451 298.469C470.089 300.483 466.556 289.456 473.565 286.517Z" fill="white"/>
<path d="M419.204 286.897C420.336 287.169 421.576 286.867 422.343 286.143L427.266 270.634C425.01 266.312 413.761 249.644 407.882 225.57L407.823 225.334C412.043 222.354 417.294 220.441 421.692 217.803C436.423 208.965 443.523 192.694 438.293 175.981C432.691 158.071 416.005 145.979 397.792 143.454C376.913 140.562 357.166 150.516 343.843 166.186C342.658 167.586 342.024 168.848 342.953 170.424L353.401 188.118C353.966 189.073 354.791 189.498 355.641 189.561L367.666 195.619C367.872 195.462 375.98 189.506 380.082 188.653C388.592 186.892 400.734 191.655 390.147 201.81C383.651 208.042 370.248 209.67 368.201 219.699C366.156 229.712 375.266 243.299 379.092 251.962C385.21 265.82 391.442 279.624 397.365 293.566C398.203 295.538 400.152 295.491 401.502 294.467C402.217 294.337 418.828 287.121 419.204 286.897ZM379.195 237.073C377 231.94 371.545 223.588 375.791 217.858C377.813 215.124 383.696 213.538 386.572 211.833C409.059 198.505 405.177 177.434 391.036 172.196C378.332 167.491 366.985 175.619 357.826 183.616L349.313 169.2C369.284 147.093 406.866 139.546 426.711 166.639C435.018 177.981 437.027 193.862 427.587 205.239C419.391 215.12 405.228 218.541 395.607 226.98C394.875 227.625 394.444 229.021 394.823 229.948C401.864 247.22 408.697 264.574 415.712 281.856L401.538 287.964C394.241 270.933 386.483 254.108 379.195 237.073ZM421.717 331.018C424.963 330.579 427.544 329.388 429.528 327.733C440.256 323.83 441.72 310.689 434.488 303.175C430.38 298.912 423.796 296.997 417.708 298.276C413.102 299.247 407.874 302.65 406.439 307.937C399.577 318.822 409.376 332.676 421.717 331.018ZM410.444 317.21C409.305 311.738 414.082 307.209 418.237 306.925C429.67 306.156 433.079 322.865 421.339 324.948C416.22 325.859 411.474 322.17 410.444 317.21ZM531.822 155.921C530.852 153.382 529.662 150.932 528.264 148.601C528.663 147.422 528.289 146.481 527.555 145.875C527.833 144.473 527.25 142.954 525.447 142.548L494.821 135.661C492.534 135.147 491.042 137.045 491.026 138.838C490.219 139.306 489.583 140.096 489.433 141.227C483.924 183.032 477.684 224.74 472.173 266.546C472.019 267.705 472.462 268.503 473.163 268.967C473.041 270.268 473.671 271.581 475.332 271.955L484.855 274.095C486.506 274.465 487.743 273.579 488.313 272.384C489.561 271.268 490.683 269.894 492.209 269.361C503.263 231.101 516.92 192.854 531.822 155.921ZM495.421 142.042L521.998 148.018C506.442 186.878 493.78 226.986 483.373 267.518L478.294 266.375C483.761 224.899 489.945 183.518 495.421 142.042Z" fill="white"/>
<path d="M108.244 157.719C108.487 158.104 109.001 158.152 109.232 157.966C112.39 156.12 112.413 152.025 114.502 149.834C114.633 149.695 114.704 149.51 114.698 149.319C114.692 149.127 114.611 148.946 114.471 148.815C114.332 148.684 114.147 148.614 113.955 148.62C113.764 148.626 113.583 148.707 113.452 148.846C111.254 151.173 110.99 155.261 108.511 156.731C108.161 156.937 108.058 157.369 108.244 157.719ZM113.308 168.672C113.123 168.626 112.926 168.653 112.761 168.75C112.596 168.846 112.475 169.002 112.423 169.186L112.402 169.31C110.817 170.607 109.829 172.542 109.747 174.58C109.726 174.992 110.035 175.321 110.426 175.342H110.467C110.858 175.342 111.167 175.033 111.188 174.642C111.249 172.974 112.114 171.307 113.473 170.319C113.854 170.002 114.132 168.89 113.308 168.672ZM112.114 188.95C110.23 190.605 107.457 192.376 108.038 194.632C108.12 194.962 108.408 195.167 108.738 195.167C108.944 195.038 109.603 195.071 109.438 194.282C109.129 193.047 111.249 191.635 113.082 190.021C113.37 189.753 113.411 189.3 113.144 189.012C113.081 188.939 113.004 188.88 112.918 188.837C112.832 188.795 112.738 188.77 112.642 188.764C112.546 188.758 112.45 188.772 112.359 188.804C112.269 188.836 112.185 188.885 112.114 188.95ZM101.8 215.405C102.035 215.775 102.521 215.833 102.788 215.672C104.6 214.643 106.185 213.202 107.4 211.514C107.647 211.205 107.564 210.752 107.256 210.505C107.098 210.398 106.906 210.355 106.718 210.386C106.53 210.416 106.362 210.518 106.247 210.67C105.135 212.193 103.715 213.49 102.068 214.416C101.738 214.622 101.615 215.055 101.8 215.405ZM92.6592 209.784C92.7992 210.114 93.1225 210.318 93.6063 210.196C93.9768 210.052 94.1621 209.62 94.018 209.249C93.421 207.705 92.4946 206.243 91.3623 205.029C91.2966 204.959 91.2176 204.903 91.1299 204.864C91.0423 204.825 90.9478 204.804 90.8519 204.802C90.756 204.8 90.6608 204.817 90.5716 204.853C90.4825 204.888 90.4014 204.941 90.3329 205.008C90.0447 205.276 90.0447 205.729 90.3123 206.017C91.3211 207.108 92.124 208.405 92.6592 209.784ZM93.0092 189.835C92.8482 189.729 92.6514 189.691 92.4622 189.729C92.273 189.768 92.1069 189.88 92.0005 190.041C91.894 190.202 91.8559 190.399 91.8945 190.588C91.9331 190.777 92.0453 190.944 92.2063 191.05C93.6474 191.997 94.7797 193.376 95.4385 194.982C95.6032 195.41 96.1385 195.487 96.365 195.373C96.7355 195.209 96.9208 194.797 96.7561 194.426C95.9949 192.555 94.6897 190.956 93.0092 189.835ZM94.3268 173.942C94.2434 173.769 94.0954 173.635 93.9145 173.57C93.7336 173.504 93.5342 173.512 93.3592 173.592C93.187 173.677 93.0542 173.825 92.989 174.005C92.9237 174.186 92.931 174.384 93.0092 174.56L95.912 180.695C96.0891 181.051 96.5502 181.222 96.8796 181.024C97.2296 180.859 97.3943 180.427 97.2296 180.077L94.3268 173.942ZM97.0237 156.752C97.452 156.966 97.841 156.826 98.0325 156.525C98.2384 156.196 98.156 155.764 97.806 155.537L92.5769 152.099C92.4146 151.997 92.2191 151.961 92.0313 152C91.8434 152.038 91.6775 152.147 91.5681 152.305C91.3623 152.634 91.4446 153.087 91.774 153.314L97.0237 156.752ZM94.1827 138.491C94.2395 138.567 94.3106 138.63 94.392 138.679C94.4735 138.727 94.5636 138.759 94.6572 138.772C94.7509 138.785 94.8463 138.78 94.938 138.757C95.0296 138.733 95.1158 138.692 95.1915 138.635C95.3412 138.517 95.4382 138.345 95.4614 138.156C95.4845 137.967 95.4319 137.777 95.315 137.626L93.0916 134.724C92.9693 134.589 92.8006 134.505 92.6192 134.49C92.4379 134.474 92.2574 134.528 92.114 134.64C91.9706 134.752 91.8749 134.914 91.8462 135.094C91.8175 135.274 91.8579 135.458 91.9593 135.609L94.1827 138.491ZM105.382 134.394C105.856 134.514 106.171 134.271 106.288 133.921L108.758 126.283C108.819 126.1 108.806 125.9 108.721 125.727C108.636 125.554 108.487 125.421 108.306 125.356C108.123 125.3 107.925 125.317 107.755 125.406C107.585 125.495 107.457 125.647 107.4 125.83L104.909 133.488C104.806 133.859 105.012 134.271 105.382 134.394ZM125.949 231.421C125.783 231.33 125.589 231.305 125.406 231.351C125.223 231.396 125.063 231.51 124.961 231.668L123.252 234.53C123.046 234.88 123.149 235.333 123.499 235.518C123.725 235.704 124.24 235.658 124.487 235.271L126.196 232.41C126.402 232.08 126.278 231.627 125.949 231.421ZM117.776 236.548C117.688 236.514 117.594 236.497 117.5 236.499C117.406 236.502 117.313 236.522 117.227 236.561C117.141 236.599 117.063 236.654 116.998 236.722C116.933 236.791 116.883 236.871 116.849 236.959C116.225 238.623 113.493 240.198 113.885 242.724C113.942 243.228 114.364 243.397 114.735 243.315C115.077 243.238 115.373 242.95 115.305 242.518C115.083 240.747 117.448 239.457 118.187 237.474C118.221 237.386 118.238 237.293 118.236 237.198C118.233 237.104 118.213 237.011 118.174 236.925C118.136 236.839 118.081 236.761 118.013 236.697C117.944 236.632 117.864 236.581 117.776 236.548ZM105.176 243.609C104.785 243.609 104.456 243.938 104.456 244.33L104.353 250.938C104.328 251.428 104.688 251.673 105.053 251.679C105.421 251.685 105.794 251.453 105.794 250.979L105.897 244.35C105.897 243.938 105.588 243.63 105.176 243.609ZM97.4767 252.173C97.0855 252.235 96.7973 252.585 96.859 252.976L97.7855 260.532C97.839 261.016 98.2178 261.203 98.5781 261.156C98.9363 261.106 99.2739 260.818 99.2266 260.346L98.2796 252.812C98.2691 252.717 98.2399 252.625 98.1938 252.542C98.1478 252.458 98.0856 252.385 98.011 252.325C97.9363 252.266 97.8507 252.222 97.759 252.196C97.6673 252.17 97.5713 252.162 97.4767 252.173ZM93.3592 262.158C93.3219 262.071 93.2676 261.993 93.1996 261.927C93.1317 261.861 93.0513 261.809 92.9632 261.775C92.8751 261.74 92.781 261.724 92.6864 261.726C92.5918 261.728 92.4986 261.749 92.4122 261.788C92.0416 261.952 91.8975 262.385 92.0622 262.735L94.1209 267.326C94.2733 267.659 94.6768 267.84 95.0885 267.675C95.4385 267.511 95.6032 267.078 95.4385 266.728L93.3592 262.158ZM100.235 273.11C100.142 273.105 100.048 273.118 99.9596 273.15C99.8712 273.181 99.79 273.23 99.7209 273.293C99.6518 273.357 99.5961 273.433 99.5572 273.519C99.5182 273.604 99.4968 273.696 99.4942 273.79C99.4736 274.202 99.7824 274.531 100.174 274.552C102.317 274.605 102.932 274.823 104.559 276.178C104.888 276.415 105.357 276.351 105.588 276.054C105.705 275.904 105.758 275.714 105.734 275.525C105.711 275.336 105.614 275.163 105.464 275.046C103.608 273.584 102.792 273.172 100.235 273.11ZM112.341 264.834C110.685 263.992 109.082 264.929 104.291 266.44C103.9 266.564 103.694 266.955 103.818 267.346C103.847 267.435 103.894 267.518 103.956 267.589C104.017 267.66 104.092 267.719 104.176 267.761C104.26 267.803 104.352 267.828 104.446 267.834C104.54 267.841 104.634 267.829 104.723 267.799C109.99 266.119 110.813 265.658 111.661 266.111C112.032 266.296 112.464 266.152 112.649 265.802C112.736 265.633 112.752 265.436 112.694 265.255C112.637 265.073 112.509 264.922 112.341 264.834ZM122.305 254.294C118.64 254.417 115.099 255.55 112.073 257.588C111.723 257.814 111.641 258.247 111.867 258.576C112.011 258.802 112.238 258.905 112.464 258.905C112.608 258.905 112.752 258.864 112.855 258.782C115.635 256.929 119.011 255.838 122.346 255.714C122.737 255.714 123.046 255.385 123.046 254.973C123.025 254.582 122.737 254.232 122.305 254.294ZM125.352 248.221L122.099 249.168C121.708 249.271 121.481 249.662 121.605 250.053C121.687 250.362 121.975 250.568 122.284 250.568C122.367 250.568 122.428 250.568 122.49 250.547L125.743 249.6C126.134 249.476 126.34 249.085 126.237 248.694C126.211 248.604 126.167 248.521 126.108 248.448C126.049 248.376 125.976 248.316 125.894 248.272C125.811 248.228 125.721 248.201 125.628 248.192C125.535 248.183 125.441 248.193 125.352 248.221ZM133.587 239.389L130.334 240.439C129.963 240.562 129.757 240.974 129.881 241.365C129.963 241.653 130.251 241.859 130.56 241.859C130.622 241.859 130.704 241.839 130.787 241.818L134.019 240.768C134.41 240.644 134.616 240.233 134.492 239.862C134.465 239.771 134.419 239.687 134.359 239.613C134.298 239.54 134.223 239.48 134.139 239.435C134.054 239.391 133.962 239.365 133.867 239.357C133.773 239.349 133.677 239.359 133.587 239.389ZM39.0914 195.353C39.0252 195.172 38.8918 195.025 38.7192 194.94C38.5466 194.856 38.348 194.841 38.165 194.9C37.7944 195.023 37.5886 195.435 37.7121 195.806L38.4121 197.926C38.515 198.235 38.8032 198.42 39.112 198.42C39.6514 198.42 39.9273 197.906 39.7914 197.473L39.0914 195.353ZM46.2969 199.141C45.9058 199.244 45.6793 199.655 45.7823 200.026C46.0911 201.097 46.1528 202.229 46.0087 203.32C45.9243 203.855 46.3381 204.15 46.7437 204.143C46.9154 204.148 47.0823 204.087 47.21 203.972C47.3376 203.857 47.4161 203.697 47.4292 203.526C47.6145 202.229 47.5322 200.891 47.1822 199.655C47.1585 199.563 47.1167 199.476 47.0592 199.4C47.0018 199.324 46.9297 199.261 46.8473 199.213C46.7649 199.165 46.6739 199.134 46.5794 199.121C46.4849 199.109 46.3889 199.116 46.2969 199.141ZM53.276 205.296C53.0878 205.327 52.9193 205.43 52.8074 205.585C52.6955 205.739 52.6493 205.932 52.679 206.12L53.2966 209.908C53.346 210.34 53.696 210.525 54.0377 210.505C54.4227 210.478 54.7994 210.182 54.7171 209.661L54.0995 205.893C54.0691 205.705 53.9654 205.537 53.8111 205.425C53.6567 205.313 53.4643 205.267 53.276 205.296ZM59.3698 209.99C58.9786 210.031 58.6904 210.381 58.7316 210.773C58.8757 212.152 58.711 213.593 58.2581 214.911C58.2283 215.001 58.2167 215.097 58.2239 215.192C58.2311 215.287 58.2569 215.379 58.3 215.465C58.343 215.55 58.4023 215.625 58.4746 215.688C58.5469 215.75 58.6307 215.797 58.7213 215.827C58.8119 215.856 58.9074 215.868 59.0025 215.861C59.0975 215.854 59.1902 215.828 59.2753 215.785C59.3604 215.742 59.4361 215.682 59.4983 215.61C59.5604 215.538 59.6077 215.454 59.6374 215.363C60.1315 213.861 60.3168 212.214 60.1727 210.628C60.1622 210.534 60.1331 210.442 60.087 210.358C60.0409 210.275 59.9787 210.201 59.9041 210.142C59.8295 210.083 59.7438 210.039 59.6521 210.013C59.5604 209.987 59.4645 209.979 59.3698 209.99ZM65.6283 219.069C65.443 219.03 65.2499 219.064 65.0889 219.164C64.9279 219.263 64.8114 219.421 64.7636 219.604L63.9402 222.775C63.8578 223.166 64.0843 223.557 64.4754 223.64C64.6813 223.742 65.2207 223.6 65.3401 223.125L66.1636 219.954C66.2057 219.766 66.1736 219.569 66.0739 219.404C65.9741 219.239 65.8145 219.119 65.6283 219.069ZM59.5963 232.204C60.8521 232.327 62.0667 232.986 62.849 233.995C62.9698 234.14 63.1414 234.234 63.3289 234.257C63.5164 234.28 63.7056 234.23 63.8578 234.118C64.1872 233.871 64.2284 233.418 63.9813 233.11C62.952 231.792 61.4079 230.927 59.7404 230.763C59.3286 230.701 58.9992 231.01 58.9581 231.401C58.9169 231.813 59.2051 232.163 59.5963 232.204ZM54.1612 223.29C54.8468 223.016 55.4294 224.436 57.2905 224.875C57.6405 224.875 57.9493 224.628 57.9905 224.257C58.0043 224.164 57.9992 224.068 57.9754 223.977C57.9517 223.885 57.9097 223.799 57.8521 223.725C57.7944 223.65 57.7223 223.587 57.64 223.541C57.5576 223.494 57.4668 223.465 57.3728 223.454C56.4958 223.345 55.3841 221.249 53.626 221.951C53.2554 222.095 53.0701 222.507 53.2142 222.878C53.3583 223.248 53.7907 223.434 54.1612 223.29ZM47.4704 214.993C48.3145 215.075 49.1586 215.466 49.7762 216.063C49.8438 216.13 49.9237 216.182 50.0115 216.217C50.0993 216.253 50.1932 216.27 50.2878 216.269C50.3825 216.268 50.476 216.249 50.563 216.212C50.6501 216.175 50.729 216.121 50.7952 216.053C50.8615 215.986 50.9138 215.906 50.9491 215.818C50.9844 215.73 51.0021 215.636 51.0011 215.541C51.0002 215.447 50.9806 215.353 50.9435 215.266C50.9064 215.179 50.8525 215.1 50.785 215.034C49.9203 214.19 48.788 213.675 47.5939 213.552C47.496 213.537 47.396 213.543 47.3003 213.568C47.2045 213.593 47.115 213.638 47.0373 213.699C46.9595 213.761 46.8951 213.837 46.8482 213.925C46.8012 214.012 46.7726 214.108 46.7641 214.206C46.7556 214.305 46.7675 214.405 46.799 214.499C46.8304 214.592 46.8808 214.679 46.947 214.753C47.0132 214.826 47.0938 214.886 47.1838 214.927C47.2738 214.968 47.3714 214.991 47.4704 214.993ZM41.4795 210.155C42.6324 210.443 43.7235 210.999 44.6294 211.74C44.8517 211.965 45.3623 211.991 45.6382 211.637C45.8852 211.328 45.844 210.875 45.5352 210.628C44.4647 209.764 43.1883 209.105 41.8501 208.755C41.6646 208.709 41.4684 208.737 41.3031 208.833C41.1378 208.929 41.0165 209.086 40.9649 209.27C40.8619 209.661 41.109 210.052 41.4795 210.155ZM28.1802 201.735C28.1185 202.126 28.4067 202.496 28.7978 202.538C31.2683 202.826 33.3085 203.079 35.2005 204.679C35.27 204.742 35.3516 204.792 35.4405 204.823C35.5294 204.855 35.6238 204.868 35.718 204.862C35.8121 204.856 35.9042 204.832 35.9886 204.79C36.073 204.747 36.148 204.689 36.2092 204.617C36.4769 204.308 36.4357 203.855 36.1269 203.588C34.0085 201.753 31.6965 201.426 28.9625 201.097C28.7751 201.082 28.5892 201.14 28.4435 201.259C28.2978 201.378 28.2035 201.548 28.1802 201.735Z" fill="white"/>
<path d="M699.689 253.903C699.689 253.903 691.64 254.129 680.44 258.02C680.523 258.288 680.399 258.576 680.132 258.679C656.003 267.221 636.24 285.846 624.896 314.82C624.797 315.04 624.571 315.213 624.258 315.108H624.237C624.109 315.056 624.007 314.956 623.953 314.828C623.899 314.701 623.898 314.557 623.949 314.429C630.969 296.498 640.625 283.795 650.754 274.819C657.115 245.503 658.247 221.107 658.247 220.86C658.268 220.572 658.536 220.346 658.783 220.366C659.071 220.387 659.297 220.613 659.277 220.901C659.277 221.148 658.165 244.885 652.03 273.687C661.541 265.596 671.362 260.676 679.782 257.711C680.029 257.608 680.276 257.732 680.399 257.979C676.92 223.063 659.894 205.111 659.894 205.111C659.894 205.111 631.698 227.442 622.203 272.04L622.138 34.1346C622.138 33.878 622.036 33.6319 621.854 33.4504C621.673 33.2689 621.427 33.167 621.17 33.167H197.651C197.394 33.167 197.148 33.2689 196.967 33.4504C196.785 33.6319 196.683 33.878 196.683 34.1346L196.625 181.876C196.267 181.693 195.911 181.51 195.53 181.333C190.96 179.233 186.492 178.677 182.396 178.924C178.319 178.677 173.831 179.233 169.282 181.333C151.865 189.362 160.1 203.938 151.68 220.49C150.856 222.095 151.144 223.537 152.256 224.854C134.613 222.569 116.434 227.057 102.744 237.248C97.1236 241.427 89.7946 248.447 86.7888 258.205C83.9025 267.585 86.3359 277.419 91.0504 282.56C88.8681 289.498 87.4476 297.259 87.1388 305.885H78.5334C73.716 289.704 79.8921 269.878 93.1091 239.471C100.52 237.744 114.604 222.816 120.202 214.808C140.927 185.154 140.406 149.587 126.44 128.3C118.123 115.557 104.411 107.26 90.6592 106.643C67.6428 105.556 68.1224 132.786 75.8776 150.864C88.5593 180.221 82.3008 172.182 77.6275 202.311C74.4777 197.267 69.1662 193.212 62.5989 190.947C50.646 186.869 30.7341 188.419 20.0864 192.471C1.40148 199.573 -4.37117 218.054 3.28726 231.71C8.31465 240.525 17.0107 241.466 24.8009 237.021C29.8241 234.16 33.6945 229.383 36.8649 225.472C49.629 209.84 42.4441 245.233 67.9927 239.224C73.2631 254.644 75.8776 276.178 71.3484 305.885H43.9675C43.8131 305.886 43.6607 305.921 43.5215 305.988C43.3824 306.055 43.26 306.152 43.1632 306.272C43.0665 306.393 42.998 306.533 42.9626 306.684C42.9272 306.834 42.9259 306.99 42.9587 307.141L46.2321 321.532C46.335 322.005 46.7468 322.334 47.2203 322.334H51.5436C59.8752 367.198 50.1025 314.678 58.4609 359.581H8.73256C8.45956 359.581 8.19774 359.689 8.0047 359.882C7.81166 360.075 7.70321 360.337 7.70321 360.61C7.70321 360.883 7.81166 361.145 8.0047 361.338C8.19774 361.531 8.45956 361.639 8.73256 361.639L80.4068 361.635C74.4592 364.61 69.8127 370.471 71.5131 377.158C73.613 385.414 78.7392 384.487 84.1948 383.52C88.3946 382.778 93.1503 381.934 98.2971 384.322C106.536 388.123 116.212 386.645 123.805 382.202L125.925 381.79L126.831 386.031C126.934 386.505 127.366 386.834 127.84 386.834C133.876 386 105.97 389.871 186.884 378.661C197.383 379.484 235.504 385.243 245.825 386.834C246.319 386.834 246.731 386.505 246.833 386.031L246.936 385.578L250.457 386.278C258.027 390.696 267.785 392.189 275.944 388.378C287.893 382.813 299.168 395.244 302.707 381.234C306.042 368.112 284.242 358.35 274.07 363.509C266.927 367.128 260.034 365.697 259.824 365.691C262.568 364.456 265.008 363.097 267.071 361.617C267.394 361.662 255.836 361.646 669.54 361.637C669.813 361.637 670.074 361.529 670.267 361.336C670.461 361.143 670.569 360.881 670.569 360.608C670.569 360.335 670.461 360.073 670.267 359.88C670.074 359.687 669.813 359.579 669.54 359.579H635.54C654.276 350.051 676.418 335.442 685.793 316.366C703.498 280.38 699.689 253.905 699.689 253.905V253.903ZM662.344 239.78C664.362 237.556 667.388 236.177 670.394 236.074H670.415C670.682 236.074 670.909 236.301 670.929 236.568C670.929 236.856 670.703 237.104 670.435 237.104C667.676 237.186 664.938 238.442 663.106 240.48C662.888 240.698 662.55 240.686 662.386 240.521C662.334 240.475 662.292 240.42 662.262 240.357C662.232 240.295 662.214 240.228 662.211 240.159C662.207 240.09 662.217 240.021 662.24 239.956C662.263 239.891 662.298 239.831 662.344 239.78ZM661.356 256.455C662.571 255.117 664.032 254.006 665.638 253.162C665.885 253.017 666.194 253.12 666.338 253.367C666.462 253.635 666.359 253.944 666.112 254.067C664.609 254.85 663.25 255.9 662.097 257.155C661.947 257.341 661.653 257.398 661.377 257.176C661.327 257.131 661.286 257.076 661.258 257.015C661.23 256.954 661.214 256.888 661.212 256.82C661.21 256.753 661.222 256.686 661.247 256.623C661.272 256.56 661.309 256.503 661.356 256.455ZM645.607 233.233C649.636 233.073 651.201 237.198 652.03 240.994C652.061 241.116 652.046 241.245 651.986 241.356C651.927 241.466 651.828 241.551 651.709 241.592C651.448 241.69 651.112 241.596 651.021 241.221C649.241 233.056 645.914 234.497 645.628 234.263C645.339 234.263 645.113 234.036 645.113 233.768C645.092 233.48 645.319 233.233 645.607 233.233ZM633.172 259.77C633.316 259.523 633.625 259.42 633.872 259.564C637.516 261.417 640.501 264.608 642.313 268.52C642.416 268.767 642.313 269.075 642.045 269.199C641.72 269.308 641.463 269.172 641.366 268.952C639.657 265.246 636.837 262.24 633.399 260.47C633.278 260.405 633.186 260.296 633.144 260.166C633.102 260.035 633.112 259.893 633.172 259.77ZM672.782 265.082C673.07 265.02 673.338 265.184 673.4 265.473C674.058 268.149 674.079 270.969 673.503 273.666C673.424 273.975 673.136 274.095 672.885 274.049C672.632 274.004 672.418 273.792 672.494 273.44C673.05 270.908 673.008 268.231 672.391 265.72C672.36 265.583 672.383 265.44 672.456 265.321C672.529 265.202 672.646 265.116 672.782 265.082ZM656.951 275.828C657.136 275.643 657.465 275.622 657.671 275.828C660.109 278.22 660.522 281.613 660.862 284.783C660.914 285.15 660.64 285.339 660.364 285.339C660.121 285.343 659.876 285.201 659.853 284.907C659.524 281.916 659.133 278.704 656.951 276.569C656.745 276.363 656.745 276.034 656.951 275.828ZM638.649 298.824C638.916 298.7 639.225 298.824 639.328 299.091C640.975 302.674 641.881 306.647 641.963 310.6C641.963 310.888 641.737 311.114 641.448 311.114C641.16 311.114 640.934 310.888 640.934 310.62C640.851 306.812 639.987 302.982 638.401 299.524C638.344 299.398 638.338 299.255 638.384 299.124C638.43 298.994 638.525 298.886 638.649 298.824ZM583.804 59.3951C583.393 58.9833 583.393 58.3451 583.804 57.9334C584.195 57.5422 584.854 57.5422 585.245 57.9334L591.669 64.3566L598.071 57.9334C598.462 57.5422 599.121 57.5422 599.512 57.9334C599.924 58.3451 599.924 58.9833 599.512 59.3951L593.11 65.7977L599.512 72.2003C599.924 72.612 599.924 73.2708 599.512 73.662C599.142 74.0737 598.442 74.0737 598.071 73.662L591.669 67.2594L585.245 73.662C584.875 74.0737 584.175 74.0737 583.804 73.662C583.393 73.2708 583.393 72.612 583.804 72.2003L590.207 65.7977L583.804 59.3951ZM329.017 57.9951H541.107C543.356 57.9951 545.513 58.8888 547.104 60.4794C548.695 62.0701 549.588 64.2275 549.588 66.477C549.588 68.7266 548.695 70.884 547.104 72.4747C545.513 74.0653 543.356 74.959 541.107 74.959H329.017C326.768 74.959 324.611 74.0653 323.02 72.4747C321.429 70.884 320.536 68.7266 320.536 66.477C320.536 64.2275 321.429 62.0701 323.02 60.4794C324.611 58.8888 326.768 57.9951 329.017 57.9951ZM290.561 56.204C296.202 56.204 300.792 60.8156 300.792 66.477C300.792 72.1385 296.202 76.7295 290.561 76.7295C284.899 76.7295 280.288 72.1385 280.288 66.477C280.288 60.8156 284.899 56.204 290.561 56.204ZM259.906 56.204C265.547 56.204 270.138 60.8156 270.138 66.477C270.138 72.1385 265.547 76.7295 259.906 76.7295C254.245 76.7295 249.654 72.1385 249.654 66.477C249.654 60.8156 254.245 56.204 259.906 56.204ZM229.273 56.204C234.914 56.204 239.504 60.8156 239.504 66.477C239.504 72.1385 234.914 76.7295 229.273 76.7295C223.611 76.7295 219 72.1385 219 66.477C219 60.8156 223.611 56.204 229.273 56.204ZM198.684 99.8283H620.145V359.581H332.554C334.376 356.421 340.398 348.262 353.879 348.628C353.879 348.628 343.801 341.857 330.864 349.678C330.864 349.678 337.783 339.753 349.063 337.196C349.063 337.196 336.732 331.479 328.007 344.264C328.007 344.264 331.465 327.72 347.109 322.606C347.109 322.606 329.512 318.044 321.087 340.63C321.087 340.63 324.939 318.386 309.507 311.775C309.507 311.775 315.222 328.422 314.02 340.63C314.02 340.63 310.987 323.551 294.015 321.552C294.015 321.552 310.559 340.505 311.01 347.274C311.01 347.274 299.821 330.586 284.689 330.277C284.689 330.277 302.917 342.677 305.297 352.838C305.297 352.838 293.262 346.821 286.795 351.336C286.795 351.336 303.792 354.084 307.302 359.581H269.543C271.4 357.835 272.767 355.945 273.453 353.874C279.942 334.108 268.849 321.105 252.68 318.299C256.324 314.47 258.898 310.723 259.742 307.285C264.044 289.663 246.401 251.041 230.631 238.051C230.631 238.03 230.611 238.03 230.611 238.03C229.396 236.994 227.638 235.755 226.596 235.292C226.555 235.251 226.514 235.23 226.493 235.21C226.473 235.21 226.452 235.189 226.432 235.189C220.719 231.924 208.85 230.359 202.262 229.816C210.168 227.757 215.212 224.566 213.132 220.49C205.254 205.043 211.928 191.32 198.684 183.031V99.8283ZM292.401 367.286C292.998 367.752 293.997 368.946 294.598 372.013C294.651 372.281 294.808 372.517 295.035 372.67C295.262 372.822 295.54 372.877 295.808 372.824C296.076 372.771 296.312 372.614 296.465 372.387C296.617 372.16 296.672 371.882 296.619 371.614C296.492 370.961 296.328 370.317 296.127 369.683C298.472 372.065 302.18 374.966 300.731 380.72C297.76 392.413 287.806 380.586 275.059 386.525C267.787 389.902 259.262 388.602 252.124 384.837C257.662 379.711 259.968 373.432 258.383 367.873C263.744 368.656 269.844 367.954 274.997 365.341C279.094 363.268 286.532 364.25 292.401 367.286ZM198.68 377.92C220.373 376.083 236.486 373.179 248.192 369.891L245.022 384.652C240.12 383.837 212.508 379.657 198.68 377.92ZM202.242 375.511C202.221 375.532 202.221 375.532 202.201 375.511C201.995 375.46 194.781 375.703 185.793 370.261C184.393 369.397 183.59 368.779 183.549 368.758C183.334 368.592 183.064 368.516 182.794 368.547C182.525 368.578 182.279 368.713 182.107 368.923C181.757 369.376 181.84 370.014 182.272 370.364C182.581 370.611 187.151 374.152 193.863 376.19C174.955 377.374 147.432 381.654 128.643 384.652L122.611 356.406C219.656 334.24 219.37 316.416 251.98 320.255C247.799 321.153 244.668 323.561 242.757 328.078C242.531 328.593 242.778 329.211 243.313 329.416C243.715 329.618 244.404 329.47 244.651 328.881C251.177 313.035 280.683 325.32 271.476 353.215C266.393 368.664 218.503 374.06 202.242 375.511ZM99.1617 382.449C93.912 379.995 89.1831 380.524 83.8243 381.502C78.2246 382.49 75.1365 383.046 73.5101 376.664C72.4396 372.547 74.2924 369.253 76.557 366.988C76.4952 367.853 76.5982 368.841 76.9893 369.911C77.4299 371.173 79.3795 370.529 78.9245 369.211C78.1772 367.221 78.7804 365.374 80.0156 364.25C99.4396 353.534 97.4571 366.272 115.837 363.818C114.318 370.646 117.239 376.269 122.116 380.781C114.997 384.536 106.431 385.84 99.1617 382.449ZM57.5756 343.56H79.151C79.7274 343.56 80.1803 343.107 80.1803 342.53C80.1803 341.975 79.7274 341.501 79.151 341.501H57.1845L55.1669 330.631H79.151C79.7274 330.631 80.1803 330.178 80.1803 329.602C80.1803 329.025 79.7274 328.572 79.151 328.572H54.7758L53.6229 322.334H110.011C103.114 326.534 94.262 335.716 100.232 353.874C100.912 355.953 102.25 357.847 104.103 359.577H100.479C96.3927 357.946 91.9912 357.324 85.183 359.577H60.5608L57.5756 343.56ZM109.661 307.944C110.711 311.444 113.49 315.252 117.34 319.123C115.94 319.524 114.839 319.938 114.087 320.276H48.0438L45.2645 307.944H109.661ZM121.149 354.615C120.614 354.739 120.264 355.274 120.387 355.83L121.211 359.7C112.506 362.043 114.116 362.088 110.896 362.006C107.341 360.003 103.448 357.094 102.188 353.215C100.87 349.221 100.315 345.68 100.315 342.572C100.315 324.455 121.108 314.985 132.986 326.864C133.184 327.052 133.448 327.156 133.721 327.152C133.995 327.148 134.256 327.037 134.448 326.843C134.829 326.462 134.86 325.643 134.222 325.217C131.533 322.528 128.025 320.663 123.99 319.967C146.842 317.649 170.387 332.628 183.713 337.754C157.555 346.475 123.286 354.045 121.149 354.615ZM160.697 325.093C152.421 321.737 143.527 319.123 135.128 318.155L131.072 264.176H238.146L234.049 318.793C227.029 320.07 219.803 322.334 212.988 325.093H160.697ZM200.821 209.764C200.821 211.411 199.504 212.749 197.857 212.749H197.63C197.384 212.717 197.135 212.774 196.927 212.91C196.719 213.046 196.567 213.252 196.498 213.49C195.654 216.619 194.254 219.481 192.442 221.766C192.336 221.912 192.265 222.082 192.236 222.26L191.083 230.577C181.951 253.304 188.319 237.462 184.496 246.985C179.769 236.082 180.178 237.939 176.981 229.507L176.343 225.616C181.819 225.184 183.981 223.537 183.981 223.537C181.14 224.628 177.228 223.125 175.602 222.404C175.581 222.404 175.581 222.384 175.581 222.384C173.584 220.016 171.979 216.887 171.052 213.49C170.986 213.25 170.834 213.042 170.626 212.906C170.417 212.77 170.166 212.714 169.92 212.749H169.796C168.17 212.769 166.729 211.431 166.729 209.764C166.729 208.426 167.573 207.376 168.726 206.943C168.726 206.943 168.767 206.943 168.767 206.923C168.788 206.943 168.808 206.943 168.808 206.923C171.69 206.676 174.408 205.461 176.899 203.732H179.246C179.534 203.732 179.76 203.505 179.76 203.217C179.76 202.949 179.534 202.702 179.246 202.702H178.278C181.984 199.779 185.093 195.806 187.337 192.45C193.204 193.829 197.033 198.811 197.383 205.832C197.404 206.326 197.774 206.737 198.268 206.799C198.982 206.897 199.636 207.252 200.106 207.798C200.576 208.344 200.83 209.043 200.821 209.764ZM165.02 230.392C164.814 230.474 164.588 230.557 164.382 230.66C154.912 231.874 146.8 233.892 142.086 236.589C140.439 237.536 138.73 238.792 137.042 240.336C135.786 241.468 134.51 242.744 133.254 244.165C124.566 253.882 116.187 269.528 111.843 283.775C106.734 284.858 96.0819 285.222 92.6973 282.169C104.823 244.803 139.183 231.524 139.616 231.36C139.708 231.331 139.795 231.284 139.869 231.221C139.943 231.158 140.003 231.081 140.046 230.994C140.09 230.907 140.115 230.812 140.12 230.715C140.125 230.617 140.11 230.52 140.076 230.429C140.043 230.338 139.991 230.255 139.924 230.184C139.857 230.114 139.776 230.058 139.687 230.02C139.597 229.981 139.501 229.962 139.404 229.962C139.307 229.963 139.211 229.983 139.121 230.022C138.689 230.186 104.164 243.506 91.5856 280.934C87.2273 275.389 85.6833 266.724 88.1682 258.617C91.0504 249.229 98.1529 242.436 103.609 238.401C114.726 230.145 128.828 225.719 143.177 225.719C146.924 225.719 150.712 226.028 154.459 226.645C156.929 228.189 160.656 229.445 165.02 230.392ZM92.2238 283.631C96.0736 286.562 106.295 286.327 111.411 285.339C109.188 293.101 108.241 300.347 109.188 305.885H88.5799C88.8887 297.692 90.2063 290.28 92.2238 283.631ZM77.2158 150.287C70.7247 135.185 67.7169 107.013 90.5769 108.084C103.897 108.681 117.175 116.73 125.246 129.083C138.959 150.051 139.301 185.059 119.008 213.984C113.532 221.836 100.16 235.492 93.8296 237.762C109.846 200.561 101.776 146.438 101.694 145.902C101.654 145.723 101.547 145.566 101.396 145.463C101.244 145.36 101.058 145.318 100.877 145.347C100.696 145.376 100.532 145.473 100.42 145.618C100.308 145.764 100.256 145.946 100.273 146.129C104.228 171.861 103.553 212.356 92.0797 238.195C86.688 239.059 82.6137 229.731 80.8803 224.587C81.7038 219.637 81.6667 210.169 78.801 204.432C81.4979 182.222 90.7889 182.222 77.2158 150.287ZM68.8162 237.474C56.608 203.938 30.8329 196.897 30.4417 196.794C30.2565 196.755 30.0633 196.789 29.9023 196.888C29.7413 196.988 29.6249 197.146 29.5771 197.329C29.4741 197.7 29.7006 198.111 30.0918 198.194C43.6793 202.068 59.552 215.646 67.4986 237.845C48.5029 243.278 49.4643 219.866 42.197 220.366C23.8744 204.638 10.6986 204.493 5.28422 205.399C9.50459 199.058 15.9072 195.6 20.6011 193.829C30.9502 189.864 50.5575 188.355 62.1254 192.306C75.3156 196.847 82.0991 207.273 79.4186 224.71C77.3064 236.513 69.0221 237.32 68.8162 237.474ZM69.2897 238.853C75.2909 237.353 78.694 233.089 80.3245 227.222C85.4568 240.435 90.4039 239.306 91.4415 239.677C78.451 269.714 72.3572 289.539 77.0099 305.885H72.7895C77.2775 276.446 74.8071 254.767 69.2897 238.853ZM625.329 353.174C625.297 353.235 625.252 353.287 625.198 353.329C625.143 353.37 625.08 353.398 625.013 353.412C624.946 353.426 624.877 353.425 624.81 353.408C624.744 353.392 624.682 353.361 624.629 353.318C624.571 353.284 624.521 353.238 624.482 353.183C624.443 353.128 624.416 353.066 624.402 353C624.389 352.934 624.389 352.866 624.403 352.8C624.417 352.735 624.445 352.673 624.485 352.618C634.397 337.775 639.451 303.999 690.528 264.711C690.734 264.546 691.063 264.587 691.249 264.814C691.413 265.04 691.372 265.37 691.146 265.534C640.207 304.699 635.425 338.145 625.329 353.174ZM661.974 324.517C656.374 322.952 650.157 323.57 644.948 326.205C644.792 326.308 644.403 326.248 644.269 325.978C644.234 325.918 644.212 325.852 644.205 325.783C644.197 325.714 644.204 325.644 644.226 325.578C644.247 325.512 644.282 325.451 644.329 325.399C644.375 325.348 644.432 325.307 644.495 325.278C649.91 322.54 656.395 321.902 662.241 323.529C662.53 323.611 662.674 323.878 662.612 324.167C662.53 324.434 662.241 324.599 661.974 324.517ZM676.714 300.944C672.02 299.174 666.462 300.121 662.591 303.332C662.54 303.376 662.481 303.41 662.417 303.43C662.353 303.451 662.285 303.459 662.218 303.453C662.151 303.447 662.086 303.428 662.026 303.397C661.967 303.366 661.914 303.323 661.871 303.271C661.785 303.162 661.744 303.026 661.755 302.888C661.767 302.75 661.83 302.622 661.933 302.53C666.091 299.091 672.041 298.083 677.085 299.977C677.352 300.08 677.476 300.368 677.394 300.636C677.291 300.903 677.002 301.047 676.714 300.944ZM693.472 280.769C689.478 279.792 685.269 280.244 681.573 282.045C681.511 282.086 681.429 282.107 681.346 282.107C681.251 282.108 681.158 282.081 681.077 282.03C680.997 281.979 680.933 281.905 680.893 281.819C680.833 281.696 680.823 281.554 680.865 281.423C680.907 281.292 680.999 281.183 681.12 281.119C684.97 279.225 689.561 278.731 693.719 279.76C694.007 279.822 694.172 280.11 694.11 280.378C694.076 280.513 693.99 280.63 693.871 280.703C693.752 280.777 693.609 280.8 693.472 280.769Z" fill="white"/>
<path d="M680.441 258.02L680.4 257.979V258.02H680.441ZM229.273 74.6707C233.781 74.6707 237.446 70.9856 237.446 66.477C237.446 61.9478 233.781 58.2627 229.273 58.2627C224.744 58.2627 221.059 61.9478 221.059 66.477C221.059 70.9856 224.744 74.6707 229.273 74.6707ZM290.561 74.6707C295.069 74.6707 298.734 70.9856 298.734 66.477C298.734 61.9478 295.069 58.2627 290.561 58.2627C286.032 58.2627 282.347 61.9478 282.347 66.477C282.347 70.9856 286.032 74.6707 290.561 74.6707ZM259.907 74.6707C264.415 74.6707 268.08 70.9856 268.08 66.477C268.08 61.9478 264.415 58.2627 259.907 58.2627C255.398 58.2627 251.713 61.9478 251.713 66.477C251.718 68.6484 252.583 70.7294 254.119 72.2648C255.654 73.8002 257.735 74.6652 259.907 74.6707Z" fill="white"/>
<path d="M185.588 287.748C185.259 287.666 184.909 287.645 184.559 287.645C184.209 287.645 183.859 287.666 183.529 287.748C182.157 287.97 180.898 288.644 179.951 289.661C179.004 290.679 178.423 291.984 178.3 293.368C178.259 293.554 178.259 293.739 178.259 293.945C178.259 297.074 180.524 299.689 183.529 300.162C183.859 300.244 184.209 300.265 184.559 300.265C184.909 300.265 185.259 300.244 185.588 300.162C188.594 299.689 190.858 297.074 190.858 293.945C190.858 293.739 190.858 293.554 190.817 293.368C190.694 291.984 190.113 290.679 189.166 289.661C188.219 288.644 186.96 287.97 185.588 287.748ZM171.218 271.34H143.734C143.179 271.34 142.705 271.793 142.705 272.369C142.705 272.925 143.179 273.399 143.734 273.399H171.218C171.795 273.399 172.248 272.925 172.248 272.369C172.248 271.793 171.795 271.34 171.218 271.34ZM191.085 205.193C190.076 205.193 189.273 205.996 189.273 206.984C189.273 207.973 190.076 208.776 191.085 208.776C191.56 208.776 192.016 208.587 192.351 208.251C192.687 207.915 192.876 207.46 192.876 206.984C192.876 206.509 192.687 206.054 192.351 205.718C192.016 205.382 191.56 205.193 191.085 205.193ZM177.539 205.193C177.063 205.193 176.607 205.382 176.271 205.719C175.934 206.055 175.745 206.511 175.745 206.987C175.745 207.462 175.934 207.918 176.271 208.254C176.607 208.591 177.063 208.78 177.539 208.78C178.014 208.78 178.47 208.591 178.806 208.254C179.143 207.918 179.332 207.462 179.332 206.987C179.332 206.511 179.143 206.055 178.806 205.719C178.47 205.382 178.014 205.193 177.539 205.193ZM183.776 211.967C184.065 211.967 184.291 211.74 184.291 211.452V208.24C184.291 207.952 184.065 207.726 183.776 207.726C183.488 207.726 183.262 207.952 183.262 208.24V211.452C183.262 211.74 183.488 211.967 183.776 211.967ZM185.403 216.434C184.518 217.319 183.056 217.319 182.15 216.434C181.944 216.228 181.615 216.228 181.409 216.434C181.203 216.64 181.224 216.949 181.409 217.155C182.068 217.813 182.932 218.122 183.776 218.122C184.641 218.122 185.485 217.813 186.144 217.155C186.234 217.056 186.283 216.928 186.283 216.794C186.283 216.661 186.234 216.533 186.144 216.434C185.938 216.228 185.609 216.228 185.403 216.434ZM192.979 202.702H189.356C189.088 202.702 188.841 202.949 188.841 203.217C188.841 203.505 189.088 203.732 189.356 203.732H192.979C193.267 203.732 193.494 203.505 193.494 203.217C193.494 202.949 193.267 202.702 192.979 202.702ZM230.18 289.539C229.909 289.521 229.641 289.607 229.431 289.779C229.221 289.951 229.084 290.196 229.048 290.465L227.01 312.844C226.968 313.42 227.38 313.914 227.936 313.976H228.039C228.554 313.976 229.006 313.585 229.068 313.05L231.106 290.651C231.128 290.381 231.043 290.114 230.87 289.906C230.697 289.698 230.449 289.566 230.18 289.539ZM23.2974 154.915L27.9089 153.777C28.0446 153.749 28.1732 153.694 28.2871 153.615C28.4009 153.536 28.4977 153.435 28.5715 153.318C28.6454 153.2 28.6948 153.069 28.7168 152.933C28.7389 152.796 28.7331 152.656 28.6998 152.522C28.6665 152.387 28.6065 152.261 28.5232 152.15C28.4399 152.039 28.3351 151.947 28.2152 151.877C28.0952 151.808 27.9625 151.764 27.8249 151.747C27.6874 151.73 27.5479 151.742 27.4148 151.78L22.8033 152.916C22.6676 152.944 22.539 153 22.4252 153.079C22.3113 153.157 22.2146 153.259 22.1407 153.376C22.0669 153.493 22.0175 153.624 21.9954 153.761C21.9734 153.897 21.9792 154.037 22.0124 154.172C22.0457 154.306 22.1058 154.433 22.1891 154.543C22.2723 154.654 22.3771 154.747 22.4971 154.816C22.6171 154.885 22.7498 154.93 22.8873 154.946C23.0248 154.963 23.1643 154.954 23.2974 154.915ZM88.8428 15.3467C89.0902 15.231 89.2816 15.0219 89.375 14.7652C89.4684 14.5086 89.4562 14.2254 89.341 13.9777C88.2389 11.5977 87.6966 8.99694 87.7558 6.37485C87.7591 6.23949 87.7357 6.10483 87.6868 5.97855C87.638 5.85227 87.5647 5.73687 87.4712 5.63896C87.3777 5.54104 87.2658 5.46254 87.1419 5.40794C87.018 5.35334 86.8845 5.32374 86.7491 5.3208C86.6131 5.3141 86.4771 5.33512 86.3495 5.38261C86.2218 5.43009 86.1052 5.50302 86.0066 5.59699C85.908 5.69095 85.8295 5.80399 85.776 5.92922C85.7224 6.05444 85.6949 6.18926 85.6951 6.32545C85.6304 9.26427 86.2389 12.1789 87.4738 14.8465C87.5892 15.0942 87.7981 15.2861 88.0548 15.3799C88.3115 15.4736 88.5949 15.4617 88.8428 15.3467ZM175.072 16.9073C175.126 17.0339 175.205 17.1484 175.304 17.244C175.403 17.3396 175.52 17.4144 175.649 17.464C175.777 17.5135 175.914 17.5368 176.052 17.5325C176.189 17.5281 176.325 17.4962 176.45 17.4387C176.575 17.3811 176.687 17.299 176.78 17.1974C176.872 17.0957 176.944 16.9764 176.99 16.8466C177.036 16.7168 177.055 16.5792 177.047 16.4418C177.038 16.3044 177.003 16.1701 176.942 16.0467C175.876 13.7269 174.855 11.3871 173.878 9.02854C173.763 8.79204 173.562 8.60836 173.316 8.51505C173.071 8.42175 172.798 8.42586 172.556 8.52655C172.313 8.62724 172.117 8.81688 172.01 9.05675C171.902 9.29661 171.89 9.56858 171.976 9.81703C172.962 12.2002 173.994 14.564 175.072 16.9073ZM169.621 3.8591C169.664 3.99111 169.734 4.113 169.825 4.21741C169.917 4.32183 170.029 4.40662 170.154 4.46667C170.279 4.52671 170.415 4.56079 170.554 4.56683C170.693 4.57286 170.832 4.55073 170.962 4.50179C171.092 4.45284 171.21 4.37808 171.311 4.28202C171.411 4.18595 171.491 4.07056 171.545 3.9428C171.6 3.81504 171.628 3.67756 171.628 3.53863C171.628 3.3997 171.6 3.26221 171.546 3.13443L170.868 1.31041C170.766 1.06536 170.574 0.869155 170.331 0.762743C170.087 0.65633 169.813 0.647943 169.563 0.739324C169.314 0.830705 169.11 1.0148 168.993 1.25317C168.877 1.49154 168.857 1.76576 168.937 2.01861L169.621 3.8591ZM122.845 73.4643C124.465 72.9455 126.886 72.262 127.744 73.8699C128.588 75.4592 127.003 80.1963 133.288 79.167C135.483 78.8067 135.405 79.5643 134.946 80.9519C134.404 82.5783 134.223 83.9823 135.631 85.3576C138.071 87.7395 141.153 86.5104 144.021 84.7276C144.135 84.6563 144.235 84.5632 144.314 84.4534C144.393 84.3436 144.45 84.2193 144.48 84.0877C144.511 83.9561 144.516 83.8197 144.494 83.6863C144.472 83.5529 144.424 83.4251 144.353 83.3102C144.282 83.1953 144.189 83.0955 144.079 83.0166C143.969 82.9377 143.845 82.8812 143.713 82.8504C143.582 82.8195 143.445 82.8148 143.312 82.8367C143.178 82.8585 143.051 82.9064 142.936 82.9777C141.035 84.1594 138.703 85.4769 137.068 83.8835C136.358 83.1897 136.582 82.5556 136.899 81.5983C138.081 78.045 135.979 76.643 132.825 77.1577C128.8 77.8123 131.03 75.6589 129.562 72.9023C128.142 70.2404 125.064 70.5924 122.221 71.5003C121.961 71.583 121.744 71.7657 121.619 72.0082C121.493 72.2506 121.469 72.533 121.552 72.7932C121.634 73.0534 121.817 73.27 122.06 73.3955C122.302 73.521 122.584 73.5471 122.845 73.4643ZM679.349 153.655C679.57 153.808 679.843 153.868 680.108 153.823C680.373 153.777 680.61 153.629 680.767 153.412C680.925 153.194 680.991 152.923 680.951 152.656C680.912 152.39 680.77 152.15 680.555 151.988L673.15 146.644C673.041 146.561 672.916 146.5 672.783 146.466C672.65 146.433 672.512 146.425 672.376 146.446C672.241 146.466 672.111 146.513 671.993 146.584C671.876 146.655 671.774 146.749 671.694 146.86C671.614 146.971 671.556 147.097 671.525 147.231C671.494 147.365 671.49 147.503 671.514 147.638C671.537 147.773 671.587 147.902 671.661 148.018C671.735 148.134 671.831 148.233 671.944 148.311L679.349 153.655ZM664.827 55.465C665.048 55.6177 665.32 55.6777 665.586 55.6321C665.851 55.5865 666.087 55.4389 666.245 55.221C666.403 55.003 666.469 54.732 666.429 54.466C666.39 54.1999 666.247 53.9599 666.033 53.7974L658.63 48.453C658.521 48.3701 658.396 48.3099 658.263 48.276C658.13 48.242 657.992 48.2349 657.856 48.2551C657.721 48.2753 657.59 48.3224 657.473 48.3936C657.356 48.4648 657.254 48.5588 657.174 48.6699C657.094 48.781 657.036 48.907 657.005 49.0406C656.974 49.1741 656.97 49.3126 656.993 49.4477C657.017 49.5828 657.067 49.712 657.141 49.8275C657.214 49.9431 657.311 50.0427 657.423 50.1205L664.827 55.465ZM506.309 8.69915C506.889 8.71147 507.464 8.60802 508.003 8.39486C508.541 8.18171 509.032 7.86313 509.446 7.45785C509.86 7.05256 510.188 6.56871 510.413 6.03469C510.637 5.50066 510.752 4.92722 510.752 4.348C510.752 3.76878 510.636 3.19545 510.411 2.66164C510.186 2.12783 509.857 1.64429 509.443 1.2394C509.029 0.834499 508.538 0.516389 507.999 0.303744C507.46 0.0910987 506.884 -0.0117968 506.305 0.00107431C505.168 0.0263473 504.086 0.495911 503.291 1.3092C502.496 2.12248 502.051 3.21479 502.052 4.35212C502.053 5.48944 502.498 6.58134 503.294 7.39387C504.09 8.2064 505.172 8.67495 506.309 8.69915ZM163.278 154.5C163.849 154.499 164.415 154.386 164.942 154.167C165.47 153.948 165.949 153.627 166.353 153.223C166.757 152.819 167.077 152.339 167.295 151.811C167.513 151.283 167.625 150.718 167.625 150.146C167.624 149.575 167.511 149.01 167.292 148.482C167.073 147.954 166.753 147.475 166.348 147.071C165.944 146.668 165.465 146.348 164.937 146.129C164.409 145.911 163.843 145.799 163.272 145.799C162.118 145.8 161.012 146.259 160.197 147.076C159.381 147.892 158.924 148.999 158.925 150.153C158.925 151.306 159.385 152.412 160.201 153.228C161.017 154.043 162.124 154.5 163.278 154.5ZM25.0967 287.639C25.0965 287.068 24.9836 286.502 24.7647 285.974C24.5458 285.446 24.2251 284.967 23.8209 284.563C23.4166 284.159 22.9368 283.839 22.4088 283.62C21.8808 283.402 21.315 283.29 20.7436 283.29C20.1722 283.29 19.6064 283.403 19.0786 283.622C18.5508 283.841 18.0713 284.161 17.6675 284.566C17.2636 284.97 16.9434 285.45 16.725 285.978C16.5065 286.506 16.3943 287.072 16.3945 287.643C16.3951 288.797 16.854 289.903 17.6704 290.719C18.4868 291.535 19.5937 291.993 20.7477 291.992C21.9017 291.991 23.0082 291.533 23.8238 290.716C24.6394 289.9 25.0973 288.793 25.0967 287.639ZM58.9462 70.1498C59.5252 70.162 60.1009 70.0584 60.6395 69.8451C61.178 69.6318 61.6685 69.3131 62.0822 68.9078C62.4959 68.5024 62.8245 68.0184 63.0487 67.4844C63.2729 66.9503 63.3881 66.3768 63.3877 65.7976C63.3873 65.2184 63.2712 64.6451 63.0463 64.1113C62.8213 63.5776 62.4921 63.0941 62.0778 62.6893C61.6635 62.2845 61.1725 61.9665 60.6337 61.754C60.0949 61.5415 59.5191 61.4387 58.94 61.4517C57.7863 61.4525 56.6801 61.9116 55.8649 62.728C55.0497 63.5444 54.5922 64.6512 54.593 65.8049C54.5938 66.9586 55.0529 68.0647 55.8693 68.8799C56.6857 69.6952 57.7924 70.1506 58.9462 70.1498Z" fill="white"/>
</svg>
