<svg width="15" height="15" viewBox="0 0 15 15" fill="none" xmlns="http://www.w3.org/2000/svg">
<path d="M9.77652 0H4.44387C1.98997 0 0 1.98012 0 4.42187V9.72812C0 12.1699 1.98997 14.15 4.44387 14.15H9.77652C12.2304 14.15 14.2204 12.1699 14.2204 9.72812V4.42187C14.2204 1.98012 12.2304 0 9.77652 0ZM12.8872 9.72812C12.8872 11.435 11.4919 12.8234 9.77652 12.8234H4.44387C2.72854 12.8234 1.33316 11.435 1.33316 9.72812V4.42187C1.33316 2.71503 2.72854 1.32656 4.44387 1.32656H9.77652C11.4919 1.32656 12.8872 2.71503 12.8872 4.42187V9.72812Z" fill="#000B33"/>
<path d="M7.1176 3.54541C5.15429 3.54541 3.5625 5.12933 3.5625 7.08291C3.5625 9.03649 5.15429 10.6204 7.1176 10.6204C9.0809 10.6204 10.6727 9.03649 10.6727 7.08291C10.6727 5.12933 9.0809 3.54541 7.1176 3.54541ZM7.1176 9.29385C5.89287 9.29385 4.89566 8.30158 4.89566 7.08291C4.89566 5.86336 5.89287 4.87197 7.1176 4.87197C8.34233 4.87197 9.33953 5.86336 9.33953 7.08291C9.33953 8.30158 8.34233 9.29385 7.1176 9.29385Z" fill="#000B33"/>
</svg>
