<svg width="36" height="33" viewBox="0 0 36 33" fill="none" xmlns="http://www.w3.org/2000/svg">
<path d="M30.092 22.0441H23.5769C23.4552 22.0136 23.3472 21.9434 23.2701 21.8445C23.1929 21.7456 23.151 21.6238 23.151 21.4984C23.151 21.373 23.1929 21.2512 23.2701 21.1523C23.3472 21.0534 23.4552 20.9831 23.5769 20.9527H30.092C31.2565 20.9531 32.3819 20.5326 33.2607 19.7687C34.1396 19.0048 34.7127 17.9489 34.8744 16.7957C35.0361 15.6425 34.7755 14.4698 34.1407 13.4936C33.5058 12.5174 32.5395 11.8036 31.4198 11.4837C31.2874 11.4409 31.1755 11.3504 31.1059 11.2299C31.0363 11.1093 31.0138 10.9673 31.0429 10.8311C31.3402 9.75958 31.4061 8.63704 31.2363 7.53807C31.0664 6.4391 30.6646 5.38887 30.0576 4.45714C29.4505 3.52542 28.6522 2.73354 27.7155 2.13412C26.7789 1.5347 25.7254 1.14146 24.6251 0.98054C23.5248 0.819616 22.4028 0.894689 21.3338 1.20077C20.2647 1.50685 19.273 2.03693 18.4246 2.75579C17.5761 3.47465 16.8904 4.36583 16.4129 5.37012C15.9354 6.37442 15.6771 7.46882 15.6552 8.58063C15.6433 8.69264 15.598 8.7985 15.5252 8.8845C15.4525 8.97049 15.3556 9.03267 15.2471 9.06298C15.1386 9.09328 15.0235 9.09032 14.9167 9.05448C14.8099 9.01863 14.7163 8.95156 14.6481 8.86194C14.2641 8.25952 13.6952 7.79785 13.0266 7.54618C12.358 7.29451 11.6259 7.26641 10.94 7.4661C10.2541 7.66578 9.65141 8.08248 9.2224 8.65369C8.79339 9.2249 8.56116 9.91982 8.56054 10.6342C8.56328 10.802 8.57832 10.9693 8.60555 11.1349C8.61157 11.2287 8.59398 11.3226 8.5544 11.4078C8.51482 11.4931 8.45451 11.5671 8.37897 11.623C8.30343 11.679 8.21508 11.7151 8.12198 11.7281C8.02888 11.7412 7.934 11.7306 7.84601 11.6975C7.24033 11.4285 6.58461 11.2904 5.92185 11.2925C4.64157 11.2925 3.41374 11.801 2.50845 12.7063C1.60315 13.6116 1.09457 14.8395 1.09457 16.1197C1.09457 17.4 1.60315 18.6279 2.50845 19.5331C3.41374 20.4384 4.64157 20.947 5.92185 20.947H12.437C12.5586 20.9775 12.6666 21.0478 12.7438 21.1467C12.8209 21.2455 12.8628 21.3674 12.8628 21.4928C12.8628 21.6182 12.8209 21.74 12.7438 21.8389C12.6666 21.9378 12.5586 22.008 12.437 22.0385H5.92185C5.07816 22.0389 4.24413 21.859 3.47567 21.5108C2.70721 21.1625 2.02209 20.654 1.46623 20.0193C0.910364 19.3846 0.496614 18.6384 0.252715 17.8308C0.00881636 17.0231 -0.0595944 16.1726 0.0520693 15.3364C0.163733 14.5001 0.452891 13.6974 0.900156 12.982C1.34742 12.2666 1.94246 11.6552 2.64537 11.1885C3.34828 10.7219 4.14283 10.411 4.97574 10.2766C5.80865 10.1422 6.66067 10.1874 7.47468 10.4091C7.51268 9.59167 7.77821 8.80106 8.24135 8.12637C8.70449 7.45169 9.34685 6.91975 10.096 6.59048C10.8452 6.26121 11.6715 6.1477 12.4817 6.26274C13.2919 6.37778 14.0539 6.71679 14.6819 7.24159C15.1295 4.91605 16.4826 2.86359 18.4436 1.53573C20.4045 0.207862 22.8126 -0.286639 25.1382 0.16101C27.4637 0.608658 29.5161 1.96179 30.844 3.92272C32.1719 5.88366 32.6664 8.29178 32.2187 10.6173C33.5058 11.1158 34.5782 12.0483 35.2504 13.2538C35.9227 14.4592 36.1526 15.8616 35.9003 17.2186C35.648 18.5755 34.9294 19.8016 33.8688 20.6849C32.8082 21.5681 31.4722 22.0529 30.092 22.0554V22.0441Z" fill="#0D99FF"/>
<path d="M23.031 32.0137H12.9826C12.6931 32.0137 12.4155 31.8987 12.2108 31.694C12.0061 31.4893 11.8911 31.2117 11.8911 30.9222V13.5429C11.8926 13.2544 12.0083 12.9782 12.2128 12.7747C12.4173 12.5712 12.6941 12.457 12.9826 12.457H23.031C23.3195 12.457 23.5963 12.5712 23.8008 12.7747C24.0053 12.9782 24.121 13.2544 24.1225 13.5429V15.7427C24.092 15.8644 24.0217 15.9724 23.9229 16.0495C23.824 16.1267 23.7022 16.1686 23.5767 16.1686C23.4513 16.1686 23.3295 16.1267 23.2306 16.0495C23.1318 15.9724 23.0615 15.8644 23.031 15.7427V13.5429H12.9826V30.9222H23.031V28.6211C23.0615 28.4995 23.1318 28.3915 23.2306 28.3143C23.3295 28.2372 23.4513 28.1953 23.5767 28.1953C23.7022 28.1953 23.824 28.2372 23.9229 28.3143C24.0217 28.3915 24.092 28.4995 24.1225 28.6211V30.9222C24.1225 31.0656 24.0943 31.2075 24.0394 31.3399C23.9845 31.4724 23.9041 31.5927 23.8028 31.694C23.7014 31.7954 23.5811 31.8758 23.4487 31.9306C23.3163 31.9855 23.1743 32.0137 23.031 32.0137Z" fill="#0D99FF"/>
<path d="M23.5768 29.1666H12.4369C12.354 29.1874 12.2674 29.189 12.1837 29.1713C12.1 29.1536 12.0215 29.1171 11.9541 29.0645C11.8866 29.0119 11.8321 28.9446 11.7946 28.8677C11.757 28.7908 11.7375 28.7064 11.7375 28.6209C11.7375 28.5354 11.757 28.451 11.7946 28.3741C11.8321 28.2973 11.8866 28.23 11.9541 28.1773C12.0215 28.1247 12.1 28.0882 12.1837 28.0705C12.2674 28.0528 12.354 28.0544 12.4369 28.0752H23.0311V16.2883H12.4369C12.3153 16.2578 12.2073 16.1875 12.1302 16.0886C12.053 15.9898 12.0111 15.8679 12.0111 15.7425C12.0111 15.6171 12.053 15.4953 12.1302 15.3964C12.2073 15.2975 12.3153 15.2273 12.4369 15.1968H23.5768C23.726 15.1968 23.8692 15.2561 23.9747 15.3616C24.0802 15.4671 24.1395 15.6102 24.1395 15.7594V28.6209C24.1351 28.7672 24.0739 28.906 23.9688 29.0079C23.8638 29.1098 23.7232 29.1667 23.5768 29.1666Z" fill="#0D99FF"/>
</svg>
