<svg width="476" height="424" viewBox="0 0 476 424" fill="none" xmlns="http://www.w3.org/2000/svg">
<path d="M233.771 402.447C233.325 397.641 232.338 390.773 231.892 385.967C232.395 391.394 257.571 388.231 259.938 390.015C254.475 395.266 241.081 400.758 233.771 402.447ZM76.666 218.582C75.8077 219.094 74.8544 219.627 73.8697 219.461C72.0766 219.157 71.4693 216.88 71.5275 215.061C71.5865 213.243 71.8191 211.141 70.5077 209.88C71.5026 210.839 83.8781 206.833 85.471 206.47C88.868 205.694 93.749 203.555 96.573 206.355C91.0109 211.26 83.0992 214.736 76.666 218.582ZM176.998 204.199C180.012 205.782 182.046 209.332 181.343 212.665C180.833 215.087 179.027 217.165 178.903 219.637C178.797 221.727 178.807 223.577 179.126 225.645C179.823 230.165 176.599 233.786 172.477 235.765C168.353 237.744 164.603 238.722 160.031 238.822C159.176 237.698 159.77 235.967 160.89 235.106C162.01 234.246 163.474 234.017 164.866 233.775C167.072 233.391 169.33 232.872 171.151 231.569C172.973 230.265 174.269 227.993 173.807 225.801C173.574 224.692 174.571 223.306 174.499 222.176C174.32 219.328 174.222 216.931 174.355 214.081C174.47 211.653 173.896 210.545 171.48 210.29C168.077 209.932 161.142 214.434 162.683 208.124C163.969 202.864 173.146 202.176 176.997 204.199H176.998ZM307.236 346.145L315.156 328.946C315.678 327.814 316.325 326.566 317.514 326.192C319.126 325.684 320.661 327.034 321.915 328.168C325.809 331.696 327.758 334.622 323.405 338.934C320.503 341.809 308.47 343.467 307.236 346.145ZM87.5908 246.462C83.1158 246.608 78.1693 246.156 75.0325 242.961C71.3106 239.169 71.5847 233.126 72.108 227.839C73.4461 232.765 75.2549 238.276 79.8757 240.445C82.5695 241.71 85.6897 241.539 88.6558 241.302C97.8798 240.565 107.028 238.801 116.215 238.066C114.598 244.966 93.474 246.271 87.5908 246.462ZM143.663 202.411C144.404 206.21 145.117 210.193 143.983 213.893C146.049 207.153 155.662 197.362 150.852 189.874C144.007 179.218 142.837 198.175 143.663 202.411ZM72.9127 86.1074C69.5036 101.562 55.3811 111.048 41.5502 109.908C31.2972 109.064 21.705 102.094 18.044 92.4797C14.383 82.8654 17.0343 71.0897 24.6858 64.2116C19.8232 72.6936 19.7651 83.7846 24.7329 92.2057C29.7015 100.627 39.5743 105.963 49.328 105.283C59.0818 104.602 68.2024 97.8277 71.4629 88.6102M79.8868 388.267C84.2648 387.799 88.5137 385.748 91.6025 382.602C98.3209 375.763 98.0533 365.245 95.4656 363.051C94.5215 362.256 93.1806 362.12 91.9522 362.266C90.8072 362.414 89.6977 362.765 88.6761 363.303C82.9119 366.27 81.1206 372.74 79.2657 378.792C78.5172 381.238 77.1772 383.557 76.4629 385.965C75.8234 388.129 77.6313 388.505 79.8868 388.267ZM42.7877 375.9C41.8925 372.38 41.9267 371.248 39.8373 345.083C39.7155 343.553 39.5854 341.992 38.9726 340.586C37.4859 337.172 33.8738 336.32 30.6604 340.175C27.5227 343.937 26.4614 349.171 27.2144 354.011C28.7528 363.904 36.4283 370.925 44.328 377.004L42.7877 375.9ZM176.029 53.3578C179.506 55.019 183.446 55.3863 187.296 55.5699C196.543 56.0113 205.812 55.5402 214.967 54.1635C217.731 53.7482 220.748 53.0948 222.445 50.8735C224.069 48.7481 223.996 45.8208 223.801 43.1528C223.17 34.5803 222.025 26.0534 220.371 17.6182L219.629 36.5396C219.517 39.4014 219.327 42.4782 217.539 44.7152C215.93 46.727 213.28 47.6638 210.709 47.8234C208.138 47.9831 205.58 47.4644 203.035 47.0639C194.937 45.7923 186.697 45.6934 178.57 46.7704C174.621 47.2946 172.597 46.835 169.698 44.4541C169.181 48.3605 172.835 51.8323 176.029 53.3578ZM429.296 109.225C430.37 113.673 435.053 116.307 439.537 117.216C444.331 118.188 449.495 117.759 453.816 115.466C458.138 113.174 461.495 108.902 462.146 104.054C462.799 99.2056 460.463 93.9471 456.156 91.628C458.528 94.4824 458.899 98.6666 457.663 102.167C456.426 105.667 453.776 108.527 450.732 110.653C446.676 113.486 441.53 115.176 436.73 113.978C431.929 112.78 427.877 108.095 428.507 103.187C428.861 107.371 430.446 111.357 433.06 114.642L429.296 109.225Z" fill="white"/>
<path d="M102.273 395.908C102.237 395.73 102.167 395.56 102.066 395.409C101.965 395.258 101.836 395.128 101.685 395.027C101.534 394.926 101.364 394.855 101.186 394.82C101.007 394.784 100.824 394.784 100.646 394.819C100.467 394.855 100.298 394.925 100.146 395.026C99.9951 395.127 99.8652 395.256 99.7641 395.407C99.663 395.558 99.5926 395.728 99.557 395.906C99.5214 396.085 99.5213 396.268 99.5566 396.446C100.882 403.132 101.843 409.417 102.747 412.873C102.793 413.049 102.873 413.214 102.983 413.359C103.093 413.504 103.23 413.626 103.387 413.718C103.544 413.81 103.718 413.87 103.898 413.894C104.078 413.919 104.261 413.908 104.437 413.862C104.613 413.816 104.778 413.736 104.923 413.626C105.068 413.516 105.19 413.379 105.282 413.222C105.373 413.065 105.433 412.891 105.458 412.711C105.483 412.531 105.472 412.348 105.426 412.172C104.9 410.167 104.337 407.054 103.683 403.449C103.234 400.932 102.763 398.418 102.273 395.908ZM167.32 409.329C167.681 409.396 168.054 409.318 168.357 409.111C168.66 408.904 168.869 408.585 168.937 408.225L182.966 333.956L200.998 334.192C209.884 359.728 214.818 374.082 223.644 399.433C223.701 399.607 223.793 399.768 223.914 399.906C224.034 400.045 224.181 400.158 224.346 400.239C224.51 400.32 224.689 400.367 224.873 400.379C225.056 400.39 225.239 400.365 225.413 400.304C225.586 400.244 225.745 400.15 225.882 400.027C226.019 399.905 226.129 399.756 226.208 399.59C226.287 399.425 226.332 399.245 226.34 399.062C226.349 398.878 226.321 398.695 226.258 398.523C217.262 372.676 212.529 358.905 203.942 334.23L214.662 334.37C212.839 327.217 210.513 319.985 208.341 313.56L95.7553 312.088L95.484 332.811L180.155 333.919L166.218 407.711C166.184 407.889 166.186 408.073 166.223 408.251C166.26 408.429 166.332 408.598 166.434 408.748C166.536 408.898 166.667 409.027 166.819 409.127C166.972 409.226 167.142 409.295 167.32 409.329ZM134.858 144.921C144.046 148.858 151.707 154.03 157.725 159.752C157.856 159.877 158.011 159.975 158.181 160.041C158.351 160.106 158.532 160.137 158.713 160.133C158.895 160.128 159.074 160.088 159.24 160.014C159.407 159.94 159.557 159.835 159.682 159.703C159.807 159.571 159.905 159.416 159.971 159.246C160.036 159.077 160.067 158.896 160.063 158.714C160.058 158.532 160.018 158.353 159.944 158.187C159.871 158.021 159.765 157.871 159.633 157.746C157.579 155.796 155.413 153.968 153.146 152.27C145.236 146.295 135.916 142.213 135.119 142.049L135.151 134.67L133.767 134.627L132.383 134.658L132.346 143.167C131.826 146.697 130.643 150.575 129.897 154.281C123.575 148.806 115.722 142.98 109.714 137.572C109.471 137.354 109.16 137.228 108.834 137.217C108.508 137.206 108.189 137.31 107.932 137.512C106.245 138.836 104.093 139.983 101.161 141.122C94.2566 143.801 85.7626 145.395 80.3915 149.831C76.9179 152.698 75.1238 156.422 73.5827 159.992C71.5859 164.616 69.812 169.333 68.267 174.127C68.2069 174.301 68.1823 174.486 68.1944 174.67C68.2066 174.854 68.2554 175.033 68.3379 175.198C68.4204 175.363 68.535 175.51 68.675 175.63C68.8149 175.749 68.9774 175.84 69.1529 175.897C69.3284 175.953 69.5134 175.974 69.697 175.957C69.8806 175.941 70.0591 175.889 70.2221 175.802C70.3851 175.716 70.5292 175.599 70.6461 175.456C70.763 175.314 70.8502 175.149 70.9027 174.973C72.4209 170.264 74.1637 165.63 76.1252 161.088C77.5316 157.83 79.1558 154.441 82.1542 151.966C88.6235 146.622 101.135 145.632 108.705 140.381C115.3 146.204 123.514 152.223 129.911 157.986C130.098 158.155 130.327 158.269 130.574 158.317C130.821 158.365 131.076 158.345 131.312 158.259C131.549 158.172 131.757 158.024 131.915 157.828C132.073 157.632 132.175 157.397 132.209 157.148C132.511 154.972 133.086 152.626 133.642 150.357C134.082 148.564 134.528 146.725 134.858 144.921ZM79.8646 225.343C80.0039 225.202 80.1112 225.033 80.1793 224.846C80.2474 224.66 80.2748 224.461 80.2594 224.264C80.2441 224.066 80.1865 223.874 80.0905 223.7C79.9946 223.527 79.8624 223.376 79.7031 223.258C78.5772 222.423 78.0373 220.84 78.4203 219.493C78.5136 219.142 78.4653 218.769 78.2859 218.454C78.1066 218.138 77.8105 217.906 77.4614 217.806C77.1123 217.707 76.7381 217.749 76.4195 217.922C76.1009 218.096 75.8633 218.388 75.7579 218.736C75.1765 220.777 75.7329 223.04 77.1172 224.617C76.6097 225.953 76.8773 227.577 77.9164 228.611C78.045 228.74 78.1978 228.842 78.366 228.911C78.5342 228.981 78.7144 229.017 78.8963 229.016C79.0783 229.016 79.2584 228.98 79.4263 228.909C79.5942 228.839 79.7466 228.737 79.8747 228.607C80.0031 228.479 80.1048 228.326 80.174 228.157C80.2432 227.989 80.2786 227.809 80.2782 227.627C80.2778 227.445 80.2415 227.265 80.1715 227.098C80.1015 226.93 79.9991 226.777 79.8701 226.649C79.5527 226.333 79.5499 225.662 79.8646 225.343ZM165.246 83.3463C161.875 79.186 155.705 77.0625 149.53 77.9355C143.932 78.7227 139.655 81.5965 135.375 85.3636C132.713 87.6893 127.069 85.0333 122.794 85.8103C114.816 87.2786 108.832 91.629 108.255 99.6597C108.078 102.091 108.423 104.449 108.813 106.74C104.748 108.912 103.758 113.396 105.624 117.026C106.465 118.672 107.17 120.103 108.741 121.17C108.04 125.286 107.067 127.862 106.678 130.877C106.655 131.058 106.668 131.241 106.715 131.416C106.763 131.592 106.844 131.756 106.956 131.9C107.067 132.044 107.205 132.165 107.363 132.255C107.52 132.346 107.694 132.404 107.875 132.427C108.055 132.45 108.238 132.438 108.414 132.39C108.589 132.343 108.754 132.261 108.898 132.15C109.042 132.039 109.162 131.901 109.253 131.743C109.343 131.585 109.402 131.411 109.425 131.231C109.607 129.807 109.932 128.503 110.308 126.994C110.738 125.262 111.226 123.3 111.628 120.655C111.672 120.361 111.622 120.061 111.482 119.798C111.343 119.535 111.123 119.325 110.855 119.197C109.416 118.511 108.878 117.31 108.087 115.761C106.427 112.529 108.286 109.197 111.952 108.537C113.169 108.73 114.961 109.421 115.362 109.974C115.576 110.268 115.713 110.509 115.799 110.71C115.791 111.061 115.67 111.461 115.285 111.834C115.021 112.089 114.87 112.439 114.864 112.806C114.858 113.173 114.998 113.527 115.254 113.791C115.683 114.234 116.329 114.311 116.854 114.052C117.078 114.01 117.299 113.932 117.486 113.775C121.401 110.526 125.764 105.452 127.015 100.44C130.846 101.057 134.615 101.154 138.473 101.373C140.235 101.469 140.37 101.673 143.518 101.047L143.727 101.005C144.099 100.933 145.803 100.119 147.044 99.1512C147.707 99.823 148.472 100.406 149.297 100.905C148.127 108.684 145.8 116.387 143.549 123.836C142.904 125.967 142.174 128.381 140.532 129.866C137.994 132.16 133.978 131.627 131.325 130.163C128.153 128.411 125.74 125.258 123.61 122.476C123.5 122.331 123.362 122.21 123.204 122.119C123.047 122.028 122.873 121.969 122.693 121.945C122.513 121.921 122.33 121.933 122.154 121.98C121.978 122.027 121.814 122.108 121.669 122.218C121.525 122.329 121.404 122.467 121.313 122.624C121.222 122.781 121.163 122.955 121.139 123.135C121.115 123.315 121.127 123.499 121.173 123.674C121.22 123.85 121.301 124.015 121.412 124.159C125.364 129.324 129.499 134.177 136.131 134.177C138.363 134.177 140.606 133.531 142.388 131.919C144.602 129.919 145.487 126.991 146.199 124.638C148.406 117.338 150.674 109.796 151.907 102.088C156.519 103.562 161.475 102.119 164.571 99.0368C168.735 94.9014 169.031 88.0086 165.246 83.3463Z" fill="white"/>
<path d="M134.002 121.46C133.657 121.586 133.376 121.843 133.221 122.176C133.066 122.509 133.05 122.889 133.175 123.234C133.99 125.471 136.675 126.741 138.918 125.959C139.265 125.838 139.549 125.585 139.709 125.254C139.869 124.924 139.891 124.543 139.77 124.197C139.649 123.85 139.395 123.565 139.065 123.406C138.734 123.246 138.354 123.224 138.007 123.345C137.18 123.635 136.077 123.108 135.777 122.286C135.715 122.115 135.619 121.958 135.497 121.824C135.374 121.69 135.226 121.581 135.061 121.505C134.896 121.428 134.718 121.384 134.536 121.376C134.354 121.369 134.173 121.398 134.002 121.46ZM136.305 118.446L138.711 120.165C138.9 120.3 139.119 120.385 139.348 120.413C139.578 120.441 139.811 120.411 140.026 120.326C140.241 120.24 140.431 120.103 140.579 119.925C140.727 119.747 140.829 119.535 140.874 119.308C141.566 115.836 141.673 114.261 142.971 111.099C143.111 110.76 143.11 110.379 142.968 110.04C142.827 109.701 142.556 109.432 142.217 109.293C141.877 109.153 141.496 109.154 141.157 109.296C140.819 109.437 140.55 109.708 140.41 110.047C139.307 112.733 138.976 114.412 138.56 116.655L137.914 116.193C137.766 116.088 137.599 116.012 137.422 115.971C137.245 115.93 137.061 115.925 136.882 115.954C136.703 115.984 136.531 116.049 136.377 116.145C136.222 116.242 136.089 116.367 135.983 116.515C135.877 116.663 135.802 116.83 135.761 117.007C135.72 117.185 135.714 117.368 135.744 117.547C135.774 117.727 135.839 117.898 135.935 118.053C136.031 118.207 136.157 118.341 136.305 118.446ZM357.084 331.36C354.724 329.724 351.793 329.763 349.757 330.08C347.767 330.38 345.453 330.765 343.2 331.52C329.898 335.959 324.278 330.272 322.229 326.92C323.361 325.056 324.511 323.203 325.679 321.361C325.849 321.095 325.922 320.779 325.888 320.465C325.853 320.152 325.712 319.859 325.488 319.636C294.337 288.626 247.889 257.834 226.483 244.301C228.545 244.045 230.616 243.795 232.706 243.561C233.038 243.524 233.346 243.368 233.572 243.121C233.799 242.874 233.928 242.554 233.936 242.219L233.969 240.897C234.421 222.949 234.874 204.993 235.336 187.046C235.341 186.853 235.305 186.661 235.232 186.483C235.158 186.304 235.048 186.143 234.908 186.01C234.769 185.876 234.603 185.774 234.421 185.708C234.24 185.643 234.046 185.616 233.854 185.63C230.738 185.852 227.602 186.062 224.459 186.263L228.275 179.317C233.037 174.468 234.95 172.267 240.519 165.995C241.566 164.819 242.87 163.355 243.32 161.53C243.762 159.754 243.165 157.628 241.489 156.625C241.573 155.4 241.124 154.107 240.759 153.478C240.333 152.746 238.816 151.222 237.298 150.66C236.564 148.588 234.328 147.565 232.163 147.137C235.257 142.544 238.415 137.731 241.164 132.928C241.792 131.83 242.371 130.743 242.549 129.504C242.793 127.821 242.164 126.25 240.908 125.405C239.314 124.334 237.152 124.699 235.715 125.535C233.84 126.627 234.535 126.083 217.564 147.573C214.708 148.148 212.394 150.305 210.343 152.39C208.801 153.943 207.345 156.441 205.987 158.863C205.835 159.134 205.525 159.684 205.57 160.237C205.623 161.6 207.417 162.071 208.133 160.909C208.242 160.731 208.457 160.379 208.536 159.978C209.714 157.883 211.059 155.598 212.312 154.336C216.73 149.846 218.47 149.285 224.486 151.12C225.781 151.513 227.118 151.92 228.049 152.647C228.712 153.165 229.279 154.043 229.052 154.83C228.691 156.067 226.722 156.773 224.967 156.831C223.641 156.877 220.902 156.021 219.035 156.574C215.725 157.355 216.085 164.891 218.722 164.891C219.946 164.891 220.569 163.4 219.699 162.54C219.281 161.978 219.351 159.768 219.787 159.239L219.802 159.235C220.81 158.92 223.611 159.652 225.054 159.598L225.08 159.597C224.342 161.165 224.019 163.04 225.181 164.319C226.049 165.274 227.328 165.794 228.878 165.604C228.986 168.922 233.258 169.616 234.661 167.364C235.065 166.716 234.881 165.844 234.232 165.441C234.08 165.344 233.91 165.277 233.733 165.246C233.555 165.215 233.373 165.219 233.197 165.259C233.021 165.298 232.854 165.373 232.707 165.478C232.56 165.582 232.435 165.715 232.34 165.868C232.203 165.954 231.777 165.875 231.686 165.756C231.501 165.408 231.752 164.714 232.277 164.133L232.696 163.667C234.81 161.36 235.416 161.164 237.572 159.534C238.355 158.968 239.235 158.709 239.814 158.881C240.569 159.103 240.828 160.083 240.633 160.866C240.285 162.274 238.882 163.671 237.252 165.505C232.241 171.149 230.554 173.05 226.166 177.514C226.16 177.52 226.158 177.529 226.152 177.535C226.073 177.619 225.999 177.711 225.94 177.818L221.19 186.461C212.128 187.019 203.167 187.502 194.125 187.989C196.845 183.129 200.871 176.568 205.794 166.406C205.873 166.243 205.92 166.065 205.93 165.884C205.941 165.702 205.916 165.52 205.856 165.349C205.796 165.177 205.703 165.019 205.583 164.883C205.462 164.747 205.315 164.636 205.152 164.557C204.988 164.478 204.811 164.431 204.629 164.421C204.448 164.41 204.266 164.435 204.094 164.495C203.922 164.555 203.764 164.648 203.628 164.768C203.492 164.889 203.382 165.036 203.302 165.199C198.048 176.048 193.85 182.676 190.856 188.167C186.197 188.419 181.509 188.678 176.8 188.952C176.925 187.639 176.967 185.574 177.132 184.725C177.181 184.476 177.16 184.218 177.071 183.978C173.891 175.427 169.098 167.683 162.827 160.96C162.703 160.827 162.554 160.72 162.388 160.644C162.223 160.569 162.044 160.527 161.863 160.521C161.681 160.514 161.5 160.544 161.33 160.608C161.16 160.671 161.003 160.768 160.871 160.892C160.738 161.016 160.631 161.165 160.555 161.33C160.48 161.496 160.438 161.674 160.432 161.856C160.425 162.037 160.455 162.219 160.519 162.389C160.582 162.559 160.679 162.715 160.803 162.848C166.74 169.213 171.296 176.53 174.349 184.602C174.171 185.875 174.155 187.955 173.993 189.124C168.63 189.445 163.265 189.783 157.958 190.165C157.606 190.19 157.276 190.348 157.038 190.608C156.799 190.868 156.668 191.209 156.672 191.562C156.721 195.738 156.862 200.163 157.103 205.107C156.43 204.797 155.63 204.699 154.892 204.796C153.713 204.964 152.742 205.526 151.937 206.031C151.379 206.372 150.822 206.708 150.267 207.043C148.922 207.855 147.623 208.646 146.354 209.461C146.59 206.48 146.971 202.859 147.344 199.327C147.801 194.999 148.274 190.526 148.475 187.224C148.497 186.858 148.373 186.498 148.13 186.223C147.887 185.948 147.544 185.781 147.178 185.759C146.812 185.739 146.453 185.864 146.178 186.107C145.904 186.35 145.737 186.691 145.712 187.056C145.514 190.296 145.045 194.739 144.591 199.035C144.134 203.362 143.662 207.836 143.459 211.137C143.454 211.231 143.457 211.324 143.471 211.416C140.907 213.262 137.952 214.412 134.919 214.738C125.645 215.731 116.368 216.735 107.097 217.738C105.742 217.878 104.206 218.04 103.088 217.645C100.755 216.82 100.897 213.918 100.996 213.053C101.169 211.579 101.108 209.74 101.048 207.963C101.012 206.892 100.978 205.797 100.995 204.808C103.539 204.43 106.078 204.078 108.603 203.785C108.889 203.752 109.157 203.631 109.371 203.438C109.585 203.245 109.733 202.991 109.795 202.71C110.26 200.62 110.602 198.48 110.932 196.412C111.257 194.385 111.592 192.287 112.039 190.278C112.078 190.101 112.082 189.917 112.051 189.738C112.019 189.559 111.953 189.388 111.855 189.235C111.757 189.081 111.63 188.949 111.482 188.844C111.333 188.74 111.165 188.666 110.987 188.627C110.81 188.587 110.626 188.583 110.447 188.615C110.268 188.646 110.097 188.713 109.944 188.81C109.79 188.908 109.658 189.035 109.553 189.184C109.449 189.333 109.375 189.501 109.336 189.678C108.872 191.768 108.529 193.907 108.199 195.976C107.926 197.683 107.645 199.439 107.296 201.151C93.1395 202.852 78.6497 205.894 64.1801 210.201C64.7375 201.037 66.2372 191.787 68.6449 182.672C68.6943 182.495 68.708 182.311 68.6854 182.129C68.6627 181.947 68.6041 181.771 68.513 181.612C68.4219 181.453 68.3001 181.313 68.1546 181.201C68.0091 181.09 67.8429 181.008 67.6656 180.961C67.4883 180.914 67.3035 180.903 67.1218 180.928C66.9402 180.953 66.7653 181.014 66.6074 181.108C66.4495 181.201 66.3118 181.325 66.2021 181.472C66.0924 181.619 66.0131 181.786 65.9686 181.964C63.3385 191.918 61.7715 202.034 61.31 212.032C61.2999 212.253 61.3431 212.474 61.4361 212.675C61.5291 212.877 61.6691 213.053 61.8443 213.189C62.0195 213.325 62.2248 213.416 62.4429 213.457C62.661 213.497 62.8855 213.484 63.0976 213.419C64.7156 212.927 66.3381 212.451 67.9648 211.989C68.2389 215.562 68.7704 219.358 69.4986 223.087C68.9061 230.402 69.4598 253.199 69.9286 263.514C69.9415 263.797 70.041 264.069 70.2136 264.294C70.3863 264.519 70.6237 264.685 70.8939 264.77C72.5994 265.309 74.3076 265.802 76.0158 266.266C80.1761 281.886 89.3207 300.618 102.166 310.664L184.732 311.447C194.464 304.37 194.84 303.547 201.82 298.259C204.599 294.007 208.797 287.199 213.817 286.725C217.034 286.422 220.111 287.851 222.744 289.212C236.373 296.267 250.386 307.68 262.51 321.559C275.107 331.378 288.572 342.846 302.857 355.935C303.006 356.072 303.183 356.174 303.376 356.235C303.569 356.295 303.772 356.313 303.973 356.287C304.173 356.261 304.365 356.191 304.536 356.082C304.706 355.973 304.851 355.829 304.959 355.658C306.364 353.444 307.744 351.213 309.098 348.968C311.086 351.655 313.072 354.344 315.055 357.035C317.532 360.378 320.308 363.473 324.509 363.473C326.478 363.473 328.36 362.8 330.124 362.043C337.331 358.96 349.058 352.307 354.363 347.691C356.622 345.724 358.847 343.496 359.814 340.544C360.976 337.049 359.853 333.272 357.084 331.36ZM219.809 159.221L219.799 159.226C219.805 159.218 219.811 159.213 219.818 159.206C219.812 159.212 219.801 159.228 219.809 159.221ZM225.292 148.472C223.948 148.062 222.561 147.68 221.153 147.496C236.136 128.523 235.81 128.684 237.109 127.928C237.9 127.467 238.869 127.37 239.363 127.703C239.8 127.996 239.876 128.643 239.809 129.108C239.7 129.867 239.27 130.664 238.761 131.553C235.631 137.02 231.942 142.535 228.432 147.713C227.694 148.805 228.758 150.21 230.002 149.808C230.883 149.525 233.575 150.162 234.406 151.105C233.751 151.62 232.744 152.408 231.679 153.243C231.38 152.209 230.725 151.225 229.753 150.465C228.415 149.421 226.756 148.916 225.292 148.472ZM235.471 157.636C233.55 159.019 232.553 159.751 231 161.424C230.913 161.492 230.835 161.57 230.767 161.657C230.055 162.587 228.092 163.403 227.228 162.456C227.219 162.445 227.17 162.333 227.188 162.076C227.257 161.092 228.101 159.67 228.831 158.992L236.204 153.213C236.705 153.285 238.084 154.387 238.365 154.87C238.562 155.208 238.696 155.719 238.737 156.116C236.94 156.371 235.74 157.476 235.471 157.636V157.636ZM159.813 253.429L140.815 246.571C147.091 245.552 152.986 244.741 159.492 243.904C159.65 247.312 159.755 250.436 159.813 253.429V253.429ZM232.529 188.499C232.095 205.407 231.625 224.043 231.199 240.945C221.62 242.034 212.076 243.408 202.579 245.066C196.673 245.763 191.041 246.925 185.057 248.514C177.28 250.222 169.78 252.111 162.596 254.184C162.506 248.721 162.258 242.877 161.815 235.681C165.437 235.021 169.006 233.773 172.746 231.317C173.872 230.576 174.752 228.792 175.038 227.412C175.254 226.37 175.087 225.44 174.627 224.765C174.79 224.562 174.948 224.354 175.103 224.145C175.73 223.295 175.924 221.962 175.573 220.902C175.464 220.59 175.306 220.296 175.104 220.034C176.149 218.973 176.589 217.588 176.243 216.34C176.079 215.745 175.679 214.808 175.058 214.102C175.537 213.422 175.795 212.621 175.74 211.854C175.714 211.459 175.604 211.075 175.417 210.727C175.23 210.378 174.971 210.075 174.656 209.835C173.553 209.014 171.703 208.516 170.155 208.629C167.523 208.818 165.483 209.355 163.277 209.986C161.924 210.373 160.998 210.718 160.196 211.029C159.783 204.1 159.546 198.243 159.458 192.833C183.649 191.125 208.349 190.193 232.529 188.499ZM157.358 209.901C157.394 210.526 157.433 211.174 157.472 211.817C156.642 211.96 155.802 212.107 154.948 212.267C155.752 211.48 156.556 210.691 157.358 209.901ZM72.0042 233.095C72.2792 233.974 72.5625 234.832 72.8569 235.658C73.7687 238.22 74.9841 240.78 77.6834 242.147C79.2532 242.942 81.026 243.189 82.8515 243.189C84.0881 243.189 85.3497 243.076 86.5872 242.942C99.8395 241.517 113.297 239.181 122.588 236.696C122.943 236.601 123.245 236.369 123.429 236.051C123.612 235.733 123.662 235.355 123.567 235.001C123.472 234.646 123.24 234.344 122.922 234.16C122.604 233.977 122.227 233.927 121.872 234.022C112.711 236.473 99.4094 238.778 86.291 240.19C83.6442 240.474 80.8941 240.67 78.9358 239.678C77.1989 238.798 76.3194 237.133 75.4658 234.73C74.2079 231.197 73.118 227.111 72.2847 222.921C72.2999 222.686 72.2548 222.452 72.1537 222.24C71.4421 218.53 70.9336 214.762 70.6891 211.233C79.9103 208.704 89.1186 206.693 98.2199 205.231C98.218 206.149 98.2494 207.114 98.2808 208.055C98.3361 209.731 98.3952 211.462 98.2457 212.734C98.0981 214.026 98.1977 215.444 98.661 216.721C98.5675 216.788 98.4829 216.866 98.4091 216.954L92.5498 224.105C92.3298 224.39 92.2296 224.749 92.2705 225.107C92.3114 225.465 92.4901 225.793 92.7687 226.021C93.0474 226.249 93.404 226.36 93.7629 226.33C94.1218 226.299 94.4546 226.13 94.6908 225.858L100.226 219.105C100.752 219.584 101.39 219.982 102.166 220.256C103.041 220.565 103.957 220.664 104.865 220.664C105.729 220.664 106.585 220.575 107.389 220.49C116.664 219.487 125.94 218.484 135.216 217.49C138.754 217.109 142.193 215.768 145.163 213.612C147.207 212.126 149.39 210.808 151.7 209.413C152.257 209.076 152.817 208.737 153.394 208.385C153.999 208.006 154.642 207.628 155.269 207.538C155.446 207.515 155.609 207.527 155.737 207.553C155.636 207.69 155.462 207.89 155.165 208.175C154.259 209.067 153.352 209.956 152.443 210.845C151.511 211.758 150.578 212.669 149.649 213.586C149.434 213.797 149.295 214.073 149.251 214.372C149.207 214.67 149.262 214.974 149.408 215.238C149.553 215.503 149.78 215.712 150.055 215.835C150.33 215.958 150.638 215.988 150.932 215.921C153.706 215.282 156.526 214.781 159.16 214.335C159.201 214.329 159.237 214.313 159.276 214.304C159.301 214.296 159.328 214.296 159.353 214.288C159.899 214.113 160.395 213.92 160.935 213.71C161.741 213.398 162.656 213.042 164.037 212.648C166.166 212.039 167.982 211.561 170.353 211.39C171.318 211.319 172.495 211.678 172.974 212.027C172.998 212.096 172.95 212.385 172.697 212.648C172.503 212.848 172.408 213.094 172.358 213.347C172.332 213.359 172.304 213.364 172.279 213.377C172.238 213.398 172.203 213.426 172.165 213.451C172.149 213.456 172.133 213.457 172.117 213.462C170.223 214.154 168.29 214.791 166.361 215.359C164.638 215.879 162.854 216.365 160.915 216.845C159.214 217.258 157.404 217.646 155.384 218.03C155.025 218.101 154.709 218.311 154.505 218.614C154.301 218.917 154.224 219.288 154.293 219.647C154.361 220.006 154.568 220.323 154.87 220.53C155.171 220.737 155.542 220.816 155.901 220.75C157.802 220.392 159.694 219.987 161.574 219.535C163.446 219.075 165.305 218.567 167.151 218.012C169.144 217.426 171.117 216.776 173.068 216.063L173.086 216.054C173.258 216.296 173.469 216.695 173.575 217.078C173.656 217.373 173.418 217.859 173.021 218.208C172.48 218.685 171.706 218.996 170.825 219.327C165.538 221.311 160.084 222.875 154.151 224.11C153.791 224.185 153.476 224.4 153.275 224.707C153.074 225.014 153.003 225.388 153.078 225.748C153.153 226.107 153.367 226.422 153.675 226.623C153.982 226.825 154.356 226.895 154.716 226.821C160.788 225.556 166.376 223.953 171.798 221.918C172.111 221.801 172.418 221.679 172.721 221.551C172.868 221.612 172.913 221.684 172.94 221.76C173.033 222.018 172.949 222.389 172.875 222.502C172.609 222.862 171.8 223.961 171.261 224.185C165.613 226.536 162.783 227.2 156.596 228.125C156.413 228.147 156.236 228.206 156.075 228.298C155.915 228.39 155.774 228.513 155.662 228.66C155.55 228.807 155.469 228.975 155.423 229.155C155.377 229.334 155.367 229.52 155.395 229.703C155.422 229.886 155.486 230.062 155.582 230.22C155.678 230.377 155.805 230.514 155.955 230.622C156.105 230.73 156.276 230.807 156.456 230.848C156.636 230.89 156.823 230.894 157.005 230.862C163.347 229.915 166.45 229.187 172.325 226.741L172.341 226.732C172.337 226.773 172.336 226.806 172.327 226.85C172.118 227.86 171.486 228.832 171.225 229.003C164.521 233.407 158.185 233.557 150.85 233.731L148.89 233.78C145.679 233.871 143.307 233.476 141.008 233.097C137.492 232.516 134.17 231.966 129.03 233.461C128.68 233.566 128.387 233.805 128.213 234.125C128.039 234.445 127.998 234.822 128.1 235.172C128.201 235.522 128.437 235.818 128.755 235.995C129.074 236.173 129.45 236.217 129.801 236.119C134.338 234.801 137.082 235.256 140.557 235.829C142.649 236.174 144.993 236.561 147.988 236.561C148.306 236.561 148.634 236.557 148.967 236.548L150.914 236.499C153.745 236.431 156.433 236.366 159.065 236.077C159.173 237.835 159.27 239.522 159.354 241.13C150.964 242.209 143.6 243.239 135.148 244.719C134.848 244.772 134.573 244.923 134.367 245.148C134.161 245.373 134.035 245.66 134.009 245.963C133.983 246.267 134.057 246.571 134.222 246.828C134.386 247.085 134.631 247.281 134.917 247.385L156.616 255.218C132.758 268.944 102.361 271.571 72.652 262.418C72.3355 255.032 71.9968 242.431 72.0042 233.095ZM90.9726 288.321C90.7826 288.321 90.5972 288.262 90.4418 288.153C90.2863 288.044 90.1685 287.889 90.1042 287.71L88.3111 282.731C88.2283 282.501 88.2403 282.247 88.3446 282.026C88.4488 281.804 88.6368 281.633 88.8671 281.55C89.0974 281.468 89.3513 281.48 89.5727 281.584C89.7941 281.688 89.9651 281.876 90.0479 282.106L91.8411 287.084C91.8912 287.224 91.9071 287.373 91.8874 287.52C91.8677 287.667 91.813 287.807 91.7279 287.928C91.6427 288.049 91.5296 288.148 91.3982 288.217C91.2668 288.285 91.1208 288.321 90.9726 288.321ZM98.9923 283.524C98.8268 283.524 98.6644 283.48 98.522 283.395C98.3796 283.311 98.2625 283.19 98.183 283.045L95.7798 278.669C95.7187 278.562 95.6794 278.445 95.6642 278.323C95.649 278.201 95.6583 278.078 95.6915 277.96C95.7246 277.841 95.781 277.731 95.8574 277.635C95.9337 277.539 96.0284 277.459 96.136 277.4C96.2436 277.341 96.3619 277.304 96.4839 277.291C96.606 277.278 96.7293 277.29 96.8468 277.326C96.9643 277.361 97.0735 277.42 97.1681 277.498C97.2627 277.576 97.3407 277.672 97.3976 277.781L99.8007 282.157C99.8778 282.298 99.917 282.456 99.9144 282.616C99.9118 282.776 99.8675 282.933 99.786 283.071C99.7044 283.209 99.5883 283.323 99.4491 283.403C99.31 283.482 99.1525 283.524 98.9923 283.524ZM166.32 283.051C150.553 289.212 132.748 290.554 116.181 286.775C115.944 286.719 115.739 286.572 115.611 286.365C115.482 286.159 115.44 285.91 115.494 285.672C115.548 285.435 115.694 285.229 115.899 285.099C116.104 284.968 116.353 284.924 116.59 284.976C132.769 288.665 150.192 287.371 165.648 281.331C165.761 281.287 165.881 281.266 166.002 281.268C166.124 281.271 166.243 281.297 166.354 281.345C166.465 281.394 166.565 281.464 166.649 281.552C166.733 281.639 166.799 281.742 166.843 281.855C166.887 281.968 166.909 282.088 166.906 282.209C166.904 282.331 166.878 282.45 166.829 282.561C166.78 282.672 166.71 282.773 166.623 282.857C166.536 282.941 166.433 283.007 166.32 283.051ZM208.116 252.724C205.549 252.55 203.004 253.305 200.946 254.85C200.751 254.998 200.505 255.062 200.263 255.029C200.02 254.995 199.801 254.867 199.653 254.672C199.505 254.477 199.441 254.231 199.474 253.989C199.507 253.746 199.636 253.527 199.831 253.379C202.207 251.577 205.272 250.669 208.25 250.883C208.371 250.892 208.489 250.925 208.597 250.979C208.705 251.033 208.802 251.108 208.881 251.2C208.96 251.292 209.021 251.398 209.059 251.513C209.097 251.628 209.112 251.75 209.104 251.871C209.067 252.379 208.624 252.756 208.116 252.724ZM293.555 311.543C292.055 313.167 289.998 313.863 287.889 313.863C285.709 313.863 283.474 313.119 281.74 311.886C278.322 309.455 276.305 305.482 274.686 302.288C270.425 293.89 268.481 292.724 261.996 290.496C261.059 290.183 260.13 289.847 259.209 289.489C251.439 286.398 246.841 281.781 225.044 263.048C224.95 262.969 224.873 262.873 224.816 262.764C224.76 262.656 224.725 262.537 224.715 262.415C224.705 262.293 224.719 262.171 224.757 262.054C224.795 261.938 224.855 261.83 224.935 261.737C225.014 261.644 225.112 261.568 225.221 261.513C225.331 261.459 225.45 261.426 225.572 261.418C225.694 261.409 225.816 261.425 225.932 261.465C226.048 261.504 226.155 261.566 226.247 261.648C248.222 280.533 252.543 284.849 259.89 287.774C260.771 288.124 261.698 288.443 262.595 288.75C269.588 291.152 271.865 292.647 276.331 301.453C277.94 304.622 279.761 308.215 282.81 310.382C285.51 312.302 289.869 312.814 292.2 310.29C292.366 310.11 292.597 310.004 292.841 309.994C293.086 309.984 293.324 310.072 293.504 310.238C293.684 310.405 293.79 310.635 293.8 310.88C293.81 311.125 293.722 311.363 293.555 311.543ZM357.185 339.676C356.424 341.996 354.505 343.896 352.546 345.601C347.581 349.921 336.038 356.5 329.033 359.499C324.096 361.616 321.705 361.359 317.282 355.39C315.073 352.393 312.861 349.397 310.647 346.404C312.233 343.752 313.803 341.089 315.344 338.467C317.086 335.511 318.858 332.502 320.652 329.516C325.258 335.817 333.812 337.572 344.078 334.146C346.123 333.461 348.296 333.101 350.179 332.817C351.722 332.575 353.899 332.521 355.509 333.637C357.476 334.995 357.842 337.701 357.185 339.676Z" fill="white"/>
<path d="M199.413 222.616C203.692 222.383 207.028 219.768 206.865 216.777C206.702 213.786 203.1 211.55 198.821 211.784C194.543 212.017 191.206 214.632 191.37 217.624C191.533 220.615 195.135 222.851 199.413 222.616ZM93.9096 312.064L61.5513 311.641C61.3695 311.639 61.1891 311.672 61.0202 311.739C60.8513 311.807 60.6973 311.907 60.5671 312.033C60.4368 312.16 60.3328 312.312 60.261 312.479C60.1892 312.646 60.151 312.825 60.1486 313.007L59.9142 330.962C59.9117 331.144 59.9451 331.324 60.0125 331.493C60.0798 331.662 60.1797 331.816 60.3065 331.946C60.4334 332.077 60.5846 332.181 60.7517 332.252C60.9187 332.324 61.0982 332.362 61.28 332.365L87.1275 332.703C88.2903 338.62 88.6059 340.566 89.4568 343.816C89.5526 344.168 89.7835 344.468 90.0993 344.651C90.4151 344.833 90.7903 344.884 91.1433 344.792C91.4963 344.699 91.7985 344.471 91.9842 344.157C92.1699 343.843 92.2241 343.468 92.1349 343.114C91.321 340.007 90.9906 338.018 89.957 332.74L93.6392 332.788L93.9096 312.064ZM270.659 388.273C269.941 383.189 268.872 376.695 267.598 369.483C265.974 357.281 263.674 345.177 260.708 333.23C259.762 328.518 258.795 323.81 257.809 319.106C246.635 307.063 234.106 297.171 221.898 290.853C214.323 286.931 211.344 287.403 205.115 296.619C212.196 321.862 225.832 364.851 229.806 389.931C229.853 390.232 229.999 390.509 230.221 390.719C230.442 390.929 230.727 391.06 231.03 391.091C231.138 391.103 231.252 391.11 231.361 391.121C231.273 391.308 231.228 391.513 231.231 391.721C231.316 396.278 231.774 398.779 232.408 402.239C233.093 405.984 233.753 410.758 235.354 415.337C235.484 415.671 235.739 415.941 236.065 416.091C236.391 416.241 236.763 416.259 237.101 416.14C237.44 416.022 237.719 415.777 237.881 415.456C238.042 415.136 238.073 414.766 237.967 414.423C237.137 412.047 236.321 408.697 235.787 405.46C234.85 399.786 234.107 397.428 233.999 391.67C233.996 391.562 233.98 391.454 233.952 391.35C242.102 391.955 250.737 391.668 258.914 390.971C260.431 406.032 276.439 408.262 280.342 410.11C282.459 411.126 283.838 412.547 284.126 414.009C284.494 415.888 283.055 417.803 281.464 418.868C277.002 421.862 271.25 421.065 255.524 421.211C250.414 421.235 245.545 421.045 242.091 418.601C241.718 418.337 241.366 418.045 241.037 417.73C240.768 417.493 240.418 417.37 240.06 417.385C239.702 417.401 239.364 417.555 239.118 417.815C238.871 418.074 238.734 418.419 238.736 418.778C238.738 419.136 238.879 419.479 239.129 419.736C239.579 420.163 240.04 420.543 240.496 420.864C244.715 423.851 250.297 424.002 255.529 423.979C272.046 423.952 278.01 424.519 283.005 421.168C285.875 419.248 287.382 416.228 286.843 413.476C286.215 410.289 283.251 408.435 281.533 407.61C276.756 405.352 262.997 403.744 261.669 390.716C264.204 390.469 266.798 390.18 269.464 389.839C269.645 389.816 269.821 389.756 269.98 389.665C270.138 389.573 270.277 389.451 270.388 389.306C270.5 389.16 270.581 388.994 270.627 388.816C270.674 388.639 270.684 388.454 270.659 388.273ZM227.73 332.523C227.275 332.892 226.711 333.084 226.106 333.084C223.729 333.084 221.971 330.568 223.252 327.35C223.96 325.574 225.553 323.753 225.28 323.259C225.21 323.133 224.892 323.006 224.611 322.894C224.199 322.73 223.732 322.544 223.337 322.163C221.427 320.317 224.003 317.043 223.149 316.249C222.818 315.942 221.898 315.979 221.085 315.618C219.556 314.94 218.968 313.227 219.063 311.831C219.157 310.476 219.767 309.292 220.306 308.247C220.418 308.029 220.612 307.865 220.845 307.791C221.078 307.716 221.331 307.737 221.549 307.849C221.766 307.961 221.93 308.155 222.005 308.388C222.08 308.621 222.059 308.875 221.946 309.092C221.467 310.021 220.972 310.982 220.905 311.958C220.854 312.711 221.155 313.63 221.832 313.931C222.454 314.206 223.567 314.117 224.406 314.897C226.387 316.738 223.753 319.998 224.62 320.835C225.022 321.224 226.298 321.287 226.896 322.367C227.893 324.174 225.792 325.961 224.967 328.033C224.451 329.33 224.547 330.981 225.902 331.22C226.091 331.253 226.361 331.257 226.569 331.089C226.663 331.012 226.772 330.955 226.888 330.921C227.004 330.886 227.126 330.875 227.247 330.887C227.367 330.9 227.484 330.936 227.591 330.994C227.697 331.052 227.791 331.13 227.868 331.224C227.944 331.318 228.001 331.427 228.036 331.543C228.07 331.659 228.081 331.781 228.068 331.902C228.056 332.022 228.019 332.139 227.961 332.246C227.904 332.352 227.824 332.446 227.73 332.523ZM247.21 369.026C246.999 369.026 246.794 368.954 246.63 368.821C246.466 368.689 246.352 368.504 246.308 368.297L239.885 338.485C239.834 338.246 239.879 337.996 240.012 337.79C240.145 337.585 240.354 337.44 240.594 337.389C240.833 337.338 241.083 337.383 241.289 337.516C241.494 337.649 241.639 337.858 241.69 338.098L248.113 367.909C248.142 368.044 248.141 368.183 248.109 368.317C248.077 368.451 248.015 368.576 247.928 368.684C247.841 368.791 247.732 368.877 247.607 368.936C247.483 368.995 247.347 369.026 247.209 369.026L247.21 369.026ZM261.747 358.458C261.57 358.917 260.931 359.961 261.027 360.116C261.091 360.22 261.135 360.335 261.154 360.455C261.174 360.575 261.17 360.697 261.142 360.816C261.114 360.934 261.063 361.046 260.992 361.145C260.921 361.244 260.831 361.327 260.727 361.391C260.623 361.455 260.508 361.497 260.388 361.516C260.268 361.535 260.145 361.53 260.026 361.501C259.908 361.473 259.797 361.421 259.699 361.349C259.6 361.277 259.517 361.187 259.454 361.082C258.837 360.078 259.38 359.056 259.739 358.379C260.135 357.635 260.478 357.003 259.502 355.21C258.898 354.101 258.159 353.064 257.972 351.703C257.742 350.024 258.737 348.172 260.439 347.976C260.682 347.948 260.926 348.018 261.118 348.17C261.31 348.322 261.433 348.544 261.461 348.788C261.489 349.031 261.419 349.275 261.267 349.467C261.115 349.658 260.893 349.782 260.649 349.81C260.054 349.877 259.711 350.793 259.8 351.452C259.932 352.412 260.583 353.332 261.123 354.327C261.997 355.931 262.201 357.282 261.747 358.458ZM91.9698 155.402C88.6567 156.767 85.8669 159.403 84.3146 162.634C83.3641 164.611 82.8943 166.716 82.4412 168.752C81.7583 171.805 80.9462 175.369 78.4406 177.316C77.4079 178.12 77.9727 179.793 79.2915 179.793C79.5887 179.793 79.8886 179.698 80.1405 179.502C82.8888 177.364 84.0129 173.963 84.6192 171.59C85.3085 168.897 85.6842 166.175 86.8101 163.833C88.0979 161.184 90.3079 159.096 93.0255 157.961C93.3599 157.817 93.6243 157.548 93.7617 157.211C93.8991 156.874 93.8983 156.497 93.7595 156.161C93.6208 155.824 93.3552 155.556 93.0203 155.414C92.6854 155.272 92.308 155.268 91.9698 155.402ZM131.092 197.951C131.458 197.975 131.819 197.852 132.095 197.61C132.37 197.368 132.539 197.026 132.563 196.66L132.828 192.607C132.847 192.318 132.774 192.03 132.621 191.784C132.468 191.538 132.241 191.347 131.973 191.236C131.56 191.059 131.2 190.778 130.928 190.42C130.656 190.062 130.481 189.64 130.421 189.195C130.374 188.748 130.444 188.297 130.623 187.885C130.802 187.473 131.085 187.115 131.443 186.844C131.593 186.739 131.72 186.604 131.818 186.448C131.915 186.293 131.981 186.119 132.01 185.938C132.04 185.757 132.034 185.572 131.991 185.394C131.949 185.215 131.871 185.047 131.763 184.899C131.655 184.75 131.518 184.625 131.361 184.53C131.204 184.435 131.03 184.372 130.849 184.345C130.667 184.318 130.482 184.327 130.304 184.372C130.126 184.417 129.959 184.497 129.813 184.607C128.286 185.721 127.445 187.653 127.672 189.526C127.856 191.057 128.739 192.455 130.008 193.307L129.801 196.48C129.789 196.661 129.813 196.843 129.871 197.016C129.93 197.188 130.022 197.347 130.142 197.483C130.262 197.62 130.408 197.731 130.571 197.812C130.734 197.892 130.91 197.939 131.092 197.951ZM106.617 259.791C105.519 259.089 104.638 258.095 104.074 256.92C103.996 256.756 103.886 256.609 103.751 256.487C103.616 256.365 103.459 256.271 103.288 256.21C103.116 256.149 102.935 256.122 102.753 256.132C102.571 256.141 102.393 256.186 102.229 256.264C102.065 256.342 101.918 256.452 101.796 256.587C101.674 256.721 101.58 256.879 101.519 257.05C101.458 257.222 101.432 257.403 101.441 257.585C101.45 257.766 101.495 257.944 101.573 258.109C102.357 259.758 103.591 261.152 105.133 262.13C105.287 262.227 105.458 262.293 105.637 262.324C105.816 262.356 106 262.351 106.177 262.312C106.355 262.272 106.522 262.198 106.671 262.093C106.82 261.989 106.946 261.856 107.044 261.702C107.141 261.549 107.207 261.378 107.239 261.199C107.27 261.02 107.265 260.836 107.226 260.659C107.186 260.481 107.112 260.313 107.007 260.165C106.903 260.016 106.77 259.889 106.616 259.792L106.617 259.791ZM92.9877 256.551C92.7547 256.267 92.4185 256.087 92.053 256.052C91.6876 256.016 91.3228 256.126 91.0391 256.359C90.7553 256.592 90.5757 256.929 90.5397 257.294C90.5038 257.66 90.6146 258.024 90.8476 258.308L95.1721 263.579C95.287 263.719 95.4287 263.836 95.589 263.922C95.7493 264.008 95.925 264.062 96.1061 264.08C96.2871 264.098 96.4699 264.08 96.644 264.027C96.818 263.974 96.9799 263.887 97.1203 263.771C97.4039 263.539 97.5835 263.203 97.6197 262.838C97.6559 262.473 97.5456 262.108 97.3131 261.824L92.9877 256.551ZM348.49 339.666L341.652 340.367C341.291 340.41 340.961 340.592 340.734 340.876C340.506 341.16 340.4 341.521 340.437 341.883C340.474 342.245 340.652 342.577 340.932 342.809C341.212 343.04 341.572 343.152 341.934 343.121L348.773 342.419C349.135 342.378 349.466 342.195 349.694 341.911C349.921 341.627 350.028 341.265 349.991 340.903C349.954 340.541 349.775 340.208 349.494 339.976C349.214 339.745 348.853 339.633 348.49 339.666Z" fill="white"/>
<path d="M243.396 404.611C243.03 404.589 242.67 404.712 242.395 404.955C242.119 405.197 241.951 405.539 241.927 405.905C241.746 408.914 242.455 411.91 243.967 414.519C244.223 414.96 244.687 415.206 245.163 415.206C246.221 415.206 246.898 414.05 246.357 413.124C245.121 410.991 244.542 408.541 244.69 406.08C244.702 405.899 244.678 405.717 244.619 405.545C244.56 405.373 244.468 405.214 244.348 405.078C244.228 404.941 244.082 404.83 243.918 404.75C243.755 404.67 243.578 404.623 243.396 404.611ZM46.3444 84.1881L46.4819 84.1908C48.7087 84.1908 50.5591 82.3756 50.6347 80.0823C50.6769 78.9696 50.2828 77.8844 49.5365 77.058C49.1602 76.6403 48.7027 76.3037 48.1919 76.0687L48.5897 64.1638C48.5985 63.9805 48.5708 63.7973 48.5082 63.6248C48.4456 63.4523 48.3493 63.2939 48.225 63.159C48.1006 63.024 47.9506 62.9151 47.7838 62.8387C47.6169 62.7622 47.4366 62.7197 47.2532 62.7136C47.0697 62.7074 46.8869 62.7379 46.7154 62.803C46.5438 62.8682 46.3869 62.9669 46.2538 63.0932C46.1208 63.2196 46.0141 63.3711 45.9401 63.5391C45.8662 63.7071 45.8263 63.8881 45.823 64.0715L45.4289 75.862C44.5617 76.106 43.7947 76.6197 43.2389 77.3287C42.6831 78.0376 42.3673 78.9051 42.3373 79.8054C42.3057 80.8024 42.6247 81.7788 43.2389 82.5648L36.4651 88.8984C36.3323 89.0226 36.2253 89.1717 36.1501 89.3373C36.0749 89.5029 36.0331 89.6817 36.027 89.8635C36.0209 90.0452 36.0507 90.2264 36.1146 90.3967C36.1786 90.5669 36.2754 90.7229 36.3996 90.8557C36.5238 90.9886 36.673 91.0956 36.8386 91.1708C37.0042 91.246 37.183 91.2878 37.3647 91.2939C37.5465 91.3 37.7277 91.2702 37.8979 91.2063C38.0682 91.1423 38.2242 91.0455 38.357 90.9213L45.6541 84.0958C45.8811 84.1419 46.109 84.1807 46.3444 84.1881ZM31.095 42.161C31.2636 42.0868 31.4158 41.9798 31.5425 41.8461C31.6693 41.7124 31.768 41.5548 31.8331 41.3824C31.8981 41.21 31.9281 41.0265 31.9212 40.8424C31.9144 40.6583 31.8709 40.4774 31.7933 40.3103C31.7156 40.1433 31.6054 39.9934 31.4691 39.8695C31.3328 39.7456 31.1732 39.6501 30.9995 39.5887C30.8258 39.5272 30.6417 39.5011 30.4577 39.5118C30.2738 39.5224 30.0939 39.5697 29.9285 39.6508C15.7321 46.24 5.71817 61.1738 5.01033 76.8098C5.00209 76.9914 5.0297 77.1729 5.09159 77.3438C5.15347 77.5147 5.24842 77.6718 5.371 77.806C5.49359 77.9403 5.64142 78.0491 5.80604 78.1262C5.97067 78.2033 6.14888 78.2472 6.33048 78.2555C6.51209 78.2637 6.69354 78.2361 6.86448 78.1742C7.03541 78.1123 7.19248 78.0174 7.32673 77.8948C7.46097 77.7722 7.56976 77.6244 7.64687 77.4597C7.72398 77.2951 7.7679 77.1169 7.77614 76.9353C8.43876 62.3033 17.8095 48.3275 31.095 42.161ZM11.8515 41.491C12.0028 41.3857 12.1316 41.2514 12.2302 41.0957C12.3289 40.9401 12.3955 40.7663 12.4261 40.5846C12.4568 40.4028 12.4508 40.2168 12.4086 40.0374C12.3664 39.858 12.2888 39.6889 12.1803 39.5399C12.0719 39.3909 11.9348 39.265 11.7771 39.1697C11.6193 39.0744 11.4442 39.0116 11.2618 38.9848C11.0795 38.9581 10.8936 38.9681 10.7152 39.0141C10.5367 39.0602 10.3693 39.1414 10.2227 39.253C5.29363 42.853 1.7128 48.0006 0.0517998 53.8739C-0.0476943 54.2274 -0.00271448 54.6058 0.176846 54.9261C0.356406 55.2464 0.655836 55.4822 1.00927 55.5817C1.3627 55.6812 1.74117 55.6362 2.06144 55.4566C2.38171 55.2771 2.61753 54.9776 2.71702 54.6242C4.20886 49.3488 7.42475 44.7251 11.8515 41.491ZM18.9898 314.568C19.3402 314.476 19.6407 314.251 19.827 313.94C20.0132 313.629 20.0703 313.258 19.986 312.906C19.9017 312.554 19.6828 312.249 19.3761 312.056C19.0695 311.863 18.6996 311.799 18.3457 311.876C8.424 314.252 1.25429 324.793 2.69026 334.893C2.7134 335.075 2.77247 335.25 2.86407 335.409C2.95566 335.568 3.07794 335.707 3.22379 335.819C3.36964 335.93 3.53617 336.011 3.71367 336.057C3.89118 336.104 4.07614 336.114 4.25779 336.089C4.43943 336.063 4.61415 336.001 4.77178 335.907C4.92941 335.814 5.0668 335.689 5.17598 335.542C5.28516 335.394 5.36394 335.227 5.40775 335.049C5.45156 334.87 5.45951 334.685 5.43115 334.504C4.18714 325.755 10.3961 316.625 18.9898 314.568ZM38.0386 163.676C37.6946 163.549 37.3142 163.563 36.9808 163.716C36.6473 163.869 36.3879 164.147 36.2593 164.491C23.7084 198.275 25.7886 237.714 41.8214 269.991C41.9002 270.157 42.0113 270.306 42.1483 270.428C42.2853 270.551 42.4454 270.646 42.6192 270.706C42.7931 270.766 42.9772 270.791 43.1608 270.779C43.3444 270.768 43.5238 270.719 43.6885 270.637C43.8533 270.556 44.0001 270.442 44.1203 270.302C44.2405 270.163 44.3317 270.001 44.3887 269.826C44.4457 269.651 44.4672 269.467 44.452 269.284C44.4368 269.1 44.3852 268.922 44.3002 268.759C28.6014 237.154 26.5656 198.536 38.8553 165.455C38.9186 165.285 38.9476 165.104 38.9407 164.922C38.9339 164.74 38.8913 164.562 38.8155 164.396C38.7397 164.231 38.632 164.083 38.4987 163.959C38.3654 163.835 38.2091 163.739 38.0386 163.676ZM13.2358 188.999C13.0667 188.933 12.8861 188.9 12.7044 188.903C12.5227 188.907 12.3434 188.946 12.1768 189.018C12.0102 189.091 11.8595 189.196 11.7334 189.327C11.6073 189.457 11.5082 189.612 11.4417 189.781C5.24197 205.551 5.2392 223.641 11.4325 239.412C11.4974 239.584 11.5957 239.74 11.7217 239.874C11.8476 240.007 11.9987 240.113 12.1662 240.187C12.3337 240.262 12.5143 240.302 12.6974 240.306C12.8806 240.31 13.0627 240.277 13.2332 240.21C13.4037 240.143 13.5592 240.043 13.6908 239.916C13.8223 239.788 13.9271 239.636 13.9993 239.467C14.0715 239.299 14.1095 239.118 14.1112 238.935C14.1129 238.751 14.0782 238.57 14.0092 238.4C8.0687 223.272 8.07146 205.92 14.0184 190.793C14.1524 190.452 14.1453 190.071 13.9985 189.734C13.8518 189.398 13.5774 189.133 13.2358 188.999ZM86.6863 420.374C86.6863 420.006 86.5405 419.654 86.2809 419.395C86.0213 419.135 85.6692 418.989 85.302 418.989H67.6403C68.5779 413.213 67.3902 406.967 64.1021 400.387C67.3856 396.515 71.7249 393.671 75.767 390.346C79.3182 387.426 84.2011 382.82 85.601 376.582C85.6408 376.405 85.6453 376.221 85.6141 376.042C85.583 375.863 85.5168 375.691 85.4195 375.538C85.3221 375.384 85.1954 375.251 85.0467 375.147C84.898 375.042 84.7301 374.968 84.5527 374.928C84.1944 374.849 83.8195 374.915 83.5096 375.111C83.1998 375.308 82.9802 375.619 82.8989 375.977C82.1689 379.233 80.2411 382.347 76.9215 385.602C76.9073 385.421 76.8574 385.245 76.7748 385.083C72.8019 377.338 74.0459 366.44 81.7066 359.601C83.8328 357.71 86.3486 356.086 88.7812 354.516C89.5417 354.024 90.3012 353.533 91.0515 353.034C91.6788 352.611 92.3996 352.347 93.1519 352.264C93.9041 352.181 94.6651 352.282 95.3695 352.559C96.0939 352.833 96.7407 353.28 97.2545 353.859C97.7683 354.439 98.1336 355.135 98.319 355.887C98.487 356.556 98.6632 357.225 98.8386 357.896C99.8325 361.687 100.645 364.803 100.544 368.441C100.443 374.32 98.2511 379.971 94.3604 384.379C90.4697 388.788 85.1353 391.665 79.3145 392.496C79.133 392.52 78.9581 392.579 78.7998 392.671C78.6415 392.763 78.503 392.885 78.3923 393.031C78.2816 393.177 78.2009 393.343 78.1549 393.52C78.1088 393.697 78.0984 393.882 78.1241 394.063C78.1499 394.244 78.2113 394.419 78.3049 394.576C78.3984 394.733 78.5222 394.87 78.6692 394.979C78.8161 395.089 78.9832 395.168 79.1608 395.212C79.3384 395.256 79.523 395.264 79.704 395.237C94.5556 393.12 104.881 379.483 103.147 364.841C102.763 361.568 101.795 358.357 101.004 355.208C100.704 354.029 100.127 352.939 99.3197 352.029C98.5126 351.118 97.4992 350.414 96.3644 349.976C94.0609 349.09 91.5655 349.366 89.5167 350.73C88.7785 351.222 88.0291 351.705 87.2788 352.19C84.7585 353.818 82.1523 355.5 79.8645 357.535C79.2443 358.085 78.65 358.663 78.0834 359.268C71.4776 366.341 69.8921 377.728 74.3108 386.347C74.5212 386.756 74.9069 387.013 75.3287 387.079C73.8918 388.347 72.6238 389.333 70.6433 390.865C67.9116 392.978 65.1024 395.156 62.7067 397.775C56.8733 387.633 47.0384 379.56 41.0259 369.555C36.5962 362.182 33.6606 351.329 38.7095 342.982C38.8996 342.668 38.9571 342.291 38.8693 341.935C38.7816 341.578 38.5558 341.271 38.2416 341.081C37.9275 340.891 37.5507 340.834 37.1942 340.922C36.8377 341.009 36.5306 341.235 36.3406 341.549C30.6548 350.949 33.8073 362.916 38.6532 370.981C39.5109 372.398 40.4275 373.778 41.4006 375.118C39.5835 374.353 37.903 373.729 36.4836 373.046C35.4158 372.534 34.3167 372.055 33.2536 371.593C30.2543 370.289 27.4229 369.057 25.1176 367.058C20.9112 363.414 19.3027 357.834 18.6936 353.795C17.3647 344.981 19.5629 335.432 24.7273 327.595C27.0972 323.999 31.8028 322.966 35.4389 325.243C38.7003 327.285 43.3866 333.37 48.885 338.623C50.4705 340.138 52.1095 341.705 53.024 343.333C58.6194 353.288 55.7714 365.269 46.7929 371.403C46.6428 371.505 46.5144 371.637 46.415 371.789C46.3155 371.941 46.2471 372.111 46.2135 372.29C46.1799 372.469 46.1818 372.652 46.2192 372.83C46.2565 373.008 46.3285 373.177 46.4311 373.327C46.5337 373.477 46.6649 373.606 46.8171 373.705C46.9693 373.804 47.1396 373.873 47.3183 373.906C47.497 373.94 47.6805 373.938 47.8584 373.901C48.0364 373.863 48.2052 373.791 48.3553 373.689C58.3868 366.835 61.8032 353.302 55.4373 341.976C54.3207 339.988 52.5303 338.276 50.7981 336.621C48.3414 334.275 49.5772 335.405 41.9645 327.398C40.4528 325.795 38.8895 324.137 36.9072 322.896C31.9837 319.815 25.6178 321.209 22.4155 326.071C16.8802 334.471 14.525 344.727 15.9555 354.207C16.6347 358.708 18.4601 364.953 23.3042 369.151C25.9298 371.427 29.0915 372.802 32.1498 374.132C36.1901 375.89 34.911 375.475 38.6219 376.969C41.4034 378.089 44.2679 379.242 46.1967 381.195C51.7616 387.782 57.0431 393.159 60.8111 400.072C58.3582 403.374 56.6878 407.055 55.8369 410.983C53.6156 409.454 51.2411 408.178 48.8998 406.965C49.1166 405.23 48.7577 404.462 47.7739 402.932C47.4878 402.48 47.2109 402.056 47.0817 401.677C44.9222 395.31 40.7878 389.551 35.4629 385.463C31.5777 382.473 27.8678 381.217 24.4255 381.716C19.7466 382.39 15.7875 386.708 15.2153 391.747C14.7078 396.186 16.6919 401.022 20.3834 404.363C27.1553 410.486 36.5814 410.547 45.5129 410.002C46.4487 410.279 47.2995 409.986 47.7831 409.503C50.4686 410.904 53.012 412.295 55.3413 414.044C55.1715 415.687 55.136 417.341 55.2352 418.989H45.691C45.3238 418.989 44.9717 419.135 44.7121 419.395C44.4525 419.654 44.3067 420.006 44.3067 420.374C44.3067 420.741 44.4525 421.093 44.7121 421.352C44.9717 421.612 45.3238 421.758 45.691 421.758H85.302C85.6692 421.758 86.0213 421.612 86.2809 421.352C86.5405 421.093 86.6863 420.741 86.6863 420.374ZM19.8389 396.785L19.6912 396.776C19.5699 396.773 19.4504 396.746 19.3396 396.696C19.2289 396.646 19.129 396.575 19.0458 396.487C18.9626 396.399 18.8977 396.295 18.8548 396.181C18.812 396.068 18.792 395.947 18.796 395.825C18.8145 395.318 19.2205 394.903 19.7466 394.93L19.9035 394.939C20.411 394.958 20.8079 395.382 20.7894 395.89C20.771 396.388 20.3649 396.785 19.8666 396.785H19.8389ZM39.948 405.46C31.7835 405.819 31.1467 405.866 30.461 405.866C29.3259 405.866 27.4156 405.663 26.6957 404.039C26.5388 403.679 26.4835 403.328 26.4281 403.015C26.2952 402.294 26.3617 402.078 24.7485 401.852C24.3886 401.796 24.0194 401.741 23.6595 401.639C21.6846 401.113 20.2726 399.175 20.3741 397.136C20.4018 396.628 20.8263 396.241 21.3431 396.259C21.8507 396.287 22.2475 396.721 22.2198 397.228C22.1645 398.382 23.0227 399.563 24.1394 399.858C24.4163 399.932 24.7208 399.978 25.0161 400.024C26.9431 400.316 27.9564 400.776 28.2461 402.71C28.283 402.931 28.32 403.144 28.3846 403.291C28.6245 403.836 29.492 404.076 30.9686 404.011L39.865 403.614C40.834 403.562 41.2068 404.875 40.3356 405.349C40.2249 405.414 40.0864 405.451 39.948 405.46ZM64.8339 418.989H63.2743C62.1087 416.749 60.4078 414.632 58.3028 412.834C58.8873 409.272 60.2241 405.875 62.224 402.871C64.868 408.625 65.7475 414.034 64.8339 418.989ZM57.965 416.32C58.7679 417.162 59.4767 418.058 60.0765 418.989H58.0075C57.9508 418.101 57.9366 417.21 57.965 416.32Z" fill="white"/>
<path d="M467.625 275.225C446.177 268.703 424.554 262.769 402.781 257.428C404.036 253.347 405.306 249.195 406.592 245.216C410.85 243.984 412.562 237.73 408.326 232.767C406.698 230.844 404.557 229.514 402.675 228.466C398.701 226.261 395.031 224.789 390.772 223.695C388.332 223.068 385.195 222.406 382.558 222.823C379.516 223.301 376.947 224.986 375.688 227.328C374.488 229.546 374.147 233.636 375.947 235.896C371.98 246.517 368.687 257.377 366.087 268.412C363.595 268.469 360.633 270.822 359.881 273.143C359.111 275.518 359.852 278.325 361.818 280.47C363.268 282.049 365.101 282.961 366.989 283.904C361.222 283.922 355.989 284.144 351.852 284.56C343.924 285.358 342.3 286.517 342.254 288.128C342.252 288.159 342.251 288.189 342.25 288.22C340.51 292.015 339.029 295.886 337.484 299.599C337.155 300.388 337.002 301.239 337.037 302.094C337.071 302.948 337.291 303.785 337.682 304.545C338.076 305.313 338.633 305.986 339.314 306.516C339.995 307.047 340.784 307.422 341.625 307.616C365.092 313.066 389.499 312.902 413.516 308.727C414.391 308.576 415.219 308.229 415.939 307.71C416.659 307.191 417.25 306.514 417.669 305.732C418.096 304.946 418.338 304.072 418.377 303.178C418.416 302.284 418.249 301.393 417.891 300.573C417.545 299.775 417.198 298.964 416.852 298.152C415.721 295.505 414.552 292.767 413.384 290.467C413.333 290.367 413.259 290.288 413.189 290.206C413.225 288.961 413.155 287.118 397.114 285.57C397.529 283.555 396.828 281.313 395.225 280.101C396.543 276.672 397.85 272.957 399.271 268.608C418.055 277.344 438.463 282.901 458.221 288.272L460.236 288.821C463.368 289.673 466.71 290.213 469.806 289.23C473.268 288.126 476.189 284.447 475.018 280.733C474.016 277.55 470.718 276.162 467.625 275.224V275.225ZM457.192 275.341C456.424 276.149 454.456 281.515 454.333 284.344C435.845 279.298 416.952 273.891 399.599 265.711C399.519 263.716 400.234 261.289 401.843 260.048C420.505 264.622 439.056 269.633 457.482 275.078C457.384 275.161 457.286 275.242 457.192 275.341ZM378.462 237.097C384.664 238.302 391.866 241.061 399.896 245.326C400.102 245.437 400.325 245.488 400.544 245.488C401.98 245.488 402.466 243.557 401.194 242.881C392.708 238.373 385.064 235.476 378.478 234.271C378.38 234.253 378.28 234.247 378.18 234.251C377.163 233.168 377.251 230.259 378.124 228.643C378.978 227.055 380.796 225.902 382.99 225.558C385.124 225.217 387.903 225.817 390.084 226.376C394.104 227.41 397.573 228.8 401.33 230.886C402.992 231.812 404.873 232.972 406.216 234.559C409.299 238.172 407.988 242.33 405.355 242.652C405.094 242.684 404.847 242.79 404.644 242.957C404.44 243.124 404.289 243.346 404.207 243.597C402.856 247.742 401.533 252.065 400.221 256.332C391.549 254.031 383.052 251.115 374.796 247.605C375.944 244.077 377.167 240.573 378.462 237.097ZM377.791 291.966C361.835 291.492 350.201 289.537 346.211 288.222C349.709 287.303 359.048 286.411 373.487 286.736C375.493 287.445 377.421 287.996 379.404 288.56C380.533 288.881 381.675 289.206 382.856 289.57C384.819 290.173 387.025 290.851 389.325 290.851C389.515 290.851 389.705 290.845 389.896 290.836C392.277 290.716 394.383 289.741 395.736 288.222C402.868 288.878 406.943 289.618 408.993 290.177C404.798 291.248 393.509 292.436 377.791 291.966ZM393.071 282.058C394.345 282.465 394.823 284.432 394.179 285.674C393.477 287.03 391.742 287.972 389.756 288.071C387.232 288.193 385.154 287.317 380.162 285.898C371.026 283.299 369.094 281.78 368.125 281.377C366.495 280.563 364.957 279.793 363.857 278.598C362.585 277.21 362.058 275.404 362.514 273.997C363.003 272.487 365.587 270.798 366.547 271.25C366.704 271.324 366.873 271.359 367.042 271.371C374.56 275.116 379.883 276.813 387.605 278.785C387.783 278.835 387.968 278.849 388.151 278.826C388.334 278.802 388.511 278.743 388.67 278.651C388.83 278.558 388.97 278.435 389.081 278.288C389.192 278.141 389.273 277.973 389.319 277.795C389.365 277.616 389.374 277.43 389.347 277.248C389.32 277.065 389.256 276.89 389.16 276.732C389.064 276.575 388.938 276.438 388.789 276.33C388.639 276.222 388.469 276.145 388.29 276.103C380.93 274.224 375.806 272.599 368.768 269.135C369.548 265.821 370.392 262.522 371.299 259.24C372.844 260.694 375.742 261.467 377.378 262.172C380.726 263.615 384.149 264.88 387.631 265.961C388.652 266.279 394.003 267.14 396.58 267.927C395.041 272.632 393.636 276.582 392.205 280.234C392.136 280.41 392.103 280.599 392.11 280.788C392.117 280.977 392.162 281.163 392.243 281.334C392.325 281.505 392.44 281.657 392.583 281.782C392.725 281.906 392.892 282 393.072 282.058H393.071ZM468.967 286.593C466.424 287.399 463.578 286.85 461.107 286.187C460.827 282.808 462.046 279.711 464.061 277.045C464.98 277.322 465.903 277.595 466.821 277.874C469.224 278.602 471.763 279.609 472.378 281.565C473.023 283.613 471.108 285.909 468.967 286.593ZM179.063 0C173.211 0 168.45 4.76104 168.45 10.6129V40.8135C168.45 46.6654 173.211 51.4264 179.063 51.4264H211.988C217.841 51.4264 222.601 46.6654 222.601 40.8135V10.6129C222.601 4.76104 217.841 0 211.988 0H179.063ZM205.771 3.8714C206.832 3.24478 208.673 3.71821 209.328 5.09328C210.072 6.65937 208.998 8.83732 207.007 8.83732C206.042 8.83732 205.073 8.31867 204.616 7.44749C203.917 6.11396 204.619 4.3559 205.771 3.8714ZM190.173 35.4794C189.098 36.7456 187.476 37.5558 185.696 37.7524V39.6858C185.696 39.9306 185.599 40.1653 185.426 40.3384C185.253 40.5114 185.018 40.6087 184.773 40.6087C184.528 40.6087 184.294 40.5114 184.12 40.3384C183.947 40.1653 183.85 39.9306 183.85 39.6858V37.7386C182.241 37.5392 180.601 36.8748 179.063 35.7895C178.872 35.6451 178.744 35.432 178.707 35.1951C178.67 34.9582 178.727 34.7162 178.865 34.5203C179.003 34.3244 179.212 34.1901 179.448 34.1457C179.684 34.1013 179.927 34.1503 180.127 34.2825C183.671 36.7834 187.123 36.2214 188.765 34.2852C189.733 33.1436 189.948 31.4594 189.277 30.28C187.36 26.9125 180.149 28.4149 178.234 23.6594C177.08 20.7939 179.267 16.8598 183.363 16.4029V13.8761C183.363 13.6314 183.46 13.3967 183.633 13.2236C183.806 13.0505 184.041 12.9533 184.286 12.9533C184.531 12.9533 184.765 13.0505 184.938 13.2236C185.111 13.3967 185.209 13.6314 185.209 13.8761V16.414C186.793 16.6069 188.459 17.2354 190.095 18.2994C190.3 18.4328 190.444 18.6423 190.495 18.8817C190.546 19.1212 190.499 19.371 190.366 19.5762C190.3 19.6778 190.215 19.7654 190.115 19.834C190.015 19.9026 189.902 19.9509 189.784 19.9761C189.544 20.0269 189.294 19.9805 189.089 19.8471C187.775 18.9943 185.199 17.6691 182.698 18.3963C180.778 18.9547 179.224 21.1778 179.946 22.97C180.613 24.6256 182.71 25.351 184.672 25.842C186.739 26.3588 189.571 27.0666 190.881 29.3673C191.94 31.2259 191.648 33.7398 190.173 35.4794ZM198.765 3.57978C199.835 2.94762 201.671 3.43305 202.321 4.80165C203.063 6.36498 201.995 8.5457 200 8.5457C199.036 8.5457 198.067 8.02705 197.61 7.15587C196.911 5.82234 197.613 4.06429 198.765 3.57978ZM205.305 38.0025V39.6858C205.305 39.9306 205.208 40.1653 205.035 40.3384C204.861 40.5114 204.627 40.6087 204.382 40.6087C204.137 40.6087 203.902 40.5114 203.729 40.3384C203.556 40.1653 203.459 39.9306 203.459 39.6858V37.8945C201.983 37.6398 200.491 37.0049 199.085 36.0119C198.885 35.8707 198.749 35.6558 198.708 35.4145C198.666 35.1733 198.722 34.9254 198.863 34.7254C199.005 34.5255 199.219 34.3898 199.461 34.3482C199.702 34.3067 199.95 34.3627 200.15 34.5039C201.627 35.5468 203.192 36.1254 204.672 36.1743C206.307 36.2288 207.854 35.6068 208.787 34.5076C209.756 33.3651 209.971 31.6818 209.299 30.5024C207.381 27.134 200.17 28.6382 198.255 23.8818C196.932 20.5946 199.992 15.6813 205.746 16.7167V15.3416C205.746 15.0969 205.843 14.8622 206.016 14.6891C206.189 14.516 206.424 14.4188 206.669 14.4188C206.914 14.4188 207.148 14.516 207.321 14.6891C207.494 14.8622 207.592 15.0969 207.592 15.3416V17.2372C208.432 17.5565 209.278 17.9755 210.117 18.5209C210.322 18.6543 210.466 18.8638 210.517 19.1032C210.567 19.3426 210.521 19.5925 210.388 19.7977C210.321 19.8993 210.236 19.9869 210.136 20.0555C210.036 20.1241 209.924 20.1724 209.805 20.1975C209.566 20.2483 209.316 20.2019 209.111 20.0685C208.529 19.6911 207.694 19.2287 206.735 18.8864C206.712 18.8873 206.692 18.8993 206.669 18.8993C206.46 18.8959 206.258 18.8203 206.099 18.6852C203.225 17.8915 201.078 18.8928 200.132 20.8373C199.74 21.6448 199.681 22.4809 199.968 23.1924C200.634 24.848 202.731 25.5734 204.693 26.0634C206.761 26.5802 209.592 27.289 210.903 29.5888C212.846 32.9997 210.337 37.7173 205.305 38.0025ZM212.978 4.20733C213.008 4.19164 213.038 4.17687 213.07 4.16395C213.1 4.14618 213.131 4.13015 213.163 4.11596C214.416 3.54748 216.035 4.14273 216.627 5.38582C217.217 6.628 216.655 8.25684 215.424 8.87146C214.186 9.4907 212.55 8.94991 211.915 7.74004C211.276 6.52186 211.772 4.86994 212.978 4.20733ZM461.65 98.5044C461.65 88.2311 453.292 79.8727 443.018 79.8727C432.745 79.8727 424.387 88.2311 424.387 98.5044C424.387 108.778 432.745 117.136 443.018 117.136C453.292 117.136 461.65 108.778 461.65 98.5044ZM440.386 105.517C440.032 105.517 439.677 105.382 439.407 105.111L434.204 99.908C434.068 99.7813 433.959 99.6285 433.883 99.4587C433.808 99.2889 433.767 99.1056 433.764 98.9197C433.76 98.7338 433.795 98.5492 433.864 98.3768C433.934 98.2045 434.037 98.0479 434.169 97.9164C434.3 97.785 434.457 97.6814 434.629 97.6117C434.802 97.5421 434.986 97.5079 435.172 97.5112C435.358 97.5145 435.541 97.5552 435.711 97.6308C435.881 97.7065 436.034 97.8156 436.16 97.9516L440.386 102.175L450.561 91.9991C450.688 91.8669 450.841 91.7615 451.01 91.6889C451.179 91.6164 451.361 91.5782 451.544 91.5766C451.728 91.575 451.911 91.61 452.081 91.6796C452.251 91.7492 452.405 91.852 452.535 91.982C452.665 92.1119 452.768 92.2665 452.838 92.4366C452.907 92.6068 452.942 92.789 452.941 92.9728C452.939 93.1566 452.901 93.3383 452.828 93.5072C452.756 93.6761 452.65 93.8288 452.518 93.9565L441.364 105.111C441.094 105.382 440.74 105.517 440.386 105.517ZM74.5917 79.9309C74.5917 64.8698 62.6037 52.365 47.4227 51.8574C32.0404 51.3471 18.9182 63.3406 18.3987 78.9988C17.8819 94.4936 30.0636 107.515 45.5492 108.032C61.7916 108.51 74.5917 95.5688 74.5917 79.9309ZM26.446 79.2756C26.6214 73.923 28.8731 68.9581 32.7861 65.2943C40.9322 57.6899 53.6012 58.1864 61.1272 66.2448C64.7909 70.1578 66.7012 75.2612 66.5259 80.6138C66.1567 91.6604 56.8728 100.372 45.8169 99.9846C34.761 99.6155 26.0769 90.3223 26.446 79.2756Z" fill="white"/>
<path d="M285.516 182.603C320.265 184.475 355.844 190.087 390.244 196.381C395.768 197.392 401.471 198.15 406.881 199.615C408.939 200.173 410.248 200.826 412.47 199.88C413.328 199.513 416.585 197.457 416.147 196.17C416.724 197.868 415.983 199.81 414.688 201.052C413.395 202.293 411.642 202.94 409.895 203.346C400.904 205.437 390.844 200.997 382.071 199.185C353.732 193.332 324.615 191.366 295.488 187.542C282.784 185.874 268.842 185.281 255.418 183.543C253.55 183.3 253.782 180.522 255.664 180.613C265.123 181.074 274.598 182.021 285.516 182.603Z" fill="white"/>
<path d="M417.552 65.9095C417.552 62.3564 414.326 59.6709 410.815 60.3224C403.348 61.7158 395.868 63.0417 388.377 64.3C388.022 64.3675 387.707 64.5717 387.5 64.8687C387.293 65.1657 387.211 65.5319 387.271 65.8889C387.33 66.2458 387.528 66.5651 387.82 66.7784C388.113 66.9917 388.477 67.0819 388.835 67.0298C396.343 65.7692 403.839 64.4409 411.322 63.0449C413.104 62.7071 414.783 64.0693 414.783 65.9104V174.127C414.783 174.494 414.929 174.846 415.189 175.106C415.448 175.365 415.8 175.511 416.168 175.511C416.535 175.511 416.887 175.365 417.146 175.106C417.406 174.846 417.552 174.494 417.552 174.127V65.9095ZM381.12 65.4886C329.795 73.739 284.543 77.1684 242.771 75.9659C239.656 75.8939 237.005 78.3505 236.911 81.4818C236.564 93.0896 235.838 107.421 235.559 120.229C235.551 120.596 235.689 120.951 235.943 121.216C236.196 121.481 236.545 121.635 236.912 121.643C237.634 121.674 238.309 121.08 238.327 120.289C238.603 107.593 239.336 92.988 239.679 81.5639C239.69 81.1802 239.778 80.8025 239.935 80.4525C240.093 80.1025 240.318 79.7871 240.598 79.5243C240.878 79.2615 241.207 79.0564 241.566 78.9209C241.926 78.7854 242.308 78.722 242.692 78.7345C284.639 79.9379 330.061 76.5011 381.559 68.2231C381.739 68.1942 381.911 68.1303 382.066 68.0349C382.221 67.9395 382.355 67.8145 382.462 67.6671C382.568 67.5197 382.645 67.3527 382.687 67.1758C382.729 66.9988 382.735 66.8153 382.706 66.6357C382.678 66.456 382.614 66.2837 382.519 66.1286C382.424 65.9736 382.299 65.8389 382.151 65.7323C382.004 65.6257 381.837 65.5493 381.659 65.5075C381.482 65.4657 381.3 65.4593 381.12 65.4886ZM242.324 181.863C289.834 183.764 307.591 186.553 335.939 189.302C348.042 190.474 358.496 191.487 371.302 193.846C408.157 200.641 409.815 201.878 411.877 201.878C413.384 201.874 414.827 201.273 415.891 200.206C416.955 199.139 417.552 197.694 417.552 196.187V181.719C417.552 181.352 417.406 181 417.146 180.74C416.887 180.481 416.535 180.335 416.168 180.335C415.8 180.335 415.448 180.481 415.189 180.74C414.929 181 414.783 181.352 414.783 181.719V196.188C414.784 196.626 414.686 197.058 414.496 197.453C414.307 197.848 414.031 198.196 413.689 198.469C413.347 198.743 412.947 198.936 412.52 199.034C412.094 199.133 411.65 199.133 411.223 199.037C400.727 196.649 388.938 194.283 371.804 191.124C358.881 188.743 348.372 187.725 336.205 186.546C310.171 184.025 290.505 181.023 242.434 179.097C241.701 179.064 241.007 178.757 240.489 178.237C239.971 177.716 239.667 177.021 239.636 176.287C239.607 175.523 238.964 174.945 238.2 174.957C238.018 174.963 237.84 175.006 237.675 175.082C237.509 175.157 237.361 175.265 237.237 175.398C237.113 175.532 237.017 175.688 236.954 175.858C236.891 176.029 236.862 176.21 236.868 176.392C236.981 179.342 239.377 181.745 242.324 181.863Z" fill="white"/>
<path d="M374.751 85.7771C377.916 85.7771 379.888 82.9309 378.86 79.8707C378.361 78.384 377.245 77.2978 375.894 76.949L375.893 76.9379C375.87 76.7574 375.811 76.5834 375.721 76.4257C375.63 76.268 375.509 76.1298 375.365 76.019C375.22 75.9082 375.055 75.8271 374.88 75.7801C374.704 75.7332 374.521 75.7214 374.34 75.7456C371.218 76.1562 368.916 79.6539 370.025 82.667C370.706 84.521 372.671 85.7771 374.751 85.7771ZM383.797 81.0474C384.929 84.1233 389.35 85.2501 391.701 82.8931C394.03 80.561 392.77 76.1285 389.667 75.3284L389.665 75.3173C389.642 75.1371 389.583 74.9632 389.492 74.8057C389.401 74.6482 389.28 74.5101 389.136 74.3994C388.991 74.2887 388.827 74.2075 388.651 74.1604C388.476 74.1133 388.292 74.1013 388.112 74.125C384.99 74.5366 382.688 78.0333 383.797 81.0474ZM404.25 73.3036C404.228 73.1223 404.169 72.9472 404.079 72.7884C403.989 72.6297 403.868 72.4903 403.723 72.3785C403.578 72.2666 403.413 72.1845 403.237 72.1367C403.061 72.089 402.876 72.0766 402.695 72.1002C401.169 72.3005 399.745 73.2686 398.887 74.6879C396.74 78.241 399.216 82.1318 403.106 82.1318C406.271 82.1318 408.243 79.2856 407.215 76.2254C406.716 74.7378 405.6 73.6525 404.25 73.3036ZM407.09 46.4382C406.908 46.4094 406.723 46.4169 406.544 46.4605C406.366 46.504 406.198 46.5827 406.05 46.6919C405.902 46.8011 405.777 46.9387 405.683 47.0966C405.589 47.2545 405.527 47.4295 405.502 47.6115C405.476 47.7935 405.487 47.9788 405.533 48.1566C405.58 48.3344 405.662 48.5011 405.773 48.647C405.885 48.7929 406.025 48.9152 406.184 49.0065C406.344 49.0979 406.52 49.1566 406.702 49.1791C417.209 50.664 426.599 58.8193 429.539 69.0142C429.65 69.3562 429.89 69.6416 430.207 69.8103C430.525 69.9789 430.895 70.0175 431.241 69.918C431.586 69.8184 431.879 69.5885 432.058 69.2767C432.237 68.9649 432.288 68.5958 432.2 68.2473C428.967 57.0373 418.642 48.0699 407.09 46.4382ZM417.345 44.623C417.304 44.8002 417.299 44.9836 417.329 45.1629C417.359 45.3422 417.424 45.5138 417.521 45.6679C417.617 45.8219 417.743 45.9555 417.891 46.0609C418.039 46.1664 418.207 46.2416 418.384 46.2823C422.737 47.2817 426.505 50.652 427.984 54.8667C428.106 55.2132 428.36 55.4972 428.691 55.6562C429.022 55.8153 429.402 55.8364 429.749 55.7148C430.095 55.5933 430.379 55.3391 430.538 55.0082C430.697 54.6773 430.719 54.2968 430.597 53.9503C428.811 48.8607 424.261 44.7919 419.003 43.5838C418.645 43.5018 418.27 43.5652 417.959 43.7601C417.648 43.9549 417.427 44.2653 417.345 44.623Z" fill="white"/>
<path d="M279.661 152.068C279.201 152.425 278.814 153.032 278.814 153.646C278.814 154 278.923 154.479 279.365 154.947C281.033 161.299 291.622 166.031 304.39 166.031C317.246 166.031 327.595 161.459 329.384 155.086C330.426 154.139 330.272 152.734 329.037 151.937C328.49 151.573 327.597 151.251 326.45 150.965C323.052 139.346 318.512 127.1 314.115 115.251C311.607 108.49 309.237 102.101 307.069 95.8343C309.762 94.6208 310.304 90.6626 307.74 88.8797C309.103 87.4511 310.609 86.0889 312.37 85.0516C314.961 83.5308 317.81 82.9973 320.189 83.5843C325.317 84.8597 328.489 90.9183 333.39 92.4161C333.429 146.785 333.298 143.614 333.492 144.095C332.231 145.864 331.947 148.252 331.511 149.994C330.771 152.938 330.923 155.71 331.952 158.008C331.998 158.109 332.057 158.201 332.122 158.285C331.884 159.763 331.561 161.429 331.356 162.784C327.269 163.751 324.2 165.819 320.5 167.675C315.759 168.549 313.726 169.692 313.726 171.483C313.726 176.131 331.334 176.491 336.731 176.491C342.126 176.491 359.729 176.131 359.729 171.483C359.729 169.681 357.683 168.536 352.906 167.667C350.284 166.27 348.133 165.023 344.731 163.853C341.077 162.589 337.503 162.081 334.232 162.337C334.428 161.165 334.666 159.902 334.839 158.835C335.771 158.821 336.698 158.835 337.695 158.819C337.776 159.546 337.753 160.214 338.068 161.461C338.159 161.817 338.387 162.122 338.702 162.31C339.018 162.498 339.395 162.552 339.751 162.462C340.106 162.372 340.412 162.144 340.6 161.828C340.787 161.513 340.842 161.136 340.752 160.78C340.501 159.792 340.549 159.408 340.438 158.454C340.584 158.328 340.701 158.172 340.781 157.996C341.743 155.782 341.939 153.489 341.417 150.566C341.131 148.966 340.572 146.622 339.543 144.326C339.577 144.018 339.548 146.772 339.558 92.6136C343.718 91.7608 346.043 88.5253 349.643 88.0611C351.656 87.8008 353.967 88.5253 355.989 90.0443C357.388 91.0954 358.296 92.6855 359.158 94.247C357.052 95.408 356.216 98.4848 358.119 100.388C353.813 115.499 347.077 133.811 343.245 143.889C342.167 144.322 341.196 144.992 341.196 146.145C341.196 146.922 341.657 147.567 342.552 148.072C344.25 152.978 352.004 156.475 361.466 156.475C371.049 156.475 379.015 152.764 380.48 147.749C381.456 147 381.405 146.186 381.261 145.73C381.06 145.091 380.729 144.685 380.132 144.315C375.535 130.156 368.298 113.83 364.915 99.5849C364.911 99.5692 364.904 99.5562 364.899 99.5406C365.818 98.0547 365.714 96.3954 364.6 94.9761C364.002 94.2147 363.038 93.816 362.029 93.7099C360.81 91.532 359.722 89.3863 357.652 87.8313C355.019 85.8536 352.051 84.9612 349.288 85.3146C345.138 85.8517 342.771 88.8298 339.558 89.7647V85.5075C340.704 84.4241 340.826 82.7463 339.871 81.5688C337.318 78.3987 331.055 80.9043 333.39 84.6594V89.4731C329.978 87.942 326.411 82.2784 320.855 80.8978C317.782 80.1374 314.177 80.7815 310.967 82.6651C308.36 84.1998 306.247 86.3482 304.53 88.2779C304.31 88.3425 304.093 88.433 303.884 88.5502C301.069 89.3226 300.018 93.9102 303.262 95.6562C298.657 111.698 291.385 130.379 281.648 151.183C280.119 151.642 279.568 152.14 279.661 152.067V152.068ZM343.828 166.47C348.682 168.141 351.323 170.21 352.271 170.365C354.586 170.778 355.815 171.2 356.448 171.49C349.764 174.458 323.7 174.462 317.008 171.49C318.657 170.737 321.117 170.442 321.532 170.253C324.099 169.088 327.91 166.467 331.83 165.51C335.353 164.643 339.501 164.974 343.828 166.47ZM377.295 146.146C370.295 148.039 351.871 147.982 345.231 146.15C351.215 144.523 370.087 144.202 377.295 146.146ZM376.837 143.186C370.014 141.728 354.926 141.49 346.532 143.027C350.417 132.735 356.567 115.839 360.652 101.607C361.283 101.692 361.925 101.637 362.532 101.446C365.923 115.003 372.288 129.672 376.837 143.186ZM334.184 156.088C333.37 153.476 334.112 151.128 334.479 149.414C334.775 148.041 335.11 146.484 335.833 145.57C336.228 145.072 336.644 144.919 336.742 144.931C336.742 144.931 336.796 144.969 336.862 145.111C337.656 146.785 338.305 148.894 338.691 151.054C339.046 153.036 339.006 154.576 338.559 156.021C337.089 156.082 335.728 156.039 334.184 156.088ZM325.823 153.652C317.191 155.772 291.908 155.845 283.046 153.641C291.584 151.532 317.026 151.47 325.823 153.653V153.652ZM305.201 98.8872C307.17 104.494 309.292 110.209 311.519 116.215C315.728 127.554 320.059 139.254 323.382 150.375C313.381 148.851 294.585 148.895 285.044 150.445C293.909 131.324 300.686 114.001 305.201 98.8872ZM381.645 119.157C381.576 119.517 381.653 119.891 381.859 120.194C382.065 120.498 382.383 120.707 382.744 120.777C389.885 122.132 397.231 121.964 404.302 120.283C404.659 120.197 404.968 119.973 405.159 119.66C405.351 119.347 405.411 118.97 405.325 118.613C405.24 118.256 405.016 117.948 404.703 117.756C404.39 117.564 404.013 117.504 403.656 117.59C396.968 119.18 390.019 119.34 383.265 118.058C383.087 118.023 382.903 118.023 382.725 118.059C382.546 118.096 382.377 118.167 382.226 118.269C382.075 118.371 381.947 118.502 381.847 118.654C381.747 118.807 381.678 118.977 381.645 119.156V119.157ZM387.733 141.884C387.726 142.066 387.754 142.247 387.817 142.418C387.88 142.588 387.976 142.745 388.1 142.878C388.223 143.012 388.371 143.12 388.537 143.196C388.702 143.272 388.88 143.315 389.062 143.322L408.29 144.084H408.345C408.708 144.086 409.057 143.944 409.317 143.69C409.577 143.437 409.727 143.091 409.734 142.728C409.741 142.365 409.606 142.013 409.356 141.749C409.107 141.485 408.763 141.33 408.4 141.317L389.172 140.555C388.99 140.547 388.808 140.576 388.637 140.638C388.466 140.701 388.309 140.797 388.176 140.92C388.042 141.044 387.934 141.192 387.858 141.358C387.782 141.523 387.739 141.702 387.733 141.884ZM373.753 168.318C373.712 168.682 373.818 169.048 374.047 169.335C374.275 169.622 374.609 169.807 374.973 169.848C406.437 173.391 405.557 173.304 405.719 173.304C406.072 173.302 406.411 173.166 406.667 172.923C406.923 172.68 407.076 172.349 407.095 171.996C407.115 171.644 406.999 171.298 406.772 171.028C406.545 170.758 406.223 170.585 405.873 170.545L375.284 167.097C374.528 167.013 373.838 167.558 373.753 168.318ZM258.25 93.996C259.166 93.5733 259.906 92.9587 260.62 92.3653C262.714 90.6248 263.121 90.6266 265.345 91.7119C269.254 93.6167 270.508 93.0307 283.209 92.9366C283.391 92.9339 283.57 92.8955 283.737 92.8234C283.904 92.7514 284.055 92.6472 284.182 92.5168C284.308 92.3864 284.408 92.2323 284.475 92.0633C284.542 91.8943 284.575 91.7137 284.573 91.532C284.562 90.7678 283.907 90.1615 283.168 90.168C271.301 90.3415 269.709 90.5417 267.596 89.6992C266.255 89.1639 264.721 88.0602 262.802 88.2106C260.191 88.4145 258.739 90.7208 257.09 91.4821C255.439 92.2435 253.082 91.0991 252.659 89.3291C252.57 88.977 252.345 88.6743 252.034 88.4864C251.723 88.2984 251.351 88.2403 250.997 88.3245C250.644 88.4086 250.338 88.6284 250.145 88.9364C249.952 89.2443 249.888 89.6157 249.966 89.9705C250.79 93.4275 254.989 95.4984 258.25 93.996Z" fill="white"/>
</svg>
