<svg width="16" height="16" viewBox="0 0 16 16" fill="none" xmlns="http://www.w3.org/2000/svg">
    <path d="M14.8125 4.84188C14.6482 4.65577 14.4462 4.50675 14.2199 4.40471C13.9936 4.30266 13.7482 4.24992 13.5 4.25H10.25V3.5C10.2492 2.77091 9.95918 2.07192 9.44363 1.55637C8.92808 1.04082 8.22909 0.750827 7.5 0.75C7.36077 0.750016 7.2243 0.788787 7.10585 0.861972C6.98741 0.935156 6.89168 1.03987 6.82937 1.16437L4.53625 5.75H2C1.66848 5.75 1.35054 5.8817 1.11612 6.11612C0.881696 6.35054 0.75 6.66848 0.75 7V12.5C0.75 12.8315 0.881696 13.1495 1.11612 13.3839C1.35054 13.6183 1.66848 13.75 2 13.75H12.75C13.1765 13.7499 13.5883 13.5941 13.9081 13.3118C14.2278 13.0295 14.4334 12.6401 14.4862 12.2169L15.2362 6.21688C15.2671 5.97074 15.2453 5.72087 15.1722 5.48381C15.0992 5.24676 14.9765 5.02794 14.8125 4.84188ZM2.25 7.25H4.25V12.25H2.25V7.25ZM13.75 6.03125L13 12.0312C12.9923 12.092 12.9627 12.1478 12.9166 12.1882C12.8705 12.2285 12.8112 12.2505 12.75 12.25H5.75V6.67688L7.92625 2.325C8.1676 2.41255 8.37615 2.57229 8.52353 2.78252C8.67091 2.99275 8.74998 3.24326 8.75 3.5V5C8.75 5.19891 8.82902 5.38968 8.96967 5.53033C9.11032 5.67098 9.30109 5.75 9.5 5.75H13.5C13.5356 5.74972 13.5709 5.75706 13.6035 5.77153C13.636 5.786 13.6651 5.80727 13.6888 5.8339C13.7125 5.86054 13.7302 5.89192 13.7407 5.92596C13.7513 5.96 13.7545 5.99589 13.75 6.03125Z" fill="#54616C"/>
</svg>    