<svg width="14" height="14" viewBox="0 0 14 14" fill="none" xmlns="http://www.w3.org/2000/svg">
<path d="M13.5468 13.2546V13.2541H13.5502V8.38753C13.5502 6.00679 13.0351 4.17285 10.238 4.17285C8.89335 4.17285 7.99099 4.90709 7.6226 5.60318H7.58371V4.39511H4.93164V13.2541H7.69317V8.86744C7.69317 7.71246 7.9132 6.59562 9.35064 6.59562C10.767 6.59562 10.7881 7.91371 10.7881 8.94153V13.2546H13.5468Z" fill="#000B33"/>
<path d="M0.431641 4.41113H3.19651V13.2701H0.431641V4.41113Z" fill="#000B33"/>
<path d="M1.82206 0C0.938034 0 0.220703 0.713781 0.220703 1.59343C0.220703 2.47308 0.938034 3.20179 1.82206 3.20179C2.70608 3.20179 3.42341 2.47308 3.42341 1.59343C3.42285 0.713781 2.70552 0 1.82206 0V0Z" fill="#000B33"/>
</svg>
