<svg width="306" height="21" viewBox="0 0 306 21" fill="none" xmlns="http://www.w3.org/2000/svg">
<g clip-path="url(#clip0_93_1121)">
<path d="M147.217 12.5137C147.217 13.5983 147.524 14.4847 148.14 15.1729C148.755 15.861 149.577 16.2051 150.607 16.2051C151.637 16.2051 152.46 15.861 153.075 15.1729C153.69 14.4847 153.998 13.5983 153.998 12.5137V12.2949C153.998 11.2103 153.69 10.3239 153.075 9.63574C152.46 8.94759 151.637 8.60352 150.607 8.60352C149.577 8.60352 148.755 8.94759 148.14 9.63574C147.524 10.3239 147.217 11.2103 147.217 12.2949V12.5137ZM148.516 12.2949C148.516 11.5521 148.691 10.9255 149.042 10.415C149.393 9.90007 149.915 9.64258 150.607 9.64258C151.3 9.64258 151.822 9.90007 152.173 10.415C152.524 10.9255 152.699 11.5521 152.699 12.2949V12.5137C152.699 13.2565 152.524 13.8854 152.173 14.4004C151.822 14.9108 151.3 15.166 150.607 15.166C149.915 15.166 149.393 14.9108 149.042 14.4004C148.691 13.8854 148.516 13.2565 148.516 12.5137V12.2949ZM155.591 16H156.862V10.9414C156.999 10.6224 157.211 10.3558 157.498 10.1416C157.785 9.92741 158.134 9.82031 158.544 9.82031C158.662 9.82031 158.772 9.82487 158.872 9.83398C158.972 9.8431 159.068 9.85677 159.159 9.875V8.69922C159.114 8.68099 159.036 8.66048 158.927 8.6377C158.817 8.61491 158.713 8.60352 158.612 8.60352C158.202 8.60352 157.849 8.71745 157.553 8.94531C157.257 9.16862 157.017 9.43066 156.835 9.73145H156.794L156.739 8.80859H155.591V16Z" fill="#5F646D"/>
<path opacity="0.6" d="M0 12.5H132" stroke="#CFDBD5" stroke-linecap="square"/>
<path opacity="0.6" d="M174 12.5H306" stroke="#CFDBD5" stroke-linecap="square"/>
</g>
<defs>
<clipPath id="clip0_93_1121">
<rect width="306" height="21" fill="white"/>
</clipPath>
</defs>
</svg>
