<svg width="637" height="448" viewBox="0 0 637 448" fill="none" xmlns="http://www.w3.org/2000/svg">
<path d="M473.114 361.152C473.114 362.95 473.829 364.674 475.1 365.946C476.372 367.217 478.096 367.931 479.894 367.932C481.233 367.931 482.543 367.533 483.656 366.788C484.77 366.043 485.638 364.984 486.15 363.746C486.662 362.508 486.795 361.146 486.534 359.832C486.272 358.518 485.626 357.311 484.679 356.364C483.731 355.417 482.524 354.772 481.21 354.51C479.896 354.249 478.534 354.383 477.296 354.895C476.058 355.408 475 356.276 474.255 357.389C473.511 358.503 473.113 359.813 473.112 361.152H473.114ZM467.6 335.212H439.997C439.761 335.212 439.535 335.306 439.368 335.473C439.201 335.639 439.107 335.866 439.107 336.102C439.107 336.338 439.201 336.564 439.368 336.731C439.535 336.898 439.761 336.991 439.997 336.991H467.601C467.837 336.991 468.064 336.898 468.23 336.731C468.397 336.564 468.491 336.338 468.491 336.102C468.491 335.866 468.397 335.639 468.23 335.473C468.064 335.306 467.836 335.212 467.6 335.212Z" fill="white"/>
<path d="M276.472 156.727H276.49V156.673C276.49 156.691 276.49 156.709 276.472 156.727ZM276.454 156.833V156.78C276.454 156.798 276.437 156.815 276.437 156.851C276.437 156.851 276.437 156.833 276.454 156.833ZM238.802 153.257V153.274C238.82 153.274 238.82 153.257 238.82 153.257H238.802ZM455.215 400.294L455.269 400.33H455.304C455.287 400.33 455.251 400.312 455.215 400.294ZM552.834 439.139C555.379 436.915 556.678 430.491 553.012 425.829C557.176 424.886 560.842 424.049 563.796 423.373C579.65 419.725 596.466 401.308 588.654 388.603C578.547 372.161 550.148 379.706 532.318 386.859L536.837 326.911C536.847 326.788 536.831 326.665 536.791 326.549C536.75 326.432 536.686 326.326 536.603 326.236C536.519 326.145 536.418 326.073 536.305 326.024C536.192 325.975 536.071 325.95 535.948 325.95H481.889V304.009C484.715 303.729 487.397 302.628 489.604 300.841C491.811 299.055 493.447 296.661 494.309 293.956C506.125 294.632 516.694 296.482 522.584 299.525C523.456 300.237 529.31 305.397 529.524 312.106C529.524 312.586 529.933 312.96 530.414 312.96H530.432C530.93 312.942 531.303 312.533 531.303 312.052C531.197 309.099 530.182 306.447 528.901 304.276C530.307 305.629 531.713 307.159 533.136 308.867C545.174 323.377 559.906 354.798 555.646 370.987C555.041 373.443 553.511 376.094 551.286 378.834C554.543 378.122 557.425 377.553 560.877 377.215C558.724 375.774 571.465 370.204 583.761 373.638C584.224 373.781 584.508 374.261 584.384 374.741C584.241 375.204 583.743 375.489 583.28 375.346C576.491 373.482 569.26 374.08 562.87 377.037C580.807 375.72 589.864 383.674 591.893 391.753C600.861 383.781 608.513 374.795 613.406 364.83C635.756 319.419 630.933 286.002 630.933 286.002C630.933 286.002 620.88 286.286 606.876 291.109C607.036 291.571 606.804 292.069 606.342 292.247C589.402 298.226 567.835 310.54 550.877 335.754C550.592 335.114 550.326 334.473 550.041 333.833C555.931 325.22 562.372 318.12 568.956 312.284C576.964 275.307 578.405 244.577 578.423 244.274C578.44 243.794 578.867 243.384 579.348 243.42C579.828 243.456 580.22 243.865 580.184 244.363C580.184 244.666 578.796 274.275 571.198 310.344C581.425 301.722 593.126 295.019 605.737 290.557C606.004 290.468 606.306 290.504 606.52 290.664C602.053 246.908 580.736 224.398 580.736 224.398C580.736 224.398 546.037 251.872 533.617 306.75C526.143 297.977 519.364 293.351 493.989 292.052C493.989 292.052 493.989 292.034 493.971 292.034C493.686 291.945 490.697 291.731 490.412 291.714C490.056 289.988 489.79 288.333 489.612 286.767C496.284 289.08 506.641 284.436 502.566 278.617C497.299 271.108 512.086 251.748 498.082 241.943C492.565 238.082 487.049 237.655 482.387 238.527V40.0497C482.387 36.0816 479.166 32.8608 475.198 32.8608H267.415C265.507 32.8656 263.678 33.6269 262.331 34.9779C260.983 36.3289 260.226 38.1593 260.226 40.0675V123.042L240.688 138.221C234.389 123.398 222.52 107.65 216.203 103.7C212.982 101.564 203.142 99.1266 198.729 98.2369L200.562 91.4751C201.986 92.347 204.619 93.557 206.95 92.7918C214.05 90.4074 214.566 77.8269 214.175 69.8551C216.399 69.6415 218.356 68.823 218.516 66.5987C218.908 61.2604 207.982 52.4167 193.658 59.4276C193.658 59.4276 181.006 53.5555 180.205 64.499C179.511 73.8232 180.437 80.0512 183.64 86.813L182.519 96.4397C164.724 96.1549 149.208 101.902 142.695 118.095C137.819 130.195 134.794 155.374 136.414 168.773C136.77 190.767 139.759 214.06 144.475 230.679C144.581 231.053 144.919 231.32 145.329 231.32H145.507L139.99 322.818C133.727 323.067 127.428 324.01 121.538 326.395C99.4907 335.31 90.7715 358.335 86.0739 381.397C83.5694 385.963 81.3006 390.655 79.2765 395.454C79.917 389.991 80.3441 384.76 80.5399 379.742C90.6648 352 94.2948 314.811 75.9311 291.731C66.3223 279.667 51.82 272.585 39.0259 266.339C33.9367 263.848 28.0646 261.392 22.7976 263.705C13.8826 267.602 13.3844 282.478 26.1073 287.995C31.8014 290.45 40.1647 290.165 42.994 300.237C45.5386 309.312 39.6131 313.245 37.1397 317.658C35.7873 320.042 35.04 323.53 36.944 326.11C38.7234 328.53 41.6594 328.815 44.4887 329.099C61.7847 330.79 47.6739 347.321 52.9232 357.001C55.5034 361.752 61.2331 363.229 65.735 365.56C68.7957 367.143 75.9667 375.987 78.7604 379.653C78.5291 385.507 77.9953 391.664 77.1412 398.159C76.7675 397.607 76.3226 396.966 75.7888 396.255C75.4507 394.28 74.4364 388.55 73.8314 386.735C71.1383 378.511 66.1738 371.216 59.5112 365.693C52.8487 360.17 44.7598 356.645 36.1788 355.524C29.0433 354.598 14.0962 355.346 7.67245 358.389C-1.95423 362.926 -1.88306 373.336 4.34493 376.361C9.96791 379.083 15.2706 374.368 20.4131 373.709C22.673 373.407 25.4489 374.048 26.5521 376.129C28.0469 378.923 26.1251 383.229 28.4561 386.308C30.805 389.386 35.3959 388.568 37.2643 388.087C44.293 386.219 45.8233 385.507 50.3252 392.109C56.8735 401.718 57.6031 396.878 74.8279 397.963C75.3617 398.693 75.7888 399.315 76.1269 399.814C66.3045 399.974 61.4288 399.564 58.9732 399.849C56.9625 400.098 56.571 400.792 56.4109 402.625L61.3755 438.765C61.3932 438.89 61.4644 439.014 61.5 439.139H0.892845V440.918H409.235C412.99 451.275 422.705 441.025 433.328 445.936C440.82 449.46 449.77 448.054 456.746 443.997L463.223 442.698L464.201 445.616C464.379 445.58 512.157 434.993 512.228 434.975C511.979 436.95 510.644 440.242 507.815 443.552L503.366 443.374C503.42 443.196 504.523 439.121 504.523 439.121L504.701 438.463C503.971 438.641 484.167 443.018 483.971 443.071C495.021 445.171 502.495 446.595 502.495 446.595L502.886 445.153C507.228 445.331 508.331 445.367 508.562 445.367H508.616C515.983 448.25 525.04 448.267 531.997 443.587C538.902 438.908 538.101 441.79 631.592 440.918V439.139H552.834ZM603.032 345.061C602.854 345.523 602.338 345.755 601.875 345.595C596.021 343.388 589.099 344.562 584.295 348.566C583.832 348.886 583.316 348.78 583.031 348.442C582.885 348.259 582.816 348.026 582.84 347.793C582.863 347.561 582.976 347.346 583.156 347.196C588.458 342.801 596.039 341.502 602.498 343.922C602.961 344.082 603.192 344.598 603.032 345.061ZM624.136 319.473C624.011 319.953 623.531 320.256 623.051 320.131C618.157 318.921 612.73 319.508 608.192 321.732C608.087 321.784 607.973 321.814 607.856 321.821C607.739 321.829 607.622 321.813 607.511 321.775C607.401 321.737 607.299 321.677 607.211 321.6C607.123 321.522 607.052 321.428 607 321.323C606.949 321.218 606.919 321.104 606.911 320.987C606.904 320.87 606.92 320.753 606.958 320.642C606.996 320.532 607.055 320.43 607.133 320.342C607.21 320.254 607.304 320.182 607.409 320.131C612.321 317.711 618.175 317.088 623.478 318.405C623.958 318.512 624.243 318.992 624.136 319.473ZM596.929 299.881C597.409 299.774 597.89 300.059 597.996 300.54C598.833 303.938 598.868 307.55 598.121 310.985C597.872 312.159 596.128 311.714 596.395 310.611C597.089 307.444 597.035 304.098 596.27 300.949C596.163 300.468 596.448 299.988 596.929 299.881ZM578.085 313.494C581.163 316.483 581.75 320.807 582.195 324.953C582.32 326.128 580.522 326.341 580.433 325.149C580.006 321.466 579.544 317.355 576.839 314.775C575.985 313.921 577.248 312.657 578.085 313.494ZM619.243 299.454C619.634 299.152 620.186 299.241 620.488 299.632C620.773 300.023 620.702 300.575 620.31 300.878C619.848 301.234 580.665 331.181 557.532 370.613C557.817 369.279 557.977 367.855 558.03 366.343C581.554 328.263 618.78 299.792 619.243 299.454ZM553.813 342.481C554.258 342.285 554.792 342.481 554.988 342.925C557.086 347.516 558.225 352.488 558.333 357.535C558.333 357.997 557.995 358.389 557.568 358.424C556.874 353.513 555.45 348.139 553.546 342.694C553.617 342.605 553.706 342.534 553.813 342.481ZM583.636 268.012C584.953 266.567 586.547 265.402 588.323 264.586C590.099 263.77 592.021 263.319 593.975 263.261C594.455 263.314 594.865 263.634 594.882 264.115C594.9 264.613 594.509 265.022 594.028 265.04C590.629 265.129 587.231 266.695 584.953 269.204C584.615 269.56 584.117 269.613 583.69 269.275C583.334 268.937 583.298 268.385 583.636 268.012ZM582.373 289.044C583.957 287.336 585.789 285.913 587.854 284.845C587.957 284.786 588.07 284.749 588.188 284.735C588.306 284.721 588.425 284.731 588.539 284.764C588.653 284.797 588.759 284.852 588.852 284.927C588.944 285.002 589.02 285.094 589.076 285.199C589.132 285.303 589.166 285.418 589.177 285.536C589.188 285.654 589.175 285.773 589.139 285.886C589.103 285.999 589.044 286.104 588.967 286.194C588.89 286.284 588.796 286.358 588.69 286.411C586.804 287.407 585.131 288.689 583.69 290.254C583.334 290.593 582.853 290.646 582.426 290.308C582.256 290.145 582.156 289.922 582.146 289.687C582.136 289.452 582.217 289.221 582.373 289.044ZM562.675 259.666C567.928 259.502 569.931 264.725 571.038 269.667C571.287 270.77 569.597 271.232 569.294 270.058C568.465 266.275 566.961 261.17 562.746 261.446C562.265 261.446 561.838 261.072 561.821 260.591C561.803 260.093 562.176 259.684 562.675 259.666ZM546.802 293.297C547.016 292.852 547.55 292.692 547.994 292.906C552.639 295.29 556.447 299.347 558.742 304.33C558.938 304.775 558.742 305.308 558.297 305.522C557.87 305.7 557.319 305.54 557.123 305.077C554.988 300.451 551.464 296.696 547.176 294.49C547.073 294.436 546.981 294.363 546.906 294.274C546.831 294.185 546.774 294.082 546.74 293.972C546.705 293.861 546.693 293.744 546.703 293.628C546.714 293.512 546.748 293.4 546.802 293.297ZM51.8022 391.112C46.8554 383.834 44.5421 384.315 36.8194 386.361C35.2891 386.753 31.5701 387.447 29.8797 385.222C28.0646 382.838 29.8797 378.549 28.118 375.293C26.6055 372.464 23.0467 371.574 20.1818 371.948C15.0749 372.606 9.71879 376.984 5.11008 374.741C0.0743116 372.304 0.270046 363.851 8.4376 359.99C14.4165 357.161 28.9721 356.396 35.9475 357.303C53.4036 359.563 69.543 372.339 73.4222 393.159C64.5072 381.948 44.5421 361.681 18.7405 365.008C17.5838 365.15 17.7796 366.912 18.9718 366.77C45.3606 363.353 65.6105 385.738 73.4577 396.095C57.3718 395.24 57.6031 399.618 51.8022 391.112ZM534.987 327.729L530.503 387.607C530.307 387.678 520.68 391.877 520.502 391.966H437.83L431.709 389.03L427.118 327.729H534.987ZM428.577 314.045C428.791 315.202 430.553 314.864 430.339 313.707C427.919 300.86 453.578 294.418 466.621 294.418V294.436C468.952 300.789 474.629 304.009 480.109 304.116V325.95H426.157C426.034 325.949 425.912 325.974 425.8 326.024C425.687 326.073 425.585 326.145 425.502 326.235C425.418 326.325 425.354 326.432 425.314 326.548C425.273 326.665 425.258 326.788 425.268 326.911L429.876 388.158C422.901 384.582 427.919 386.041 414.36 382.731C410.285 378.621 407.367 374.599 406.459 370.987C402.971 356.627 415.107 326.128 428.862 309.793C428.488 311.109 428.31 312.568 428.577 314.045ZM479.362 253.794C479.362 258.937 484.327 265.503 494.22 265.503C493.918 268.35 492.672 271.624 489.932 271.624C489.736 271.613 489.541 271.667 489.378 271.776C489.214 271.885 489.09 272.044 489.024 272.229C486.8 278.581 487.281 286.251 488.811 292.746C488.9 293.137 489.238 293.422 489.629 293.457C490.572 293.511 491.551 293.582 492.548 293.671C492.53 293.742 492.494 293.813 492.476 293.867C491.58 296.356 489.937 298.507 487.771 300.027C485.605 301.546 483.022 302.359 480.376 302.355C475.287 302.355 470.554 299.383 468.508 294.401C472.209 293.813 473.419 294.08 473.419 292.977C473.401 288.831 473.454 288.475 473.205 284.329C477.067 283.564 479.665 280.201 480.181 279.453C480.323 279.258 480.305 278.991 480.109 278.831C479.914 278.67 479.647 278.67 479.469 278.848C474.575 283.457 468.508 282.407 465.838 278.688C461.87 273.243 463.988 262.567 464.842 259.061C469.896 259.898 476.124 257.033 479.362 253.794ZM262.005 40.0675C262.005 37.0781 264.426 34.6403 267.415 34.6403H465.376C468.365 34.6403 470.785 37.0781 470.785 40.0675V238.491C468.899 238.633 466.657 239.31 463.934 240.982C449.948 249.577 461.319 271.108 456.728 278.617C453.632 283.688 463.24 287.852 470.785 287.318C470.678 288.315 471.23 290.379 469.611 292.39C463.899 292.835 458.436 293.529 453.578 294.454H267.415C264.426 294.454 262.005 292.016 262.005 289.027V198.152C276.259 161.193 279.924 154.395 278.857 154.395C278.714 154.2 276.365 151.37 276.223 151.193C282.576 144.84 287.042 139.822 287.576 139.199C287.714 139.044 287.793 138.844 287.8 138.636C287.806 138.428 287.74 138.224 287.611 138.06L286.099 136.139C295.904 133.968 307.932 121.85 310.424 115.284C313.876 142.811 337.257 163.399 364.874 163.577C396.156 163.577 420.445 138.505 420.445 108.308C420.445 88.0408 409.466 70.2999 393.149 60.691C387.366 53.3776 375.479 48.8223 362.721 53.1285C361.724 53.1819 360.764 53.253 359.785 53.342C356.457 52.2922 351.226 49.6764 342.115 55.2816C339.232 57.0432 337.168 59.2141 335.656 61.6697C320.228 71.4743 309.943 88.6992 309.943 108.308C309.943 109.376 310.014 110.462 310.068 111.529C309.819 111.298 309.427 111.031 308.858 110.978C309.267 109.803 309.445 108.38 308.431 107.436C307.861 106.903 307.167 106.725 306.349 106.92C308.52 102.419 305.637 100.621 302.754 102.49C303.253 99.3757 299.978 95.3898 289.64 108.522C290.921 100.924 283.626 96.3151 273.127 119.501L270.529 116.156C270.381 115.974 270.168 115.857 269.935 115.83C269.702 115.803 269.468 115.869 269.283 116.013L262.005 121.672V40.0675ZM221.702 414.352L221.773 416.095C221.595 416.202 215.758 420.135 215.385 420.384C215.207 420.33 204.886 417.216 204.245 417.003L203.907 414.352H221.702ZM216.755 331.502L221.257 327C221.595 326.644 222.164 326.644 222.502 327C222.858 327.338 222.858 327.907 222.502 328.245L218.018 332.765C217.271 333.583 215.918 332.391 216.755 331.502ZM238.82 153.257L240.314 155.072L226.88 186.514L224.798 186.069C225.244 185.026 238.731 153.493 238.802 153.274C238.82 153.274 238.82 153.257 238.82 153.257ZM223.232 184.895C222.556 186.567 221.986 187.012 223.392 187.6L227.947 188.543C228.125 188.632 230.118 188.56 237.716 188.596C241.222 188.133 242.218 190.375 240.19 191.781C238.891 191.888 232.414 192.333 229.442 191.39C228.196 191.016 224.833 194.806 240.35 193.561C242.058 194.237 242.396 195.589 239.371 197.03C228.57 197.796 228.321 195.625 227.823 197.191C227.075 199.539 237.307 198.97 239.709 198.792C241.293 199.664 240.759 200.91 239.14 201.693C228.179 202.636 227.538 200.287 227.022 201.888C226.31 204.184 236.044 203.686 238.321 203.525C241.133 208.205 217.983 207.333 208.231 196.301C208.285 196.105 211.968 181.745 212.199 180.838L218.374 177.546C222.235 175.517 225.314 177.101 226.506 177.368C226.417 177.546 223.41 184.468 223.232 184.895ZM218.872 205.287L215.669 212.778L214.157 210.946L216.915 204.468C217.538 204.753 218.178 205.038 218.872 205.287ZM215.296 203.721C212.555 210.572 211.844 210.857 212.431 211.657C216.666 216.426 213.659 215.323 221.435 215.341C221.186 219.932 220.847 224.665 220.403 229.541H198.178L197.537 199.522C202.359 200.536 205.633 201.177 206.132 201.266C206.754 201.266 207.057 201.034 207.164 200.607L207.733 198.347C209.032 199.664 211.47 201.764 215.296 203.721ZM217.253 213.561C217.84 212.173 220.527 205.892 220.527 205.892C224.469 207.431 234.182 209.394 238.072 207.191C247.165 207.049 249.318 207.885 250.279 205.536C250.955 203.881 249.745 202.173 248.001 202.173H241.524C242.77 200.856 242.734 199.166 241.542 197.92C243.731 196.514 244.158 193.97 242.094 192.475C242.948 191.514 243.25 190.322 242.859 189.183C241.489 185.393 235.937 187.35 228.695 186.781C230.364 182.84 223.248 199.507 241.934 155.819H276.846C276.704 156.175 276.597 156.424 276.526 156.602C276.526 156.655 276.508 156.691 276.49 156.727C276.472 156.762 276.454 156.798 276.454 156.833V156.78C276.454 156.798 276.437 156.815 276.437 156.851C276.437 156.869 276.419 156.887 276.419 156.904L276.401 156.94C275.725 158.631 271.881 168.346 253.998 213.561H217.253ZM240.457 152.456H274.96L276.276 154.04H241.773L240.457 152.456ZM286.864 113.718C287.006 113.825 290.547 116.743 286.971 121.458C286.526 122.046 286.971 122.882 287.683 122.882C289.124 122.882 292.291 117.152 288.572 112.917C297.772 99.9629 303.911 98.2725 299.658 105.212C298.804 105.96 295.708 108.735 293.875 111.743C293.27 112.739 294.8 113.664 295.405 112.65C296.918 110.177 299.445 107.792 300.512 106.831C301.064 106.636 304.267 102.721 305.157 103.593C305.637 104.038 305.317 105.728 302.986 109.02C302.416 109.501 299.053 112.419 297.096 115.622C296.847 116.049 296.971 116.601 297.398 116.85C298.768 117.686 298.377 115.497 303.786 110.693C304.107 110.586 306.527 108.077 307.203 108.718C307.612 109.091 307.363 110.212 306.598 111.689C297.434 118.985 301.277 120.444 302.096 119.11C303.306 117.117 309 110.764 309.053 113.362C309.142 117.099 296.242 132.704 284.907 134.59C284.764 134.413 274.978 121.868 274.372 121.085C283.359 100.604 291.099 99.696 286.579 112.721C286.455 113.095 286.615 113.522 286.864 113.718ZM332.275 106.689C327.862 113.931 342.435 119.821 352.881 118.416C352.97 120.693 352.987 123.042 352.97 125.48C340.425 126.975 330.78 129.804 320.976 138.309C314.93 129.474 311.704 119.014 311.723 108.308C311.723 90.443 320.549 74.6061 334.072 64.8905C328.663 78.7344 337.204 98.6105 332.275 106.689ZM394.893 106.689C388.878 98.1123 401.957 78.2361 395.267 64.1431C409.377 73.7698 418.666 89.9625 418.666 108.308C418.666 117.615 416.246 126.708 411.691 134.715C402.082 128.06 389.804 125.64 378.024 124.875C377.49 122.33 377.099 119.928 376.814 117.65C385.889 121.138 400.516 114.75 394.893 106.689ZM380.818 96.1371C379.252 97.5429 377.668 97.4539 377.615 97.4539C377.417 97.4359 377.219 97.4861 377.054 97.5962C376.889 97.7063 376.767 97.8696 376.707 98.0589C373.451 107.436 374.59 116.796 376.422 125.907C376.511 126.298 376.85 126.601 377.241 126.619C378.736 126.708 380.213 126.814 381.636 126.939C380.494 130.564 378.225 133.73 375.159 135.977C372.093 138.224 368.39 139.434 364.589 139.431C357.133 139.431 350.55 134.857 347.898 127.971C350.087 127.633 352.116 127.366 353.948 127.152C354.167 127.135 354.371 127.035 354.519 126.873C354.668 126.712 354.75 126.5 354.749 126.281C354.731 124.234 354.838 121.049 354.553 115.622C360.39 115.124 364.322 110.248 365.408 108.7C365.675 108.326 365.621 107.828 365.265 107.525C365.101 107.378 364.887 107.297 364.666 107.301C364.445 107.304 364.233 107.391 364.073 107.543C357.703 113.522 348.468 112.472 344.446 106.974C338.859 99.2689 342.008 84.126 343.112 79.6241H343.147C349.446 80.5316 357.169 78.3073 363.415 72.0971C364.892 83.2363 372.152 89.0906 383.86 88.4145C383.522 91.9911 382.49 94.6602 380.818 96.1371ZM202.324 100.87C209.085 102.472 213.997 104.376 215.242 105.212C221.488 109.109 233.446 125.142 239.496 139.982C239.665 140.487 240.377 140.712 240.848 140.356C273.607 114.892 264.141 122.259 269.675 117.953C270.102 118.501 284.451 136.904 285.761 138.576C284.337 140.142 279.978 144.911 274.159 150.676H238.553C238.387 150.68 238.225 150.731 238.087 150.822C237.949 150.913 237.839 151.042 237.77 151.193C237.77 151.193 237.752 151.193 237.752 151.21L227.253 175.749C225.776 175.339 224.958 174.912 223.178 174.788H223.161C222.805 174.467 222.449 174.165 222.093 173.827C221.541 173.275 220.42 173.613 220.634 174.912C218.036 175.339 216.684 176.549 212.662 178.578C212.715 178.008 213.427 176.834 212.449 176.389L196.879 169.574L195.882 123.167L202.324 100.87ZM185.241 88.4322C186.273 88.4322 187.946 88.0052 188.711 85.425C189.868 81.5281 187.501 69.339 191.914 69.6415C196.345 69.944 194.814 75.7449 194.814 75.7449C194.441 77.4532 195.918 77.5422 196.79 75.8873C197.395 74.7663 197.786 70.8693 197.786 70.8693C197.786 70.8693 201.754 74.0545 201.523 68.3426L207.395 69.2678C207.395 69.2678 209.797 69.8551 212.377 69.9084C212.787 78.0938 212.021 89.2152 206.381 91.1014C203.729 91.9733 196.665 87.7027 195.491 85.1759C195.366 84.9268 195.081 84.7666 194.814 84.82C194.512 84.8556 194.298 85.0691 194.245 85.3716C194.245 85.5318 193.782 89.3397 198.391 92.6317C197.822 94.7492 197.395 96.2973 197.092 97.4005C197.092 97.4005 197.092 97.4361 197.074 97.4895L197.057 97.5073V97.5429C197.057 97.5607 197.057 97.5607 197.039 97.5785C197.039 97.5963 197.039 97.6141 197.021 97.6319V97.6674C197.003 97.7208 196.985 97.8098 196.95 97.9166V97.9344C196.932 97.9877 196.914 98.0589 196.879 98.1657V98.2013C196.322 100.272 195.765 102.342 195.206 104.411C195.028 104.287 184.867 97.276 184.245 96.8311C184.44 95.2296 185.188 88.8949 185.241 88.4322ZM144.35 118.771C149.581 105.71 161.148 98.8241 178.728 98.2547L194.103 123.309L195.081 168.791L171.255 158.364C173.159 152.491 173.426 147.26 172.109 142.367C172.045 142.142 171.896 141.951 171.693 141.835C171.49 141.718 171.25 141.686 171.024 141.744C170.543 141.868 170.258 142.367 170.401 142.829C171.646 147.474 171.326 152.491 169.422 158.168L159.101 162.189C158.639 162.367 158.407 162.883 158.585 163.346C159.226 164.983 161.539 162.741 170.116 159.805L195.135 170.766L196.932 171.549L201.986 173.773C201.256 174.094 200.758 174.823 200.776 175.66C200.779 175.928 200.835 176.194 200.941 176.441C201.048 176.688 201.201 176.911 201.394 177.099C201.586 177.286 201.814 177.434 202.063 177.534C202.313 177.633 202.58 177.683 202.849 177.679C203.117 177.676 203.383 177.619 203.63 177.513C203.877 177.407 204.1 177.254 204.288 177.061C204.475 176.869 204.623 176.641 204.723 176.391C204.822 176.142 204.872 175.875 204.868 175.606C204.868 175.375 204.797 175.161 204.726 174.966L211.043 177.724C205.918 198.063 206.096 197.546 205.651 199.344C194.601 197.155 154.279 188.792 144.67 182.991C140.862 180.695 138.941 175.304 138.158 168.791C137.926 154.235 138.887 132.348 144.35 118.771ZM138.442 177.528C139.652 180.606 141.361 183.062 143.745 184.503C151.895 189.432 180.188 195.856 195.74 199.148L196.398 229.541H146.005C142.037 215.305 139.332 196.319 138.442 177.528ZM189.067 239.968V253.794C189.067 257.211 186.273 259.986 182.857 259.986C182.519 259.986 182.234 259.72 182.234 259.381C182.234 259.026 182.519 258.759 182.857 258.759C185.597 258.759 187.821 256.534 187.821 253.794V239.968C187.821 239.612 188.088 239.345 188.444 239.345C188.782 239.345 189.067 239.612 189.067 239.968ZM145.613 261.89L154.599 263.207C160.774 264.097 166.237 259.221 166.059 252.958L165.525 236.623C165.52 236.542 165.532 236.461 165.559 236.384C165.586 236.308 165.628 236.238 165.683 236.178C165.738 236.118 165.804 236.07 165.878 236.036C165.952 236.003 166.031 235.984 166.112 235.982C166.468 236 166.753 236.231 166.771 236.587L167.305 252.922C167.536 260.111 161.059 265.538 154.422 264.435L145.435 263.136C145.273 263.108 145.127 263.018 145.028 262.886C144.928 262.754 144.883 262.589 144.902 262.424C144.955 262.086 145.257 261.855 145.613 261.89ZM158.781 414.352L158.852 416.095C158.674 416.202 152.838 420.135 152.464 420.384C152.286 420.33 141.966 417.216 141.325 417.003L140.987 414.352H158.781ZM141.734 340.541C142.072 340.203 142.642 340.203 142.98 340.541L147.464 345.061C147.82 345.399 147.82 345.968 147.464 346.324C147.072 346.68 146.521 346.644 146.201 346.306C141.129 341.228 143.254 343.347 141.716 341.804C141.378 341.448 141.378 340.897 141.734 340.541ZM122.196 328.049C127.819 325.772 133.851 324.864 139.884 324.615L139.741 326.857C148.838 335.959 148.809 335.674 148.033 336.448C147.66 336.804 147.108 336.786 146.77 336.448L139.599 329.242L139.332 333.69C126.52 337.658 105.95 348.264 88.9209 376.45C93.4763 356.129 102.8 335.879 122.196 328.049ZM139.225 335.594L138.638 345.399C132.303 353.477 139.99 361.325 134.385 363.851C131.645 365.079 128.264 361.592 124.527 361.592C124.314 361.734 119.011 360.542 115.772 371.094C111.039 385.952 105.897 376.699 94.8464 380.792C91.2164 382.126 90.9317 381.966 88.0668 381.468C105.007 351.093 126.111 339.776 139.225 335.594ZM138.389 349.385L137.997 355.808C137.624 353.477 137.481 351.716 138.389 349.385ZM66.5536 363.976C62.016 361.645 56.7312 360.293 54.4891 356.147C52.3716 352.25 53.8307 347.303 54.7204 342.694C56.0016 336.11 54.5069 330.914 50.7523 328.779C46.6418 326.466 40.7341 328.245 38.3675 325.06C36.1076 321.999 38.8302 318.031 41.0189 315.238C44.2396 311.163 46.6418 306.661 44.7023 299.757C41.5705 288.6 32.2107 288.689 26.8191 286.358C15.84 281.606 15.6621 268.777 23.5093 265.343C28.1002 263.332 33.5097 265.627 38.2429 267.941C50.8769 274.097 65.1834 281.09 74.5254 292.835C83.0844 303.582 87.4974 318.583 86.9814 335.096C86.2518 357.392 83.814 364.884 80.6822 373.923C81.3584 303.351 40.2359 278.795 39.7733 278.51C39.5674 278.397 39.3255 278.37 39.0993 278.433C38.8732 278.496 38.6808 278.645 38.5632 278.848C38.3141 279.275 38.4565 279.809 38.8835 280.058C39.3462 280.325 80.789 305.041 78.885 376.912C76.0023 373.247 69.7387 365.631 66.5536 363.976ZM62.283 432.252L58.1725 402.394C58.0123 401.237 57.3184 401.593 96.6614 401.593C97.0885 401.593 97.4266 401.967 97.3554 402.394L93.2627 432.252H62.283ZM94.0457 439.139C94.0813 439.014 94.1524 438.908 94.1702 438.765L99.117 402.625C99.3306 401.13 98.1739 399.814 96.6614 399.814H79.4188C81.8566 393.692 84.4546 388.141 87.1771 383.105C88.9209 383.425 89.8462 383.621 90.7004 383.621C94.0635 383.621 96.5191 381.414 99.9534 381.414C110.915 381.841 113.691 383.443 117.908 370.293C120.399 362.748 124.349 363.531 124.527 363.371C127.801 363.371 134.528 369.207 137.57 363.015L134.474 414.352H139.19L139.599 417.465L139.261 435.509C139.243 436.594 139.652 437.626 140.417 438.409C140.72 438.712 141.058 438.943 141.432 439.139H94.0457ZM141.111 432.039L141.343 418.871C141.503 418.925 151.841 422.056 152.375 422.217C152.642 422.288 152.927 422.217 153.105 422.11C153.3 421.985 159.404 417.857 159.795 417.608L175.081 426.736C175.187 426.807 175.312 426.843 175.454 426.861L182.803 427.644C185.615 427.928 187.91 429.655 189.102 432.039H141.111ZM189.565 439.139C190.846 438.463 191.736 437.128 191.736 435.58C191.744 433.165 190.855 430.834 189.24 429.038C187.625 427.243 185.401 426.112 182.999 425.864L175.828 425.117L160.632 416.042L160.561 414.352H167.322L183.907 316.981H183.889C183.728 316.948 183.586 316.853 183.493 316.717C183.4 316.581 183.363 316.414 183.391 316.252L190.241 279.453C190.295 279.115 190.633 278.902 190.971 278.955C191.309 279.009 191.522 279.329 191.469 279.685L184.618 316.483C184.565 316.75 184.334 316.928 184.085 316.964L195.918 414.352H202.11L202.502 417.465L202.181 435.509C202.163 436.594 202.573 437.626 203.338 438.409C203.64 438.712 203.978 438.943 204.334 439.139H189.565ZM204.014 432.039L204.263 418.871L215.278 422.217C216.025 422.377 216.239 421.843 216.95 421.487L222.716 417.608L238.001 426.736C238.108 426.807 238.232 426.843 238.357 426.861C242.93 427.893 249.122 426.22 252.023 432.039H204.014ZM408.701 439.139H327.506C328.769 436.772 333.894 428.961 346.137 429.299C346.137 429.299 337.453 423.444 326.26 430.188C326.616 429.672 332.524 421.558 341.973 419.423C341.973 419.423 331.332 414.494 323.805 425.491C323.983 424.637 327.204 411.077 340.282 406.807C340.282 406.807 325.086 402.856 317.79 422.394C317.79 422.394 321.136 403.159 307.79 397.447C307.79 397.447 312.737 411.842 311.687 422.394C311.687 422.394 309.071 407.625 294.391 405.899C294.391 405.899 308.698 422.27 309.089 428.124C309.089 428.124 299.409 413.711 286.33 413.444C286.33 413.444 302.096 424.156 304.142 432.947C304.142 432.947 293.75 427.733 288.163 431.63C288.163 431.63 303.591 434.139 306.064 439.139H252.486C253.767 438.463 254.656 437.128 254.656 435.58C254.66 433.164 253.767 430.832 252.149 429.037C250.532 427.242 248.305 426.111 245.902 425.864L238.748 425.117L223.552 416.042L223.481 414.352H229.762L225.154 315.166L217.466 322.889C217.128 323.227 216.559 323.263 216.203 322.889C215.847 322.551 215.847 321.982 216.203 321.643L225.047 312.746L222.787 264.222C222.378 264.186 216.826 265.93 212.11 261.695C210.881 260.597 209.908 259.242 209.263 257.726C208.617 256.209 208.313 254.569 208.374 252.922L208.907 236.587C208.907 236.231 209.139 235.929 209.548 235.982C209.886 235.982 210.153 236.285 210.153 236.623L209.619 252.958C209.512 255.929 210.722 258.776 212.947 260.769C217.2 264.577 221.986 262.958 222.68 262.976C222.698 262.976 222.716 262.994 222.734 262.994L221.257 231.32C221.702 231.284 222.057 230.964 222.111 230.519C222.591 225.288 222.965 220.234 223.214 215.341C255.511 215.127 255.03 215.839 255.422 214.789L260.226 202.653V289.027C260.226 290.935 260.983 292.765 262.331 294.116C263.678 295.467 265.507 296.229 267.415 296.233H445.962C442.724 297.159 439.983 298.226 437.902 299.401C420.001 309.632 400.16 352.694 404.733 371.396C405.569 374.777 407.972 378.425 411.37 382.162C397.171 379.582 381.743 380.151 374.999 391.913C367.33 405.276 384.572 423.871 401.495 427.234L411.637 429.227C408.933 432.181 407.9 435.616 408.701 439.139ZM434.076 444.335C422.367 438.836 413.577 449.744 410.516 439.139C410.516 438.623 408.719 433.409 414.68 428.783C420.232 424.334 429.538 422.43 434.2 424.779C438.951 427.163 444.539 427.804 449.503 427.092C447.813 432.875 451.301 439.584 455.286 442.751C448.774 446.239 440.766 447.431 434.076 444.335ZM457.208 442.075C449.61 435.687 450.838 430.598 451.763 426.025C460.162 423.658 462.689 441.096 462.635 440.918L462.653 440.989L457.208 442.075ZM455.411 419.245L456.585 422.804L454.877 423.284C454.059 420.117 452.653 418.444 453.952 417.91C454.13 417.839 474.237 409.405 474.237 409.405C459.984 402.59 456.123 400.739 455.269 400.33C455.215 400.294 455.162 400.276 455.126 400.258C455.109 400.241 455.091 400.241 455.073 400.223H500.804C497.032 401.807 455.411 419.245 455.411 419.245ZM505.039 398.443H451.354L441.549 393.746H516.25L505.039 398.443ZM533.083 440.918C530.521 442.11 523.474 448.534 509.826 443.908C509.897 443.819 509.968 443.73 510.022 443.641C512.032 441.078 513.545 437.929 514.061 434.761C516.161 433.979 511.961 435.082 551.055 426.256C552.621 427.928 553.742 430.171 553.475 433.107C552.496 443.427 543.101 436.025 533.083 440.918ZM455.215 400.294L455.269 400.33H455.304C455.287 400.33 455.251 400.312 455.215 400.294ZM276.472 156.727H276.49V156.673C276.49 156.691 276.49 156.709 276.472 156.727Z" fill="white"/>
<path d="M471.309 272.839C471.388 272.815 471.462 272.776 471.526 272.723C471.59 272.671 471.643 272.606 471.681 272.532C471.72 272.459 471.743 272.379 471.751 272.296C471.758 272.213 471.748 272.13 471.723 272.051C471.697 271.972 471.656 271.899 471.602 271.837C471.548 271.774 471.482 271.722 471.408 271.685C471.334 271.648 471.253 271.627 471.17 271.621C471.088 271.616 471.005 271.627 470.926 271.654C469.57 272.092 468.972 271.841 468.908 271.704C468.869 271.62 468.972 271.346 469.389 271.09C471.693 269.667 471.471 263.917 471.439 263.266C471.435 263.184 471.414 263.104 471.379 263.03C471.344 262.956 471.295 262.89 471.234 262.835C471.174 262.78 471.103 262.737 471.025 262.71C470.948 262.682 470.867 262.67 470.785 262.674C470.703 262.678 470.623 262.699 470.549 262.734C470.475 262.769 470.408 262.818 470.353 262.879C470.299 262.939 470.256 263.01 470.229 263.088C470.201 263.165 470.189 263.246 470.193 263.328C470.303 265.501 470.003 269.245 468.734 270.03C466.714 271.279 467.506 274.06 471.309 272.839ZM473.408 263.424C473.282 263.523 473.199 263.667 473.176 263.825C473.153 263.984 473.192 264.145 473.285 264.275C473.378 264.406 473.517 264.496 473.674 264.526C473.832 264.556 473.994 264.525 474.129 264.439C474.418 264.235 474.774 264.148 475.124 264.195C475.475 264.242 475.795 264.419 476.021 264.691C476.078 264.75 476.146 264.797 476.221 264.829C476.296 264.862 476.377 264.879 476.458 264.88C476.54 264.881 476.622 264.866 476.698 264.836C476.774 264.806 476.843 264.761 476.902 264.704C476.96 264.647 477.007 264.579 477.039 264.504C477.072 264.428 477.089 264.348 477.09 264.266C477.091 264.184 477.076 264.103 477.046 264.027C477.016 263.951 476.971 263.882 476.914 263.823C475.597 262.467 474.046 262.969 473.408 263.424ZM474.821 265.38C474.577 265.378 474.342 265.473 474.167 265.644C473.992 265.815 473.892 266.048 473.889 266.293C473.887 266.414 473.91 266.535 473.955 266.647C474 266.76 474.067 266.863 474.152 266.949C474.237 267.036 474.338 267.105 474.45 267.152C474.562 267.2 474.682 267.224 474.804 267.225C474.925 267.227 475.045 267.204 475.158 267.159C475.27 267.114 475.373 267.048 475.46 266.963C475.546 266.878 475.615 266.777 475.663 266.665C475.71 266.554 475.735 266.434 475.736 266.312C475.738 266.068 475.643 265.832 475.471 265.657C475.3 265.482 475.066 265.383 474.821 265.38ZM470.946 275.651C470.523 276.02 469.985 276.23 469.424 276.243C468.863 276.257 468.315 276.074 467.874 275.726C467.747 275.626 467.585 275.58 467.423 275.598C467.262 275.616 467.114 275.696 467.011 275.821C466.908 275.946 466.858 276.106 466.871 276.268C466.885 276.43 466.96 276.58 467.083 276.686C468.284 277.679 470.182 277.843 471.718 276.626C471.838 276.52 471.912 276.373 471.927 276.214C471.941 276.055 471.894 275.897 471.795 275.772C471.696 275.647 471.552 275.565 471.394 275.542C471.236 275.519 471.076 275.558 470.946 275.651ZM467.832 263.942C467.947 264.061 468.104 264.128 468.27 264.131C468.435 264.133 468.594 264.07 468.713 263.955C468.831 263.839 468.899 263.682 468.901 263.517C468.904 263.352 468.84 263.192 468.725 263.074C468.289 262.592 467.693 262.286 467.048 262.212C466.402 262.139 465.752 262.303 465.22 262.675C464.942 262.871 464.88 263.257 465.075 263.536C465.271 263.816 465.663 263.883 465.94 263.689C466.106 263.576 466.969 263.052 467.832 263.942ZM467.547 265.563C467.549 265.319 467.454 265.083 467.283 264.909C467.112 264.734 466.879 264.634 466.634 264.631C466.389 264.629 466.154 264.724 465.979 264.895C465.804 265.067 465.705 265.301 465.702 265.545C465.7 265.667 465.723 265.787 465.768 265.9C465.813 266.012 465.879 266.115 465.964 266.201C466.049 266.288 466.15 266.357 466.262 266.405C466.374 266.452 466.493 266.477 466.615 266.478C466.736 266.479 466.857 266.457 466.969 266.412C467.082 266.367 467.185 266.3 467.271 266.215C467.358 266.13 467.427 266.028 467.474 265.917C467.522 265.805 467.546 265.685 467.547 265.563ZM273.49 56.1179C273.49 56.424 273.739 56.6713 274.045 56.6713H276.836C277.142 56.6713 277.391 56.4222 277.391 56.1179V53.4844C277.391 50.8615 281.412 50.7441 281.412 53.5965V56.1179C281.412 56.424 281.661 56.6713 281.966 56.6713H284.768C285.074 56.6713 285.323 56.4222 285.323 56.1179V49.2227H273.49V56.1179Z" fill="white"/>
<path d="M272.51 49.2226H286.296C286.367 49.2227 286.436 49.2014 286.495 49.1615C286.554 49.1216 286.6 49.065 286.627 48.9989C286.653 48.9327 286.659 48.8602 286.644 48.7907C286.629 48.7211 286.593 48.6577 286.541 48.6087L279.655 41.9999C279.589 41.9363 279.5 41.9008 279.408 41.9008C279.317 41.9008 279.228 41.9363 279.162 41.9999L272.263 48.6087C272.211 48.6578 272.176 48.7214 272.16 48.7911C272.145 48.8608 272.151 48.9335 272.178 48.9997C272.205 49.0659 272.251 49.1225 272.31 49.1623C272.369 49.202 272.439 49.223 272.51 49.2226ZM456.923 56.1712C461.087 56.1712 464.485 52.7725 464.485 48.5909C464.485 46.5852 463.689 44.6616 462.27 43.2433C460.852 41.8251 458.929 41.0283 456.923 41.0283C454.917 41.0283 452.994 41.8251 451.575 43.2433C450.157 44.6616 449.36 46.5852 449.36 48.5909C449.36 52.7725 452.741 56.1712 456.923 56.1712ZM454.378 47.3275C454.216 47.1573 454.125 46.9311 454.125 46.6958C454.125 46.4605 454.216 46.2343 454.378 46.0641C454.734 45.726 455.304 45.726 455.642 46.0641L456.923 47.3453L458.204 46.0641C458.542 45.726 459.111 45.726 459.45 46.0641C459.805 46.42 459.805 46.9894 459.45 47.3275L458.168 48.6087L459.45 49.8899C459.805 50.2279 459.805 50.7974 459.45 51.1354C459.369 51.2199 459.273 51.2871 459.166 51.333C459.059 51.3789 458.943 51.4026 458.827 51.4026C458.71 51.4026 458.595 51.3789 458.488 51.333C458.381 51.2871 458.284 51.2199 458.204 51.1354L456.923 49.8543L455.642 51.1354C455.56 51.2199 455.461 51.2871 455.353 51.3329C455.244 51.3788 455.128 51.4024 455.01 51.4024C454.892 51.4024 454.776 51.3788 454.667 51.3329C454.559 51.2871 454.46 51.2199 454.378 51.1354C454.216 50.9689 454.125 50.7454 454.125 50.5127C454.125 50.2799 454.216 50.0564 454.378 49.8899L455.659 48.6087L454.378 47.3275ZM352.471 98.8276C352.583 98.7925 352.687 98.7356 352.777 98.6601C352.867 98.5847 352.941 98.4922 352.995 98.3879C353.049 98.2837 353.082 98.1698 353.092 98.0528C353.101 97.9358 353.088 97.818 353.052 97.7062C353.016 97.5944 352.958 97.4908 352.882 97.4015C352.806 97.3121 352.713 97.2387 352.608 97.1854C352.504 97.1322 352.389 97.1002 352.272 97.0913C352.155 97.0824 352.038 97.0968 351.926 97.1336C349.997 97.7564 348.214 97.5197 349.88 96.4165C352.09 94.9502 352.214 87.0478 352.198 84.6616C352.197 84.4262 352.103 84.2008 351.937 84.0347C351.77 83.8687 351.544 83.7754 351.309 83.7754H351.303C351.187 83.7761 351.071 83.7998 350.963 83.8452C350.856 83.8905 350.758 83.9567 350.676 84.0398C350.594 84.1229 350.529 84.2214 350.485 84.3296C350.441 84.4378 350.418 84.5536 350.419 84.6705C350.446 89.1208 349.841 94.3061 348.896 94.9324C346.143 96.7581 347.294 100.502 352.472 98.8276H352.471ZM355.54 83.6117C355.43 83.6587 355.331 83.7274 355.248 83.8137C355.165 83.8999 355.101 84.002 355.058 84.1137C355.016 84.2255 354.996 84.3446 355.001 84.4641C355.006 84.5836 355.034 84.7009 355.085 84.809C355.136 84.9171 355.208 85.0139 355.298 85.0935C355.387 85.1731 355.491 85.2339 355.604 85.2723C355.718 85.3107 355.837 85.3259 355.957 85.317C356.076 85.308 356.192 85.2752 356.298 85.2203C356.312 85.215 357.796 84.5299 359.168 85.4659C359.265 85.5355 359.374 85.5851 359.49 85.6118C359.606 85.6385 359.726 85.6416 359.843 85.6211C359.96 85.6006 360.072 85.5568 360.172 85.4924C360.272 85.4279 360.358 85.3441 360.425 85.2458C360.492 85.1476 360.538 85.0369 360.562 84.9204C360.585 84.8038 360.585 84.6837 360.561 84.5672C360.538 84.4507 360.491 84.3402 360.424 84.2421C360.356 84.144 360.27 84.0603 360.17 83.9961C357.969 82.4942 355.638 83.5637 355.54 83.6117ZM357.254 86.9606C356.953 86.9587 356.664 87.0756 356.449 87.2859C356.235 87.4963 356.112 87.7829 356.108 88.0834C356.106 88.2326 356.133 88.3808 356.188 88.5194C356.244 88.6579 356.326 88.7842 356.43 88.8909C356.535 88.9975 356.659 89.0825 356.797 89.1409C356.934 89.1993 357.081 89.23 357.231 89.2311C357.38 89.233 357.528 89.2054 357.667 89.1498C357.805 89.0943 357.932 89.0119 358.038 88.9074C358.145 88.8029 358.23 88.6783 358.288 88.5409C358.347 88.4035 358.377 88.2558 358.378 88.1065C358.38 87.8057 358.263 87.5164 358.052 87.3017C357.842 87.087 357.555 86.9643 357.254 86.9606ZM352.238 102.321C351.677 102.811 350.963 103.09 350.218 103.107C349.474 103.125 348.747 102.88 348.164 102.417C347.982 102.267 347.748 102.195 347.513 102.218C347.278 102.24 347.062 102.355 346.912 102.538C346.762 102.72 346.69 102.954 346.713 103.189C346.735 103.424 346.851 103.64 347.033 103.79C348.673 105.152 351.264 105.36 353.341 103.719C353.526 103.573 353.646 103.359 353.674 103.124C353.701 102.89 353.635 102.654 353.488 102.468C353.342 102.283 353.128 102.163 352.894 102.135C352.659 102.108 352.423 102.174 352.238 102.321ZM347.575 84.6313C347.672 84.7031 347.782 84.7547 347.898 84.7829C348.015 84.8111 348.136 84.8154 348.255 84.7956C348.373 84.7757 348.486 84.732 348.587 84.6673C348.688 84.6025 348.775 84.5179 348.843 84.4186C348.911 84.3193 348.957 84.2074 348.98 84.0896C349.004 83.9717 349.003 83.8504 348.978 83.733C348.953 83.6155 348.904 83.5043 348.835 83.4061C348.766 83.3079 348.678 83.2247 348.575 83.1615C346.374 81.6579 344.043 82.7309 343.945 82.7772C343.735 82.8792 343.574 83.0598 343.496 83.28C343.418 83.5002 343.429 83.7422 343.528 83.9539C343.627 84.1655 343.805 84.3298 344.024 84.4113C344.243 84.4928 344.485 84.4849 344.698 84.3893C344.759 84.3609 346.225 83.7131 347.575 84.6313ZM345.661 86.126C345.36 86.1237 345.07 86.2404 344.855 86.4508C344.64 86.6611 344.517 86.9481 344.513 87.2489C344.511 87.3982 344.538 87.5465 344.594 87.6852C344.649 87.8239 344.732 87.9503 344.836 88.057C344.941 88.1637 345.066 88.2486 345.203 88.3069C345.341 88.3652 345.488 88.3957 345.638 88.3966C345.787 88.3985 345.935 88.3708 346.073 88.3152C346.212 88.2596 346.338 88.1772 346.445 88.0727C346.551 87.9682 346.636 87.8436 346.694 87.7062C346.752 87.5688 346.783 87.4212 346.784 87.272C346.786 86.9715 346.669 86.6824 346.458 86.4677C346.248 86.2531 345.961 86.1303 345.661 86.126ZM294.696 176.398V198.772C294.696 199.008 294.79 199.235 294.957 199.402C295.124 199.568 295.35 199.662 295.586 199.662H441.326C441.562 199.662 441.788 199.568 441.955 199.402C442.122 199.235 442.216 199.008 442.216 198.772V176.398C442.216 176.162 442.122 175.936 441.955 175.769C441.788 175.602 441.562 175.508 441.326 175.508H295.586C295.35 175.508 295.124 175.602 294.957 175.769C294.79 175.936 294.696 176.162 294.696 176.398ZM440.436 197.883H324.222V177.288H440.436V197.883ZM441.326 210.833H295.586C295.35 210.833 295.124 210.927 294.957 211.094C294.79 211.261 294.696 211.487 294.696 211.723V234.098C294.696 234.334 294.79 234.56 294.957 234.727C295.124 234.894 295.35 234.987 295.586 234.987H441.326C441.562 234.987 441.788 234.894 441.955 234.727C442.122 234.56 442.216 234.334 442.216 234.098V211.723C442.216 211.487 442.122 211.261 441.955 211.094C441.788 210.927 441.562 210.833 441.326 210.833ZM440.436 233.208H324.222V212.613H440.436V233.208ZM407.277 250.093H334.73C333.662 250.093 332.79 250.947 332.79 252.015V277.549C332.79 278.635 333.662 279.489 334.73 279.489H407.277C408.345 279.489 409.216 278.635 409.216 277.549V252.015C409.216 250.947 408.345 250.093 407.277 250.093ZM389.767 265.681H352.239C351.741 265.681 351.35 265.289 351.35 264.791C351.35 264.293 351.741 263.901 352.239 263.901H389.767C390.266 263.901 390.657 264.293 390.657 264.791C390.657 265.289 390.266 265.681 389.767 265.681Z" fill="white"/>
<path d="M338.509 191.947C340.911 191.947 342.869 189.989 342.869 187.587C342.869 185.185 340.911 183.228 338.509 183.228C336.089 183.228 334.132 185.185 334.132 187.587C334.132 189.989 336.089 191.947 338.509 191.947ZM354.339 191.947C356.741 191.947 358.699 189.989 358.699 187.587C358.699 185.185 356.741 183.228 354.339 183.228C351.919 183.228 349.962 185.185 349.962 187.587C349.962 189.989 351.919 191.947 354.339 191.947ZM370.165 191.947C372.567 191.947 374.525 189.989 374.525 187.587C374.525 185.185 372.567 183.228 370.165 183.228C367.745 183.228 365.788 185.185 365.788 187.587C365.788 189.989 367.745 191.947 370.165 191.947ZM385.995 191.947C388.397 191.947 390.355 189.989 390.355 187.587C390.355 185.185 388.397 183.228 385.995 183.228C383.575 183.228 381.618 185.185 381.618 187.587C381.618 189.989 383.575 191.947 385.995 191.947ZM401.821 191.947C404.223 191.947 406.181 189.989 406.181 187.587C406.181 185.185 404.223 183.228 401.821 183.228C399.401 183.228 397.444 185.185 397.444 187.587C397.444 189.989 399.401 191.947 401.821 191.947ZM417.651 191.947C420.053 191.947 422.01 189.989 422.01 187.587C422.01 185.185 420.053 183.228 417.651 183.228C415.231 183.228 413.273 185.185 413.273 187.587C413.273 189.989 415.231 191.947 417.651 191.947ZM338.509 227.27C340.911 227.27 342.869 225.313 342.869 222.911C342.869 220.508 340.911 218.551 338.509 218.551C336.089 218.551 334.132 220.508 334.132 222.911C334.132 225.313 336.089 227.27 338.509 227.27ZM354.339 227.27C356.741 227.27 358.699 225.313 358.699 222.911C358.699 220.508 356.741 218.551 354.339 218.551C351.919 218.551 349.962 220.508 349.962 222.911C349.962 225.313 351.919 227.27 354.339 227.27ZM370.165 227.27C372.567 227.27 374.525 225.313 374.525 222.911C374.525 220.508 372.567 218.551 370.165 218.551C367.745 218.551 365.788 220.508 365.788 222.911C365.788 225.313 367.745 227.27 370.165 227.27ZM385.995 227.27C388.397 227.27 390.355 225.313 390.355 222.911C390.355 220.508 388.397 218.551 385.995 218.551C383.575 218.551 381.618 220.508 381.618 222.911C381.618 225.313 383.575 227.27 385.995 227.27ZM401.821 227.27C404.223 227.27 406.181 225.313 406.181 222.911C406.181 220.508 404.223 218.551 401.821 218.551C399.401 218.551 397.444 220.508 397.444 222.911C397.444 225.313 399.401 227.27 401.821 227.27ZM417.651 227.27C420.053 227.27 422.01 225.313 422.01 222.911C422.01 220.508 420.053 218.551 417.651 218.551C415.231 218.551 413.273 220.508 413.273 222.911C413.273 225.313 415.231 227.27 417.651 227.27ZM200.188 131.655C200.191 131.924 200.247 132.189 200.354 132.437C200.46 132.684 200.614 132.908 200.807 133.096C200.999 133.283 201.227 133.431 201.477 133.531C201.727 133.631 201.994 133.68 202.263 133.677C202.532 133.673 202.798 133.617 203.045 133.511C203.293 133.405 203.516 133.251 203.704 133.058C203.892 132.865 204.04 132.637 204.14 132.387C204.24 132.137 204.289 131.87 204.286 131.601C204.278 131.058 204.056 130.54 203.667 130.161C203.278 129.782 202.754 129.573 202.211 129.58C201.668 129.587 201.149 129.809 200.77 130.199C200.391 130.588 200.182 131.111 200.189 131.655H200.188ZM202.405 144.249C202.131 144.246 201.859 144.297 201.606 144.4C201.352 144.503 201.122 144.656 200.928 144.849C200.734 145.043 200.581 145.273 200.478 145.527C200.375 145.78 200.324 146.052 200.327 146.326C200.331 146.599 200.389 146.87 200.499 147.121C200.609 147.371 200.768 147.598 200.966 147.786C201.165 147.974 201.399 148.121 201.655 148.218C201.912 148.314 202.185 148.358 202.458 148.347C202.992 148.326 203.496 148.098 203.864 147.71C204.232 147.322 204.434 146.807 204.427 146.272C204.42 145.738 204.205 145.228 203.827 144.85C203.449 144.472 202.939 144.257 202.405 144.249ZM202.6 158.921C202.331 158.924 202.066 158.981 201.819 159.087C201.571 159.193 201.348 159.347 201.16 159.539C200.972 159.732 200.824 159.96 200.725 160.21C200.625 160.459 200.575 160.727 200.579 160.995C200.582 161.264 200.639 161.53 200.745 161.777C200.851 162.024 201.005 162.248 201.198 162.436C201.39 162.624 201.618 162.772 201.868 162.871C202.118 162.971 202.385 163.02 202.654 163.017C203.197 163.01 203.716 162.787 204.095 162.398C204.474 162.009 204.683 161.485 204.676 160.941C204.669 160.398 204.446 159.879 204.057 159.5C203.668 159.121 203.144 158.912 202.6 158.919V158.921ZM203.043 192.358C203.312 192.354 203.578 192.298 203.825 192.192C204.072 192.086 204.296 191.932 204.484 191.739C204.672 191.546 204.82 191.319 204.919 191.069C205.019 190.819 205.068 190.552 205.065 190.283C205.061 190.014 205.005 189.748 204.899 189.501C204.793 189.254 204.639 189.03 204.446 188.843C204.253 188.655 204.026 188.507 203.776 188.407C203.526 188.308 203.259 188.258 202.99 188.262C202.447 188.269 201.929 188.491 201.55 188.88C201.171 189.269 200.962 189.793 200.969 190.336C200.976 190.88 201.198 191.398 201.587 191.777C201.977 192.156 202.5 192.365 203.043 192.358ZM203.237 207.029C203.781 207.022 204.299 206.799 204.678 206.41C205.058 206.021 205.267 205.497 205.26 204.953C205.253 204.41 205.03 203.892 204.641 203.512C204.251 203.133 203.727 202.924 203.184 202.931C202.915 202.935 202.649 202.991 202.402 203.097C202.155 203.204 201.931 203.357 201.743 203.55C201.364 203.939 201.155 204.463 201.162 205.007C201.169 205.55 201.392 206.069 201.781 206.448C202.17 206.827 202.694 207.036 203.237 207.029ZM203.378 217.603C203.109 217.606 202.843 217.663 202.596 217.769C202.349 217.875 202.125 218.029 201.938 218.222C201.75 218.415 201.602 218.642 201.503 218.892C201.403 219.142 201.354 219.409 201.357 219.678C201.361 219.947 201.418 220.213 201.524 220.46C201.63 220.707 201.784 220.931 201.977 221.118C202.17 221.306 202.397 221.454 202.647 221.553C202.897 221.653 203.164 221.702 203.433 221.699C203.976 221.692 204.495 221.469 204.874 221.08C205.253 220.691 205.462 220.167 205.455 219.624C205.448 219.081 205.225 218.563 204.836 218.184C204.447 217.804 203.923 217.595 203.38 217.603H203.378ZM256.615 176.51C256.677 176.386 256.732 176.265 256.775 176.144C256.203 176.375 255.594 176.499 254.978 176.51C252.906 176.51 252.026 174.847 253.02 172.788C253.198 172.419 253.43 172.058 253.697 171.724C251.099 171.914 248.127 173.984 246.899 176.51C245.609 179.171 246.748 181.324 249.422 181.324C252.109 181.324 255.332 179.171 256.615 176.51ZM538.474 196.888H540.591C558.195 196.888 570.343 179.133 564.115 162.812C560.444 153.079 551.241 146.566 540.591 146.566C537.931 146.554 535.136 146.36 535.317 146.367C521.279 146.367 509.95 157.819 509.95 171.709C509.95 186.714 523.06 198.75 538.474 196.888ZM511.733 171.713C511.733 165.656 514.053 160.141 517.825 155.961C531.913 140.374 557.599 149.609 558.83 170.25C559.717 182.21 550.778 193.917 537.424 195.194C523.745 196.442 511.733 185.562 511.733 171.713Z" fill="white"/>
<path d="M545.284 174.962C548.261 171.969 548.375 167.136 545.528 164.157C544.213 162.796 542.439 161.972 540.55 161.846C538.661 161.72 536.793 162.3 535.309 163.474C532.376 161.15 527.935 161.214 525.091 164.157C522.244 167.136 522.356 171.969 525.335 174.962L532.755 182.365C534.129 183.77 536.48 183.781 537.862 182.365L545.284 174.962ZM98.4975 75.955L103.774 84.7756C104.238 85.5479 104.686 85.0674 111.244 85.2151C112.112 85.2151 111.742 84.9215 117.294 75.9443C127.952 73.2076 135.36 63.661 135.36 52.5983C135.36 39.2793 124.474 28.4586 111.244 28.4586C109.815 28.8092 89.0595 25.1845 81.9898 44.0535C76.8686 57.239 84.6412 72.4887 98.4975 75.955ZM133.581 52.6001C133.581 62.9634 126.563 71.889 116.514 74.3055C116.399 74.3332 116.291 74.3837 116.195 74.454C116.1 74.5243 116.02 74.6129 115.959 74.7147L111.261 82.5442L106.549 74.6791C106.485 74.5739 106.4 74.4826 106.3 74.4105C106.2 74.3384 106.086 74.287 105.966 74.2592C96.2217 72.0189 88.9278 63.0079 88.9278 52.6001C88.9278 22.2787 133.581 23.6844 133.581 52.6001ZM518.58 60.7979C528.15 66.3746 536.722 64.7393 540.051 65.0329C557.742 65.4528 572.141 51.189 572.141 33.7506C572.141 24.035 567.685 15.3371 560.73 9.60562C549.74 0.537678 536.876 2.81534 534.257 2.48615C534.008 2.48615 533.741 2.48615 533.492 2.50394C520.733 2.77085 509.541 10.7071 505.021 22.6826C499.557 37.0479 505.484 53.23 518.58 60.7979ZM570.354 33.7417C570.354 59.0345 540.015 72.9656 520.949 55.5575C511.646 47.0571 509.091 34.0211 513.224 23.3054C524.744 -7.35228 570.354 0.991437 570.354 33.7417Z" fill="white"/>
<path d="M534.914 16.5596C530.423 11.9509 522.867 17.1468 526.471 20.8516L529.946 24.4229L531.074 30.5423L530.798 31.0619C529.782 30.3555 528.391 30.3946 527.478 31.2772L523.083 35.5478C522.05 36.5621 522.033 38.2348 523.029 39.2846L536.499 53.1107C537.514 54.1606 539.186 54.1784 540.236 53.1641C543.012 49.9131 546.397 48.6355 545.14 45.8987C550.158 43.7866 546.614 46.4201 559.182 34.2577C561.329 32.1634 560.337 28.6543 557.516 28.0048C558.92 25.7912 557.719 22.9032 555.189 22.4103C555.536 21.715 555.653 20.927 555.521 20.1609C555.39 19.3948 555.018 18.6905 554.459 18.1504C554.014 17.7258 553.469 17.4209 552.874 17.2644C552.28 17.1078 551.655 17.1047 551.059 17.2553C551.032 16.7349 550.894 16.2244 550.656 15.7611C550.417 15.2978 550.082 14.8906 549.674 14.5666C548.242 13.4314 546.138 13.5666 544.786 14.8851L538.218 21.2786C536.06 17.1166 537.435 19.3391 534.914 16.5596ZM539.523 48.0394C539.189 48.366 538.74 48.5475 538.273 48.5442C537.807 48.5409 537.36 48.353 537.031 48.0216C536.707 47.6858 536.529 47.2354 536.535 46.7686C536.542 46.3019 536.733 45.8567 537.067 45.5304C537.231 45.3667 537.426 45.2372 537.64 45.1494C537.855 45.0616 538.085 45.0172 538.316 45.0189C538.548 45.0205 538.777 45.0682 538.99 45.159C539.203 45.2499 539.397 45.3822 539.558 45.5482C540.234 46.2599 540.217 47.3632 539.523 48.0394ZM548.566 15.9617C549.484 16.6895 549.505 18.008 548.715 18.7803L546.06 21.364C545.934 21.4879 545.847 21.6466 545.811 21.82C545.775 21.9933 545.791 22.1735 545.858 22.3375C545.925 22.5014 546.039 22.6418 546.186 22.7406C546.333 22.8395 546.506 22.8924 546.683 22.8926C547.32 22.8926 547.397 22.437 549.838 20.17C550.016 20.074 551.621 17.8728 553.219 19.4262C554.94 21.0864 552.431 22.8178 551.934 23.3766C550.482 25.0741 548.414 26.0208 549.425 27.06C551.03 28.7059 553.342 21.9886 555.867 24.7325C556.546 25.4709 556.477 26.6774 555.712 27.423L554.144 28.9497L551.607 31.4178C551.438 31.5823 551.341 31.8072 551.337 32.0431C551.334 32.279 551.424 32.5066 551.589 32.6758C552.614 33.7257 553.653 31.6331 555.383 30.2256C557.139 28.5138 559.844 31.1242 557.938 32.9837L547.768 42.8844L543.978 44.4538L532.149 32.3093L532.789 31.101C532.883 30.9238 532.915 30.72 532.878 30.5227C531.165 21.5865 532.729 24.7912 527.745 19.6113C525.956 17.7714 530.777 14.862 533.636 17.7998L535.314 19.5223C536.414 21.1914 537.232 24.7343 538.596 23.3944C544.695 18.1023 546.368 14.2143 548.566 15.9617ZM100.46 61.3744C100.372 61.9883 100.82 62.5488 101.439 62.5488H121.04C121.621 62.5488 122.107 62.0488 122.029 61.4722C121.677 58.8598 120.389 56.4637 118.405 54.7284C116.421 52.9931 113.874 52.0365 111.238 52.036C108.619 52.0362 106.088 52.9804 104.108 54.6956C102.129 56.4107 100.834 58.7819 100.46 61.3744Z" fill="white"/>
<path d="M111.238 50.6906C114.288 50.6906 116.76 48.2185 116.76 45.169C116.76 42.1195 114.288 39.6475 111.238 39.6475C108.189 39.6475 105.717 42.1195 105.717 45.169C105.717 48.2185 108.189 50.6906 111.238 50.6906Z" fill="white"/>
<path d="M568.896 84.5514C569.389 84.5511 569.878 84.4535 570.334 84.2642C570.79 84.0749 571.204 83.7977 571.553 83.4483C571.902 83.0989 572.179 82.6842 572.368 82.2279C572.556 81.7716 572.653 81.2826 572.653 80.7888C572.652 80.2951 572.555 79.8062 572.366 79.3502C572.176 78.8941 571.899 78.4798 571.55 78.1309C571.2 77.782 570.786 77.5054 570.329 77.3167C569.873 77.1281 569.384 77.0312 568.89 77.0316C567.893 77.0323 566.937 77.4291 566.232 78.1347C565.528 78.8403 565.132 79.797 565.133 80.7942C565.134 81.7914 565.53 82.7474 566.236 83.452C566.942 84.1567 567.898 84.5521 568.896 84.5514ZM607.194 205.07C607.688 205.07 608.177 204.972 608.633 204.783C609.089 204.593 609.503 204.316 609.852 203.967C610.201 203.617 610.477 203.203 610.666 202.746C610.855 202.29 610.952 201.801 610.951 201.307C610.951 200.814 610.853 200.325 610.664 199.869C610.475 199.413 610.198 198.998 609.848 198.65C609.499 198.301 609.084 198.024 608.628 197.835C608.171 197.647 607.682 197.55 607.189 197.55C606.192 197.551 605.235 197.948 604.531 198.653C603.826 199.359 603.431 200.316 603.431 201.313C603.432 202.31 603.829 203.266 604.535 203.971C605.24 204.675 606.197 205.071 607.194 205.07ZM636.861 163.832C636.733 163.634 636.533 163.494 636.303 163.443C636.073 163.392 635.832 163.434 635.633 163.56C633.898 164.666 632.233 165.879 630.649 167.191C630.469 167.343 630.356 167.559 630.335 167.793C630.314 168.026 630.386 168.259 630.536 168.44C630.686 168.621 630.901 168.735 631.135 168.758C631.369 168.781 631.602 168.71 631.784 168.562C633.312 167.297 634.916 166.128 636.588 165.061C636.787 164.935 636.928 164.734 636.979 164.504C637.03 164.274 636.987 164.033 636.861 163.834V163.832ZM549.201 119.791C549.2 118.794 548.803 117.838 548.098 117.133C547.392 116.429 546.435 116.033 545.438 116.034C544.441 116.035 543.485 116.431 542.78 117.137C542.076 117.843 541.68 118.799 541.681 119.796C541.681 120.794 542.078 121.75 542.784 122.455C543.489 123.159 544.445 123.555 545.443 123.555C546.44 123.554 547.396 123.158 548.101 122.452C548.806 121.747 549.201 120.788 549.201 119.791ZM383.09 3.98622L385.791 1.56086C385.88 1.4834 385.953 1.38901 386.005 1.28317C386.057 1.17734 386.088 1.06218 386.095 0.944408C386.102 0.826633 386.086 0.708593 386.047 0.597156C386.008 0.485719 385.948 0.383111 385.869 0.295309C385.79 0.207508 385.695 0.136268 385.588 0.0857308C385.481 0.0351933 385.366 0.00637144 385.248 0.000942337C385.13 -0.00448677 385.012 0.0135837 384.901 0.0541057C384.791 0.0946276 384.689 0.15679 384.602 0.236973L381.901 2.66233C381.812 2.73979 381.739 2.83418 381.687 2.94001C381.635 3.04585 381.604 3.16101 381.597 3.27878C381.59 3.39656 381.606 3.5146 381.645 3.62603C381.684 3.73747 381.744 3.84008 381.823 3.92788C381.902 4.01568 381.998 4.08692 382.104 4.13746C382.211 4.188 382.326 4.21682 382.444 4.22225C382.562 4.22768 382.68 4.20961 382.791 4.16908C382.902 4.12856 383.003 4.0664 383.09 3.98622ZM450.343 18.5152C451.34 18.5159 452.297 18.1205 453.003 17.4158C453.708 16.7112 454.105 15.7552 454.106 14.758C454.106 13.7608 453.711 12.8041 453.006 12.0985C452.302 11.3929 451.346 10.9961 450.349 10.9954C449.351 10.9947 448.395 11.3901 447.689 12.0947C446.983 12.7994 446.587 13.7554 446.586 14.7526C446.585 15.7498 446.981 16.7064 447.685 17.4121C448.39 18.1177 449.346 18.5145 450.343 18.5152ZM162.351 47.2013C162.844 47.201 163.333 47.1034 163.789 46.9141C164.245 46.7248 164.66 46.4476 165.008 46.0982C165.357 45.7488 165.634 45.3341 165.823 44.8778C166.011 44.4215 166.108 43.9325 166.108 43.4387C166.107 42.9449 166.01 42.4561 165.821 42C165.631 41.544 165.354 41.1297 165.005 40.7808C164.655 40.4319 164.241 40.1553 163.784 39.9666C163.328 39.778 162.839 39.6811 162.345 39.6815C161.348 39.6822 160.392 40.079 159.687 40.7846C158.983 41.4902 158.587 42.4469 158.588 43.4441C158.589 44.4412 158.985 45.3973 159.691 46.1019C160.397 46.8066 161.353 47.202 162.351 47.2013ZM117.66 103.94C117.66 104.937 118.055 105.894 118.76 106.6C119.465 107.306 120.421 107.703 121.418 107.703C122.416 107.704 123.373 107.309 124.079 106.604C124.784 105.899 125.181 104.943 125.182 103.945C125.183 102.948 124.787 101.991 124.082 101.285C123.378 100.579 122.421 100.183 121.424 100.182C120.426 100.181 119.47 100.577 118.764 101.281C118.058 101.986 117.661 102.943 117.66 103.94ZM71.8775 166.127C71.9878 166.078 72.0869 166.007 72.1689 165.919C72.2509 165.83 72.3139 165.725 72.3542 165.612C72.3945 165.498 72.4113 165.377 72.4034 165.257C72.3956 165.136 72.3633 165.019 72.3085 164.911C72.2538 164.803 72.1777 164.708 72.0849 164.631C71.9921 164.554 71.8846 164.496 71.7689 164.462C71.6531 164.427 71.5316 164.417 71.4117 164.431C71.2918 164.445 71.176 164.483 71.0714 164.544C67.822 166.197 64.7659 168.205 61.959 170.531C61.7773 170.682 61.6629 170.898 61.6409 171.133C61.6188 171.368 61.691 171.602 61.8416 171.784C62.9786 173.152 63.6637 170.304 71.8775 166.126V166.127ZM56.288 243.986C56.7817 243.986 57.2706 243.888 57.7266 243.699C58.1827 243.51 58.597 243.232 58.9459 242.883C59.2948 242.533 59.5714 242.119 59.7601 241.662C59.9487 241.206 60.0456 240.717 60.0452 240.223C60.0449 239.73 59.9473 239.241 59.758 238.785C59.5687 238.329 59.2915 237.914 58.9421 237.566C58.5927 237.217 58.178 236.94 57.7217 236.751C57.2654 236.563 56.7764 236.466 56.2826 236.466C55.2855 236.467 54.3294 236.864 53.6248 237.569C52.9201 238.275 52.5247 239.232 52.5254 240.229C52.5261 241.226 52.9229 242.182 53.6285 242.887C54.3342 243.591 55.2908 243.987 56.288 243.986ZM101.126 206.367L98.4247 208.789C97.5457 209.579 98.7415 210.901 99.6134 210.115L102.313 207.691C102.405 207.615 102.481 207.52 102.536 207.414C102.591 207.308 102.624 207.191 102.633 207.072C102.642 206.952 102.626 206.832 102.588 206.719C102.549 206.605 102.488 206.501 102.408 206.412C102.328 206.322 102.231 206.25 102.122 206.2C102.014 206.149 101.896 206.121 101.776 206.116C101.657 206.112 101.537 206.132 101.426 206.175C101.314 206.218 101.212 206.284 101.126 206.367ZM513.764 212.325C513.657 212.535 513.638 212.779 513.711 213.003C513.784 213.227 513.943 213.413 514.153 213.52C517.285 215.116 520.231 217.052 522.937 219.295C523.026 219.37 523.13 219.427 523.242 219.463C523.354 219.498 523.472 219.511 523.589 219.5C523.706 219.489 523.82 219.456 523.924 219.401C524.027 219.347 524.12 219.272 524.194 219.182C524.269 219.091 524.326 218.987 524.36 218.875C524.394 218.762 524.406 218.644 524.395 218.528C524.383 218.411 524.349 218.297 524.294 218.194C524.238 218.09 524.163 217.999 524.072 217.925C521.265 215.598 518.21 213.589 514.961 211.935C514.857 211.881 514.743 211.848 514.627 211.838C514.51 211.829 514.392 211.842 514.281 211.879C514.169 211.915 514.066 211.973 513.977 212.05C513.888 212.126 513.816 212.22 513.764 212.325ZM596.744 409.937C596.744 410.934 597.14 411.89 597.845 412.596C598.55 413.301 599.506 413.697 600.503 413.697C601.501 413.697 602.457 413.301 603.162 412.596C603.867 411.89 604.263 410.934 604.263 409.937C604.263 404.954 596.744 404.978 596.744 409.937ZM352.26 355.753C351.262 355.753 350.306 356.148 349.6 356.853C348.895 357.557 348.498 358.513 348.497 359.511C348.496 360.508 348.892 361.464 349.596 362.17C350.301 362.876 351.257 363.273 352.254 363.273C352.748 363.274 353.237 363.177 353.693 362.988C354.15 362.799 354.564 362.523 354.914 362.174C355.263 361.825 355.54 361.411 355.73 360.955C355.919 360.499 356.016 360.01 356.017 359.516C356.017 359.022 355.92 358.533 355.732 358.077C355.543 357.621 355.266 357.206 354.917 356.857C354.569 356.507 354.154 356.23 353.698 356.041C353.242 355.851 352.753 355.754 352.26 355.753ZM279.656 321.59C276.406 323.245 273.349 325.253 270.541 327.58C270.45 327.654 270.375 327.745 270.32 327.849C270.264 327.952 270.23 328.066 270.218 328.183C270.207 328.3 270.219 328.418 270.253 328.53C270.288 328.642 270.344 328.746 270.419 328.837C270.494 328.927 270.586 329.002 270.69 329.056C270.793 329.111 270.907 329.145 271.024 329.155C271.141 329.166 271.259 329.153 271.371 329.118C271.483 329.083 271.587 329.025 271.677 328.95C274.383 326.709 277.329 324.772 280.46 323.176C280.568 323.125 280.664 323.053 280.743 322.964C280.823 322.876 280.884 322.772 280.922 322.659C280.961 322.547 280.977 322.427 280.968 322.308C280.96 322.19 280.928 322.074 280.874 321.968C280.82 321.861 280.745 321.767 280.654 321.69C280.563 321.614 280.457 321.556 280.344 321.521C280.23 321.486 280.11 321.474 279.992 321.486C279.873 321.497 279.76 321.533 279.656 321.59ZM244.596 264.357C241.346 266.011 238.29 268.02 235.483 270.346C235.392 270.421 235.317 270.512 235.261 270.616C235.206 270.719 235.171 270.833 235.16 270.949C235.149 271.066 235.161 271.184 235.195 271.296C235.229 271.409 235.286 271.513 235.361 271.603C235.435 271.694 235.527 271.768 235.631 271.823C235.735 271.878 235.849 271.911 235.966 271.922C236.083 271.932 236.201 271.92 236.313 271.884C236.425 271.849 236.529 271.792 236.618 271.717C239.324 269.474 242.27 267.538 245.402 265.944C245.612 265.837 245.771 265.651 245.845 265.427C245.918 265.202 245.899 264.958 245.792 264.747C245.685 264.537 245.499 264.378 245.275 264.304C245.05 264.231 244.806 264.25 244.596 264.357ZM242.469 74.4336C245.175 72.1903 248.121 70.2537 251.254 68.6594C251.465 68.5525 251.624 68.3664 251.697 68.1419C251.77 67.9175 251.752 67.6732 251.645 67.4627C251.538 67.2522 251.352 67.0928 251.127 67.0196C250.903 66.9463 250.659 66.9652 250.448 67.0721C247.2 68.7269 244.144 70.735 241.336 73.0599C241.245 73.1343 241.171 73.2258 241.116 73.329C241.061 73.4323 241.027 73.5454 241.016 73.6618C241.005 73.7782 241.017 73.8957 241.051 74.0075C241.085 74.1193 241.141 74.2233 241.216 74.3135C241.29 74.4037 241.381 74.4783 241.485 74.5332C241.588 74.5881 241.701 74.622 241.817 74.6332C241.934 74.6443 242.051 74.6325 242.163 74.5982C242.275 74.564 242.379 74.508 242.469 74.4336ZM229.953 25.656C233.085 27.2508 236.031 29.1874 238.738 31.4303C238.827 31.5098 238.931 31.5705 239.045 31.6088C239.158 31.6471 239.278 31.6621 239.397 31.653C239.516 31.6439 239.632 31.6109 239.739 31.5559C239.845 31.501 239.939 31.4251 240.015 31.333C240.091 31.2409 240.148 31.1343 240.182 31.0197C240.216 30.9051 240.227 30.7848 240.214 30.666C240.2 30.5472 240.163 30.4323 240.104 30.3282C240.045 30.2241 239.966 30.1329 239.871 30.0601C237.064 27.7332 234.009 25.7239 230.76 24.0688C230.55 23.9617 230.306 23.9425 230.081 24.0156C229.856 24.0887 229.67 24.248 229.563 24.4585C229.456 24.669 229.437 24.9134 229.51 25.138C229.583 25.3626 229.742 25.5489 229.953 25.656ZM195.193 15.024C196.056 15.798 197.272 14.4973 196.382 13.7001L193.683 11.2747C193.596 11.1946 193.494 11.1324 193.384 11.0919C193.273 11.0513 193.155 11.0333 193.037 11.0387C192.919 11.0441 192.804 11.073 192.697 11.1235C192.59 11.174 192.495 11.2453 192.416 11.3331C192.337 11.4209 192.277 11.5235 192.238 11.6349C192.199 11.7464 192.183 11.8644 192.19 11.9822C192.197 12.0999 192.228 12.2151 192.28 12.3209C192.332 12.4268 192.405 12.5212 192.494 12.5986L195.193 15.024Z" fill="white"/>
</svg>
