<svg width="524" height="539" viewBox="0 0 524 539" fill="none" xmlns="http://www.w3.org/2000/svg">
<path d="M369.909 177.954L478.764 198.79C486.114 200.196 494.951 201.264 500.194 196.707C504.502 192.962 504.327 187.077 503.874 181.879L501.576 155.477C502.139 160.377 504.64 165.684 503.436 170.501C502.232 175.318 501.196 184.846 495.936 187.001C492.44 188.434 482.325 187.061 478.436 187.001C471.416 186.892 466.372 182.479 459.421 181.647L390.974 173.45L373.708 171.383C369.611 170.893 362.009 168.46 358.134 168.807C346.154 169.88 366.161 177.237 369.909 177.955V177.954ZM116.982 400.001C120.017 399.359 123.808 397.599 123.36 394.529C122.97 391.862 119.657 390.902 116.972 390.663C100.968 389.236 84.9708 392.467 69.0498 394.638C58.0638 396.136 46.8348 397.134 35.7828 395.723C31.1868 395.136 25.4808 394.981 32.1878 398.349C36.7598 400.645 43.8478 400.953 48.8408 401.737C71.4108 405.279 94.6258 404.725 116.982 400.001Z" fill="white"/>
<path d="M316.21 133.392C314.114 131.746 313.926 125.887 316.958 124.992C318.932 124.295 322.046 124.942 323.518 124.792C325.763 124.564 327.648 123.557 327.898 122.452C328.068 121.696 327.381 120.885 326.624 120.418C325.518 119.738 323.991 119.424 322.514 119.12C318.358 118.262 315.344 117.9 312.318 120.37C310.742 121.655 310.259 124.397 309.526 126.673C309.467 126.862 309.371 127.037 309.244 127.189C309.117 127.341 308.96 127.466 308.785 127.557C308.609 127.648 308.416 127.703 308.219 127.72C308.021 127.736 307.823 127.713 307.634 127.652C307.446 127.592 307.271 127.494 307.12 127.365C306.97 127.237 306.846 127.079 306.757 126.903C306.667 126.726 306.613 126.533 306.599 126.336C306.584 126.138 306.609 125.94 306.671 125.752C307.516 123.142 308.025 119.999 310.421 118.045C314.309 114.872 318.156 115.157 323.121 116.181C324.771 116.521 326.641 116.906 328.197 117.864C330.227 119.115 331.257 121.175 330.825 123.111C330.148 126.098 326.629 127.491 323.819 127.778C322.085 127.952 319.177 127.394 317.909 127.838C317.508 128.384 317.617 130.542 318.089 131.055C318.74 131.567 318.841 132.499 318.329 133.15C317.82 133.8 316.864 133.906 316.209 133.392H316.21ZM317.934 127.806L317.919 127.825L317.926 127.822H317.925C317.922 127.822 317.929 127.812 317.935 127.806H317.934ZM323.095 151.813C322.95 151.679 322.833 151.519 322.749 151.34C322.666 151.162 322.619 150.968 322.611 150.771C322.602 150.575 322.633 150.378 322.7 150.193C322.768 150.008 322.871 149.838 323.004 149.693C329.321 142.803 332.492 139.345 339.12 131.24C340.014 130.147 341.028 128.908 341.241 127.738C341.38 126.975 341.003 126.048 340.153 125.881C338.793 125.614 337.289 127.03 337.169 127.101C334.339 129.315 333.913 129.76 332.186 131.838C331.67 132.459 331.447 133.134 331.642 133.42C331.781 133.553 332.342 133.599 332.509 133.476C332.918 132.754 333.812 132.529 334.532 132.934C335.254 133.342 335.487 134.283 335.079 135.004C334.563 135.917 333.537 136.492 332.335 136.543C328.895 136.687 327.25 133.082 329.842 129.966C332.055 127.299 332.668 126.813 335.773 124.384C337.34 123.152 339.151 122.625 340.731 122.938C343.409 123.464 344.594 126.064 344.192 128.275C343.841 130.208 342.566 131.765 341.442 133.14C334.761 141.31 331.57 144.79 325.215 151.72C325.082 151.865 324.922 151.983 324.743 152.066C324.565 152.149 324.372 152.197 324.175 152.205C323.978 152.214 323.781 152.184 323.596 152.116C323.411 152.049 323.241 151.946 323.095 151.813Z" fill="white"/>
<path d="M323.371 130.097C323.359 128.103 324.704 125.696 326.012 124.52C326.308 124.254 326.697 124.117 327.095 124.138C327.492 124.159 327.865 124.337 328.131 124.633C328.397 124.929 328.534 125.318 328.513 125.715C328.492 126.113 328.314 126.485 328.018 126.751C326.806 127.841 326.14 129.976 326.422 130.376C327.485 131.303 329.667 130.323 330.397 129.281C330.626 128.956 330.974 128.734 331.366 128.665C331.758 128.596 332.161 128.686 332.487 128.914C332.813 129.143 333.035 129.491 333.104 129.883C333.172 130.275 333.083 130.679 332.854 131.004C331.873 132.404 329.999 133.49 328.192 133.709C325.812 133.999 323.392 132.711 323.372 130.097H323.371ZM339.149 125.53C338.833 125.306 338.616 124.969 338.543 124.588C338.47 124.208 338.547 123.814 338.758 123.489C338.813 123.209 338.594 122.363 338.236 121.883C337.867 121.386 336.202 120.349 335.641 120.339C334.889 120.434 334.218 119.957 334.031 119.222C333.865 118.584 333.611 118.208 332.609 117.801C331.432 117.321 329.306 117.009 328.43 117.341C327.102 117.848 325.87 116.371 326.622 115.152C327.918 113.048 337.439 97.6763 337.617 95.2163C337.743 93.4523 335.817 93.4293 334.423 94.3213C333.019 95.2193 333.356 95.0653 316.923 117.738C316.69 118.061 316.338 118.277 315.945 118.34C315.552 118.403 315.15 118.307 314.828 118.073C314.506 117.84 314.29 117.488 314.227 117.095C314.164 116.702 314.26 116.301 314.493 115.978C330.889 93.3563 330.76 93.1033 332.805 91.7943C336.678 89.3173 340.898 91.4293 340.609 95.4313C340.514 96.7493 339.959 97.9263 339.35 99.1163C336.737 104.221 333.684 109.364 330.677 114.282C332.997 114.543 335.562 115.365 336.577 117.478C338.252 117.924 340.083 119.339 340.643 120.092C341.343 121.034 342.412 123.516 341.24 125.172C341.01 125.497 340.661 125.717 340.269 125.784C339.877 125.851 339.475 125.76 339.15 125.53H339.149Z" fill="white"/>
<path d="M325.794 126.713C325.665 126.564 325.567 126.391 325.505 126.204C325.443 126.017 325.418 125.82 325.433 125.623C325.447 125.427 325.5 125.235 325.588 125.059C325.677 124.883 325.799 124.726 325.948 124.597C326.89 123.783 333.174 118.469 334.19 117.592C334.492 117.338 334.881 117.214 335.275 117.245C335.668 117.276 336.033 117.461 336.291 117.76C336.548 118.058 336.678 118.446 336.652 118.84C336.626 119.233 336.446 119.6 336.151 119.862C335.21 120.676 328.925 125.99 327.909 126.867C327.608 127.127 327.216 127.257 326.82 127.228C326.423 127.199 326.054 127.014 325.794 126.713Z" fill="white"/>
<path d="M267.453 202.975C264.771 196.711 263.821 189.84 264.703 183.083C264.899 181.602 265.322 179.933 266.646 179.24C269.484 177.753 274.619 182.137 272.965 190.018C271.612 196.463 266.599 201.97 266.888 208.687M180.152 171.763C181.321 172.156 182.062 173.365 182.258 174.583C182.454 175.801 182.205 177.041 181.958 178.249L178.632 194.453L177.952 179.873C177.87 178.106 175.957 170.353 180.152 171.763ZM266.066 475.785C266.714 475.618 267.41 475.409 267.832 474.803C268.619 473.675 267.904 471.828 266.782 471.215C265.66 470.602 264.355 470.842 263.136 471.078C249.671 473.681 236.394 471.782 223.089 473.202C224.124 483.874 260.049 477.34 266.066 475.785ZM193.621 479.568C194.15 479.4 194.719 479.191 195.064 478.585C195.706 477.457 195.122 475.61 194.206 474.997C193.289 474.385 192.222 474.625 191.226 474.86C180.224 477.464 169.376 475.565 158.505 476.984C159.35 487.656 188.704 481.122 193.62 479.568H193.621Z" fill="white"/>
<path d="M154.282 476.873C153.4 476.823 151.732 476.781 149.323 476.679C144.705 476.485 141.02 472.632 140.933 467.907C140.823 461.855 141.273 456.472 141.47 449.846C141.494 449.018 142.212 448.358 143.013 448.39C143.21 448.396 143.404 448.441 143.584 448.521C143.763 448.602 143.925 448.718 144.06 448.861C144.196 449.004 144.301 449.173 144.371 449.357C144.441 449.541 144.474 449.737 144.468 449.934C144.278 456.421 143.823 461.877 143.933 467.852C143.991 470.993 146.413 473.554 149.448 473.682C151.235 473.756 153.694 473.835 154.45 473.877C154.843 473.905 155.21 474.086 155.471 474.382C155.731 474.678 155.865 475.064 155.843 475.458C155.821 475.851 155.645 476.22 155.353 476.485C155.06 476.75 154.676 476.889 154.282 476.872V476.873ZM160.431 477.165C160.234 477.155 160.042 477.105 159.864 477.02C159.686 476.935 159.527 476.815 159.396 476.669C159.264 476.522 159.163 476.351 159.098 476.165C159.032 475.979 159.004 475.782 159.015 475.585C159.024 475.388 159.072 475.194 159.157 475.016C159.242 474.837 159.361 474.677 159.508 474.546C159.655 474.414 159.828 474.313 160.014 474.248C160.201 474.184 160.399 474.157 160.596 474.17C171.478 474.797 180.503 475.414 191.268 474.833C192.685 474.756 194.178 473.883 193.991 472.497C193.857 471.456 193.522 470.451 193.006 469.537C192.264 468.242 190.551 466.75 187.914 465.104C185.116 463.359 182.596 462.277 179.214 461.369C175.485 460.364 171.856 459.495 168.493 459.912C168.279 459.939 168.061 459.919 167.856 459.854C167.65 459.788 167.46 459.68 167.301 459.535C167.141 459.389 167.014 459.212 166.929 459.013C166.844 458.815 166.803 458.6 166.809 458.384C166.876 455.759 166.65 453.03 166.746 450.655C166.765 450.259 166.94 449.886 167.232 449.617C167.523 449.348 167.909 449.204 168.306 449.217C168.503 449.225 168.696 449.272 168.875 449.355C169.054 449.437 169.215 449.555 169.348 449.699C169.482 449.844 169.585 450.014 169.653 450.199C169.721 450.384 169.752 450.58 169.744 450.777C169.681 452.334 169.758 453.356 169.818 456.81C173.178 456.733 176.548 457.543 179.993 458.472C183.679 459.462 186.434 460.646 189.503 462.559C193.523 465.07 196.338 467.489 196.963 472.094C197.387 475.212 194.737 477.65 191.43 477.829C180.51 478.418 171.474 477.801 160.43 477.165H160.431ZM257.356 464.718C255.411 462.978 252.886 461.978 250.414 462.028C250.278 462.068 250.136 462.088 249.994 462.087H249.384C248.999 462.089 248.628 461.942 248.349 461.678C248.069 461.413 247.901 461.052 247.881 460.667C247.86 460.283 247.988 459.906 248.238 459.613C248.488 459.32 248.841 459.135 249.224 459.095C252.762 458.708 256.558 459.978 259.356 462.483C259.642 462.751 259.812 463.12 259.829 463.512C259.846 463.903 259.709 464.286 259.448 464.578C259.187 464.87 258.822 465.048 258.431 465.074C258.04 465.101 257.654 464.973 257.356 464.718Z" fill="white"/>
<path d="M170.826 212.884C171.22 215.072 173.4 217.022 175.557 216.485C176.992 216.128 177.981 214.867 179.059 213.855C180.138 212.842 181.727 211.996 183.043 212.671C183.411 212.861 183.727 213.158 184.123 213.274C185.35 213.632 186.337 211.965 185.969 210.742C185.276 208.441 180.605 202.622 178.045 202.476C173.864 202.236 170.185 209.323 170.826 212.884ZM160.62 243.081C166.344 244.436 172.29 244.885 177.82 246.928C185.334 249.703 192.786 255.946 201.22 254.892C205.351 254.375 209.433 251.664 210.626 247.549C210.885 246.655 210.956 245.558 210.301 244.914C209.915 244.535 209.366 244.407 208.845 244.294C193.385 240.944 177.864 237.583 162.103 236.479C159.323 236.284 156.505 236.168 153.78 235.526C152.036 235.116 149.409 233.09 148.571 235.487C147.077 239.767 158.101 242.484 160.62 243.081Z" fill="white"/>
<path d="M263.848 172.599C259.265 159.131 260.038 158.225 259.978 144.826C257.788 143.339 255.558 141.911 253.291 140.542C253.117 140.443 252.965 140.311 252.843 140.152C252.721 139.993 252.632 139.811 252.581 139.618C252.531 139.424 252.519 139.222 252.548 139.024C252.577 138.826 252.645 138.635 252.748 138.464C252.852 138.292 252.988 138.143 253.15 138.025C253.312 137.908 253.496 137.823 253.691 137.778C253.886 137.732 254.088 137.726 254.286 137.76C254.483 137.794 254.672 137.867 254.84 137.974C257.381 139.507 259.877 141.115 262.323 142.794C262.522 142.931 262.685 143.114 262.799 143.328C262.912 143.541 262.972 143.779 262.973 144.02C263.074 158.062 262.176 158.375 266.688 171.633C266.811 172.009 266.781 172.417 266.604 172.77C266.428 173.123 266.119 173.393 265.746 173.52C265.372 173.647 264.963 173.622 264.608 173.449C264.253 173.277 263.98 172.972 263.848 172.599ZM210.79 245.703C210.725 245.703 210.66 245.7 210.595 245.691L201.82 244.556C201.621 244.536 201.428 244.475 201.253 244.378C201.078 244.282 200.924 244.151 200.8 243.994C200.676 243.837 200.584 243.657 200.531 243.464C200.478 243.271 200.464 243.069 200.489 242.871C200.515 242.673 200.58 242.481 200.681 242.308C200.782 242.136 200.917 241.985 201.077 241.865C201.237 241.745 201.419 241.658 201.613 241.609C201.808 241.561 202.01 241.552 202.207 241.582L209.189 242.484C208.789 233.996 209.449 224.294 210.937 216.88C206.231 215.387 201.291 213.98 196.5 212.617C191.245 211.121 185.811 209.574 180.674 207.911C180.422 207.83 180.196 207.683 180.02 207.485C179.843 207.288 179.721 207.048 179.667 206.788C177.483 196.243 177.314 184.79 177.437 174.978C177.438 174.781 177.479 174.586 177.556 174.404C177.633 174.222 177.745 174.058 177.886 173.92C178.028 173.782 178.195 173.674 178.378 173.601C178.562 173.528 178.758 173.493 178.955 173.496C179.353 173.501 179.732 173.664 180.01 173.949C180.288 174.233 180.441 174.617 180.436 175.014C180.319 184.399 180.471 195.295 182.432 205.325C187.273 206.871 192.377 208.324 197.322 209.732C202.576 211.228 208.01 212.774 213.147 214.437C213.503 214.552 213.802 214.796 213.988 215.12C214.173 215.445 214.231 215.827 214.149 216.191C212.405 224.006 211.674 234.962 212.287 244.104C212.3 244.309 212.272 244.515 212.202 244.708C212.133 244.901 212.025 245.078 211.885 245.228C211.745 245.378 211.575 245.498 211.387 245.58C211.199 245.662 210.996 245.703 210.79 245.703ZM195.841 243.761C176.753 241.203 162.433 238.966 152.063 236.92C146.751 235.871 142.696 231.273 142.203 225.738C141.162 214.064 140.67 204.146 140.656 194.524C140.656 194.327 140.695 194.132 140.77 193.95C140.845 193.768 140.955 193.603 141.094 193.463C141.233 193.324 141.398 193.213 141.58 193.137C141.762 193.062 141.957 193.023 142.154 193.022H142.156C142.554 193.022 142.935 193.18 143.216 193.461C143.497 193.742 143.656 194.123 143.656 194.52C143.67 204.051 144.158 213.886 145.191 225.47C145.567 229.687 148.631 233.185 152.643 233.976C162.953 236.01 177.213 238.238 196.239 240.788C196.437 240.811 196.629 240.873 196.802 240.971C196.976 241.069 197.128 241.2 197.251 241.357C197.373 241.515 197.463 241.695 197.515 241.887C197.567 242.079 197.58 242.28 197.554 242.477C197.527 242.675 197.462 242.865 197.361 243.037C197.26 243.209 197.126 243.359 196.967 243.479C196.807 243.598 196.626 243.685 196.432 243.733C196.239 243.782 196.038 243.791 195.841 243.761ZM142.202 187.077H142.172C141.975 187.074 141.781 187.031 141.6 186.952C141.42 186.873 141.257 186.76 141.12 186.618C140.983 186.476 140.876 186.308 140.804 186.125C140.732 185.941 140.697 185.745 140.701 185.548C140.856 177.623 141.348 171.045 142.456 162.085C143.111 156.775 145.543 151.903 149.303 148.366C157.527 140.626 166.95 133.812 178.11 127.534C182.542 125.041 185.45 122.161 189.866 119.277C190.105 119.122 190.383 119.037 190.667 119.033C190.952 119.03 191.232 119.107 191.474 119.257C202.881 126.295 216.958 127.861 229.131 123.447C229.332 123.375 229.547 123.346 229.76 123.362C229.974 123.379 230.181 123.441 230.368 123.544C236.78 127.086 243.678 130.526 250.156 134.103C250.504 134.296 250.762 134.619 250.872 135.001C250.982 135.383 250.936 135.794 250.744 136.142C250.551 136.49 250.228 136.748 249.846 136.858C249.464 136.968 249.053 136.922 248.705 136.729C242.479 133.289 235.812 129.955 229.509 126.495C216.925 130.833 202.553 129.277 190.726 122.308C186.781 124.993 184.026 127.649 179.581 130.149C168.636 136.306 159.404 142.979 151.358 150.551C148.108 153.609 146.003 157.836 145.432 162.453C144.34 171.301 143.854 177.793 143.701 185.607C143.693 186 143.532 186.374 143.252 186.648C142.972 186.923 142.595 187.077 142.202 187.077Z" fill="white"/>
<path d="M264.713 275.199C264.648 275.199 264.585 275.199 264.52 275.197C246.893 274.761 228.931 274.151 211.56 273.56C193.867 272.958 175.572 272.337 157.629 271.9C153.516 271.8 150.145 268.499 149.955 264.386C149.587 256.42 149.527 249.836 150.365 241.641C150.385 241.445 150.444 241.255 150.537 241.081C150.631 240.908 150.757 240.755 150.91 240.63C151.063 240.506 151.238 240.413 151.427 240.356C151.616 240.3 151.814 240.281 152.01 240.301C152.206 240.321 152.396 240.379 152.569 240.473C152.742 240.566 152.896 240.693 153.02 240.846C153.144 240.999 153.238 241.174 153.294 241.363C153.351 241.552 153.369 241.75 153.349 241.946C152.53 249.958 152.589 256.419 152.951 264.246C153.069 266.794 155.156 268.838 157.701 268.9C175.66 269.338 193.961 269.96 211.661 270.562C229.026 271.152 246.982 271.762 264.595 272.198C266.011 272.24 267.263 271.703 268.223 270.709C268.693 270.227 269.057 269.653 269.291 269.023C269.525 268.392 269.624 267.72 269.582 267.049C268.882 255.239 268.019 243.699 267.404 231.829C267.386 231.433 267.525 231.045 267.792 230.752C268.058 230.458 268.43 230.282 268.826 230.262C269.222 230.241 269.609 230.379 269.904 230.643C270.199 230.908 270.378 231.279 270.4 231.675C271.012 243.486 271.873 254.998 272.576 266.871C272.639 267.956 272.476 269.042 272.098 270.062C271.721 271.081 271.136 272.011 270.381 272.794C269.645 273.553 268.765 274.158 267.791 274.571C266.817 274.984 265.771 275.197 264.713 275.199ZM266.748 226.687C265.72 217.501 266.058 205.504 267.631 195.378C267.684 195.035 267.855 194.72 268.114 194.49C272.366 190.692 278.331 189.887 282.426 186.836C285.551 184.511 288.862 182.292 292.368 179.942C301 174.156 309.926 168.174 316.252 160.362C316.375 160.206 316.528 160.077 316.702 159.98C316.875 159.884 317.066 159.824 317.263 159.802C317.46 159.78 317.66 159.797 317.85 159.853C318.04 159.909 318.218 160.002 318.372 160.127C318.526 160.251 318.654 160.405 318.748 160.58C318.842 160.754 318.901 160.946 318.921 161.143C318.941 161.341 318.921 161.54 318.863 161.73C318.805 161.919 318.711 162.096 318.584 162.249C311.971 170.413 302.855 176.524 294.039 182.434C290.564 184.762 287.282 186.963 284.218 189.242C279.936 192.432 274.231 193.352 270.512 196.386C269.05 206.149 268.747 217.577 269.728 226.354C269.75 226.549 269.733 226.747 269.679 226.936C269.624 227.126 269.532 227.302 269.41 227.456C269.287 227.61 269.135 227.738 268.962 227.833C268.79 227.928 268.6 227.988 268.405 228.01C268.209 228.032 268.011 228.015 267.822 227.96C267.633 227.906 267.456 227.814 267.302 227.691C267.149 227.568 267.02 227.416 266.925 227.244C266.83 227.072 266.77 226.882 266.748 226.687ZM323.601 155.117C317.601 147.677 312.736 133.107 306.13 126.044C299.015 131.027 283.01 142.409 276.84 146.468C275.232 147.522 273.393 148.173 271.48 148.367C269.566 148.561 267.635 148.292 265.847 147.582L261.374 145.81C261.007 145.661 260.714 145.373 260.558 145.009C260.402 144.645 260.396 144.235 260.542 143.866C260.688 143.498 260.973 143.203 261.336 143.044C261.699 142.886 262.11 142.877 262.479 143.021L266.953 144.793C269.637 145.858 272.793 145.538 275.191 143.961C281.562 139.771 299.171 127.237 305.446 122.861C305.729 122.663 306.072 122.569 306.416 122.595C306.76 122.62 307.084 122.764 307.335 123.001C314.873 130.12 319.937 145.797 325.937 153.233C326.187 153.542 326.304 153.939 326.261 154.334C326.219 154.73 326.021 155.093 325.711 155.343C325.401 155.592 325.005 155.709 324.609 155.667C324.214 155.624 323.851 155.426 323.601 155.117ZM231.691 226.551C231.642 226.156 231.752 225.758 231.997 225.444C232.241 225.13 232.6 224.926 232.995 224.878C239.455 224.081 239.905 224.38 244.874 221.426C246.158 220.663 247.323 219.514 247.031 218.669C246.799 217.993 245.54 217.645 244.497 217.966C243.15 218.378 241.919 219.508 240.48 220.424C237.387 222.395 233.348 223.332 228.818 223.141C224.885 222.972 221.074 222.027 217.388 221.113C217.002 221.017 216.67 220.772 216.464 220.431C216.259 220.09 216.198 219.682 216.293 219.296C216.389 218.909 216.634 218.577 216.975 218.372C217.316 218.166 217.724 218.105 218.11 218.201C224.801 219.861 232.747 221.795 238.869 217.894C240.285 216.991 241.688 215.689 243.617 215.097C245.944 214.383 248.997 215.171 249.867 217.69C250.631 219.903 249.337 222.263 246.407 224.005C240.82 227.325 239.815 227.055 233.364 227.855C233.302 227.863 231.794 227.379 231.691 226.551Z" fill="white"/>
<path d="M229.956 232.711C229.91 232.316 230.023 231.919 230.269 231.607C230.516 231.294 230.876 231.093 231.271 231.046C241.229 229.889 240.838 229.951 243.263 229.126C247.341 227.74 248.63 226.649 249.036 226.122C249.885 225.017 249.271 223.263 248.243 222.738C248.065 222.651 247.905 222.529 247.774 222.379C247.642 222.229 247.542 222.055 247.479 221.866C247.416 221.677 247.391 221.477 247.406 221.279C247.421 221.08 247.475 220.886 247.566 220.709C247.656 220.532 247.781 220.374 247.933 220.245C248.085 220.117 248.261 220.02 248.451 219.96C248.641 219.9 248.841 219.879 249.04 219.897C249.238 219.915 249.431 219.973 249.606 220.066C252.326 221.454 253.398 225.37 251.414 227.951C250.31 229.385 247.961 230.698 244.228 231.967C241.421 232.887 242.428 232.762 231.621 234.026C231.561 234.032 230.051 233.526 229.956 232.711Z" fill="white"/>
<path d="M233.469 239.536C233.071 239.536 232.689 239.378 232.408 239.097C232.127 238.816 231.969 238.434 231.969 238.036C231.969 237.639 232.127 237.257 232.408 236.976C232.689 236.695 233.071 236.536 233.469 236.536C236.57 236.536 238.45 236.316 244.927 234.853C246.504 234.497 247.857 233.878 249.062 232.96C250.131 232.148 250.179 230.178 248.734 230.022C248.538 230.001 248.348 229.941 248.175 229.847C248.002 229.752 247.85 229.624 247.727 229.471C247.603 229.317 247.511 229.141 247.456 228.952C247.401 228.763 247.383 228.564 247.405 228.368C247.425 228.172 247.484 227.982 247.578 227.809C247.672 227.635 247.8 227.482 247.954 227.359C248.107 227.235 248.284 227.143 248.474 227.088C248.663 227.034 248.862 227.017 249.058 227.039C253.223 227.491 254.14 232.867 250.878 235.348C249.345 236.515 247.565 237.333 245.588 237.78C239.261 239.208 236.995 239.536 233.468 239.536H233.469Z" fill="white"/>
<path d="M228.696 247.182C222.324 247.162 217.142 245.948 210.811 242.993C210.451 242.824 210.172 242.519 210.036 242.145C209.9 241.771 209.918 241.359 210.087 240.998C210.255 240.637 210.56 240.359 210.934 240.223C211.308 240.087 211.721 240.105 212.081 240.273C217.809 242.949 222.544 244.182 228.766 244.182C233.65 244.182 242.321 242.318 245.348 238.917C246.618 237.501 246.638 237.258 246.65 237.135C246.637 237.132 246.586 237.077 246.474 237C246.312 236.887 246.173 236.744 246.065 236.578C245.958 236.412 245.885 236.226 245.85 236.031C245.814 235.837 245.818 235.637 245.86 235.444C245.902 235.251 245.982 235.068 246.096 234.906C246.209 234.744 246.353 234.606 246.52 234.499C246.686 234.393 246.873 234.321 247.067 234.287C247.262 234.253 247.462 234.258 247.655 234.301C247.847 234.344 248.03 234.425 248.191 234.54C249.254 235.282 249.561 236.167 249.633 236.779C249.823 238.411 248.657 239.719 247.589 240.911C243.829 245.137 234.322 247.182 228.696 247.182ZM221.118 221.543C220.87 221.232 220.755 220.835 220.799 220.44C220.843 220.045 221.043 219.683 221.353 219.435C223.22 217.942 226.19 215.929 228.417 215.17C229.569 214.777 230.341 214.077 230.376 213.827C230.277 212.887 230.006 212.312 229.8 212.305C223.982 212.083 218.36 214.329 213.62 218.802C213.477 218.937 213.309 219.042 213.124 219.112C212.94 219.183 212.744 219.216 212.547 219.21C212.35 219.204 212.157 219.16 211.977 219.079C211.797 218.999 211.635 218.883 211.5 218.74C211.365 218.597 211.259 218.428 211.189 218.244C211.119 218.06 211.086 217.864 211.091 217.667C211.097 217.47 211.142 217.276 211.222 217.097C211.303 216.917 211.418 216.755 211.561 216.62C216.899 211.582 223.25 209.062 229.914 209.307C230.821 209.342 232.972 209.822 233.36 213.523C233.595 215.753 231.366 217.333 229.386 218.01C227.644 218.603 225.038 220.33 223.226 221.778C222.916 222.026 222.519 222.141 222.124 222.097C221.728 222.052 221.367 221.853 221.118 221.543ZM228.109 472.99C227.76 472.97 227.424 472.958 226.452 472.922C225.153 472.878 223.854 472.828 222.555 472.772C218.303 472.587 214.885 469.02 214.775 464.652C214.674 460.623 214.844 456.535 215.027 452.695L215.044 452.31C215.141 450.131 215.237 447.996 215.297 445.964C215.321 445.135 216.051 444.493 216.84 444.509C217.238 444.52 217.614 444.689 217.887 444.979C218.16 445.268 218.307 445.654 218.295 446.052C218.235 448.099 218.139 450.249 218.041 452.444L218.023 452.833C217.843 456.624 217.676 460.649 217.774 464.575C217.844 467.374 220.003 469.658 222.686 469.775C223.989 469.831 225.281 469.88 226.566 469.924C227.315 469.952 227.838 469.971 228.277 469.995C228.671 470.022 229.037 470.203 229.298 470.499C229.558 470.795 229.692 471.181 229.67 471.575C229.648 471.968 229.472 472.337 229.18 472.602C228.888 472.867 228.503 473.006 228.109 472.99ZM234.258 473.284C234.062 473.273 233.869 473.223 233.691 473.138C233.514 473.052 233.355 472.933 233.223 472.786C233.092 472.639 232.991 472.468 232.926 472.282C232.86 472.096 232.832 471.899 232.843 471.703C232.853 471.506 232.902 471.312 232.987 471.134C233.072 470.956 233.191 470.797 233.338 470.665C233.485 470.534 233.657 470.433 233.843 470.368C234.029 470.303 234.226 470.276 234.423 470.288L237.936 470.488C246.816 471.001 255.204 471.484 265.096 470.951C266.509 470.875 268.006 470.003 267.818 468.616C267.684 467.575 267.35 466.569 266.834 465.656C266.092 464.361 264.379 462.868 261.742 461.223C258.945 459.478 256.424 458.396 253.041 457.487C249.311 456.482 245.691 455.613 242.319 456.031C242.105 456.057 241.888 456.037 241.682 455.971C241.477 455.906 241.288 455.797 241.128 455.652C240.968 455.506 240.842 455.329 240.757 455.13C240.672 454.932 240.632 454.717 240.637 454.501C240.651 453.927 240.651 453.353 240.643 452.786C240.64 452.039 240.618 451.306 240.596 450.572C240.559 449.335 240.521 448.055 240.573 446.773C240.58 446.575 240.625 446.381 240.708 446.201C240.79 446.022 240.907 445.861 241.052 445.727C241.197 445.593 241.368 445.489 241.553 445.422C241.739 445.355 241.936 445.325 242.133 445.335C242.33 445.342 242.524 445.389 242.702 445.472C242.881 445.555 243.042 445.672 243.176 445.817C243.309 445.961 243.413 446.131 243.481 446.316C243.549 446.501 243.579 446.698 243.571 446.895C243.523 448.07 243.558 449.242 243.595 450.483C243.618 451.243 243.64 452.003 243.643 452.76L243.645 452.928C247.004 452.84 250.375 453.661 253.82 454.59C257.509 455.579 260.263 456.765 263.33 458.678C266.435 460.616 268.432 462.41 269.437 464.165C270.146 465.414 270.606 466.789 270.791 468.213C270.88 468.853 270.833 469.505 270.653 470.127C270.474 470.748 270.167 471.325 269.751 471.82C268.716 473.073 267.078 473.848 265.258 473.947C254.337 474.535 245.301 473.918 234.258 473.283V473.284ZM199.222 109.679C198.827 109.637 198.464 109.44 198.213 109.132C197.963 108.823 197.845 108.427 197.886 108.032C198.737 99.8685 199.416 98.0415 201.373 90.7005C199.845 89.7025 198.395 88.4825 197.542 86.5355C196.304 83.7145 197.218 78.8875 200.476 78.4635C201.971 78.2595 203.246 78.8695 204.572 79.5005C215.592 84.6335 226.562 75.1255 230.767 70.8005C230.94 70.6225 231.155 70.4902 231.391 70.4154C231.628 70.3407 231.879 70.3257 232.123 70.372C232.367 70.4183 232.595 70.5243 232.788 70.6806C232.981 70.8369 233.132 71.0386 233.227 71.2675C234.587 74.5215 236.995 77.3345 237.317 81.3325C238.066 90.8215 234.62 104.348 226.061 108.309C221.794 110.285 215.403 109.331 213.062 104.799C212.972 104.623 212.917 104.432 212.9 104.236C212.884 104.04 212.906 103.842 212.966 103.654C213.025 103.466 213.122 103.292 213.249 103.142C213.376 102.991 213.531 102.867 213.706 102.777C213.881 102.686 214.073 102.631 214.269 102.614C214.465 102.598 214.663 102.62 214.851 102.68C215.038 102.74 215.213 102.836 215.363 102.963C215.514 103.09 215.638 103.245 215.728 103.421C217.246 106.362 221.768 106.989 224.802 105.587C227.722 104.235 230.098 101.376 231.864 97.0895C233.891 92.1815 234.734 86.8657 234.327 81.5715C234.121 79.0165 232.674 76.8545 231.394 74.3985C215.327 89.6475 203.277 82.1145 203.053 82.1005C202.243 81.7165 201.474 81.3525 200.869 81.4375C200.69 81.4605 200.533 81.6975 200.454 81.8375C199.916 82.7895 199.924 84.4975 200.29 85.3295C200.908 86.7395 202.03 87.6135 203.883 88.7305C204.162 88.8983 204.378 89.1518 204.499 89.4529C204.621 89.7541 204.642 90.0866 204.558 90.4005C202.378 98.6225 201.733 100.068 200.87 108.344C200.789 109.114 200.032 109.769 199.222 109.679Z" fill="white"/>
<path d="M209.33 102.237C206.164 100.688 204.851 98.8605 204.799 95.9305C204.792 95.533 204.943 95.149 205.219 94.8629C205.495 94.5767 205.874 94.4119 206.271 94.4045C207.062 94.4045 207.784 95.0485 207.799 95.8775C207.826 97.4285 208.259 98.3725 210.649 99.5415C211.006 99.7165 211.28 100.026 211.409 100.403C211.538 100.779 211.512 101.192 211.337 101.549C211.162 101.906 210.852 102.18 210.475 102.309C210.099 102.437 209.687 102.412 209.33 102.237ZM227.271 96.4795C226.931 96.2882 226.679 95.972 226.568 95.598C226.458 95.2239 226.497 94.8215 226.678 94.476C226.859 94.1305 227.168 93.8691 227.538 93.7473C227.909 93.6255 228.312 93.6528 228.663 93.8235C229.462 93.4535 228.662 91.9495 228.271 91.1385C226.371 87.1755 228.045 85.3385 229.557 85.8715C229.743 85.9365 229.914 86.0375 230.061 86.1687C230.208 86.2999 230.328 86.4588 230.413 86.6363C230.499 86.8137 230.549 87.0063 230.56 87.2029C230.571 87.3996 230.543 87.5966 230.478 87.7825C230.03 89.0585 232.382 91.2385 231.956 93.9005C231.612 96.0265 229.193 97.5705 227.27 96.4795H227.271ZM223.784 100.481C223.466 100.242 223.255 99.8866 223.198 99.4927C223.142 99.0988 223.244 98.6985 223.483 98.38C223.721 98.0615 224.076 97.8508 224.47 97.7942C224.864 97.7377 225.265 97.8399 225.583 98.0785C225.763 98.2062 225.969 98.2923 226.186 98.3307C226.403 98.3691 226.626 98.3588 226.839 98.3005C227.03 98.239 227.231 98.2164 227.43 98.234C227.63 98.2515 227.824 98.3089 228.001 98.4026C228.178 98.4964 228.335 98.6247 228.461 98.78C228.588 98.9352 228.682 99.1143 228.739 99.3065C228.795 99.4988 228.812 99.7005 228.789 99.8995C228.766 100.099 228.704 100.291 228.605 100.466C228.507 100.64 228.374 100.793 228.216 100.915C228.057 101.038 227.876 101.127 227.682 101.179C227.022 101.367 226.328 101.402 225.652 101.281C224.977 101.16 224.338 100.886 223.784 100.481Z" fill="white"/>
<path d="M199.029 80.8163C197.048 82.6883 197.51 86.2263 200.569 87.9913C201.471 88.5113 202.577 88.8923 203.026 89.8123C203.426 90.6343 203.153 91.6003 202.874 92.4683C202.264 94.3663 201.437 97.7443 200.828 99.6423C201.145 97.2553 201.303 93.1383 200.237 90.9643C198.663 87.7583 195.744 87.8183 195.691 81.3203C195.645 75.5463 197.397 69.9183 199.133 64.3953C199.845 62.1293 200.758 59.6233 202.945 58.5683C205.89 57.1463 209.78 59.0633 212.105 55.8703C214.305 52.8503 217.895 54.5433 221.037 54.3903C224.786 54.2073 227.836 52.7743 231.281 55.2573C232.341 56.0203 233.329 57.0653 234.667 57.1473C235.977 57.2283 237.195 56.3313 238.501 56.4513C242.059 56.7773 240.178 60.1303 241.293 61.7183C242.772 63.8233 245.42 62.2123 247.338 60.6983C246.915 61.0323 246.608 63.7883 246.204 64.4883C245.269 66.1093 243.805 66.7953 242.554 68.0683C239.68 70.9903 242.222 73.0043 246.222 73.6443C245.634 76.2043 243.088 78.2633 240.277 78.4523C235.832 78.7523 232.348 71.0803 228.191 74.9293C219.87 82.6323 214.982 82.7263 206.329 81.6293C203.747 81.3003 201.57 78.4163 199.029 80.8163Z" fill="white"/>
<path d="M200.499 101.105C200.133 101.023 199.812 100.807 199.597 100.5C199.383 100.193 199.292 99.8166 199.341 99.4452C199.687 96.8282 199.695 93.2652 198.891 91.6252C198.316 90.4552 196.742 89.0792 195.837 87.7852C194.408 85.7392 194.207 83.2622 194.191 81.3332C194.142 75.2742 195.951 69.5152 197.701 63.9462C198.51 61.3722 199.598 58.5162 202.294 57.2162C205.536 55.6512 209.146 57.3852 210.892 54.9872C213.672 51.1712 218.044 53.0322 220.964 52.8922C225.206 52.6852 228.271 50.9592 232.886 54.5962C234.483 55.8562 234.676 55.8122 236.099 55.3652C236.839 55.1322 237.679 54.8682 238.637 54.9572C243.418 55.3972 242.003 60.1202 242.52 60.8552C242.719 61.1382 242.879 61.1962 243.022 61.2172C243.412 61.2802 244.371 61.1292 246.408 59.5212L246.409 59.5202C246.697 59.2977 247.057 59.1876 247.421 59.2106C247.784 59.2335 248.127 59.3879 248.386 59.645C248.644 59.9021 248.8 60.2443 248.825 60.6079C248.849 60.9715 248.741 61.3316 248.52 61.6212C248.422 61.8962 248.275 62.5662 248.184 62.9822C247.724 65.0822 247.56 65.8842 244.883 68.0292C244.328 68.4732 242.606 69.8272 242.842 70.5432C242.987 70.9842 244.07 71.7802 246.46 72.1632C246.662 72.1958 246.856 72.2697 247.029 72.3803C247.203 72.4909 247.351 72.6359 247.466 72.8062C247.581 72.9766 247.659 73.1687 247.697 73.3706C247.734 73.5726 247.73 73.7801 247.684 73.9802C246.944 77.2032 243.87 79.7132 240.378 79.9482C237.967 80.1202 235.942 78.5952 234.166 77.2572C231.444 75.2062 230.519 74.8192 229.21 76.0302C220.498 84.0952 215.137 84.2562 206.14 83.1162C204.287 82.8812 202.789 81.7162 201.6 81.4282C201.079 81.3022 200.658 81.3392 200.06 81.9062C198.84 83.0582 199.115 85.4212 201.32 86.6922C202.219 87.2132 203.676 87.7252 204.374 89.1542C205.061 90.5642 204.587 92.0422 204.304 92.9262C203.717 94.7492 202.868 98.1942 202.256 100.1C202.141 100.457 201.897 100.758 201.572 100.944C201.247 101.13 200.864 101.187 200.499 101.105ZM201.621 90.3812C201.654 90.4502 201.685 90.5202 201.716 90.5912C201.703 90.514 201.671 90.4414 201.621 90.3812ZM213.318 56.7532C212.264 58.2002 210.573 59.1132 208.556 59.3242C204.194 59.7842 202.555 58.5122 200.563 64.8442C198.943 70.0012 197.27 75.3272 197.193 80.7092C198.216 79.0862 200.093 77.9792 202.304 78.5122C203.927 78.9042 205.301 79.9862 206.517 80.1402C214.89 81.2032 219.237 81.1732 227.173 73.8282C232.356 69.0252 236.686 77.1962 240.177 76.9552C241.756 76.8492 243.268 75.9432 244.126 74.7092C239.767 73.4092 238.405 70.1472 241.486 67.0152C242.703 65.7762 244.016 65.1072 244.784 63.9352C242.722 64.6332 241.078 64.0212 240.065 62.5802C239.407 61.6432 239.382 60.5132 239.361 59.6052C239.325 58.0332 239.253 58.0262 238.364 57.9452C237.525 57.8712 236.186 58.7412 234.574 58.6452C232.699 58.5292 231.421 57.2052 230.404 56.4742C228.322 54.9732 226.502 55.2272 223.978 55.5802C220.958 56.0022 220.329 55.9632 218.139 55.7162C217.333 55.6252 214.416 55.2462 213.319 56.7532H213.318ZM224.695 125.678C223.997 122.888 222.259 111.793 222.288 108.443C222.293 108.046 222.455 107.667 222.738 107.388C223.021 107.11 223.403 106.954 223.801 106.956C223.998 106.958 224.192 106.998 224.374 107.075C224.555 107.152 224.719 107.264 224.858 107.405C224.996 107.545 225.105 107.712 225.178 107.894C225.252 108.077 225.289 108.272 225.288 108.469C225.262 111.317 226.898 122.119 227.605 124.949C227.654 125.141 227.665 125.34 227.637 125.536C227.609 125.732 227.543 125.921 227.442 126.091C227.34 126.261 227.207 126.409 227.048 126.527C226.889 126.645 226.709 126.731 226.517 126.779C226.325 126.827 226.125 126.837 225.93 126.808C225.734 126.778 225.546 126.71 225.377 126.608C225.207 126.506 225.06 126.371 224.943 126.211C224.826 126.052 224.741 125.871 224.695 125.678ZM259.297 272.959C258.947 272.924 258.596 273.016 258.31 273.219C252.912 274.429 229.771 271.057 227.177 271.159C225.078 271.242 223.557 271.047 222.47 271.542C222.277 271.354 222.037 271.221 221.775 271.158C221.285 271.046 220.805 271.185 220.455 271.486C201.639 270.193 181.365 269.14 162.557 270.881C162.562 270.856 162.564 270.829 162.565 270.803L162.563 270.807C162.64 270.417 162.559 270.012 162.337 269.682C162.116 269.351 161.773 269.122 161.383 269.044C160.573 268.888 159.696 269.398 159.587 270.459C158.012 282.77 156.807 296.553 155.529 311.146C155.267 314.142 155.004 317.151 154.736 320.16C151.934 341.026 148.992 363.55 146.136 384.816C145.679 387.066 145.216 389.343 144.755 391.67C141.045 410.176 137.076 431.532 135.767 449.607C135.738 449.998 135.864 450.384 136.116 450.684C136.369 450.983 136.729 451.172 137.119 451.209C148.41 452.304 166.545 452.173 177.019 450.93C177.287 450.898 177.543 450.794 177.757 450.629C177.971 450.464 178.137 450.244 178.237 449.992C185.027 432.821 191.919 413.453 198.722 392.426C200.796 386.01 202.818 377.97 204.779 369.041C206.279 357.869 211.299 340.071 215.739 324.339C217.774 317.123 219.697 310.307 220.989 305.121C221.053 304.864 221.216 304.642 221.444 304.506C221.671 304.369 221.943 304.328 222.201 304.392C222.458 304.456 222.679 304.62 222.816 304.847C222.953 305.075 222.994 305.347 222.93 305.604C221.63 310.821 219.703 317.651 217.663 324.882C213.361 340.126 208.517 357.309 206.894 368.387C207.331 372.437 207.728 376.427 208.074 380.328C208.554 387.14 209.023 393.989 209.402 400.842C209.636 409.814 209.375 418.876 209.12 427.712C208.927 434.388 208.745 440.695 208.787 446.631C208.788 446.894 208.859 447.152 208.992 447.379C209.125 447.606 209.316 447.794 209.544 447.924C209.773 448.054 210.031 448.122 210.294 448.121C210.557 448.119 210.816 448.049 211.043 447.916C211.453 447.846 212.761 447.71 216.82 447.632C222.087 447.532 229.14 447.584 232.928 447.611C234.108 447.619 234.932 447.622 235.258 447.623L237.648 447.603C241.03 447.576 244.526 447.549 247.968 447.346L248.631 447.312C251.067 447.197 251.646 446.767 252.501 444.445C253.193 442.579 253.018 440.089 252.864 437.891C252.798 436.945 252.735 436.051 252.751 435.332C253.046 420.725 253.519 406.157 254.158 392.032C254.537 383.722 254.929 376.133 255.36 368.831C256.581 347.934 258.669 295.558 260.65 274.593C260.668 274.397 260.648 274.199 260.59 274.011C260.532 273.823 260.437 273.648 260.312 273.496C260.186 273.344 260.032 273.219 259.858 273.127C259.683 273.035 259.493 272.978 259.297 272.959ZM171.55 307.419C171.767 307.267 172.036 307.208 172.297 307.254C172.558 307.3 172.79 307.448 172.942 307.665C175.078 310.716 176.741 314.073 177.874 317.621C177.918 317.747 177.937 317.881 177.929 318.015C177.921 318.149 177.887 318.28 177.827 318.4C177.768 318.52 177.685 318.626 177.583 318.714C177.481 318.801 177.363 318.867 177.236 318.908C177.108 318.949 176.974 318.964 176.84 318.951C176.707 318.939 176.577 318.9 176.459 318.837C176.341 318.774 176.237 318.688 176.153 318.583C176.069 318.479 176.006 318.359 175.97 318.23C174.898 314.873 173.325 311.698 171.304 308.811C171.152 308.594 171.092 308.325 171.139 308.064C171.185 307.803 171.333 307.571 171.55 307.419ZM166.539 374.677C162.809 379.287 166.957 388.233 161.752 392.864C161.654 392.952 161.539 393.019 161.415 393.062C161.291 393.105 161.16 393.123 161.029 393.116C160.898 393.108 160.769 393.075 160.651 393.017C160.533 392.96 160.427 392.88 160.34 392.782C160.252 392.684 160.185 392.57 160.142 392.446C160.099 392.322 160.081 392.19 160.088 392.059C160.096 391.928 160.129 391.8 160.186 391.682C160.244 391.563 160.324 391.458 160.422 391.37C164.74 387.53 160.697 378.715 164.984 373.419C165.701 372.531 166.638 371.787 166.811 370.954C167.099 369.564 165.342 367.801 165.515 365.641C165.755 362.667 169.33 361.228 169.299 359.251C169.27 357.334 165.877 355.552 166.513 352.653C166.868 351.036 168.305 350.203 168.971 349.236C169.921 347.857 169.436 345.816 168.466 344.512C167.313 342.964 165.447 341.905 163.802 340.972C163.686 340.908 163.585 340.822 163.503 340.718C163.422 340.614 163.361 340.496 163.326 340.369C163.29 340.242 163.28 340.109 163.296 339.978C163.312 339.847 163.353 339.72 163.418 339.606C163.483 339.491 163.571 339.39 163.675 339.309C163.779 339.228 163.898 339.169 164.025 339.134C164.153 339.099 164.285 339.09 164.416 339.107C164.547 339.124 164.673 339.166 164.788 339.232C166.606 340.263 168.666 341.432 170.069 343.318C171.423 345.135 172.172 348.118 170.617 350.371C170.299 350.833 169.92 351.215 169.553 351.584C168.135 353.012 167.961 353.43 169.627 355.611C170.399 356.623 171.277 357.771 171.299 359.22C171.325 360.945 170.169 362.168 169.149 363.248C167.174 365.342 167.184 365.818 168.096 367.918C168.536 368.931 169.035 370.078 168.77 371.36C168.535 372.492 167.788 373.3 167.128 374.013C166.926 374.232 166.722 374.45 166.538 374.677H166.539ZM177.879 425.011C175.167 424.809 172.441 425.057 169.81 425.744C169.681 425.782 169.547 425.794 169.414 425.778C169.281 425.763 169.152 425.721 169.036 425.655C168.919 425.59 168.817 425.501 168.735 425.395C168.654 425.289 168.594 425.167 168.56 425.038C168.526 424.908 168.519 424.773 168.538 424.641C168.557 424.509 168.603 424.381 168.672 424.267C168.742 424.152 168.833 424.053 168.942 423.974C169.05 423.896 169.173 423.84 169.304 423.81C172.147 423.065 175.095 422.797 178.027 423.017C178.16 423.024 178.29 423.057 178.41 423.115C178.53 423.173 178.637 423.255 178.725 423.355C178.813 423.454 178.881 423.571 178.923 423.697C178.966 423.824 178.982 423.957 178.973 424.09C178.963 424.223 178.926 424.352 178.866 424.471C178.805 424.59 178.721 424.695 178.619 424.781C178.518 424.867 178.4 424.931 178.272 424.971C178.145 425.01 178.011 425.024 177.879 425.011ZM182.645 315.544C182.522 315.592 182.392 315.616 182.26 315.614C182.129 315.611 182 315.583 181.879 315.53C181.759 315.478 181.65 315.402 181.559 315.308C181.467 315.213 181.396 315.102 181.348 314.979C180.295 312.302 178.804 309.82 176.935 307.633C176.762 307.431 176.677 307.169 176.698 306.905C176.719 306.64 176.844 306.395 177.046 306.223C177.248 306.051 177.51 305.965 177.775 305.986C178.039 306.007 178.284 306.132 178.457 306.334C180.47 308.69 182.076 311.364 183.21 314.247C183.258 314.369 183.281 314.5 183.279 314.631C183.277 314.763 183.248 314.892 183.196 315.013C183.143 315.133 183.068 315.242 182.973 315.333C182.879 315.425 182.767 315.496 182.645 315.544ZM238.451 433.937C238.501 434.062 238.526 434.196 238.524 434.33C238.521 434.465 238.492 434.597 238.437 434.72C238.382 434.843 238.303 434.954 238.204 435.045C238.106 435.137 237.99 435.207 237.863 435.253C237.736 435.299 237.602 435.318 237.468 435.311C237.333 435.303 237.202 435.269 237.081 435.209C236.96 435.15 236.853 435.066 236.765 434.964C236.678 434.862 236.611 434.743 236.571 434.615C232.739 423.973 234.201 412.399 235.615 401.207C235.811 399.652 236.008 398.101 236.188 396.56C238.502 376.82 238.202 356.861 235.295 337.2C235.263 336.941 235.333 336.68 235.491 336.472C235.65 336.264 235.883 336.127 236.141 336.088C236.399 336.05 236.662 336.115 236.874 336.268C237.085 336.421 237.228 336.651 237.273 336.908C240.206 356.743 240.51 376.879 238.175 396.793C237.989 398.349 237.798 399.904 237.599 401.458C236.215 412.416 234.783 423.748 238.451 433.938V433.937ZM253.543 318.997C253.097 319.325 252.375 319.679 252.269 319.865C252.312 319.842 252.406 320.006 252.476 320.105C253.358 321.356 253.172 322.213 252.183 323.415L252.114 323.5C250.798 325.114 250.417 327.52 251.164 329.487C251.217 329.611 251.244 329.744 251.244 329.879C251.244 330.014 251.217 330.147 251.164 330.271C251.112 330.395 251.034 330.507 250.937 330.601C250.84 330.694 250.725 330.767 250.599 330.815C250.473 330.862 250.339 330.884 250.204 330.879C250.07 330.874 249.938 330.841 249.816 330.784C249.694 330.726 249.585 330.644 249.496 330.544C249.407 330.443 249.338 330.325 249.296 330.197C248.286 327.546 248.784 324.42 250.563 322.237C250.786 321.966 251.024 321.677 251.038 321.558C250.966 321.344 250.355 320.794 250.288 319.968C250.164 318.428 251.767 317.821 252.359 317.385C252.787 317.071 253.012 316.432 252.885 315.899C252.759 315.376 252.282 314.929 251.776 314.86C251.643 314.846 251.514 314.805 251.398 314.74C251.281 314.675 251.179 314.587 251.097 314.482C251.014 314.376 250.954 314.256 250.919 314.127C250.884 313.998 250.876 313.863 250.894 313.731C250.912 313.599 250.956 313.472 251.024 313.357C251.092 313.242 251.183 313.142 251.29 313.062C251.397 312.983 251.52 312.926 251.649 312.894C251.779 312.863 251.914 312.858 252.046 312.879C253.366 313.059 254.511 314.109 254.829 315.43C255.145 316.74 254.617 318.208 253.543 318.997ZM153.231 220.01C151.253 218.983 151.285 216.407 152.379 214.447L152.509 214.213C152.876 213.563 153.429 212.579 153.239 212.203C152.922 211.578 150.891 210.896 150.655 208.911C150.479 207.436 151.398 206.437 152.325 205.435C154.173 203.38 154.26 200.233 153.725 197.973C153.057 195.151 151.449 192.547 149.893 190.03C149.789 189.863 149.719 189.676 149.688 189.482C149.656 189.287 149.663 189.088 149.709 188.897C149.754 188.705 149.836 188.524 149.952 188.364C150.067 188.204 150.213 188.068 150.38 187.965C150.548 187.861 150.734 187.792 150.929 187.76C151.123 187.728 151.322 187.735 151.514 187.781C151.706 187.826 151.887 187.909 152.047 188.024C152.206 188.139 152.342 188.285 152.446 188.452C154.049 191.047 155.865 193.987 156.646 197.282C157.563 201.166 156.782 204.964 154.556 207.442C153.878 208.175 153.662 208.434 153.634 208.582C153.867 208.934 155.277 209.584 155.916 210.849C156.806 212.609 155.898 214.309 154.999 215.908C154.628 216.571 154.582 217.239 154.661 217.398C155.396 217.779 155.659 218.66 155.276 219.395C154.896 220.128 153.97 220.393 153.231 220.01ZM174.927 217.637C174.733 217.6 174.549 217.526 174.384 217.418C174.219 217.309 174.077 217.17 173.967 217.007C173.856 216.844 173.778 216.661 173.738 216.468C173.698 216.275 173.697 216.076 173.734 215.882C174.413 212.347 175.938 209.03 178.18 206.213C178.432 205.915 178.79 205.727 179.179 205.689C179.568 205.651 179.956 205.766 180.261 206.009C180.567 206.253 180.765 206.606 180.814 206.993C180.864 207.381 180.76 207.772 180.526 208.084C178.587 210.52 177.267 213.389 176.681 216.446C176.606 216.836 176.379 217.181 176.05 217.404C175.721 217.627 175.317 217.711 174.927 217.636V217.637ZM161.646 153.753C160.87 150.745 163.184 147.463 166.281 147.187C166.536 147.165 166.867 147.159 167.054 147.138C167.093 146.942 167.102 146.601 167.109 146.38L167.116 146.168C167.184 144.301 168.304 142.925 169.823 142.993C170.186 142.999 170.535 143.137 170.804 143.38C171.073 143.624 171.245 143.957 171.288 144.318C171.33 144.679 171.24 145.043 171.034 145.342C170.829 145.642 170.522 145.856 170.17 145.946C169.985 146.531 170.383 148.5 168.86 149.592C168.043 150.177 167.207 150.116 166.548 150.176C165.301 150.286 164.238 151.786 164.551 153.003C164.65 153.388 164.592 153.797 164.39 154.14C164.188 154.483 163.858 154.731 163.473 154.831C163.088 154.93 162.679 154.873 162.336 154.67C161.994 154.468 161.745 154.138 161.646 153.753ZM284.706 169.576C284.579 169.425 284.484 169.25 284.426 169.062C284.367 168.874 284.346 168.676 284.364 168.48C284.382 168.284 284.438 168.093 284.53 167.919C284.621 167.744 284.746 167.589 284.898 167.463L292.531 161.103C292.837 160.86 293.227 160.746 293.617 160.786C294.006 160.826 294.365 161.017 294.615 161.318C294.866 161.619 294.989 162.006 294.958 162.396C294.928 162.787 294.745 163.149 294.451 163.407L286.818 169.767C286.512 170.022 286.118 170.145 285.722 170.109C285.326 170.073 284.96 169.882 284.706 169.576ZM202.084 193.483H202.064C201.867 193.481 201.672 193.439 201.491 193.361C201.31 193.283 201.146 193.17 201.008 193.029C200.871 192.888 200.762 192.721 200.69 192.537C200.617 192.354 200.581 192.158 200.584 191.961C200.667 185.991 200.761 179.226 198.195 173.521L198.093 173.295C197.65 172.32 197.098 171.108 197.295 169.731C197.519 168.149 198.611 167.081 199.489 166.221C199.766 165.951 200.045 165.681 200.289 165.395C201.537 163.929 201.934 161.611 201.351 159.195C200.781 156.825 199.427 154.622 198.118 152.492C197.909 152.153 197.844 151.745 197.937 151.358C198.03 150.971 198.272 150.637 198.611 150.429C198.95 150.221 199.358 150.156 199.745 150.248C200.132 150.341 200.466 150.583 200.675 150.922C202.039 153.142 203.585 155.66 204.267 158.49C205.075 161.837 204.441 165.146 202.572 167.34C202.27 167.695 201.929 168.031 201.587 168.366C199.999 169.921 199.947 170.129 200.824 172.053L200.931 172.291C203.769 178.601 203.671 185.721 203.584 192.003C203.578 192.398 203.418 192.774 203.137 193.051C202.857 193.328 202.478 193.483 202.084 193.483ZM242.67 172.878C242.473 172.533 242.422 172.123 242.527 171.74C242.632 171.356 242.885 171.03 243.231 170.833C244.319 170.213 245.108 169.008 245.242 167.763C245.285 167.368 245.483 167.007 245.792 166.757C246.101 166.508 246.496 166.39 246.892 166.43C247.088 166.451 247.278 166.511 247.451 166.605C247.624 166.699 247.776 166.827 247.9 166.98C248.024 167.134 248.116 167.31 248.171 167.499C248.227 167.688 248.245 167.886 248.224 168.082C247.988 170.288 246.644 172.341 244.716 173.439C244.37 173.636 243.96 173.688 243.577 173.583C243.193 173.478 242.867 173.225 242.67 172.879V172.878ZM254.801 264.733C254.528 264.444 254.381 264.058 254.393 263.66C254.404 263.263 254.573 262.886 254.863 262.613C256.057 261.486 256.441 259.51 255.756 258.017C255.671 257.838 255.622 257.643 255.612 257.445C255.603 257.247 255.633 257.048 255.701 256.862C255.769 256.675 255.873 256.504 256.008 256.358C256.142 256.212 256.304 256.094 256.485 256.011C256.665 255.928 256.86 255.882 257.059 255.875C257.257 255.868 257.455 255.901 257.641 255.971C257.827 256.041 257.997 256.147 258.141 256.284C258.285 256.42 258.401 256.584 258.482 256.765C259.699 259.416 259.044 262.793 256.922 264.795C256.632 265.068 256.246 265.215 255.849 265.203C255.451 265.192 255.075 265.023 254.802 264.733H254.801ZM168.732 264.367C164.422 262.913 160.859 259.326 159.434 255.007C159.372 254.82 159.348 254.623 159.362 254.426C159.377 254.23 159.43 254.038 159.519 253.862C159.607 253.686 159.73 253.529 159.879 253.401C160.028 253.272 160.202 253.174 160.389 253.112C160.576 253.051 160.773 253.026 160.97 253.041C161.166 253.055 161.358 253.109 161.534 253.197C161.71 253.286 161.867 253.408 161.995 253.558C162.124 253.707 162.222 253.88 162.284 254.067C163.419 257.508 166.258 260.366 169.691 261.525C169.881 261.585 170.057 261.683 170.209 261.812C170.361 261.941 170.486 262.099 170.576 262.277C170.666 262.455 170.72 262.649 170.735 262.847C170.749 263.046 170.724 263.246 170.66 263.435C170.596 263.624 170.495 263.798 170.363 263.948C170.231 264.097 170.071 264.219 169.891 264.306C169.712 264.393 169.517 264.443 169.318 264.453C169.119 264.464 168.919 264.435 168.732 264.367ZM171.26 257.802L167.32 254.064C167.175 253.929 167.058 253.767 166.977 253.586C166.895 253.406 166.85 253.211 166.844 253.013C166.838 252.816 166.871 252.618 166.941 252.433C167.012 252.248 167.118 252.079 167.254 251.935C167.391 251.792 167.554 251.676 167.735 251.596C167.916 251.516 168.111 251.472 168.309 251.468C168.507 251.463 168.704 251.498 168.888 251.57C169.073 251.642 169.241 251.75 169.384 251.887L173.324 255.625C173.595 255.903 173.749 256.275 173.752 256.663C173.755 257.052 173.607 257.426 173.34 257.708C173.073 257.99 172.707 258.157 172.319 258.175C171.931 258.192 171.551 258.059 171.26 257.802ZM266.828 197.018L266.304 189.421C266.29 189.225 266.315 189.027 266.378 188.841C266.441 188.654 266.539 188.481 266.669 188.333C266.798 188.184 266.955 188.062 267.132 187.975C267.308 187.887 267.5 187.835 267.697 187.821C268.093 187.797 268.482 187.93 268.782 188.19C269.081 188.451 269.266 188.819 269.297 189.214L269.82 196.811C269.838 197.01 269.817 197.211 269.757 197.402C269.696 197.593 269.599 197.769 269.469 197.922C269.34 198.074 269.181 198.199 269.002 198.289C268.824 198.379 268.629 198.433 268.43 198.447C268.23 198.461 268.03 198.434 267.841 198.37C267.651 198.305 267.477 198.203 267.328 198.07C267.179 197.937 267.057 197.775 266.972 197.595C266.886 197.414 266.837 197.218 266.828 197.018Z" fill="white"/>
<path d="M384.772 458.603C387.51 454.912 386.844 449.703 385.556 445.267C384.269 440.831 382.47 436.264 383.361 431.728C384.421 426.336 388.984 422.473 393.415 419.329C395.391 417.928 397.462 416.548 399.813 416.019C402.165 415.489 404.883 415.977 406.459 417.831C408.504 420.237 407.959 423.991 406.504 426.805C405.047 429.62 402.831 432 401.602 434.925C400.225 438.201 400.194 441.899 399.139 445.297C396.602 453.472 388.774 458.516 381.515 462.858L384.772 458.602V458.603ZM337.626 411.918C337.487 408.855 338.976 405.814 338.42 402.8C338.023 400.647 336.64 398.842 335.685 396.879C334.73 394.916 334.258 392.378 335.59 390.657C337.185 388.597 340.45 388.934 342.625 390.339C347.13 393.251 348.934 399.326 353.482 402.169C354.946 403.085 356.672 403.648 357.828 404.943C361.8 409.394 356.894 420.748 351.7 422.427C345.738 424.355 337.901 417.984 337.626 411.918ZM337.335 468.818C331.607 468.626 325.118 468.065 321.551 463.497C316.587 457.14 319.963 446.227 313.933 440.912C315.863 438.593 319.61 438.923 322.116 440.574C324.622 442.224 326.336 444.834 328.446 446.984C331.223 449.815 334.707 451.852 338.537 452.884C341.517 453.679 345.098 454.148 346.565 456.906C347.641 458.931 347.078 461.47 346.048 463.519C345.018 465.568 343.553 467.39 342.738 469.538C341.923 471.685 341.921 474.405 343.558 475.993L337.335 468.818Z" fill="white"/>
<path d="M342.407 475.286C342.128 475.004 341.971 474.622 341.973 474.224C341.975 473.826 342.135 473.445 342.417 473.165C344.658 470.946 350.541 466.328 351.842 463.667C352.97 461.356 353.642 457.932 352.147 455.253C348.942 449.513 338.773 451.822 333.879 445.471C330.358 440.901 331.568 434.401 329.589 429.738C327.356 424.475 321.523 422.598 317.206 422.588C311.115 422.588 304.846 425.306 300.072 426.395C304.275 428.478 307.462 431.789 308.95 435.677C311.639 442.704 308.834 450.383 310.693 456.968C312 461.598 315.711 465.562 320.873 467.841C325.696 469.969 331.22 470.489 336.095 470.946C336.492 470.984 336.857 471.177 337.11 471.483C337.364 471.79 337.485 472.185 337.448 472.581C337.411 472.977 337.217 473.342 336.911 473.596C336.604 473.849 336.21 473.971 335.813 473.933C330.712 473.453 324.93 472.911 319.662 470.585C313.678 467.944 309.356 463.277 307.806 457.783C305.805 450.696 308.513 442.929 306.147 436.749C304.768 433.143 301.541 430.115 297.293 428.442C295.289 427.652 293.181 427.174 291.04 426.852C289.626 426.733 288.1 426.567 284.663 426.199C284.271 426.159 283.911 425.965 283.66 425.661C283.41 425.356 283.289 424.965 283.324 424.572C283.4 423.754 284.124 423.158 284.935 423.212C291.585 423.732 294.815 424.768 300.658 423.153C305.957 421.69 311.418 419.589 317.164 419.589C323.399 419.589 329.824 422.612 332.35 428.566C334.523 433.687 333.402 439.937 336.256 443.64C340.332 448.93 350.721 446.546 354.766 453.79C356.489 456.876 356.401 461.165 354.536 464.983C352.892 468.353 346.892 472.956 344.528 475.297C344.246 475.577 343.863 475.733 343.466 475.731C343.068 475.729 342.687 475.569 342.407 475.286Z" fill="white"/>
<path d="M356.551 502.098C356.121 497.322 353.514 494.991 350.265 491.834C342.437 484.227 341.678 481.32 341.454 473.564C341.39 471.394 341.331 469.347 340.838 467.419C339.953 463.965 337.538 460.719 334.038 458.282C330.785 456.018 326.989 454.62 323.318 453.268C322.944 453.131 322.641 452.851 322.474 452.489C322.307 452.128 322.291 451.715 322.428 451.342C322.566 450.968 322.846 450.665 323.207 450.498C323.569 450.331 323.981 450.315 324.355 450.452C328.204 451.87 332.183 453.336 335.752 455.821C339.842 458.669 342.682 462.524 343.744 466.675C344.32 468.926 344.387 471.239 344.452 473.475C344.655 480.447 345.092 482.625 352.356 489.682C353.611 490.902 354.909 492.162 356.045 493.475C358.018 495.758 359.26 498.725 359.54 501.828C359.576 502.225 359.453 502.619 359.198 502.924C358.943 503.23 358.577 503.421 358.181 503.457C357.785 503.493 357.39 503.37 357.085 503.115C356.779 502.86 356.588 502.495 356.552 502.098H356.551Z" fill="white"/>
<path d="M358.153 503.745C357.957 503.729 357.766 503.675 357.59 503.585C357.415 503.495 357.259 503.371 357.132 503.221C357.004 503.07 356.908 502.896 356.847 502.709C356.787 502.521 356.764 502.324 356.78 502.127C357.617 491.91 358.75 482.895 364.159 476.027C371.237 467.037 385.311 464.093 387.792 452.767C388.619 448.987 387.796 444.61 387.936 440.45C388.156 433.835 390.809 427.4 395.215 422.796C395.49 422.509 395.868 422.342 396.266 422.333C396.664 422.325 397.049 422.474 397.336 422.749C397.624 423.024 397.79 423.402 397.799 423.8C397.808 424.198 397.658 424.583 397.383 424.87C393.48 428.947 391.13 434.662 390.934 440.55C390.661 448.747 394.44 457.387 379.583 467.665C374.831 470.954 369.942 473.531 366.516 477.882C361.625 484.094 360.567 492.648 359.77 502.372C359.738 502.769 359.55 503.136 359.246 503.394C358.943 503.651 358.55 503.777 358.153 503.745Z" fill="white"/>
<path d="M382.576 463.086L382.758 461.597L382.564 463.085C377.973 462.54 375.649 457.097 375.462 452.453C375.302 448.346 376.145 444.296 375.035 440.776C374.358 438.608 372.919 436.638 371.757 434.477C370.098 431.4 369.577 428.619 370.209 426.212C371.321 421.939 375.479 420.112 378.479 418.012C380.785 416.394 382.779 414.114 384.244 411.421C385.539 409.019 385.502 405.218 387.14 402.577C390.404 397.263 398.089 399.657 402.681 401.087C403.389 401.307 404.039 401.51 404.602 401.664C415.195 404.528 426.531 401.496 434.477 394.634C435.447 393.799 436.954 394.484 436.957 395.764C436.98 402.593 432.944 408.214 429.427 412.346C424.745 417.915 415.684 425.786 416.97 435.239C417.48 439.01 419.713 442.676 419.777 446.97C419.872 453.865 414.443 458.962 409.359 460.78C403.923 462.73 398.116 462.072 392.992 461.493C392.597 461.448 392.235 461.248 391.987 460.937C391.739 460.626 391.625 460.229 391.67 459.833C391.715 459.438 391.915 459.076 392.226 458.828C392.538 458.58 392.935 458.466 393.33 458.511C398.128 459.056 403.567 459.671 408.348 457.956C412.592 456.438 416.848 452.193 416.778 447.013C416.66 438.99 406.856 432.589 423.662 414.303C427.748 409.871 432.242 404.91 433.572 399.137C425.205 404.999 414.201 407.367 403.816 404.559C399.71 403.439 392.081 400.263 389.693 404.154C388.471 406.123 388.371 410.087 386.882 412.849C381.755 422.281 374.412 421.968 373.112 426.97C371.995 431.223 376.469 435.31 377.897 439.878C379.205 444.026 378.304 448.338 378.46 452.334C378.596 455.723 380.159 459.592 382.786 460.084L382.926 460.107L382.576 463.087V463.086ZM356.206 501.791C350.522 493.472 353.051 481.906 356.173 473.668C359.357 465.26 363.749 456.552 362.893 447.673C361.403 432.203 344.505 420.603 345.266 403.968C345.27 403.768 345.315 403.571 345.396 403.388C345.478 403.206 345.595 403.041 345.741 402.905C345.888 402.768 346.06 402.662 346.247 402.593C346.435 402.524 346.635 402.493 346.834 402.502C347.034 402.511 347.23 402.56 347.411 402.646C347.591 402.732 347.753 402.854 347.886 403.003C348.019 403.152 348.121 403.327 348.185 403.516C348.25 403.705 348.276 403.906 348.262 404.105C347.558 419.515 364.296 430.945 365.88 447.385C366.81 457.041 362.308 465.947 358.977 474.731C356.109 482.301 353.729 492.848 358.682 500.099C358.8 500.262 358.883 500.446 358.929 500.641C358.974 500.836 358.979 501.039 358.945 501.236C358.91 501.433 358.837 501.622 358.728 501.79C358.62 501.959 358.479 502.104 358.313 502.217C358.148 502.33 357.961 502.409 357.765 502.449C357.569 502.489 357.366 502.489 357.17 502.449C356.973 502.409 356.787 502.331 356.621 502.218C356.456 502.105 356.315 501.96 356.206 501.791Z" fill="white"/>
<path d="M355.121 427.704C354.848 427.415 354.701 427.029 354.713 426.632C354.724 426.234 354.893 425.858 355.182 425.584C359.461 421.544 366.764 413.745 368.153 410.017C369.511 406.371 369.02 401.155 365.861 399.087C364.101 397.934 361.533 397.751 359.301 396.367C353.848 392.986 353.526 384.83 349.371 381.425C344.755 377.645 337.89 380.917 332.609 382.101C326.164 383.546 319.403 382.918 313.287 380.347C314.358 385.424 317.317 390.037 321.377 392.783C324.711 395.037 329.492 396.786 331.114 401.411C332.735 406.026 330.213 410.793 331.087 414.762C331.781 417.912 334.503 419.88 336.818 420.672C339.692 421.652 342.859 421.467 345.856 421.192C346.665 421.109 347.41 421.722 347.487 422.548C347.523 422.945 347.401 423.339 347.146 423.644C346.892 423.95 346.526 424.142 346.13 424.178C342.956 424.469 339.28 424.682 335.848 423.51C331.909 422.164 328.962 419.06 328.157 415.408C327.135 410.771 329.567 406.065 328.284 402.405C327.082 398.98 323.07 397.548 319.695 395.268C314.196 391.547 310.448 384.898 309.913 377.915C309.893 377.648 309.945 377.38 310.064 377.14C310.182 376.899 310.363 376.695 310.587 376.548C310.811 376.401 311.071 376.316 311.339 376.304C311.607 376.291 311.873 376.35 312.11 376.475C318.236 379.712 325.282 380.67 331.953 379.175C334.979 378.495 337.943 377.328 341.167 376.855C344.014 376.436 348.077 376.488 351.272 379.105C356.129 383.083 356.514 391.109 360.881 393.817C362.731 394.964 365.224 395.082 367.505 396.577C371.961 399.494 372.762 406.234 370.964 411.064C368.84 416.77 357.358 427.656 357.243 427.764C357.1 427.9 356.932 428.006 356.747 428.076C356.563 428.146 356.367 428.179 356.17 428.174C355.973 428.168 355.779 428.124 355.6 428.043C355.42 427.963 355.258 427.848 355.122 427.704H355.121ZM382.229 486.022L382.226 486.018C381.901 485.628 381.559 485.358 380.983 485.358C324.108 485.358 333.72 485.304 332.613 485.367C332.465 485.376 332.287 485.39 332.009 485.535C331.729 485.683 331.599 485.841 331.513 485.953C331.505 485.963 331.525 485.941 331.464 486.013C331.104 486.759 325.894 493.303 325.894 504.019C325.894 521.381 339.775 535.506 356.838 535.506C373.906 535.506 387.792 521.381 387.792 504.019C387.792 497.542 385.868 491.319 382.229 486.022ZM343.939 514.913C337.809 512.481 333.499 505.86 333.691 499.17C333.695 499.039 333.724 498.91 333.778 498.79C333.831 498.67 333.908 498.562 334.004 498.471C334.1 498.381 334.212 498.311 334.335 498.264C334.458 498.218 334.589 498.196 334.72 498.2C334.985 498.208 335.236 498.321 335.419 498.513C335.601 498.706 335.699 498.963 335.691 499.228C335.522 505.106 339.301 510.921 344.677 513.054C345.892 513.538 345.183 515.405 343.938 514.914L343.939 514.913ZM373.251 515.989C370.933 519.657 365.829 520.897 362.041 519.078C361.568 520.81 360.01 522.217 358.181 522.217C355.778 522.217 353.775 519.796 354.171 517.427C354.215 517.166 354.361 516.932 354.577 516.778C354.793 516.624 355.062 516.563 355.323 516.606C355.585 516.65 355.818 516.796 355.972 517.012C356.126 517.228 356.188 517.497 356.144 517.758C355.944 518.948 357.064 520.253 358.258 520.215C359.43 520.157 360.447 518.731 360.133 517.558C359.883 516.62 360.986 515.91 361.735 516.528C364.615 518.908 369.549 518.105 371.559 514.921C371.629 514.81 371.721 514.714 371.828 514.638C371.935 514.562 372.056 514.509 372.185 514.48C372.313 514.451 372.445 514.447 372.575 514.469C372.704 514.492 372.828 514.539 372.939 514.609C373.05 514.68 373.147 514.771 373.222 514.878C373.298 514.985 373.352 515.107 373.381 515.235C373.41 515.363 373.413 515.496 373.391 515.625C373.369 515.754 373.321 515.878 373.251 515.989ZM317.83 515.647C312.483 507.967 310.443 497.884 312.376 488.677C312.415 488.484 312.493 488.299 312.604 488.135C312.714 487.971 312.856 487.831 313.022 487.722C313.187 487.613 313.372 487.538 313.567 487.501C313.761 487.465 313.961 487.466 314.154 487.507C314.348 487.548 314.532 487.626 314.695 487.738C314.858 487.85 314.998 487.993 315.105 488.159C315.213 488.325 315.286 488.511 315.322 488.706C315.358 488.9 315.354 489.1 315.312 489.293C313.546 497.706 315.408 506.918 320.292 513.933C320.515 514.26 320.6 514.661 320.529 515.05C320.457 515.439 320.235 515.784 319.91 516.01C319.586 516.236 319.185 516.325 318.796 516.257C318.406 516.189 318.059 515.97 317.83 515.647ZM304.935 504.955C303.819 500.753 303.47 496.383 303.907 492.056C303.922 491.857 303.976 491.662 304.068 491.483C304.159 491.305 304.285 491.147 304.438 491.018C304.592 490.889 304.769 490.792 304.961 490.733C305.152 490.674 305.353 490.654 305.553 490.674C305.752 490.694 305.945 490.753 306.121 490.849C306.297 490.945 306.452 491.075 306.577 491.232C306.702 491.389 306.794 491.569 306.848 491.762C306.902 491.955 306.916 492.157 306.891 492.355C306.491 496.324 306.812 500.332 307.836 504.187C307.888 504.378 307.901 504.577 307.875 504.773C307.849 504.969 307.785 505.158 307.686 505.329C307.588 505.5 307.456 505.65 307.299 505.77C307.142 505.889 306.963 505.977 306.772 506.028C306.581 506.078 306.382 506.091 306.186 506.064C305.99 506.038 305.802 505.973 305.631 505.873C305.461 505.773 305.311 505.641 305.192 505.484C305.073 505.326 304.986 505.147 304.936 504.955H304.935ZM424.01 391.64L413.112 296.53C413.089 296.335 413.104 296.136 413.158 295.947C413.211 295.757 413.301 295.58 413.423 295.425C413.545 295.27 413.697 295.141 413.868 295.044C414.04 294.948 414.23 294.887 414.425 294.863C415.241 294.773 415.993 295.353 416.091 296.176L426.99 391.298C427.016 391.496 427.003 391.697 426.951 391.889C426.898 392.081 426.808 392.261 426.686 392.418C426.563 392.575 426.411 392.706 426.237 392.803C426.063 392.901 425.872 392.962 425.674 392.985C425.476 393.008 425.276 392.991 425.085 392.935C424.893 392.88 424.715 392.787 424.56 392.662C424.405 392.536 424.277 392.382 424.183 392.206C424.088 392.031 424.03 391.839 424.01 391.64ZM435.406 472.728C435.042 472.728 434.69 472.595 434.416 472.354C434.143 472.113 433.966 471.78 433.92 471.418L427.48 420.887C427.455 420.692 427.469 420.494 427.521 420.304C427.573 420.114 427.661 419.936 427.782 419.78C427.903 419.624 428.053 419.493 428.224 419.396C428.395 419.298 428.583 419.235 428.779 419.21C428.974 419.185 429.173 419.199 429.363 419.251C429.553 419.302 429.731 419.391 429.886 419.512C430.042 419.632 430.173 419.782 430.27 419.953C430.368 420.124 430.431 420.313 430.456 420.508L436.896 471.038C436.923 471.25 436.905 471.465 436.842 471.669C436.78 471.872 436.674 472.06 436.533 472.22C436.392 472.38 436.219 472.508 436.025 472.596C435.83 472.684 435.619 472.729 435.406 472.728ZM343.283 261.577C338.58 260.305 335.592 254.589 336.757 249.093C337.937 243.526 343.656 238.42 348.996 238.167C356.423 237.843 360.884 247.727 354.884 256.269C352.287 259.966 347.723 262.776 343.283 261.577ZM349.418 241.157C349.325 241.157 349.232 241.159 349.138 241.164C345.102 241.354 340.6 245.431 339.692 249.715C338.875 253.568 340.96 257.841 344.066 258.68C349.596 260.18 356.336 251.906 354.33 245.502C353.427 242.617 351.774 241.157 349.418 241.157Z" fill="white"/>
<path d="M410.811 218.975C410.686 218.758 410.508 218.576 410.294 218.445C410.08 218.314 409.836 218.24 409.585 218.227C372.601 216.42 339.988 216.344 309.883 217.921C309.597 217.936 309.321 218.033 309.087 218.2C308.854 218.367 308.674 218.598 308.567 218.864C298.995 242.874 289.097 267.704 282.181 292.474C282.117 292.704 282.109 292.945 282.156 293.178C282.204 293.411 282.306 293.63 282.455 293.816C282.604 294.002 282.795 294.15 283.012 294.247C283.229 294.344 283.467 294.389 283.704 294.376C314.413 292.769 349.219 290.948 380.17 285.898C380.425 285.857 380.665 285.75 380.866 285.589C381.068 285.428 381.224 285.218 381.32 284.978C390.07 263.248 400.005 241.524 410.845 220.41C411.079 219.957 411.065 219.416 410.81 218.975H410.811ZM334.584 281.86C332.63 283.356 329.793 283.83 325.913 283.314C323.152 282.945 320.493 282.314 317.987 282.819C316.219 283.174 314.489 284.093 312.447 283.979C310.78 283.894 309.472 283.185 308.104 283.069C305.892 282.873 303.572 284.319 301.018 284.319C296.819 284.319 295.315 281.114 296.926 280.505C297.049 280.459 297.18 280.437 297.311 280.441C297.443 280.445 297.572 280.475 297.691 280.529C297.811 280.583 297.919 280.66 298.009 280.756C298.099 280.852 298.169 280.964 298.215 281.087C298.629 282.182 300.605 282.519 302.195 282.203C302.787 282.086 303.374 281.917 303.995 281.738C307.253 280.802 308.21 280.898 310.53 281.558C312.517 282.125 313.05 282.191 315.646 281.387C316.271 281.194 316.918 280.994 317.592 280.857C319.94 280.385 322.305 280.747 324.59 281.098C327.37 281.526 331.056 282.043 333.367 280.272C333.578 280.111 333.844 280.04 334.107 280.075C334.37 280.109 334.609 280.247 334.77 280.458C334.931 280.668 335.002 280.934 334.968 281.197C334.933 281.461 334.795 281.699 334.584 281.86ZM343.424 260.129C339.334 259.023 337.03 253.856 337.974 249.404C339.694 241.293 352.21 234.514 355.511 245.054C357.823 252.434 350.275 261.98 343.424 260.129ZM376.934 264.697L374.187 269.339C374.122 269.455 374.034 269.556 373.928 269.637C373.823 269.718 373.703 269.777 373.574 269.811C373.446 269.845 373.312 269.853 373.181 269.835C373.049 269.816 372.923 269.772 372.808 269.704C372.694 269.637 372.595 269.547 372.516 269.44C372.436 269.334 372.379 269.212 372.348 269.083C372.316 268.954 372.31 268.82 372.331 268.689C372.351 268.558 372.398 268.432 372.467 268.319L375.213 263.679C375.352 263.459 375.572 263.302 375.825 263.241C376.078 263.18 376.345 263.22 376.569 263.353C376.793 263.486 376.956 263.7 377.024 263.952C377.092 264.203 377.06 264.471 376.933 264.698L376.934 264.697ZM392.182 232.942L379.507 258.803C379.386 259.033 379.18 259.207 378.933 259.287C378.685 259.368 378.416 259.349 378.183 259.234C377.949 259.12 377.77 258.919 377.682 258.674C377.594 258.429 377.605 258.16 377.712 257.923L390.387 232.063C390.443 231.941 390.522 231.832 390.62 231.741C390.719 231.65 390.834 231.58 390.96 231.535C391.086 231.49 391.22 231.471 391.354 231.478C391.487 231.485 391.618 231.52 391.738 231.579C391.858 231.637 391.966 231.72 392.053 231.821C392.141 231.922 392.208 232.04 392.249 232.167C392.29 232.294 392.306 232.429 392.294 232.562C392.283 232.695 392.245 232.825 392.182 232.943V232.942Z" fill="white"/>
<path d="M420.967 297.555L135.53 299.786C132.119 299.814 127.217 296.976 127.19 293.446C127.162 289.915 132.02 287.03 135.431 287.002L420.868 284.771C424.279 284.743 427.067 287.581 427.094 291.112C427.121 294.642 424.378 297.527 420.967 297.555Z" fill="white"/>
<path d="M124.651 475.773C124.455 475.755 124.264 475.697 124.09 475.605C123.916 475.512 123.762 475.387 123.637 475.235C123.511 475.083 123.417 474.907 123.36 474.719C123.302 474.53 123.282 474.333 123.301 474.136L140.165 298.662C140.208 298.27 140.403 297.911 140.709 297.661C141.015 297.412 141.407 297.294 141.8 297.332C142.192 297.369 142.554 297.56 142.807 297.863C143.06 298.166 143.184 298.556 143.151 298.949L126.288 474.423C126.269 474.62 126.212 474.81 126.119 474.984C126.027 475.158 125.901 475.312 125.749 475.438C125.597 475.563 125.422 475.657 125.233 475.715C125.045 475.772 124.847 475.792 124.651 475.773ZM355.544 101.539C355.347 101.533 355.153 101.487 354.974 101.406C354.795 101.324 354.633 101.208 354.499 101.064C354.364 100.92 354.259 100.751 354.19 100.566C354.121 100.382 354.089 100.185 354.096 99.9884L355.246 66.8514C355.336 64.1956 356.406 61.6672 358.249 59.7529C360.092 57.8386 362.578 56.6737 365.229 56.4824L490.689 47.3354C491.085 47.3099 491.475 47.441 491.776 47.7004C492.076 47.9599 492.262 48.3268 492.295 48.7224C492.324 49.1192 492.194 49.5111 491.934 49.8121C491.674 50.1131 491.305 50.2985 490.908 50.3274L365.45 59.4734C363.537 59.6112 361.743 60.4516 360.413 61.8327C359.083 63.2138 358.311 65.038 358.245 66.9544L357.095 100.091C357.081 100.489 356.91 100.865 356.619 101.136C356.328 101.407 355.941 101.553 355.544 101.539ZM492.561 190.317L432.345 181.694C432.15 181.666 431.962 181.6 431.793 181.5C431.623 181.399 431.475 181.267 431.357 181.109C431.239 180.951 431.154 180.772 431.105 180.581C431.056 180.39 431.046 180.191 431.074 179.996C431.19 179.176 431.949 178.606 432.771 178.724L492.985 187.347C497.553 187.996 501.7 184.541 501.86 179.924L506.096 57.8444C506.173 55.6444 505.306 53.5054 503.716 51.9764C502.126 50.4474 499.95 49.6634 497.759 49.8244L497.111 49.8744C496.715 49.9013 496.324 49.7714 496.023 49.5129C495.722 49.2544 495.534 48.8879 495.501 48.4924C495.486 48.2959 495.51 48.0984 495.571 47.9112C495.632 47.7239 495.73 47.5506 495.858 47.4011C495.987 47.2516 496.143 47.1288 496.319 47.0398C496.495 46.9508 496.686 46.8973 496.883 46.8824L497.534 46.8324C499.043 46.7221 500.559 46.9306 501.982 47.4444C503.406 47.9581 504.705 48.7656 505.796 49.8144C506.885 50.8633 507.742 52.1296 508.31 53.5311C508.879 54.9326 509.146 56.4379 509.095 57.9494L504.858 180.029C504.637 186.419 498.902 191.219 492.561 190.317ZM425.591 180.709C425.521 180.709 425.449 180.704 425.377 180.694L361.239 171.51C358.607 171.139 356.205 169.805 354.499 167.767C352.792 165.728 351.901 163.13 351.998 160.473L353.772 107.785C353.801 106.956 354.487 106.325 355.322 106.336C355.719 106.35 356.095 106.521 356.367 106.812C356.638 107.102 356.783 107.489 356.77 107.886L354.996 160.575C354.926 162.493 355.569 164.368 356.8 165.839C358.031 167.31 359.764 168.272 361.664 168.54L425.803 177.724C426.178 177.778 426.52 177.972 426.758 178.267C426.997 178.562 427.114 178.937 427.087 179.315C427.061 179.694 426.892 180.048 426.614 180.307C426.337 180.565 425.97 180.709 425.591 180.709Z" fill="white"/>
<path d="M356.652 81.6842C356.62 81.2877 356.747 80.8948 357.005 80.5919C357.263 80.2891 357.631 80.101 358.027 80.0692C379.821 78.3192 404.047 76.7462 427.474 75.2252C450.892 73.7052 475.107 72.1332 496.879 70.3842C497.275 70.3543 497.667 70.482 497.97 70.7394C498.272 70.9969 498.461 71.3634 498.494 71.7592C498.526 72.1556 498.399 72.5485 498.141 72.8514C497.883 73.1542 497.516 73.3423 497.119 73.3742C475.325 75.1242 451.099 76.6972 427.669 78.2182C404.252 79.7392 380.038 81.3112 358.267 83.0592C357.871 83.0909 357.478 82.9639 357.175 82.7061C356.872 82.4482 356.684 82.0806 356.652 81.6842ZM466.763 119.046L486.703 122.823L487.719 93.5482L467.565 95.9342L466.763 119.046Z" fill="white"/>
<path d="M486.703 124.323C486.61 124.323 486.516 124.315 486.423 124.297L466.483 120.52C466.131 120.453 465.814 120.263 465.59 119.983C465.366 119.703 465.25 119.352 465.263 118.994L466.065 95.8821C466.077 95.524 466.217 95.1822 466.46 94.9184C466.702 94.6547 467.031 94.4864 467.387 94.4441L487.542 92.0581C487.757 92.0322 487.975 92.0532 488.181 92.1197C488.387 92.1861 488.576 92.2964 488.735 92.443C488.894 92.5895 489.02 92.7688 489.103 92.9686C489.187 93.1684 489.226 93.3838 489.218 93.6001L488.202 122.876C488.188 123.265 488.025 123.633 487.745 123.903C487.465 124.173 487.092 124.324 486.703 124.323ZM468.306 117.812L485.264 121.024L486.159 95.2431L469.019 97.2731L468.306 117.812ZM383.869 103.123C383.863 102.926 383.896 102.73 383.966 102.546C384.036 102.362 384.141 102.193 384.276 102.05C384.411 101.906 384.574 101.791 384.753 101.71C384.933 101.629 385.127 101.585 385.324 101.579L455.024 99.5261C455.221 99.5176 455.419 99.5489 455.604 99.618C455.789 99.6871 455.959 99.7926 456.103 99.9283C456.246 100.064 456.362 100.227 456.441 100.408C456.521 100.589 456.564 100.784 456.567 100.982C456.578 101.38 456.432 101.765 456.159 102.055C455.886 102.344 455.509 102.513 455.112 102.525L385.412 104.578C385.014 104.59 384.628 104.443 384.339 104.17C384.05 103.897 383.88 103.521 383.869 103.123ZM414.614 118.052C414.216 118.058 413.832 117.905 413.547 117.628C413.261 117.351 413.098 116.971 413.092 116.574C413.086 116.176 413.239 115.792 413.516 115.507C413.794 115.221 414.173 115.058 414.571 115.052L451.009 113.979C451.406 113.967 451.792 114.114 452.082 114.387C452.371 114.66 452.541 115.037 452.552 115.435C452.564 115.832 452.417 116.218 452.144 116.508C451.871 116.797 451.494 116.966 451.097 116.978L414.659 118.051L414.614 118.052ZM384.245 131.909C384.994 136.829 381.589 142.036 376.782 143.323C371.975 144.611 366.423 141.801 364.613 137.166C362.803 132.53 364.983 126.702 369.391 124.392C373.798 122.082 379.502 123.446 381.402 125.799C379.159 128.31 376.757 130.755 374.513 133.267C377.972 132.79 380.786 132.386 384.245 131.909ZM383.293 121.452C383.01 121.172 382.85 120.791 382.849 120.394C382.847 119.996 383.003 119.614 383.283 119.331L386.975 115.604C387.255 115.322 387.637 115.162 388.034 115.16L400.31 115.103C400.708 115.102 401.089 115.259 401.371 115.54C401.653 115.821 401.812 116.202 401.813 116.6C401.814 116.997 401.657 117.379 401.376 117.661C401.096 117.943 400.715 118.102 400.317 118.103L388.669 118.157L385.414 121.442C385.134 121.725 384.753 121.884 384.355 121.886C383.958 121.888 383.575 121.732 383.293 121.452Z" fill="white"/>
<path d="M402.886 115.627C403.688 116.358 403.581 117.841 402.683 118.45C401.785 119.058 400.368 118.609 399.986 117.594C399.604 116.579 400.371 115.306 401.448 115.171C402.218 115.074 403.071 115.614 403.144 116.387" fill="white"/>
<path d="M401.75 120.227C401.398 120.227 401.04 120.172 400.687 120.06C399.695 119.744 398.927 119.038 398.583 118.122C397.516 115.287 400.802 112.402 403.42 114.224C403.592 114.289 403.755 114.388 403.9 114.52C404.622 115.18 404.994 116.155 404.919 117.194C404.844 118.232 404.336 119.142 403.526 119.691C403.001 120.044 402.382 120.231 401.75 120.227ZM401.656 116.685C401.575 116.685 401.509 116.738 401.455 116.827C401.388 116.937 401.381 117.037 401.39 117.064C401.4 117.086 401.464 117.159 401.596 117.201C401.716 117.239 401.818 117.224 401.843 117.208C401.853 117.199 401.862 117.188 401.869 117.175C401.776 117.024 401.71 116.859 401.676 116.685H401.656ZM478.955 160.823C477.005 160.371 474.817 161.699 474.32 163.638C473.822 165.577 475.1 167.795 477.028 168.337C478.955 168.878 481.201 167.651 481.786 165.737C482.372 163.823 481.197 161.548 479.296 160.92" fill="white"/>
<path d="M477.959 169.963C477.507 169.964 477.056 169.902 476.621 169.78C473.924 169.023 472.17 165.978 472.866 163.265C473.562 160.553 476.56 158.73 479.294 159.363C479.374 159.382 479.453 159.407 479.527 159.438C479.607 159.45 479.687 159.469 479.767 159.496C482.425 160.376 484.039 163.496 483.22 166.175C482.534 168.417 480.262 169.963 477.959 169.963ZM478.159 162.234C477.115 162.234 476.031 163.001 475.772 164.01C475.474 165.169 476.282 166.57 477.432 166.892C478.582 167.215 480.002 166.442 480.352 165.298C480.701 164.155 479.958 162.719 478.823 162.343C478.788 162.332 478.754 162.32 478.721 162.306C478.685 162.301 478.649 162.294 478.614 162.285C478.466 162.25 478.314 162.235 478.16 162.235L478.159 162.234ZM465.72 164.567C465.678 164.567 465.637 164.566 465.596 164.562L413.674 160.349C413.277 160.317 412.91 160.129 412.652 159.826C412.394 159.523 412.268 159.13 412.3 158.733C412.334 158.338 412.523 157.972 412.826 157.714C413.128 157.457 413.52 157.33 413.916 157.359L465.839 161.572C466.225 161.604 466.583 161.783 466.84 162.073C467.096 162.363 467.231 162.741 467.215 163.127C467.2 163.514 467.035 163.88 466.757 164.148C466.478 164.416 466.107 164.567 465.72 164.567ZM479.534 144.118C477.584 143.665 475.396 144.993 474.899 146.932C474.402 148.871 475.679 151.089 477.606 151.63C479.533 152.172 481.78 150.944 482.366 149.03C482.952 147.116 481.775 144.842 479.875 144.213" fill="white"/>
<path d="M478.539 153.257C478.089 153.257 477.64 153.198 477.2 153.074C474.505 152.316 472.75 149.272 473.445 146.559C474.142 143.845 477.148 142.023 479.874 142.656C479.954 142.676 480.034 142.701 480.109 142.732C480.189 142.744 480.267 142.763 480.345 142.789C483.005 143.669 484.62 146.791 483.8 149.469C483.114 151.711 480.843 153.257 478.539 153.257ZM478.74 145.527C477.695 145.527 476.61 146.295 476.351 147.305C476.054 148.462 476.862 149.863 478.012 150.187C479.162 150.511 480.581 149.735 480.93 148.592C481.281 147.448 480.539 146.012 479.404 145.638C479.369 145.626 479.334 145.613 479.3 145.598C479.264 145.593 479.229 145.586 479.194 145.578C479.046 145.544 478.894 145.527 478.74 145.527ZM466.3 147.861C466.259 147.861 466.218 147.86 466.177 147.856L414.254 143.642C413.857 143.61 413.49 143.422 413.232 143.119C412.975 142.816 412.848 142.423 412.88 142.026C412.915 141.631 413.104 141.265 413.406 141.008C413.708 140.751 414.1 140.623 414.496 140.652L466.419 144.865C466.807 144.894 467.169 145.072 467.429 145.362C467.688 145.652 467.824 146.032 467.809 146.421C467.793 146.81 467.627 147.178 467.345 147.447C467.063 147.716 466.688 147.864 466.299 147.861H466.3ZM372.736 66.3623C374.44 66.7073 375.418 68.9643 374.504 70.4433C373.59 71.9233 371.134 72.0583 370.063 70.6893C368.991 69.3203 369.713 66.9693 371.368 66.4383" fill="white"/>
<path d="M368.881 71.6134C367.164 69.4194 368.264 65.8594 370.91 65.0104C371.28 64.8924 371.654 64.9234 371.978 65.0674C372.287 64.8874 372.66 64.8174 373.034 64.8914C375.768 65.4474 377.239 68.8714 375.78 71.2314C374.313 73.6044 370.592 73.8004 368.882 71.6144L368.881 71.6134ZM372.127 67.7334C371.867 67.8844 371.365 67.9164 371.127 68.6904C370.617 70.3474 372.731 70.4604 373.227 69.6554C373.593 69.0624 373.117 67.9704 372.438 67.8324C372.331 67.8104 372.227 67.7769 372.127 67.7324V67.7334ZM387.111 65.2684C388.815 65.6134 389.792 67.8704 388.879 69.3494C387.965 70.8294 385.509 70.9644 384.438 69.5954C383.366 68.2264 384.088 65.8754 385.743 65.3434" fill="white"/>
<path d="M383.257 70.5201C381.54 68.3271 382.637 64.7661 385.284 63.9151C385.635 63.8015 386.016 63.8222 386.354 63.9731C386.671 63.7863 387.047 63.7239 387.409 63.7981C390.14 64.3521 391.615 67.7721 390.155 70.1381C388.688 72.5081 384.966 72.7051 383.257 70.5201ZM386.501 66.6381C386.241 66.7901 385.74 66.8221 385.501 67.5951C385.226 68.4951 385.741 69.0991 386.635 69.0431C388.345 68.9471 387.749 66.9281 386.813 66.7381C386.705 66.716 386.601 66.6824 386.501 66.6381ZM400.871 63.5151C402.576 63.8611 403.553 66.1171 402.639 67.5971C401.725 69.0761 399.269 69.2121 398.199 67.8431C397.126 66.4731 397.849 64.1231 399.504 63.5911" fill="white"/>
<path d="M397.016 68.7676C395.304 66.5776 396.393 63.0156 399.045 62.1636C399.396 62.0497 399.777 62.07 400.114 62.2206C400.422 62.0406 400.796 61.9706 401.17 62.0456C403.904 62.5996 405.373 66.0256 403.916 68.3856C402.45 70.7576 398.728 70.9556 397.016 68.7676ZM400.262 64.8856C399.996 65.0416 399.5 65.0696 399.262 65.8436C398.627 67.9126 402.216 67.7006 401.36 65.7266C401.19 65.3336 400.888 65.0496 400.574 64.9866C400.466 64.9644 400.362 64.9299 400.262 64.8856ZM522.101 63.6266C521.777 63.6262 521.462 63.5212 521.203 63.3273C520.944 63.1333 520.755 62.8609 520.664 62.5506C517.301 51.1619 510.919 40.8956 502.195 32.8406C501.902 32.5707 501.729 32.1957 501.713 31.7982C501.697 31.4006 501.84 31.013 502.11 30.7206C502.38 30.4282 502.755 30.2549 503.152 30.239C503.55 30.2231 503.937 30.3657 504.23 30.6356C513.352 39.0583 520.024 49.7928 523.54 61.7006C523.606 61.9244 523.619 62.1606 523.578 62.3905C523.537 62.6203 523.443 62.8373 523.303 63.0244C523.163 63.2114 522.982 63.3632 522.773 63.4678C522.564 63.5723 522.334 63.6267 522.101 63.6266Z" fill="white"/>
<path d="M170.375 73.5935L168.812 78.8855C161.496 72.9275 151.445 71.5015 142.024 72.0015C138.008 72.2155 133.976 72.7345 129.98 72.2825C125.984 71.8305 121.914 70.2565 119.461 67.0695C117.008 63.8825 116.719 58.8735 119.554 56.0225C118.746 60.0705 121.544 64.1875 125.216 66.0705C132.738 69.9265 141.628 66.2355 149.67 66.9985C156.797 67.6745 163.815 71.8275 170.954 69.8945C174.334 69.0165 177.527 66.3185 178.125 62.7585C177.652 65.3295 178.705 67.0705 177.144 69.4505C175.664 71.7065 173.057 73.3155 170.375 73.5935Z" fill="white"/>
<path d="M174.263 28.3556L129.061 23.0776C123.546 22.4326 118.591 26.3306 118.432 31.8856C118.172 41.2846 117.621 51.5676 117.372 61.0016C117.223 66.3276 121.665 70.5466 127.058 70.5506L158.794 70.6206L167.339 80.1916C167.536 80.4123 167.794 80.5698 168.08 80.6443C168.367 80.7188 168.669 80.7069 168.948 80.6102C169.228 80.5134 169.473 80.3361 169.652 80.1006C169.831 79.8651 169.936 79.5819 169.955 79.2866L170.5 70.6516L171.844 70.6556C176.349 70.6556 180.099 67.0056 180.384 62.3366L181.914 37.8366C182.209 33.1366 178.776 28.8836 174.263 28.3556ZM125.123 56.9256C124.323 58.1273 123.804 59.4932 123.603 60.9226L123.948 61.0626C125.158 61.5526 124.443 63.4156 123.198 62.9166L122.156 62.4946C121.961 62.4157 121.796 62.2774 121.684 62.0993C121.572 61.9212 121.519 61.7124 121.533 61.5026C121.633 59.9806 122.033 58.4936 122.702 57.1326C121.763 56.6136 121.127 55.5246 121.122 54.4616C121.113 52.9546 122.014 51.7236 122.672 50.8246C122.829 50.6105 123.064 50.4675 123.326 50.427C123.588 50.3865 123.856 50.4518 124.07 50.6086C124.284 50.7653 124.427 51.0006 124.467 51.2628C124.508 51.525 124.443 51.7925 124.286 52.0066C123.646 52.8796 123.117 53.6666 123.122 54.4496C123.125 55.0276 123.677 55.5286 123.952 55.4296C124.15 55.3577 124.366 55.3504 124.568 55.4085C124.771 55.4666 124.95 55.5873 125.079 55.7533C125.209 55.9192 125.283 56.122 125.291 56.3325C125.298 56.5431 125.239 56.7506 125.122 56.9256H125.123ZM164.377 54.9156L138.664 53.4106C138.114 53.3786 137.692 52.9056 137.724 52.3536C137.756 51.8016 138.195 51.3736 138.781 51.4136L164.494 52.9206C164.754 52.9421 164.995 53.0645 165.167 53.2616C165.338 53.4588 165.425 53.7151 165.41 53.9757C165.394 54.2363 165.278 54.4806 165.085 54.6564C164.892 54.8322 164.638 54.9246 164.377 54.9156ZM168.956 43.6216L126.191 40.0486C126.06 40.0377 125.932 40.0012 125.816 39.941C125.699 39.8808 125.595 39.7982 125.51 39.6979C125.426 39.5976 125.361 39.4815 125.321 39.3564C125.282 39.2312 125.267 39.0994 125.278 38.9686C125.288 38.8374 125.324 38.7095 125.384 38.5924C125.444 38.4752 125.527 38.3712 125.627 38.2861C125.727 38.2011 125.844 38.1369 125.969 38.0972C126.095 38.0574 126.227 38.0429 126.358 38.0546L169.122 41.6286C169.386 41.6506 169.631 41.7767 169.802 41.9791C169.973 42.1816 170.057 42.4438 170.035 42.7081C170.013 42.9723 169.887 43.2171 169.685 43.3884C169.482 43.5597 169.22 43.6436 168.956 43.6216Z" fill="white"/>
<path d="M69.7711 398.386C97.4235 398.386 119.84 395.687 119.84 392.358C119.84 389.029 97.4235 386.33 69.7711 386.33C42.1188 386.33 19.7021 389.029 19.7021 392.358C19.7021 395.687 42.1188 398.386 69.7711 398.386Z" fill="white"/>
<path d="M69.7711 399.885C56.3401 399.885 43.7021 399.255 34.1871 398.109C20.1381 396.418 18.2021 394.345 18.2021 392.358C18.2021 390.371 20.1381 388.298 34.1871 386.606C43.7021 385.46 56.3391 384.829 69.7711 384.829C83.2031 384.829 95.8411 385.46 105.355 386.606C119.405 388.297 121.341 390.37 121.341 392.358C121.341 394.346 119.404 396.418 105.355 398.109C95.8411 399.255 83.2031 399.885 69.7711 399.885ZM21.5441 392.358C24.8231 394.322 42.5921 396.885 69.7711 396.885C96.9501 396.885 114.72 394.322 117.999 392.358C114.719 390.393 96.9511 387.829 69.7711 387.829C42.5911 387.829 24.8231 390.393 21.5441 392.358ZM69.7711 395.641L69.8741 503.371L69.7711 395.641Z" fill="white"/>
<path d="M69.8745 504.871C69.477 504.871 69.0958 504.713 68.8145 504.432C68.5333 504.152 68.375 503.771 68.3745 503.373L68.2715 395.643C68.2711 395.245 68.4287 394.864 68.7098 394.582C68.9908 394.3 69.3722 394.142 69.77 394.142C70.1678 394.141 70.5495 394.299 70.8311 394.58C71.1127 394.861 71.2711 395.242 71.2715 395.64L71.3745 503.37C71.3746 503.567 71.3359 503.762 71.2606 503.944C71.1853 504.127 71.0748 504.292 70.9355 504.431C70.7962 504.571 70.6308 504.681 70.4487 504.757C70.2667 504.832 70.0715 504.871 69.8745 504.871Z" fill="white"/>
<path d="M44.5013 504.746C44.2189 504.465 44.0593 504.085 44.0576 503.687C44.0559 503.289 44.2123 502.907 44.4923 502.625L68.5573 478.325C69.0913 477.787 70.0383 477.677 70.6793 478.317L93.6053 501.077C93.749 501.214 93.8638 501.379 93.943 501.562C94.0223 501.745 94.0643 501.941 94.0668 502.141C94.0692 502.34 94.032 502.537 93.9572 502.722C93.8825 502.906 93.7718 503.074 93.6315 503.216C93.4913 503.357 93.3242 503.469 93.1402 503.545C92.9562 503.621 92.7589 503.66 92.5598 503.659C92.3607 503.658 92.1637 503.617 91.9805 503.54C91.7972 503.462 91.6312 503.348 91.4923 503.206L69.6323 481.504L46.6223 504.736C46.3424 505.018 45.9619 505.177 45.5644 505.179C45.1669 505.181 44.7839 505.025 44.5013 504.746ZM49.1313 328.176C49.7313 327.112 49.7813 325.854 49.2543 324.971C48.4513 323.621 47.6513 323.918 47.3863 324.016C46.2983 324.419 45.1923 326.099 45.4503 327.579C45.7083 329.052 47.8063 330.533 49.1313 328.176Z" fill="white"/>
<path d="M58.521 314.683H38.623C38.2252 314.683 37.8437 314.841 37.5624 315.122C37.2811 315.404 37.123 315.785 37.123 316.183V383.575C37.123 383.973 37.2811 384.354 37.5624 384.636C37.8437 384.917 38.2252 385.075 38.623 385.075H58.5201C58.9179 385.075 59.2994 384.917 59.5807 384.636C59.862 384.354 60.0201 383.973 60.0201 383.575V316.183C60.0201 315.785 59.862 315.404 59.5807 315.122C59.2994 314.841 58.9189 314.683 58.521 314.683ZM46.691 322.14C48.334 321.53 49.934 322.206 50.971 323.946C51.859 325.434 51.821 327.48 50.873 329.158C48.609 333.168 44.058 331.238 43.479 327.922C43.079 325.624 44.58 322.922 46.691 322.14ZM52.1021 362.271C52.0401 362.271 51.975 362.266 51.911 362.253C48.9902 361.688 46.0051 361.531 43.041 361.786C42.9101 361.799 42.7779 361.785 42.6524 361.746C42.5268 361.706 42.4102 361.643 42.3096 361.558C42.209 361.473 42.1262 361.369 42.0662 361.252C42.0062 361.135 41.9701 361.007 41.96 360.876C41.9487 360.745 41.9632 360.614 42.0028 360.488C42.0423 360.363 42.1062 360.247 42.1907 360.146C42.2753 360.046 42.3788 359.963 42.4953 359.903C42.6119 359.842 42.7392 359.805 42.87 359.794C46.0185 359.522 49.1896 359.689 52.292 360.29C52.5353 360.338 52.7521 360.475 52.9002 360.674C53.0483 360.873 53.1172 361.12 53.0935 361.367C53.0698 361.613 52.9553 361.843 52.772 362.01C52.5888 362.177 52.3501 362.27 52.1021 362.271ZM52.1021 350.039L45.202 350.041C44.9368 350.041 44.6825 349.936 44.4949 349.748C44.3074 349.561 44.202 349.306 44.202 349.041C44.202 348.776 44.3074 348.522 44.4949 348.334C44.6825 348.146 44.9368 348.041 45.202 348.041L52.1021 348.039C52.3673 348.039 52.6216 348.144 52.8092 348.332C52.9967 348.52 53.1021 348.774 53.1021 349.039C53.1021 349.304 52.9967 349.559 52.8092 349.746C52.6216 349.934 52.3673 350.039 52.1021 350.039ZM73.022 327.663C72.183 327.11 70.96 327.015 70.048 327.436C69.276 327.793 68.8241 328.542 68.8381 329.442C68.8711 331.494 71.1001 332.362 72.7351 331.259C74.0001 330.407 74.413 328.581 73.022 327.664V327.663Z" fill="white"/>
<path d="M106.436 376.944L78.2585 315.724C78.1761 315.545 78.0593 315.384 77.9147 315.25C77.7701 315.117 77.6005 315.013 77.4157 314.944C77.231 314.876 77.0345 314.845 76.8377 314.853C76.6409 314.86 76.4474 314.907 76.2685 314.989L58.1945 323.308C57.8333 323.475 57.553 323.778 57.4152 324.151C57.2774 324.524 57.2933 324.937 57.4595 325.298L85.6375 386.518C85.7195 386.697 85.8361 386.858 85.9805 386.992C86.125 387.126 86.2945 387.231 86.4793 387.299C86.6641 387.367 86.8606 387.398 87.0575 387.39C87.2543 387.383 87.4477 387.336 87.6265 387.253L105.701 378.933C106.062 378.767 106.342 378.464 106.48 378.091C106.618 377.718 106.602 377.305 106.436 376.944ZM73.8525 332.918C70.9325 334.884 66.8975 333.137 66.8395 329.473C66.8115 327.784 67.7215 326.308 69.2095 325.621C70.7375 324.915 72.7125 325.063 74.1235 325.994C76.6985 327.691 76.3345 331.247 73.8535 332.918H73.8525ZM83.0245 360.812C82.9073 360.872 82.7794 360.907 82.6483 360.917C82.5172 360.927 82.3855 360.911 82.2606 360.87C82.1358 360.828 82.0204 360.763 81.921 360.677C81.8216 360.591 81.7402 360.486 81.6815 360.368C81.6225 360.251 81.5872 360.123 81.5776 359.992C81.568 359.861 81.5844 359.729 81.6257 359.604C81.667 359.48 81.7325 359.364 81.8185 359.265C81.9044 359.166 82.0091 359.084 82.1265 359.025L86.9345 356.607C87.1715 356.488 87.4461 356.468 87.698 356.551C87.9498 356.634 88.1583 356.814 88.2775 357.051C88.3967 357.288 88.4169 357.563 88.3337 357.815C88.2504 358.066 88.0705 358.275 87.8335 358.394L83.0245 360.812ZM92.7835 366.054C91.0827 367.238 89.1863 368.113 87.1815 368.638C87.0546 368.672 86.9223 368.68 86.7923 368.662C86.6622 368.644 86.5369 368.601 86.4236 368.535C86.3103 368.468 86.2111 368.381 86.1318 368.276C86.0525 368.171 85.9947 368.052 85.9615 367.925C85.8942 367.669 85.9315 367.396 86.0652 367.167C86.1989 366.938 86.4181 366.772 86.6745 366.704C88.4517 366.238 90.1327 365.463 91.6405 364.413C91.7482 364.336 91.8701 364.281 91.9991 364.252C92.1282 364.222 92.2619 364.218 92.3923 364.241C92.5228 364.263 92.6476 364.311 92.7593 364.382C92.871 364.453 92.9675 364.546 93.0432 364.655C93.1189 364.763 93.1722 364.886 93.2001 365.015C93.2281 365.145 93.23 365.278 93.2058 365.409C93.1817 365.539 93.1319 365.663 93.0594 365.774C92.9869 365.885 92.8931 365.98 92.7835 366.054ZM473.63 538.007H283.408C283.01 538.007 282.628 537.849 282.347 537.568C282.066 537.286 281.908 536.905 281.908 536.507C281.908 536.109 282.066 535.728 282.347 535.446C282.628 535.165 283.01 535.007 283.408 535.007H473.63C474.028 535.007 474.41 535.165 474.691 535.446C474.972 535.728 475.13 536.109 475.13 536.507C475.13 536.905 474.972 537.286 474.691 537.568C474.41 537.849 474.028 538.007 473.63 538.007Z" fill="white"/>
<path d="M103.404 195.646C99.7841 200.886 93.1441 203.796 86.8041 203.186C80.4641 202.566 74.6041 198.556 71.4941 192.996L72.7141 192.416L81.9741 188.026L83.1841 189.236C83.3735 189.422 83.6285 189.526 83.8941 189.526C84.1597 189.526 84.4147 189.422 84.6041 189.236L89.2541 184.586L103.964 177.616L104.014 177.596C107.374 183.016 107.034 190.406 103.404 195.646ZM36.3911 140.358L54.8011 153.654C58.6831 156.458 60.3441 156.387 64.0071 153.784C74.9531 146.005 85.5143 137.698 95.6531 128.894C84.2869 134.602 73.504 141.404 63.4571 149.204C59.7501 152.084 58.2521 152.163 54.4991 149.928L29.8951 135.274L39.9801 141.746L36.3901 140.357L36.3911 140.358ZM21.1631 176.377C37.3754 179.313 53.7789 181.073 70.2451 181.644C70.4901 179.167 70.7351 176.673 71.5121 174.308L21.1621 176.378L21.1631 176.377Z" fill="white"/>
<path d="M95.2378 167.99C94.84 167.99 94.4585 167.832 94.1772 167.551C93.8959 167.27 93.7378 166.888 93.7378 166.49V150.16C93.7378 149.762 93.8959 149.381 94.1772 149.1C94.4585 148.818 94.84 148.66 95.2378 148.66C95.6356 148.66 96.0172 148.818 96.2985 149.1C96.5798 149.381 96.7378 149.762 96.7378 150.16V166.49C96.7378 166.888 96.5798 167.27 96.2985 167.551C96.0172 167.832 95.6356 167.99 95.2378 167.99ZM70.0638 176.511H22.1328C21.735 176.511 21.3535 176.353 21.0722 176.072C20.7908 175.791 20.6328 175.409 20.6328 175.011V127.013C20.6328 126.615 20.7908 126.234 21.0722 125.953C21.3535 125.671 21.735 125.513 22.1328 125.513H95.2378C95.6356 125.513 96.0172 125.671 96.2985 125.953C96.5798 126.234 96.7378 126.615 96.7378 127.013V142.372C96.7378 142.77 96.5798 143.152 96.2985 143.433C96.0172 143.714 95.6356 143.872 95.2378 143.872C94.84 143.872 94.4585 143.714 94.1772 143.433C93.8959 143.152 93.7378 142.77 93.7378 142.372V128.512H23.6328V173.512H70.0638C70.4616 173.512 70.8432 173.67 71.1245 173.952C71.4058 174.233 71.5638 174.614 71.5638 175.012C71.5638 175.41 71.4058 175.792 71.1245 176.073C70.8432 176.354 70.4616 176.512 70.0638 176.512V176.511Z" fill="white"/>
<path d="M58.5217 153.791C45.5197 146.811 33.2407 138.684 22.0267 129.635C21.7171 129.385 21.5194 129.023 21.4772 128.627C21.435 128.231 21.5517 127.835 21.8017 127.525C22.0517 127.216 22.4144 127.018 22.8101 126.976C23.2058 126.934 23.6021 127.05 23.9117 127.3C34.7317 136.031 46.5577 143.895 59.0747 150.68C68.4177 143.34 79.9307 135.63 94.2347 127.136C94.4041 127.036 94.5917 126.97 94.7866 126.942C94.9816 126.914 95.1802 126.924 95.3711 126.973C95.562 127.022 95.7414 127.107 95.8991 127.225C96.0568 127.343 96.1897 127.491 96.2902 127.661C96.3907 127.83 96.4569 128.018 96.485 128.213C96.513 128.408 96.5024 128.606 96.4537 128.797C96.405 128.988 96.3191 129.167 96.2011 129.325C96.0831 129.483 95.9351 129.616 95.7657 129.716C81.1807 138.376 69.5357 146.203 60.1637 153.644C59.9343 153.826 59.6565 153.937 59.3647 153.964C59.0729 153.99 58.7799 153.93 58.5217 153.791Z" fill="white"/>
<path d="M23.0678 175.484C22.8986 175.383 22.7509 175.25 22.6332 175.092C22.5154 174.934 22.43 174.755 22.3817 174.564C22.3334 174.372 22.3232 174.174 22.3517 173.979C22.3802 173.784 22.4469 173.596 22.5478 173.427C28.5468 163.383 35.6598 153.783 43.6898 144.895C43.9592 144.61 44.3296 144.441 44.7217 144.426C45.1137 144.41 45.4963 144.549 45.7875 144.812C46.0787 145.075 46.2552 145.442 46.2794 145.833C46.3036 146.225 46.1734 146.61 45.9168 146.907C38.0168 155.649 31.0208 165.089 25.1248 174.965C25.0239 175.135 24.8907 175.282 24.7327 175.4C24.5747 175.518 24.3951 175.603 24.204 175.651C24.013 175.7 23.8144 175.71 23.6194 175.681C23.4244 175.653 23.237 175.585 23.0678 175.484ZM86.5718 166.405C86.1308 166.405 85.6928 166.211 85.3968 165.838C80.1768 159.271 74.5688 152.404 68.4418 146.96C68.2891 146.831 68.1637 146.673 68.0731 146.494C67.9825 146.316 67.9285 146.121 67.9142 145.922C67.9 145.722 67.9258 145.522 67.9902 145.332C68.0546 145.143 68.1562 144.968 68.2891 144.819C68.422 144.669 68.5834 144.548 68.764 144.461C68.9445 144.375 69.1405 144.326 69.3403 144.317C69.5402 144.307 69.7398 144.338 69.9276 144.407C70.1154 144.476 70.2875 144.582 70.4338 144.718C76.7408 150.321 82.4438 157.301 87.7438 163.971C87.9194 164.192 88.0293 164.458 88.0607 164.738C88.0922 165.018 88.0439 165.302 87.9216 165.556C87.7992 165.81 87.6076 166.025 87.3689 166.175C87.1301 166.325 86.8539 166.405 86.5718 166.405Z" fill="white"/>
<path d="M103.964 177.615C101.874 170.265 95.1142 164.885 87.1042 164.885C77.4242 164.885 69.5742 172.735 69.5742 182.415C69.5742 186.135 70.7342 189.585 72.7142 192.415C75.8742 196.965 81.1442 199.945 87.1042 199.945C96.7842 199.945 104.634 192.095 104.634 182.415C104.634 180.745 104.404 179.135 103.964 177.615ZM84.6042 189.235C84.4148 189.421 84.1598 189.526 83.8942 189.526C83.6286 189.526 83.3737 189.421 83.1842 189.235L81.9742 188.025L77.5342 183.585C77.1442 183.195 77.1442 182.555 77.5342 182.165C77.9242 181.775 78.5542 181.775 78.9542 182.165L83.8942 187.115L95.0842 175.925C95.4742 175.535 96.1042 175.535 96.5042 175.925C96.8942 176.315 96.8942 176.945 96.5042 177.335L84.6042 189.235Z" fill="white"/>
<path d="M87.105 201.446C76.612 201.446 68.0751 192.909 68.0751 182.416C68.0751 171.923 76.612 163.386 87.105 163.386C97.5981 163.386 106.135 171.924 106.135 182.416C106.135 192.908 97.5981 201.446 87.105 201.446ZM87.105 166.386C78.2661 166.386 71.0751 173.578 71.0751 182.416C71.0751 191.254 78.2661 198.446 87.105 198.446C95.944 198.446 103.135 191.255 103.135 182.416C103.135 173.577 95.9451 166.386 87.105 166.386ZM91.975 35.6273C90.73 35.6273 90.012 34.1703 90.811 33.1833C102.327 18.9763 120.109 10.0043 138.378 9.18333C138.575 9.17284 138.772 9.20171 138.958 9.26824C139.144 9.33477 139.315 9.43763 139.46 9.57083C139.606 9.70403 139.724 9.8649 139.807 10.0441C139.89 10.2232 139.936 10.4171 139.943 10.6143C139.961 11.0116 139.82 11.3997 139.552 11.6934C139.284 11.987 138.91 12.1622 138.513 12.1803C121.088 12.9633 104.126 21.5203 93.141 35.0723C92.846 35.4373 92.411 35.6273 91.975 35.6273ZM85.3491 15.5343C85.0751 15.2461 84.9267 14.8609 84.9367 14.4634C84.9466 14.0658 85.114 13.6885 85.402 13.4143C92.3037 6.85082 100.823 2.23584 110.091 0.0403287C110.478 -0.0513036 110.886 0.0146366 111.225 0.223646C111.563 0.432655 111.805 0.767613 111.897 1.15483C111.988 1.54204 111.922 1.9498 111.713 2.2884C111.504 2.627 111.169 2.8687 110.782 2.96033C102.031 5.03259 93.9872 9.38988 87.471 15.5873C87.1826 15.8617 86.797 16.0102 86.3991 16.0003C86.0011 15.9903 85.6234 15.8227 85.3491 15.5343ZM15.845 332.76C13.412 317.868 18.223 301.696 28.401 290.554C28.6694 290.261 29.0435 290.086 29.441 290.068C29.8385 290.05 30.2268 290.19 30.5205 290.459C30.8143 290.727 30.9894 291.101 31.0073 291.499C31.0252 291.896 30.8844 292.285 30.6161 292.578C21.0431 303.058 16.517 318.268 18.806 332.277C18.8378 332.472 18.8309 332.671 18.7858 332.862C18.7407 333.054 18.6582 333.235 18.5432 333.395C18.4281 333.555 18.2827 333.691 18.1152 333.794C17.9477 333.898 17.7615 333.968 17.567 333.999C17.3726 334.031 17.1739 334.024 16.9821 333.979C16.7903 333.934 16.6093 333.852 16.4494 333.736C16.2895 333.621 16.1539 333.476 16.0502 333.309C15.9465 333.141 15.8768 332.955 15.845 332.76ZM1.35305 322.999C0.957441 322.96 0.593467 322.766 0.341088 322.459C0.0887091 322.152 -0.031434 321.757 0.0070503 321.361C1.05116 310.822 4.55889 300.675 10.247 291.741C10.4611 291.406 10.7996 291.169 11.1882 291.083C11.5768 290.997 11.9835 291.069 12.319 291.283C12.6545 291.497 12.8913 291.836 12.9772 292.224C13.0631 292.613 12.9911 293.02 12.777 293.355C7.34192 301.89 3.99036 311.584 2.99305 321.653C2.97377 321.849 2.91606 322.04 2.8232 322.214C2.73035 322.387 2.60417 322.541 2.45187 322.666C2.29958 322.791 2.12415 322.885 1.93562 322.942C1.74708 322.999 1.54912 323.019 1.35305 322.999Z" fill="white"/>
</svg>
