<svg width="38" height="92" viewBox="0 0 38 92" fill="none" xmlns="http://www.w3.org/2000/svg">
<path d="M28.6514 92C26.1981 92 24.1829 91.2333 22.6057 89.7C21.0286 88.1667 20.24 86.261 20.24 83.9829V17.7429L22.08 20.6343L12.0914 26.68C10.7771 27.4686 9.37524 27.8629 7.88572 27.8629C5.60762 27.8629 3.72381 27.0086 2.23429 25.3C0.744762 23.5914 4.35209e-08 21.7733 0 19.8457C0 16.8667 1.3581 14.5886 4.07429 13.0114L23.92 1.18286C25.4095 0.394286 27.2933 0 29.5714 0C31.8495 0 33.7114 0.766669 35.1571 2.30001C36.6029 3.83334 37.3257 5.73905 37.3257 8.01714V83.9829C37.3257 86.261 36.5152 88.1667 34.8943 89.7C33.2733 91.2333 31.1924 92 28.6514 92Z" fill="url(#paint0_linear_133_823)"/>
<defs>
<linearGradient id="paint0_linear_133_823" x1="-2.97306" y1="1.84e-05" x2="-2.97297" y2="106.656" gradientUnits="userSpaceOnUse">
<stop stop-color="#0D99FF"/>
<stop offset="1" stop-color="white" stop-opacity="0.01"/>
</linearGradient>
</defs>
</svg>
