<svg width="583" height="360" viewBox="0 0 583 360" fill="none" xmlns="http://www.w3.org/2000/svg">
<path d="M538.826 289.679C538.715 289.709 538.611 289.761 538.52 289.833C538.43 289.904 538.354 289.993 538.299 290.094C538.243 290.195 538.209 290.306 538.198 290.421C538.186 290.536 538.198 290.652 538.233 290.762C538.268 290.872 538.324 290.973 538.399 291.061C538.474 291.149 538.566 291.22 538.669 291.271C538.773 291.322 538.885 291.352 539 291.358C539.116 291.365 539.231 291.348 539.339 291.309C541.685 290.57 544.085 291.514 546.891 294.28C546.971 294.359 547.066 294.421 547.17 294.463C547.274 294.506 547.385 294.527 547.498 294.526C547.61 294.525 547.721 294.502 547.824 294.458C547.928 294.414 548.022 294.351 548.1 294.271C548.179 294.191 548.242 294.096 548.284 293.992C548.326 293.888 548.347 293.776 548.346 293.664C548.345 293.552 548.322 293.441 548.279 293.337C548.235 293.234 548.171 293.14 548.091 293.061C544.786 289.804 541.844 288.727 538.826 289.679ZM526.739 297.91C526.532 298.003 526.371 298.175 526.291 298.387C526.211 298.599 526.218 298.835 526.311 299.042C526.405 299.248 526.577 299.41 526.789 299.49C527.001 299.57 527.237 299.562 527.443 299.469C528.584 298.953 530.854 299.178 533.489 301.521C533.658 301.671 533.88 301.749 534.107 301.736C534.333 301.722 534.545 301.62 534.696 301.451C534.847 301.281 534.924 301.059 534.911 300.832C534.898 300.606 534.795 300.394 534.626 300.243C531.381 297.359 528.423 297.152 526.739 297.91ZM509.001 310.726C508.777 310.756 508.573 310.874 508.435 311.053C508.298 311.233 508.237 311.46 508.266 311.685C508.327 312.155 508.76 312.473 509.225 312.42C511.801 312.071 514.571 312.837 516.618 314.451C516.706 314.521 516.807 314.572 516.915 314.603C517.023 314.633 517.136 314.642 517.247 314.629C517.359 314.616 517.467 314.581 517.565 314.526C517.663 314.472 517.749 314.398 517.819 314.31C517.888 314.222 517.94 314.121 517.97 314.013C518.001 313.905 518.01 313.792 517.997 313.68C517.984 313.569 517.949 313.461 517.894 313.363C517.839 313.265 517.766 313.178 517.678 313.109C516.461 312.157 515.068 311.456 513.578 311.047C512.089 310.637 510.533 310.528 509.001 310.726ZM496.004 321.365C495.52 321.396 495.142 321.734 495.132 322.206C495.13 322.318 495.151 322.43 495.192 322.534C495.233 322.639 495.295 322.734 495.373 322.815C495.451 322.895 495.544 322.96 495.647 323.004C495.75 323.049 495.861 323.073 495.973 323.075C498.65 323.121 500.906 323.396 503.547 326.42C503.698 326.583 503.907 326.681 504.129 326.693C504.352 326.704 504.57 326.629 504.737 326.483C504.905 326.337 505.009 326.131 505.028 325.91C505.047 325.688 504.979 325.468 504.838 325.296C501.74 321.751 498.892 321.414 496.004 321.365ZM541.227 282.14C544.735 282.435 548.43 278.242 547.963 275.626C547.92 275.404 547.793 275.208 547.608 275.079C547.422 274.95 547.194 274.898 546.971 274.935C546.861 274.955 546.755 274.996 546.66 275.056C546.566 275.117 546.484 275.195 546.42 275.287C546.355 275.379 546.31 275.483 546.286 275.593C546.261 275.703 546.259 275.816 546.279 275.927C546.546 277.414 543.74 280.666 541.372 280.437C541.148 280.422 540.926 280.495 540.754 280.64C540.582 280.785 540.473 280.991 540.449 281.215C540.429 281.441 540.5 281.665 540.646 281.838C540.792 282.012 541.001 282.12 541.227 282.14ZM530.74 284.962C532.377 282.981 533.646 280.748 534.504 278.322C534.542 278.216 534.558 278.104 534.552 277.992C534.547 277.88 534.519 277.771 534.471 277.669C534.422 277.568 534.355 277.478 534.271 277.403C534.188 277.327 534.091 277.27 533.985 277.232C533.88 277.195 533.768 277.178 533.656 277.184C533.544 277.19 533.434 277.218 533.333 277.266C533.232 277.314 533.141 277.382 533.066 277.465C532.991 277.548 532.933 277.645 532.895 277.751C532.105 279.98 530.929 282.053 529.421 283.875C529.286 284.051 529.224 284.272 529.249 284.493C529.273 284.713 529.383 284.915 529.554 285.057C529.725 285.198 529.945 285.267 530.166 285.249C530.387 285.232 530.593 285.129 530.74 284.962ZM515.332 294.102C515.454 294.102 515.574 294.076 515.685 294.026C515.796 293.976 515.895 293.902 515.975 293.811C516.056 293.719 516.116 293.611 516.151 293.495C516.186 293.378 516.196 293.255 516.18 293.135C515.756 289.96 516.989 286.937 519.48 285.044C519.66 284.907 519.779 284.703 519.81 284.479C519.84 284.254 519.78 284.026 519.643 283.845C519.505 283.664 519.302 283.546 519.077 283.515C518.852 283.484 518.624 283.544 518.443 283.682C515.458 285.951 513.978 289.57 514.487 293.36C514.515 293.565 514.615 293.753 514.77 293.89C514.926 294.026 515.125 294.102 515.332 294.102ZM477.018 211.908C477.218 211.8 477.367 211.618 477.432 211.401C477.497 211.184 477.474 210.95 477.367 210.75C476.344 208.816 476.019 206.587 476.449 204.441C476.472 204.332 476.473 204.218 476.452 204.108C476.431 203.998 476.388 203.893 476.327 203.799C476.265 203.705 476.185 203.625 476.092 203.562C476 203.499 475.895 203.455 475.785 203.433C475.675 203.409 475.562 203.408 475.451 203.428C475.341 203.449 475.235 203.492 475.141 203.553C475.047 203.615 474.967 203.695 474.904 203.789C474.841 203.882 474.798 203.987 474.777 204.098C474.266 206.635 474.649 209.271 475.86 211.559C475.968 211.759 476.15 211.907 476.367 211.973C476.584 212.038 476.818 212.015 477.018 211.908ZM468.278 225.833C468.444 225.678 468.541 225.464 468.549 225.237C468.557 225.011 468.475 224.79 468.321 224.624C467.528 223.759 466.945 222.723 466.616 221.597C466.286 220.47 466.221 219.283 466.423 218.127C466.446 218.016 466.447 217.901 466.425 217.79C466.404 217.678 466.36 217.572 466.297 217.478C466.233 217.383 466.152 217.302 466.057 217.24C465.962 217.177 465.855 217.135 465.744 217.114C465.632 217.093 465.517 217.095 465.406 217.119C465.295 217.143 465.19 217.19 465.097 217.255C465.004 217.32 464.925 217.404 464.865 217.5C464.804 217.597 464.764 217.704 464.746 217.816C464.496 219.235 464.576 220.691 464.979 222.074C465.382 223.456 466.097 224.728 467.069 225.79C467.146 225.872 467.238 225.939 467.34 225.985C467.442 226.032 467.552 226.058 467.665 226.062C467.777 226.066 467.889 226.048 467.994 226.009C468.099 225.969 468.196 225.91 468.278 225.833ZM482.104 235.428C480.446 235.821 476.047 235.161 475.505 237.77C475.459 237.992 475.503 238.223 475.627 238.413C475.752 238.602 475.946 238.734 476.168 238.78C476.39 238.826 476.621 238.782 476.811 238.658C477 238.534 477.133 238.339 477.179 238.117C477.35 237.296 480.116 237.408 482.256 237.131C482.368 237.121 482.477 237.089 482.577 237.037C482.677 236.985 482.765 236.914 482.837 236.827C482.909 236.741 482.964 236.641 482.997 236.534C483.031 236.427 483.043 236.314 483.033 236.202C483.008 235.978 482.898 235.772 482.725 235.627C482.552 235.483 482.329 235.411 482.104 235.428ZM486.384 224.149C486.543 224.31 486.76 224.401 486.986 224.403C487.213 224.404 487.431 224.315 487.592 224.156C488.196 223.572 488.91 223.114 489.692 222.808C490.474 222.501 491.309 222.353 492.149 222.371C492.62 222.364 493.015 222.014 493.029 221.543C493.043 221.073 492.673 220.677 492.202 220.661C491.13 220.636 490.064 220.825 489.066 221.217C488.068 221.608 487.158 222.194 486.389 222.94C486.228 223.1 486.137 223.317 486.136 223.543C486.135 223.77 486.224 223.988 486.384 224.149ZM186.322 53.926C186.322 58.9354 190.391 62.9874 195.384 62.9874C200.376 62.9874 204.445 58.9354 204.445 53.926C204.445 48.9338 200.376 44.8818 195.384 44.8818C190.391 44.8818 186.322 48.9338 186.322 53.926ZM216.874 53.926C216.874 58.9354 220.943 62.9874 225.936 62.9874C230.928 62.9874 234.997 58.9354 234.997 53.926C234.997 48.9338 230.928 44.8818 225.936 44.8818C220.943 44.8818 216.874 48.9338 216.874 53.926ZM247.426 53.926C247.426 58.9354 251.495 62.9874 256.488 62.9874C261.48 62.9874 265.549 58.9354 265.549 53.926C265.549 48.9338 261.48 44.8818 256.488 44.8818C251.495 44.8818 247.426 48.9338 247.426 53.926ZM299.127 46.0273H430.209V61.8419H299.127V46.0273ZM308.274 204.669C335.219 204.669 358.265 183.007 358.265 154.678C358.265 127.083 335.851 104.635 308.274 104.635C280.697 104.635 258.249 127.083 258.249 154.678C258.249 183.082 281.463 204.669 308.274 204.669ZM308.274 106.345C334.911 106.345 356.555 128.041 356.555 154.678C356.555 171.721 347.665 182.494 347.443 182.956C340.652 174.012 330.893 167.464 319.616 164.801C325.62 160.768 328.655 154.368 328.655 147.894C328.655 136.623 319.536 127.483 308.267 127.483C296.997 127.483 287.855 136.623 287.855 147.894C287.855 154.373 290.88 160.757 296.918 164.806C285.811 167.444 275.966 173.861 269.067 182.958L269.054 182.939C268.58 181.957 259.958 172.452 259.958 154.678C259.958 128.041 281.637 106.345 308.274 106.345ZM228.295 256.609H388.219C388.697 256.609 389.125 256.182 389.125 255.703V224.638C389.125 224.176 388.697 223.749 388.219 223.749H228.244C227.765 223.749 227.389 224.125 227.389 224.604V255.703C227.389 256.182 227.816 256.609 228.295 256.609ZM229.099 225.459H387.415V254.899H229.099V225.459Z" fill="white"/>
<path d="M248.447 233.205C244.629 233.205 241.454 236.325 241.454 240.198C241.454 244.017 244.629 247.137 248.447 247.137C252.321 247.137 255.439 244.017 255.439 240.198C255.441 239.279 255.262 238.369 254.911 237.52C254.56 236.67 254.045 235.899 253.395 235.249C252.746 234.599 251.974 234.084 251.125 233.734C250.276 233.383 249.366 233.203 248.447 233.205ZM271.018 233.205C267.199 233.205 264.025 236.325 264.025 240.198C264.025 244.017 267.199 247.137 271.018 247.137C274.892 247.137 278.011 244.017 278.011 240.198C278.012 239.279 277.833 238.369 277.482 237.52C277.131 236.67 276.616 235.899 275.967 235.249C275.317 234.599 274.545 234.084 273.696 233.734C272.847 233.383 271.937 233.203 271.018 233.205ZM293.588 233.205C289.768 233.205 286.595 236.325 286.595 240.198C286.595 244.017 289.768 247.137 293.588 247.137C297.462 247.137 300.58 244.017 300.58 240.198C300.582 239.279 300.402 238.369 300.052 237.52C299.701 236.67 299.186 235.899 298.536 235.249C297.886 234.599 297.115 234.084 296.266 233.734C295.416 233.383 294.506 233.203 293.588 233.205ZM316.159 233.205C312.339 233.205 309.166 236.325 309.166 240.198C309.166 244.017 312.339 247.137 316.159 247.137C320.031 247.137 323.151 244.017 323.151 240.198C323.153 239.279 322.974 238.369 322.623 237.52C322.272 236.67 321.757 235.899 321.107 235.249C320.458 234.599 319.686 234.084 318.837 233.734C317.988 233.383 317.078 233.203 316.159 233.205ZM338.728 233.205C334.909 233.205 331.736 236.325 331.736 240.198C331.736 244.017 334.909 247.137 338.728 247.137C342.602 247.137 345.721 244.017 345.721 240.198C345.723 239.279 345.543 238.369 345.192 237.52C344.842 236.67 344.327 235.899 343.677 235.249C343.027 234.599 342.256 234.084 341.406 233.734C340.557 233.383 339.647 233.203 338.728 233.205ZM388.219 283.331H228.244C227.765 283.331 227.389 283.707 227.389 284.186V315.285C227.389 315.764 227.816 316.191 228.295 316.191H388.219C388.697 316.191 389.125 315.764 389.125 315.285V284.22C389.125 283.742 388.697 283.331 388.219 283.331ZM387.415 314.482H229.098V285.041H387.415V314.482Z" fill="white"/>
<path d="M248.446 306.722C252.32 306.722 255.439 303.6 255.439 299.78C255.441 298.861 255.261 297.951 254.91 297.102C254.56 296.253 254.045 295.481 253.395 294.832C252.745 294.182 251.974 293.667 251.124 293.316C250.275 292.965 249.365 292.786 248.446 292.788C244.629 292.788 241.454 295.908 241.454 299.78C241.454 303.6 244.629 306.722 248.446 306.722ZM271.018 306.722C274.892 306.722 278.01 303.6 278.01 299.78C278.012 298.861 277.832 297.951 277.482 297.102C277.131 296.253 276.616 295.481 275.966 294.832C275.316 294.182 274.545 293.667 273.696 293.316C272.846 292.965 271.936 292.786 271.018 292.788C267.198 292.788 264.025 295.908 264.025 299.78C264.025 303.6 267.198 306.722 271.018 306.722ZM293.587 306.722C297.461 306.722 300.58 303.6 300.58 299.78C300.582 298.861 300.402 297.951 300.051 297.102C299.7 296.253 299.185 295.481 298.536 294.832C297.886 294.182 297.114 293.667 296.265 293.316C295.416 292.965 294.506 292.786 293.587 292.788C289.768 292.788 286.594 295.908 286.594 299.78C286.594 303.6 289.768 306.722 293.587 306.722ZM316.158 306.722C320.031 306.722 323.151 303.6 323.151 299.78C323.153 298.861 322.973 297.951 322.622 297.102C322.272 296.253 321.757 295.481 321.107 294.832C320.457 294.182 319.686 293.667 318.836 293.316C317.987 292.965 317.077 292.786 316.158 292.788C312.339 292.788 309.166 295.908 309.166 299.78C309.166 303.6 312.339 306.722 316.158 306.722ZM338.728 306.722C342.602 306.722 345.72 303.6 345.72 299.78C345.722 298.861 345.543 297.951 345.192 297.102C344.841 296.253 344.326 295.481 343.676 294.832C343.027 294.182 342.255 293.667 341.406 293.316C340.557 292.965 339.647 292.786 338.728 292.788C334.908 292.788 331.735 295.908 331.735 299.78C331.735 303.6 334.908 306.722 338.728 306.722ZM428.259 113.303C434.875 113.303 440.261 107.952 440.261 101.353C440.261 94.7363 434.875 89.3508 428.259 89.3508C421.659 89.3508 416.291 94.7363 416.291 101.353C416.291 107.952 421.659 113.303 428.259 113.303ZM424.275 98.5318C423.933 98.2069 423.933 97.6598 424.275 97.335C424.6 96.9931 425.147 96.9931 425.489 97.335L428.276 100.122L431.063 97.335C431.405 96.9931 431.935 96.9931 432.277 97.335C432.618 97.6598 432.618 98.2069 432.277 98.5318L429.49 101.336L432.277 104.122C432.618 104.464 432.618 104.994 432.277 105.336C432.112 105.49 431.895 105.576 431.67 105.576C431.444 105.576 431.227 105.49 431.063 105.336L428.276 102.55L425.489 105.336C425.325 105.491 425.108 105.576 424.882 105.576C424.657 105.576 424.44 105.491 424.275 105.336C423.933 104.994 423.933 104.464 424.275 104.122L427.062 101.336L424.275 98.5318ZM181.62 139.513C181.62 125.288 170.028 113.714 155.821 113.714C141.596 113.714 130.039 125.288 130.039 139.513C130.039 153.737 141.596 165.295 155.821 165.295C170.028 165.295 181.62 153.737 181.62 139.513ZM162.044 137.102L153.581 143.308C153.399 143.436 153.173 143.488 152.953 143.453C152.733 143.418 152.535 143.299 152.401 143.12L149.427 139.137C148.751 138.261 150.093 137.201 150.794 138.111L153.256 141.428L161.035 135.717C161.947 135.054 162.976 136.413 162.044 137.102ZM228.238 264.25H306.039C306.265 264.25 306.483 264.16 306.643 263.999C306.803 263.839 306.894 263.621 306.894 263.395C306.894 263.168 306.803 262.951 306.643 262.79C306.483 262.63 306.265 262.54 306.039 262.54H228.238C228.011 262.54 227.794 262.63 227.633 262.79C227.473 262.951 227.383 263.168 227.383 263.395C227.383 263.621 227.473 263.839 227.633 263.999C227.794 264.16 228.011 264.25 228.238 264.25ZM228.238 270.817H268.424C268.651 270.817 268.868 270.726 269.028 270.566C269.189 270.406 269.279 270.188 269.279 269.962C269.279 269.735 269.189 269.518 269.028 269.357C268.868 269.197 268.651 269.107 268.424 269.107H228.238C228.011 269.107 227.794 269.197 227.633 269.357C227.473 269.518 227.383 269.735 227.383 269.962C227.383 270.188 227.473 270.406 227.633 270.566C227.794 270.726 228.011 270.817 228.238 270.817ZM228.238 322.834H306.039C306.265 322.834 306.483 322.744 306.643 322.583C306.803 322.423 306.894 322.206 306.894 321.979C306.894 321.752 306.803 321.535 306.643 321.374C306.483 321.214 306.265 321.124 306.039 321.124H228.238C228.011 321.124 227.794 321.214 227.633 321.374C227.473 321.535 227.383 321.752 227.383 321.979C227.383 322.206 227.473 322.423 227.633 322.583C227.794 322.744 228.011 322.834 228.238 322.834ZM228.238 329.401H268.424C268.651 329.401 268.868 329.31 269.028 329.15C269.189 328.99 269.279 328.772 269.279 328.546C269.279 328.319 269.189 328.101 269.028 327.941C268.868 327.781 268.651 327.691 268.424 327.691H228.238C228.011 327.691 227.794 327.781 227.633 327.941C227.473 328.101 227.383 328.319 227.383 328.546C227.383 328.772 227.473 328.99 227.633 329.15C227.794 329.31 228.011 329.401 228.238 329.401ZM181.62 91.4212H205.689C205.916 91.4212 206.133 91.3311 206.293 91.1708C206.454 91.0105 206.544 90.7931 206.544 90.5664C206.544 90.3396 206.454 90.1222 206.293 89.9619C206.133 89.8016 205.916 89.7115 205.689 89.7115H181.618C181.392 89.7115 181.174 89.8016 181.014 89.9619C180.853 90.1222 180.763 90.3396 180.763 90.5664C180.763 90.7931 180.853 91.0105 181.014 91.1708C181.174 91.3311 181.392 91.4212 181.618 91.4212H181.62ZM181.62 98.4155H205.689C205.916 98.4155 206.133 98.3254 206.293 98.1651C206.454 98.0048 206.544 97.7874 206.544 97.5607C206.544 97.3339 206.454 97.1165 206.293 96.9562C206.133 96.7959 205.916 96.7058 205.689 96.7058H181.618C181.392 96.7058 181.174 96.7959 181.014 96.9562C180.853 97.1165 180.763 97.3339 180.763 97.5607C180.763 97.7874 180.853 98.0048 181.014 98.1651C181.174 98.3254 181.392 98.4155 181.618 98.4155H181.62ZM206.544 104.557C206.544 104.33 206.454 104.113 206.293 103.952C206.133 103.792 205.916 103.702 205.689 103.702H181.618C181.392 103.702 181.174 103.792 181.014 103.952C180.853 104.113 180.763 104.33 180.763 104.557C180.763 104.783 180.853 105.001 181.014 105.161C181.174 105.321 181.392 105.412 181.618 105.412H205.687C205.914 105.412 206.131 105.321 206.292 105.161C206.452 105.001 206.542 104.783 206.542 104.557H206.544ZM451.037 7.34072C451.49 7.34049 451.938 7.25111 452.356 7.07769C452.774 6.90427 453.154 6.6502 453.474 6.32999C453.793 6.00977 454.047 5.62967 454.22 5.21141C454.393 4.79315 454.482 4.34491 454.482 3.89228C454.482 3.43965 454.392 2.9915 454.219 2.57341C454.046 2.15532 453.791 1.77548 453.471 1.45558C453.151 1.13568 452.771 0.881984 452.353 0.708978C451.934 0.535971 451.486 0.447042 451.034 0.447266C450.119 0.44772 449.243 0.811288 448.597 1.45799C447.951 2.1047 447.588 2.98158 447.588 3.89571C447.589 4.80983 447.953 5.68634 448.599 6.3324C449.246 6.97847 450.123 7.34117 451.037 7.34072ZM533.362 143.216C533.814 143.216 534.262 143.126 534.68 142.953C535.099 142.78 535.478 142.526 535.798 142.205C536.118 141.885 536.372 141.505 536.545 141.087C536.718 140.668 536.807 140.22 536.807 139.768C536.806 139.315 536.717 138.867 536.544 138.449C536.37 138.031 536.116 137.651 535.796 137.331C535.476 137.011 535.096 136.757 534.677 136.584C534.259 136.411 533.811 136.322 533.358 136.323C532.444 136.323 531.567 136.687 530.921 137.333C530.275 137.98 529.913 138.857 529.913 139.771C529.914 140.685 530.277 141.562 530.924 142.208C531.571 142.854 532.447 143.216 533.362 143.216ZM531.592 186.582C531.776 186.709 532.002 186.759 532.222 186.721C532.442 186.683 532.639 186.561 532.77 186.38C532.901 186.199 532.956 185.973 532.923 185.753C532.89 185.532 532.772 185.332 532.594 185.197L526.73 180.962C526.639 180.897 526.536 180.849 526.427 180.823C526.317 180.797 526.204 180.793 526.093 180.81C525.982 180.828 525.876 180.867 525.78 180.926C525.685 180.985 525.601 181.062 525.535 181.153C525.47 181.244 525.422 181.347 525.396 181.456C525.37 181.565 525.366 181.679 525.383 181.79C525.401 181.901 525.441 182.007 525.499 182.103C525.558 182.198 525.635 182.281 525.726 182.347L531.592 186.582ZM544.7 52.3584C545.153 52.3581 545.601 52.2688 546.019 52.0953C546.437 51.9219 546.817 51.6678 547.137 51.3476C547.457 51.0274 547.71 50.6473 547.883 50.2291C548.057 49.8108 548.145 49.3626 548.145 48.9099C548.145 48.4573 548.056 48.0092 547.882 47.5911C547.709 47.173 547.455 46.7931 547.134 46.4732C546.814 46.1533 546.434 45.8996 546.016 45.7266C545.598 45.5536 545.149 45.4647 544.697 45.4649C543.783 45.4654 542.906 45.8289 542.26 46.4757C541.614 47.1224 541.251 47.9992 541.252 48.9133C541.252 49.8275 541.616 50.704 542.262 51.3501C542.909 51.9961 543.786 52.3588 544.7 52.3584ZM494.319 93.8165C495.233 93.816 496.11 93.4524 496.756 92.8057C497.402 92.159 497.765 91.2822 497.764 90.368C497.764 89.4539 497.4 88.5774 496.754 87.9313C496.107 87.2853 495.23 86.9226 494.316 86.923C493.402 86.9235 492.525 87.287 491.879 87.9337C491.233 88.5805 490.87 89.4573 490.871 90.3714C490.871 91.2856 491.235 92.1621 491.882 92.8082C492.528 93.4542 493.405 93.8169 494.319 93.8165ZM502.782 34.3161C505.261 32.2624 507.959 30.4889 510.828 29.028C510.928 28.9771 511.017 28.9069 511.09 28.8215C511.163 28.7361 511.219 28.6371 511.253 28.5303C511.288 28.4234 511.302 28.3108 511.293 28.1988C511.284 28.0867 511.253 27.9775 511.202 27.8774C511.151 27.7773 511.081 27.6882 510.996 27.6152C510.91 27.5421 510.811 27.4867 510.705 27.4519C510.598 27.4171 510.485 27.4038 510.373 27.4125C510.261 27.4213 510.152 27.452 510.052 27.503C507.071 29.0209 504.267 30.8637 501.691 32.9979C501.604 33.0692 501.532 33.1571 501.478 33.2566C501.425 33.356 501.392 33.465 501.381 33.5772C501.37 33.6895 501.381 33.8028 501.415 33.9107C501.448 34.0185 501.502 34.1188 501.574 34.2056C501.646 34.2925 501.734 34.3642 501.834 34.4168C501.934 34.4693 502.043 34.5015 502.155 34.5116C502.268 34.5217 502.381 34.5095 502.488 34.4757C502.596 34.4418 502.696 34.3887 502.782 34.3161ZM46.7346 52.2917L49.2085 50.0691C49.2973 49.9957 49.3704 49.905 49.4233 49.8027C49.4762 49.7003 49.5079 49.5882 49.5164 49.4733C49.5249 49.3584 49.51 49.2429 49.4728 49.1338C49.4355 49.0248 49.3766 48.9244 49.2995 48.8387C49.2225 48.753 49.1289 48.6837 49.0244 48.6351C48.9199 48.5865 48.8067 48.5595 48.6915 48.5558C48.5763 48.5521 48.4615 48.5717 48.3541 48.6134C48.2467 48.6552 48.1488 48.7183 48.0664 48.7988L45.5908 51.0214C45.4275 51.1744 45.3306 51.3853 45.3211 51.6089C45.3116 51.8325 45.3902 52.0509 45.5399 52.2173C45.6897 52.3836 45.8987 52.4845 46.122 52.4984C46.3454 52.5124 46.5653 52.4381 46.7346 52.2917ZM38.5366 100.387C41.0155 98.333 43.7138 96.5595 46.5824 95.0987C46.7846 94.9958 46.9377 94.8167 47.0079 94.601C47.0781 94.3852 47.0597 94.1503 46.9568 93.9481C46.8539 93.7459 46.6748 93.5928 46.4591 93.5226C46.2433 93.4524 46.0084 93.4708 45.8062 93.5737C42.8253 95.0914 40.0214 96.9342 37.4458 99.0686C37.2732 99.2139 37.165 99.4214 37.1448 99.6461C37.1245 99.8708 37.194 100.094 37.3379 100.268C37.4819 100.442 37.6886 100.552 37.9132 100.574C38.1377 100.595 38.3618 100.528 38.5366 100.385V100.387ZM97.8643 77.6035C98.3171 77.6039 98.7654 77.515 99.1838 77.3421C99.6023 77.1692 99.9825 76.9155 100.303 76.5956C100.623 76.2757 100.877 75.8958 101.051 75.4777C101.225 75.0595 101.314 74.6113 101.314 74.1585C101.315 73.7058 101.226 73.2574 101.053 72.839C100.88 72.4206 100.626 72.0404 100.307 71.72C99.9866 71.3996 99.6067 71.1454 99.1886 70.9718C98.7704 70.7982 98.3222 70.7087 97.8695 70.7084C96.9551 70.7077 96.0779 71.0703 95.4309 71.7163C94.7839 72.3624 94.42 73.239 94.4193 74.1534C94.4186 75.0677 94.7812 75.9449 95.4273 76.592C96.0733 77.239 96.95 77.6029 97.8643 77.6035ZM142.807 21.7807C145.675 23.2416 148.373 25.015 150.851 27.0687C151.026 27.2114 151.25 27.2791 151.474 27.2572C151.699 27.2353 151.906 27.1256 152.05 26.9518C152.193 26.7781 152.263 26.5545 152.243 26.3298C152.222 26.1051 152.114 25.8975 151.942 25.7523C149.366 23.6176 146.562 21.7742 143.581 20.2557C143.379 20.153 143.144 20.1348 142.929 20.2052C142.713 20.2755 142.534 20.4287 142.431 20.6309C142.329 20.8332 142.311 21.0679 142.381 21.2835C142.451 21.4991 142.605 21.678 142.807 21.7807ZM110.933 12.0287C111.103 12.1701 111.322 12.2403 111.542 12.2243C111.763 12.2084 111.969 12.1077 112.117 11.9432C112.265 11.7787 112.344 11.5633 112.337 11.3421C112.33 11.121 112.237 10.9111 112.079 10.7567L109.6 8.53407C109.429 8.39329 109.211 8.32383 108.991 8.34024C108.771 8.35665 108.566 8.45765 108.418 8.62209C108.271 8.78653 108.193 9.00163 108.2 9.22234C108.208 9.44305 108.301 9.65224 108.459 9.80607L110.933 12.0287ZM151.369 199.277C151.368 198.362 151.004 197.486 150.358 196.84C149.711 196.194 148.834 195.832 147.92 195.832C147.005 195.833 146.129 196.197 145.483 196.844C144.837 197.491 144.475 198.368 144.475 199.282C144.476 200.196 144.84 201.072 145.487 201.718C145.807 202.038 146.187 202.292 146.605 202.464C147.024 202.637 147.472 202.726 147.925 202.726C148.377 202.725 148.825 202.636 149.243 202.462C149.662 202.289 150.041 202.035 150.361 201.714C150.681 201.394 150.935 201.014 151.107 200.596C151.28 200.177 151.369 199.729 151.369 199.277ZM144.349 230.844C146.375 231.037 148.312 228.993 147.546 226.741C147.283 225.952 146.717 225.3 145.973 224.928C145.229 224.556 144.369 224.495 143.58 224.758C142.911 224.976 142.336 225.414 141.948 226.001C141.56 226.588 141.382 227.288 141.442 227.989C141.545 229.502 142.781 230.757 144.349 230.844ZM79.5519 148.933C80.2221 148.933 80.5128 147.993 81.4497 148.557C81.6402 148.679 81.8714 148.721 82.0925 148.673C82.3137 148.625 82.5067 148.491 82.6293 148.301C82.8858 147.907 82.7832 147.377 82.39 147.121C81.7745 146.711 80.27 146.249 78.9706 147.446C78.6287 147.771 78.5945 148.301 78.9193 148.66C79.0903 148.831 79.3126 148.933 79.5519 148.933ZM81.2616 150.215C80.9986 150.215 80.7464 150.32 80.5604 150.506C80.3745 150.692 80.27 150.944 80.27 151.207C80.27 151.47 80.3745 151.722 80.5604 151.908C80.7464 152.094 80.9986 152.199 81.2616 152.199C81.8087 152.199 82.2361 151.754 82.2361 151.207C82.2361 150.66 81.8087 150.215 81.2616 150.215ZM74.8845 162.525C76.5224 163.06 78.7449 163.337 79.5177 161.79C79.9964 160.833 79.5177 159.636 78.338 158.832C77.4319 158.234 76.919 153.293 76.9874 149.053C76.9874 148.574 76.6113 148.181 76.1325 148.181C75.6538 148.181 75.2777 148.557 75.2777 149.019C75.2093 151.457 75.3256 158.868 77.3806 160.251C77.8935 160.593 78.0132 160.969 77.979 161.038C77.6542 161.624 75.4025 160.867 75.2264 160.867C74.8503 160.816 74.4742 161.072 74.3374 161.448C74.2673 161.663 74.2855 161.898 74.3881 162.1C74.4907 162.302 74.6692 162.455 74.8845 162.525ZM69.2425 149.805C69.858 149.805 70.3436 148.774 71.3625 149.412C71.5531 149.534 71.7842 149.576 72.0054 149.528C72.2265 149.479 72.4196 149.346 72.5422 149.155C72.6057 149.063 72.65 148.958 72.6724 148.848C72.6948 148.738 72.6948 148.625 72.6725 148.515C72.6501 148.405 72.6059 148.3 72.5424 148.208C72.4789 148.115 72.3975 148.036 72.3029 147.976C71.6532 147.548 70.0461 147.053 68.6612 148.318C68.3193 148.643 68.3022 149.19 68.6099 149.532C68.7809 149.72 69.0203 149.805 69.2425 149.805ZM71.1061 151.293C70.8287 151.308 70.5678 151.429 70.3769 151.631C70.186 151.833 70.0797 152.1 70.0797 152.378C70.0797 152.656 70.186 152.923 70.3769 153.125C70.5678 153.327 70.8287 153.448 71.1061 153.464C71.7045 153.464 72.2003 152.985 72.2003 152.387C72.2003 151.788 71.7045 151.293 71.1061 151.293ZM78.7313 166.868C78.6116 166.987 77.3806 167.945 75.9445 166.851C75.8561 166.782 75.7548 166.731 75.6466 166.701C75.5383 166.671 75.4253 166.663 75.314 166.678C75.2026 166.692 75.0952 166.728 74.998 166.784C74.9008 166.84 74.8158 166.915 74.7477 167.005C74.4571 167.381 74.5254 167.928 74.9016 168.201C76.5634 169.489 78.6167 169.234 79.8426 168.184C80.2016 167.877 80.2358 167.346 79.9451 166.987C79.7969 166.815 79.5882 166.707 79.3621 166.685C79.1361 166.662 78.9102 166.728 78.7313 166.868ZM29.7489 282.152C30.1592 282.408 30.6823 282.235 30.9114 281.827L32.7408 278.578C32.9802 278.168 32.8263 277.655 32.416 277.416C32.0056 277.177 31.4756 277.33 31.2534 277.741L29.424 280.989C29.1847 281.399 29.3385 281.929 29.7489 282.152ZM201.9 277.672C201.768 277.856 201.713 278.085 201.75 278.309C201.786 278.533 201.91 278.733 202.093 278.866L207.958 283.101C208.141 283.234 208.37 283.288 208.594 283.253C208.705 283.235 208.811 283.196 208.907 283.137C209.003 283.078 209.086 283.001 209.152 282.91C209.218 282.819 209.265 282.716 209.291 282.607C209.317 282.498 209.322 282.384 209.304 282.273C209.286 282.162 209.247 282.056 209.188 281.96C209.129 281.865 209.052 281.782 208.961 281.716L203.094 277.479C203.003 277.413 202.9 277.366 202.79 277.34C202.681 277.314 202.568 277.31 202.457 277.328C202.346 277.346 202.24 277.385 202.144 277.445C202.049 277.504 201.966 277.581 201.9 277.672ZM186.677 318.007C187.13 318.007 187.578 317.918 187.996 317.744C188.414 317.571 188.794 317.317 189.114 316.996C189.434 316.676 189.688 316.296 189.861 315.878C190.034 315.46 190.122 315.011 190.122 314.559C190.122 314.106 190.033 313.658 189.859 313.24C189.686 312.822 189.432 312.442 189.111 312.122C188.791 311.802 188.411 311.548 187.993 311.375C187.575 311.202 187.126 311.113 186.674 311.114C185.76 311.114 184.883 311.478 184.237 312.124C183.591 312.771 183.228 313.648 183.229 314.562C183.229 315.476 183.593 316.353 184.24 316.999C184.886 317.645 185.763 318.008 186.677 318.007Z" fill="white"/>
<path d="M580.402 293.215C584.539 283.401 583.667 274.272 578.282 266.065C573.751 259.158 567.391 254.986 559.373 253.653C543.575 251.037 521.811 259.432 497.875 277.349C517.725 240.694 516.46 214.672 511.775 199.148C509.929 193.028 505.757 188.104 500.012 185.248C497.172 183.838 494.073 183.024 490.907 182.857C487.74 182.689 484.572 183.172 481.599 184.274C470.452 188.411 460.365 195.336 451.628 204.859C451.663 188.343 451.953 66.0152 452.039 26.419C452.039 25.718 451.492 25.1538 450.774 25.1538H165.735C165.051 25.1538 164.487 25.718 164.487 26.419C164.487 26.7951 164.538 36.5574 164.897 105.851C162.008 105.064 158.965 104.637 155.819 104.637C136.756 104.637 121.266 120.144 121.266 139.19C121.266 148.456 124.874 157.124 131.422 163.655L129.934 176.632C129.866 177.35 130.618 177.794 131.165 177.487L143.048 171.315C150.01 174.063 157.674 174.489 164.897 172.528V357.824H133.491C133.764 356.49 133.901 354.917 133.901 353.139C133.901 336.402 122.463 302.003 118.326 289.796L139.543 289.095C139.731 289.085 139.911 289.015 140.055 288.895C140.2 288.775 140.302 288.611 140.346 288.428L142.33 279.777C151.254 281.025 154.383 279.042 157.118 271.964C163.034 265.74 163.205 256.525 160.179 253.072C160.179 249.225 159.871 246.66 151.989 237.702L156.093 219.835C156.132 219.623 156.093 219.404 155.983 219.218C155.873 219.033 155.699 218.894 155.494 218.827L122.549 208.928C122.292 208.141 121.113 208.158 120.771 208.039C103.489 192.983 103.458 190.116 71.5659 186.821V185.06C75.0707 185.402 79.3108 185.898 83.4482 186.565C83.1746 185.095 82.9695 183.59 82.9695 182.103C82.9695 179.658 83.5166 177.247 85.2092 175.093C90.5263 168.374 90.0305 165.279 90.0305 165.279C90.0305 165.279 86.3717 159.039 86.594 156.748C86.8676 153.995 89.7227 151.944 89.3979 146.08C89.0731 140.215 83.8072 138.403 83.8072 138.403L83.3285 137.942C83.1746 137.531 82.3369 114.912 69.2236 124.025C64.7443 127.102 60.5213 134.522 49.0836 132.248C37.6458 129.974 29.3538 145.105 30.2942 151.824C30.9438 156.509 35.9361 160.048 25.9858 170.22C17.1638 179.265 20.8054 191.745 29.3367 195.866C17.7622 202.807 9.28216 213.817 5.2644 228.794C-8.68661 281.093 9.40183 349.429 10.308 357.824H0.853417V359.534C505.74 359.807 486.096 359.534 582.146 359.534V357.824H477C519.4 347.48 568.554 321.271 580.402 293.215ZM142.706 278.17L142.74 277.982C146.689 278.255 150.861 276.699 153.921 274.665C151.442 278.785 148.194 278.922 142.706 278.17ZM146.108 276.135C141.184 277.264 126.395 273.024 126.122 271.16C126.053 270.698 126.618 270.066 127.558 269.502L135.508 271.314C135.918 271.417 136.414 271.16 136.534 270.664C136.583 270.442 136.543 270.209 136.421 270.017C136.299 269.825 136.106 269.689 135.884 269.638C129.9 268.271 127.763 267.775 127.592 267.775C126.857 267.33 125.865 266.578 126.019 265.775C126.327 264.253 128.806 263.928 129.729 264.236C138.449 266.202 137.799 266.082 138.004 266.082C138.397 266.082 138.756 265.826 138.842 265.416C138.866 265.307 138.869 265.194 138.849 265.084C138.83 264.974 138.788 264.869 138.728 264.775C138.667 264.682 138.589 264.601 138.497 264.537C138.405 264.474 138.301 264.43 138.192 264.407L130.43 262.629C129.729 262.082 129.439 261.552 129.593 261.056C129.798 260.269 130.926 259.603 131.866 259.483C133.85 259.073 140.894 261.449 142.347 261.449C142.74 261.449 143.082 261.193 143.167 260.782C143.195 260.674 143.201 260.562 143.183 260.452C143.166 260.342 143.127 260.236 143.068 260.142C143.009 260.048 142.931 259.966 142.839 259.903C142.748 259.84 142.644 259.796 142.535 259.774L134.602 257.961C132.345 256.388 134.004 254.833 135.73 254.61C137.645 254.354 143.219 255.499 146.005 256.132C146.706 256.286 147.595 256.576 147.801 255.67L149.818 247.122H149.835C152.297 248.678 156.383 251.482 158.486 253.704C163.102 258.782 160.008 272.904 146.108 276.135ZM158.418 251.276C155.648 248.78 151.75 246.301 150.228 245.361L151.528 239.719C154.212 242.814 158.127 247.481 158.418 251.276ZM122.429 210.671C126.156 211.817 140.193 216.006 154.246 220.229C148.331 245.942 148.519 245.224 146.33 254.456C144.056 253.944 137.867 252.627 135.525 252.918C133.2 253.191 130.858 255.397 132.089 257.756C129.627 257.756 126.977 260.081 128.105 262.441C128.088 262.458 128.071 262.458 128.071 262.458C124.857 262.868 122.702 266.151 125.831 268.63C124.788 269.467 124.293 270.425 124.429 271.382C124.788 274.819 137.628 277.349 141.013 277.879C140.175 281.521 140.825 278.717 138.825 287.402L104.255 288.548C104.323 288.257 119.027 225.221 122.429 210.671ZM106.768 206.756C106.375 207.765 107.931 208.449 108.358 207.355C109.487 204.414 109.299 201.901 108.581 199.9C111.658 202.482 114.564 204.944 117.283 207.303C117.026 207.303 115.112 206.449 114.718 208.039L103.64 251.516C103.024 250.986 101.725 250.798 100.733 251.567C99.7244 248.353 96.5956 247.635 95.3647 250.028C94.6808 251.345 92.9198 253.208 90.9879 255.004L89.9963 191.215C100.46 193.438 110.495 196.498 106.768 206.756ZM86.3376 257.534L86.9701 258.525C86.6966 258.765 86.4401 258.987 86.2008 259.175C86.2692 258.662 86.3376 258.115 86.3376 257.534ZM84.2346 254.183C84.9698 256.269 84.6279 258.885 84.0466 261.107L82.9695 263.261C82.9199 263.362 82.8907 263.472 82.8836 263.584C82.8765 263.697 82.8917 263.809 82.9282 263.916C82.9648 264.022 83.022 264.12 83.0965 264.205C83.1711 264.289 83.2615 264.358 83.3627 264.407C83.7046 264.595 84.2688 264.475 84.5082 264.014L85.534 261.911C87.8079 260.047 95.0398 254.32 96.8692 250.815C97.194 250.216 97.5531 250.302 97.6898 250.336C98.3908 250.541 99.297 251.635 99.297 253.567C97.7924 256.115 95.2621 258.782 92.4069 259.62C91.9624 259.756 91.706 260.218 91.8427 260.68C91.9453 261.056 92.2872 261.295 92.6634 261.295C95.1766 261.295 99.4508 257.106 101.434 253.379C101.896 252.439 102.682 252.661 103.161 253.414C103.947 254.627 103.691 256.85 103.127 257.995C101.571 260.423 98.6473 263.039 95.7921 263.689C95.3305 263.791 95.0398 264.236 95.1424 264.697C95.2279 265.108 95.5869 265.364 95.9631 265.364C98.3053 265.364 101.844 262.424 103.605 260.218C103.93 261.74 103.776 263.142 103.503 263.826C101.793 266.253 99.1089 268.749 96.2195 269.382C95.7579 269.485 95.4673 269.946 95.5698 270.408C95.6724 270.887 96.1853 271.16 96.5956 271.057C99.6218 270.339 102.221 268.236 104.118 265.826C106.17 274.545 87.4659 283.726 77.943 286.222L70.5743 269.519C72.1472 264.851 76.6778 253.431 80.4392 251.653C82.5421 250.678 83.8072 253.636 84.2346 254.183ZM6.92279 229.239C8.20505 224.4 9.94893 219.989 12.1373 215.989C11.026 220.4 10.1883 226.623 11.7954 233.222C11.9322 233.718 12.4451 233.957 12.8383 233.855C13.2828 233.735 13.5735 233.273 13.4538 232.812C12.3596 228.315 12.5305 218.485 14.8044 213.185C17.1809 206.329 25.3703 199.969 31.2516 196.652C37.4577 198.755 44.399 197.319 46.8268 196.618C46.7624 196.425 46.7723 196.214 46.8545 196.028C46.9366 195.841 47.0852 195.692 47.2713 195.609C47.4423 195.438 49.6649 194.378 49.8358 194.31H49.8529C52.7423 193.079 54.4349 194.618 56.6746 194.942C60.3162 195.37 63.9407 191.301 61.342 186.668C61.2394 186.497 61.8891 187.3 57.8713 182.239C56.5549 180.598 56.8284 178.188 57.4439 176.17C58.9484 171.383 59.6323 170.853 57.0678 164.51C54.2639 157.535 57.0678 155.825 57.0678 155.825C57.0678 155.825 64.4365 153.551 63.821 147.977C63.1885 142.421 66.3172 141.258 66.3172 141.258C75.2417 140.78 74.7801 135.377 74.7801 135.377C77.6695 136.232 80.5246 138.198 82.5421 140.951C84.4911 148.815 85.0553 166.049 83.4482 172.272C81.7727 178.837 70.9504 178.376 70.8307 178.376C70.3349 178.341 69.9417 178.718 69.9417 179.23V194.874C69.7707 194.754 64.2143 191.096 63.8552 190.873C63.462 194.19 60.0426 197.097 56.4523 196.635C53.3578 196.225 52.9304 194.549 49.3913 196.447C48.9981 196.669 48.5878 196.874 48.1774 197.045L81.4479 249.755C76.4556 249.293 71.2924 262.475 69.5656 267.228L68.3346 264.441C68.2476 264.241 68.0878 264.082 67.8876 263.997C67.6874 263.911 67.462 263.905 67.2575 263.979L38.6887 274.408L38.1587 262.424C38.1245 261.945 37.7313 261.535 37.2526 261.603C36.7909 261.62 36.4319 262.013 36.449 262.492L37.0132 275.4L32.3971 283.76C32.1748 284.188 32.3287 284.701 32.739 284.923C33.0638 285.145 33.6451 285.06 33.9016 284.598L38.4835 276.306L67.1036 265.86C69.4117 271.092 78.5072 291.71 77.9088 290.394L75.5324 291.779C68.7278 295.762 63.103 299.045 58.0765 301.661C62.1797 296.31 62.6585 289.608 62.6756 289.522C62.6849 289.409 62.6712 289.296 62.6355 289.188C62.5997 289.081 62.5425 288.982 62.4674 288.897C62.3923 288.813 62.3009 288.744 62.1985 288.696C62.0962 288.647 61.9851 288.62 61.872 288.616C61.7605 288.606 61.6481 288.619 61.5416 288.653C61.4351 288.688 61.3367 288.744 61.2521 288.817C61.1676 288.89 61.0986 288.98 61.0495 289.081C61.0003 289.181 60.9719 289.291 60.9659 289.402C60.9659 293.779 57.82 301.199 52.6568 304.328C52.6568 304.345 52.6397 304.345 52.6226 304.345C45.8523 307.439 39.6119 309.235 32.1064 309.645C24.4128 310.038 18.0699 307.73 13.2657 302.738C-2.01885 286.838 1.09277 251.02 6.92279 229.239ZM131.73 357.824H12.0518C11.9322 357.003 11.5389 354.746 11.3338 353.806V353.789C7.55537 333.991 14.9925 324.622 22.8741 322.656C23.3357 322.536 23.5922 322.057 23.4725 321.613C23.4099 321.394 23.2636 321.208 23.0652 321.096C22.8669 320.984 22.6324 320.955 22.4125 321.014C22.2757 321.066 10.3763 324.571 8.56408 339.701C5.82859 325.152 2.39213 303.764 1.81084 281.025C3.31536 289.317 6.30731 297.951 12.0347 303.918C17.4715 309.56 24.4299 311.782 32.1919 311.355C41.8174 310.825 51.3916 307.098 53.4945 305.815H53.5116C59.9571 302.875 67.0865 298.703 76.3872 293.249L79.4304 291.471C79.8066 291.266 79.9604 290.787 79.7724 290.394L78.644 287.812C86.2179 285.795 92.5779 282.188 96.476 279.623L94.4585 287.522C94.2705 288.24 94.7492 288.958 95.416 289.095L102.426 290.702C102.785 290.804 103.349 290.685 103.657 290.291H103.674L116.513 289.864C120.822 302.55 125.729 318.057 128.874 331.409C123.25 317.852 115.06 309.03 114.941 308.91C114.616 308.568 114.086 308.551 113.744 308.876C113.402 309.183 113.385 309.73 113.71 310.072C123.147 319.476 134.944 345.121 131.73 357.824ZM451.628 207.423C460.467 197.37 470.743 190.121 482.18 185.881C487.737 183.812 493.96 184.137 499.26 186.77C504.577 189.42 508.441 193.985 510.134 199.627C514.818 215.1 515.981 241.206 495.413 278.255V263.261C495.413 261.107 493.669 259.329 491.464 259.329C485.446 259.329 480.659 253.961 481.65 247.703C481.856 246.438 481.001 245.395 479.718 245.395H464.041C472.555 229.854 480.932 218.16 490.079 208.962C490.404 208.62 490.404 208.09 490.062 207.748C489.983 207.67 489.889 207.608 489.785 207.567C489.682 207.525 489.571 207.505 489.46 207.506C489.349 207.508 489.239 207.532 489.137 207.576C489.035 207.62 488.942 207.685 488.865 207.765C479.428 217.237 470.845 229.307 462.109 245.395H451.628V207.423ZM463.1 284.684C463.1 289.129 460.707 293.061 457.151 295.181L458.997 310.072C459.117 310.944 458.433 311.714 457.544 311.714H443.627C443.421 311.711 443.219 311.665 443.032 311.579C442.845 311.492 442.679 311.368 442.543 311.213C442.408 311.058 442.307 310.877 442.246 310.68C442.185 310.484 442.166 310.277 442.191 310.072L444.089 295.01C439.643 292.104 437.164 286.428 439.165 280.529C443.456 267.706 463.1 270.784 463.1 284.684ZM297.415 45.1742C297.415 44.6955 297.791 44.3193 298.27 44.3193H431.061C431.54 44.3193 431.916 44.6955 431.916 45.1742V62.6984C431.916 63.1772 431.54 63.5533 431.061 63.5533H298.27C297.791 63.5533 297.415 63.1772 297.415 62.6984V45.1742ZM256.485 43.1739C262.418 43.1739 267.256 47.9952 267.256 53.9278C267.256 59.8775 262.418 64.6988 256.485 64.6988C250.553 64.6988 245.714 59.8775 245.714 53.9278C245.714 47.9952 250.553 43.1739 256.485 43.1739ZM225.933 43.1739C231.866 43.1739 236.704 47.9952 236.704 53.9278C236.704 59.8775 231.866 64.6988 225.933 64.6988C220.001 64.6988 215.162 59.8775 215.162 53.9278C215.162 47.9952 220.001 43.1739 225.933 43.1739ZM195.381 43.1739C201.314 43.1739 206.152 47.9952 206.152 53.9278C206.152 56.7844 205.017 59.5241 202.997 61.544C200.977 63.564 198.238 64.6988 195.381 64.6988C192.524 64.6988 189.785 63.564 187.765 61.544C185.745 59.5241 184.61 56.7844 184.61 53.9278C184.61 47.9952 189.431 43.1739 195.381 43.1739ZM155.819 172.033C151.511 172.033 147.305 171.212 143.321 169.571C143.206 169.525 143.082 169.505 142.959 169.511C142.835 169.517 142.714 169.549 142.603 169.605L131.815 175.23L133.166 163.433C133.181 163.304 133.166 163.174 133.121 163.052C133.077 162.93 133.004 162.82 132.909 162.732C126.498 156.475 122.976 148.131 122.976 139.19C122.976 121.084 137.714 106.347 155.819 106.347C173.702 106.347 188.679 120.828 188.679 139.19C188.679 157.381 173.839 172.033 155.819 172.033ZM166.607 357.824V172.033C180.404 167.639 190.389 154.577 190.389 139.19C190.389 123.768 180.37 110.723 166.607 106.347V82.7359H449.919V245.395H421.846C420.563 245.395 419.709 246.438 419.897 247.686C420.991 254.508 415.212 260.286 408.459 259.192C407.194 258.987 406.151 259.842 406.151 261.124V296.72C406.151 339.171 443.388 353.225 448.209 357.824H166.607ZM453.235 357.824C458.245 354.251 463.408 351.413 468.537 347.822C473.649 344.232 478.71 339.889 483.514 333.256C484.865 333.358 486.249 333.871 487.839 335.324C488.181 335.649 488.729 335.615 489.036 335.273C489.361 334.931 489.344 334.384 488.985 334.059C487.429 332.64 485.993 331.974 484.625 331.7C484.642 331.7 484.642 331.683 484.642 331.683C488.352 326.246 491.19 320.228 493.003 313.851C511.997 299.438 532.12 287.111 555.543 284.991C556.005 284.957 556.364 284.53 556.312 284.068C556.278 283.589 555.851 283.265 555.389 283.282C532.257 285.385 512.408 297.164 493.721 311.167V311.15C494.182 309.183 494.559 307.2 494.832 305.166C494.969 305.473 495.259 305.679 495.601 305.679C495.723 305.679 495.843 305.654 495.954 305.605C496.065 305.556 496.164 305.484 496.245 305.393C496.326 305.302 496.387 305.196 496.423 305.08C496.46 304.964 496.471 304.842 496.456 304.721C496.114 301.729 497.072 298.754 498.696 297.643C499.089 297.387 499.192 296.857 498.935 296.463C498.872 296.37 498.79 296.289 498.696 296.227C498.601 296.165 498.495 296.123 498.383 296.102C498.272 296.081 498.158 296.083 498.047 296.107C497.936 296.131 497.831 296.176 497.739 296.241C496.593 297.01 495.824 298.276 495.328 299.678V299.643C495.396 298.652 495.413 297.643 495.413 296.634V281.367C495.499 281.281 495.601 281.213 495.687 281.145C520.152 262.116 543.284 252.713 559.082 255.345C566.502 256.594 572.554 260.406 576.846 266.988C581.992 274.853 582.658 283.436 578.829 292.548C566.878 320.878 512.732 348.985 469.221 357.824H453.235Z" fill="white"/>
</svg>
