<svg width="566" height="425" viewBox="0 0 566 425" fill="none" xmlns="http://www.w3.org/2000/svg">
<path d="M43.9466 418.548C46.7547 415.948 48.4159 412.348 48.819 408.092C53.2523 409.001 57.6213 410.195 61.5171 411.761C61.536 411.77 61.5555 411.766 61.5744 411.773C65.1163 415.672 68.8701 418.981 72.8227 421.449C72.9684 421.822 73.1104 422.198 73.2764 422.555H35.4226C38.8212 421.951 41.7215 420.609 43.9466 418.548ZM5.98358 405.148C6.32372 395.856 21.7579 390.613 31.1784 390.998C43.1012 391.481 47.2986 399.017 47.2973 406.151C32.4163 403.355 17.4892 403.566 17.2773 403.566C16.8306 403.575 16.4761 403.943 16.4836 404.389C16.4919 404.834 16.7958 405.152 17.3057 405.182C17.4955 405.182 32.4523 404.967 47.2241 407.775C46.8872 411.702 45.3945 415.008 42.8488 417.363C39.8375 420.15 35.4137 421.521 30.07 421.291C18.9063 420.84 5.67316 413.54 5.98358 405.148ZM6.77094 362.333C0.231734 342.503 4.33892 314.592 19.2469 309.674C34.1518 304.758 54.0631 324.743 60.6042 344.573C67.6438 365.92 57.1891 378.25 44.6714 382.884C32.0567 357.943 24.7319 330.986 24.6108 330.532C24.494 330.102 24.0588 329.852 23.6222 329.96C23.1919 330.075 22.9345 330.519 23.0493 330.948C23.5421 332.786 30.6598 358.98 43.0135 383.444C30.0895 387.48 13.9336 384.042 6.77094 362.333ZM74.2334 395.833C77.2541 396.788 79.6604 396.87 81.9695 396.517V422.555H77.3361C77.3185 422.274 77.1664 422.008 76.8952 421.875C75.9609 421.421 75.0366 420.909 74.1218 420.355C71.7597 413.767 72.4309 404.699 74.2334 395.833ZM82.1473 355.16C82.1436 355.403 81.9517 367.141 81.9695 366.072C80.4376 369.657 75.7336 381.196 72.9943 393.645C54.2561 385.613 68.5736 359.301 82.1473 355.16ZM85.0584 195.618C109.476 189.311 126.801 166.084 124.648 139.884C122.729 116.766 105.955 97.6687 83.7624 92.565V75.978H302.139V120.022H213.292V90.9984C213.292 90.551 212.931 90.1909 212.485 90.1909H173.401C172.954 90.1909 172.594 90.551 172.594 90.9984V283.615C172.594 284.061 172.954 284.422 173.401 284.422H212.485C212.931 284.422 213.292 284.061 213.292 283.615V256.237H302.139V343.341V365.484H83.958C84.0242 365.209 83.9549 364.927 83.7624 364.731V354.114V195.947C84.1764 195.854 84.5832 195.739 84.9933 195.636C85.0148 195.629 85.0369 195.624 85.0584 195.618ZM20.3466 144.245C20.3466 115.881 43.423 92.8041 71.7868 92.8041C99.2795 92.8041 120.852 114.272 123.031 139.921C125.534 169.2 102.346 195.684 71.7868 195.684C43.423 195.684 20.3466 172.608 20.3466 144.245ZM218.477 52.1392C218.477 52.5752 218.122 52.9467 217.669 52.9467H176.032C175.58 52.9467 175.225 52.5752 175.225 52.1392C175.225 51.6869 175.58 51.3316 176.032 51.3316H217.669C218.122 51.3316 218.477 51.6869 218.477 52.1392ZM403.888 164.124C393.687 162.368 394.238 169.881 397.425 171.669C394.505 172.956 394.341 176.208 395.546 177.459C393.797 178.637 393.87 181.533 396.312 182.723C395.59 183.514 395.514 184.53 395.852 185.566C395.852 185.567 395.852 185.567 395.852 185.567C397.018 188.25 401.08 189.482 403.946 190.117C404.008 190.131 404.072 190.146 404.132 190.159V205.226H194.559V121.637C220.544 121.637 382.217 121.637 404.132 121.637C403.869 168.45 404.429 91.9659 403.888 164.124ZM441.418 132.553L441.93 135.903C441.998 136.344 442.41 136.646 442.851 136.578C443.292 136.51 443.594 136.1 443.526 135.659L442.885 131.46C444.023 111.959 447.989 97.3247 454.688 87.6519L457.774 95.3979C458.168 96.3912 459.671 95.7952 459.275 94.8019L455.807 86.0982C459.286 81.5646 463.384 78.1794 469.028 75.8456L480.31 149.861C480.429 150.647 481.799 151.287 482.456 148.698L514.871 75.9796C530.631 79.8462 539.138 91.5718 543.551 105.093C543.975 107.041 544.862 113.834 538.909 121.309C538.631 121.658 538.689 122.167 539.038 122.444C539.38 122.717 539.889 122.67 540.173 122.315C543.421 118.239 544.773 114.359 545.258 111.223C550.588 133.937 546.282 160.646 542.275 170.272C542.258 170.308 542.244 170.346 542.228 170.382C538.352 179.595 528.44 188.416 512.773 190.74C512.752 190.744 512.731 190.747 512.709 190.75C485.493 194.764 433.477 189.077 426.776 188.314V187.759C426.776 187.756 426.777 187.754 426.777 187.752C426.776 164.749 426.779 191.36 426.776 161.827L453.588 159.871L453.572 159.953C453.376 161.005 454.962 161.304 455.16 160.252L455.253 159.75L504.743 156.138L510.343 166.832C510.552 167.231 511.039 167.38 511.431 167.174C511.828 166.966 511.98 166.478 511.774 166.084L506.079 155.207C506.129 155.04 510.746 139.579 510.454 140.554C510.582 140.131 510.336 139.671 509.905 139.54C509.47 139.416 509.028 139.66 508.9 140.084C508.852 140.251 504.317 155.452 504.593 154.525L455.563 158.104L457.59 147.31C457.671 146.873 457.384 146.449 456.944 146.367C456.521 146.283 456.083 146.572 456.003 147.012L453.897 158.225L425.91 160.267C425.489 160.299 425.161 160.651 425.161 161.073V161.076V163.985C425.086 163.981 425.011 163.978 424.933 163.977C422.003 162.34 415.46 158.727 413.497 158.017C412.133 157.526 407.918 157.737 405.747 157.888V132.539L441.418 132.553ZM472.695 45.38C474.925 44.3463 476.049 45.2976 476.104 45.3493C476.33 45.5625 476.684 45.556 476.9 45.3348C477.117 45.1103 477.112 44.7517 476.889 44.5337C476.823 44.4723 475.382 43.1544 472.717 44.1574C472.75 43.0865 472.821 42.0303 472.926 41.0031C479.325 45.6449 487.922 41.171 494.813 38.154C490.697 44.2365 493.618 55.5712 493.515 50.7179C493.402 45.4268 495.151 42.4663 497.118 43.1754C500.936 44.553 501.899 57.3721 502.13 62.4063C501.395 65.7593 501.502 69.2108 502.458 72.5023C499.864 74.8151 492.376 81.4919 487.723 85.6411L481.679 72.2649C482.497 70.5319 482.98 68.9232 482.992 66.78C485.197 65.3732 486.932 61.5875 487.008 61.4098C487.117 61.1708 486.835 60.9528 486.631 61.1143C477.747 68.1205 472.654 56.7745 472.695 45.38ZM474.804 73.9397L476.13 89.8113C476.162 90.2684 476.608 90.6301 477.146 90.5235L486.531 88.0525L481.188 144.914L470.571 75.2448C471.981 74.7263 473.363 74.2983 474.804 73.9397ZM513.259 75.6275L482.928 143.672L488.159 87.9959L497.754 90.5235C498.037 90.5946 498.431 90.4896 498.627 90.1844L508.853 74.87C511.426 75.2593 511.102 75.1736 513.259 75.6275ZM534.919 202.619C528.874 207.208 506.05 207.746 485.714 206.578C485.717 206.536 485.733 206.497 485.728 206.452L485.171 199.279C485.137 198.834 484.745 198.485 484.304 198.538C483.858 198.57 483.527 198.96 483.563 199.405L484.113 206.481C480.98 206.287 477.924 206.053 475.007 205.788L474.256 196.149C474.223 195.705 473.846 195.351 473.389 195.408C472.943 195.443 472.612 195.831 472.648 196.275L473.376 205.636C464.519 204.782 457.167 203.647 453.473 202.492C450.505 201.565 448.966 198.058 448.888 192.068C453.448 192.433 458.44 192.787 463.642 193.081C473.895 195.455 499.853 200.55 518.158 196.204C529.207 193.575 535.314 190.181 542.078 183.033C539.269 194.373 536.328 201.56 534.919 202.619ZM524.315 232.788L534.072 231.362C534.393 231.333 534.669 231.531 534.713 231.84C534.758 232.148 534.545 232.436 534.236 232.481L524.479 233.907C516.985 234.992 510.355 229.049 510.607 221.506L511.032 208.608C511.412 208.595 511.79 208.584 512.164 208.569L511.736 221.545C511.51 228.429 517.583 233.786 524.315 232.788ZM532.153 321.707L537.026 316.808C537.341 316.49 537.852 316.493 538.167 316.805C538.484 317.12 538.484 317.632 538.171 317.947L533.298 322.847C532.988 323.16 532.476 323.169 532.154 322.85C531.838 322.535 531.838 322.023 532.153 321.707ZM538.854 399.873C538.692 399.921 525.783 403.851 526.581 403.607C526.335 403.442 519.088 398.56 519.505 398.841L519.584 396.88H539.237L538.854 399.873ZM525.999 405.164C526.185 405.288 526.481 405.319 526.66 405.269C526.67 405.267 526.678 405.27 526.686 405.267C526.847 405.219 539.644 401.326 538.846 401.57L539.111 416.082H486.639C487.933 413.419 490.501 411.476 493.634 411.144L501.627 410.308C501.744 410.295 501.858 410.259 501.959 410.2L518.659 400.223C518.822 400.331 526.485 405.492 525.999 405.164ZM472.087 400.246L472.517 396.88H479.412L492.284 290.965C492.047 290.934 491.842 290.775 491.795 290.529L484.361 250.546C484.302 250.239 484.506 249.943 484.811 249.887C485.144 249.827 485.412 250.034 485.47 250.337L492.906 290.321C492.964 290.628 492.761 290.923 492.454 290.98C492.451 290.981 492.447 290.98 492.442 290.981L510.47 396.88H517.967L517.89 398.799L501.282 408.72L493.465 409.539C485.614 410.364 482.322 419.136 485.044 422.555H471.511C473.2 420.436 472.12 419.973 472.087 400.246ZM470.506 399.873C470.345 399.921 457.434 403.851 458.231 403.607C457.986 403.442 450.737 398.56 451.156 398.841L451.233 396.88H470.887L470.506 399.873ZM450.308 400.223C450.471 400.331 458.136 405.492 457.65 405.164C457.794 405.262 458.068 405.335 458.311 405.269C458.319 405.267 458.328 405.27 458.335 405.267C458.498 405.219 471.294 401.326 470.496 401.57L470.761 416.082H418.29C419.584 413.419 422.152 411.476 425.285 411.144C433.624 410.246 433.332 410.363 433.609 410.2L450.308 400.223ZM450.636 302.08C450.952 301.769 451.464 301.765 451.778 302.083L456.65 306.984C456.965 307.3 456.965 307.812 456.649 308.126C456.327 308.444 455.817 308.437 455.505 308.122L450.632 303.222C450.319 302.907 450.319 302.394 450.636 302.08ZM493.594 227.946C493.906 227.946 494.158 228.198 494.158 228.509C494.158 228.823 493.906 229.075 493.594 229.075C489.939 229.075 486.967 226.103 486.967 222.448V208.23C487.344 208.251 487.718 208.272 488.096 208.293V222.448C488.096 225.478 490.564 227.946 493.594 227.946ZM345.071 417.267C347.479 413.428 350.207 409.069 356.7 413.079C360.172 415.471 363.036 416.957 365.447 417.621C368.865 418.58 372.98 417.59 373.919 414.218C374.734 411.653 373.004 407.49 379.203 408.392C384.53 409.405 386.715 406.259 385.786 400.942C384.843 394.837 379.421 385.437 369.301 378.45C381.529 343.625 401.815 339.827 402.02 339.793C402.682 339.683 402.927 338.854 402.433 338.401C402.021 338.021 360.607 300.788 317.595 329.849C312.311 333.42 307.69 337.296 303.754 341.359V256.237H404.94C405.385 256.237 405.747 255.877 405.747 255.43V231.547C405.747 231.544 405.749 231.541 405.749 231.536V206.034C405.749 206.03 405.747 206.027 405.747 206.026V190.467C411.901 191.514 419.293 191.301 425.161 188.967V189.033C425.161 189.442 425.468 189.787 425.873 189.834C426.881 189.955 435.454 190.965 447.291 191.939C447.351 197.886 448.791 201.758 451.621 203.429L450.271 232.542C450.29 232.542 450.308 232.537 450.326 232.539L452.067 232.791C458.869 233.776 464.874 228.379 464.643 221.545L464.139 206.135C464.514 206.185 464.889 206.236 465.275 206.287L465.772 221.506C466.029 229.021 459.425 235 451.904 233.91L450.219 233.666L447.761 286.711L457.262 296.263C457.577 296.578 457.577 297.09 457.259 297.405C456.939 297.723 456.429 297.715 456.117 297.401L447.659 288.898L442.652 396.88H449.617L449.541 398.799L432.933 408.72L425.116 409.539C417.265 410.364 413.973 419.136 416.693 422.555H339.722C342.802 420.993 344.013 418.95 345.071 417.267ZM81.9695 394.89C79.6231 395.296 77.0869 395.058 74.5666 394.234C76.6441 384.736 79.897 375.68 81.9695 370.387V394.89ZM338.155 376.329C321.685 373.865 327.567 387.994 326.99 389.016C324.338 393.735 303.032 389.872 306.114 407.32C307.05 412.69 311.439 419.352 316.684 421.677C312.422 421.827 308.089 421.639 303.754 421.106V400.18C321.615 342.576 368.71 341.855 369.181 341.855C369.629 341.855 369.989 341.492 369.989 341.048C369.989 340.602 369.629 340.24 369.181 340.24C368.71 340.24 323.006 340.902 303.754 395.098V343.656C331.882 313.213 370.226 313.993 400.167 338.593C395 340.146 378.604 347.337 367.894 377.562C354.079 369.375 355.439 378.574 338.155 376.329ZM397.378 183.994C397.811 183.165 399.163 183.479 399.093 182.419C399.003 181.164 396.16 181.956 395.973 179.885C395.884 178.911 396.638 178.567 397.588 178.378C398.423 178.218 398.462 177.036 397.649 176.808C395.283 176.135 395.982 172.611 401.735 172.511C402.893 172.498 404.471 172.653 404.405 171.543C404.308 169.852 400.805 171.742 398.193 170.245C396.595 169.314 396.79 166.845 397.961 166.097C399.637 165.028 403.252 165.592 404.504 165.899C405.001 166.026 405.503 165.647 405.503 165.114V165.11V159.535C408.663 159.306 412.067 159.223 412.951 159.543C414.365 160.053 418.61 162.339 421.643 164.007V188.395C410.079 191.325 395.575 187.433 397.378 183.994ZM194.559 254.622V232.344H404.132V254.622C378.916 254.622 220.631 254.622 194.559 254.622ZM211.677 120.022H194.559V108.367C194.559 107.92 194.197 107.558 193.751 107.558C193.306 107.558 192.944 107.92 192.944 108.367C192.942 321.875 192.944 104.418 192.944 273.239C192.944 273.685 193.306 274.047 193.751 274.047C194.197 274.047 194.559 273.685 194.559 273.239V256.237H211.677V282.807H174.209V91.8059H211.677V120.022ZM183.348 394.427C183.348 389.388 187.435 385.301 192.458 385.301C197.481 385.301 201.567 389.388 201.567 394.427C201.567 399.433 197.481 403.52 192.458 403.52C187.435 403.52 183.348 399.433 183.348 394.427ZM314.745 418.681C314.813 418.618 314.89 418.566 314.934 418.479C316.617 415.21 319.637 412.454 324.106 410.082C326.803 411.293 329.492 412.27 332.1 412.97C332.545 413.089 332.977 412.821 333.091 412.401C333.207 411.97 332.952 411.527 332.52 411.413C330.387 410.838 328.195 410.067 325.987 409.135C327.85 408.274 329.562 407.425 331.138 406.571C334.52 407.809 337.446 408.622 340.06 409.037C340.522 409.105 340.917 408.788 340.984 408.365C341.053 407.924 340.754 407.511 340.312 407.441C338.151 407.099 335.739 406.454 333.021 405.519C336.519 403.484 338.328 402.027 340.588 400.255C343.532 401.735 346.05 402.883 348.26 403.741C348.668 403.901 349.143 403.7 349.305 403.279C349.466 402.865 349.259 402.395 348.843 402.236C346.859 401.464 344.6 400.443 342.001 399.152C344.726 396.967 347.433 394.822 350.505 393.254C353.835 395.27 356.338 396.709 358.54 397.868C358.942 398.077 359.425 397.922 359.631 397.531C359.84 397.135 359.688 396.647 359.294 396.439C357.335 395.407 355.106 394.133 352.276 392.435C355.98 390.953 361.515 389.909 369.456 393.393C369.866 393.571 370.343 393.388 370.52 392.978C370.7 392.569 370.514 392.094 370.107 391.914C360.756 387.814 353.366 388.903 345.732 394.263C345.037 392.258 344.63 390.534 344.532 389.052C344.503 388.604 344.076 388.265 343.671 388.299C343.227 388.33 342.889 388.714 342.92 389.158C343.036 390.904 343.521 392.913 344.369 395.263C341.581 397.358 339.57 399.117 336.691 401.215C336.209 399.362 335.985 397.705 336.056 396.305C336.08 395.861 335.738 395.48 335.292 395.459C334.872 395.392 334.468 395.777 334.444 396.223C334.357 397.935 334.646 399.95 335.282 402.2C332.986 403.749 330.345 405.241 327.239 406.755C326.683 404.447 326.536 402.413 326.85 400.732C326.932 400.294 326.643 399.873 326.205 399.79C325.771 399.71 325.346 399.995 325.264 400.436C324.892 402.425 325.068 404.794 325.747 407.464C323.993 408.284 322.562 409.011 320.895 410.078C320.441 408.05 320.296 406.215 320.507 404.629C320.565 404.188 320.252 403.781 319.811 403.723C319.375 403.662 318.962 403.973 318.904 404.418C318.648 406.356 318.85 408.591 319.466 411.054C316.807 412.992 314.861 415.164 313.575 417.61C309.114 413.146 308.654 409.72 307.742 407.262C304.327 391.003 324.936 395.963 328.4 389.807C329.649 387.593 323.088 376.021 338.11 377.951C348.818 379.351 354.227 376.273 353.959 376.394C363.596 372.045 382.27 388.754 384.192 401.204C384.925 405.408 383.732 407.604 379.471 406.8C371.74 405.66 373.172 411.227 372.371 413.758C371.674 416.248 368.393 416.771 365.88 416.064C363.672 415.457 360.891 414.005 357.583 411.726C349.697 406.855 346.089 412.605 343.703 416.408C342.786 417.868 341.675 419.792 338.952 421.148C329.925 424.222 318.537 421.922 314.745 418.681ZM540.794 419.855L540.437 400.238L540.866 396.88H546.164L540.572 304.199L532.687 312.126C532.377 312.439 531.865 312.448 531.546 312.129C531.227 311.814 531.227 311.302 531.542 310.987L540.443 302.04L534.572 204.725C535.058 204.465 535.512 204.197 535.893 203.908C541.33 199.814 557.264 141.559 544.94 104.008C535.291 74.3661 512.78 75.0687 504.032 72.0937C502.303 66.1841 504.023 61.9428 504.22 60.3228C507.072 54.1887 511.843 42.4906 510.964 34.5056C509.727 23.2483 502.072 27.3006 490.136 27.496C485.512 27.5719 484.288 25.1461 482.203 23.9735C479.615 22.5167 473.505 18.1026 470.107 21.3958C468.591 22.8671 468.033 26.2395 468.148 29.657H468.138C466.659 35.1532 468.972 41.4714 471.162 48.3356C471.619 55.6375 474.082 63.6322 481.269 64.8484C481.578 67.5666 481.237 69.2705 480.431 71.1117C473.761 72.4894 471.29 72.9578 466.352 75.2803C451.58 82.3673 443.161 100.996 441.317 130.646C441.265 130.735 441.231 130.833 441.218 130.938L405.747 130.924V120.829C405.747 120.382 405.385 120.022 404.94 120.022H303.754C303.762 114.994 303.709 144.977 303.915 28.3003H81.9695C82.0086 38.7613 82.1063 76.2332 82.1473 92.213C78.7949 91.5459 75.3318 91.189 71.7868 91.189C42.5314 91.189 18.7315 114.989 18.7315 144.245C18.7315 173.499 42.5314 197.299 71.7868 197.299C75.3318 197.299 78.7949 196.942 82.1473 196.277V353.498C66.5176 357.736 51.9496 386.681 72.6523 395.258C70.9465 403.6 70.2164 412.198 71.9994 418.96C61.6736 411.732 52.692 398.451 45.409 384.331C58.5669 379.388 69.5086 366.416 62.1373 344.068C55.2238 323.115 34.7525 302.854 18.7422 308.142C2.7206 313.426 -1.6736 341.884 5.23789 362.837C12.0042 383.352 27.511 390.116 43.7554 384.898C48.3017 393.721 53.526 402.25 59.3708 409.248C56.0559 408.108 52.504 407.196 48.9137 406.466C49.0435 398.48 44.4954 389.919 31.2447 389.383C20.0835 388.955 4.73688 395.145 4.36848 405.086C4.05499 413.637 15.3839 420.896 26.5452 422.555H2.90552V424.17C397.591 424.23 303.557 424.17 536.557 424.17H552.038V422.555H539.86C540.472 421.786 540.813 420.85 540.794 419.855Z" fill="white"/>
<path d="M41.0268 345.757C41.461 345.896 41.9095 345.655 42.0439 345.238L44.7461 336.885C44.8829 336.459 44.6514 336.005 44.2275 335.868C43.7985 335.73 43.3485 335.965 43.2098 336.386L40.5084 344.739C40.3708 345.164 40.6029 345.62 41.0268 345.757Z" fill="white"/>
<path d="M41.4267 352.057C41.2174 352.451 41.3668 352.938 41.7599 353.148C42.1498 353.357 42.6419 353.213 42.8527 352.816L46.1849 346.556C46.3951 346.162 46.2449 345.672 45.8526 345.462C45.4633 345.257 44.9712 345.401 44.7591 345.797L41.4267 352.057Z" fill="white"/>
<path d="M18.8526 356.268C18.7068 355.847 18.245 355.622 17.8254 355.768C17.4047 355.913 17.1807 356.373 17.3251 356.795C18.341 359.742 20.4828 362.306 23.1995 363.827C23.5881 364.042 24.0802 363.906 24.2984 363.515C24.5161 363.126 24.3774 362.633 23.9874 362.417C21.612 361.086 19.7414 358.848 18.8526 356.268Z" fill="white"/>
<path d="M17.2702 333.403L14.9629 330.552C14.6802 330.203 14.1681 330.151 13.8266 330.432C13.4804 330.713 13.4267 331.222 13.7068 331.568L16.0146 334.418C16.2953 334.764 16.8052 334.819 17.1502 334.538C17.4973 334.257 17.5509 333.75 17.2702 333.403Z" fill="white"/>
<path d="M18.0096 397.986L18.7616 397.334C19.0979 397.04 19.1345 396.531 18.8424 396.193C18.5478 395.859 18.0381 395.82 17.7024 396.113L16.9496 396.765C16.6134 397.059 16.5775 397.568 16.8689 397.905C17.1693 398.246 17.6777 398.274 18.0096 397.986Z" fill="white"/>
<path d="M25.1443 398.369L26.7922 396.528C27.0907 396.195 27.0622 395.685 26.731 395.387C26.3999 395.09 25.89 395.116 25.591 395.449L23.9393 397.293C23.6427 397.624 23.6712 398.136 24.0044 398.434C24.3305 398.728 24.8395 398.707 25.1443 398.369Z" fill="white"/>
<path d="M37.8733 401.611C38.2637 401.819 38.754 401.674 38.9666 401.278L39.4492 400.37C39.6573 399.975 39.506 399.488 39.1116 399.278C38.7217 399.073 38.2298 399.22 38.0203 399.616L37.5408 400.517C37.3306 400.911 37.4789 401.399 37.8733 401.611Z" fill="white"/>
<path d="M32.6498 416.217L35.1111 414.77C35.4952 414.542 35.6232 414.048 35.3962 413.664C35.1691 413.278 34.6726 413.155 34.2903 413.378L31.8336 414.823C31.4487 415.048 31.3187 415.544 31.5446 415.928C31.7737 416.317 32.2663 416.44 32.6498 416.217Z" fill="white"/>
<path d="M19.3522 411.255L17.0986 412.277C16.6929 412.462 16.5132 412.94 16.6973 413.347C16.8759 413.741 17.3466 413.936 17.7666 413.747L20.0178 412.728C20.4235 412.544 20.6045 412.066 20.4215 411.659C20.2366 411.252 19.759 411.077 19.3522 411.255Z" fill="white"/>
<path d="M355.444 331.901C353.456 333.148 352.006 334.797 351.134 336.8C350.956 337.208 351.142 337.685 351.552 337.861C351.962 338.042 352.439 337.851 352.613 337.444C353.353 335.747 354.595 334.341 356.304 333.271C356.682 333.032 356.795 332.534 356.559 332.156C356.32 331.78 355.821 331.667 355.444 331.901Z" fill="white"/>
<path d="M339.091 338.967C336.551 340.167 335.199 342.096 334.965 344.862C334.919 345.395 335.297 345.697 335.7 345.733C336.102 345.77 336.526 345.538 336.573 344.998C336.759 342.827 337.778 341.374 339.782 340.427C340.185 340.237 340.359 339.756 340.167 339.352C339.978 338.948 339.497 338.782 339.091 338.967Z" fill="white"/>
<path d="M336.48 368.087C334.352 368.247 332.11 367.633 330.358 366.39C329.997 366.133 329.492 366.215 329.232 366.579C328.973 366.942 329.057 367.446 329.421 367.704C331.54 369.213 334.206 369.894 336.606 369.696C337.051 369.663 337.383 369.274 337.348 368.828C337.315 368.384 336.92 368.014 336.48 368.087Z" fill="white"/>
<path d="M353.272 357.392C351.022 357.732 348.885 357.381 346.918 356.351C346.526 356.144 346.035 356.293 345.828 356.69C345.619 357.084 345.771 357.573 346.167 357.778C348.336 358.92 350.865 359.394 353.514 358.99C353.955 358.922 354.259 358.512 354.191 358.069C354.125 357.63 353.713 357.331 353.272 357.392Z" fill="white"/>
<path d="M368.084 350.803C368.079 350.803 368.073 350.803 368.066 350.803C366.194 350.844 364.163 350.682 361.782 348.285C361.469 347.969 360.957 347.966 360.64 348.282C360.325 348.595 360.322 349.106 360.637 349.424C363.043 351.848 365.229 352.48 368.1 352.418C368.548 352.409 368.9 352.04 368.892 351.593C368.882 351.154 368.522 350.803 368.084 350.803Z" fill="white"/>
<path d="M325.188 344.835C323.604 347.138 322.906 350.045 323.277 352.817C323.344 353.312 323.72 353.53 324.091 353.516C324.526 353.5 324.954 353.17 324.878 352.602C324.558 350.224 325.156 347.727 326.519 345.752C326.771 345.386 326.679 344.882 326.312 344.628C325.946 344.376 325.443 344.465 325.188 344.835Z" fill="white"/>
<path d="M199.953 394.426C199.953 390.29 196.594 386.916 192.459 386.916C188.324 386.916 184.965 390.29 184.965 394.426C184.965 398.544 188.324 401.904 192.459 401.904C196.594 401.904 199.953 398.544 199.953 394.426Z" fill="white"/>
<path d="M454.669 100.116C455.065 101.104 456.565 100.513 456.171 99.5167L454.821 96.1298C454.656 95.7163 454.191 95.5177 453.77 95.6776C453.356 95.8439 453.154 96.3139 453.319 96.729L454.669 100.116Z" fill="white"/>
<path d="M484.776 45.1377C487.123 43.9748 488.292 44.9859 488.35 45.0424C488.576 45.254 488.93 45.2475 489.147 45.0263C489.363 44.8018 489.358 44.4448 489.135 44.2268C489.066 44.159 487.393 42.5762 484.275 44.1251C483.994 44.264 483.881 44.6031 484.02 44.8825C484.161 45.1636 484.497 45.275 484.776 45.1377Z" fill="white"/>
<path d="M486.353 47.0965C485.748 47.0965 485.262 47.581 485.262 48.1867C485.262 48.7923 485.748 49.2769 486.353 49.2769C486.959 49.2769 487.442 48.7923 487.442 48.1867C487.442 47.581 486.959 47.0965 486.353 47.0965Z" fill="white"/>
<path d="M474.387 47.2049C473.781 47.2049 473.297 47.6894 473.297 48.2951C473.297 48.9007 473.781 49.3853 474.387 49.3853C474.993 49.3853 475.477 48.9007 475.477 48.2951C475.477 47.6894 474.993 47.2049 474.387 47.2049Z" fill="white"/>
<path d="M480.418 55.9697C480.712 56.0101 481.01 55.7969 481.048 55.4771C481.085 55.167 480.866 54.8844 480.554 54.8472C478.983 54.6583 478.934 53.7506 480.052 52.6911C481.735 51.1002 480.814 46.2937 480.704 45.751C480.643 45.4457 480.355 45.2471 480.039 45.3101C479.732 45.3714 479.533 45.6686 479.596 45.9755C479.965 47.7893 480.202 50.992 479.275 51.8706C477.411 53.6311 477.933 55.6693 480.418 55.9697Z" fill="white"/>
<path d="M483.522 58.7854C483.325 58.5431 482.969 58.506 482.727 58.7014C482.669 58.7499 481.274 59.8303 479.35 58.5108C479.092 58.3299 478.74 58.3962 478.565 58.6546C478.387 58.913 478.452 59.2651 478.71 59.4411C480.466 60.6476 482.382 60.4586 483.446 59.5752C483.685 59.3765 483.717 59.0244 483.522 58.7854Z" fill="white"/>
<path d="M214.473 142.052V173.464C214.473 175.226 215.91 176.664 217.671 176.664H228.33V138.854H217.671C215.91 138.854 214.473 140.292 214.473 142.052Z" fill="white"/>
<path d="M229.941 146.475H245.802V138.853H229.941V146.475Z" fill="white"/>
<path d="M229.941 176.664H245.802V148.091H229.941V176.664Z" fill="white"/>
<path d="M258.078 138.854H247.418V176.664H258.078C259.838 176.664 261.276 175.226 261.276 173.464V142.052C261.276 140.292 259.838 138.854 258.078 138.854Z" fill="white"/>
<path d="M130.561 341.467H256.944C259.973 341.467 262.426 339.012 262.426 335.984V305.282C262.426 302.254 259.973 299.799 256.944 299.799H130.561C127.533 299.799 125.078 302.254 125.078 305.282V335.984C125.078 339.012 127.533 341.467 130.561 341.467Z" fill="white"/>
<path d="M95.2269 148.206C93.0465 148.206 91.2706 146.445 91.2706 144.249C91.2706 142.068 93.0465 140.292 95.2269 140.292C97.4231 140.292 99.1839 142.068 99.1839 144.249C99.1839 146.445 97.4231 148.206 95.2269 148.206ZM71.7923 142.633C77.4452 142.633 82.0482 147.236 82.0482 152.889C82.0482 157.993 78.2849 162.223 73.4074 163V165.503C73.4074 166.39 72.6806 167.118 71.7923 167.118C70.9034 167.118 70.1772 166.39 70.1772 165.503V163C65.2833 162.223 61.5365 157.993 61.5365 152.889C61.5365 151.985 62.2633 151.274 63.1516 151.274C64.0392 151.274 64.7667 151.985 64.7667 152.889C64.7667 156.749 67.9161 159.915 71.7923 159.915C75.6686 159.915 78.818 156.749 78.818 152.889C78.818 149.013 75.6686 145.864 71.7923 145.864C66.1395 145.864 61.5365 141.261 61.5365 135.608C61.5365 130.504 65.2833 126.273 70.1772 125.497V122.992C70.1772 122.089 70.9034 121.377 71.7923 121.377C72.6806 121.377 73.4074 122.089 73.4074 122.992V125.497C78.2849 126.273 82.0482 130.504 82.0482 135.608C82.0482 136.496 81.3214 137.223 80.4331 137.223C79.5283 137.223 78.818 136.496 78.818 135.608C78.818 131.732 75.6686 128.582 71.7923 128.582C67.9161 128.582 64.7667 131.732 64.7667 135.608C64.7667 139.484 67.9161 142.633 71.7923 142.633ZM48.357 148.206C46.1759 148.206 44.4 146.445 44.4 144.249C44.4 142.068 46.1759 140.292 48.357 140.292C50.5538 140.292 52.3139 142.068 52.3139 144.249C52.3139 146.445 50.5538 148.206 48.357 148.206ZM112.17 144.232C112.17 121.928 94.0807 103.855 71.7759 103.855C49.4712 103.855 31.3984 121.928 31.3984 144.232C31.3984 166.537 49.4712 184.626 71.7759 184.626C94.0807 184.626 112.17 166.537 112.17 144.232Z" fill="white"/>
<path d="M354.226 147.968H386.829C387.275 147.968 387.637 147.608 387.637 147.161C387.637 146.715 387.275 146.353 386.829 146.353H354.226C353.78 146.353 353.418 146.715 353.418 147.161C353.418 147.608 353.78 147.968 354.226 147.968Z" fill="white"/>
<path d="M344.495 159.327H386.828C387.274 159.327 387.636 158.966 387.636 158.519C387.636 158.073 387.274 157.712 386.828 157.712H344.495C344.049 157.712 343.688 158.073 343.688 158.519C343.688 158.966 344.049 159.327 344.495 159.327Z" fill="white"/>
<path d="M386.828 169.072H367.487C367.041 169.072 366.68 169.433 366.68 169.88C366.68 170.326 367.041 170.688 367.487 170.688H386.828C387.274 170.688 387.636 170.326 387.636 169.88C387.636 169.433 387.274 169.072 386.828 169.072Z" fill="white"/>
<path d="M505.455 163.655C505.255 163.256 504.765 163.095 504.371 163.293C503.972 163.495 503.812 163.978 504.011 164.377L505.692 167.736C505.898 168.143 506.389 168.294 506.776 168.098C507.175 167.898 507.335 167.413 507.136 167.014L505.455 163.655Z" fill="white"/>
<path d="M451.644 153.259C452.065 153.348 452.505 153.07 452.592 152.623L453.64 147.317C453.727 146.879 453.443 146.456 453.005 146.369C452.568 146.274 452.141 146.566 452.057 147.005L451.007 152.311C450.922 152.747 451.204 153.172 451.644 153.259Z" fill="white"/>
<path d="M402.44 29.1016C402.621 29.1016 402.805 29.0386 402.954 28.9158C405.428 26.8695 408.111 25.1058 410.929 23.6732C411.326 23.4713 411.486 22.9852 411.283 22.5879C411.082 22.1906 410.593 22.0339 410.197 22.2358C407.272 23.7217 404.491 25.5499 401.926 27.6706C401.582 27.9564 401.534 28.4636 401.817 28.8076C401.978 29.0014 402.207 29.1016 402.44 29.1016Z" fill="white"/>
<path d="M435.337 60.9555C437.877 61.5692 440.105 59.334 439.492 56.795C439.207 55.6015 438.228 54.6227 437.034 54.3368C434.494 53.7247 432.258 55.9503 432.872 58.4925C433.161 59.6877 434.14 60.668 435.337 60.9555Z" fill="white"/>
<path d="M354.227 47.4292C356.113 47.4292 357.638 45.8997 357.638 44.0149C357.638 42.13 356.113 40.6038 354.227 40.6038C352.342 40.6038 350.812 42.13 350.812 44.0149C350.812 45.8997 352.342 47.4292 354.227 47.4292Z" fill="white"/>
<path d="M349.514 92.3633C349.696 92.3633 349.879 92.3019 350.029 92.1791C352.504 90.1328 355.185 88.3691 358.001 86.9382C358.399 86.7363 358.559 86.2501 358.355 85.8528C358.155 85.4555 357.667 85.2972 357.27 85.4991C354.348 86.9834 351.565 88.8117 349 90.9339C348.656 91.2182 348.608 91.7269 348.892 92.0709C349.052 92.2648 349.283 92.3633 349.514 92.3633Z" fill="white"/>
<path d="M4.38416 282.358C6.19097 281.823 7.2206 279.922 6.68681 278.115C6.15189 276.308 4.25673 275.277 2.44912 275.812C0.641018 276.346 -0.393613 278.242 0.140661 280.051C0.675097 281.859 2.5759 282.891 4.38416 282.358Z" fill="white"/>
<path d="M16.8988 226.324L23.6576 228.7C24.0651 228.845 24.5371 228.635 24.6879 228.206C24.8362 227.784 24.6154 227.324 24.1938 227.175L17.4351 224.801C17.0162 224.649 16.5525 224.875 16.4055 225.294C16.2573 225.715 16.478 226.175 16.8988 226.324Z" fill="white"/>
<path d="M64.1336 215.843C65.941 215.31 66.97 213.409 66.4364 211.601C65.9013 209.794 64.0068 208.764 62.198 209.297C60.3904 209.831 59.3564 211.729 59.8907 213.536C60.4245 215.343 62.326 216.377 64.1336 215.843Z" fill="white"/>
<path d="M84.2747 9.7071C84.5378 10.0673 85.0445 10.1448 85.4029 9.88154C85.7637 9.61828 85.8414 9.11438 85.5776 8.75421C83.6818 6.16198 82.0805 3.38075 80.8218 0.484883C80.644 0.0746489 80.1664 -0.107834 79.7588 0.0649815C79.3506 0.244258 79.1633 0.719069 79.34 1.12769C80.6471 4.135 82.3084 7.0212 84.2747 9.7071Z" fill="white"/>
<path d="M37.6656 30.2383C39.5501 30.2383 41.0757 28.7072 41.0757 26.8208C41.0757 24.9359 39.5501 23.4113 37.6656 23.4113C35.7798 23.4113 34.25 24.9359 34.25 26.8208C34.25 28.7072 35.7798 30.2383 37.6656 30.2383Z" fill="white"/>
<path d="M26.0331 71.5733C28.5074 69.527 31.1888 67.7633 34.0057 66.3323C34.4032 66.1304 34.5621 65.6443 34.3589 65.2469C34.1583 64.8496 33.6701 64.693 33.2739 64.8949C30.3515 66.3791 27.5685 68.2075 25.0041 70.3281C24.6609 70.6123 24.6116 71.1211 24.8956 71.4651C25.1819 71.8107 25.6892 71.856 26.0331 71.5733Z" fill="white"/>
<path d="M387.641 275.995C385.14 275.385 382.938 277.61 383.542 280.153C383.827 281.348 384.792 282.33 385.97 282.616C388.473 283.229 390.666 280.994 390.064 278.455C389.781 277.262 388.817 276.283 387.641 275.995Z" fill="white"/>
<path d="M557.169 74.9814C559.672 75.5935 561.866 73.3582 561.263 70.8177C560.981 69.6241 560.016 68.647 558.841 68.3595C556.339 67.7474 554.137 69.973 554.742 72.5151C555.026 73.7119 555.992 74.6923 557.169 74.9814Z" fill="white"/>
<path d="M565.089 169.345C564.889 168.946 564.401 168.791 564.004 168.992C561.076 170.481 558.293 172.309 555.733 174.428C555.391 174.712 555.342 175.221 555.628 175.565C555.911 175.907 556.418 175.956 556.765 175.672C559.231 173.629 561.912 171.865 564.736 170.429C565.133 170.227 565.293 169.743 565.089 169.345Z" fill="white"/>
</svg>
