<svg width="26" height="50" viewBox="0 0 26 50" fill="none" xmlns="http://www.w3.org/2000/svg">
<path d="M25.8349 32.8425C25.8349 35.6104 24.9326 37.9938 23.1279 39.9928C21.3233 41.9918 18.9791 43.2265 16.0953 43.6969V48.4456C16.0953 48.6989 16.0136 48.9069 15.8504 49.0698C15.6872 49.2326 15.4786 49.314 15.2247 49.314H11.5519C11.3161 49.314 11.1121 49.228 10.9398 49.0562C10.7675 48.8843 10.6813 48.6808 10.6813 48.4456V43.6969C9.48429 43.534 8.32805 43.2536 7.21262 42.8556C6.09719 42.4576 5.17673 42.0551 4.45125 41.6481C3.72577 41.2411 3.05469 40.8069 2.43803 40.3456C1.82137 39.8843 1.39969 39.5451 1.17297 39.328C0.946258 39.1109 0.787558 38.9481 0.696873 38.8395C0.388542 38.4596 0.370405 38.0888 0.642462 37.727L3.44464 34.0636C3.5716 33.8827 3.78018 33.7742 4.07037 33.738C4.34243 33.7018 4.56007 33.7832 4.72331 33.9822L4.77772 34.0365C6.82721 35.8275 9.03087 36.9581 11.3887 37.4285C12.0598 37.5732 12.7308 37.6456 13.4019 37.6456C14.871 37.6456 16.1633 37.2566 17.2787 36.4787C18.3941 35.7008 18.9519 34.5973 18.9519 33.1681C18.9519 32.6616 18.8158 32.1822 18.5438 31.7299C18.2717 31.2777 17.9679 30.8978 17.6324 30.5902C17.2968 30.2827 16.7663 29.9435 16.0409 29.5726C15.3154 29.2018 14.7168 28.9123 14.2453 28.7043C13.7737 28.4963 13.0482 28.2023 12.0688 27.8224C11.3615 27.5329 10.8038 27.3068 10.3957 27.144C9.9876 26.9812 9.42988 26.7415 8.72254 26.4249C8.01519 26.1083 7.44841 25.8279 7.02218 25.5837C6.59596 25.3394 6.08359 25.0183 5.48507 24.6203C4.88654 24.2224 4.40137 23.8379 4.02956 23.4671C3.65775 23.0962 3.26327 22.653 2.84612 22.1374C2.42897 21.6218 2.10703 21.0972 1.88032 20.5635C1.6536 20.0299 1.46317 19.4284 1.309 18.759C1.15483 18.0897 1.07775 17.3841 1.07775 16.6424C1.07775 14.1459 1.96647 11.9569 3.7439 10.0755C5.52134 8.19411 7.83382 6.98204 10.6813 6.43932V1.55487C10.6813 1.31969 10.7675 1.11617 10.9398 0.944314C11.1121 0.772454 11.3161 0.686523 11.5519 0.686523H15.2247C15.4786 0.686523 15.6872 0.767931 15.8504 0.930746C16.0136 1.09356 16.0953 1.3016 16.0953 1.55487V6.33078C17.1291 6.43932 18.1312 6.64737 19.1015 6.95491C20.0718 7.26245 20.8608 7.56546 21.4684 7.86396C22.076 8.16245 22.6518 8.50165 23.1959 8.88155C23.74 9.26145 24.0937 9.52377 24.257 9.66849C24.4202 9.81322 24.5562 9.93985 24.665 10.0484C24.9734 10.374 25.0187 10.7177 24.8011 11.0796L22.5974 15.0414C22.4523 15.3127 22.2437 15.4575 21.9717 15.4756C21.7178 15.5298 21.4729 15.4665 21.2371 15.2856C21.1827 15.2313 21.0512 15.1228 20.8426 14.96C20.6341 14.7972 20.2804 14.5575 19.7816 14.2409C19.2829 13.9243 18.7523 13.6348 18.1901 13.3725C17.6278 13.1102 16.9522 12.875 16.1633 12.667C15.3743 12.459 14.599 12.3549 13.8372 12.3549C12.1142 12.3549 10.7085 12.7439 9.62032 13.5218C8.5321 14.2997 7.98798 15.3037 7.98798 16.5339C7.98798 17.0042 8.06507 17.4384 8.21923 17.8364C8.3734 18.2344 8.64092 18.6098 9.0218 18.9625C9.40268 19.3153 9.76089 19.6138 10.0964 19.858C10.432 20.1022 10.9398 20.3826 11.6199 20.6992C12.3001 21.0158 12.8487 21.26 13.2659 21.4319C13.683 21.6037 14.3178 21.8525 15.1703 22.1781C16.1315 22.5399 16.8661 22.8249 17.3739 23.0329C17.8818 23.2409 18.571 23.5575 19.4416 23.9827C20.3121 24.4078 20.9968 24.7922 21.4956 25.1359C21.9944 25.4796 22.5566 25.9319 23.1823 26.4927C23.8081 27.0535 24.2887 27.6279 24.6242 28.2158C24.9598 28.8038 25.2454 29.4958 25.4812 30.2917C25.717 31.0877 25.8349 31.938 25.8349 32.8425Z" fill="white"/>
</svg>
