<svg width="16" height="24" viewBox="0 0 16 24" fill="none" xmlns="http://www.w3.org/2000/svg">
<path d="M15.4286 16.2857C15.4272 17.6493 14.8849 18.9565 13.9207 19.9207C12.9565 20.8849 11.6493 21.4272 10.2857 21.4286H8.57143V23.1429C8.57143 23.3702 8.48112 23.5882 8.32038 23.7489C8.15963 23.9097 7.94161 24 7.71429 24C7.48696 24 7.26894 23.9097 7.10819 23.7489C6.94745 23.5882 6.85714 23.3702 6.85714 23.1429V21.4286H5.14286C3.77932 21.4272 2.47204 20.8849 1.50787 19.9207C0.543709 18.9565 0.00141813 17.6493 0 16.2857C0 16.0584 0.090306 15.8404 0.251051 15.6796C0.411797 15.5189 0.629814 15.4286 0.857143 15.4286C1.08447 15.4286 1.30249 15.5189 1.46323 15.6796C1.62398 15.8404 1.71429 16.0584 1.71429 16.2857C1.71429 17.195 2.07551 18.0671 2.71849 18.7101C3.36147 19.3531 4.23354 19.7143 5.14286 19.7143H10.2857C11.195 19.7143 12.0671 19.3531 12.7101 18.7101C13.3531 18.0671 13.7143 17.195 13.7143 16.2857C13.7143 15.3764 13.3531 14.5043 12.7101 13.8613C12.0671 13.2184 11.195 12.8571 10.2857 12.8571H6C4.63603 12.8571 3.32792 12.3153 2.36345 11.3508C1.39898 10.3864 0.857143 9.07826 0.857143 7.71429C0.857143 6.35032 1.39898 5.04221 2.36345 4.07774C3.32792 3.11326 4.63603 2.57143 6 2.57143H6.85714V0.857143C6.85714 0.629814 6.94745 0.411797 7.10819 0.251051C7.26894 0.0903058 7.48696 0 7.71429 0C7.94161 0 8.15963 0.0903058 8.32038 0.251051C8.48112 0.411797 8.57143 0.629814 8.57143 0.857143V2.57143H9.42857C10.7921 2.57285 12.0994 3.11514 13.0636 4.0793C14.0277 5.04347 14.57 6.35075 14.5714 7.71429C14.5714 7.94161 14.4811 8.15963 14.3204 8.32038C14.1596 8.48112 13.9416 8.57143 13.7143 8.57143C13.487 8.57143 13.2689 8.48112 13.1082 8.32038C12.9474 8.15963 12.8571 7.94161 12.8571 7.71429C12.8571 6.80497 12.4959 5.9329 11.8529 5.28992C11.21 4.64694 10.3379 4.28571 9.42857 4.28571H6C5.09069 4.28571 4.21862 4.64694 3.57563 5.28992C2.93265 5.9329 2.57143 6.80497 2.57143 7.71429C2.57143 8.6236 2.93265 9.49567 3.57563 10.1387C4.21862 10.7816 5.09069 11.1429 6 11.1429H10.2857C11.6493 11.1443 12.9565 11.6866 13.9207 12.6507C14.8849 13.6149 15.4272 14.9222 15.4286 16.2857Z" fill="#A5A8B5"/>
</svg>