<svg width="52" height="52" viewBox="0 0 52 52" fill="none" xmlns="http://www.w3.org/2000/svg">
<path d="M25.9946 0.166504L26.2994 0.184587L26.4519 0.205254L26.6094 0.238838L26.8962 0.326671C27.0942 0.399684 27.2825 0.496863 27.4568 0.616004L27.7254 0.827837L28.3842 1.391C33.5956 5.71955 40.1819 8.04387 46.9558 7.94492L47.8393 7.91909C48.4169 7.89274 48.9866 8.06093 49.4573 8.39674C49.9281 8.73256 50.2725 9.21658 50.4355 9.77134C51.705 14.0896 52.0934 18.6189 51.5778 23.0903C51.0622 27.5616 49.653 31.8837 47.4341 35.7997C45.2151 39.7156 42.2316 43.1456 38.6608 45.8858C35.0901 48.6259 31.005 50.6203 26.6482 51.7505C26.2229 51.8608 25.7766 51.8608 25.3514 51.7505C20.9944 50.6206 16.9089 48.6264 13.3379 45.8864C9.76687 43.1463 6.78308 39.7164 4.56385 35.8004C2.34462 31.8844 0.935235 27.5622 0.419457 23.0908C-0.0963206 18.6193 0.292031 14.0898 1.56143 9.77134C1.72447 9.21658 2.0689 8.73256 2.53961 8.39674C3.01031 8.06093 3.58007 7.89274 4.15768 7.91909C11.2295 8.24235 18.1673 5.91439 23.6128 1.391L24.2922 0.809754L24.5402 0.616004C24.7144 0.496863 24.9027 0.399684 25.1008 0.326671L25.3901 0.238838C25.4913 0.214383 25.594 0.196264 25.6975 0.184587L25.9946 0.166504ZM35.5788 19.0068C35.3388 18.7666 35.0539 18.576 34.7403 18.446C34.4267 18.316 34.0905 18.2491 33.7511 18.2491C33.4116 18.2491 33.0754 18.316 32.7618 18.446C32.4482 18.576 32.1633 18.7666 31.9234 19.0068L23.4164 27.5111L20.0762 24.1734L19.8334 23.959C19.3141 23.5575 18.6615 23.3687 18.0082 23.431C17.3548 23.4932 16.7496 23.8018 16.3155 24.2941C15.8814 24.7864 15.651 25.4255 15.671 26.0815C15.691 26.7376 15.96 27.3614 16.4234 27.8263L21.59 32.9929L21.8329 33.2073C22.3299 33.5929 22.9505 33.7839 23.5784 33.7444C24.2062 33.7049 24.798 33.4377 25.2429 32.9929L35.5762 22.6596L35.7906 22.4168C36.1762 21.9197 36.3671 21.2991 36.3276 20.6712C36.2882 20.0434 36.021 19.4516 35.5762 19.0068H35.5788Z" fill="white"/>
</svg>
