<svg width="78" height="106" viewBox="0 0 78 106" fill="none" xmlns="http://www.w3.org/2000/svg">
<path d="M31.9754 0.0117738C26.6754 0.14604 21.3366 1.56643 16.4288 4.40015C0.726745 13.4737 -4.66509 33.6242 4.40139 49.3403C11.7153 62.0249 26.2373 67.968 39.8228 65.0283L45.5468 74.9357C45.7816 75.3389 46.1665 75.6329 46.6173 75.7533C47.0681 75.8738 47.5483 75.811 47.953 75.5787L48.5325 75.2466L51.8255 80.9529L59.8284 94.8317L64.1356 102.305C65.1204 104.001 66.7363 105.238 68.6304 105.746C70.5244 106.255 72.5426 105.993 74.2444 105.018C75.9397 104.03 77.1756 102.412 77.6827 100.516C78.1897 98.6206 77.9266 96.6014 76.9509 94.8989L61.3407 67.8408L61.9202 67.5086C62.1214 67.3929 62.2978 67.2387 62.4394 67.0548C62.581 66.8708 62.6849 66.6608 62.7453 66.4367C62.8057 66.2126 62.8213 65.9788 62.7913 65.7486C62.7612 65.5185 62.6862 65.2965 62.5703 65.0954L56.917 55.301C66.4923 45.0014 68.7253 29.2535 61.3336 16.4417C58.3727 11.3135 54.0821 7.07997 48.9146 4.18811C43.7472 1.29624 37.8948 -0.146652 31.9754 0.0117738ZM32.0814 3.52389C37.3652 3.38185 42.5891 4.67173 47.1996 7.25687C51.81 9.84201 55.6353 13.6261 58.2703 18.2083C60.2005 21.5468 61.4538 25.233 61.9586 29.0561C62.4634 32.8793 62.2098 36.7644 61.2123 40.4895C60.2147 44.2146 58.4928 47.7065 56.1449 50.7657C53.7971 53.8249 50.8693 56.3914 47.529 58.3185C44.1937 60.2495 40.5102 61.5035 36.6895 62.0085C32.8689 62.5135 28.9861 62.2597 25.2636 61.2615C21.5412 60.2634 18.0523 58.5406 14.9968 56.1918C11.9414 53.843 9.37939 50.9143 7.4577 47.5737C5.52748 44.2352 4.27415 40.549 3.76934 36.7259C3.26453 32.9028 3.51815 29.0176 4.51571 25.2925C5.51326 21.5675 7.23518 18.0755 9.58304 15.0163C11.9309 11.9571 14.8587 9.3906 18.199 7.46353C22.4243 5.01036 27.1973 3.65584 32.0814 3.52389ZM32.1768 7.3328C27.9245 7.43906 23.767 8.61146 20.0858 10.7424C7.8817 17.7949 3.69119 33.4687 10.7366 45.6834C14.1278 51.5496 19.7092 55.8294 26.2544 57.5825C32.7995 59.3356 39.7729 58.4184 45.6422 55.0325C51.5075 51.6351 55.7862 46.0505 57.5401 39.5031C59.294 32.9558 58.3799 25.9802 54.9984 20.1057C52.6966 16.1194 49.3612 12.8285 45.3444 10.5804C41.3275 8.33222 36.7783 7.21022 32.1768 7.3328ZM32.2827 10.8449C36.2496 10.739 40.1712 11.708 43.6322 13.6493C47.0931 15.5907 49.9645 18.432 51.9421 21.8724C53.3915 24.3781 54.3326 27.145 54.7115 30.0147C55.0905 32.8845 54.8999 35.8008 54.1507 38.5969C53.4015 41.3929 52.1083 44.0138 50.3452 46.3095C48.5821 48.6053 46.3836 50.5309 43.8755 51.9762C41.3724 53.4272 38.6074 54.3699 35.7391 54.7501C32.8709 55.1303 29.9558 54.9406 27.161 54.1918C24.3663 53.4431 21.7468 52.15 19.4528 50.3868C17.1588 48.6235 15.2354 46.4248 13.7929 43.9167C12.3431 41.4109 11.4015 38.6439 11.0219 35.7738C10.6423 32.9038 10.8322 29.9871 11.5807 27.1905C12.3293 24.394 13.6217 21.7724 15.3842 19.4757C17.1467 17.1791 19.3447 15.2524 21.8524 13.8058C25.0261 11.9633 28.6144 10.9453 32.2827 10.8449ZM54.2812 57.8132L58.6236 65.3392L47.7198 71.6355L43.3491 64.0601C45.4165 63.3644 47.4097 62.4649 49.2992 61.3748C51.1012 60.3325 52.7548 59.1276 54.2812 57.8132ZM58.2844 69.6074L73.8946 96.6655C74.1545 97.1039 74.3243 97.5898 74.3939 98.0947C74.4635 98.5997 74.4316 99.1134 74.2999 99.6058C74.1683 100.098 73.9396 100.559 73.6273 100.962C73.315 101.365 72.9253 101.701 72.4812 101.951C72.0434 102.212 71.5577 102.383 71.0528 102.453C70.548 102.523 70.0342 102.491 69.5418 102.359C69.0495 102.228 68.5885 101.999 68.1861 101.686C67.7837 101.373 67.448 100.983 67.1989 100.538L62.8883 93.0651L54.8818 79.1862L51.5888 73.4799L58.2844 69.6074Z" fill="#F3F4F6"/>
</svg>
