<svg width="70" height="65" viewBox="0 0 70 65" fill="none" xmlns="http://www.w3.org/2000/svg">
<path d="M5.70648 54.9577H26.1532L22.3469 61.5106H19.431C19.0538 61.5106 18.692 61.6604 18.4252 61.9272C18.1585 62.1939 18.0086 62.5557 18.0086 62.933C18.0086 63.3102 18.1585 63.672 18.4252 63.9387C18.692 64.2055 19.0538 64.3553 19.431 64.3553H50.5584C50.9356 64.3553 51.2974 64.2055 51.5641 63.9387C51.8309 63.672 51.9807 63.3102 51.9807 62.933C51.9807 62.5557 51.8309 62.1939 51.5641 61.9272C51.2974 61.6604 50.9356 61.5106 50.5584 61.5106H47.6425L43.8362 54.9577H64.2843C65.5681 54.9562 66.7989 54.4456 67.7068 53.538C68.6147 52.6303 69.1256 51.3997 69.1275 50.1159V43.4165C69.1275 43.3994 69.1375 43.3852 69.1375 43.3681C69.1375 43.3511 69.1289 43.3368 69.1275 43.3198V5.35647C69.1256 4.07281 68.6147 2.84231 67.7067 1.93489C66.7988 1.02748 65.568 0.517242 64.2843 0.516113H5.70648C4.42258 0.517243 3.19156 1.02767 2.28357 1.9354C1.37558 2.84312 0.864788 4.07399 0.863281 5.35789V50.1159C0.865163 51.3997 1.37608 52.6303 2.28399 53.538C3.1919 54.4456 4.42269 54.9562 5.70648 54.9577ZM44.3525 61.5106H25.6383L29.4446 54.9577H40.5477L44.3554 61.5106H44.3525ZM64.2843 52.1129H41.4039L41.3613 52.1087H28.6281L28.5854 52.1129H5.70648C4.60414 52.1129 3.70804 51.2168 3.70804 50.1159V44.7905H66.2828V50.1159C66.2828 51.2168 65.3867 52.1129 64.2843 52.1129ZM5.70648 3.36229H64.2843C65.3867 3.36229 66.2828 4.25839 66.2828 5.35931V41.9472H3.70804V5.35789C3.70804 4.25555 4.60414 3.36229 5.70648 3.36229Z" fill="white"/>
<path d="M29.7714 50.0008C30.5954 50.0008 31.2634 49.3327 31.2634 48.5087C31.2634 47.6846 30.5954 47.0166 29.7714 47.0166C28.9473 47.0166 28.2793 47.6846 28.2793 48.5087C28.2793 49.3327 28.9473 50.0008 29.7714 50.0008Z" fill="white"/>
<path d="M34.996 50.0008C35.82 50.0008 36.4881 49.3327 36.4881 48.5087C36.4881 47.6846 35.82 47.0166 34.996 47.0166C34.1719 47.0166 33.5039 47.6846 33.5039 48.5087C33.5039 49.3327 34.1719 50.0008 34.996 50.0008Z" fill="white"/>
<path d="M40.2186 50.0008C41.0427 50.0008 41.7107 49.3327 41.7107 48.5087C41.7107 47.6846 41.0427 47.0166 40.2186 47.0166C39.3946 47.0166 38.7266 47.6846 38.7266 48.5087C38.7266 49.3327 39.3946 50.0008 40.2186 50.0008Z" fill="white"/>
<path d="M9.39142 25.9708H23.931C25.1969 25.9708 26.2267 24.941 26.2267 23.6751V9.13556C26.2267 7.86965 25.1969 6.83984 23.931 6.83984H9.39142C8.12551 6.83984 7.0957 7.86965 7.0957 9.13556V23.6751C7.0957 24.941 8.12551 25.9708 9.39142 25.9708ZM9.94046 9.6846H23.3819V23.1261H9.94046V9.6846ZM8.51808 31.7329H60.9683C61.3455 31.7329 61.7073 31.583 61.9741 31.3163C62.2408 31.0495 62.3907 30.6878 62.3907 30.3105C62.3907 29.9333 62.2408 29.5715 61.9741 29.3047C61.7073 29.038 61.3455 28.8881 60.9683 28.8881H8.51808C8.14084 28.8881 7.77906 29.038 7.51231 29.3047C7.24556 29.5715 7.0957 29.9333 7.0957 30.3105C7.0957 30.6878 7.24556 31.0495 7.51231 31.3163C7.77906 31.583 8.14084 31.7329 8.51808 31.7329ZM8.51808 38.2047H60.9683C61.3455 38.2047 61.7073 38.0549 61.9741 37.7881C62.2408 37.5214 62.3907 37.1596 62.3907 36.7823C62.3907 36.4051 62.2408 36.0433 61.9741 35.7766C61.7073 35.5098 61.3455 35.36 60.9683 35.36H8.51808C8.14084 35.36 7.77906 35.5098 7.51231 35.7766C7.24556 36.0433 7.0957 36.4051 7.0957 36.7823C7.0957 37.1596 7.24556 37.5214 7.51231 37.7881C7.77906 38.0549 8.14084 38.2047 8.51808 38.2047ZM31.6957 9.6846H44.2696C44.6468 9.6846 45.0086 9.53474 45.2754 9.268C45.5421 9.00125 45.692 8.63946 45.692 8.26222C45.692 7.88498 45.5421 7.5232 45.2754 7.25645C45.0086 6.9897 44.6468 6.83984 44.2696 6.83984H31.6957C31.3185 6.83984 30.9567 6.9897 30.69 7.25645C30.4232 7.5232 30.2734 7.88498 30.2734 8.26222C30.2734 8.63946 30.4232 9.00125 30.69 9.268C30.9567 9.53474 31.3185 9.6846 31.6957 9.6846ZM31.6957 16.842H44.2696C44.6468 16.842 45.0086 16.6922 45.2754 16.4254C45.5421 16.1587 45.692 15.7969 45.692 15.4196C45.692 15.0424 45.5421 14.6806 45.2754 14.4139C45.0086 14.1471 44.6468 13.9973 44.2696 13.9973H31.6957C31.3185 13.9973 30.9567 14.1471 30.69 14.4139C30.4232 14.6806 30.2734 15.0424 30.2734 15.4196C30.2734 15.7969 30.4232 16.1587 30.69 16.4254C30.9567 16.6922 31.3185 16.842 31.6957 16.842ZM31.6957 24.6182H44.2696C44.6468 24.6182 45.0086 24.4683 45.2754 24.2016C45.5421 23.9348 45.692 23.573 45.692 23.1958C45.692 22.8185 45.5421 22.4568 45.2754 22.19C45.0086 21.9233 44.6468 21.7734 44.2696 21.7734H31.6957C31.3185 21.7734 30.9567 21.9233 30.69 22.19C30.4232 22.4568 30.2734 22.8185 30.2734 23.1958C30.2734 23.573 30.4232 23.9348 30.69 24.2016C30.9567 24.4683 31.3185 24.6182 31.6957 24.6182Z" fill="white"/>
</svg>
