<svg width="42" height="40" viewBox="0 0 42 40" fill="none" xmlns="http://www.w3.org/2000/svg">
<path d="M2.97938 33.4906H15.5575L13.216 37.5218H11.4222C11.1902 37.5218 10.9676 37.6139 10.8035 37.778C10.6394 37.9421 10.5472 38.1647 10.5472 38.3968C10.5472 38.6288 10.6394 38.8514 10.8035 39.0155C10.9676 39.1796 11.1902 39.2718 11.4222 39.2718H30.5707C30.8028 39.2718 31.0254 39.1796 31.1895 39.0155C31.3536 38.8514 31.4457 38.6288 31.4457 38.3968C31.4457 38.1647 31.3536 37.9421 31.1895 37.778C31.0254 37.6139 30.8028 37.5218 30.5707 37.5218H28.777L26.4355 33.4906H39.0145C39.8042 33.4897 40.5614 33.1756 41.1199 32.6173C41.6784 32.0589 41.9927 31.3019 41.9939 30.5121V26.3909C41.9939 26.3804 42 26.3716 42 26.3611C42 26.3506 41.9948 26.3419 41.9939 26.3314V2.97763C41.9927 2.18796 41.6784 1.431 41.1199 0.872787C40.5613 0.314575 39.8042 0.000694277 39.0145 0H2.97938C2.18956 0.000694716 1.43228 0.314695 0.873715 0.873097C0.31515 1.4315 0.000926707 2.18869 0 2.9785V30.5121C0.00115778 31.3019 0.315455 32.0589 0.873971 32.6173C1.43249 33.1756 2.18963 33.4897 2.97938 33.4906ZM26.7531 37.5218H15.2407L17.5823 33.4906H24.4125L26.7549 37.5218H26.7531ZM39.0145 31.7406H24.9393L24.913 31.738H17.08L17.0537 31.7406H2.97938C2.30125 31.7406 1.75 31.1894 1.75 30.5121V27.2361H40.2439V30.5121C40.2439 31.1894 39.6926 31.7406 39.0145 31.7406ZM2.97938 1.75088H39.0145C39.6926 1.75088 40.2439 2.30213 40.2439 2.97938V25.487H1.75V2.9785C1.75 2.30037 2.30125 1.75088 2.97938 1.75088Z" fill="#0D99FF"/>
<path d="M17.7831 30.4412C18.29 30.4412 18.701 30.0303 18.701 29.5233C18.701 29.0164 18.29 28.6055 17.7831 28.6055C17.2762 28.6055 16.8652 29.0164 16.8652 29.5233C16.8652 30.0303 17.2762 30.4412 17.7831 30.4412Z" fill="#0D99FF"/>
<path d="M20.997 30.4412C21.5039 30.4412 21.9149 30.0303 21.9149 29.5233C21.9149 29.0164 21.5039 28.6055 20.997 28.6055C20.49 28.6055 20.0791 29.0164 20.0791 29.5233C20.0791 30.0303 20.49 30.4412 20.997 30.4412Z" fill="#0D99FF"/>
<path d="M24.2108 30.4412C24.7178 30.4412 25.1287 30.0303 25.1287 29.5233C25.1287 29.0164 24.7178 28.6055 24.2108 28.6055C23.7039 28.6055 23.293 29.0164 23.293 29.5233C23.293 30.0303 23.7039 30.4412 24.2108 30.4412Z" fill="#0D99FF"/>
<path d="M5.24623 15.6589H14.1905C14.9692 15.6589 15.6027 15.0254 15.6027 14.2466V5.30239C15.6027 4.52364 14.9692 3.89014 14.1905 3.89014H5.24623C4.46748 3.89014 3.83398 4.52364 3.83398 5.30239V14.2466C3.83398 15.0254 4.46748 15.6589 5.24623 15.6589ZM5.58398 5.64014H13.8527V13.9089H5.58398V5.64014ZM4.70898 19.2035H36.9746C37.2067 19.2035 37.4292 19.1113 37.5933 18.9472C37.7574 18.7831 37.8496 18.5606 37.8496 18.3285C37.8496 18.0964 37.7574 17.8739 37.5933 17.7098C37.4292 17.5457 37.2067 17.4535 36.9746 17.4535H4.70898C4.47692 17.4535 4.25436 17.5457 4.09027 17.7098C3.92617 17.8739 3.83398 18.0964 3.83398 18.3285C3.83398 18.5606 3.92617 18.7831 4.09027 18.9472C4.25436 19.1113 4.47692 19.2035 4.70898 19.2035ZM4.70898 23.1848H36.9746C37.2067 23.1848 37.4292 23.0926 37.5933 22.9285C37.7574 22.7644 37.8496 22.5418 37.8496 22.3098C37.8496 22.0777 37.7574 21.8551 37.5933 21.691C37.4292 21.527 37.2067 21.4348 36.9746 21.4348H4.70898C4.47692 21.4348 4.25436 21.527 4.09027 21.691C3.92617 21.8551 3.83398 22.0777 3.83398 22.3098C3.83398 22.5418 3.92617 22.7644 4.09027 22.9285C4.25436 23.0926 4.47692 23.1848 4.70898 23.1848ZM18.9671 5.64014H26.7021C26.9342 5.64014 27.1567 5.54795 27.3208 5.38385C27.4849 5.21976 27.5771 4.9972 27.5771 4.76514C27.5771 4.53307 27.4849 4.31051 27.3208 4.14642C27.1567 3.98232 26.9342 3.89014 26.7021 3.89014H18.9671C18.735 3.89014 18.5125 3.98232 18.3484 4.14642C18.1843 4.31051 18.0921 4.53307 18.0921 4.76514C18.0921 4.9972 18.1843 5.21976 18.3484 5.38385C18.5125 5.54795 18.735 5.64014 18.9671 5.64014ZM18.9671 10.0431H26.7021C26.9342 10.0431 27.1567 9.95095 27.3208 9.78686C27.4849 9.62276 27.5771 9.4002 27.5771 9.16814C27.5771 8.93607 27.4849 8.71351 27.3208 8.54942C27.1567 8.38532 26.9342 8.29314 26.7021 8.29314H18.9671C18.735 8.29314 18.5125 8.38532 18.3484 8.54942C18.1843 8.71351 18.0921 8.93607 18.0921 9.16814C18.0921 9.4002 18.1843 9.62276 18.3484 9.78686C18.5125 9.95095 18.735 10.0431 18.9671 10.0431ZM18.9671 14.8268H26.7021C26.9342 14.8268 27.1567 14.7346 27.3208 14.5705C27.4849 14.4064 27.5771 14.1838 27.5771 13.9518C27.5771 13.7197 27.4849 13.4971 27.3208 13.333C27.1567 13.169 26.9342 13.0768 26.7021 13.0768H18.9671C18.735 13.0768 18.5125 13.169 18.3484 13.333C18.1843 13.4971 18.0921 13.7197 18.0921 13.9518C18.0921 14.1838 18.1843 14.4064 18.3484 14.5705C18.5125 14.7346 18.735 14.8268 18.9671 14.8268Z" fill="#0D99FF"/>
</svg>
