<svg width="11" height="19" viewBox="0 0 11 19" fill="none" xmlns="http://www.w3.org/2000/svg">
<path opacity="0.8" d="M0.36876 18.3975C0.85876 18.8875 1.64876 18.8875 2.13876 18.3975L10.4488 10.0875C10.5415 9.99499 10.615 9.8851 10.6652 9.76412C10.7154 9.64315 10.7412 9.51347 10.7412 9.3825C10.7412 9.25153 10.7154 9.12185 10.6652 9.00088C10.615 8.8799 10.5415 8.77001 10.4488 8.6775L2.13876 0.3675C1.64876 -0.1225 0.85876 -0.1225 0.36876 0.3675C-0.12124 0.8575 -0.12124 1.6475 0.36876 2.1375L7.60876 9.3875L0.35876 16.6375C-0.12124 17.1175 -0.12124 17.9175 0.36876 18.3975Z" fill="#000B33"/>
</svg>
