<svg width="444" height="455" viewBox="0 0 444 455" fill="none" xmlns="http://www.w3.org/2000/svg">
<path d="M247.558 192.268C253.765 194.349 260.511 193.316 267.047 192.99C273.585 192.663 280.782 193.329 285.475 197.89C289.323 201.631 290.686 207.363 290.296 212.714C289.906 218.066 287.978 223.169 286.071 228.184C293.349 216.115 296.494 201.604 294.867 187.604C275.827 192.79 255.744 194.121 236.187 191.49" fill="white"/>
<path d="M300.707 147.874C301.263 153.731 298.94 159.567 295.505 164.234C292.071 168.9 287.582 172.581 283.143 176.209C290.216 174.015 297.39 171.776 303.636 167.676C309.883 163.575 315.196 157.308 316.604 149.747C308.512 150.499 301.965 141.289 297.341 134.315" fill="white"/>
<path d="M343.373 105.984C346.042 109.76 351.106 110.796 355.68 111.468C368.435 113.345 381.265 114.713 394.13 115.571C400.001 115.962 406.873 115.816 410.447 111.142C404.603 114.007 397.715 113.278 391.255 112.484C379.07 110.986 366.885 109.488 354.699 107.99C352.023 107.66 349.253 107.301 346.953 105.893C344.653 104.485 342.951 101.72 343.641 99.1127" fill="white"/>
<path d="M283.467 298.457C294.625 298.941 306.135 300.971 316.734 297.449C301.213 298.25 285.549 296.988 270.129 295.284C261.789 294.363 253.471 293.235 245.187 291.894C241.444 291.288 237.707 290.638 233.982 289.929C230.321 289.233 227.055 287.066 226.533 283.01C227.372 289.532 232.567 294.901 238.625 297.459C245.275 300.266 252.548 300.102 259.58 299.372C267.504 298.551 275.503 298.112 283.467 298.457Z" fill="white"/>
<path d="M91.5653 259.473C94.6874 261.018 98.7098 261.239 101.474 259.12C103.034 257.925 104.023 256.144 104.86 254.367C106.012 251.923 106.959 249.38 107.687 246.777C108.166 245.071 108.551 243.272 108.188 241.539C107.826 239.803 106.532 238.152 104.78 237.893C105.828 243.073 106.393 244.931 105.851 246.72C105.432 248.1 104.059 249.303 102.649 249.009C103.169 251.365 101.118 253.932 98.7062 253.946C99.4832 254.695 99.0835 256.122 98.185 256.722C97.2865 257.321 96.1206 257.308 95.0468 257.191C90.1151 256.658 85.8942 254.377 82.249 251.108C84.7739 254.243 87.9264 257.673 91.5653 259.473Z" fill="white"/>
<path d="M136.447 217.689C129.571 197.287 129.459 197.44 129.463 195.457C129.467 193.972 130.04 192.408 131.276 191.586C132.916 190.497 135.255 191.07 136.675 192.435C138.095 193.799 138.771 195.756 139.215 197.674C140.583 203.618 140.125 209.967 137.916 215.653C137.195 217.509 136.272 219.423 136.555 221.395" fill="white"/>
<path d="M66.6492 192.607C67.942 190.281 70.6108 188.493 73.2036 189.091C75.6632 189.656 77.311 192.328 77.0812 194.84C76.8523 197.354 75.0114 199.547 72.7208 200.604C71.6086 201.119 70.3998 201.398 69.2938 201.926C68.1879 202.452 67.1427 203.306 66.8235 204.489C66.5043 205.671 67.2124 207.155 68.4293 207.304C66.9433 206.991 65.6192 205.98 64.9245 204.63C63.9133 202.664 64.692 200.818 65.0434 198.842C65.4296 196.671 65.5486 194.587 66.6492 192.607Z" fill="white"/>
<path d="M56.6676 231.215C58.1714 241.221 69.1149 247.882 79.8402 249.001C79.5666 245.937 76.2085 243.544 73.2223 244.284C72.752 244.401 72.2835 244.583 71.8007 244.549C71.0211 244.496 70.3997 243.906 69.8507 243.35C64.5444 237.988 59.2381 232.625 53.9326 227.262C55.0296 230.045 56.6569 232.618 58.6998 234.804" fill="white"/>
<path d="M134.616 407.966C135.056 408.133 135.525 408.319 135.982 408.214C136.949 407.989 137.168 406.724 137.146 405.732C137.101 403.785 136.907 401.843 136.566 399.925C136.705 400.708 123.398 402.007 122.181 402.047C120.634 402.099 116.546 401.753 119.665 403.662C123.907 406.258 129.841 406.156 134.616 407.966Z" fill="white"/>
<path d="M75.9248 410.07C76.7473 410.04 77.7049 409.885 78.0947 409.161C78.3736 408.644 78.2976 408.509 78.1644 402.436C73.1236 403.523 68.1481 403.381 63.0948 404.002C61.5668 404.19 61.0268 405.444 62.2311 406.694C63.5445 408.058 66.4958 408.731 68.2688 409.202C70.7597 409.865 73.3489 410.166 75.9248 410.07Z" fill="white"/>
<path d="M255.612 365.96C256.054 364.747 256.633 363.536 257.608 362.691C258.583 361.846 260.039 361.448 261.2 362.013C262.254 362.525 262.846 363.717 262.936 364.885C263.026 366.052 262.693 367.209 262.314 368.317C261.523 370.623 259.474 377.98 256.252 376.941C252.502 375.732 254.754 368.315 255.612 365.96Z" fill="white"/>
<path d="M219.689 342.332C219.147 340.438 219.276 337.922 221.066 337.1C222.238 336.563 223.64 337.032 224.696 337.771C227.626 339.823 228.777 343.559 229.58 347.045C230.433 350.753 232.973 357.033 227.166 352.524C223.856 349.952 220.86 346.413 219.689 342.332Z" fill="white"/>
<path d="M214.698 379.246C213.863 378.08 213.203 376.711 213.249 375.279C213.297 373.845 214.215 372.375 215.613 372.054C217.312 371.665 218.895 372.99 220.062 374.285C221.7 376.103 227.988 382.722 225.387 384.863C222.348 387.366 216.17 381.299 214.698 379.246Z" fill="white"/>
<path d="M110.244 52.8607C108.062 61.6405 114.271 70.7904 122.333 74.896C130.394 79.0016 139.82 79.2108 148.866 79.0731C158.229 78.9309 167.618 78.5054 176.842 76.8979C183.461 75.7445 190.211 73.8651 195.343 69.5289C200.474 65.1935 203.57 57.8639 201.253 51.5589C199.024 59.4008 194.74 67.3125 187.346 70.7457C182.1 73.1812 176.071 73.0158 170.292 72.803C160.416 72.44 150.541 72.077 140.666 71.7131C133.709 71.4565 126.226 71.0148 120.782 66.6768C114.138 61.3803 112.634 52.056 111.605 43.6213C110.095 48.3814 110.555 53.7333 112.852 58.167" fill="white"/>
<path d="M71.866 95.8939C68.3014 98.4367 63.958 98.1988 59.8738 97.8904C49.1038 97.0759 38.3332 96.2605 27.5634 95.446C25.2322 95.2699 22.6914 94.9829 21.0028 92.9399C19.3142 90.896 19.4375 86.4713 21.6867 85.6791C22.3142 88.457 24.3405 90.4436 26.5122 91.3252C28.6845 92.2059 31.0129 92.1648 33.2935 92.1156C43.9405 91.8822 54.5881 91.6489 65.2347 91.4155C69.4315 91.3243 72.5491 90.5625 75.3958 86.6089C77.4424 89.5308 73.841 94.4849 71.866 95.8939Z" fill="white"/>
<path d="M316.188 295.497C316.179 295.497 316.171 295.497 316.164 295.497C290.885 295.944 275.664 294.346 250.438 291.705L248.115 291.462C247.622 291.41 247.066 291.356 246.481 291.3C245.056 291.163 243.441 291.007 242.24 290.824C239.378 290.386 237.871 290.133 234.942 289.156C232.533 288.352 230.307 286.759 228.508 284.546C226.439 282.004 225.173 277.944 225.354 274.442C225.653 268.687 225.57 257.671 225.492 247.018C225.413 236.403 225.331 225.428 225.626 219.752C225.664 219.012 225.096 218.381 224.356 218.343C223.617 218.319 222.986 218.872 222.947 219.612C222.649 225.368 222.731 236.384 222.81 247.037C222.888 257.652 222.97 268.627 222.675 274.303C222.458 278.485 223.931 283.17 226.427 286.239C228.549 288.847 231.2 290.736 234.094 291.701C237.225 292.745 238.902 293.028 241.835 293.475C243.109 293.669 244.764 293.829 246.224 293.97C246.8 294.025 247.348 294.078 247.835 294.13L250.158 294.372C272.65 296.727 287.22 298.253 308.014 298.253C310.637 298.253 313.362 298.229 316.211 298.179C316.951 298.167 317.542 297.555 317.529 296.815C317.515 296.083 316.917 295.497 316.188 295.497Z" fill="white"/>
<path d="M353.674 266.14C355.817 231.28 357.22 195.828 358.576 161.543L358.87 154.114C358.898 153.374 358.323 152.751 357.583 152.721C356.855 152.698 356.219 153.268 356.189 154.008L355.895 161.438C354.556 195.304 353.171 230.309 351.072 264.744C320.855 265.343 246.499 262.415 246.392 262.41C245.648 262.385 245.024 262.948 244.99 263.688C244.956 264.428 245.528 265.055 246.267 265.089C246.357 265.092 320.834 268.08 352.364 267.399C353.062 267.384 353.631 266.838 353.674 266.14Z" fill="white"/>
<path d="M270.147 54.0365C269.416 54.0365 268.818 54.623 268.806 55.3553C268.794 56.0974 269.384 56.7062 270.125 56.7187C283.742 56.936 291.66 57.2534 299.318 57.5601C305.85 57.822 312.605 58.093 322.859 58.3013C322.868 58.3013 322.877 58.3013 322.887 58.3013C323.614 58.3013 324.213 57.7192 324.227 56.9879C324.242 56.2476 323.654 55.6351 322.913 55.619C312.686 55.4116 305.945 55.1416 299.425 54.8805C291.751 54.573 283.817 54.2547 270.168 54.0365C270.16 54.0365 270.154 54.0365 270.147 54.0365Z" fill="white"/>
<path d="M316.001 45.3271C316.018 45.3271 316.034 45.3271 316.051 45.3271C317.846 45.3271 319.316 43.9333 319.41 42.0915C319.508 40.1934 318.013 38.5867 316.098 38.559L282.107 38.0807C277.545 38.1442 277.671 44.7862 282.01 44.8497L316.001 45.3271Z" fill="white"/>
<path d="M329.545 44.5128C331.819 42.2401 330.407 38.3303 327.009 38.3008C323.809 38.358 322.087 42.2812 324.375 44.5736C325.784 45.9809 328.103 45.9558 329.545 44.5128Z" fill="white"/>
<path d="M296.301 280.638C296.301 274.898 292.403 270.229 287.612 270.229C282.821 270.229 278.923 274.898 278.923 280.638C278.923 286.379 282.821 291.05 287.612 291.05C292.403 291.05 296.301 286.379 296.301 280.638Z" fill="white"/>
<path d="M333.696 251.476C333.704 251.476 333.712 251.476 333.72 251.476C334.45 251.476 335.048 250.891 335.06 250.158C335.43 229.247 333.363 208.279 328.917 187.839C328.759 187.115 328.044 186.653 327.322 186.813C326.598 186.97 326.139 187.684 326.297 188.408C330.697 208.647 332.745 229.406 332.378 250.112C332.366 250.852 332.956 251.463 333.696 251.476Z" fill="white"/>
<path d="M340.295 215.469C340.32 215.47 340.346 215.471 340.373 215.471C341.079 215.471 341.67 214.921 341.711 214.208C341.947 210.148 341.507 206.102 340.405 202.184C340.203 201.471 339.463 201.058 338.75 201.256C338.036 201.457 337.622 202.199 337.822 202.911C338.844 206.542 339.252 210.29 339.034 214.052C338.99 214.793 339.555 215.426 340.295 215.469Z" fill="white"/>
<path d="M382.777 19.5149C382.143 19.1367 381.318 19.3468 380.94 19.9843C380.562 20.6218 380.772 21.4443 381.409 21.8225C389.688 26.7364 395.909 34.876 398.476 44.1556C398.641 44.7493 399.18 45.1382 399.767 45.1382C400.657 45.1382 401.297 44.2915 401.061 43.4394C398.311 33.5 391.647 24.7792 382.777 19.5149Z" fill="white"/>
<path d="M283.428 123.13L282.635 140.264C282.491 143.372 281.149 146.292 278.953 148.277C276.992 150.05 274.517 150.949 271.972 150.811L212.168 147.564C206.562 147.259 202.231 142.024 202.514 135.894L203.308 118.759C203.452 115.653 204.793 112.732 206.988 110.748C208.818 109.093 211.1 108.198 213.461 108.198C213.631 108.198 213.8 108.202 213.971 108.212L273.774 111.459C279.38 111.763 283.711 116.999 283.428 123.13ZM214.116 105.534C210.873 105.369 207.685 106.501 205.19 108.758C202.468 111.219 200.806 114.819 200.629 118.635L199.835 135.769C199.483 143.365 204.95 149.859 212.023 150.243L271.827 153.49C272.046 153.502 272.265 153.508 272.484 153.508C275.512 153.508 278.425 152.37 280.752 150.266C283.474 147.805 285.136 144.204 285.313 140.388L286.106 123.254C286.459 115.657 280.991 109.164 273.919 108.78L214.116 105.534Z" fill="white"/>
<path d="M225.527 126.252C223.115 123.773 218.294 122.625 215.232 124.944C214.63 125.401 214.072 125.935 213.573 126.53C212.043 128.357 211.7 130.861 212.679 133.066C213.686 135.341 215.846 136.814 218.314 136.909L220.606 137C220.688 137.004 220.77 137.004 220.852 137.004C223.381 137.004 225.669 135.527 226.726 133.188C227.799 130.82 227.367 128.192 225.613 126.344C225.605 126.335 225.535 126.261 225.527 126.252Z" fill="white"/>
<path d="M257.501 128.968C255.09 126.489 250.269 125.339 247.208 127.659C246.606 128.114 246.047 128.648 245.547 129.246C244.017 131.071 243.674 133.575 244.651 135.781C245.659 138.055 247.82 139.528 250.288 139.624L252.579 139.715C252.661 139.719 252.744 139.72 252.826 139.72C255.355 139.72 257.643 138.243 258.7 135.904C259.772 133.535 259.341 130.906 257.569 129.039C257.567 129.037 257.503 128.97 257.501 128.968Z" fill="white"/>
<path d="M260.388 181.315C242.74 181.315 227.998 183.379 224.402 186.126C223.769 186.241 223.292 186.797 223.301 187.463C223.309 187.983 223.325 188.487 223.347 188.975L223.406 190.521C223.454 191.743 223.502 192.958 223.513 194.223C223.66 210.089 228.876 225.564 238.199 237.801C242.198 243.049 250.364 251.688 260.772 251.688C261.061 251.688 261.351 251.681 261.642 251.668C270.583 251.254 277.581 244.483 281.877 238.875C282.328 238.288 282.217 237.447 281.629 236.996C281.038 236.545 280.198 236.656 279.748 237.245C275.798 242.4 269.429 248.623 261.518 248.989C251.906 249.411 244.123 241.152 240.333 236.175C231.358 224.397 226.337 209.489 226.195 194.199C226.184 192.907 226.135 191.665 226.086 190.415L226.056 189.639C231.407 191.923 244.76 193.538 260.388 193.538C275.804 193.538 289.002 191.967 294.492 189.732C294.374 204.976 290.101 220.916 282.994 232.502C282.606 233.133 282.804 233.959 283.435 234.346C283.654 234.48 283.897 234.544 284.136 234.544C284.586 234.544 285.026 234.317 285.28 233.904C292.735 221.751 297.186 204.995 297.186 189.082C297.186 188.613 297.179 188.146 297.173 187.683V187.655C297.19 187.579 297.22 187.503 297.22 187.426C297.22 184.058 280.73 181.315 260.388 181.315Z" fill="white"/>
<path d="M312.276 127.994C312.356 125.723 312.803 123.872 313.643 122.352C314.832 120.215 316.8 118.919 318.918 118.892H318.981C320.635 118.892 322.155 119.67 323.282 121.073C323.513 121.35 323.729 121.664 323.916 121.995C324.793 123.488 325.204 125.365 325.159 127.591C325.105 130.282 324.407 132.465 323.102 134.073C322.897 134.332 322.665 134.574 322.423 134.788C321.216 135.906 319.67 136.532 318.167 136.532C317.585 136.532 317.014 136.434 316.468 136.246C314.939 135.701 313.661 134.405 312.955 132.688C312.427 131.383 312.213 129.89 312.276 127.994ZM255.518 69.4781C234.57 70.6851 216.434 80.0809 205.386 93.8416C203.564 93.3096 201.671 93.6083 199.75 94.7491C194.059 98.1305 189.626 108.104 188.845 112.501C187.061 122.548 191.617 132.02 195.755 138.2C195.757 138.204 195.76 138.206 195.762 138.209C195.8 138.266 195.848 138.311 195.893 138.36C202.937 162.779 229.034 180.968 260.079 180.968C282.95 180.968 303.809 171.231 315.985 154.896C324.569 153.1 331.167 142.576 331.167 129.898C331.167 121.199 328.055 113.518 323.325 108.968C319.678 98.7751 312.678 89.7271 303.067 82.7631C302.468 82.325 301.627 82.4583 301.197 83.0573C300.76 83.6661 300.894 84.4967 301.492 84.9348C309.45 90.6927 315.512 97.9266 319.24 106.054C317.398 105.132 315.423 104.632 313.366 104.632C303.549 104.632 295.565 115.968 295.565 129.898C295.565 143.372 303.031 154.422 312.401 155.129C300.572 169.676 281.233 178.286 260.079 178.286C225.13 178.286 196.69 154.449 196.69 125.15C196.69 97.2498 222.413 74.1675 255.406 72.1719C255.352 73.2502 255.306 74.3294 255.226 75.404C255.171 76.1417 255.725 76.7862 256.464 76.8417C256.498 76.8444 256.531 76.8453 256.565 76.8453C257.26 76.8453 257.848 76.308 257.901 75.6034C257.989 74.4268 258.042 73.2448 258.098 72.0638C258.758 72.0477 259.413 72.0244 260.079 72.0244C271.792 72.0244 283.227 74.7254 293.16 79.8297C293.813 80.1695 294.626 79.9102 294.966 79.2486C295.297 78.5869 295.038 77.7822 294.385 77.4434C284.076 72.1406 272.211 69.3422 260.079 69.3422C259.446 69.3422 258.819 69.3503 258.202 69.3637C258.3 65.7364 258.245 62.102 258.048 58.4819C261.155 57.8972 262.856 55.0755 262.122 52.0365C261.185 48.1535 257.007 46.8169 254.002 48.7329C253.916 48.7883 253.838 48.8509 253.769 48.9206C250.536 51.3579 250.927 57.1202 255.355 58.371C255.563 62.0653 255.623 65.7766 255.518 69.4781Z" fill="white"/>
<path d="M364.016 262.555L364.013 262.606C364.012 262.61 364.012 262.613 364.011 262.617C364.012 262.602 364.013 262.581 364.016 262.555ZM404.05 114.341C404.35 114.371 404.649 114.387 404.945 114.387C406.903 114.387 408.786 113.719 410.326 112.463C412.1 111.017 413.203 108.966 413.43 106.688L415.335 87.7733C415.636 84.7656 414.303 81.7893 411.857 80.0065C411.258 79.5693 410.417 79.7016 409.983 80.2998C409.546 80.8988 409.678 81.7374 410.276 82.1737C411.957 83.3986 412.873 85.4425 412.667 87.5051L410.761 106.421C410.605 107.985 409.848 109.392 408.631 110.385C407.414 111.377 405.885 111.832 404.326 111.673C401.826 111.416 414.163 112.683 374.155 108.573C336.719 104.728 355.262 106.632 349.9 106.082C346.679 105.749 344.331 102.858 344.664 99.6404L346.603 80.7334C346.938 77.5156 349.834 75.1776 353.047 75.4905L405.435 80.8791C406.16 80.9489 406.831 80.4204 406.907 79.6819C406.983 78.9452 406.447 78.2872 405.71 78.2112L385.458 76.128C386.065 72.5249 386.014 68.7922 386.206 65.1443C386.708 55.7011 387.535 45.4649 382.153 37.4057C377.525 30.4695 365.683 27.2865 355.077 27.2427C354.987 27.2373 262.516 25.4224 252.344 27.8972C240.619 30.7493 234.958 40.8568 234.858 52.4511C234.816 57.4445 234.293 63.1532 234.436 68.2566C234.456 68.9969 235.092 69.5941 235.813 69.5593C236.555 69.5396 237.137 68.9218 237.116 68.1815C236.979 63.2229 237.497 57.5098 237.54 52.4744C237.632 41.9297 242.598 33.0292 252.978 30.5034C262.223 28.2539 354.11 28.8565 363.371 31.1722C376.3 34.8602 376.317 47.1841 375.557 60.5184L375.383 63.5591C375.167 67.3831 374.948 71.2008 374.727 75.0229L362.51 73.7668C362.801 68.5078 363.102 63.2533 363.423 57.9953C363.427 57.9264 363.421 57.8603 363.415 57.7941C363.417 57.7646 363.425 57.736 363.425 57.7047C363.438 56.9644 362.846 56.3547 362.106 56.3422C350.717 56.158 340.021 55.9649 329.408 55.7512C328.672 55.7092 328.054 56.3243 328.04 57.0654C328.025 57.8057 328.613 58.4182 329.354 58.4334C339.538 58.6373 349.804 58.8232 360.679 59.002C360.386 63.8327 360.107 68.6607 359.838 73.4932L353.32 72.8226C348.622 72.3488 344.421 75.7704 343.936 80.4589L341.995 99.365C341.51 104.053 344.932 108.263 349.625 108.75L358.039 109.614C357.545 120.605 357.048 132.437 356.481 146.721C356.453 147.462 357.028 148.085 357.769 148.114C357.787 148.115 357.804 148.115 357.822 148.115C358.538 148.115 359.133 147.55 359.162 146.828C359.725 132.617 360.22 120.831 360.71 109.889L372.667 111.117C370.966 140.986 369.257 170.855 367.548 200.725L364.016 262.531C364.008 262.593 364.004 262.656 364.004 262.718L363.484 271.86C363.3 275.154 363.067 278.351 362.227 281.256C362.227 281.256 362.227 281.257 362.227 281.258C361.978 281.921 361.473 284.182 359.673 286.519C356.964 290.036 351.989 292.144 347.709 293.318C347.229 293.387 344.499 293.758 344.498 293.758C343.765 293.857 343.25 294.533 343.35 295.267C343.451 296.009 344.14 296.518 344.859 296.416C346.936 296.134 347.863 296.009 348.332 295.897L348.341 295.925C350.806 295.257 353.448 294.286 355.747 293.052C362.223 291.037 367.936 287.351 371.124 281.975C376.305 273.255 375.693 263.269 376.221 253.347C378.721 206.322 381.209 159.289 383.708 112.25L404.05 114.341Z" fill="white"/>
<path d="M407.881 33.279C408.604 33.119 409.06 32.402 408.9 31.6787C407.498 25.3576 403.269 19.732 397.589 16.6278C396.939 16.2719 396.123 16.5116 395.768 17.1616C395.413 17.8116 395.652 18.626 396.301 18.9819C401.313 21.7195 405.044 26.6835 406.281 32.2598C406.438 32.9679 407.138 33.4382 407.881 33.279Z" fill="white"/>
<path d="M390.219 95.3806C387.568 92.744 384.97 90.0394 382.266 87.392C381.753 86.8896 380.932 86.8797 380.408 87.3741C376.23 91.3063 372.483 94.9121 369.327 98.7682C366.351 96.0261 363.334 93.1919 360.837 90.2012C360.589 89.9035 360.224 89.7282 359.836 89.7193C359.491 89.7032 359.077 89.8713 358.816 90.1583C355.905 93.36 353.1 96.728 350.478 100.167C349.804 101.052 350.444 102.321 351.544 102.321C352.853 102.321 352.322 101.473 359.787 93.09C362.482 96.1307 365.584 98.9685 368.571 101.717C369.14 102.237 370.05 102.182 370.538 101.552C373.529 97.7025 377.188 94.1065 381.307 90.2137C382.526 91.4207 383.728 92.6411 384.931 93.8598C386.437 95.3886 387.945 96.9175 389.483 98.424C389.775 98.7101 390.177 98.8451 390.584 98.7977C392.001 98.6261 391.026 97.5192 396.989 91.9724L399.964 95.1562C400.276 95.4888 400.733 95.6381 401.168 95.5621C401.612 95.487 401.989 95.1937 402.17 94.7816C403.543 91.672 404.7 87.9285 405.545 85.1953C405.832 84.2726 405.075 83.3615 404.118 83.4662C400.581 83.8542 396.782 83.3803 393.056 84.1242C392.762 84.1841 392.38 84.3459 392.093 84.7742C391.93 84.928 391.804 85.1211 391.734 85.3419C391.585 85.8059 391.7 86.312 392.031 86.6678L395.157 90.0117C393.504 91.5513 391.668 93.4163 390.219 95.3806Z" fill="white"/>
<path d="M254.777 221.563C253.172 221.563 251.872 219.962 251.872 217.987C251.872 216.012 253.172 214.41 254.777 214.41C256.382 214.41 257.683 216.012 257.683 217.987C257.683 219.962 256.382 221.563 254.777 221.563ZM254.629 203.681C256.234 203.681 257.535 205.283 257.535 207.258C257.535 209.233 256.234 210.834 254.629 210.834C253.024 210.834 251.723 209.233 251.723 207.258C251.723 205.283 253.024 203.681 254.629 203.681ZM246.73 198.821C245.989 198.821 245.389 199.422 245.389 200.162V227.1C245.389 227.84 245.989 228.441 246.73 228.441H262.843C263.583 228.441 264.184 227.84 264.184 227.1V200.162C264.184 199.422 263.583 198.821 262.843 198.821H246.73Z" fill="white"/>
<path d="M103.787 138.288C103.903 138.32 104.02 138.335 104.137 138.335C104.728 138.335 105.269 137.942 105.43 137.343C105.623 136.628 105.201 135.892 104.485 135.699C102.505 135.165 102.067 134.565 101.831 133.424C101.681 132.698 100.975 132.228 100.247 132.381C99.5214 132.531 99.0547 133.24 99.2049 133.965C99.6823 136.287 101.01 137.539 103.787 138.288Z" fill="white"/>
<path d="M117.395 122.446C116.671 122.328 115.975 122.826 115.858 123.558C115.643 124.9 116.319 126.026 117.009 126.954L117.067 127.03C117.456 127.55 117.859 128.089 117.868 128.494C117.865 128.543 117.817 128.625 117.768 128.676C117.105 128.533 116.436 128.908 116.217 129.562C115.925 130.432 116.52 131.383 117.811 131.383C119.315 131.383 120.583 129.951 120.55 128.441C120.504 126.292 118.359 124.902 118.507 123.982C118.624 123.25 118.126 122.562 117.395 122.446Z" fill="white"/>
<path d="M114.252 133.047C113.93 133.715 114.212 134.517 114.879 134.837C115.88 135.319 117.135 135.316 118.152 134.809C118.815 134.479 119.085 133.674 118.755 133.01C118.424 132.348 117.619 132.08 116.956 132.408C116.68 132.544 116.312 132.549 116.042 132.42C115.373 132.098 114.572 132.38 114.252 133.047Z" fill="white"/>
<path d="M173.083 251.13C174.51 250.638 175.821 250.154 176.894 249.61C179.511 256.868 180.454 265.425 181.231 274.302C181.284 274.919 181.075 276.075 180.837 276.447C180.7 276.668 180.506 276.898 180.323 277.079C180.143 276.378 179.942 275.694 179.837 275.151C179.697 274.423 178.989 273.949 178.266 274.089C177.539 274.229 177.064 274.932 177.204 275.66C177.291 276.112 177.442 276.681 177.593 277.247C177.705 277.666 177.812 278.072 177.89 278.425C177.89 278.478 177.886 278.531 177.893 278.585C177.99 279.329 177.673 279.807 177.476 280.026C177.267 280.258 177.057 280.354 176.958 280.373C176.266 279.88 176.317 278.041 176.339 277.043C176.356 276.302 175.769 275.688 175.029 275.67C174.29 275.651 173.675 276.241 173.657 276.981C173.629 278.218 173.652 277.979 173.693 278.822C173.717 279.374 173.797 279.85 173.909 280.27C173.899 280.377 173.898 280.485 173.915 280.596C174.098 281.798 173.634 282.527 173.092 282.717C172.599 282.888 172.087 282.61 171.721 281.973C171.662 281.868 171.586 281.779 171.504 281.697C171.504 280.112 171.339 277.826 171.348 275.516C171.35 274.775 170.752 274.172 170.012 274.169C169.307 274.172 168.668 274.765 168.665 275.505C168.65 279.637 169.199 283.8 168.309 284.452C168.016 284.482 167.682 284.355 167.38 284.12C167.256 283.901 167.162 283.62 167.15 283.282C167.048 280.409 166.778 272.964 166.881 267.984C166.896 267.237 166.296 266.616 165.539 266.616C164.811 266.616 164.213 267.198 164.199 267.93C164.192 268.237 164.19 268.553 164.186 268.866C162.546 269.961 161.532 270.732 160.334 271.716C159.867 270.692 159.624 269.52 159.643 268.311C159.677 266.267 160.02 265.644 160.385 264.891C160.934 263.757 160.921 263.632 160.978 263.487C161.985 260.501 162.746 258.219 161.533 255.475C163.349 254.938 170.963 251.862 173.083 251.13ZM95.3255 237.954C94.1623 237.595 93.1842 237.117 92.7434 236.768C93.4175 236.707 94.2508 237.47 95.3255 237.954ZM86.104 230.429C91.6115 233.295 94.9079 232.677 96.747 233.311C98.9429 234.068 97.904 235.66 97.0385 235.687C96.1435 235.625 94.9491 234.361 93.3236 234.119C91.9807 233.919 90.704 234.506 90.1398 235.58C89.8019 236.224 89.7733 236.942 90.0594 237.603C90.7818 239.268 93.447 240.224 94.967 240.644C97.1324 241.25 99.3917 241.265 101.494 240.688L102.007 240.544C102.851 240.304 103.723 240.054 104.168 240.329C104.46 240.509 104.42 241.116 104.212 241.595C103.957 242.181 103.268 242.693 102.457 242.9C99.6278 243.622 96.7462 243.3 93.65 241.917C92.9732 241.618 92.1801 241.919 91.8779 242.595C91.5766 243.272 91.8797 244.065 92.5565 244.367C94.9178 245.42 97.2513 245.949 99.5312 245.949C101.243 245.949 103.488 245.649 104.909 244.703C104.99 244.805 105.028 244.932 105.015 245.081C104.997 245.296 104.884 245.511 104.711 245.655C103.161 246.962 101.215 247.768 99.2272 247.926C96.7515 248.122 94.2374 247.332 92.3232 245.756C91.7519 245.287 90.9061 245.368 90.4358 245.941C89.9655 246.512 90.0469 247.357 90.6191 247.828C93.481 250.184 97.4954 251.251 101.409 250.273C100.125 251.962 97.4891 251.666 95.3854 251.397C93.7617 251.191 91.3433 249.816 90.409 248.571C89.9646 247.978 89.1233 247.859 88.5314 248.302C87.9386 248.746 87.8179 249.587 88.2623 250.179C89.6392 252.017 92.6835 253.758 95.0465 254.059C96.2866 254.216 97.3801 254.347 98.6103 254.262C97.7431 256.036 93.9924 255.633 92.0594 255.143C87.0088 253.86 80.6591 246.965 76.6098 242.734C79.9322 239.035 83.1571 234.435 86.104 230.429ZM158.171 253.336C150.26 241.001 144.036 230.537 137.68 217.019C137.028 210.155 136.306 204.335 135.485 200.766C136.225 200.708 136.976 200.841 137.595 201.217C138.226 201.597 139.052 201.399 139.437 200.765C139.82 200.131 139.618 199.307 138.985 198.923C136.435 197.378 132.916 197.937 130.969 200.193C130.22 201.06 130.843 202.41 131.983 202.41C132.36 202.41 132.734 202.253 132.998 201.946C133.747 205.463 134.413 210.956 135.023 217.396C135.024 217.436 135.03 217.475 135.034 217.514C136.442 232.441 137.479 251.436 138.524 263.532C138.668 265.217 137.418 266.732 135.675 266.984C110.639 270.593 83.7606 268.809 58.394 267.837C56.4762 267.763 55.0743 266.209 55.1637 264.473C55.7752 252.567 54.9768 242.993 55.6214 230.816C61.7762 237.393 67.7978 243.537 71.611 246.171C71.8417 246.33 72.1082 246.409 72.3737 246.409C72.6848 246.409 72.9951 246.301 73.2445 246.087C73.7506 245.655 74.2566 245.182 74.7635 244.684C79.2849 249.405 85.6677 256.287 91.3996 257.744C94.072 258.42 97.7466 258.647 99.8727 256.893C100.584 256.307 101.393 255.269 101.499 253.553C103.234 252.744 104.477 250.971 104.762 248.893C106.264 248.003 107.546 247.038 107.688 245.301C107.759 244.431 107.494 243.594 106.937 242.942L105.954 243.782C107.494 241.995 107.479 239.22 105.573 238.043C104.056 237.115 102.478 237.62 100.792 238.1C99.6707 238.408 98.4556 238.497 97.2558 238.363C98.2688 238.304 99.246 237.779 99.9282 236.905C101.627 234.732 100.644 231.818 97.6197 230.774C95.1967 229.941 92.6826 230.68 87.7392 228.243C88.2372 227.591 88.7281 226.959 89.2011 226.377C89.6347 225.844 89.5954 225.068 89.1099 224.582C85.4576 220.93 70.5596 207.166 65.2461 203.179C65.9542 201.922 67.172 200.692 69.6959 198.589C69.8828 198.885 70.0661 199.183 70.2261 199.492C70.4657 199.951 70.9333 200.214 71.417 200.214C71.6262 200.214 71.8381 200.165 72.0357 200.063C72.6929 199.721 72.9477 198.911 72.607 198.254C71.6361 196.388 70.2592 194.701 68.6257 193.375C68.0517 192.906 67.205 192.995 66.7401 193.57C66.2734 194.145 66.3602 194.989 66.9359 195.457C67.324 195.771 67.6887 196.117 68.0383 196.478C64.4853 199.435 63.1343 201.008 62.3082 203.14C62.0793 203.731 62.2939 204.401 62.825 204.747C66.5291 207.167 81.4173 220.845 86.3579 225.639C82.1933 230.948 77.1177 238.848 72.287 243.347C64.9055 237.721 50.2221 220.687 41.6526 211.897C38.4616 208.62 37.9499 203.667 40.4097 199.853C47.4514 188.932 54.0604 175.612 61.0619 164.768C63.7146 160.663 67.7317 157.597 72.3764 156.135C79.1946 153.992 87.1608 151.578 93.2485 149.573C95.8717 153.751 101.687 157.66 105.796 157.864C106.072 157.877 106.349 157.883 106.623 157.883C112.256 157.883 117.531 155.06 120.367 150.517C124.714 152.427 130.875 155.25 137.068 158.477C141.207 160.633 144.288 164.246 145.745 168.65C154.432 194.913 167.744 221.618 176.661 246.651C175.607 247.516 172.105 248.604 171.147 248.972L163.399 251.961C159.123 253.634 158.618 253.246 158.171 253.336ZM131.758 377.806C132.049 376.164 132.793 374.491 132.989 372.97C133.519 368.896 130.978 366.009 133.153 352.46C133.854 348.099 134.578 343.591 132.567 339.951C132.328 339.519 132.485 338.974 132.918 338.737C133.35 338.496 133.893 338.655 134.132 339.086C136.828 343.962 135.323 349.677 134.556 355.103C133.181 364.871 135.226 369.647 134.762 373.2C134.53 375.003 133.807 376.495 133.518 378.118C132.883 381.699 134.465 385.229 136.439 389.144C136.661 389.585 136.484 390.123 136.043 390.344C135.604 390.566 135.066 390.391 134.843 389.949C133.207 386.706 130.968 382.265 131.758 377.806ZM128.425 275.631C128.241 275.173 128.463 274.653 128.92 274.468C129.379 274.285 129.899 274.505 130.084 274.962C133.088 282.415 134.211 290.575 133.329 298.559C133.278 299.016 132.89 299.355 132.44 299.355C132.408 299.355 132.375 299.354 132.342 299.35C131.85 299.295 131.497 298.854 131.551 298.363C132.4 290.671 131.319 282.811 128.425 275.631ZM125.294 289.968C124.908 289.968 124.551 289.714 124.437 289.326L123.232 285.23C123.092 284.756 123.363 284.259 123.837 284.12C124.314 283.978 124.808 284.253 124.947 284.725L126.151 288.82C126.322 289.394 125.889 289.968 125.294 289.968ZM122.262 395.3C121.964 395.3 121.671 395.151 121.502 394.879C120.704 393.601 120.009 393.022 119.411 393.111C119.161 393.147 118.614 393.405 118.115 393.471C116.73 393.655 115.576 392.69 115.051 391.655C114.554 390.674 114.493 389.613 114.439 388.676C114.409 388.182 114.786 387.76 115.279 387.731C115.803 387.717 116.194 388.079 116.224 388.571C116.27 389.372 116.318 390.199 116.646 390.848C116.88 391.308 117.396 391.772 117.881 391.699C118.608 391.602 120.596 390.047 123.019 393.933C123.392 394.531 122.958 395.3 122.262 395.3ZM113.247 349.239C112.867 349.239 112.515 348.995 112.394 348.614L110.949 344.036C110.799 343.565 111.06 343.063 111.532 342.915C112.001 342.763 112.505 343.027 112.654 343.498L114.099 348.075C114.283 348.652 113.85 349.239 113.247 349.239ZM81.0891 353.204C80.0127 356.483 79.6881 360.024 80.1539 363.442C80.415 365.374 80.2398 366.904 78.3747 367.521C77.9116 367.677 77.7864 367.59 78.2531 369.166C78.8522 371.205 78.4936 373.47 77.2929 375.226C77.1194 375.479 76.8396 375.616 76.5544 375.616C75.8499 375.616 75.4064 374.818 75.8168 374.217C76.7046 372.92 76.98 371.177 76.5374 369.67C76.1717 368.433 75.84 367.159 76.887 366.287C77.359 365.895 77.9071 365.831 78.1351 365.698C78.5669 365.448 78.4829 364.428 78.381 363.682C77.8812 359.998 78.2299 356.181 79.3895 352.647C79.5442 352.178 80.0502 351.921 80.5178 352.076C80.9881 352.231 81.2429 352.736 81.0891 353.204ZM65.0342 393.581C64.9672 394.023 64.5863 394.341 64.1509 394.341C63.6028 394.341 63.1844 393.853 63.2667 393.313C66.9949 368.784 68.6856 343.769 68.2905 318.963C68.2833 318.471 68.6767 318.063 69.1711 318.056C69.1756 318.056 69.1801 318.056 69.1845 318.056C69.6718 318.056 70.0715 318.446 70.0786 318.936C70.4756 343.841 68.7777 368.954 65.0342 393.581ZM61.7557 282.128L61.5152 277.07C61.4919 276.576 61.8728 276.157 62.3654 276.134C62.8429 276.108 63.2783 276.49 63.3015 276.984L63.542 282.044C63.5644 282.538 63.1835 282.956 62.6909 282.979C62.2251 283.008 61.7798 282.641 61.7557 282.128ZM66.3888 277.345C66.868 277.28 67.3266 277.626 67.391 278.116L68.1134 283.656C68.1778 284.146 67.8327 284.595 67.3436 284.659C66.8564 284.723 66.4057 284.38 66.3414 283.889L65.6181 278.346C65.5537 277.857 65.8997 277.408 66.3888 277.345ZM117.68 346.5C117.774 346.984 117.457 347.454 116.973 347.548C116.493 347.642 116.02 347.33 115.925 346.84L114.941 341.784C114.848 341.3 115.164 340.83 115.649 340.737C116.134 340.645 116.603 340.958 116.697 341.444L117.68 346.5ZM107.796 102.917L108.037 102.675C108.386 102.326 108.952 102.326 109.302 102.675C109.65 103.025 109.65 103.591 109.302 103.939C109.153 104.055 108.935 104.443 108.428 104.443C108.199 104.443 107.97 104.355 107.796 104.181C107.446 103.831 107.446 103.265 107.796 102.917ZM113.593 101.728C116.652 102.105 119.509 103.854 121.239 106.403C121.644 107.002 121.208 107.8 120.5 107.8C120.214 107.8 119.931 107.662 119.759 107.407C118.316 105.277 115.929 103.818 113.375 103.502C112.884 103.442 112.536 102.996 112.597 102.506C112.657 102.016 113.116 101.658 113.593 101.728ZM189.312 252.973C188.956 252.26 188.059 252.014 187.386 252.447C186.07 253.296 183.247 254.462 181.48 255.978C180.867 253.158 180.108 250.443 179.126 247.877C179.431 247.417 179.601 246.918 179.417 246.397C170.397 220.892 157.026 194.213 148.291 167.808C146.614 162.736 143.068 158.579 138.308 156.099C131.604 152.606 124.943 149.584 120.537 147.664C119.898 147.387 119.167 147.648 118.835 148.243C118.625 148.358 118.441 148.525 118.313 148.748C118.01 149.273 117.661 149.774 117.277 150.247C117.288 147.373 117.729 143.006 117.427 140.828C124.019 136.898 125.007 125.512 122.956 117.949C122.872 117.641 122.77 117.35 122.659 117.066C123.092 117.347 123.547 117.596 124.088 117.755C125.096 118.053 126.159 117.914 126.927 117.385C127.817 116.774 128.128 115.834 128.286 115.181C129.043 112.019 128.077 108.494 125.234 106.097C125.838 106.122 126.436 106.213 127.005 106.374C127.481 106.504 127.987 106.37 128.331 106.017C128.673 105.664 128.795 105.153 128.649 104.682C127.856 102.147 125.549 100.041 122.473 99.0514C121.022 98.5838 119.442 98.346 117.638 98.3326C118.321 97.9946 119.095 97.8114 119.852 97.8283C120.444 97.8471 121.008 97.4475 121.178 96.8592C121.347 96.2718 121.097 95.6441 120.57 95.333C116.112 92.7026 110.155 94.1072 107.504 97.6844C106.357 99.232 105.596 99.0479 104.914 98.7296C103.85 98.2307 102.664 98.0867 101.569 98.3219C99.4355 98.7886 98.7963 100.106 98.2312 101.269L98.1329 101.47C97.7439 102.263 96.9366 102.641 96.3286 102.819C95.9352 102.934 95.5284 103.021 95.1225 103.109C94.0317 103.344 92.7961 103.611 91.7367 104.374C89.7545 105.8 89.2994 108.195 89.0285 110.328C88.3866 115.384 87.1116 125.31 91.0375 129.091C91.9289 129.948 93.3567 130.771 93.9727 131.583C94.6978 132.539 95.2021 134.206 95.4319 135.72C95.3442 138.46 95.4453 140.904 95.7716 145.051C95.8279 145.77 96.4502 146.338 97.2129 146.283C97.9514 146.225 98.503 145.58 98.4449 144.841C98.199 141.693 98.0855 139.555 98.0873 137.499C98.1579 137.364 98.2089 137.218 98.2303 137.059C98.3403 136.236 98.3984 135.25 98.4556 134.294C98.5084 133.388 98.5638 132.451 98.6613 131.725C98.7855 130.796 98.8311 129.701 98.2679 128.876C97.6787 127.941 96.8418 127.627 95.7815 127.316C95.1681 127.137 95.2575 127.144 95.0412 127.049C94.7926 126.838 94.5727 126.605 94.3822 126.331C94.0058 125.788 93.7689 124.565 94.0282 123.804C94.0684 123.684 94.1399 123.537 94.2123 123.515C94.7166 123.353 95.5347 123.601 96.1731 123.765C99.5544 124.61 102.999 124.265 106.335 122.849C106.467 122.803 106.602 122.765 106.732 122.715C109.49 121.67 111.259 120.119 113.217 118.264C114.115 117.41 115.335 116.06 116.09 115.14C116.497 114.846 117.045 114.642 117.949 114.708C119.034 116.016 119.963 117.17 120.368 118.653C121.439 122.603 121.538 126.823 120.655 130.856C119.892 134.366 118.455 136.876 116.384 138.316C114.248 139.804 110.684 139.983 109.115 138C108.654 137.421 107.812 137.32 107.23 137.782C106.65 138.241 106.551 139.085 107.012 139.666C108.857 141.996 112.016 142.555 114.831 141.875C114.975 144.809 114.316 150.185 114.734 152.547C114.738 152.565 114.747 152.579 114.752 152.596C112.261 154.361 109.108 155.331 105.927 155.185C102.779 155.029 97.1843 151.447 95.1422 147.489C94.8614 146.943 94.2588 146.68 93.6875 146.794C93.0796 146.672 94.3894 146.491 78.8468 151.31C76.389 152.072 73.9294 152.835 71.5708 153.577C66.3324 155.226 61.8004 158.684 58.8097 163.313C51.7537 174.237 45.1545 187.542 38.1549 198.4C35.0144 203.271 35.6634 209.59 39.7321 213.769C43.4021 217.535 48.0379 222.645 53.1234 228.132C53.0984 228.217 53.0832 228.309 53.076 228.402C52.1721 241.954 53.1422 251.537 52.485 264.335C52.3294 267.387 54.5771 269.999 57.6009 270.449C55.6402 312.568 56.3009 361.963 54.3304 403.97C54.2973 404.677 54.8194 405.289 55.5231 405.367C56.376 405.46 57.1378 405.497 57.87 405.514C57.8173 408.861 57.0788 414.844 57.7305 420.69C57.8021 421.328 58.3162 421.827 58.9572 421.878C63.1227 422.208 67.7889 422.445 67.6387 422.445C68.3325 422.445 68.9208 421.91 68.9744 421.206C69.0307 420.467 68.4764 419.823 67.7379 419.767C67.0227 419.715 63.8299 419.558 60.2912 419.291C59.862 413.983 60.4915 409.082 60.5531 405.48C66.7884 405.205 68.3486 405.502 76.921 404.468C76.9129 405.958 76.9916 407.67 76.9245 409.149C76.9058 409.537 77.0577 409.914 77.3394 410.182C77.621 410.45 78.0073 410.585 78.3917 410.545C80.8826 410.306 83.5666 410.981 86.3266 411.757C88.8264 412.457 90.6843 413.267 92.738 414.55C95.1297 416.046 96.0568 417.1 96.4118 417.72C96.7614 418.329 96.9849 419.01 97.0779 419.744C97.1807 420.57 96.0845 421.03 95.2343 421.056C87.1375 421.292 80.3944 420.698 72.3299 420.078C71.6012 420.017 70.9476 420.577 70.8922 421.315C70.8368 422.054 71.3902 422.697 72.1287 422.753L74.7582 422.954C81.9135 423.506 87.9896 423.954 95.3139 423.736C96.7685 423.692 98.0774 423.114 98.9053 422.147C99.567 421.376 99.8629 420.405 99.7386 419.412C99.6018 418.322 99.2657 417.304 98.739 416.385C97.9871 415.078 96.4896 413.733 94.1605 412.275C91.8735 410.847 89.8135 409.949 87.0517 409.175C84.5483 408.472 82.0887 407.843 79.6327 407.815C79.6434 406.65 79.5862 405.393 79.6068 404.133C80.4257 404.027 81.2125 403.924 82.1602 403.8C82.7172 403.728 83.1696 403.316 83.2948 402.767C89.083 377.3 94.5745 352.047 98.4842 325.719C98.2133 324.816 100.824 311.784 98.3287 292.326C98.2661 291.836 98.6121 291.389 99.102 291.326C99.6009 291.268 100.039 291.611 100.103 292.099C101.375 302.025 101.535 312.077 100.598 322.035C104.431 346.368 109.517 377.893 111.126 402.172C111.151 402.527 111.314 402.858 111.582 403.093C111.852 403.327 112.201 403.449 112.557 403.42C113.726 403.34 114.88 403.25 116.028 403.156C115.987 407.66 115.303 415.192 115.754 419.249C115.826 419.888 116.341 420.387 116.981 420.437C120.671 420.73 125.574 421.005 125.662 421.005C126.359 421.005 126.946 420.467 126.998 419.763C127.053 419.024 126.498 418.381 125.76 418.326C124.505 418.236 122.397 418.158 118.333 417.852C118.113 413.74 118.697 406.995 118.713 402.923C124.208 402.42 129.3 401.812 134.459 401.211C134.596 403.591 135.073 404.169 134.948 406.92C134.911 407.73 135.606 408.396 136.416 408.315C138.906 408.078 141.592 408.752 144.351 409.528C146.851 410.227 148.709 411.037 150.763 412.32C153.153 413.816 154.08 414.871 154.436 415.49C154.68 415.917 154.941 417.02 155.101 418.304C155.204 419.13 154.109 419.589 153.259 419.615C145.171 419.852 138.426 419.259 130.353 418.637C129.628 418.576 128.971 419.135 128.916 419.875C128.86 420.613 129.415 421.256 130.153 421.312L132.782 421.514C139.937 422.065 146.013 422.514 153.337 422.296C155.891 422.219 158.069 420.424 157.763 417.972C157.613 416.764 157.318 415.122 156.763 414.155C156.012 412.848 154.514 411.503 152.184 410.045C149.898 408.617 147.837 407.719 145.075 406.945C142.571 406.241 140.111 405.613 137.655 405.585C137.643 404.159 137.176 402.265 137.131 400.902C138.679 400.727 140.181 400.563 141.626 400.418C142.35 400.345 142.885 399.708 142.829 398.982C139.42 354.006 140.813 314.373 137.442 269.263C139.839 268.313 141.421 265.924 141.195 263.302C140.491 255.145 139.267 235.908 138.336 224.502C143.825 235.433 149.423 244.683 156.282 255.358C156.5 255.698 156.859 255.921 157.26 255.965C157.953 256.044 158.402 256.016 158.782 255.992C159.95 258.066 159.463 259.587 158.437 262.63C158.379 262.777 158.419 262.798 157.971 263.721C157.406 264.888 157.002 265.834 156.961 268.266C156.931 270.127 157.375 271.941 158.218 273.474C157.986 273.668 157.743 273.87 157.48 274.087C157.049 274.444 156.884 275.032 157.068 275.56C160.334 284.971 161.603 291.423 164.657 300.59C164.786 300.98 165.088 301.289 165.475 301.428C165.859 301.566 166.289 301.522 166.639 301.304C177.443 294.564 185.862 288.445 196.376 280.889C196.791 280.59 197 280.082 196.916 279.578C195.115 268.899 193.784 261.902 189.312 252.973Z" fill="white"/>
<path d="M53.6906 419.632H21.5716C20.8311 419.632 20.2305 420.233 20.2305 420.973C20.2305 421.714 20.8311 422.314 21.5716 422.314H53.6906C54.4309 422.314 55.0317 421.714 55.0317 420.973C55.0317 420.233 54.4309 419.632 53.6906 419.632Z" fill="white"/>
<path d="M143.365 174.204C143.388 174.034 143.425 173.864 143.46 173.696C143.548 173.272 143.648 172.793 143.623 172.246C143.569 171.104 142.818 169.864 141.491 169.698C140.416 169.563 139.563 170.287 139.287 170.373C139.128 170.339 138.732 169.847 138.704 169.28C138.652 168.217 139.121 166.889 138.869 165.412C138.489 163.207 135.976 161.569 134.124 162.904C133.523 163.338 133.388 164.177 133.821 164.777C134.241 165.359 135.043 165.503 135.639 165.117C135.823 165.182 136.166 165.519 136.226 165.866C136.387 166.804 135.957 168.049 136.025 169.413C136.13 171.531 137.905 173.509 139.975 172.962C140.365 172.857 140.683 172.679 140.94 172.534C140.911 172.885 140.776 173.323 140.706 173.851C140.333 176.649 142.182 179.049 143.404 180.636C144.543 182.117 145.737 183.829 145.472 185.412C145.35 186.142 145.842 186.833 146.573 186.957C146.648 186.968 146.722 186.975 146.796 186.975C147.439 186.975 148.007 186.511 148.118 185.855C148.562 183.209 147.014 180.93 145.529 178.999C144.27 177.364 143.157 175.766 143.365 174.204Z" fill="white"/>
<path d="M152.563 221.098C152.295 220.406 151.515 220.063 150.829 220.333C150.138 220.6 149.795 221.377 150.063 222.067L152.432 228.185C152.702 228.884 153.487 229.215 154.165 228.952C154.857 228.684 155.2 227.908 154.933 227.217L152.563 221.098Z" fill="white"/>
<path d="M157.531 220.013C157.318 219.304 156.569 218.905 155.861 219.116C155.152 219.328 154.749 220.076 154.962 220.786L155.554 222.758C155.728 223.339 156.261 223.714 156.837 223.714C157.736 223.714 158.382 222.848 158.123 221.987L157.531 220.013Z" fill="white"/>
<path d="M167.489 245.759C168.089 245.326 168.226 244.487 167.792 243.888C167.36 243.287 166.521 243.15 165.921 243.584C164.962 244.274 163.519 244.272 162.563 243.58C161.964 243.148 161.125 243.281 160.69 243.881C160.256 244.481 160.391 245.32 160.991 245.753C161.933 246.435 163.089 246.775 164.244 246.775C165.397 246.775 166.548 246.437 167.489 245.759Z" fill="white"/>
<path d="M129.471 230.551C128.74 230.665 128.239 231.351 128.354 232.082C128.923 235.704 129.312 238.31 128.422 241.569C128.148 242.573 127.836 243.71 128.045 244.936C128.241 246.071 128.816 246.929 129.134 247.732C129.374 248.331 129.36 248.811 129.224 248.976C128.752 249.547 128.832 250.392 129.403 250.864C130.811 252.027 132.858 249.825 131.626 246.739C131.339 246.02 130.796 245.1 130.689 244.484C130.548 243.65 130.945 242.608 131.211 241.51C132.024 238.162 131.482 234.712 131.003 231.668C130.889 230.934 130.201 230.436 129.471 230.551Z" fill="white"/>
<path d="M61.2518 255.051C61.098 254.326 60.3854 253.863 59.6612 254.019C58.9361 254.173 58.4748 254.884 58.6295 255.61C59.1033 257.837 60.1718 259.898 61.7194 261.569C61.9832 261.855 62.3426 262 62.7029 262C63.8607 262 64.4865 260.608 63.6872 259.748C62.4686 258.43 61.6255 256.806 61.2518 255.051Z" fill="white"/>
<path d="M65.6387 253.668C65.2659 253.028 64.4442 252.812 63.8041 253.185C63.1648 253.558 62.9484 254.379 63.3213 255.02L64.7035 257.388C64.9521 257.815 65.4009 258.052 65.8622 258.052C66.8913 258.052 67.5422 256.93 67.0192 256.035L65.6387 253.668Z" fill="white"/>
<path d="M87.1185 161.667C86.7216 161.042 85.8928 160.856 85.2669 161.254C79.6164 164.842 74.7472 168.109 71.9765 174.155C71.6278 174.919 71.297 175.64 70.8401 176.204C70.4101 176.735 69.6689 177.241 69.0502 177.095C68.3287 176.925 67.6063 177.37 67.4355 178.091C67.2656 178.811 67.7118 179.534 68.4324 179.705C68.7006 179.769 68.976 179.799 69.254 179.799C70.5719 179.799 71.9452 179.103 72.9251 177.891C73.8094 176.799 74.2573 175.555 74.791 174.473C77.2265 169.538 82.4819 166.2 86.7055 163.518C87.3304 163.121 87.5146 162.292 87.1185 161.667Z" fill="white"/>
<path d="M86.5986 171.517L82.4537 175.859C81.6401 176.71 82.2516 178.126 83.4238 178.126C83.7778 178.126 84.1301 177.987 84.3938 177.711L88.5388 173.37C89.0502 172.834 89.0305 171.985 88.4949 171.473C87.9585 170.962 87.1109 170.982 86.5986 171.517Z" fill="white"/>
<path d="M44.3609 200.256C43.6984 199.927 42.8929 200.198 42.5636 200.862C41.5395 202.928 41.5316 205.499 42.5437 207.571C42.7759 208.048 43.2522 208.324 43.7493 208.324C44.7301 208.324 45.3917 207.292 44.9536 206.395C44.2992 205.054 44.3045 203.391 44.9662 202.053C45.2961 201.389 45.0243 200.584 44.3609 200.256Z" fill="white"/>
<path d="M48.9197 204.163C48.7918 203.434 48.0971 202.939 47.3658 203.077C46.6371 203.206 46.1507 203.901 46.2794 204.631L46.4216 205.43C46.5539 206.178 47.2746 206.647 47.9764 206.516C48.7051 206.388 49.1914 205.692 49.0627 204.962L48.9197 204.163Z" fill="white"/>
<path d="M71.4742 232.244C72.2431 231.333 72.3486 230.051 71.9265 228.907C73.3848 228.217 74.1027 226.744 73.9266 225.252C74.4219 224.909 74.6401 224.262 74.4174 223.674C74.1537 222.982 73.3749 222.634 72.6883 222.894L71.796 223.231C71.0003 223.532 70.682 224.492 71.1415 225.21C71.3266 225.497 71.3087 225.955 71.1049 226.229C70.8966 226.501 70.4585 226.647 70.1348 226.549C68.9126 226.186 67.9157 227.59 68.6703 228.625C69.0065 229.085 69.6261 229.887 69.4678 230.435C68.9493 230.086 68.2385 230.139 67.7763 230.595C67.2497 231.115 67.2443 231.965 67.7655 232.492C68.7937 233.531 70.5568 233.332 71.4742 232.244Z" fill="white"/>
<path d="M16.3119 391.422C16.4878 390.703 16.0488 389.976 15.3294 389.799C14.6099 389.624 13.8842 390.064 13.7064 390.781C8.23962 412.996 15.0598 437.903 31.0794 454.235C31.3424 454.502 31.6899 454.636 32.0374 454.636C32.3761 454.636 32.7156 454.509 32.9769 454.254C33.5049 453.734 33.514 452.885 32.995 452.356C17.61 436.673 11.0616 412.755 16.3119 391.422Z" fill="white"/>
<path d="M2.68254 417.038C2.68495 416.297 2.08816 415.694 1.34671 415.691C1.34492 415.691 1.34322 415.691 1.34143 415.691C0.60346 415.691 0.00273107 416.288 0.000317068 417.027C-0.0381281 426.494 3.42122 436.09 9.49181 443.356C9.75761 443.674 10.1383 443.837 10.5225 443.837C10.8252 443.837 11.1298 443.735 11.3816 443.526C11.9498 443.051 12.026 442.205 11.5507 441.636C5.87921 434.849 2.64696 425.883 2.68254 417.038Z" fill="white"/>
<path d="M63.4424 132.529C46.1028 140.165 32.9843 157.191 30.0227 175.904C29.9064 176.635 30.4058 177.321 31.1375 177.437C31.2084 177.449 31.2789 177.454 31.3488 177.454C31.9966 177.454 32.5666 176.984 32.6717 176.322C35.4943 158.488 47.9973 142.262 64.5234 134.984C65.2011 134.685 65.5095 133.893 65.2109 133.215C64.9123 132.539 64.1202 132.234 63.4424 132.529Z" fill="white"/>
<path d="M256.114 420.074C256.592 420.197 256.879 420.685 256.754 421.164L252.588 437.259C252.484 437.661 252.121 437.928 251.723 437.928C251.138 437.928 250.712 437.375 250.858 436.81L255.024 420.715C255.148 420.237 255.635 419.946 256.114 420.074ZM257.022 411.213L258.81 410.022C259.221 409.747 259.776 409.859 260.05 410.269C260.324 410.681 260.213 411.236 259.802 411.509C258.061 412.614 257.98 412.851 257.519 412.851C257.23 412.851 256.947 412.712 256.774 412.453C256.5 412.043 256.61 411.488 257.022 411.213ZM220.531 350.658C213.463 342.388 216.542 333.404 221.757 332.233C223.993 331.726 226.713 332.698 229.038 334.818C231.772 337.311 233.723 340.759 234.837 345.069C235.525 347.728 236.458 354.255 237.042 359.404C235.001 355.825 232.693 352.37 230.093 349.091C229.632 348.51 228.789 348.415 228.209 348.872C227.628 349.333 227.531 350.176 227.99 350.757C230.313 353.686 232.4 356.759 234.261 359.937C229.481 357.337 223.894 354.597 220.531 350.658ZM250.093 369.779C249.664 364.384 251.505 359.421 255.021 356.504C259.029 353.177 265.582 352.894 269.043 355.897C270.949 357.55 272.015 360.117 271.968 362.94C271.924 365.58 270.933 369.241 269.557 371.841C266.246 378.103 263.737 379.971 257.677 384.481C257.378 384.704 257.064 384.937 256.748 385.173C257.839 381.035 258.627 376.822 258.817 372.523C258.849 371.782 258.276 371.156 257.536 371.124C256.801 371.073 256.17 371.665 256.137 372.404C255.968 376.227 255.294 380.016 254.343 383.762C252.401 379.247 250.476 374.588 250.093 369.779ZM281.084 443.599H266.308C269.314 433.46 271.043 423.215 277.496 402.452C277.758 401.61 277.147 400.747 276.265 400.714C268.26 400.417 259.919 400.492 251.673 400.643C253.123 396.579 254.553 392.629 255.763 388.641C255.869 388.667 255.978 388.684 256.088 388.684C256.37 388.684 256.652 388.595 256.895 388.414C257.745 387.773 258.537 387.184 259.278 386.633C265.496 382.005 268.333 379.893 271.929 373.095C273.506 370.114 274.599 366.05 274.65 362.983C274.709 359.367 273.307 356.045 270.802 353.871C265.886 349.608 257.789 350.723 253.308 354.44C249.122 357.914 246.92 363.728 247.42 369.993C247.857 375.495 250.057 380.598 252.183 385.533C252.434 386.116 253.05 386.424 253.649 386.319C252.313 390.987 250.591 395.694 248.806 400.696C248.366 400.706 247.928 400.715 247.49 400.724C247.829 388.57 245.289 376.513 240.165 365.456C240.518 364.479 238.6 348.909 237.433 344.398C236.186 339.576 233.971 335.686 230.846 332.836C219.111 322.131 206.633 338.522 218.491 352.4C222.41 356.989 228.523 359.818 233.848 362.765C234.466 363.106 235.233 362.906 235.615 362.324C242.007 374.168 245.202 387.42 244.807 400.78C243.427 400.81 240.176 400.876 237.944 400.917C233.973 393.819 229.404 386.966 224.341 380.539C223.882 379.959 223.041 379.861 222.458 380.316C221.876 380.775 221.775 381.618 222.234 382.201C224.169 384.656 226.03 387.174 227.813 389.745C223.648 388.712 218.799 387.88 215.614 385.521C211.661 382.591 209.123 378.855 208.468 374.998C207.756 370.808 209.548 366.461 212.927 364.182C214.615 363.043 216.563 362.503 218.288 362.702C220.524 362.96 222.695 364.433 224.743 367.077C230.085 373.981 231.583 382.893 232.406 391.493C232.477 392.23 233.144 392.77 233.869 392.701C234.606 392.63 235.146 391.975 235.076 391.238C234.215 382.236 232.624 372.88 226.865 365.436C224.358 362.198 221.576 360.382 218.595 360.037C216.215 359.767 213.669 360.445 211.427 361.959C207.123 364.861 204.924 370.156 205.824 375.447C206.595 379.99 209.505 384.333 214.018 387.676C217.128 389.981 221.199 390.936 225.134 391.86C229.331 392.846 229.147 393.025 229.817 392.716C231.6 395.419 233.292 398.174 234.892 400.971C227.248 401.093 220.763 401.125 213.237 400.857C212.275 400.843 211.649 401.73 211.904 402.583C215.811 415.616 220.965 430.314 224.991 443.599H210.465C209.725 443.599 209.124 444.199 209.124 444.94C209.124 445.68 209.725 446.281 210.465 446.281H281.084C281.824 446.281 282.425 445.68 282.425 444.94C282.425 444.199 281.824 443.599 281.084 443.599Z" fill="white"/>
<path d="M420.832 209.2C419.524 209.45 418.449 209.649 417.161 209.793C416.522 209.64 415.85 209.971 415.6 210.602L413.501 215.948C411.879 215.675 410.697 215.283 408.646 214.705L409.134 210.136C409.466 209.624 409.409 208.951 408.99 208.501C408.869 208.321 408.71 208.169 408.517 208.065C407.88 207.504 407.234 206.933 406.581 206.353C405.795 205.654 405.009 204.957 404.251 204.291C403.757 203.858 403.035 203.856 402.537 204.249C400.768 205.343 398.932 206.386 397.077 207.37C395.774 206.064 394.646 204.611 393.709 203.028L398.75 199.187C399.34 198.737 399.49 197.846 398.923 197.222C398.385 195.212 397.96 193.966 397.493 192.185C397.524 191.586 397.151 191.018 396.55 190.834L391.448 189.271L392.899 184.344C395.032 184.729 397.283 184.783 399.524 184.451C400.056 184.371 400.464 183.989 400.609 183.507C403.445 178.782 403.69 178.841 403.678 178.139C403.762 177.375 403.459 177.413 400.613 172.173C402.648 170.984 403.655 170.239 405.593 169.108L408.436 173.997C408.446 174.091 408.467 174.186 408.498 174.28C408.741 174.989 409.514 175.351 410.201 175.114C416.707 172.794 416.806 173.053 417.253 172.44C417.558 172.279 417.809 172.013 417.916 171.655L419.235 167.249L424.127 168.051L423.474 172.386C422.999 173.079 423.263 173.954 423.929 174.319C425.804 175.346 427.506 176.77 428.85 178.433C429.115 178.762 429.502 178.931 429.894 178.931C429.942 178.931 429.99 178.913 430.039 178.907C430.075 178.91 430.112 178.921 430.149 178.921C430.417 178.921 430.687 178.84 430.922 178.674C432.446 177.596 434.078 176.677 435.778 175.913C437.095 177.378 438.266 178.967 439.275 180.658C438.128 182.137 436.773 183.43 435.227 184.491C434.892 184.721 434.7 185.076 434.658 185.45C434.329 186.07 434.577 186.189 434.907 191.002C434.953 191.537 435.307 191.967 435.779 192.143C435.899 192.221 436.029 192.285 436.175 192.322C436.546 192.416 436.937 192.509 437.338 192.604C438.513 192.883 439.804 193.193 440.906 193.601C440.475 195.69 440.33 196.939 439.849 199.857C438.406 199.686 437.021 199.432 435.384 199.037C435.295 198.951 435.198 198.872 435.082 198.813C434.426 198.468 433.615 198.719 433.272 199.374C432.596 200.658 431.333 201.942 429.408 203.297C428.802 203.724 428.657 204.56 429.083 205.165C429.147 205.257 429.222 205.335 429.301 205.406C430.164 207.143 430.907 208.952 431.524 210.802C430.199 211.746 428.785 212.554 427.298 213.216L424.325 209.272C423.948 208.774 423.295 208.616 422.745 208.844C422.038 208.97 421.411 209.089 420.832 209.2ZM443.055 191.601C441.531 190.844 439.633 190.393 437.958 189.995C437.802 189.957 437.658 189.921 437.506 189.885L437.21 186.355C438.878 185.141 440.357 183.701 441.598 182.049C441.602 182.047 441.606 182.046 441.61 182.045C442.259 181.686 442.493 180.87 442.135 180.222C440.791 177.792 439.14 175.533 437.232 173.512C437.188 173.464 437.13 173.445 437.081 173.405C436.713 173 436.122 172.845 435.582 173.066C433.704 173.839 431.904 174.807 430.205 175.93C429.022 174.627 427.654 173.483 426.163 172.548L426.986 167.086C427.114 166.237 426.412 165.451 425.505 165.559L418.568 164.421C417.972 164.323 417.211 164.652 416.992 165.38L415.47 170.474L410.484 172.181L407.18 166.504C406.807 165.862 405.985 165.648 405.347 166.018C405.178 166.116 405.041 166.247 404.934 166.397C402.439 167.77 400.386 169.318 398.216 170.456C397.629 170.763 397.569 171.292 397.529 171.384C397.461 171.726 397.464 172.046 397.655 172.386L400.836 178.043L398.472 181.863C396.572 182.071 394.621 181.972 392.752 181.565C391.977 181.03 390.958 181.437 390.708 182.286L388.535 189.667C388.387 190.17 388.551 190.688 388.91 191.023C389.075 191.245 389.306 191.421 389.591 191.508L394.978 193.158C395.463 194.96 395.784 195.906 396.275 197.701L391.573 201.285C391.476 201.31 391.381 201.343 391.288 201.392C390.699 201.697 390.436 202.379 390.633 202.99C390.674 203.172 390.751 203.348 390.871 203.506C390.886 203.525 390.905 203.539 390.921 203.557C392.201 205.922 393.835 208.059 395.806 209.9C396.065 210.141 396.393 210.261 396.721 210.261C396.791 210.261 396.861 210.251 396.93 210.24C396.969 210.244 397.006 210.255 397.045 210.255C397.254 210.255 397.466 210.207 397.663 210.104C399.551 209.123 401.409 208.06 403.221 206.962C405.539 209.009 404.309 207.929 406.469 209.836L405.857 215.572C405.778 216.307 406.311 216.968 407.048 217.047C407.051 217.047 407.055 217.047 407.057 217.047C407.833 217.259 408.496 217.45 409.087 217.621C410.957 218.16 412.194 218.517 414.285 218.771C414.34 218.778 414.394 218.781 414.448 218.781C415.116 218.781 415.695 218.282 415.778 217.601C415.783 217.56 415.78 217.521 415.781 217.481L417.768 212.423C419.013 212.272 420.07 212.076 421.335 211.834C421.758 211.753 422.219 211.667 422.706 211.578L425.814 215.702C425.816 215.704 425.818 215.705 425.82 215.707C425.832 215.724 425.847 215.735 425.862 215.75C426.124 216.064 426.502 216.236 426.885 216.236C427.142 216.236 427.397 216.152 427.623 216.002C429.809 215.106 431.867 213.93 433.748 212.501C433.874 212.433 433.982 212.343 434.077 212.243C434.563 211.784 434.641 211.036 434.245 210.488C433.618 208.522 432.849 206.597 431.957 204.74C433.245 203.733 434.243 202.726 434.975 201.697C437.016 202.182 438.701 202.461 440.597 202.633C441.087 202.674 441.508 202.449 441.782 202.08C442.064 201.883 442.28 201.592 442.345 201.227C442.805 198.662 443.065 196.209 443.664 193.503C443.678 193.447 443.68 193.39 443.685 193.335C443.967 192.684 443.698 191.921 443.055 191.601Z" fill="white"/>
<path d="M426.041 187.026C422.383 190.059 418.689 193.572 415.362 197.189C415.196 197.37 414.963 197.473 414.719 197.478C414.713 197.478 414.709 197.478 414.703 197.478C414.019 197.478 414.3 197.314 407.973 191.014C407.626 190.661 407.631 190.095 407.984 189.749C408.336 189.402 408.902 189.407 409.248 189.76L414.686 195.29C417.897 191.858 421.414 188.539 424.901 185.65C425.281 185.332 425.845 185.386 426.159 185.768C426.474 186.148 426.422 186.711 426.041 187.026ZM427.402 199.381C431.088 194.636 431.265 187.848 427.822 183.241C427.731 183.117 426.35 181.735 426.289 181.685C422.595 178.498 419.582 177.498 415.197 177.994C409.367 178.644 404.351 183.546 403.53 189.401C402.73 195.204 406.21 201.293 411.63 203.565C413.203 204.217 414.89 204.529 416.583 204.529C420.714 204.529 424.865 202.669 427.402 199.381Z" fill="white"/>
<path d="M197.78 60.0707H182.581V58.3943H197.78V60.0707ZM182.245 49.4536H197.445V54.2216H182.245V49.4536ZM181.51 31.666C181.272 31.6472 181.05 31.5336 180.895 31.3504L168.376 16.4998C168.181 16.54 167.979 16.565 167.772 16.565C167.466 16.565 167.177 16.5042 166.897 16.4202C160.788 25.0498 153.658 33.6919 146.633 40.9455C146.316 41.2737 145.805 41.3094 145.444 41.0322C143.049 39.1833 140.638 37.3469 138.227 35.5105C136.614 34.282 135.006 33.05 133.398 31.818C132.377 32.8399 130.839 33.0741 129.557 32.2453C115.6 44.5683 116.271 44.3564 115.629 44.3564C114.815 44.3564 114.419 43.3417 115.034 42.7954L128.382 30.898C128.16 30.4375 128.023 29.9243 128.023 29.3727C128.023 27.5085 129.45 25.9966 131.211 25.9966C132.971 25.9966 134.398 27.5085 134.398 29.3727C134.398 29.674 134.349 29.9601 134.279 30.239C138.955 33.8234 142.736 36.6889 145.903 39.127C152.675 32.0701 159.515 23.7453 165.404 15.4296C164.9 14.8332 164.585 14.0536 164.585 13.1899C164.585 11.3258 166.012 9.81479 167.772 9.81479C169.533 9.81479 170.959 11.3258 170.959 13.1899C170.959 14.1484 170.579 15.0075 169.974 15.6218L181.676 29.5023L191.931 20.5517C191.577 20.009 191.368 19.3519 191.368 18.642C191.368 16.7778 192.794 15.2677 194.556 15.2677C196.316 15.2677 197.742 16.7778 197.742 18.642C197.742 20.5061 196.316 22.0162 194.556 22.0162C194.106 22.0162 193.68 21.9161 193.292 21.7381L182.167 31.4469C181.985 31.6051 181.747 31.6847 181.51 31.666ZM170.299 66.2496L170.149 40.5656L175.643 40.5334L175.792 66.2183L170.299 66.2496ZM160.664 66.3122L160.567 49.5403L166.06 49.5072L166.157 66.2809L160.664 66.3122ZM150.402 66.3802L150.348 56.945L155.841 56.9128L155.895 66.3471L150.402 66.3802ZM134.379 57.6495H120.293C119.8 57.6495 119.399 57.2499 119.399 56.7555C119.399 56.261 119.8 55.8614 120.293 55.8614H134.379C134.874 55.8614 135.273 56.261 135.273 56.7555C135.273 57.2499 134.874 57.6495 134.379 57.6495ZM131.345 63.9081H123.869C123.376 63.9081 122.975 63.5084 122.975 63.014C122.975 62.5196 123.376 62.1199 123.869 62.1199H131.345C131.839 62.1199 132.239 62.5196 132.239 63.014C132.239 63.5084 131.839 63.9081 131.345 63.9081ZM124.57 8.35921C124.628 8.3458 124.686 8.33954 124.742 8.33865C124.797 8.31987 124.852 8.30649 124.91 8.29844C126.305 8.10175 127.762 8.70165 128.621 9.81566C129.994 11.5967 129.111 13.8301 126.56 14.4434C125.287 14.7501 123.824 14.565 122.846 13.7344C122.006 13.0209 121.962 8.92874 124.57 8.35921ZM134.164 10.6203C134.471 9.38919 135.503 8.41017 136.794 8.12853C136.851 8.11512 136.908 8.10976 136.964 8.10797C137.019 8.0892 137.076 8.07489 137.135 8.06685C138.532 7.87552 139.989 8.47186 140.846 9.58498C141.5 10.4335 141.664 11.4259 141.298 12.3092C140.917 13.2257 140.001 13.9195 138.786 14.2127C138.395 14.3066 137.999 14.3522 137.614 14.3522C136.637 14.3522 135.719 14.0563 135.07 13.5037C134.23 12.7902 133.89 11.712 134.164 10.6203ZM146.463 10.3459C146.769 9.11472 147.802 8.1357 149.092 7.85407C149.15 7.84066 149.208 7.83353 149.266 7.83263C149.319 7.81475 149.376 7.8013 149.434 7.79326C150.836 7.59835 152.288 8.1965 153.144 9.30873C153.798 10.1581 153.963 11.1514 153.596 12.0348C153.216 12.9521 152.3 13.645 151.085 13.9383C150.693 14.033 150.298 14.0777 149.913 14.0777C148.936 14.0777 148.018 13.7818 147.369 13.2293C146.529 12.5149 146.19 11.4375 146.463 10.3459ZM204.35 54.4675L204.341 20.7824C204.339 9.32125 195.014 -0.000381027 183.554 -0.000381027C183.553 -0.000381027 183.552 -0.000381027 183.551 -0.000381027L130.874 0.00769533C119.387 0.00948347 110.087 9.30875 110.091 20.8003L110.099 54.4863C110.102 65.9474 119.427 75.269 130.886 75.269C130.887 75.269 130.889 75.269 130.89 75.269L183.566 75.2601C189.119 75.2592 194.339 73.0956 198.264 69.1688C202.19 65.2411 204.352 60.0197 204.35 54.4675Z" fill="white"/>
<path d="M61.4582 88.7087C61.2865 88.8777 61.0371 88.9555 60.8154 88.968C60.5749 88.9644 60.3469 88.8643 60.1806 88.6908C59.0791 87.5312 57.6852 86.1579 56.3369 84.8293C55.1764 83.6858 53.9828 82.5092 52.96 81.4542C49.3757 83.8074 46.0685 86.0229 42.5794 88.3609L41.1265 89.3345C40.9746 89.4364 40.8011 89.4857 40.6299 89.4857C40.374 89.4857 40.1214 89.3766 39.9461 89.1692L33.9711 82.1006L25.3056 89.1763C24.9221 89.4874 24.3585 89.4311 24.0473 89.0493C23.7351 88.6667 23.7917 88.1034 24.1741 87.7914L33.5206 80.1596C33.9006 79.8511 34.457 79.9039 34.7696 80.2749L40.7954 87.4042L41.5834 86.8758C45.2773 84.401 48.7668 82.063 52.6006 79.5507C52.9618 79.3147 53.441 79.3701 53.7379 79.683C54.843 80.8453 56.2413 82.2231 57.5931 83.5553C58.7053 84.6523 59.848 85.7788 60.8422 86.7989C62.7966 84.8508 64.3264 83.2754 65.9017 81.5955C65.1668 80.8766 64.4069 80.1864 63.6058 79.5489C63.3143 79.3164 63.1981 78.9284 63.3125 78.5744C63.427 78.2203 63.7488 77.9735 64.1199 77.9566C65.1454 77.9074 66.0368 77.7804 66.9809 77.6463C67.9233 77.5122 68.8996 77.3718 70.0073 77.32C70.4973 77.3003 70.8943 77.6526 70.9399 78.1282C71.0445 79.2279 70.8603 80.3455 70.6815 81.4273C70.5152 82.4394 70.3569 83.397 70.4392 84.2642C70.4776 84.6621 70.247 85.0358 69.8759 85.1816C69.7695 85.2236 69.6595 85.2433 69.5496 85.2433C69.2769 85.2433 69.0122 85.119 68.8397 84.8937C68.3059 84.1954 67.7337 83.532 67.1454 82.8856C65.4064 84.7372 63.7184 86.4645 61.4582 88.7087ZM70.1209 103.749L70.1513 95.0807L72.348 95.0933C72.3552 95.0933 72.3632 95.0933 72.3704 95.0933C73.5005 95.0933 74.5939 94.6221 75.4531 93.7647C76.5475 92.6739 77.1724 91.0664 77.1671 89.3533L77.1367 79.033C77.1269 75.851 75.0293 73.3476 72.3614 73.3333L24.5227 73.0687C24.5153 73.0687 24.5076 73.0687 24.5006 73.0687C23.376 73.0687 22.2853 73.5354 21.429 74.3856C20.3387 75.4657 19.709 77.0625 19.7026 78.7648L19.667 89.2067C19.6566 92.3583 21.7985 94.9341 24.4419 94.9493L54.6758 95.1156L67.9894 104.828C68.8674 105.465 70.1173 104.852 70.1209 103.749Z" fill="white"/>
</svg>
