<svg width="43" height="43" viewBox="0 0 43 43" fill="none" xmlns="http://www.w3.org/2000/svg">
<path d="M13.899 19.6568C14.0369 19.6568 14.1734 19.6297 14.3008 19.577C14.4282 19.5243 14.5439 19.4469 14.6414 19.3495C14.7389 19.252 14.8162 19.1362 14.8689 19.0088C14.9216 18.8815 14.9487 18.7449 14.9487 18.6071C14.9487 18.3287 15.0593 18.0617 15.2561 17.8648C15.453 17.668 15.72 17.5574 15.9984 17.5574C16.2768 17.5574 16.5438 17.668 16.7406 17.8648C16.9375 18.0617 17.0481 18.3287 17.0481 18.6071C17.0481 18.8855 17.1586 19.1525 17.3555 19.3493C17.5524 19.5462 17.8193 19.6568 18.0977 19.6568C18.3761 19.6568 18.6431 19.5462 18.84 19.3493C19.0368 19.1525 19.1474 18.8855 19.1474 18.6071C19.1474 17.7719 18.8157 16.9709 18.2251 16.3803C17.6345 15.7898 16.8335 15.458 15.9984 15.458C15.1632 15.458 14.3622 15.7898 13.7716 16.3803C13.1811 16.9709 12.8493 17.7719 12.8493 18.6071C12.8492 18.7449 12.8763 18.8815 12.9291 19.0088C12.9818 19.1362 13.0591 19.252 13.1566 19.3495C13.2541 19.4469 13.3698 19.5243 13.4972 19.577C13.6246 19.6297 13.7611 19.6568 13.899 19.6568ZM28.1249 26.5899C24.2053 28.5502 18.2893 28.5502 14.3687 26.5899C14.1196 26.4654 13.8311 26.4449 13.5668 26.5329C13.3026 26.621 13.0841 26.8105 12.9595 27.0597C12.8349 27.3088 12.8144 27.5973 12.9025 27.8616C12.9906 28.1258 13.1801 28.3443 13.4293 28.4689C15.8724 29.6207 18.5459 30.2008 21.2468 30.1652C23.9477 30.2004 26.6212 29.6199 29.0643 28.4678C29.1876 28.4061 29.2976 28.3208 29.3879 28.2166C29.4782 28.1124 29.5471 27.9915 29.5907 27.8607C29.6343 27.7299 29.6516 27.5917 29.6418 27.4542C29.632 27.3167 29.5952 27.1825 29.5336 27.0591C29.4719 26.9358 29.3865 26.8259 29.2823 26.7356C29.1781 26.6453 29.0572 26.5764 28.9264 26.5328C28.7956 26.4892 28.6575 26.4718 28.5199 26.4817C28.3824 26.4915 28.2482 26.5283 28.1249 26.5899Z" fill="#0D99FF"/>
<path d="M39.0913 17.558H38.0417V14.409C38.0403 13.0174 37.4869 11.6833 36.5029 10.6993C35.5189 9.71533 34.1848 9.16193 32.7932 9.16054H29.6442V6.86802C30.3445 6.62041 30.9348 6.13317 31.3107 5.49243C31.6865 4.85169 31.8238 4.0987 31.6982 3.36655C31.5726 2.6344 31.1922 1.97022 30.6242 1.49142C30.0563 1.01261 29.3373 0.75 28.5945 0.75C27.8516 0.75 27.1327 1.01261 26.5647 1.49142C25.9968 1.97022 25.6164 2.6344 25.4908 3.36655C25.3652 4.0987 25.5024 4.85169 25.8783 5.49243C26.2541 6.13317 26.8444 6.62041 27.5448 6.86802V9.16054H14.9485V6.86802C15.6489 6.62041 16.2392 6.13317 16.6151 5.49243C16.9909 4.85169 17.1282 4.0987 17.0026 3.36655C16.877 2.6344 16.4965 1.97022 15.9286 1.49142C15.3606 1.01261 14.6417 0.75 13.8989 0.75C13.156 0.75 12.4371 1.01261 11.8691 1.49142C11.3012 1.97022 10.9208 2.6344 10.7951 3.36655C10.6695 4.0987 10.8068 4.85169 11.1827 5.49243C11.5585 6.13317 12.1488 6.62041 12.8492 6.86802V9.16054H9.70011C8.30857 9.16193 6.97441 9.71533 5.99044 10.6993C5.00647 11.6833 4.45307 13.0174 4.45168 14.409V17.558H3.40199C2.56711 17.559 1.76669 17.8911 1.17634 18.4814C0.585989 19.0718 0.253902 19.8722 0.25293 20.7071V24.9058C0.253902 25.7407 0.585989 26.5411 1.17634 27.1315C1.76669 27.7218 2.56711 28.0539 3.40199 28.0549H4.45168V32.2537C4.45307 33.6452 5.00647 34.9794 5.99044 35.9633C6.97441 36.9473 8.30857 37.5007 9.70011 37.5021H14.9485V41.7008C14.9486 41.8882 14.9989 42.0721 15.094 42.2334C15.1891 42.3948 15.3257 42.5278 15.4896 42.6185C15.6535 42.7093 15.8387 42.7546 16.0259 42.7496C16.2132 42.7447 16.3957 42.6897 16.5546 42.5905L24.697 37.5021H32.7932C34.1848 37.5007 35.5189 36.9473 36.5029 35.9633C37.4869 34.9794 38.0403 33.6452 38.0417 32.2537V28.0549H39.0913C39.9262 28.0539 40.7266 27.7218 41.317 27.1315C41.9073 26.5411 42.2394 25.7407 42.2404 24.9058V20.7071C42.2394 19.8722 41.9073 19.0718 41.317 18.4814C40.7266 17.8911 39.9262 17.559 39.0913 17.558ZM28.5945 2.86242C28.8021 2.86242 29.005 2.92398 29.1777 3.03932C29.3503 3.15466 29.4848 3.3186 29.5643 3.51041C29.6437 3.70221 29.6645 3.91327 29.624 4.11689C29.5835 4.32051 29.4835 4.50754 29.3367 4.65435C29.1899 4.80115 29.0029 4.90112 28.7993 4.94162C28.5956 4.98213 28.3846 4.96134 28.1928 4.88189C28.001 4.80244 27.837 4.6679 27.7217 4.49528C27.6064 4.32266 27.5448 4.11971 27.5448 3.91211C27.5453 3.63388 27.6561 3.36721 27.8528 3.17048C28.0496 2.97374 28.3163 2.86297 28.5945 2.86242ZM13.8989 2.86242C14.1065 2.86242 14.3094 2.92398 14.482 3.03932C14.6547 3.15466 14.7892 3.3186 14.8686 3.51041C14.9481 3.70221 14.9689 3.91327 14.9284 4.11689C14.8879 4.32051 14.7879 4.50754 14.6411 4.65435C14.4943 4.80115 14.3073 4.90112 14.1036 4.94162C13.9 4.98213 13.689 4.96134 13.4972 4.88189C13.3054 4.80244 13.1414 4.6679 13.0261 4.49528C12.9107 4.32266 12.8492 4.11971 12.8492 3.91211C12.8496 3.63384 12.9603 3.36709 13.1571 3.17033C13.3538 2.97356 13.6206 2.86284 13.8989 2.86242ZM3.40199 25.9555C3.12372 25.9551 2.85697 25.8444 2.66021 25.6476C2.46345 25.4509 2.35272 25.1841 2.3523 24.9058V20.7071C2.35272 20.4288 2.46345 20.1621 2.66021 19.9653C2.85697 19.7686 3.12372 19.6578 3.40199 19.6574H4.45168V25.9555H3.40199ZM35.9423 32.2537C35.9413 33.0885 35.6092 33.889 35.0189 34.4793C34.4285 35.0697 33.6281 35.4017 32.7932 35.4027H24.3957C24.1991 35.4026 24.0064 35.4581 23.8399 35.5628L17.0479 39.8062V36.4524C17.048 36.3145 17.0209 36.178 16.9682 36.0506C16.9154 35.9232 16.8381 35.8075 16.7406 35.71C16.6431 35.6125 16.5274 35.5352 16.4 35.4825C16.2726 35.4298 16.1361 35.4026 15.9982 35.4027H9.70011C8.86523 35.4017 8.06482 35.0697 7.47446 34.4793C6.88411 33.889 6.55202 33.0885 6.55105 32.2537V14.409C6.55202 13.5741 6.88411 12.7737 7.47446 12.1833C8.06482 11.593 8.86523 11.2609 9.70011 11.2599H32.7932C33.6281 11.2609 34.4285 11.593 35.0189 12.1833C35.6092 12.7737 35.9413 13.5741 35.9423 14.409V32.2537ZM40.141 24.9058C40.1405 25.1841 40.0297 25.4507 39.833 25.6475C39.6362 25.8442 39.3696 25.955 39.0913 25.9555H38.0417V19.6574H39.0913C39.3696 19.658 39.6362 19.7687 39.833 19.9655C40.0297 20.1622 40.1405 20.4289 40.141 20.7071V24.9058Z" fill="#0D99FF"/>
<path d="M26.4948 15.458C25.6599 15.459 24.8595 15.7911 24.2691 16.3814C23.6788 16.9718 23.3467 17.7722 23.3457 18.6071C23.3457 18.8855 23.4563 19.1525 23.6531 19.3493C23.85 19.5462 24.117 19.6568 24.3954 19.6568C24.6738 19.6568 24.9408 19.5462 25.1376 19.3493C25.3345 19.1525 25.4451 18.8855 25.4451 18.6071C25.4451 18.3287 25.5557 18.0617 25.7525 17.8648C25.9494 17.668 26.2164 17.5574 26.4948 17.5574C26.7732 17.5574 27.0402 17.668 27.237 17.8648C27.4339 18.0617 27.5445 18.3287 27.5445 18.6071C27.5445 18.8855 27.655 19.1525 27.8519 19.3493C28.0487 19.5462 28.3157 19.6568 28.5941 19.6568C28.8725 19.6568 29.1395 19.5462 29.3364 19.3493C29.5332 19.1525 29.6438 18.8855 29.6438 18.6071C29.6429 17.7722 29.3108 16.9718 28.7204 16.3814C28.1301 15.7911 27.3296 15.459 26.4948 15.458Z" fill="#0D99FF"/>
</svg>
