<svg width="70" height="69" viewBox="0 0 70 69" fill="none" xmlns="http://www.w3.org/2000/svg">
<path d="M23.0534 31.1994C23.2775 31.1995 23.4995 31.1555 23.7066 31.0697C23.9137 30.984 24.1019 30.8583 24.2604 30.6998C24.4189 30.5413 24.5446 30.3531 24.6303 30.146C24.716 29.9389 24.7601 29.717 24.76 29.4928C24.76 29.0402 24.9398 28.6061 25.2598 28.2861C25.5799 27.966 26.014 27.7862 26.4666 27.7862C26.9192 27.7862 27.3533 27.966 27.6733 28.2861C27.9934 28.6061 28.1732 29.0402 28.1732 29.4928C28.1732 29.9454 28.353 30.3795 28.673 30.6996C28.9931 31.0196 29.4271 31.1994 29.8798 31.1994C30.3324 31.1994 30.7665 31.0196 31.0865 30.6996C31.4065 30.3795 31.5863 29.9454 31.5863 29.4928C31.5863 28.135 31.0469 26.8327 30.0868 25.8726C29.1267 24.9124 27.8244 24.373 26.4666 24.373C25.1087 24.373 23.8065 24.9124 22.8463 25.8726C21.8862 26.8327 21.3468 28.135 21.3468 29.4928C21.3467 29.717 21.3908 29.9389 21.4765 30.146C21.5622 30.3531 21.6879 30.5413 21.8464 30.6998C22.0049 30.8583 22.1931 30.984 22.4002 31.0697C22.6073 31.1555 22.8292 31.1995 23.0534 31.1994ZM46.182 42.4714C39.8096 45.6585 30.1912 45.6585 23.8171 42.4714C23.412 42.2689 22.943 42.2356 22.5134 42.3788C22.0837 42.522 21.7285 42.8301 21.526 43.2351C21.3234 43.6402 21.2901 44.1092 21.4333 44.5389C21.5766 44.9685 21.8846 45.3237 22.2897 45.5262C26.2619 47.3989 30.6084 48.3421 34.9995 48.2841C39.3907 48.3414 43.7373 47.3976 47.7094 45.5245C47.9098 45.4242 48.0886 45.2855 48.2354 45.1161C48.3823 44.9467 48.4943 44.7501 48.5651 44.5374C48.636 44.3247 48.6642 44.1002 48.6483 43.8766C48.6323 43.653 48.5725 43.4348 48.4722 43.2343C48.3719 43.0338 48.2331 42.8551 48.0638 42.7082C47.8944 42.5614 47.6978 42.4494 47.4851 42.3785C47.2724 42.3077 47.0479 42.2795 46.8243 42.2954C46.6007 42.3113 46.3824 42.3712 46.182 42.4714Z" fill="white"/>
<path d="M64.012 27.7866H62.3054V22.6669C62.3032 20.4045 61.4035 18.2354 59.8037 16.6356C58.204 15.0359 56.0349 14.1362 53.7725 14.1339H48.6527V10.4067C49.7914 10.0041 50.7511 9.21197 51.3622 8.17025C51.9732 7.12853 52.1964 5.90431 51.9922 4.71397C51.7879 3.52363 51.1695 2.44381 50.2461 1.66536C49.3227 0.886916 48.1539 0.459961 46.9461 0.459961C45.7384 0.459961 44.5695 0.886916 43.6462 1.66536C42.7228 2.44381 42.1043 3.52363 41.9001 4.71397C41.6959 5.90431 41.919 7.12853 42.5301 8.17025C43.1412 9.21197 44.1009 10.0041 45.2395 10.4067V14.1339H24.7604V10.4067C25.8991 10.0041 26.8588 9.21197 27.4699 8.17025C28.081 7.12853 28.3041 5.90431 28.0999 4.71397C27.8957 3.52363 27.2772 2.44381 26.3538 1.66536C25.4304 0.886916 24.2616 0.459961 23.0539 0.459961C21.8461 0.459961 20.6773 0.886916 19.7539 1.66536C18.8305 2.44381 18.212 3.52363 18.0078 4.71397C17.8036 5.90431 18.0267 7.12853 18.6378 8.17025C19.2489 9.21197 20.2086 10.0041 21.3473 10.4067V14.1339H16.2275C13.9651 14.1362 11.796 15.0359 10.1963 16.6356C8.59652 18.2354 7.69679 20.4045 7.69453 22.6669V27.7866H5.98794C4.63057 27.7882 3.32926 28.3281 2.36946 29.2879C1.40966 30.2477 0.869745 31.549 0.868164 32.9064V39.7328C0.869745 41.0901 1.40966 42.3914 2.36946 43.3512C3.32926 44.311 4.63057 44.851 5.98794 44.8525H7.69453V51.6789C7.69679 53.9413 8.59652 56.1104 10.1963 57.7101C11.796 59.3099 13.9651 60.2096 16.2275 60.2119H24.7604V67.0382C24.7606 67.3428 24.8422 67.6418 24.9969 67.9041C25.1516 68.1665 25.3737 68.3827 25.6401 68.5302C25.9065 68.6778 26.2076 68.7514 26.512 68.7434C26.8165 68.7353 27.1133 68.646 27.3715 68.4846L40.6096 60.2119H53.7725C56.0349 60.2096 58.204 59.3099 59.8037 57.7101C61.4035 56.1104 62.3032 53.9413 62.3054 51.6789V44.8525H64.012C65.3694 44.851 66.6707 44.311 67.6305 43.3512C68.5903 42.3914 69.1302 41.0901 69.1318 39.7328V32.9064C69.1302 31.549 68.5903 30.2477 67.6305 29.2879C66.6707 28.3281 65.3694 27.7882 64.012 27.7866ZM46.9461 3.89435C47.2837 3.89435 47.6136 3.99444 47.8943 4.18196C48.1749 4.36949 48.3936 4.63602 48.5228 4.94786C48.652 5.2597 48.6858 5.60284 48.6199 5.93388C48.5541 6.26493 48.3915 6.56901 48.1529 6.80768C47.9142 7.04636 47.6101 7.20889 47.2791 7.27474C46.948 7.34059 46.6049 7.30679 46.293 7.17763C45.9812 7.04846 45.7147 6.82972 45.5271 6.54907C45.3396 6.26843 45.2395 5.93847 45.2395 5.60094C45.2404 5.1486 45.4205 4.71505 45.7404 4.3952C46.0602 4.07534 46.4938 3.89525 46.9461 3.89435ZM23.0539 3.89435C23.3914 3.89435 23.7213 3.99444 24.002 4.18196C24.2826 4.36949 24.5014 4.63602 24.6305 4.94786C24.7597 5.2597 24.7935 5.60284 24.7277 5.93388C24.6618 6.26493 24.4993 6.56901 24.2606 6.80768C24.0219 7.04636 23.7178 7.20889 23.3868 7.27474C23.0557 7.34059 22.7126 7.30679 22.4008 7.17763C22.0889 7.04846 21.8224 6.82972 21.6349 6.54907C21.4473 6.26843 21.3473 5.93847 21.3473 5.60094C21.3479 5.14853 21.528 4.71485 21.8479 4.39495C22.1678 4.07505 22.6014 3.89503 23.0539 3.89435ZM5.98794 41.4394C5.53553 41.4387 5.10185 41.2587 4.78194 40.9388C4.46204 40.6189 4.28202 40.1852 4.28135 39.7328V32.9064C4.28202 32.454 4.46204 32.0203 4.78194 31.7004C5.10185 31.3805 5.53553 31.2005 5.98794 31.1998H7.69453V41.4394H5.98794ZM58.8923 51.6789C58.8907 53.0363 58.3508 54.3376 57.391 55.2974C56.4312 56.2572 55.1299 56.7971 53.7725 56.7987H40.1198C39.8 56.7985 39.4868 56.8887 39.2161 57.0589L28.1736 63.9578V58.5053C28.1737 58.2811 28.1297 58.0592 28.0439 57.852C27.9582 57.6449 27.8325 57.4568 27.674 57.2983C27.5155 57.1398 27.3274 57.0141 27.1202 56.9284C26.9131 56.8426 26.6912 56.7986 26.467 56.7987H16.2275C14.8701 56.7971 13.5688 56.2572 12.609 55.2974C11.6492 54.3376 11.1093 53.0363 11.1077 51.6789V22.6669C11.1093 21.3095 11.6492 20.0082 12.609 19.0484C13.5688 18.0886 14.8701 17.5487 16.2275 17.5471H53.7725C55.1299 17.5487 56.4312 18.0886 57.391 19.0484C58.3508 20.0082 58.8907 21.3095 58.8923 22.6669V51.6789ZM65.7186 39.7328C65.7177 40.1851 65.5376 40.6187 65.2178 40.9385C64.8979 41.2584 64.4644 41.4385 64.012 41.4394H62.3054V31.1998H64.012C64.4644 31.2007 64.8979 31.3808 65.2178 31.7007C65.5376 32.0205 65.7177 32.4541 65.7186 32.9064V39.7328Z" fill="white"/>
<path d="M43.5329 24.373C42.1755 24.3746 40.8742 24.9145 39.9144 25.8743C38.9546 26.8341 38.4147 28.1355 38.4131 29.4928C38.4131 29.9454 38.5929 30.3795 38.9129 30.6996C39.233 31.0196 39.6671 31.1994 40.1197 31.1994C40.5723 31.1994 41.0064 31.0196 41.3264 30.6996C41.6465 30.3795 41.8263 29.9454 41.8263 29.4928C41.8263 29.0402 42.0061 28.6061 42.3261 28.2861C42.6462 27.966 43.0802 27.7862 43.5329 27.7862C43.9855 27.7862 44.4196 27.966 44.7396 28.2861C45.0597 28.6061 45.2395 29.0402 45.2395 29.4928C45.2395 29.9454 45.4193 30.3795 45.7393 30.6996C46.0593 31.0196 46.4934 31.1994 46.946 31.1994C47.3987 31.1994 47.8327 31.0196 48.1528 30.6996C48.4728 30.3795 48.6526 29.9454 48.6526 29.4928C48.6511 28.1355 48.1111 26.8341 47.1513 25.8743C46.1915 24.9145 44.8902 24.3746 43.5329 24.373Z" fill="white"/>
</svg>
