<svg width="21" height="20" viewBox="0 0 21 20" fill="none" xmlns="http://www.w3.org/2000/svg">
<path fill-rule="evenodd" clip-rule="evenodd" d="M10.5363 0C5.22804 0 0.924805 4.20819 0.924805 9.39926C0.924805 14.5903 5.22804 18.7985 10.5363 18.7985C12.8067 18.7985 14.8932 18.0287 16.5378 16.7415L19.6619 19.7886L19.745 19.8586C20.035 20.0685 20.4462 20.0446 20.7087 19.7873C20.9974 19.5043 20.9968 19.0459 20.7073 18.7636L17.62 15.7523C19.1897 14.0794 20.1479 11.8487 20.1479 9.39926C20.1479 4.20819 15.8447 0 10.5363 0ZM10.5363 1.44774C15.027 1.44774 18.6675 5.00776 18.6675 9.39926C18.6675 13.7908 15.027 17.3508 10.5363 17.3508C6.04566 17.3508 2.40524 13.7908 2.40524 9.39926C2.40524 5.00776 6.04566 1.44774 10.5363 1.44774Z" fill="#808191"/>
</svg>
