<svg width="24" height="24" viewBox="0 0 24 24" fill="none" xmlns="http://www.w3.org/2000/svg">
<path d="M12 16.667C13.2376 16.667 14.4246 16.1754 15.2997 15.3002C16.1749 14.4251 16.6665 13.2381 16.6665 12.0005C16.6665 10.7629 16.1749 9.57592 15.2997 8.70079C14.4246 7.82565 13.2376 7.334 12 7.334C10.7624 7.334 9.57542 7.82565 8.70029 8.70079C7.82515 9.57592 7.3335 10.7629 7.3335 12.0005C7.3335 13.2381 7.82515 14.4251 8.70029 15.3002C9.57542 16.1754 10.7624 16.667 12 16.667ZM20 22.667C20.7072 22.667 21.3854 22.3861 21.8855 21.886C22.3856 21.3859 22.6665 20.7077 22.6665 20.0005C22.6665 19.2933 22.3856 18.6151 21.8855 18.115C21.3854 17.6149 20.7072 17.334 20 17.334C19.2928 17.334 18.6146 17.6149 18.1145 18.115C17.6144 18.6151 17.3335 19.2933 17.3335 20.0005C17.3335 20.7077 17.6144 21.3859 18.1145 21.886C18.6146 22.3861 19.2928 22.667 20 22.667ZM6.667 20.667C5.7835 20.6646 4.93686 20.3126 4.31213 19.6879C3.6874 19.0631 3.33538 18.2165 3.333 17.333V14.667H3.00193e-07V17.333C-0.000262484 18.2086 0.172005 19.0757 0.50696 19.8847C0.841915 20.6937 1.33299 21.4287 1.95213 22.0479C2.57127 22.667 3.30634 23.1581 4.11534 23.493C4.92434 23.828 5.7914 24.0003 6.667 24H9.333V20.667H6.667ZM3.333 6.667C3.333 4.833 4.833 3.333 6.667 3.333H9.333V3.00193e-07H6.667C5.7914 -0.000262484 4.92434 0.172005 4.11534 0.50696C3.30634 0.841915 2.57127 1.33299 1.95213 1.95213C1.33299 2.57127 0.841915 3.30634 0.50696 4.11534C0.172005 4.92434 -0.000262484 5.7914 3.00193e-07 6.667V9.333H3.333V6.667ZM17.333 3.333C19.167 3.333 20.667 4.833 20.667 6.667V9.333H24V6.667C24.0003 5.7914 23.828 4.92434 23.493 4.11534C23.1581 3.30634 22.667 2.57127 22.0479 1.95213C21.4287 1.33299 20.6937 0.841915 19.8847 0.50696C19.0757 0.172005 18.2086 -0.000262484 17.333 3.00193e-07H14.667V3.333H17.333Z" fill="#808191"/>
</svg>
