<svg width="36" height="44" viewBox="0 0 36 44" fill="none" xmlns="http://www.w3.org/2000/svg">
<path d="M34.9072 23.6061L32.1458 22.8355C31.8247 21.2942 31.1826 19.8814 30.3477 18.5329L31.7605 16.0284C31.889 15.8357 31.8247 15.5788 31.6963 15.4504L28.9349 12.689C28.8065 12.5606 28.5496 12.4964 28.357 12.6248L27.0084 13.3312L26.1093 12.689C26.6873 11.5331 26.9442 10.1845 26.9442 8.90014C26.9442 5.62501 25.146 2.60675 22.2562 1.06551C21.9351 0.87286 21.5498 1.12973 21.5498 1.51504V8.51483L17.9536 10.1203L14.3574 8.57904V1.57926C14.3574 1.19395 13.9721 1.0013 13.651 1.12973C10.7612 2.73519 9.02727 5.75344 9.02727 8.96435C9.02727 10.3772 9.34837 11.7257 9.92633 12.8817L9.21993 13.3312L7.87135 12.6248C7.67869 12.4964 7.42182 12.5606 7.29338 12.689L4.532 15.4504C4.40356 15.5788 4.33935 15.8357 4.46778 16.0284L5.88058 18.5329C5.04575 19.8814 4.46778 21.2942 4.08247 22.8355L1.32109 23.6061C1.12844 23.6703 1 23.863 1 24.0556V27.9729C1 28.1656 1.12844 28.3583 1.32109 28.4225L4.08247 29.1931C4.40356 30.7343 5.04575 32.1471 5.88058 33.4957L4.532 36.1287C4.40356 36.3213 4.46778 36.5782 4.59622 36.7066L7.3576 39.468C7.48604 39.5964 7.74291 39.6607 7.93557 39.5322L10.4401 38.1194C11.7887 38.9543 13.2015 39.5322 14.7427 39.9175L15.5133 42.6789C15.5775 42.8716 15.7702 43 15.9628 43H20.2012C20.3939 43 20.5866 42.8716 20.6508 42.6789L21.4214 39.9175C22.9626 39.5964 24.3754 38.9543 25.724 38.1194L28.2285 39.5322C28.4212 39.6607 28.678 39.5964 28.8065 39.468L31.5679 36.7066C31.6963 36.5782 31.7605 36.3213 31.6321 36.1287L30.3477 33.5599C31.1826 32.2113 31.7605 30.7985 32.1458 29.2573L34.9072 28.4867C35.0999 28.4225 35.2283 28.2298 35.2283 28.0372V24.1198C35.2925 23.863 35.1641 23.6703 34.9072 23.6061ZM13.3941 2.34988V8.7717C13.3941 8.96435 13.5225 9.15701 13.7152 9.22123L17.8252 11.0193C17.9536 11.0836 18.082 11.0836 18.2105 11.0193L22.3204 9.22123C22.5131 9.15701 22.5773 8.96435 22.5773 8.7717V2.34988C24.6965 3.8269 25.9809 6.26719 26.0451 8.90014C26.0451 11.79 24.5039 14.4871 21.9351 15.8999C21.8067 15.9641 21.6783 16.1568 21.6783 16.3494V30.927C20.715 31.6334 19.6233 32.0187 18.4031 32.0829C16.9261 32.1471 15.5775 31.6334 14.4858 30.7343V16.4137C14.4858 16.221 14.4216 16.0926 14.2289 15.9641C11.6602 14.5513 10.0548 11.8542 10.0548 8.96435C9.99055 6.26719 11.2749 3.8269 13.3941 2.34988ZM22.5773 29.9637V22.2575C24.5039 24.4409 24.5681 27.7161 22.5773 29.9637ZM12.2382 26.1106C12.2382 24.8263 12.6877 23.5419 13.4583 22.5786V29.7068C12.6877 28.6151 12.2382 27.3308 12.2382 26.1106ZM34.3292 27.6519L31.6321 28.4225C31.4394 28.4867 31.311 28.6151 31.311 28.8078C30.9899 30.4132 30.3477 31.8903 29.4487 33.3031C29.3202 33.4315 29.3202 33.6241 29.4487 33.8168L30.7972 36.2571L28.5496 38.5047L26.1093 37.1561C25.9809 37.0919 25.7882 37.0919 25.5956 37.1561C24.1828 38.0552 22.7058 38.6974 21.1003 39.0185C20.9076 39.0827 20.7792 39.2111 20.715 39.3396L19.9444 42.0367H16.4124L15.6417 39.3396C15.5775 39.1469 15.4491 39.0185 15.2564 39.0185C13.651 38.6974 12.174 38.0552 10.7612 37.1561C10.6327 37.0277 10.4401 37.0277 10.2474 37.1561L7.80713 38.5047L5.55949 36.2571L6.90807 33.8168C6.97229 33.6884 6.97229 33.4957 6.90807 33.3031C6.00902 31.8903 5.36684 30.4132 5.04575 28.8078C4.98153 28.6151 4.85309 28.4867 4.72466 28.4225L2.02749 27.6519V24.4409L4.72466 23.6703C4.91731 23.6061 5.04575 23.4777 5.04575 23.285C5.36684 21.6796 6.00902 20.2025 6.90807 18.7897C7.03651 18.6613 7.03651 18.4686 6.90807 18.276L5.55949 15.8357L7.80713 13.5881L9.09149 14.2945C9.21993 14.3587 9.4768 14.3587 9.60524 14.2945L10.4401 13.7165C11.2107 14.8724 12.2382 15.8999 13.4583 16.6063V21.1016C12.1097 22.386 11.2749 24.1841 11.2749 26.1106C11.2749 29.1931 13.3941 31.9545 16.4766 32.7893C23.6048 34.5874 28.0359 25.5327 22.5773 20.9089V16.6063C23.8617 15.8357 24.8892 14.8082 25.6598 13.5881L26.7515 14.3587C26.8799 14.4871 27.0726 14.4871 27.2652 14.3587L28.5496 13.6523L30.7972 15.8999L29.4487 18.3402C29.3844 18.4686 29.3844 18.6613 29.4487 18.854C30.3477 20.2668 30.9899 21.7438 31.311 23.3492C31.3752 23.5419 31.5036 23.6703 31.6321 23.7345L34.3292 24.5052V27.6519Z" fill="#0D99FF" stroke="#0D99FF"/>
</svg>
