<svg width="58" height="71" viewBox="0 0 58 71" fill="none" xmlns="http://www.w3.org/2000/svg">
<path d="M56.151 38.2074L51.6621 36.9547C51.1402 34.4493 50.0963 32.1527 48.7392 29.9605L51.0358 25.8892C51.2446 25.576 51.1402 25.1585 50.9314 24.9497L46.4426 20.4608C46.2338 20.2521 45.8162 20.1477 45.503 20.3565L43.3108 21.5048L41.8493 20.4608C42.7889 18.5818 43.2064 16.3896 43.2064 14.3017C43.2064 8.97777 40.2835 4.07137 35.5858 1.56597C35.0639 1.2528 34.4375 1.67036 34.4375 2.29671V13.6754L28.5916 16.2852L22.7457 13.7798V2.4011C22.7457 1.77475 22.1193 1.46158 21.5974 1.67036C16.8997 4.28015 14.0812 9.18656 14.0812 14.4061C14.0812 16.7028 14.6031 18.895 15.5427 20.774L14.3943 21.5048L12.2021 20.3565C11.8889 20.1477 11.4714 20.2521 11.2626 20.4608L6.77376 24.9497C6.56498 25.1585 6.46059 25.576 6.66937 25.8892L8.96598 29.9605C7.60889 32.1527 6.66937 34.4493 6.04302 36.9547L1.55418 38.2074C1.24101 38.3118 1.03223 38.625 1.03223 38.9382V45.306C1.03223 45.6192 1.24101 45.9324 1.55418 46.0368L6.04302 47.2895C6.56498 49.7949 7.60889 52.0915 8.96598 54.2837L6.77376 58.5638C6.56498 58.8769 6.66937 59.2945 6.87815 59.5033L11.367 63.9921C11.5758 64.2009 11.9933 64.3053 12.3065 64.0965L16.3778 61.7999C18.57 63.157 20.8666 64.0965 23.372 64.7229L24.6247 69.2117C24.7291 69.5249 25.0423 69.7337 25.3555 69.7337H32.2453C32.5585 69.7337 32.8717 69.5249 32.976 69.2117L34.2287 64.7229C36.7341 64.2009 39.0308 63.157 41.223 61.7999L45.2943 64.0965C45.6074 64.3053 46.025 64.2009 46.2338 63.9921L50.7226 59.5033C50.9314 59.2945 51.0358 58.8769 50.827 58.5638L48.7392 54.3881C50.0963 52.1959 51.0358 49.8993 51.6621 47.3939L56.151 46.1412C56.4641 46.0368 56.6729 45.7236 56.6729 45.4104V39.0425C56.7773 38.625 56.5685 38.3118 56.151 38.2074ZM21.1798 3.6538V14.093C21.1798 14.4061 21.3886 14.7193 21.7018 14.8237L28.3828 17.7467C28.5916 17.8511 28.8004 17.8511 29.0092 17.7467L35.6902 14.8237C36.0034 14.7193 36.1078 14.4061 36.1078 14.093V3.6538C39.5527 6.05481 41.6405 10.0217 41.7449 14.3017C41.7449 18.9994 39.2395 23.3838 35.0639 25.6804C34.8551 25.7848 34.6463 26.098 34.6463 26.4112V50.1081C33.0804 51.2564 31.3058 51.8827 29.3223 51.9871C26.9213 52.0915 24.7291 51.2564 22.9545 49.7949V26.5156C22.9545 26.2024 22.8501 25.9936 22.5369 25.7848C18.3612 23.4882 15.7514 19.1038 15.7514 14.4061C15.647 10.0217 17.7349 6.05481 21.1798 3.6538ZM36.1078 48.5422V36.0152C39.2395 39.5645 39.3439 44.8885 36.1078 48.5422ZM19.3008 42.2787C19.3008 40.1909 20.0315 38.103 21.2842 36.5372V48.1246C20.0315 46.35 19.3008 44.2621 19.3008 42.2787ZM55.2114 44.7841L50.827 46.0368C50.5138 46.1412 50.305 46.35 50.305 46.6631C49.7831 49.2729 48.7392 51.6739 47.2777 53.9705C47.0689 54.1793 47.0689 54.4925 47.2777 54.8057L49.4699 58.7726L45.8162 62.4263L41.8493 60.234C41.6405 60.1296 41.3274 60.1296 41.0142 60.234C38.7176 61.6955 36.3166 62.7394 33.7068 63.2614C33.3936 63.3658 33.1848 63.5746 33.0804 63.7834L31.8277 68.1678H26.0862L24.8335 63.7834C24.7291 63.4702 24.5203 63.2614 24.2072 63.2614C21.5974 62.7394 19.1964 61.6955 16.8997 60.234C16.691 60.0253 16.3778 60.0253 16.0646 60.234L12.0977 62.4263L8.44403 58.7726L10.6363 54.8057C10.7406 54.5969 10.7406 54.2837 10.6363 53.9705C9.17477 51.6739 8.13085 49.2729 7.6089 46.6631C7.5045 46.35 7.29572 46.1412 7.08694 46.0368L2.70249 44.7841V39.5645L7.08694 38.3118C7.40011 38.2074 7.6089 37.9986 7.6089 37.6855C8.13085 35.0757 9.17477 32.6747 10.6363 30.378C10.845 30.1693 10.845 29.8561 10.6363 29.5429L8.44403 25.576L12.0977 21.9223L14.1856 23.0706C14.3943 23.175 14.8119 23.175 15.0207 23.0706L16.3778 22.1311C17.6305 24.0102 19.3008 25.6804 21.2842 26.8287V34.1361C19.092 36.224 17.7349 39.1469 17.7349 42.2787C17.7349 47.2895 21.1798 51.7783 26.1906 53.1354C37.7781 56.0584 44.9811 41.3392 36.1078 33.823V26.8287C38.1956 25.576 39.8659 23.9058 41.1186 21.9223L42.8932 23.175C43.102 23.3838 43.4152 23.3838 43.7284 23.175L45.8162 22.0267L49.4699 25.6804L47.2777 29.6473C47.1733 29.8561 47.1733 30.1693 47.2777 30.4824C48.7392 32.7791 49.7831 35.1801 50.305 37.7898C50.4094 38.103 50.6182 38.3118 50.827 38.4162L55.2114 39.6689V44.7841Z" fill="white" stroke="white" stroke-width="2"/>
</svg>
