<svg width="507" height="454" viewBox="0 0 507 454" fill="none" xmlns="http://www.w3.org/2000/svg">
<path d="M499.29 121.346C499.192 121.346 498.995 121.346 498.897 121.248C498.111 121.051 497.717 120.167 497.914 119.38C506.466 91.1677 503.419 60.2026 489.362 34.3492C488.968 33.6611 489.263 32.7764 489.952 32.3831C490.64 31.9899 491.524 32.2848 491.918 32.973C506.27 59.5145 509.514 91.3643 500.666 120.265C500.568 120.953 499.978 121.346 499.29 121.346Z" fill="white"/>
<path d="M51.2305 314.215C50.739 314.215 50.3458 314.018 50.0509 313.625C33.9294 292.49 29.6041 262.803 39.0411 238.031C39.336 237.245 40.2207 236.851 40.9088 237.146C41.6952 237.441 42.0884 238.326 41.7935 239.014C32.7498 262.901 36.8784 291.507 52.4101 311.856C52.9016 312.544 52.8033 313.429 52.1152 313.92C51.9186 314.117 51.5254 314.215 51.2305 314.215Z" fill="white"/>
<path d="M22.7233 285.019C22.3301 285.019 21.8386 284.822 21.5437 284.429C17.3167 279.023 15.6455 271.748 17.0218 265.064C17.2184 264.277 18.0048 263.786 18.7912 263.884C19.5776 264.081 20.0691 264.867 19.9708 265.653C18.6929 271.552 20.1674 277.843 23.9029 282.561C24.3944 283.25 24.2961 284.134 23.608 284.626C23.3131 284.921 23.0182 285.019 22.7233 285.019Z" fill="white"/>
<path d="M191.704 332.007C178.925 328.567 165.458 324.438 147.96 318.343C140.587 315.787 133.411 313.232 126.628 310.774C124.564 310.086 122.303 309.398 119.944 308.71C114.636 307.235 109.229 305.662 105.1 302.91C99.4971 299.174 101.463 291.998 101.463 286.592C101.561 279.809 101.66 270.962 101.66 262.115C101.66 243.044 101.365 227.512 100.775 213.259C100.578 209.72 100.283 206.083 99.792 201.954C99.6937 201.167 100.283 200.381 101.07 200.283C101.856 200.184 102.643 200.774 102.741 201.561C103.233 205.689 103.626 209.425 103.724 213.062C104.412 227.414 104.609 243.044 104.609 262.115C104.609 270.962 104.51 279.907 104.412 286.592C104.412 287.771 104.314 288.951 104.216 290.131C103.921 294.358 103.527 298.388 106.673 300.452C110.409 302.91 115.619 304.384 120.73 305.859C123.188 306.547 125.547 307.235 127.611 308.022C134.394 310.479 141.57 313.035 148.943 315.591C166.342 321.587 179.81 325.814 192.491 329.156C197.996 330.631 204.778 332.4 211.266 331.909C218.049 331.417 223.751 328.272 226.601 323.652C226.995 322.963 227.879 322.767 228.666 323.16C229.354 323.553 229.55 324.438 229.157 325.224C225.913 330.729 219.327 334.366 211.561 334.956C204.68 335.349 198.094 333.678 191.704 332.007Z" fill="white"/>
<path d="M172.044 81.436C172.044 81.436 172.044 81.3377 172.142 81.3377C172.24 81.1411 172.437 80.9445 172.535 80.6496C172.732 80.3546 172.83 80.158 173.027 79.9614C159.854 80.5512 145.404 81.7309 130.462 82.9105C103.92 84.9748 92.419 107.486 90.5512 127.834C90.0597 133.634 90.0597 139.729 90.5512 146.315C90.6496 147.102 91.3377 147.691 92.1241 147.691C92.9105 147.593 93.5003 146.905 93.5003 146.119C93.0088 139.729 93.0088 133.831 93.5003 128.228C95.2697 109.059 105.985 87.9239 130.757 86.0562C144.617 84.9748 158.674 83.7952 171.06 83.2054C171.159 82.0258 171.749 81.8292 172.044 81.436Z" fill="white"/>
<path d="M5.71745 87.3338C4.93104 87.1372 4.43952 86.3508 4.63613 85.5644C6.01235 79.568 10.3376 74.2597 16.0392 71.8021C16.8256 71.5072 17.612 71.8021 18.0052 72.5885C18.3001 73.3749 18.0052 74.1614 17.2188 74.5546C12.402 76.6189 8.6665 81.1408 7.48688 86.2525C7.29028 87.0389 6.50387 87.5304 5.71745 87.3338Z" fill="white"/>
<path d="M0.801988 76.7176C0.113875 76.3244 -0.181035 75.4397 0.113871 74.7516C1.785 71.4093 4.43916 68.5585 7.68312 66.5925C8.37123 66.1993 9.25595 66.3959 9.74746 67.084C10.1407 67.7721 9.94406 68.6568 9.25595 69.1483C6.5035 70.7212 4.24255 73.1787 2.86633 76.0295C2.47312 76.8159 1.5884 77.1108 0.801988 76.7176Z" fill="white"/>
<path d="M232.008 172.562C232.991 175.806 233.384 179.246 232.991 182.687C232.794 184.161 232.5 185.734 232.893 187.209C233.286 188.683 234.564 190.059 236.137 189.863C237.71 189.666 238.594 187.995 239.184 186.52C242.821 177.968 245.279 168.826 246.655 159.684C244.591 164.206 242.625 168.728 240.56 173.25C240.167 174.233 239.577 175.314 238.594 175.707C237.12 176.297 235.449 175.216 234.76 173.84C233.974 172.463 233.777 170.89 233.188 169.416C232.598 167.941 231.32 166.565 229.747 166.762C230.435 169.907 231.91 172.857 233.876 175.412L232.008 172.562Z" fill="white"/>
<path d="M165.36 142.285C167.326 140.417 168.604 137.861 170.472 135.895C173.028 133.143 176.763 131.472 178.926 128.424C180.695 125.967 181.285 122.723 181.089 119.675C180.892 116.628 180.007 113.679 179.123 110.73C180.204 118.103 175.879 125.967 169.096 129.014C167.228 129.801 165.164 130.39 163.787 131.865C162.608 133.143 162.215 134.912 161.723 136.583C161.232 138.255 160.543 139.926 159.167 141.007C157.791 141.99 155.432 141.793 154.744 140.221C153.957 141.204 154.154 142.776 155.039 143.563C157.398 145.627 163.296 144.251 165.36 142.285Z" fill="white"/>
<path d="M122.009 188.683C124.663 185.538 129.971 181.704 133.51 179.738C134.297 179.246 135.378 178.853 136.066 179.443C136.557 179.836 136.656 180.524 136.656 181.212C136.852 185.439 137.049 189.765 137.246 193.992C137.344 197.039 139.605 203.822 139.605 206.869C139.31 219.845 132.822 228.594 128.202 240.783C131.053 227.906 130.463 214.34 126.727 201.758C125.056 196.253 120.534 192.124 123.483 187.209L122.009 188.683Z" fill="white"/>
<path d="M111.785 151.328C114.046 149.166 119.158 145.922 122.107 145.037C119.158 150.149 114.636 158.111 111.588 163.125C110.605 164.796 109.524 166.565 107.656 167.155C106.084 167.647 104.216 167.155 102.938 166.074C101.66 164.992 100.677 163.518 99.9888 162.043C98.8092 159.684 97.6296 157.03 97.5312 154.474C100.185 153.983 101.857 156.833 104.412 157.325C107.755 157.816 109.327 153.589 111.785 151.328Z" fill="white"/>
<path d="M48.7732 144.349C50.8375 144.644 53.0985 144.841 54.8679 143.661C56.834 142.383 57.4238 139.729 57.9153 137.37C58.7017 133.143 58.1119 128.916 58.8983 124.689C59.1932 123.018 59.6847 119.184 59.2915 117.513C58.8983 115.94 58.9966 116.628 57.3255 116.333C56.7356 121.74 57.6204 126.458 57.0306 131.865C56.8339 133.732 57.6204 138.942 56.1458 140.024C54.9662 140.908 49.9528 140.319 48.5766 140.22C34.2245 139.827 20.8555 140.417 14.7607 137.665C15.4489 142.383 23.4113 142.973 29.6043 143.268C39.1396 143.858 42.187 144.251 48.7732 144.349Z" fill="white"/>
<path d="M254.717 151.132C254.422 151.132 254.225 151.034 253.93 150.935C253.242 150.542 253.045 149.559 253.439 148.871C254.815 146.61 255.503 143.268 255.896 141.695C255.995 141.4 255.995 141.203 256.093 141.007C256.584 138.844 257.174 136.78 257.961 135.207C257.961 135.109 258.059 135.01 258.059 134.912C258.649 133.929 259.239 132.848 260.025 131.865C260.713 131.078 261.401 130.489 262.089 129.997C264.35 128.719 267.004 128.817 269.462 129.112C270.642 129.211 272.214 129.407 273.591 130.095C275.36 130.98 276.441 132.553 276.441 134.126C276.441 136.583 274.082 138.254 271.723 138.844C271.133 138.943 270.543 139.041 269.757 139.041C269.167 139.041 268.184 139.139 267.692 139.237C267.692 139.827 267.987 141.105 268.381 141.498C269.069 141.892 269.265 142.875 268.774 143.563C268.381 144.251 267.398 144.447 266.709 143.956C265.333 143.071 264.743 140.81 264.743 139.434C264.743 137.959 265.333 137.271 265.825 136.878C265.923 136.78 266.021 136.78 266.12 136.682C267.103 136.19 268.381 136.092 269.56 136.092C270.15 136.092 270.74 136.092 271.035 135.993C272.214 135.699 273.492 135.01 273.492 134.224C273.492 133.733 273.001 133.143 272.313 132.848C271.428 132.455 270.248 132.258 269.167 132.16C267.103 131.963 265.137 131.766 263.662 132.651C263.269 132.848 262.777 133.339 262.384 133.831C261.696 134.617 261.205 135.502 260.615 136.485C260.615 136.485 260.516 136.583 260.516 136.682C259.828 137.861 259.337 139.827 258.845 141.793C258.845 141.99 258.747 142.186 258.747 142.383C258.354 144.153 257.567 147.79 255.896 150.444C255.7 150.837 255.208 151.132 254.717 151.132Z" fill="white"/>
<path d="M276.835 156.932C276.54 156.932 276.343 156.833 276.048 156.735C275.36 156.342 275.065 155.457 275.557 154.671C278.801 149.067 279.685 147.396 282.634 141.4L283.224 140.318C283.421 139.827 283.716 139.434 283.814 139.041C284.011 138.451 284.109 137.959 284.109 137.566C284.109 136.976 283.716 136.386 283.224 136.288C282.831 136.288 282.339 136.583 281.946 136.976L281.553 137.369C281.061 137.959 280.472 138.647 280.078 139.237L279.784 139.63C279.587 140.024 279.292 140.417 279.095 140.908C279.095 140.908 279.095 140.908 279.095 141.007C279.095 141.105 278.997 141.203 278.997 141.302L278.899 141.498C278.702 141.99 278.604 142.383 278.801 142.579C278.801 142.579 278.801 142.579 278.899 142.579C279.194 141.99 279.882 141.695 280.57 141.891C281.356 142.088 281.848 142.973 281.553 143.759C281.258 144.644 280.57 145.332 279.587 145.528C278.506 145.823 277.326 145.43 276.54 144.644C275.557 143.562 275.458 141.793 276.245 140.318L276.343 140.122C276.343 140.024 276.441 139.925 276.441 139.925C276.441 139.827 276.54 139.827 276.54 139.729C276.834 139.139 277.129 138.746 277.424 138.254L277.719 137.763C278.211 137.075 278.801 136.386 279.39 135.698L279.784 135.305C280.865 134.125 282.241 133.437 283.617 133.536C285.78 133.732 287.156 135.797 287.255 137.664C287.255 138.549 287.156 139.434 286.763 140.318C286.566 140.81 286.271 141.4 286.075 141.891L285.485 142.973C282.438 149.067 281.553 150.738 278.309 156.44C277.818 156.637 277.326 156.932 276.835 156.932Z" fill="white"/>
<path d="M274.966 143.464C274.18 143.464 273.394 143.267 272.705 142.776C272.214 142.481 271.624 141.793 271.428 140.613C271.133 138.942 271.821 136.976 272.509 135.895C273 135.206 273.885 135.108 274.573 135.6C275.261 136.091 275.36 136.976 274.868 137.664C274.278 138.45 274.082 140.122 274.377 140.416C274.573 140.515 274.77 140.613 275.163 140.515C275.753 140.318 276.244 139.827 276.441 139.433C276.736 138.647 277.621 138.352 278.407 138.647C279.193 138.942 279.488 139.827 279.193 140.613C278.702 141.891 277.424 142.972 276.048 143.366C275.654 143.464 275.261 143.464 274.966 143.464Z" fill="white"/>
<path d="M283.027 136.092C282.83 136.092 282.634 136.092 282.437 135.993C281.749 135.698 281.356 134.912 281.552 134.224C281.552 133.929 281.257 133.339 280.962 133.044C280.667 132.749 279.488 132.159 279.095 132.061C278.407 132.159 277.718 131.865 277.522 131.176C277.325 130.685 277.129 130.488 276.342 130.193C275.359 129.899 273.983 129.899 273.59 130.095C273.098 130.39 272.41 130.39 271.919 129.997C271.427 129.604 271.231 129.014 271.427 128.424C273 123.705 274.671 118.692 275.949 113.777C276.146 112.991 276.244 112.302 276.244 111.811C276.146 111.418 275.949 111.025 275.654 110.926C275.261 110.828 274.671 110.926 274.278 111.319C273.688 111.811 273.393 112.696 273 113.482L265.332 131.275C265.037 132.061 264.153 132.356 263.366 132.061C262.58 131.766 262.285 130.882 262.58 130.095L270.247 112.302C270.641 111.319 271.132 110.14 272.115 109.157C273.393 107.977 275.163 107.584 276.637 108.174C277.915 108.665 278.8 109.943 278.996 111.418C279.193 112.499 278.898 113.482 278.701 114.563C277.62 118.79 276.244 123.116 274.868 127.146C275.752 127.146 276.539 127.343 277.03 127.539C278.21 127.932 278.996 128.424 279.586 129.309C280.962 129.604 282.535 130.587 283.027 131.078C283.813 131.963 284.894 133.831 284.305 135.305C284.108 135.797 283.617 136.092 283.027 136.092Z" fill="white"/>
<path d="M273.688 138.353C273.393 138.353 273.098 138.254 272.803 138.058C272.115 137.566 272.017 136.682 272.508 135.994C272.803 135.6 273.885 134.224 274.966 132.848C276.047 131.472 277.129 130.095 277.423 129.702C277.915 129.014 278.8 128.916 279.488 129.407C280.176 129.899 280.274 130.784 279.783 131.472C279.488 131.865 278.406 133.241 277.325 134.617C276.244 135.994 275.163 137.37 274.868 137.763C274.573 138.156 274.179 138.353 273.688 138.353Z" fill="white"/>
<path d="M219.523 204.117C218.835 204.117 218.245 203.625 218.049 203.035C217.656 201.463 216.476 199.595 215.296 197.825C214.019 195.859 212.642 193.697 212.151 191.731C211.954 190.944 212.446 190.158 213.232 189.961C214.019 189.765 214.805 190.256 215.002 191.043C215.395 192.615 216.574 194.483 217.754 196.253C219.032 198.219 220.408 200.381 220.9 202.347C221.096 203.134 220.605 203.92 219.818 204.117C219.72 204.117 219.622 204.117 219.523 204.117Z" fill="white"/>
<path d="M196.422 114.956C194.26 114.956 192.097 114.17 190.623 112.401C190.131 111.811 190.131 110.828 190.819 110.336C191.409 109.845 192.392 109.845 192.883 110.533C194.751 112.696 198.585 112.302 200.748 110.533C203.107 108.567 204.68 105.519 205.171 101.981C206.056 96.0825 205.859 90.9708 204.581 87.3336C204.287 86.5472 204.778 85.7608 205.564 85.4659C206.351 85.171 207.137 85.6625 207.432 86.4489C208.808 90.6759 209.005 95.9842 208.12 102.472C207.53 106.699 205.564 110.435 202.615 112.892C200.944 114.17 198.683 114.956 196.422 114.956Z" fill="white"/>
<path d="M194.947 131.963C194.161 131.963 193.473 131.275 193.473 130.488C193.473 128.031 193.768 124.295 193.964 121.051C194.161 118.495 194.456 115.35 194.357 114.662C194.161 113.875 194.554 113.089 195.34 112.892C196.127 112.597 196.913 113.089 197.208 113.875C197.405 114.563 197.405 116.038 196.913 121.346C196.618 124.59 196.422 128.227 196.422 130.587C196.422 131.275 195.734 131.963 194.947 131.963Z" fill="white"/>
<path d="M184.724 110.238C184.626 110.238 184.429 110.238 184.331 110.14C181.283 109.255 179.219 106.699 178.334 104.536C178.04 103.75 178.433 102.963 179.121 102.57C179.907 102.275 180.694 102.669 181.087 103.357C181.677 104.831 183.053 106.699 185.117 107.289C185.904 107.485 186.395 108.37 186.1 109.156C185.904 109.845 185.314 110.238 184.724 110.238Z" fill="white"/>
<path d="M201.632 102.472C201.435 102.472 201.14 102.472 200.943 102.373C200.157 102.177 199.764 101.292 199.96 100.506C200.157 99.8176 200.845 99.3261 201.533 99.4244C201.533 99.3261 201.632 99.2278 201.632 99.2278C201.632 98.7363 201.14 98.1465 200.649 97.5567L200.55 97.4584C199.764 96.4754 198.977 95.1974 199.076 93.7229C199.174 92.9365 199.862 92.3467 200.649 92.3467C201.435 92.445 202.025 93.1331 202.025 93.9195C202.025 94.411 202.418 95.0008 202.91 95.4923L203.008 95.5906C203.696 96.4754 204.482 97.4584 204.679 98.8346C204.777 99.9159 204.286 100.997 203.499 101.685C202.811 102.275 202.221 102.472 201.632 102.472Z" fill="white"/>
<path d="M200.353 106.896C199.763 106.896 199.272 106.798 198.78 106.601C197.994 106.306 197.699 105.421 197.994 104.635C198.289 103.849 199.174 103.554 199.96 103.849C200.255 103.947 200.648 103.947 200.845 103.75C201.533 103.357 202.418 103.554 202.909 104.242C203.302 104.93 203.106 105.815 202.418 106.306C201.729 106.699 201.041 106.896 200.353 106.896Z" fill="white"/>
<path d="M119.452 135.108C118.666 135.108 117.978 134.518 117.978 133.732C117.978 132.945 118.567 132.257 119.354 132.159C125.252 131.864 128.692 124.983 129.577 122.82C130.167 121.346 130.757 119.675 131.347 118.2C132.625 114.563 133.902 110.828 136.36 107.78C140.194 102.865 146.19 100.408 151.007 96.9669C158.281 91.7569 164.573 83.303 166.539 75.9303C166.735 75.1439 167.522 74.6524 168.308 74.849C169.095 75.0456 169.586 75.832 169.389 76.6185C167.227 84.5809 160.542 93.723 152.678 99.3262C151.105 100.408 149.434 101.489 147.861 102.374C144.322 104.536 140.98 106.502 138.621 109.55C136.458 112.302 135.279 115.644 134.099 119.183C133.509 120.756 133.018 122.427 132.33 124C129.479 130.684 124.662 134.813 119.452 135.108Z" fill="white"/>
<path d="M208.219 79.6662C206.646 75.4392 202.91 71.7037 198.782 70.0326C192.097 67.3784 183.938 67.4767 180.694 67.6733C175.681 67.9682 172.142 69.0496 169.488 71.2122C165.556 74.3579 164.18 79.3713 162.41 83.7949C159.264 91.4624 154.251 98.1469 147.763 103.357C144.126 106.208 139.801 108.862 137.638 113.384C136.36 116.038 136.065 118.889 135.672 121.641C135.574 122.427 135.475 123.214 135.377 123.902C134.787 127.932 133.509 130.587 131.543 131.963C130.855 132.454 129.97 132.847 129.086 133.241C126.726 134.322 124.072 135.502 123.679 138.549C123.384 140.515 124.269 142.481 125.94 143.759C128.594 145.725 131.936 145.43 134.197 144.939C134.689 144.84 135.279 144.742 135.77 144.545C137.146 144.251 138.523 143.956 139.801 143.956H139.899C142.553 143.956 145.109 145.037 147.763 146.315C148.451 146.61 149.041 146.905 149.729 147.2C150.122 147.396 150.417 147.494 150.81 147.691C152.383 148.379 154.349 149.264 156.217 149.264C157.79 149.264 159.363 148.674 160.641 147.003C161.624 145.725 162.115 144.251 162.607 142.874C162.902 142.088 163.098 141.4 163.491 140.712C165.064 137.468 168.21 135.403 171.65 133.142C173.911 131.668 176.172 130.193 178.04 128.326C182.07 124.295 184.233 118.397 183.447 113.384C183.348 113.089 183.348 112.794 183.25 112.401C182.66 109.943 182.169 107.289 181.776 104.831C181.579 103.947 181.481 103.16 181.284 102.276C181.186 101.882 180.989 101.489 180.596 101.293C180.203 101.096 179.81 100.998 179.416 101.096C177.45 101.587 175.484 101.194 174.305 100.015C173.715 99.4249 173.518 98.5401 173.616 97.6554C173.911 95.5911 175.484 93.8216 176.762 93.5267C176.959 93.5267 177.647 93.3301 178.335 94.6081C178.63 95.0996 179.121 95.4928 179.711 95.5911C181.579 95.886 184.036 93.8216 191.016 87.3337C193.473 84.9745 196.029 82.6152 198.487 80.6492C200.453 84.5813 203.893 87.9235 206.744 88.415C207.334 88.5133 208.022 88.2184 208.317 87.6286C209.3 85.3677 209.3 82.6152 208.219 79.6662ZM183.25 78.6832C178.433 79.273 174.206 83.1067 173.223 87.8252C173.027 88.5133 172.928 89.2998 172.83 90.0862C172.24 94.7064 171.552 96.0826 167.325 99.4248C165.556 100.899 163.786 102.276 163.295 104.242C163 105.52 163.196 106.896 163.491 108.37C164.18 112.106 164.278 114.563 160.739 119.97C156.905 125.868 152.187 131.176 146.878 135.698C146.682 135.895 146.485 135.895 146.289 135.895C145.994 135.895 145.699 135.797 145.502 135.502C145.109 135.108 145.207 134.42 145.6 134.125C150.81 129.702 155.332 124.492 159.068 118.79C160.542 116.529 161.919 114.072 161.919 111.516C161.919 109.058 160.641 106.404 161.329 103.652C162.41 99.0316 168.013 97.4588 169.783 93.8216C170.766 91.9539 170.667 89.5947 171.159 87.2354C172.339 81.7305 177.254 77.3069 182.857 76.6188C183.447 76.5205 183.84 76.9137 183.938 77.5035C184.135 78.0933 183.742 78.5849 183.25 78.6832Z" fill="white"/>
<path d="M120.633 272.24C119.846 271.945 119.453 271.159 119.65 270.372C128.399 243.929 130.168 211.391 123.68 194.778C123.385 193.992 123.778 193.205 124.565 192.91C125.351 192.616 126.138 193.009 126.433 193.795C133.117 210.998 131.446 244.421 122.5 271.454C122.206 272.043 121.321 272.535 120.633 272.24Z" fill="white"/>
<path d="M59.6843 143.071C58.7996 140.908 57.8166 138.451 56.1455 136.78C55.5557 136.19 55.5557 135.305 56.1455 134.715C56.7353 134.125 57.62 134.125 58.2098 134.715C60.1759 136.681 61.3555 139.434 62.3385 141.891C62.6334 142.678 62.2402 143.464 61.5521 143.857C60.864 144.152 59.9793 143.857 59.6843 143.071Z" fill="white"/>
<path d="M78.2641 133.044C76.3964 130.488 74.8235 127.539 73.5456 124.983C71.4813 120.855 69.3186 116.529 66.3696 113.187C64.2069 110.828 61.5528 109.059 58.8986 108.272C57.0309 107.682 53.8852 107.486 52.3124 108.665C51.7226 109.157 51.3294 109.943 51.526 110.533C51.7226 111.319 52.7056 111.909 53.6886 112.204C55.0649 112.597 56.4411 112.696 58.0139 113.482C58.8003 113.875 59.4884 114.367 59.685 114.563C64.4035 118.397 63.912 125.18 67.2543 128.719C67.8441 129.309 67.7458 130.292 67.156 130.783C66.5662 131.373 65.5832 131.275 65.0916 130.685C61.1596 126.458 61.6511 119.773 57.719 116.726C57.719 116.726 57.6207 116.726 57.6207 116.628C57.3258 116.431 57.0309 116.235 56.6377 116.038C55.5564 115.546 53.9835 115.35 52.6073 114.957C50.4447 114.269 48.9701 112.892 48.4786 111.123C48.0854 109.452 48.8718 107.486 50.3464 106.208C53.6886 103.554 61.946 103.947 68.4339 111.025C71.6779 114.662 73.8405 119.085 76.1015 123.411C77.3794 125.868 78.7556 128.621 80.525 131.078C81.0165 131.766 80.82 132.651 80.2301 133.143C79.6403 133.929 78.7556 133.732 78.2641 133.044Z" fill="white"/>
<path d="M223.259 152.41C222.669 152.41 222.177 152.115 221.883 151.525C219.523 146.414 217.656 142.973 215.788 140.614L215.493 140.221C212.74 136.682 207.039 129.211 198.782 129.899C196.914 131.472 194.948 134.322 193.572 136.387C190.721 140.712 186.002 143.366 180.792 143.661C175.582 143.956 170.667 141.892 167.227 137.96C165.457 135.895 163.688 133.929 161.82 131.865C161.23 131.275 161.329 130.292 161.918 129.801C162.508 129.211 163.491 129.309 163.983 129.899C165.85 131.963 167.62 133.929 169.389 135.994C172.142 139.237 176.27 141.007 180.497 140.712C184.823 140.417 188.558 138.254 190.917 134.716C193.473 130.882 195.341 128.621 197.11 127.245C197.307 127.048 197.602 126.95 197.897 126.95C207.924 125.868 214.707 134.617 217.656 138.353L217.95 138.746C219.917 141.302 221.883 144.841 224.34 150.247C224.635 151.034 224.34 151.82 223.652 152.213C223.652 152.312 223.455 152.41 223.259 152.41Z" fill="white"/>
<path d="M258.746 201.266C258.55 201.266 258.353 201.266 258.058 201.069C257.37 200.676 256.977 199.791 257.37 199.103C260.712 192.32 263.268 186.324 265.726 180.524C267.986 175.216 270.346 169.711 273.295 163.518C270.149 162.633 267.102 160.569 264.546 158.799C264.153 158.504 263.76 158.308 263.465 158.013C262.482 157.325 261.499 156.637 260.614 155.85C259.336 154.867 258.156 153.982 256.878 153.196C254.617 151.82 252.75 151.427 251.079 151.82C250.096 154.081 249.309 156.047 248.621 157.718C246.458 162.928 244.787 166.958 240.953 173.643C240.069 175.117 238.496 176.1 236.726 176.1C234.957 176.1 233.384 175.314 232.5 173.839C230.14 170.104 227.978 165.385 226.012 160.864C225.717 160.077 226.012 159.291 226.798 158.898C227.584 158.603 228.371 158.898 228.764 159.684C230.73 164.108 232.794 168.728 235.055 172.267C235.449 172.856 236.038 173.25 236.726 173.151C237.415 173.151 238.103 172.758 238.398 172.168C242.133 165.68 243.804 161.65 245.869 156.637C246.655 154.769 247.54 152.508 248.621 150.05C248.818 149.657 249.113 149.362 249.407 149.264C251.963 148.281 254.912 148.772 258.255 150.738C259.729 151.623 261.007 152.606 262.285 153.589C263.17 154.277 264.054 154.965 265.037 155.555C265.431 155.85 265.824 156.047 266.217 156.342C269.166 158.406 272.508 160.667 275.654 160.962C276.146 160.962 276.539 161.257 276.834 161.748C277.129 162.24 277.129 162.731 276.834 163.125C273.491 169.907 270.936 175.904 268.478 181.704C266.02 187.503 263.465 193.598 260.122 200.381C259.827 200.971 259.336 201.266 258.746 201.266Z" fill="white"/>
<path d="M98.9076 157.423C94.1891 151.427 91.9282 148.675 89.5689 145.529C89.0774 144.841 89.1757 143.956 89.8638 143.465C90.5519 142.973 91.4366 143.071 91.9282 143.76C93.9925 146.414 97.0399 150.149 101.267 155.654C102.053 156.735 103.626 156.932 104.707 156.047L132.33 134.323C133.018 133.831 133.903 133.929 134.395 134.519C134.886 135.207 134.788 136.092 134.198 136.583L106.575 158.308C104.118 160.176 100.677 159.684 98.9076 157.423Z" fill="white"/>
<path d="M98.5136 204.411C97.2357 204.411 95.9578 203.822 95.1713 202.642C92.124 198.022 89.1749 193.795 87.0123 190.747C86.5208 190.059 86.7174 189.175 87.4055 188.683C88.0936 188.192 88.9783 188.388 89.4698 189.076C91.6325 192.222 94.5815 196.449 97.6289 201.069C97.9238 201.462 98.5136 201.659 99.0051 201.364C114.242 192.91 117.584 190.846 131.248 180.917C131.936 180.426 132.821 180.622 133.312 181.212C133.804 181.9 133.607 182.785 133.018 183.276C119.255 193.303 115.913 195.466 100.48 203.92C99.8898 204.313 99.2017 204.411 98.5136 204.411Z" fill="white"/>
<path d="M83.8668 185.046C83.3753 185.046 82.982 184.849 82.6871 184.456C73.9383 171.874 66.6639 161.06 58.5049 145.234C58.3083 144.841 58.3083 144.349 58.5049 143.956C59.4879 141.597 61.7488 139.631 64.5996 138.353C66.8605 137.468 69.4164 136.878 71.579 135.895C74.7247 134.519 78.1653 132.16 79.9347 129.211C80.2296 128.719 80.7211 128.522 81.2126 128.522C81.7041 128.522 82.1956 128.817 82.4905 129.211C84.6532 132.749 86.4226 135.502 87.9954 137.861C88.4869 138.549 88.2903 139.434 87.6022 139.925C86.9141 140.417 86.0294 140.22 85.5379 139.532C84.26 137.566 82.7854 135.305 81.1143 132.651C78.9517 135.207 75.806 137.271 72.7586 138.648C68.5317 140.515 63.7149 140.712 61.5522 144.447C69.5147 159.684 76.6907 170.399 85.243 182.687C85.7345 183.375 85.5379 184.26 84.8498 184.751C84.4566 184.948 84.1617 185.046 83.8668 185.046Z" fill="white"/>
<path d="M56.7355 142.58C43.3665 140.614 27.4416 141.892 14.2691 140.024C13.581 139.926 12.9912 139.336 12.9912 138.549C13.1878 121.15 15.7437 101.981 16.825 84.6799C16.825 83.8935 17.5131 83.3037 18.2995 83.3037C23.3129 83.5003 27.9331 83.5986 32.5533 83.7952C41.7937 84.0901 50.5425 84.4833 60.2744 84.6799C60.6676 84.6799 61.0608 84.8765 61.3557 85.1714C61.6506 85.4663 61.749 85.8596 61.749 86.2528C61.5523 89.595 61.454 92.7407 61.3557 95.788C61.2574 99.3269 61.0608 103.062 60.7659 106.994C60.7659 107.486 60.471 107.879 60.1761 108.076C59.8812 108.272 59.3897 108.371 58.8982 108.272C58.7016 108.174 58.4067 108.076 58.1118 108.076C56.9322 107.683 55.7525 107.289 54.7695 107.388C53.4916 107.486 52.4103 107.977 51.8205 108.666C51.2306 109.354 51.1323 110.435 51.6239 111.123C52.1154 111.713 53.0984 112.008 54.0814 112.303C55.261 112.696 56.7356 112.991 59.3897 114.367C59.8812 114.662 60.2744 115.154 60.1761 115.842C58.4067 140.614 58.7999 136.977 58.505 141.302C58.3084 142.088 57.522 142.678 56.7355 142.58ZM15.9403 137.271C27.9331 138.844 42.875 137.861 55.5559 139.434C55.8508 133.634 56.6372 122.919 57.1288 116.53C55.9491 116.038 54.8678 115.645 53.3933 115.154L53.1967 115.055C51.9188 114.662 50.2476 114.171 49.1663 112.794C47.8884 111.123 47.9867 108.469 49.4612 106.7C50.6408 105.323 52.5086 104.439 54.5729 104.34C55.7525 104.242 56.8339 104.537 57.9152 104.832C58.3084 98.9337 58.3084 93.6254 58.7016 87.5307C45.3325 87.1375 34.0278 86.646 19.6757 86.1545C18.5944 102.669 16.2352 120.855 15.9403 137.271Z" fill="white"/>
<path d="M138.62 217.191C134.786 211.587 140.095 204.215 137.637 199.595C136.654 197.727 134.197 196.154 133.705 193.402C133.312 191.435 134 189.666 134.295 188.093C135.18 183.768 133.607 179.049 130.363 176.1C129.773 175.511 129.675 174.626 130.264 174.036C130.756 173.446 131.739 173.348 132.329 173.938C136.359 177.575 138.325 183.375 137.244 188.683C136.949 190.158 136.457 191.632 136.654 192.812C137.047 194.581 139.112 196.056 140.39 198.218C143.535 204.018 138.325 211.292 141.176 215.519C141.667 216.208 141.471 217.092 140.783 217.584C139.996 218.075 139.112 217.879 138.62 217.191Z" fill="white"/>
<path d="M102.151 168.138L101.856 159.488C101.856 158.701 102.446 158.013 103.331 158.013C104.117 158.013 104.806 158.603 104.806 159.488L105.1 168.138C105.1 168.925 104.511 169.613 103.626 169.613C102.839 169.613 102.151 168.925 102.151 168.138Z" fill="white"/>
<path d="M259.926 160.864C259.532 160.864 259.139 160.667 258.844 160.372C257.959 159.291 256.682 158.505 255.305 158.111C254.519 157.915 254.027 157.128 254.224 156.342C254.421 155.556 255.207 155.064 255.993 155.261C257.959 155.752 259.729 156.932 261.007 158.406C261.498 158.996 261.498 159.979 260.909 160.471C260.614 160.667 260.319 160.864 259.926 160.864Z" fill="white"/>
<path d="M234.859 187.504C234.761 187.504 234.761 187.504 234.663 187.504C233.876 187.405 233.286 186.619 233.385 185.833C233.975 181.802 235.154 177.969 237.022 174.331C237.415 173.643 238.3 173.348 238.988 173.742C239.676 174.135 239.971 175.019 239.578 175.708C237.907 179.05 236.727 182.49 236.235 186.226C236.235 186.914 235.547 187.504 234.859 187.504Z" fill="white"/>
<path d="M140.391 260.345C160.641 268.897 175.288 273.026 196.619 275.877C207.629 277.351 224.439 273.026 235.449 271.945C244.787 270.962 254.224 270.077 263.563 269.094C265.234 268.897 266.905 268.701 268.281 267.816C269.658 266.931 270.641 265.162 269.953 263.589C269.363 262.115 267.593 261.623 266.02 261.328C253.929 259.067 241.642 263.294 229.649 266.047C197.209 273.518 191.508 274.402 140.882 259.46L140.391 260.345Z" fill="white"/>
<path d="M165.359 267.422C154.153 264.768 147.862 263.589 140.685 261.229C139.899 260.935 139.506 260.148 139.702 259.362C139.997 258.575 140.784 258.182 141.57 258.379C146.78 260.05 151.597 261.229 158.281 262.704C160.641 263.196 163.197 263.785 165.949 264.473C166.735 264.67 167.227 265.456 167.03 266.243C166.932 267.128 166.146 267.619 165.359 267.422Z" fill="white"/>
<path d="M190.623 272.927C185.905 272.043 179.515 270.666 172.732 269.094C172.044 268.995 171.553 268.405 171.553 267.619C171.553 266.636 172.437 265.948 173.322 266.144C180.203 267.717 186.495 268.995 191.213 269.88C192 270.077 192.491 270.765 192.393 271.649C192.196 272.534 191.41 273.026 190.623 272.927Z" fill="white"/>
<path d="M140.489 261.132C139.801 261.132 139.211 260.64 139.014 259.952C138.916 259.166 139.408 258.379 140.194 258.281C152.482 256.02 164.671 254.644 176.467 253.366C184.037 252.579 191.803 251.695 199.667 250.613C200.453 250.515 201.24 251.105 201.338 251.891C201.436 252.678 200.846 253.464 200.06 253.562C192.196 254.644 184.332 255.528 176.762 256.315C164.966 257.593 152.875 258.969 140.686 261.132C140.686 261.132 140.587 261.132 140.489 261.132Z" fill="white"/>
<path d="M236.529 243.142C232.302 242.061 230.238 236.851 230.926 232.525C231.713 227.61 236.136 222.99 240.461 222.597C243.607 222.4 246.065 224.366 247.244 228.004C249.603 235.278 243.116 244.813 236.529 243.142ZM233.875 233.017C233.384 236.261 234.956 239.701 237.316 240.291C241.346 241.274 246.163 234.197 244.492 228.987C243.705 226.627 242.526 225.546 240.756 225.644C237.709 225.841 234.367 229.38 233.875 233.017Z" fill="white"/>
<path d="M287.942 204.411C287.647 204.018 287.254 203.723 286.763 203.723C258.255 203.428 233.09 204.411 209.596 206.771C209.006 206.869 208.514 207.262 208.318 207.754C201.535 228.495 194.654 249.925 189.935 271.158C189.837 271.65 189.935 272.141 190.23 272.436C190.525 272.83 191.017 272.928 191.508 272.928C215.199 270.569 242.134 267.914 265.923 262.508C266.414 262.41 266.807 262.016 267.004 261.525C273.197 242.749 280.275 223.973 288.041 205.689C288.237 205.296 288.139 204.805 287.942 204.411ZM230.632 260.542C229.158 261.918 226.897 262.41 223.751 262.115C221.687 261.918 219.622 261.426 217.755 261.918C217.362 262.016 216.87 262.213 216.477 262.409C214.118 263.294 213.331 263.294 211.463 262.803C209.989 262.409 209.596 262.311 207.433 263.098C206.352 263.491 205.467 263.786 204.386 263.786C202.813 263.786 201.338 263.098 200.749 261.721C200.552 261.23 200.847 260.64 201.338 260.443C201.83 260.247 202.42 260.542 202.616 261.033C202.911 261.82 204.287 262.016 205.467 261.721C206.942 261.328 208.416 260.443 210.185 260.542C210.874 260.542 211.463 260.738 211.955 260.935C212.446 261.033 213.036 261.23 213.429 261.23C214.511 261.328 215.789 260.542 217.263 260.149C219.524 259.559 221.883 260.05 224.046 260.247C226.504 260.542 228.273 260.149 229.354 259.166C229.748 258.772 230.337 258.871 230.731 259.264C231.025 259.559 231.025 260.149 230.632 260.542ZM236.924 241.668C233.778 240.881 231.812 236.556 232.402 232.722C233.483 225.743 243.018 219.55 245.869 228.495C247.835 234.688 242.232 243.044 236.924 241.668ZM263.17 244.519L261.204 248.549C261.008 248.942 260.713 249.139 260.319 249.139C260.221 249.139 260.025 249.139 259.926 249.04C259.435 248.844 259.238 248.254 259.435 247.763L261.401 243.732C261.597 243.241 262.187 243.044 262.679 243.241C263.17 243.437 263.367 244.027 263.17 244.519ZM274.082 216.994L265.038 239.407C264.841 239.8 264.546 239.997 264.153 239.997C263.465 239.997 262.974 239.309 263.268 238.62L272.312 216.208C272.509 215.716 273.099 215.421 273.59 215.618C273.983 215.913 274.278 216.502 274.082 216.994Z" fill="white"/>
<path d="M346.529 278.629V278.826C346.529 281.775 344.072 284.134 341.123 284.134L296.985 283.839C283.616 283.741 78.5582 282.561 65.1892 282.561C62.2401 282.561 59.8809 280.104 59.8809 277.155V276.958C59.8809 274.009 62.3384 271.65 65.2875 271.65L341.221 273.223C344.17 273.223 346.529 275.68 346.529 278.629Z" fill="white"/>
<path d="M72.2665 433.749C71.4801 433.749 70.792 433.061 70.792 432.275L71.6767 280.693C71.6767 279.907 72.3648 279.219 73.1512 279.219C73.9376 279.219 74.6258 279.907 74.6258 280.693L73.741 432.275C73.741 433.061 73.0529 433.749 72.2665 433.749Z" fill="white"/>
<path d="M331.194 428.835C330.408 428.835 329.72 428.147 329.72 427.36V281.873C329.72 281.087 330.408 280.399 331.194 280.399C331.981 280.399 332.669 281.087 332.669 281.873V427.36C332.669 428.245 331.981 428.835 331.194 428.835Z" fill="white"/>
<path d="M251.472 283.643C251.374 283.545 251.374 283.643 251.472 283.643C247.343 281.185 243.116 279.121 238.89 277.548C226.897 272.928 217.361 275.189 204.779 276.074C199.962 276.368 183.054 279.907 179.122 277.941C180.596 278.728 182.071 279.514 183.546 280.301C180.007 279.612 176.37 279.023 172.536 278.826C165.95 278.335 160.838 279.612 154.645 280.301C146.879 281.185 133.215 277.253 125.351 277.843C125.253 280.301 125.547 282.07 125.646 282.856L251.472 283.643ZM303.769 407.896C303.67 402.392 303.474 396.788 303.179 391.283C302.491 378.504 301.311 365.43 297.576 352.946C294.627 343.312 291.874 330.336 285.583 321.194C278.997 311.659 275.556 305.761 267.692 296.717C264.251 292.687 259.631 288.951 254.52 285.609L125.941 284.921C128.791 297.307 139.801 310.283 150.418 318.343C163.59 328.37 178.336 337.021 194.26 343.902C200.257 346.458 204.287 351.963 204.68 358.254C206.352 380.372 208.907 399.836 210.185 422.937C226.897 422.052 241.937 425.886 258.747 425.001C259.238 425.001 259.533 424.411 259.828 423.526C259.828 423.526 259.926 423.526 260.024 423.526C259.73 422.838 256.486 388.334 256.191 385.582C252.357 345.376 251.964 340.461 249.998 334.956C245.377 321.882 231.713 311.757 220.704 303.598C220.31 303.303 220.212 302.615 220.507 302.222C220.802 301.829 221.49 301.73 221.883 302.025C233.09 310.381 247.147 320.703 251.865 334.268C253.831 339.97 254.225 344 258.157 385.385C259.533 400.131 261.007 415.269 261.892 422.937C261.892 423.232 261.794 423.428 261.696 423.625C270.444 423.92 298.362 422.543 300.918 421.364C305.833 419.103 303.867 412.812 303.769 407.896ZM162.607 311.855C162.411 311.855 162.214 311.855 162.116 311.757C155.628 307.923 150.221 302.91 146.289 297.208C145.994 296.717 146.093 296.127 146.584 295.832C147.076 295.537 147.665 295.636 147.96 296.127C151.696 301.534 156.906 306.449 163.099 310.086C163.885 310.479 163.59 311.855 162.607 311.855ZM224.243 353.437C224.537 352.946 225.127 352.847 225.619 353.142C226.11 353.437 226.209 354.027 225.914 354.519C223.358 358.745 223.26 364.054 225.815 368.281C227.487 371.132 230.829 374.572 229.551 378.308C228.961 380.175 227.388 381.355 226.503 382.928C222.965 388.629 229.747 396.395 226.503 403.276C226.307 403.768 225.717 403.964 225.226 403.768C224.734 403.571 224.537 402.981 224.734 402.49C227.585 396.395 220.704 388.629 224.832 381.945C225.717 380.47 227.29 379.094 227.683 377.718C228.568 375.064 225.717 372.115 224.144 369.362C221.195 364.349 221.293 358.254 224.243 353.437ZM245.967 296.815C245.771 296.815 245.476 296.717 245.279 296.52L242.822 294.259C242.428 293.866 242.428 293.276 242.723 292.883C243.116 292.49 243.706 292.49 244.1 292.785L246.557 295.046C247.245 295.734 246.852 296.815 245.967 296.815ZM249.31 294.849C249.113 294.849 248.818 294.751 248.621 294.554C246.262 292.293 243.411 290.426 240.167 289.049C239.676 288.853 239.479 288.263 239.676 287.772C239.873 287.28 240.462 287.083 240.954 287.28C244.394 288.755 247.442 290.721 249.998 293.178C250.686 293.768 250.194 294.849 249.31 294.849ZM277.129 339.478C276.736 339.478 276.343 339.183 276.244 338.79L274.376 333.384C274.18 332.892 274.475 332.302 274.966 332.106C275.458 331.909 276.048 332.204 276.244 332.695L278.112 338.102C278.21 338.79 277.817 339.478 277.129 339.478ZM282.732 341.739C282.241 341.739 281.847 341.346 281.749 340.855C281.356 337.316 280.176 333.875 278.309 330.631C278.014 330.14 278.21 329.55 278.702 329.255C279.193 328.96 279.783 329.157 280.078 329.648C282.044 333.089 283.322 336.824 283.813 340.658C283.715 341.248 283.322 341.739 282.732 341.739ZM294.332 402.981C293.939 404.063 292.562 404.947 291.088 404.554C290.596 404.456 290.203 403.866 290.4 403.375C290.498 402.883 291.088 402.588 291.579 402.686C291.973 402.785 292.464 402.49 292.562 402.195C292.661 401.9 292.661 401.408 292.366 400.819C291.284 398.165 288.729 395.412 289.417 392.168C289.613 391.087 290.105 390.399 290.4 389.416C290.891 387.843 290.4 386.172 290.006 384.501L287.352 373.589C287.254 373.098 287.549 372.508 288.04 372.409C288.532 372.311 289.122 372.606 289.22 373.098L291.973 384.009C292.366 385.877 292.956 387.843 292.366 389.907C292.071 390.989 291.579 391.775 291.383 392.561C290.891 394.921 293.152 397.378 294.233 400.131C294.43 400.819 294.823 401.9 294.332 402.981Z" fill="white"/>
<path d="M312.615 444.366C307.11 444.366 301.9 444.366 296.69 444.366C288.531 444.366 280.077 444.268 270.837 444.366C270.05 444.366 269.362 443.678 269.362 442.892C269.362 442.105 270.05 441.417 270.837 441.417C280.077 441.417 288.531 441.417 296.69 441.417C304.358 441.417 312.222 441.515 320.774 441.417C321.561 441.417 322.249 441.122 322.74 440.631C323.035 440.336 323.133 440.041 323.035 439.746C322.544 436.502 321.659 434.143 318.218 432.373C313.402 429.818 307.012 429.326 301.605 430.997C301.212 431.095 300.721 431.095 300.426 430.899C300.032 430.702 299.836 430.309 299.738 429.916C299.443 428.441 299.049 427.163 298.558 425.787C298.066 424.313 297.575 422.838 297.28 421.167C297.182 420.381 297.673 419.594 298.46 419.496C299.246 419.398 300.032 419.889 300.131 420.675C300.426 422.15 300.819 423.428 301.31 424.902C301.605 425.885 301.999 426.869 302.195 427.95C307.995 426.574 314.483 427.262 319.496 429.916C324.313 432.373 325.394 436.011 325.886 439.549C326.082 440.729 325.689 441.81 324.903 442.793C323.92 443.973 322.445 444.563 320.774 444.563C318.022 444.366 315.368 444.366 312.615 444.366Z" fill="white"/>
<path d="M267.003 431.882C266.807 428.245 266.413 423.526 266.512 420.184C266.512 419.398 267.2 418.709 267.986 418.709C268.773 418.709 269.461 419.398 269.461 420.184C269.362 423.428 269.657 428.146 269.952 431.587C270.05 432.373 269.362 433.062 268.576 433.16C267.691 433.258 267.003 432.668 267.003 431.882Z" fill="white"/>
<path d="M261.204 444.563C255.798 444.563 250.588 444.563 245.476 444.563C236.727 444.563 227.585 444.465 217.46 444.563C217.067 444.563 216.674 444.366 216.379 444.072C216.084 443.777 215.985 443.383 215.985 442.99C216.182 437.092 214.904 426.475 215.101 420.381C215.101 419.594 215.789 418.906 216.575 418.906C217.362 418.906 218.05 419.594 218.05 420.381C217.853 425.886 218.935 435.323 218.935 441.516C237.514 441.417 251.178 441.614 269.462 441.516C270.248 441.516 270.936 441.221 271.428 440.729C271.723 440.434 271.821 440.139 271.723 439.845C271.231 436.601 270.346 434.241 266.906 432.472C261.991 429.916 255.699 429.425 250.293 431.096C249.408 431.391 248.523 430.801 248.425 429.916C247.934 427.065 246.557 424.313 245.968 421.167C245.869 420.381 246.361 419.594 247.147 419.496C247.934 419.398 248.72 419.889 248.818 420.676C249.211 423.133 250.293 425.296 250.883 427.852C256.682 426.475 263.17 427.164 268.184 429.818C272.902 432.275 274.082 435.912 274.573 439.451C274.77 440.631 274.377 441.712 273.59 442.695C272.607 443.875 271.133 444.465 269.462 444.465C266.611 444.563 263.858 444.563 261.204 444.563Z" fill="white"/>
<path d="M109.721 93.3306C114.734 94.2153 119.059 98.1474 120.436 103.062L109.721 93.3306Z" fill="white"/>
<path d="M119.059 103.554C117.781 99.13 113.948 95.6894 109.426 94.903C108.639 94.8047 108.05 94.0183 108.246 93.2319C108.443 92.4455 109.131 91.8557 109.917 92.0523C115.52 93.0353 120.239 97.3606 121.812 102.865C122.008 103.652 121.615 104.438 120.829 104.733C120.042 104.733 119.256 104.242 119.059 103.554Z" fill="white"/>
<path d="M105.788 225.251C107.066 225.94 108.344 226.529 109.622 227.218L105.788 225.251Z" fill="white"/>
<path d="M109.622 228.594C109.425 228.594 109.13 228.495 108.934 228.397L105.1 226.431C104.412 226.038 104.117 225.153 104.412 224.465C104.805 223.777 105.69 223.482 106.378 223.777L110.212 225.743C110.9 226.136 111.195 227.021 110.9 227.709C110.605 228.299 110.113 228.594 109.622 228.594Z" fill="white"/>
<path d="M145.503 83.5005C147.174 83.2056 148.845 85.958 149.042 87.1376L145.503 83.5005Z" fill="white"/>
<path d="M147.567 87.3339C147.469 86.5475 146.289 84.9747 145.798 84.9747C145.011 85.1713 144.225 84.5815 144.028 83.795C143.832 83.0086 144.422 82.2222 145.208 82.0256C145.798 81.9273 146.781 81.9273 147.764 82.7137C149.14 83.6967 150.32 85.6628 150.418 86.9407C150.516 87.7271 149.926 88.5135 149.14 88.6118C148.452 88.7101 147.666 88.1203 147.567 87.3339Z" fill="white"/>
<path d="M347.218 146.414C343.876 143.366 341.517 139.533 340.239 135.306C340.042 134.519 340.435 133.733 341.222 133.438C342.008 133.241 342.794 133.634 343.089 134.421C344.269 138.156 346.333 141.597 349.282 144.153C349.872 144.743 349.97 145.627 349.381 146.217C348.693 146.905 347.808 146.905 347.218 146.414Z" fill="white"/>
<path d="M352.428 151.034H352.133C351.346 151.034 350.658 150.345 350.658 149.559C350.658 148.773 351.346 148.084 352.133 148.084H352.428C353.214 148.084 353.902 148.773 353.902 149.559C353.902 150.345 353.312 151.034 352.428 151.034Z" fill="white"/>
<path d="M309.961 100.703C309.666 121.15 316.646 141.597 329.523 157.522C342.302 173.447 360.882 184.653 380.935 188.683C381.623 185.931 382.41 183.08 383.098 180.328C365.207 174.921 347.218 168.433 333.062 156.342C318.907 144.153 309.273 125.18 313.107 106.896" fill="white"/>
<path d="M371.203 183.277C370.81 190.944 370.318 198.612 369.925 206.378C374.545 200.185 378.575 192.812 379.657 185.144C374.643 183.473 369.925 180.819 365.895 177.28" fill="white"/>
<path d="M433.527 140.515C433.527 138.943 433.625 137.37 434.117 135.895C434.608 134.421 435.69 133.044 437.164 132.553C438.835 131.963 440.703 132.651 441.981 133.929C443.16 135.207 443.849 136.878 444.144 138.648C445.913 149.363 435.591 155.064 433.527 164.403C431.659 157.03 433.33 147.888 433.527 140.515Z" fill="white"/>
<path d="M353.804 120.167C352.723 122.919 351.74 125.77 351.936 128.719C352.133 131.668 353.607 134.716 356.262 135.895C358.817 136.977 361.963 136.19 363.831 134.028C365.6 131.865 365.895 128.719 364.617 126.262C363.831 124.689 362.455 123.313 361.865 121.642C361.373 120.364 361.373 118.889 361.373 117.513C361.275 115.645 360.095 110.73 357.146 112.205C355.475 112.991 354.394 118.594 353.804 120.167Z" fill="white"/>
<path d="M397.941 232.723C399.022 233.509 400.497 233.706 401.873 233.312C403.249 233.018 403.151 232.526 404.33 231.838C403.937 233.018 404.822 234.099 405.117 235.377C405.313 236.655 406.296 237.834 407.673 237.933C409.245 238.031 411.015 236.655 412.293 237.539C412.883 237.933 413.079 238.621 413.472 239.211C414.75 240.882 417.601 240.783 419.371 239.506C421.14 238.228 423.401 236.753 424.187 234.787C421.435 237.638 417.601 235.082 415.045 235.573C415.045 234.885 415.438 235.18 415.34 234.59C414.259 235.377 413.374 235.279 412.096 235.18C410.818 235.082 410.327 233.706 411.211 232.723C409.54 233.706 406.69 231.543 405.313 230.069C404.33 228.987 400.89 228.987 400.693 227.611C400.497 226.136 402.954 224.367 404.33 223.679C402.266 223.581 403.544 226.923 404.429 221.123C402.069 223.974 392.632 228.692 397.941 232.723Z" fill="white"/>
<path d="M403.151 230.658C402.463 230.658 401.874 230.461 401.284 230.166C398.531 228.593 398.924 224.956 401.579 223.088C405.904 219.943 411.9 215.716 416.914 212.472C417.602 212.079 418.487 212.275 418.978 212.963C419.371 213.652 419.175 214.536 418.487 215.028C413.473 218.173 407.575 222.499 403.348 225.546C402.66 226.038 402.463 226.627 402.463 227.119C402.463 227.315 402.562 227.512 402.857 227.709C403.741 228.2 406.101 226.529 408.558 224.76C409.639 223.973 410.917 222.99 412.392 222.105C413.08 221.614 413.965 221.811 414.456 222.499C414.948 223.187 414.751 224.071 414.063 224.563C412.687 225.448 411.507 226.332 410.327 227.119C407.378 229.085 405.117 230.658 403.151 230.658Z" fill="white"/>
<path d="M415.635 235.966C415.046 235.18 414.947 234.197 415.34 233.214C415.439 233.017 415.537 232.82 415.635 232.722C416.323 232.034 417.11 231.248 417.798 230.56C418.388 229.97 419.273 229.97 419.862 230.56C420.452 231.149 420.452 232.034 419.862 232.624C419.273 233.214 418.683 233.803 418.093 234.295C418.388 234.492 418.978 234.688 419.272 234.688C419.862 234.688 421.14 234.098 421.73 233.607C429.496 227.414 436.869 221.123 442.767 212.767C444.634 210.014 444.045 210.899 445.716 207.459C446.109 206.77 446.994 206.377 447.682 206.77C448.37 207.164 448.763 208.048 448.37 208.736C446.699 212.275 447.19 211.587 445.126 214.536C439.129 223.187 431.462 229.675 423.598 235.966C422.713 236.654 420.747 237.637 419.371 237.736C418.191 237.834 416.422 237.146 415.635 235.966Z" fill="white"/>
<path d="M409.738 233.705C409.64 232.525 410.033 230.854 412.294 229.183C413.08 228.593 413.179 228.299 414.555 227.414C415.243 227.021 416.128 227.217 416.619 227.905C417.013 228.593 416.816 229.478 416.128 229.97C414.948 230.658 414.948 230.953 414.064 231.641C413.572 232.034 412.786 232.722 412.687 233.41C413.179 233.607 414.653 233.705 415.735 232.722C416.324 232.231 417.307 232.231 417.799 232.82C418.29 233.41 418.29 234.393 417.701 234.885C414.752 237.441 409.935 236.752 409.738 233.705Z" fill="white"/>
<path d="M404.921 227.905C405.314 227.217 406.199 226.922 406.887 227.217C407.575 227.61 407.87 228.495 407.575 229.183C406.592 231.247 408.656 232.427 410.622 230.657C411.212 230.068 412.195 230.166 412.687 230.756C413.178 231.346 413.178 232.329 412.588 232.82C408.165 236.949 402.463 232.82 404.921 227.905Z" fill="white"/>
<path d="M425.859 253.267C425.662 253.267 425.465 253.267 425.367 253.169L421.828 251.891C409.049 247.074 397.941 242.946 384.965 237.047C384.08 236.654 383.785 235.573 384.375 234.787C391.551 225.546 397.154 220.041 404.429 210.408C404.822 209.916 405.412 209.72 406.002 209.916C410.818 211.391 412.293 211.686 416.422 213.455C417.208 213.75 417.503 214.635 417.208 215.421C416.913 216.207 416.028 216.502 415.242 216.207C411.408 214.635 410.13 214.241 406.1 213.062C399.317 222.007 394.402 226.922 387.816 235.18C400.005 240.586 410.622 244.617 422.811 249.139L425.465 250.122C434.214 241.864 439.621 236.458 445.027 227.414C442.472 226.333 437.655 224.268 436.967 223.875C436.18 223.58 435.885 222.695 436.18 221.909C436.475 221.123 437.36 220.828 438.146 221.123C439.129 221.516 446.797 224.858 447.78 225.251C448.566 225.644 448.96 226.529 448.468 227.316C442.472 237.736 436.377 243.83 426.94 252.776C426.645 253.071 426.252 253.267 425.859 253.267Z" fill="white"/>
<path d="M403.151 230.658C402.463 230.658 401.874 230.462 401.284 230.167C398.531 228.594 398.924 224.957 401.579 223.089C405.904 219.943 411.9 215.716 416.914 212.472C417.602 212.079 418.487 212.276 418.978 212.964C419.371 213.652 419.175 214.537 418.487 215.028C413.473 218.174 407.575 222.499 403.348 225.547C402.66 226.038 402.463 226.628 402.463 227.119C402.463 227.316 402.562 227.513 402.857 227.709C403.741 228.201 406.101 226.53 408.558 224.76C409.639 223.974 410.917 222.991 412.392 222.106C413.08 221.614 413.965 221.811 414.456 222.499C414.948 223.187 414.751 224.072 414.063 224.563C412.687 225.448 411.507 226.333 410.327 227.119C407.378 229.085 405.117 230.658 403.151 230.658Z" fill="white"/>
<path d="M407.673 213.062C406.887 212.767 406.592 211.882 406.887 211.194C407.771 208.933 409.442 206.869 411.703 205.493C415.242 203.232 416.52 203.723 418.191 203.232C422.418 202.052 425.269 199.89 426.547 196.646C426.842 195.859 427.727 195.564 428.513 195.859C429.299 196.154 429.594 197.039 429.299 197.825C427.628 201.856 424.089 204.706 418.978 206.083C418.388 206.279 417.896 206.279 417.307 206.378C416.225 206.574 415.341 206.672 413.276 207.95C411.605 209.032 410.327 210.605 409.639 212.276C409.246 212.964 408.361 213.357 407.673 213.062Z" fill="white"/>
<path d="M409.738 233.706C409.64 232.526 410.033 230.855 412.294 229.184C413.08 228.594 413.179 228.299 414.555 227.414C415.243 227.021 416.128 227.218 416.619 227.906C417.013 228.594 416.816 229.479 416.128 229.97C414.948 230.658 414.948 230.953 414.064 231.641C413.572 232.034 412.786 232.723 412.687 233.411C413.179 233.607 414.653 233.706 415.735 232.723C416.324 232.231 417.307 232.231 417.799 232.821C418.29 233.411 418.29 234.394 417.701 234.885C414.752 237.441 409.935 236.753 409.738 233.706Z" fill="white"/>
<path d="M404.921 227.905C405.314 227.217 406.199 226.922 406.887 227.217C407.575 227.611 407.87 228.495 407.575 229.183C406.592 231.248 408.656 232.427 410.622 230.658C411.212 230.068 412.195 230.166 412.687 230.756C413.178 231.346 413.178 232.329 412.588 232.821C408.165 236.949 402.463 232.821 404.921 227.905Z" fill="white"/>
<path d="M399.81 74.0632C396.173 72.9819 393.027 70.3278 390.471 66.0025C387.719 61.4806 386.048 56.2706 385.654 51.0606C385.359 47.3251 387.227 44.4744 388.014 41.427C388.308 40.444 389.488 39.9525 390.373 40.6406C394.895 43.9829 406.298 51.1589 415.833 45.1625L416.03 45.0642C416.914 44.4744 418.094 43.7862 419.47 43.7862C420.552 43.7862 421.535 44.2778 422.223 45.2608C423.304 46.7353 423.795 49.0946 423.304 50.864C422.812 52.7317 421.633 54.0096 420.355 55.091C423.795 62.8568 424.582 63.5449 426.056 72.4904C426.155 73.2768 425.663 74.0632 424.877 74.1615C424.09 74.2598 423.304 73.7683 423.206 72.9819C421.928 65.7076 421.338 64.3313 418.979 59.2197C418.487 58.1383 417.897 56.8604 417.209 55.2876C416.914 54.6978 417.111 53.9113 417.602 53.5181C419.175 52.3385 420.06 51.3555 420.453 50.0776C420.65 49.2912 420.453 47.8166 419.863 47.0302C419.765 46.9319 419.569 46.7353 419.47 46.7353C418.782 46.7353 417.996 47.3251 417.308 47.7183C409.935 52.4368 400.203 51.1589 390.176 44.2778C389.39 46.637 388.308 48.7013 388.505 50.9623C388.8 55.7791 390.373 60.4976 392.929 64.6263C395.19 68.2634 397.745 70.5244 400.596 71.4091C403.545 72.2938 407.674 71.2125 408.657 68.3617C408.952 67.5753 409.738 67.1821 410.525 67.477C411.311 67.7719 411.704 68.5583 411.409 69.3447C409.837 73.67 404.233 75.3412 399.81 74.0632Z" fill="white"/>
<path d="M404.823 85.5644C404.725 85.5644 404.627 85.5644 404.627 85.5644C403.84 85.4661 403.25 84.6797 403.349 83.8933C403.84 80.3544 405.61 73.8665 405.61 72.8835C405.511 72.0971 406.199 71.409 406.986 71.3107C407.772 71.2124 408.46 71.9005 408.559 72.6869C408.657 73.375 408.362 74.7512 407.576 78.0935C407.084 80.1578 406.593 82.6154 406.298 84.3848C406.101 85.0729 405.511 85.5644 404.823 85.5644Z" fill="white"/>
<path d="M421.043 62.5619C420.65 61.8738 420.846 60.9891 421.534 60.4976C424.582 58.7281 426.548 54.9927 426.548 51.1589C426.548 46.8336 424.385 42.9998 422.517 40.5423C420.945 38.478 418.585 36.0204 417.406 34.9391C417.307 34.8408 417.111 34.6442 417.013 34.4476C416.521 33.6612 416.521 33.0713 416.619 32.5798C417.111 30.9087 419.372 31.007 421.141 29.5325C423.5 27.5664 423.5 24.0276 422.517 21.57C421.239 18.2278 414.26 15.6719 410.525 16.4583C406.593 17.2447 404.725 23.5361 407.87 27.1732C408.853 28.3529 407.674 30.024 406.298 29.5325C400.694 27.5664 393.912 29.2376 390.078 33.5629C386.244 37.8881 385.359 44.9659 388.21 49.5861C388.603 50.2742 388.407 51.1589 387.719 51.6504C387.03 52.0436 386.146 51.847 385.654 51.1589C382.115 45.3591 383.098 37.0034 387.817 31.6951C391.651 27.3698 397.942 25.3055 403.84 26.0919C402.169 20.9802 404.823 14.7872 409.935 13.8042C415.046 12.7229 423.402 15.9668 425.27 20.7836C426.941 24.9123 425.958 29.6308 423.009 32.0883C422.026 32.8747 420.945 33.3663 420.158 33.7595C422.124 35.6272 423.599 37.3966 424.877 39.0678C427.924 43.0981 429.497 47.4234 429.497 51.4538C429.497 56.4672 427.039 60.9891 423.107 63.3483C422.321 63.5449 421.436 63.25 421.043 62.5619ZM416.816 34.0544C416.816 34.251 416.914 34.3493 416.914 34.4476C416.914 34.3493 416.914 34.1527 416.816 34.0544Z" fill="white"/>
<path d="M412.589 66.1991C411.999 65.6092 412.097 64.6262 412.687 64.1347C414.161 62.7585 414.161 62.7585 414.751 60.5959C414.948 59.8094 415.734 59.3179 416.521 59.5145C417.307 59.7111 417.799 60.4976 417.602 61.284C416.914 64.1347 416.717 64.4296 414.751 66.2974C414.063 66.8872 413.178 66.7889 412.589 66.1991Z" fill="white"/>
<path d="M392.339 61.7753C391.553 59.4161 393.42 57.0568 392.831 56.0738C392.437 55.3857 392.732 54.501 393.42 54.1078C394.109 53.7146 394.993 54.0095 395.386 54.6976C396.173 56.0738 395.78 57.5483 395.386 58.8262C395.19 59.4161 394.895 60.3991 394.993 60.8906C394.993 60.9889 395.19 61.0872 395.288 61.1855C395.976 60.7923 396.763 60.8906 397.254 61.5787C397.746 62.2668 397.647 63.1515 396.959 63.643C395.386 64.7244 392.929 63.643 392.339 61.7753Z" fill="white"/>
<path d="M343.482 158.799C331.686 147.789 330.113 131.963 329.818 116.038C329.818 114.662 329.818 113.384 330.605 112.204C331.588 110.73 333.357 110.14 334.439 109.747C334.537 109.747 349.675 104.438 352.035 103.652C353.116 103.259 354.099 103.062 355.18 103.553C356.655 104.34 356.851 106.011 356.95 106.699C357.245 109.452 357.933 112.007 358.523 114.76C362.16 109.747 365.699 104.733 369.336 99.7197C375.627 91.0692 378.085 87.0388 381.918 84.188C383.786 82.8118 385.752 81.9271 387.816 81.6322C390.274 81.239 392.535 81.4356 394.698 81.6322C395.386 81.7305 396.172 81.7305 396.86 81.8288H397.352C397.843 81.8288 398.335 81.9271 398.826 81.9271C399.22 81.9271 399.613 81.9271 400.006 81.9271C401.579 81.9271 402.758 81.6322 403.741 81.1407C403.84 81.1407 403.938 81.0424 404.036 80.9441C404.724 80.5509 405.609 80.7475 406.101 81.4356C406.494 82.1237 406.297 83.0084 405.609 83.4999C405.511 83.5982 405.314 83.6965 405.216 83.7948C403.84 84.5812 402.169 84.8761 400.104 84.9744C399.711 84.9744 399.22 84.9744 398.826 84.9744C398.236 84.9744 397.745 84.8761 397.253 84.8761H396.762C395.976 84.8761 395.189 84.7778 394.501 84.6795C387.325 84.0897 384.179 84.188 377.691 93.3301C367.468 107.486 374.349 97.9503 358.916 119.38C358.129 120.461 356.36 119.97 356.262 118.692C356.163 118.004 356.065 117.414 355.967 116.628C355.377 113.482 354.492 110.533 354.099 107.092C354.001 106.601 354.001 106.404 353.902 106.306C353.607 106.306 353.706 106.306 343.482 109.845C334.733 112.892 333.75 112.99 333.161 113.875L333.062 113.973C332.767 114.465 332.767 115.251 332.767 116.038C332.964 130.98 334.34 146.315 345.448 156.735C349.282 160.274 354.689 162.928 359.8 161.945C366.288 160.765 375.43 150.443 378.674 144.644C379.068 143.956 379.952 143.661 380.64 144.054C381.329 144.447 381.623 145.332 381.23 146.02C377.593 152.508 367.861 163.419 360.292 164.796C354.296 165.975 348.004 163.026 343.482 158.799Z" fill="white"/>
<path d="M330.114 113.384C330.016 111.025 329.917 108.764 329.819 106.405C329.721 104.93 329.721 105.028 329.721 103.062C329.721 100.998 329.622 99.0319 328.934 97.1641C328.541 96.0828 327.853 95.0998 327.067 94.3134C326.477 93.8219 325.789 93.4287 324.904 93.1338C324.511 92.9372 324.216 92.8389 323.823 92.6423C319.104 90.3813 315.074 87.0391 313.501 85.073C311.142 82.124 314.582 78.1919 317.924 79.863C318.907 80.3545 318.809 80.3545 327.853 86.2526C328.541 86.7442 328.738 87.6289 328.246 88.317C327.755 89.0051 326.87 89.2017 326.182 88.7102C316.941 82.7138 317.236 82.9104 316.548 82.5172C316.057 82.2223 315.664 82.6155 315.664 82.7138C315.467 83.0087 315.565 83.107 315.664 83.2053C316.155 83.7951 316.843 84.4832 317.433 84.9747C319.694 86.9408 322.25 88.6119 325.002 89.9881C325.297 90.1847 325.69 90.283 325.985 90.3813C326.968 90.7745 328.05 91.266 328.934 92.1508C330.114 93.2321 330.999 94.6083 331.49 96.0828C332.571 99.0319 332.375 101.883 332.473 104.635C332.571 107.682 332.768 110.435 332.866 113.187C332.866 113.974 332.277 114.662 331.392 114.662C330.9 114.858 330.212 114.17 330.114 113.384Z" fill="white"/>
<path d="M328.836 84.4831C327.558 83.5001 326.378 82.6154 325.198 81.7306C321.266 78.7816 320.382 77.8969 318.612 77.3071C317.334 76.9139 316.843 77.0122 316.548 77.2088L316.45 77.4054C316.351 78.0935 316.843 79.0765 317.138 79.4697C317.728 80.0595 317.728 80.9442 317.138 81.534C316.548 82.1239 315.663 82.1239 315.073 81.534C314.189 80.6493 313.402 78.6833 313.501 77.1105C313.599 76.1274 314.09 75.2427 314.877 74.7512C317.334 73.1784 320.873 74.7512 323.134 76.6189C325.592 78.585 328.049 80.2561 330.605 82.2222C331.293 82.7137 331.391 83.5984 330.9 84.2865C330.408 84.8763 329.524 85.0729 328.836 84.4831Z" fill="white"/>
<path d="M330.703 80.0595C323.134 75.341 320.578 73.1784 318.907 72.9818C318.809 72.9818 318.514 73.375 318.416 73.8665C318.416 74.1614 318.514 74.2597 318.514 74.2597C319.202 74.7512 319.3 75.6359 318.809 76.324C318.317 77.0122 317.433 77.1105 316.744 76.619C313.795 74.5546 316.155 69.5412 319.202 70.0327C320.283 70.2293 321.561 70.8191 323.134 71.8022L332.08 77.602C332.768 77.9952 332.964 78.9782 332.571 79.6663C332.276 80.2561 331.391 80.4527 330.703 80.0595Z" fill="white"/>
<path d="M330.9 73.7682C329.721 72.7852 324.806 69.9344 323.823 69.8361C323.135 69.7378 322.25 70.0327 321.857 70.5242C321.758 70.6225 321.66 70.7208 321.758 71.114C322.053 71.9005 321.562 72.6869 320.874 72.9818C320.087 73.2767 319.301 72.7852 319.006 72.0971C318.023 69.0497 320.972 66.6905 324.118 66.9854C326.084 67.182 331.982 71.0158 332.768 71.5073C333.456 71.9988 333.554 72.9818 333.063 73.5716C332.473 74.1614 331.49 74.358 330.9 73.7682Z" fill="white"/>
<path d="M350.659 104.93C346.53 97.2626 348.201 88.1205 345.154 80.7479C342.5 74.3582 337.093 72.1956 334.734 72.8837C334.144 73.0803 333.554 73.5718 333.554 73.965C333.456 74.4565 333.947 75.1447 334.734 75.7345C335.717 76.5209 336.995 77.0124 338.076 78.0937C340.534 80.4529 340.73 83.9918 340.632 86.3511C340.534 88.8086 340.239 91.2662 341.123 93.3305C341.418 94.1169 341.123 94.9033 340.337 95.2965C339.551 95.5914 338.764 95.2965 338.371 94.5101C337.388 92.1509 337.486 89.7916 337.585 87.4324C337.978 79.8631 335.815 80.2563 332.964 78.0937C331.293 76.8158 330.409 75.1446 330.605 73.4735C330.802 71.9007 332.178 70.4262 333.947 69.9346C337.781 68.8533 344.662 71.7041 347.906 79.5682C349.479 83.3037 349.872 87.3341 350.364 91.1679C350.855 95.1982 351.15 99.5235 353.313 103.456C353.706 104.144 353.411 105.028 352.723 105.422C351.937 105.913 351.052 105.618 350.659 104.93Z" fill="white"/>
<path d="M451.811 210.801C451.614 210.801 451.418 210.801 451.221 210.703C440.703 206.574 437.754 202.74 432.151 199.791C429.496 198.317 426.744 198.218 422.91 197.629C421.829 197.432 421.337 196.252 421.927 195.368C425.466 189.863 428.12 183.473 429.791 176.494C430.873 172.07 431.561 167.253 431.856 162.142C432.347 154.474 435.1 149.362 436.181 142.088C436.279 141.302 437.066 140.712 437.852 140.81C438.638 140.908 439.228 141.695 439.13 142.481C438.049 149.756 435.296 155.26 434.805 162.338C434.51 167.548 433.723 172.562 432.642 177.182C431.069 183.768 428.71 189.764 425.564 195.073C428.415 195.466 430.971 195.859 433.527 197.235C439.13 200.184 441.784 203.625 451.024 207.459C455.055 198.022 459.184 187.798 461.936 176.002C462.133 175.216 462.919 174.724 463.705 174.921C464.492 175.117 464.983 175.904 464.787 176.69C461.838 189.273 457.414 199.988 453.187 209.916C452.892 210.506 452.401 210.801 451.811 210.801Z" fill="white"/>
<path d="M465.083 169.023C464.984 169.023 464.886 169.023 464.886 169.023C464.1 168.925 463.51 168.138 463.608 167.352C463.903 165.484 464.1 163.518 464.296 161.65C464.886 155.949 465.377 147.593 465.476 139.237C465.672 125.77 465.181 114.367 464.001 108.076C463.411 104.93 462.625 101.293 460.757 98.2455C455.449 89.7916 444.636 88.8085 435.1 86.0561C431.66 85.0731 427.138 83.107 425.369 78.88C425.074 78.0936 425.467 77.3072 426.155 76.914C426.941 76.6191 427.728 77.0123 428.121 77.7004C431.955 86.9408 454.269 82.0257 463.215 96.5744C465.377 100.015 466.262 103.947 466.852 107.388C468.523 116.235 468.523 131.078 468.425 139.139C468.228 147.495 467.835 155.949 467.245 161.749C467.049 163.715 466.754 165.681 466.459 167.548C466.36 168.433 465.771 169.023 465.083 169.023Z" fill="white"/>
<path d="M397.352 67.8704C396.566 67.7721 395.976 66.9857 396.074 66.1993C396.172 65.4128 396.959 64.823 397.745 64.9213C398.139 65.0197 398.532 64.823 398.827 64.6264C399.416 64.0366 400.301 64.0366 400.891 64.6264C401.481 65.2163 401.481 66.101 400.891 66.6908C400.006 67.5755 398.63 67.9687 397.352 67.8704Z" fill="white"/>
<path d="M366.584 174.528C366.486 174.528 366.486 174.528 366.584 174.528C365.699 174.528 365.109 173.84 365.109 173.053C365.208 167.843 365.797 164.304 367.075 158.799C367.272 158.013 368.058 157.522 368.845 157.718C369.631 157.915 370.123 158.701 369.926 159.488C368.747 164.894 368.157 168.138 368.058 173.152C367.96 173.938 367.37 174.528 366.584 174.528Z" fill="white"/>
<path d="M356.556 135.207C354.885 132.159 356.556 128.62 355.573 126.36C355.278 125.671 354.688 124.983 354.492 123.902C354 121.641 355.573 119.675 356.359 118.594C356.851 117.906 357.834 117.807 358.424 118.397C359.112 118.889 359.21 119.872 358.62 120.461C356.359 123.312 357.441 123.312 358.227 125.18C359.505 128.227 358.031 131.766 359.112 133.732C359.505 134.42 359.21 135.305 358.522 135.698C357.834 136.19 356.949 135.895 356.556 135.207Z" fill="white"/>
<path d="M441.391 148.183C440.604 148.183 439.916 147.495 440.015 146.61C440.015 145.922 440.113 145.332 439.916 144.742C439.818 144.349 439.621 144.152 439.425 144.054C439.228 143.956 438.737 144.054 438.147 143.759C436.574 143.169 436.181 141.4 435.788 140.712C435.1 140.613 434.51 140.024 434.51 139.237C434.51 138.451 435.198 137.763 435.984 137.763C437.655 137.763 438.344 139.237 438.737 140.122C438.835 140.417 439.13 140.908 439.228 141.007C439.228 141.007 439.327 141.007 439.425 141.007C439.621 141.007 439.916 141.105 440.113 141.105C441.293 141.4 442.276 142.383 442.669 143.759C442.964 144.742 442.964 145.725 442.865 146.61C442.964 147.495 442.276 148.183 441.391 148.183Z" fill="white"/>
<path d="M395.976 37.495C395.288 37.1018 395.091 36.1188 395.485 35.4307C395.878 34.7426 396.861 34.546 397.549 34.9392C402.267 37.8882 407.871 39.1662 413.376 38.5763C414.162 38.478 414.948 39.0679 414.948 39.8543C415.047 40.6407 414.457 41.4271 413.67 41.4271C407.674 42.1152 401.383 40.8373 395.976 37.495Z" fill="white"/>
<path d="M456.136 139.926C455.94 139.926 455.645 139.827 455.448 139.729C454.76 139.336 454.465 138.451 454.76 137.763C456.923 133.438 455.35 129.506 455.35 129.407C455.055 128.326 454.563 126.753 455.35 125.377C455.645 124.787 456.136 124.394 456.333 124.099C455.743 123.706 454.662 123.313 453.973 122.33C452.794 120.757 453.384 118.889 453.384 117.611C453.384 117.218 453.285 117.021 453.285 117.021C452.99 116.726 451.221 116.53 449.747 115.154C449.157 114.662 449.058 113.679 449.648 113.089C450.14 112.499 451.123 112.401 451.713 112.991C452.302 113.482 452.892 113.679 453.482 113.876C454.662 114.269 456.431 114.859 456.333 117.611C456.333 118.791 455.94 120.069 456.333 120.462C456.824 121.15 459.577 121.74 459.478 124.197C459.38 125.18 458.79 125.869 458.397 126.36C457.906 126.95 457.807 126.95 458.299 128.621L458.397 128.916C459.38 132.258 459.085 135.994 457.512 139.139C457.217 139.631 456.726 139.926 456.136 139.926Z" fill="white"/>
<path d="M448.764 196.744C445.225 193.598 440.703 191.632 436.083 191.239C435.297 191.141 434.707 190.453 434.707 189.666C434.805 188.88 435.493 188.29 436.28 188.29C441.588 188.683 446.798 190.944 450.73 194.581C451.32 195.171 451.418 196.056 450.829 196.646C450.239 197.236 449.354 197.334 448.764 196.744Z" fill="white"/>
<path d="M452.401 186.816L448.469 185.144C447.682 184.849 447.388 183.965 447.682 183.178C447.977 182.392 448.862 182.097 449.649 182.392L453.581 184.063C454.367 184.358 454.662 185.243 454.367 186.029C453.974 186.816 453.187 187.11 452.401 186.816Z" fill="white"/>
<path d="M388.898 188.192C388.701 188.192 388.603 188.192 388.406 188.094C387.62 187.799 387.227 187.012 387.522 186.226C387.915 184.948 388.308 183.867 388.013 182.982C387.915 182.687 387.817 182.392 387.62 182.097C387.325 181.606 387.03 181.016 386.932 180.229C386.735 179.246 387.129 177.28 387.915 176.101L386.342 173.25C385.949 172.562 386.244 171.677 386.932 171.284C387.62 170.891 388.505 171.186 388.898 171.874L391.061 175.904C391.356 176.396 391.257 176.986 390.962 177.477C390.766 177.772 390.471 177.969 390.176 178.067C389.979 178.558 389.684 179.443 389.783 179.836C389.881 180.131 389.979 180.524 390.176 180.918C390.373 181.311 390.569 181.802 390.766 182.294C391.356 184.162 390.667 186.029 390.176 187.307C390.078 187.799 389.488 188.192 388.898 188.192Z" fill="white"/>
<path d="M419.372 96.5743C417.701 96.5743 415.932 96.2794 414.261 95.7879C409.247 94.2151 404.922 90.283 402.661 85.2696C402.366 84.4832 402.661 83.6968 403.447 83.3036C404.234 83.0087 405.02 83.3036 405.413 84.09C407.379 88.4153 411.017 91.7575 415.145 93.0355C419.274 94.3134 423.993 93.6253 427.63 91.0694C430.186 89.3 432.348 86.7441 434.314 84.2866C434.806 83.6968 435.789 83.5985 436.379 84.09C436.968 84.5815 437.067 85.5645 436.575 86.1543C434.413 88.8085 432.152 91.5609 429.203 93.527C426.45 95.493 422.911 96.5743 419.372 96.5743Z" fill="white"/>
<path d="M393.617 127.244C392.634 127.244 391.945 126.36 392.142 125.377L394.206 117.807C394.403 117.021 395.189 116.529 395.976 116.726C396.762 116.923 397.254 117.709 397.057 118.495L394.993 126.065C394.894 126.851 394.305 127.244 393.617 127.244Z" fill="white"/>
<path d="M480.711 74.8498C476.484 58.63 468.325 43.983 457.119 32.58C454.563 29.9259 451.614 27.37 448.665 25.1091C448.665 25.1091 448.665 25.1091 448.566 25.0108C439.523 18.1296 428.808 13.1163 417.7 10.5604C412.784 9.38078 407.673 8.69266 402.463 8.49606C375.43 7.11983 348.397 17.7364 330.309 36.9053C327.557 39.7561 325.099 42.9017 322.838 46.0474C307.7 67.4772 302.293 96.2796 310.452 122.33C311.927 126.95 314.188 132.553 316.645 137.272C320.577 144.939 325.492 151.132 332.079 156.932C338.665 162.732 347.414 168.433 356.556 172.758C360.881 174.823 360.979 174.626 370.613 178.263C374.348 179.738 378.28 181.212 380.836 182.097C380.64 182.884 380.05 184.85 377.986 188.978C375.135 194.876 371.203 201.856 369.138 205.002C368.843 205.493 368.843 206.181 369.138 206.673C369.433 207.066 369.826 207.262 370.318 207.262C370.416 207.262 370.613 207.262 370.711 207.164C381.721 203.822 392.239 199.89 402.168 195.466C402.856 195.171 403.544 194.876 404.232 194.582C408.557 192.615 411.9 190.846 412.096 190.748C419.862 186.717 421.14 185.833 425.76 182.884C428.12 181.311 430.086 180.131 432.248 177.87L432.346 177.772C432.838 177.182 432.74 176.297 432.248 175.806C431.658 175.216 430.774 175.314 430.184 175.904L430.086 176.002C427.726 178.362 425.957 179.345 422.516 181.606C417.11 185.145 408.066 189.666 402.954 192.026C402.266 192.321 401.676 192.615 400.988 192.91C392.338 196.744 383.196 200.283 373.66 203.33C375.823 199.693 378.477 194.778 380.64 190.355C384.375 182.49 383.982 181.311 383.687 180.721C383.49 180.229 383.097 179.836 382.606 179.738C378.969 178.558 370.711 175.314 365.993 173.545C366.288 169.22 366.681 164.993 366.976 160.667C361.078 163.322 354.786 163.616 348.692 161.159C344.661 159.586 342.204 156.539 340.041 152.803C336.011 145.529 333.553 138.451 332.668 130.095C331.685 120.757 331.784 111.418 331.096 104.242C330.801 100.113 329.916 95.6898 326.77 92.9374C326.475 92.6425 326.082 92.4459 325.787 92.151C324.804 91.4629 323.625 90.9713 322.445 90.4798C321.855 90.2832 321.265 89.9883 320.774 89.7917C318.709 88.907 316.547 87.924 315.171 86.0563C313.794 84.2868 313.598 81.4361 315.171 79.8632C314.188 79.5683 314.188 78.7819 314.384 77.7006C314.581 76.7176 315.662 75.7346 316.645 75.7346H316.842C315.466 73.4736 316.842 70.5245 319.496 70.6228C323.92 68.3619 329.326 69.4432 331.784 73.3753C331.882 73.277 332.079 73.1787 332.177 73.0804C334.34 71.4093 337.387 71.5076 339.943 72.6872C341.319 73.3753 342.4 74.26 342.99 75.0464C342.99 75.0464 343.088 75.0464 343.088 75.1447C345.448 77.9955 346.431 81.731 347.119 85.4664C349.478 97.6559 348.593 100.212 350.068 102.768C350.854 104.144 352.624 105.127 354.098 104.537C354.786 109.452 356.064 114.662 358.423 119.577C364.911 110.239 371.891 100.31 378.379 90.9713C379.657 89.1036 380.935 87.2359 382.606 85.663C387.521 80.8462 392.829 82.2225 399.415 83.5987C399.612 83.5987 399.809 83.697 400.005 83.697C400.988 83.8936 401.873 84.0902 402.856 84.2868C403.642 84.0902 404.33 83.697 404.822 83.2055C407.476 80.5513 406.296 74.26 406.788 72.4906C402.954 74.7515 397.646 72.0974 394.009 69.5415C390.273 66.8874 389.88 63.0536 388.504 59.0232C386.243 52.1421 383.49 45.1627 385.751 38.2815C385.85 38.0849 385.85 37.8883 385.948 37.6917C387.029 34.0546 387.816 31.1055 394.304 28.8446C396.27 28.1564 403.446 28.353 405.117 27.0751C406.198 26.1904 405.117 23.0447 405.019 20.7838C405.019 20.3906 404.92 19.7025 405.313 19.211C406.198 18.0313 407.181 16.8517 408.459 16.0653C412.49 13.5095 417.11 16.0653 421.042 18.8178C426.743 22.7498 426.743 29.0412 420.452 31.6953C419.666 32.0885 418.879 33.2681 417.896 33.563C422.025 36.6104 425.564 42.1153 427.235 46.9321C427.235 46.9321 427.235 46.9321 427.235 47.0304C428.021 49.4879 428.414 51.6506 427.726 53.8132C426.547 57.5487 423.794 59.908 422.91 63.9383C422.811 64.2332 422.811 64.5281 422.713 64.823C421.435 72.8838 425.465 82.3208 432.936 85.7613C437.753 87.924 449.549 87.2359 454.071 89.89C462.329 94.8051 465.376 105.225 465.966 114.662C466.457 123.214 465.376 131.275 466.949 139.532C467.047 140.122 467.244 140.81 467.342 141.4C466.752 142.383 466.162 143.268 465.572 144.251C465.081 144.939 465.278 145.824 465.966 146.315C466.654 146.807 467.539 146.61 468.03 145.922C469.799 143.268 471.471 140.515 472.945 137.763L473.043 137.566C473.043 137.566 473.043 137.468 473.142 137.468C479.236 126.36 482.677 114.367 483.365 101.686C483.955 92.4459 482.972 83.5987 480.711 74.8498ZM373.169 35.6274C364.223 39.1662 356.163 44.8678 349.773 51.9455C349.576 52.1421 349.281 52.2404 349.085 52.2404C348.888 52.2404 348.593 52.1421 348.397 51.9455C348.003 51.5523 348.003 50.9625 348.298 50.5693C354.885 43.1966 363.24 37.3968 372.481 33.6613C372.972 33.4647 373.562 33.6613 373.759 34.2512C373.857 34.9393 373.66 35.4308 373.169 35.6274Z" fill="white"/>
<path d="M261.499 437.485C260.516 436.601 259.336 435.913 258.058 435.618C257.272 435.421 256.78 434.635 256.977 433.848C257.174 433.062 257.96 432.57 258.746 432.767C260.516 433.258 262.089 434.143 263.465 435.323C264.055 435.913 264.055 436.797 263.563 437.387C263.072 438.075 262.089 438.075 261.499 437.485Z" fill="white"/>
<path d="M312.222 436.502C312.026 436.502 311.731 436.404 311.534 436.305L309.371 435.224C308.683 434.831 308.388 433.946 308.782 433.258C309.175 432.57 310.06 432.275 310.748 432.668L312.91 433.75C313.598 434.143 313.893 435.028 313.5 435.716C313.205 436.207 312.714 436.502 312.222 436.502Z" fill="white"/>
<path d="M130.954 438.567C129.283 436.896 126.924 435.913 124.466 435.913C124.466 435.913 124.466 435.913 124.368 435.913C119.354 435.913 115.226 439.845 115.226 444.76C115.226 447.119 116.11 449.38 117.88 451.149C119.551 452.821 121.91 453.804 124.368 453.804C124.368 453.804 124.368 453.804 124.466 453.804C129.479 453.804 133.608 449.871 133.608 444.956C133.608 442.597 132.625 440.336 130.954 438.567ZM126.235 446.038C126.137 446.333 125.842 446.529 125.547 446.529C125.449 446.529 125.351 446.529 125.252 446.529C124.761 446.529 124.269 446.333 123.974 446.136C123.876 446.136 123.778 446.234 123.68 446.234C123.188 446.234 122.697 445.841 122.598 445.35C122.5 444.76 122.697 444.268 123.188 443.777C123.68 443.384 124.269 443.187 124.859 443.187C125.449 443.285 125.94 443.678 126.235 444.17C126.53 444.858 126.53 445.546 126.235 446.038Z" fill="white"/>
<path d="M168.8 438.764C167.128 437.092 164.769 436.109 162.312 436.109C162.312 436.109 162.312 436.109 162.213 436.109C157.2 436.109 153.071 440.041 153.071 444.957C153.071 447.316 153.956 449.577 155.725 451.346C157.397 453.017 159.756 454 162.213 454C162.213 454 162.213 454 162.312 454C167.325 454 171.454 450.068 171.454 445.153C171.454 442.794 170.569 440.533 168.8 438.764ZM164.671 445.94C164.573 446.038 164.474 446.136 164.278 446.234C163.885 446.431 163.491 446.529 163.098 446.529C162.312 446.529 161.525 446.234 161.034 445.645C160.247 444.76 160.247 443.285 161.132 442.401C161.525 442.007 162.115 442.007 162.508 442.401C162.607 442.499 162.705 442.597 162.705 442.794C163 442.794 163.295 442.794 163.59 442.991C164.179 443.187 164.573 443.679 164.769 444.367C165.064 444.858 164.966 445.448 164.671 445.94Z" fill="white"/>
<path d="M174.502 426.377C174.207 426.082 173.814 425.984 173.42 425.984L148.452 425.886L149.041 316.181C149.041 315.493 148.648 315.001 147.96 314.805L136.557 311.266C136.066 311.168 135.672 311.168 135.279 311.462C134.886 311.757 134.689 312.151 134.689 312.642L134.001 425.886L111.588 425.591C110.802 425.591 110.114 426.279 110.114 427.065L110.016 438.763C110.016 439.157 110.212 439.55 110.409 439.845C110.704 440.14 111.097 440.238 111.49 440.238L173.42 440.533C174.207 440.533 174.895 439.845 174.895 439.058L174.993 427.36C174.993 426.967 174.797 426.574 174.502 426.377ZM135.967 432.964C135.869 432.964 135.869 432.964 135.967 432.964C131.937 432.669 127.907 432.669 123.975 432.964C123.385 432.964 122.991 432.57 122.893 432.079C122.893 431.489 123.286 431.096 123.778 430.998C127.808 430.703 132.035 430.703 136.066 430.998C136.655 430.998 137.049 431.489 136.95 432.079C136.852 432.57 136.459 432.964 135.967 432.964ZM142.455 387.155C142.455 387.745 142.062 388.138 141.472 388.138C140.882 388.138 140.489 387.745 140.489 387.155V367.396C140.489 366.806 140.882 366.413 141.472 366.413C142.062 366.413 142.455 366.806 142.455 367.396V387.155ZM141.276 356.485L140.882 356.091C140.489 355.698 140.489 355.108 140.882 354.715C141.276 354.322 141.865 354.322 142.259 354.715L142.652 355.108C143.143 355.502 143.045 356.19 142.652 356.583C142.259 356.878 141.669 356.878 141.276 356.485Z" fill="white"/>
<path d="M228.173 3.77734C219.523 7.51282 212.838 15.4753 210.676 24.6173C208.415 33.7594 210.676 43.8845 216.574 51.2572C218.245 53.3215 220.113 55.0909 221.587 57.2536C223.062 59.4162 224.045 62.0704 223.553 64.6262C224.143 59.4162 224.733 53.813 222.079 49.3894C220.997 47.5217 219.425 45.9489 218.048 44.1794C207.039 29.8273 216.476 5.74338 228.763 5.35017" fill="white"/>
<path d="M223.358 52.1419C207.334 40.6406 207.433 16.7532 223.358 5.35018C236.235 -3.89019 254.224 -0.842832 263.465 12.0347C267.102 17.0481 268.871 22.9462 268.773 29.1392C268.773 29.9257 268.085 30.6138 267.298 30.6138C266.512 30.6138 265.824 29.9257 265.824 29.1392C265.922 23.6343 264.251 18.326 261.007 13.8041C252.75 2.20452 236.628 -0.449627 225.029 7.80773C213.429 16.0651 210.775 32.1866 219.032 43.7862C220.703 46.1455 222.669 48.1115 225.029 49.7826C225.717 50.2741 225.815 51.1589 225.324 51.847C224.93 52.4368 224.046 52.5351 223.358 52.1419Z" fill="white"/>
<path d="M234.662 56.9586C233.875 56.762 233.384 56.0739 233.482 55.1892C233.679 54.4028 234.367 53.9112 235.252 54.0095C248.916 56.6637 261.695 48.1114 265.037 35.3322C265.234 34.5458 266.02 34.0543 266.807 34.2509C267.593 34.4475 268.084 35.2339 267.888 36.0203C266.217 42.5082 262.285 48.1114 256.78 52.0435C250.095 56.8603 242.231 58.4331 234.662 56.9586Z" fill="white"/>
<path d="M223.16 64.3312C222.964 57.0569 222.866 54.0095 222.669 50.8639C222.669 50.0774 223.259 49.3893 224.045 49.291C224.832 49.291 225.52 49.8808 225.618 50.6672C225.716 53.6163 225.815 56.3688 225.913 60.4974C228.37 58.0399 231.123 55.8772 234.072 54.0095C234.76 53.6163 235.645 53.8129 236.136 54.501C236.53 55.1891 236.333 56.0738 235.645 56.5654C231.909 58.9246 228.567 61.7754 225.716 65.1176C224.93 66.2972 223.259 65.7074 223.16 64.3312Z" fill="white"/>
<path d="M251.373 12.6244L251.275 12.4278C250.489 11.5431 249.702 10.7567 248.424 10.0686C246.557 9.08555 244.591 8.88895 242.919 9.28215C241.445 9.67536 240.167 10.5601 239.086 11.5431C228.273 20.6852 225.422 33.7593 229.649 43.6878C231.516 48.308 234.466 49.291 239.381 48.4063C240.659 48.2097 241.543 47.1284 241.543 45.8505C241.543 43.2946 241.642 40.7388 241.347 38.1829C241.248 36.905 240.167 35.922 238.889 35.8237C238.594 35.8237 238.201 35.6271 238.004 35.3322C237.611 34.8406 237.415 34.1525 237.415 33.3661C237.513 30.5154 238.299 27.6646 238.987 25.7969C239.381 24.8139 239.97 23.4376 240.855 23.0444C241.543 22.7495 242.428 23.1427 242.919 23.3393C243.214 23.4376 243.509 23.5359 243.804 23.6342C244.984 24.224 246.458 23.9291 247.245 22.9461C249.112 20.7835 250.685 18.3259 251.963 15.7701C252.356 14.7871 252.16 13.5091 251.373 12.6244ZM235.055 23.9291C234.072 25.9935 233.581 28.2544 233.679 30.5154C233.679 31.1052 233.286 31.4984 232.696 31.4984C232.205 31.4984 231.713 31.1052 231.713 30.5154C231.615 27.9595 232.205 25.3054 233.286 22.9461C233.482 22.4546 234.072 22.258 234.564 22.4546C235.055 22.8478 235.252 23.4376 235.055 23.9291Z" fill="white"/>
<path d="M178.63 187.7C178.237 187.7 177.844 187.503 177.549 187.209C174.207 183.571 174.797 178.263 175.976 173.151C176.861 169.023 177.549 164.403 174.993 161.748C174.403 161.159 174.403 160.274 174.993 159.684C175.583 159.094 176.468 159.094 177.057 159.684C180.596 163.321 179.908 168.826 178.827 173.741C177.844 178.165 177.254 182.588 179.712 185.243C180.301 185.832 180.203 186.815 179.613 187.307C179.318 187.602 178.925 187.7 178.63 187.7Z" fill="white"/>
<path d="M171.454 234.59C171.061 234.59 170.668 234.492 170.373 234.197C169.783 233.607 169.783 232.722 170.373 232.133L172.044 230.461C172.339 229.675 173.224 228.889 174.305 227.906C174.797 227.512 175.583 226.824 175.78 226.431C175.878 225.743 176.468 225.251 177.254 225.251C178.041 225.251 178.729 225.94 178.729 226.726C178.729 227.906 177.746 228.79 176.271 230.068C175.78 230.461 174.993 231.15 174.797 231.543C174.698 231.838 174.6 232.034 174.403 232.231L172.437 234.197C172.241 234.394 171.848 234.59 171.454 234.59Z" fill="white"/>
<path d="M182.169 233.017C181.678 233.017 181.186 232.821 180.99 232.329C180.498 231.641 180.695 230.756 181.383 230.265L182.858 229.282C183.546 228.79 184.43 228.987 184.922 229.675C185.413 230.363 185.217 231.248 184.529 231.739L183.054 232.722C182.759 232.919 182.464 233.017 182.169 233.017Z" fill="white"/>
<path d="M41.6953 91.8558H30.9804C30.194 91.8558 29.5059 91.1677 29.5059 90.3813C29.5059 89.5949 30.194 88.9067 30.9804 88.9067H41.6953C42.4817 88.9067 43.1698 89.5949 43.1698 90.3813C43.1698 91.1677 42.4817 91.8558 41.6953 91.8558Z" fill="white"/>
<path d="M45.0385 91.9541C44.7436 91.7575 44.4487 91.4626 44.4487 90.9711C44.3504 90.6762 44.4487 90.283 44.6453 89.8898C44.9402 89.5949 45.1368 89.3 45.6283 89.3C46.1199 89.2017 46.6114 89.3983 47.0046 89.6932C47.2995 89.9881 47.3978 90.3813 47.3978 90.7745C47.3978 91.1677 47.2995 91.5609 47.0046 91.8558C46.808 92.0524 46.5131 92.1507 46.2182 92.249C46.0216 92.1507 45.4317 92.1508 45.0385 91.9541Z" fill="white"/>
<path d="M421.043 367.2C432.741 376.342 449.551 378.504 463.215 372.705C476.879 366.905 487.004 353.437 488.675 338.692C490.346 323.947 483.563 308.514 471.472 299.765C481.892 309.89 486.906 325.323 484.251 339.577C481.597 353.831 470.981 366.413 457.317 371.328C443.653 376.145 427.335 372.901 416.816 362.874" fill="white"/>
<path d="M457.219 301.829C454.467 297.602 453.779 291.605 456.924 287.673C462.528 296.422 470.392 303.598 479.632 308.415C479.73 308.513 472.161 313.92 468.327 312.052C464.592 310.381 459.48 305.269 457.219 301.829Z" fill="white"/>
<path d="M404.136 344.984C403.939 344.197 404.333 343.411 405.119 343.116C405.905 342.919 406.692 343.313 406.987 344.099C414.261 367.691 441.491 378.996 463.314 367.397C464.002 367.003 464.887 367.298 465.28 367.986C465.673 368.674 465.378 369.559 464.69 369.952C458.792 373.098 452.402 374.769 445.718 374.868C426.844 375.359 409.641 363.071 404.136 344.984Z" fill="white"/>
<path d="M468.13 366.119C467.639 365.431 467.737 364.546 468.425 364.054C489.069 348.523 489.462 318.147 469.9 302.026C469.31 301.534 469.212 300.551 469.703 299.962C470.195 299.372 471.178 299.273 471.768 299.765C492.706 317.066 492.313 349.801 470.195 366.414C469.507 366.905 468.622 366.807 468.13 366.119Z" fill="white"/>
<path d="M426.156 295.833C425.861 295.046 426.156 294.26 426.844 293.867C432.152 291.409 437.854 290.131 443.752 289.935C447.979 289.836 452.108 290.328 456.04 291.507C456.629 291.704 457.121 292.196 457.121 292.884C457.121 293.67 456.531 294.358 455.745 294.456C455.548 294.456 455.45 294.456 455.253 294.358C451.518 293.277 447.684 292.884 443.752 292.884C438.247 292.982 433.037 294.26 428.024 296.521C427.434 296.914 426.549 296.619 426.156 295.833Z" fill="white"/>
<path d="M402.269 333.777V333.384C401.974 319.917 408.167 306.941 418.882 298.782C419.57 298.29 420.455 298.389 420.946 299.077C421.438 299.765 421.339 300.65 420.651 301.141C403.645 314.215 405.316 333.581 405.218 333.679C405.218 334.465 404.628 335.154 403.743 335.154C402.957 335.252 402.269 334.564 402.269 333.777Z" fill="white"/>
<path d="M450.141 374.277C449.453 373.884 449.06 373 449.453 372.311C461.446 347.539 460.561 317.164 447.094 293.08C446.701 292.392 446.996 291.507 447.684 291.114C448.372 290.721 449.257 291.016 449.65 291.704C463.609 316.574 464.494 347.933 452.009 373.589C451.714 374.278 450.83 374.671 450.141 374.277Z" fill="white"/>
<path d="M439.721 373.294C427.532 346.753 428.318 313.035 441.491 291.507C441.884 290.819 442.867 290.623 443.555 291.016C444.243 291.409 444.44 292.392 444.047 293.08C431.267 313.92 430.678 346.36 442.376 372.115C442.67 372.901 442.376 373.688 441.687 374.081C440.901 374.376 440.016 374.081 439.721 373.294Z" fill="white"/>
<path d="M445.719 319.13C445.522 319.13 445.325 319.13 445.129 319.13C432.743 319.032 420.75 316.673 410.232 312.348C409.445 312.053 409.15 311.168 409.445 310.381C409.74 309.595 410.625 309.3 411.411 309.595C421.536 313.822 433.234 316.083 445.129 316.181C457.122 316.28 468.918 314.117 479.436 309.988C480.223 309.693 481.009 310.087 481.304 310.775C481.599 311.561 481.206 312.348 480.517 312.642C469.901 316.869 457.81 319.13 445.719 319.13Z" fill="white"/>
<path d="M412.786 359.827C412.491 359.041 412.885 358.254 413.671 357.959C434.118 350.882 455.449 350.685 475.405 357.468C476.191 357.763 476.584 358.549 476.289 359.336C475.995 360.122 475.208 360.515 474.422 360.22C455.056 353.634 434.413 353.831 414.654 360.712C413.966 361.007 413.081 360.515 412.786 359.827Z" fill="white"/>
<path d="M408.363 337.316C408.363 336.53 408.953 335.842 409.838 335.842L485.629 334.072C486.513 334.072 487.103 334.662 487.103 335.547C487.103 336.333 486.513 337.021 485.629 337.021L409.838 338.791C409.15 338.791 408.363 338.103 408.363 337.316Z" fill="white"/>
<path d="M475.11 328.862L474.422 321.882C474.324 321.096 474.913 320.31 475.798 320.31C476.584 320.211 477.371 320.801 477.371 321.686L478.059 328.665C478.157 329.452 477.568 330.238 476.683 330.238C475.896 330.238 475.208 329.648 475.11 328.862Z" fill="white"/>
<path d="M464.788 253.169C459.578 253.268 454.663 255.43 451.026 259.264C447.388 263.098 445.521 268.013 445.619 273.321C445.717 277.352 448.47 283.84 453.68 292.687L454.368 293.866C457.415 298.88 460.659 303.5 462.723 306.547C463.51 307.629 464.69 308.218 465.967 308.218C468.425 308.12 469.31 306.056 469.506 305.859C469.998 305.073 470.588 304.188 471.177 303.205C471.374 302.91 471.571 302.517 471.866 302.222L472.062 301.829C477.96 292.195 485.038 279.219 484.841 272.535C484.645 261.525 475.699 252.875 464.788 253.169ZM465.181 279.613C465.083 279.613 465.083 279.613 464.984 279.613C461.151 279.613 458.005 276.565 457.907 272.633C457.808 268.701 460.954 265.457 464.886 265.359C464.984 265.359 464.984 265.359 465.083 265.359C468.916 265.359 472.062 268.406 472.16 272.338C472.259 276.27 469.113 279.514 465.181 279.613ZM478.747 273.715C478.255 273.616 477.862 273.125 477.862 272.633C478.255 269.586 477.272 266.342 475.306 263.983C474.913 263.589 475.011 262.901 475.404 262.606C475.798 262.213 476.486 262.311 476.781 262.705C479.042 265.457 480.221 269.193 479.73 272.83C479.73 273.42 479.238 273.715 478.747 273.715Z" fill="white"/>
<path d="M487.003 382.731C486.315 382.239 486.118 381.355 486.61 380.667C498.111 363.169 504.009 342.132 503.223 321.194C503.223 320.407 503.813 319.719 504.599 319.621C505.386 319.621 506.074 320.211 506.172 320.997C506.958 342.525 500.962 364.25 489.067 382.239C488.674 382.927 487.691 383.124 487.003 382.731Z" fill="white"/>
<path d="M171.749 73.1787C171.454 69.8364 169.685 66.5925 166.834 64.823C163.983 63.0536 160.15 62.857 157.299 64.6264C154.448 66.3959 152.974 70.1313 153.957 73.277C154.94 76.4226 158.675 78.5853 161.919 77.7006" fill="white"/>
<path d="M33.1437 112.794H19.2831C18.4967 112.794 17.8086 112.106 17.8086 111.32C17.8086 110.533 18.4967 109.845 19.2831 109.845H33.1437C33.9301 109.845 34.6182 110.533 34.6182 111.32C34.6182 112.106 33.9301 112.794 33.1437 112.794Z" fill="white"/>
<path d="M39.1397 124.787H18.5946C17.8082 124.787 17.1201 124.099 17.1201 123.312C17.1201 122.526 17.8082 121.838 18.5946 121.838H39.1397C39.9262 121.838 40.6143 122.526 40.6143 123.312C40.6143 124.099 39.9262 124.787 39.1397 124.787Z" fill="white"/>
<path d="M31.7677 133.142H24.2968C23.5104 133.142 22.8223 132.454 22.8223 131.668C22.8223 130.881 23.5104 130.193 24.2968 130.193H31.7677C32.5542 130.193 33.2423 130.881 33.2423 131.668C33.2423 132.454 32.5542 133.142 31.7677 133.142Z" fill="white"/>
</svg>
