<svg width="18" height="15" viewBox="0 0 18 15" fill="none" xmlns="http://www.w3.org/2000/svg">
<path d="M8.89453 4.75H9C9.60938 4.75 10.1367 4.97266 10.582 5.41797C11.0273 5.86328 11.25 6.39062 11.25 7V7.14062L8.89453 4.75ZM5.66016 5.34766C5.37891 5.91016 5.23828 6.46094 5.23828 7C5.23828 8.03125 5.60156 8.92188 6.32812 9.67188C7.07812 10.3984 7.96875 10.7617 9 10.7617C9.53906 10.7617 10.0898 10.6211 10.6523 10.3398L9.49219 9.17969C9.30469 9.22656 9.14062 9.25 9 9.25C8.39062 9.25 7.86328 9.02734 7.41797 8.58203C6.97266 8.13672 6.75 7.60938 6.75 7C6.75 6.85938 6.77344 6.69531 6.82031 6.50781L5.66016 5.34766ZM1.51172 1.19922L2.46094 0.25L15.75 13.5391L14.8008 14.4883C14.6836 14.3711 14.3086 14.0078 13.6758 13.3984C13.0664 12.7891 12.5977 12.3203 12.2695 11.9922C11.2617 12.4141 10.1719 12.625 9 12.625C7.14844 12.625 5.47266 12.1094 3.97266 11.0781C2.47266 10.0469 1.39453 8.6875 0.738281 7C0.996094 6.39062 1.39453 5.72266 1.93359 4.99609C2.49609 4.24609 3.03516 3.67187 3.55078 3.27344C3.26953 2.99219 2.87109 2.59375 2.35547 2.07812C1.86328 1.5625 1.58203 1.26953 1.51172 1.19922ZM9 3.23828C8.53125 3.23828 8.07422 3.33203 7.62891 3.51953L6.01172 1.90234C6.92578 1.55078 7.92188 1.375 9 1.375C10.8516 1.375 12.5156 1.89063 13.9922 2.92188C15.4922 3.95312 16.5703 5.3125 17.2266 7C16.6641 8.38281 15.8086 9.56641 14.6602 10.5508L12.4805 8.37109C12.668 7.92578 12.7617 7.46875 12.7617 7C12.7617 5.96875 12.3867 5.08984 11.6367 4.36328C10.9102 3.61328 10.0312 3.23828 9 3.23828Z" fill="#5F646D"/>
</svg>
