<svg width="42" height="36" viewBox="0 0 42 36" fill="none" xmlns="http://www.w3.org/2000/svg">
<path d="M16.2621 17.6879C15.5648 17.2155 15.0849 17.013 15.2349 16.4057C15.6099 15.2187 15.5595 13.9381 15.0924 12.7842C15.9847 11.2471 16.9819 9.97989 15.9697 8.24784C15.7067 7.79235 15.3286 7.41403 14.8732 7.15082C14.4179 6.88761 13.9013 6.74877 13.3754 6.74823H8.45664C0.891124 6.74823 -3.74266 18.3702 3.96532 24.646C4.61765 25.1859 4.50518 25.6883 4.50518 27.3978C3.56963 28.1696 2.81579 29.1382 2.29739 30.2347C1.77898 31.3311 1.50875 32.5284 1.50596 33.7412V35.2408C1.50596 35.4396 1.58496 35.6304 1.72558 35.771C1.86619 35.9116 2.05691 35.9906 2.25577 35.9906H15.0024C15.1104 35.9916 15.2173 35.9694 15.3159 35.9253C15.4144 35.8813 15.5023 35.8164 15.5735 35.7353C15.6447 35.6541 15.6975 35.5585 15.7284 35.4551C15.7592 35.3516 15.7674 35.2427 15.7522 35.1358L15.6173 34.2135C15.4187 32.8247 14.9268 31.494 14.1744 30.3098C13.4221 29.1257 12.4263 28.1151 11.2534 27.3453V26.3781L12.2656 26.5506C12.6952 26.6213 13.1349 26.5977 13.5544 26.4814C13.9739 26.3651 14.363 26.1588 14.6947 25.877C15.0265 25.5952 15.2929 25.2446 15.4756 24.8494C15.6582 24.4543 15.7526 24.0241 15.7522 23.5888V21.6243C16.1336 21.4803 16.4686 21.2353 16.7215 20.9155C16.9744 20.5958 17.1356 20.2133 17.188 19.809C17.2403 19.4048 17.1819 18.9939 17.0188 18.6202C16.8557 18.2466 16.5942 17.9244 16.2621 17.6879ZM1.50596 16.4957C1.50596 12.4093 4.4302 8.24784 8.45664 8.24784H13.3754C13.6383 8.24811 13.8966 8.31753 14.1243 8.44913C14.352 8.58074 14.541 8.7699 14.6725 8.99765C15.2424 9.97239 14.56 10.7072 13.8177 11.9969H9.004C8.20856 11.9969 7.4457 12.3128 6.88324 12.8753C6.32077 13.4378 6.00479 14.2006 6.00479 14.9961V15.7459C5.60707 15.7459 5.22563 15.9039 4.9444 16.1851C4.66317 16.4663 4.50518 16.8478 4.50518 17.2455V20.9945C4.50411 21.3735 4.64657 21.7388 4.90392 22.017C5.16126 22.2952 5.5144 22.4657 5.89232 22.4941C5.78613 23.0056 5.60417 23.4984 5.35246 23.9562C4.83509 23.2889 1.50596 21.1595 1.50596 16.4957ZM6.00479 20.9945V17.2455H8.2542V20.9945H6.00479ZM14.1252 34.4235C14.1252 34.521 14.6275 34.491 8.2542 34.491V31.4918C8.2542 31.2929 8.1752 31.1022 8.03458 30.9616C7.89397 30.821 7.70325 30.742 7.50439 30.742C7.30553 30.742 7.11482 30.821 6.9742 30.9616C6.83359 31.1022 6.75459 31.2929 6.75459 31.4918V34.491H3.00557V33.7412C3.00529 32.7349 3.23003 31.7414 3.66334 30.8332C4.09666 29.9251 4.72758 29.1253 5.50992 28.4925H10.2937C11.3256 29.1425 12.2032 30.0101 12.865 31.0345C13.5268 32.0589 13.9569 33.2156 14.1252 34.4235ZM15.0024 20.2447C14.8036 20.2447 14.6129 20.3237 14.4722 20.4643C14.3316 20.6049 14.2526 20.7956 14.2526 20.9945V23.5888C14.2556 23.8084 14.2104 24.026 14.1201 24.2262C14.0297 24.4264 13.8965 24.6043 13.7299 24.7473C13.5633 24.8903 13.3672 24.995 13.1557 25.054C12.9441 25.1129 12.7222 25.1247 12.5056 25.0884C10.5336 24.7585 10.3686 24.6461 10.0162 24.946C9.66383 25.2459 9.7538 25.5533 9.7538 26.9929H6.00479C6.00479 25.4933 5.89232 25.8907 6.37969 25.1709C6.90864 24.3619 7.25885 23.4493 7.40692 22.4941C8.31418 22.4941 8.51663 22.5316 8.90653 22.3367C10.6086 23.4614 9.93376 23.2439 12.0032 23.2439C12.2021 23.2439 12.3928 23.1649 12.5334 23.0243C12.674 22.8837 12.753 22.693 12.753 22.4941C12.753 22.2953 12.674 22.1045 12.5334 21.9639C12.3928 21.8233 12.2021 21.7443 12.0032 21.7443C10.3986 21.7443 10.931 21.8718 9.7538 21.092V17.2455C9.7538 16.8478 9.59581 16.4663 9.31458 16.1851C9.03335 15.9039 8.65192 15.7459 8.2542 15.7459H7.50439V14.9961C7.50439 14.5984 7.66239 14.2169 7.94362 13.9357C8.22485 13.6545 8.60628 13.4965 9.004 13.4965H13.7428C14.0466 14.3143 14.0598 15.2118 13.7803 16.0383C13.6679 16.4875 13.6969 16.9604 13.8633 17.3925C14.0297 17.8246 14.3254 18.1949 14.71 18.4527C15.4598 18.9625 15.7522 19.0675 15.7522 19.5324C15.7426 19.7247 15.6594 19.9059 15.5198 20.0385C15.3802 20.1711 15.195 20.2449 15.0024 20.2447ZM41.9954 6.74823V2.24941C41.9954 1.65283 41.7584 1.08068 41.3365 0.658837C40.9147 0.236991 40.3425 0 39.746 0L32.2479 0C31.6513 0 31.0792 0.236991 30.6573 0.658837C30.2355 1.08068 29.9985 1.65283 29.9985 2.24941V6.74823H28.6264C28.0989 6.74614 27.5802 6.88319 27.1226 7.14557C26.665 7.40795 26.2847 7.78637 26.02 8.24267C25.7554 8.69896 25.6157 9.21698 25.6152 9.74446C25.6147 10.2719 25.7533 10.7902 26.017 11.2471L26.9093 12.7917C25.8446 15.401 27.3742 16.6007 26.4594 17.2155C25.6721 17.7329 24.7499 18.2052 24.7499 19.5399C24.7573 19.9988 24.905 20.4445 25.173 20.8171C25.4411 21.1897 25.8167 21.4714 26.2495 21.6243V23.5963C26.249 24.0324 26.3435 24.4633 26.5266 24.859C26.7096 25.2548 26.9768 25.6059 27.3094 25.8878C27.642 26.1698 28.0321 26.3758 28.4525 26.4916C28.8729 26.6073 29.3135 26.63 29.7436 26.558L30.7483 26.3781V27.3453C29.5755 28.1145 28.5802 29.1249 27.829 30.3093C27.0777 31.4937 26.5878 32.8248 26.3919 34.2135L26.2495 35.1358C26.2344 35.2427 26.2425 35.3516 26.2734 35.4551C26.3042 35.5585 26.357 35.6541 26.4282 35.7353C26.4994 35.8164 26.5873 35.8813 26.6859 35.9253C26.7844 35.9694 26.8913 35.9916 26.9993 35.9906H39.746C39.9448 35.9906 40.1355 35.9116 40.2761 35.771C40.4168 35.6304 40.4958 35.4396 40.4958 35.2408V33.7412C40.493 32.5284 40.2227 31.3311 39.7043 30.2347C39.1859 29.1382 38.4321 28.1696 37.4965 27.3978C37.4965 25.8982 37.3541 25.2159 38.0289 24.646C39.1945 23.7281 40.1505 22.5717 40.833 21.2543C41.5154 19.9368 41.9084 18.4888 41.9858 17.0072C42.0632 15.5255 41.8231 14.0444 41.2817 12.6631C40.7402 11.2817 39.9098 10.032 38.8462 8.99765H39.746C40.3425 8.99765 40.9147 8.76065 41.3365 8.33881C41.7584 7.91696 41.9954 7.34482 41.9954 6.74823ZM31.4981 2.24941C31.4981 2.05055 31.5771 1.85984 31.7177 1.71922C31.8583 1.5786 32.0491 1.49961 32.2479 1.49961H39.746C39.9448 1.49961 40.1355 1.5786 40.2761 1.71922C40.4168 1.85984 40.4958 2.05055 40.4958 2.24941V6.74823C40.4958 6.94709 40.4168 7.13781 40.2761 7.27843C40.1355 7.41904 39.9448 7.49804 39.746 7.49804H33.7475C33.5076 7.49804 33.6126 7.49804 31.4981 8.53277V2.24941ZM29.4961 25.0659C29.2795 25.1022 29.0576 25.0904 28.8461 25.0315C28.6345 24.9725 28.4385 24.8678 28.2718 24.7248C28.1052 24.5818 27.972 24.4039 27.8817 24.2037C27.7913 24.0035 27.7461 23.7859 27.7491 23.5663V20.9945C27.7491 20.7956 27.6701 20.6049 27.5295 20.4643C27.3889 20.3237 27.1982 20.2447 26.9993 20.2447C26.8552 20.2269 26.7194 20.1676 26.6084 20.0741C26.4973 19.9806 26.4158 19.8568 26.3737 19.7179C26.3316 19.579 26.3308 19.4308 26.3713 19.2914C26.4118 19.152 26.4919 19.0273 26.6019 18.9325L27.3517 18.4527C27.7378 18.1944 28.0344 17.8229 28.2009 17.3893C28.3674 16.9556 28.3955 16.4811 28.2815 16.0308C27.9861 15.2131 27.9782 14.3192 28.259 13.4965H32.9977C33.3954 13.4965 33.7769 13.6545 34.0581 13.9357C34.3393 14.2169 34.4973 14.5984 34.4973 14.9961V17.2455C34.4973 17.4443 34.5763 17.6351 34.7169 17.7757C34.8576 17.9163 35.0483 17.9953 35.2471 17.9953C35.9969 17.9953 36.2744 17.9353 36.5368 18.2052C36.6067 18.2825 36.6597 18.3734 36.6925 18.4723C36.7253 18.5712 36.7372 18.6758 36.7273 18.7795C36.7174 18.8832 36.6861 18.9837 36.6352 19.0746C36.5843 19.1655 36.5151 19.2448 36.4318 19.3074C34.7823 20.4022 34.4973 20.4771 34.4973 20.9945C34.4973 24.4811 35.9969 25.3884 35.9969 25.8007V26.9929H32.2479C32.2479 25.5983 32.3454 25.2234 31.9855 24.9235C31.6256 24.6236 31.4981 24.7435 29.4961 25.0659ZM38.9962 33.7412V34.491H35.2471V31.4918C35.2471 31.2929 35.1681 31.1022 35.0275 30.9616C34.8869 30.821 34.6962 30.742 34.4973 30.742C34.2985 30.742 34.1078 30.821 33.9671 30.9616C33.8265 31.1022 33.7475 31.2929 33.7475 31.4918V34.491C27.2467 34.491 27.8616 34.491 27.8766 34.4235C28.0449 33.2156 28.4749 32.0589 29.1367 31.0345C29.7985 30.0101 30.6761 29.1425 31.7081 28.4925H36.4918C37.2741 29.1253 37.9051 29.9251 38.3384 30.8332C38.7717 31.7414 38.9964 32.7349 38.9962 33.7412ZM37.0767 23.4914C36.919 23.6261 36.7758 23.7769 36.6493 23.9412C36.2268 23.171 36.0026 22.3078 35.9969 21.4294C37.1666 20.6196 38.2463 20.1172 38.2463 18.7076C38.2365 18.1175 37.9952 17.555 37.5744 17.1412C37.1536 16.7274 36.5871 16.4956 35.9969 16.4957V14.9961C35.9969 14.2006 35.6809 13.4378 35.1185 12.8753C34.556 12.3128 33.7932 11.9969 32.9977 11.9969H28.184L27.3217 10.4973C27.1898 10.2688 27.1205 10.0097 27.1208 9.74596C27.1211 9.48221 27.1909 9.2232 27.3232 8.99506C27.4555 8.76691 27.6457 8.5777 27.8745 8.44651C28.1033 8.31532 28.3626 8.24679 28.6264 8.24784H29.9985V9.74745C29.9985 9.94631 30.0775 10.137 30.2181 10.2776C30.3587 10.4183 30.5495 10.4973 30.7483 10.4973C30.9882 10.4973 30.8608 10.4973 33.9275 8.99765H36.3943C40.9531 11.5095 42.4378 19.105 37.0767 23.4914Z" fill="#0D99FF"/>
</svg>
