<svg width="80" height="69" viewBox="0 0 80 69" fill="none" xmlns="http://www.w3.org/2000/svg">
<path d="M30.9537 34.0134C29.6309 33.1173 28.7206 32.7332 29.005 31.5811C29.7164 29.3293 29.6209 26.9 28.7348 24.711C30.4274 21.7951 32.3192 19.3913 30.399 16.1056C29.9001 15.2416 29.1828 14.5239 28.319 14.0246C27.4552 13.5253 26.4753 13.2619 25.4775 13.2609H16.1467C1.79495 13.2609 -6.99534 35.3077 7.6267 47.213C8.86417 48.2371 8.65082 49.1901 8.65082 52.4332C6.87607 53.8972 5.44605 55.7347 4.46263 57.8146C3.47921 59.8945 2.9666 62.1658 2.9613 64.4665V67.3112C2.9613 67.6885 3.11116 68.0502 3.37791 68.317C3.64466 68.5837 4.00644 68.7336 4.38368 68.7336H28.5641C28.7689 68.7356 28.9717 68.6934 29.1587 68.6098C29.3456 68.5262 29.5123 68.4032 29.6474 68.2493C29.7825 68.0953 29.8827 67.914 29.9412 67.7177C29.9997 67.5215 30.0152 67.3149 29.9865 67.1121L29.7304 65.3626C29.3537 62.7279 28.4207 60.2036 26.9934 57.9572C25.5661 55.7109 23.6773 53.7939 21.4522 52.3336V50.4987L23.3724 50.8259C24.1872 50.96 25.0214 50.9153 25.8172 50.6946C26.6129 50.474 27.3511 50.0828 27.9804 49.5482C28.6098 49.0136 29.1152 48.3484 29.4616 47.5988C29.808 46.8492 29.9871 46.0332 29.9865 45.2075V41.4808C30.7099 41.2075 31.3454 40.7427 31.8252 40.1362C32.3049 39.5297 32.6108 38.8042 32.7101 38.0372C32.8094 37.2703 32.6985 36.4908 32.3891 35.7821C32.0798 35.0733 31.5836 34.462 30.9537 34.0134ZM2.9613 31.7518C2.9613 23.9998 8.50858 16.1056 16.1467 16.1056H25.4775C25.9764 16.1061 26.4664 16.2378 26.8983 16.4875C27.3302 16.7371 27.6888 17.096 27.9383 17.528C29.0193 19.3771 27.7249 20.771 26.3167 23.2175H17.1851C15.6761 23.2175 14.229 23.8169 13.162 24.8839C12.095 25.9509 11.4956 27.3981 11.4956 28.907V30.3294C10.7411 30.3294 10.0175 30.6291 9.48402 31.1626C8.95053 31.6961 8.65082 32.4197 8.65082 33.1742V40.286C8.64879 41.005 8.91904 41.698 9.40723 42.2258C9.89541 42.7535 10.5653 43.0769 11.2822 43.1308C11.0808 44.1012 10.7356 45.036 10.2581 45.9044C9.27666 44.6385 2.9613 40.599 2.9613 31.7518ZM11.4956 40.286V33.1742H15.7627V40.286H11.4956ZM26.8999 65.7608C26.8999 65.9457 27.8529 65.8888 15.7627 65.8888V60.1993C15.7627 59.8221 15.6128 59.4603 15.3461 59.1936C15.0793 58.9268 14.7176 58.777 14.3403 58.777C13.9631 58.777 13.6013 58.9268 13.3346 59.1936C13.0678 59.4603 12.9179 59.8221 12.9179 60.1993V65.8888H5.80606V64.4665C5.80552 62.5577 6.23186 60.6729 7.05385 58.9501C7.87585 57.2274 9.07271 55.7103 10.5568 54.5098H19.6316C21.5892 55.7429 23.2539 57.3886 24.5094 59.3319C25.7648 61.2753 26.5807 63.4694 26.8999 65.7608ZM28.5641 38.8637C28.1869 38.8637 27.8251 39.0135 27.5583 39.2803C27.2916 39.547 27.1417 39.9088 27.1417 40.286V45.2075C27.1474 45.624 27.0616 46.0368 26.8902 46.4165C26.7189 46.7963 26.4662 47.1338 26.1501 47.4051C25.834 47.6765 25.4621 47.8751 25.0608 47.9869C24.6595 48.0987 24.2385 48.121 23.8276 48.0522C20.0867 47.4264 19.7738 47.213 19.1053 47.782C18.4368 48.3509 18.6075 48.9341 18.6075 51.6651H11.4956C11.4956 48.8203 11.2822 49.5742 12.2068 48.2087C13.2102 46.674 13.8745 44.9428 14.1554 43.1308C15.8765 43.1308 16.2605 43.2019 17.0002 42.8321C20.229 44.9657 18.9488 44.5532 22.8746 44.5532C23.2518 44.5532 23.6136 44.4033 23.8804 44.1366C24.1471 43.8698 24.297 43.508 24.297 43.1308C24.297 42.7536 24.1471 42.3918 23.8804 42.125C23.6136 41.8583 23.2518 41.7084 22.8746 41.7084C19.8307 41.7084 20.8406 41.9502 18.6075 40.471V33.1742C18.6075 32.4197 18.3077 31.6961 17.7742 31.1626C17.2408 30.6291 16.5172 30.3294 15.7627 30.3294H14.3403V28.907C14.3403 28.1525 14.64 27.429 15.1735 26.8955C15.707 26.362 16.4306 26.0623 17.1851 26.0623H26.1745C26.7508 27.6138 26.776 29.3163 26.2456 30.8841C26.0325 31.7363 26.0875 32.6334 26.4031 33.4531C26.7188 34.2728 27.2797 34.9751 28.0094 35.4642C29.4318 36.4314 29.9865 36.6305 29.9865 37.5124C29.9682 37.8772 29.8103 38.221 29.5455 38.4725C29.2807 38.7241 28.9293 38.8641 28.5641 38.8637ZM79.7697 13.2609V4.72661C79.7697 3.59489 79.3201 2.50953 78.5199 1.70929C77.7196 0.909044 76.6343 0.459473 75.5026 0.459473L61.2788 0.459473C60.1471 0.459473 59.0617 0.909044 58.2615 1.70929C57.4612 2.50953 57.0117 3.59489 57.0117 4.72661V13.2609H54.4087C53.4081 13.2569 52.4241 13.5169 51.556 14.0146C50.6879 14.5123 49.9665 15.2302 49.4645 16.0958C48.9624 16.9614 48.6975 17.9441 48.6966 18.9447C48.6956 19.9454 48.9585 20.9286 49.4588 21.7951L51.1515 24.7252C49.1317 29.6751 52.0333 31.9509 50.298 33.1173C48.8045 34.0987 47.055 34.9948 47.055 37.5266C47.0691 38.3973 47.3492 39.2427 47.8577 39.9495C48.3662 40.6564 49.0788 41.1907 49.8998 41.4808V45.2217C49.8988 46.0489 50.0781 46.8663 50.4254 47.6171C50.7727 48.3678 51.2794 49.0338 51.9104 49.5687C52.5414 50.1035 53.2814 50.4944 54.0789 50.7139C54.8764 50.9335 55.7122 50.9766 56.528 50.8401L58.434 50.4987V52.3336C56.2091 53.7926 54.3211 55.7095 52.896 57.9563C51.4709 60.2031 50.5416 62.728 50.17 65.3626L49.8998 67.1121C49.8711 67.3149 49.8865 67.5215 49.945 67.7177C50.0036 67.914 50.1038 68.0953 50.2388 68.2493C50.3739 68.4032 50.5406 68.5262 50.7276 68.6098C50.9145 68.6934 51.1173 68.7356 51.3221 68.7336H75.5026C75.8798 68.7336 76.2416 68.5837 76.5083 68.317C76.7751 68.0502 76.9249 67.6885 76.9249 67.3112V64.4665C76.9196 62.1658 76.407 59.8945 75.4236 57.8146C74.4402 55.7347 73.0102 53.8972 71.2354 52.4332C71.2354 49.5884 70.9652 48.294 72.2453 47.213C74.4565 45.4717 76.2701 43.278 77.5646 40.7788C78.8592 38.2797 79.6048 35.5328 79.7516 32.7221C79.8984 29.9114 79.443 27.1017 78.4158 24.4813C77.3886 21.8609 75.8134 19.4902 73.7957 17.528H75.5026C76.6343 17.528 77.7196 17.0784 78.5199 16.2782C79.3201 15.4779 79.7697 14.3926 79.7697 13.2609ZM59.8564 4.72661C59.8564 4.34937 60.0063 3.98758 60.273 3.72083C60.5398 3.45408 60.9015 3.30423 61.2788 3.30423H75.5026C75.8798 3.30423 76.2416 3.45408 76.5083 3.72083C76.7751 3.98758 76.9249 4.34937 76.9249 4.72661V13.2609C76.9249 13.6381 76.7751 13.9999 76.5083 14.2666C76.2416 14.5334 75.8798 14.6832 75.5026 14.6832H64.1235C63.6684 14.6832 63.8675 14.6832 59.8564 16.6461V4.72661ZM56.0587 48.0096C55.6478 48.0783 55.2268 48.056 54.8254 47.9442C54.4241 47.8324 54.0523 47.6338 53.7361 47.3624C53.42 47.0911 53.1674 46.7536 52.996 46.3739C52.8247 45.9941 52.7388 45.5814 52.7445 45.1648V40.286C52.7445 39.9088 52.5947 39.547 52.3279 39.2803C52.0612 39.0135 51.6994 38.8637 51.3221 38.8637C51.0488 38.8299 50.7912 38.7174 50.5805 38.54C50.3699 38.3626 50.2153 38.1279 50.1354 37.8643C50.0556 37.6008 50.054 37.3197 50.1309 37.0552C50.2077 36.7907 50.3596 36.5543 50.5683 36.3745L51.9907 35.4642C52.723 34.9742 53.2857 34.2695 53.6015 33.4469C53.9174 32.6243 53.9707 31.7241 53.7544 30.8699C53.1941 29.3188 53.179 27.6231 53.7117 26.0623H62.7012C63.4556 26.0623 64.1792 26.362 64.7127 26.8955C65.2462 27.429 65.5459 28.1525 65.5459 28.907V33.1742C65.5459 33.5514 65.6958 33.9132 65.9625 34.1799C66.2293 34.4467 66.5911 34.5965 66.9683 34.5965C68.3907 34.5965 68.917 34.4827 69.4148 34.9948C69.5474 35.1413 69.648 35.3138 69.7102 35.5014C69.7725 35.689 69.7949 35.8874 69.7762 36.0842C69.7575 36.2809 69.6979 36.4715 69.6014 36.644C69.5049 36.8164 69.3735 36.9669 69.2157 37.0857C66.0864 39.1624 65.5459 39.3046 65.5459 40.286C65.5459 46.9001 68.3907 48.6212 68.3907 49.4035V51.6651H61.2788C61.2788 49.0194 61.4637 48.3083 60.781 47.7393C60.0982 47.1704 59.8564 47.3979 56.0587 48.0096ZM74.0802 64.4665V65.8888H66.9683V60.1993C66.9683 59.8221 66.8184 59.4603 66.5517 59.1936C66.2849 58.9268 65.9232 58.777 65.5459 58.777C65.1687 58.777 64.8069 58.9268 64.5401 59.1936C64.2734 59.4603 64.1235 59.8221 64.1235 60.1993V65.8888C51.7915 65.8888 52.9579 65.8888 52.9863 65.7608C53.3056 63.4694 54.1214 61.2753 55.3769 59.3319C56.6323 57.3886 58.297 55.7429 60.2547 54.5098H69.3294C70.8135 55.7103 72.0104 57.2274 72.8324 58.9501C73.6544 60.6729 74.0807 62.5577 74.0802 64.4665ZM70.4389 45.0226C70.1399 45.2782 69.8682 45.5642 69.6281 45.876C68.8267 44.4149 68.4014 42.7774 68.3907 41.111C70.6096 39.5749 72.6578 38.6219 72.6578 35.9478C72.6391 34.8284 72.1814 33.7613 71.3831 32.9763C70.5849 32.1914 69.5102 31.7516 68.3907 31.7518V28.907C68.3907 27.3981 67.7912 25.9509 66.7243 24.8839C65.6573 23.8169 64.2101 23.2175 62.7012 23.2175H53.5695L51.9338 20.3728C51.6836 19.9395 51.5521 19.4479 51.5526 18.9475C51.5531 18.4472 51.6856 17.9559 51.9366 17.5231C52.1876 17.0903 52.5483 16.7314 52.9824 16.4825C53.4164 16.2336 53.9084 16.1036 54.4087 16.1056H57.0117V18.9504C57.0117 19.3276 57.1615 19.6894 57.4283 19.9562C57.695 20.2229 58.0568 20.3728 58.434 20.3728C58.8892 20.3728 58.6474 20.3728 64.4649 17.528H69.1445C77.7926 22.293 80.6089 36.7017 70.4389 45.0226Z" fill="white"/>
</svg>
