<svg width="110" height="24" viewBox="0 0 110 24" fill="none" xmlns="http://www.w3.org/2000/svg">
<g clip-path="url(#clip0_4573_36570)">
<path d="M30.4765 10.8565C29.3909 15.6929 25.2143 19.2975 20.2316 19.2975H19.9553C16.1492 19.2942 13.0875 16.0212 13.2922 12.0656C13.4743 8.56511 16.2987 5.72112 19.7115 5.59436C21.2034 5.53911 22.5913 5.98765 23.7289 6.78721C24.2522 7.15449 24.6715 7.56403 25.0063 7.96381C25.7636 8.86738 25.5556 10.2487 24.574 10.8825C21.4797 12.8815 15.0701 17.0191 12.8697 18.4394C12.0474 18.9692 11.1048 19.291 10.133 19.2942C10.1265 19.2942 10.12 19.2942 10.1135 19.2942H9.96069C7.91627 19.2942 6.25537 17.5878 6.25537 15.4882V15.0526L6.29762 0.00390625" stroke="white" stroke-width="3.11297" stroke-miterlimit="10"/>
<path d="M46.8618 0.00585938V20.8856" stroke="white" stroke-width="3.11297" stroke-miterlimit="10"/>
<path d="M0.778809 9.38667L11.7225 2.50586" stroke="white" stroke-width="3.11297" stroke-miterlimit="10"/>
<path d="M42.6758 8.85311C42.6108 8.73935 42.5393 8.62884 42.4645 8.52158C41.2587 6.75019 39.2597 5.58984 36.9943 5.58984C33.3117 5.58984 30.3247 8.65809 30.3247 12.4414C30.3247 14.7133 31.4981 16.371 31.6703 16.592C33.0614 18.3699 34.9889 18.8249 35.5577 18.9484C39.4385 19.8 43.5436 17.1023 45.484 13.9105C46.3941 12.4154 46.7224 10.982 46.8622 10.0947" stroke="white" stroke-width="3.11297" stroke-miterlimit="10"/>
<path d="M57.1426 20.8855V12.4445C57.1329 11.1119 56.6193 9.78257 55.602 8.76524C53.5478 6.71107 50.2163 6.71107 48.1621 8.76524L48.0061 8.918C47.5153 9.40879 47.1025 9.94183 46.7612 10.5106" stroke="white" stroke-width="3.11297" stroke-miterlimit="10"/>
</g>
<path d="M76.5718 14.3477V24.0042" stroke="white" stroke-width="3.11297" stroke-miterlimit="10"/>
<path d="M81.2473 19.2875C76.4535 19.2907 70.3087 19.2973 65.2701 19.3005C64.7806 19.3005 64.562 18.6889 64.9405 18.3781C67.8612 15.9739 73.7874 10.9268 74.7435 10.0992C75.8955 9.10153 76.5775 7.69499 76.4992 6.23285C76.4927 6.13472 76.4862 6.03659 76.4731 5.93519C76.2055 3.66838 74.2312 1.83661 71.7902 1.58802C68.5791 1.25764 65.8608 3.58006 65.8608 6.49126" stroke="white" stroke-width="3.11297" stroke-miterlimit="10"/>
<path d="M95.8791 19.2998C99.4895 19.2998 102.416 16.3033 102.416 12.6069C102.416 8.91056 99.4895 5.91406 95.8791 5.91406C92.2686 5.91406 89.3418 8.91056 89.3418 12.6069C89.3418 16.3033 92.2686 19.2998 95.8791 19.2998Z" stroke="white" stroke-width="3.11297" stroke-linecap="round" stroke-linejoin="round"/>
<path d="M102.417 5.91406L102.417 19.2998" stroke="white" stroke-width="3.11297" stroke-linecap="square" stroke-linejoin="round"/>
<path d="M108.331 5.91406L108.331 19.2998" stroke="white" stroke-width="3.11297" stroke-linecap="square" stroke-linejoin="round"/>
<path d="M108.331 2.19531V2.19541" stroke="white" stroke-width="3.11297" stroke-linecap="square" stroke-linejoin="round"/>
<path d="M85.9189 19.3008V19.3009" stroke="white" stroke-width="3.11297" stroke-linecap="square" stroke-linejoin="round"/>
<defs>
<clipPath id="clip0_4573_36570">
<rect width="58.6059" height="20.8862" fill="white"/>
</clipPath>
</defs>
</svg>
