<svg width="146" height="26" viewBox="0 0 146 26" fill="none" xmlns="http://www.w3.org/2000/svg">
    <path d="M5.82788 10.344V20.104C5.82788 20.7653 5.97721 21.2453 6.27588 21.544C6.59588 21.8213 7.12921 21.96 7.87588 21.96H10.1159V25H7.23588C5.59321 25 4.33454 24.616 3.45988 23.848C2.58521 23.08 2.14788 21.832 2.14788 20.104V10.344H0.067875V7.368H2.14788V2.984H5.82788V7.368H10.1159V10.344H5.82788ZM29.6381 15.752C29.6381 16.4133 29.5955 17.0107 29.5101 17.544H16.0381C16.1448 18.952 16.6675 20.0827 17.6061 20.936C18.5448 21.7893 19.6968 22.216 21.0621 22.216C23.0248 22.216 24.4115 21.3947 25.2221 19.752H29.1581C28.6248 21.3733 27.6541 22.7067 26.2461 23.752C24.8595 24.776 23.1315 25.288 21.0621 25.288C19.3768 25.288 17.8621 24.9147 16.5181 24.168C15.1955 23.4 14.1501 22.3333 13.3821 20.968C12.6355 19.5813 12.2621 17.9813 12.2621 16.168C12.2621 14.3547 12.6248 12.7653 13.3501 11.4C14.0968 10.0133 15.1315 8.94667 16.4541 8.2C17.7981 7.45333 19.3341 7.08 21.0621 7.08C22.7261 7.08 24.2088 7.44267 25.5101 8.168C26.8115 8.89333 27.8248 9.91733 28.5501 11.24C29.2755 12.5413 29.6381 14.0453 29.6381 15.752ZM25.8301 14.6C25.8088 13.256 25.3288 12.1787 24.3901 11.368C23.4515 10.5573 22.2888 10.152 20.9021 10.152C19.6435 10.152 18.5661 10.5573 17.6701 11.368C16.7741 12.1573 16.2408 13.2347 16.0701 14.6H25.8301ZM32.0121 16.168C32.0121 14.3547 32.3748 12.7653 33.1001 11.4C33.8468 10.0133 34.8708 8.94667 36.1721 8.2C37.4735 7.45333 38.9668 7.08 40.6521 7.08C42.7855 7.08 44.5455 7.592 45.9321 8.616C47.3401 9.61867 48.2895 11.0587 48.7801 12.936H44.8441C44.5241 12.0613 44.0121 11.3787 43.3081 10.888C42.6041 10.3973 41.7188 10.152 40.6521 10.152C39.1588 10.152 37.9641 10.6853 37.0681 11.752C36.1935 12.7973 35.7561 14.2693 35.7561 16.168C35.7561 18.0667 36.1935 19.5493 37.0681 20.616C37.9641 21.6827 39.1588 22.216 40.6521 22.216C42.7641 22.216 44.1615 21.288 44.8441 19.432H48.7801C48.2681 21.224 47.3081 22.6533 45.9001 23.72C44.4921 24.7653 42.7428 25.288 40.6521 25.288C38.9668 25.288 37.4735 24.9147 36.1721 24.168C34.8708 23.4 33.8468 22.3333 33.1001 20.968C32.3748 19.5813 32.0121 17.9813 32.0121 16.168ZM61.5356 7.08C62.8796 7.08 64.0743 7.368 65.1196 7.944C66.1863 8.52 67.0183 9.37333 67.6156 10.504C68.2343 11.6347 68.5436 13 68.5436 14.6V25H64.9276V15.144C64.9276 13.5653 64.533 12.36 63.7436 11.528C62.9543 10.6747 61.877 10.248 60.5116 10.248C59.1463 10.248 58.0583 10.6747 57.2476 11.528C56.4583 12.36 56.0636 13.5653 56.0636 15.144V25H52.4156V1.32H56.0636V9.416C56.6823 8.66933 57.461 8.09333 58.3996 7.688C59.3596 7.28267 60.405 7.08 61.5356 7.08ZM74.7329 20.04C76.7809 18.2693 78.3915 16.8187 79.5649 15.688C80.7595 14.536 81.7515 13.3413 82.5409 12.104C83.3302 10.8667 83.7249 9.62933 83.7249 8.392C83.7249 7.112 83.4155 6.10933 82.7969 5.384C82.1995 4.65867 81.2502 4.296 79.9489 4.296C78.6902 4.296 77.7089 4.70133 77.0049 5.512C76.3222 6.30133 75.9595 7.368 75.9169 8.712H72.3969C72.4609 6.28 73.1862 4.424 74.5729 3.144C75.9809 1.84267 77.7622 1.192 79.9169 1.192C82.2422 1.192 84.0555 1.832 85.3569 3.112C86.6795 4.392 87.3409 6.09867 87.3409 8.232C87.3409 9.768 86.9462 11.2507 86.1569 12.68C85.3889 14.088 84.4609 15.3573 83.3729 16.488C82.3062 17.5973 80.9409 18.888 79.2769 20.36L77.8369 21.64H87.9809V24.68H72.4289V22.024L74.7329 20.04ZM90.7376 20.136V17.384L101.49 1.96H105.906V16.968H108.882V20.136H105.906V25H102.322V20.136H90.7376ZM102.482 5.672L94.9296 16.968H102.482V5.672ZM113.856 25.224C113.195 25.224 112.64 25 112.192 24.552C111.744 24.104 111.52 23.5493 111.52 22.888C111.52 22.2267 111.744 21.672 112.192 21.224C112.64 20.776 113.195 20.552 113.856 20.552C114.496 20.552 115.04 20.776 115.488 21.224C115.936 21.672 116.16 22.2267 116.16 22.888C116.16 23.5493 115.936 24.104 115.488 24.552C115.04 25 114.496 25.224 113.856 25.224ZM118.887 16.104C118.887 14.3333 119.25 12.7653 119.975 11.4C120.722 10.0347 121.724 8.97867 122.983 8.232C124.263 7.464 125.671 7.08 127.207 7.08C128.594 7.08 129.799 7.35733 130.823 7.912C131.868 8.44533 132.7 9.11733 133.319 9.928V7.368H136.999V25H133.319V22.376C132.7 23.208 131.858 23.9013 130.791 24.456C129.724 25.0107 128.508 25.288 127.143 25.288C125.628 25.288 124.242 24.904 122.983 24.136C121.724 23.3467 120.722 22.2587 119.975 20.872C119.25 19.464 118.887 17.8747 118.887 16.104ZM133.319 16.168C133.319 14.952 133.063 13.896 132.551 13C132.06 12.104 131.41 11.4213 130.599 10.952C129.788 10.4827 128.914 10.248 127.975 10.248C127.036 10.248 126.162 10.4827 125.351 10.952C124.54 11.4 123.879 12.072 123.367 12.968C122.876 13.8427 122.631 14.888 122.631 16.104C122.631 17.32 122.876 18.3867 123.367 19.304C123.879 20.2213 124.54 20.9253 125.351 21.416C126.183 21.8853 127.058 22.12 127.975 22.12C128.914 22.12 129.788 21.8853 130.599 21.416C131.41 20.9467 132.06 20.264 132.551 19.368C133.063 18.4507 133.319 17.384 133.319 16.168ZM143.647 5.032C142.985 5.032 142.431 4.808 141.983 4.36C141.535 3.912 141.311 3.35733 141.311 2.696C141.311 2.03467 141.535 1.48 141.983 1.032C142.431 0.583999 142.985 0.359999 143.647 0.359999C144.287 0.359999 144.831 0.583999 145.279 1.032C145.727 1.48 145.951 2.03467 145.951 2.696C145.951 3.35733 145.727 3.912 145.279 4.36C144.831 4.808 144.287 5.032 143.647 5.032ZM145.439 7.368V25H141.791V7.368H145.439Z" fill="black"/>
</svg>    