<svg width="84" height="106" viewBox="0 0 84 106" fill="none" xmlns="http://www.w3.org/2000/svg">
<path d="M81.7083 0H2.20833C0.883333 0 0 0.883333 0 2.20833V103.792C0 105.117 0.883333 106 2.20833 106H81.7083C83.0333 106 83.9167 105.117 83.9167 103.792V2.20833C83.9167 0.883333 83.0333 0 81.7083 0ZM79.5 101.583H4.41667V4.41667H79.5V101.583Z" fill="white"/>
<path d="M12.8079 31.1375H71.1079C72.4329 31.1375 73.3163 30.2542 73.3163 28.9292V12.1458C73.3163 10.8208 72.4329 9.9375 71.1079 9.9375H12.8079C11.4829 9.9375 10.5996 10.8208 10.5996 12.1458V28.9292C10.5996 30.2542 11.7038 31.1375 12.8079 31.1375ZM15.0163 14.3542H68.8996V26.7208H15.0163V14.3542ZM71.1079 37.9833H46.5954C45.2704 37.9833 44.3871 38.8667 44.3871 40.1917V72.875C44.3871 74.2 45.2704 75.0833 46.5954 75.0833H71.1079C72.4329 75.0833 73.3163 74.2 73.3163 72.875V40.1917C73.3163 38.8667 72.2121 37.9833 71.1079 37.9833ZM68.8996 70.4458H48.8038V42.4H68.8996V70.4458ZM12.8079 42.4H37.3204C38.6454 42.4 39.5288 41.5167 39.5288 40.1917C39.5288 38.8667 38.6454 37.9833 37.3204 37.9833H12.8079C11.4829 37.9833 10.5996 38.8667 10.5996 40.1917C10.5996 41.2958 11.7038 42.4 12.8079 42.4ZM12.8079 53.6625H37.3204C38.6454 53.6625 39.5288 52.7792 39.5288 51.4542C39.5288 50.1292 38.6454 49.2458 37.3204 49.2458H12.8079C11.4829 49.2458 10.5996 50.1292 10.5996 51.4542C10.5996 52.5583 11.7038 53.6625 12.8079 53.6625ZM12.8079 64.7042H37.3204C38.6454 64.7042 39.5288 63.8208 39.5288 62.4958C39.5288 61.1708 38.6454 60.2875 37.3204 60.2875H12.8079C11.4829 60.2875 10.5996 61.1708 10.5996 62.4958C10.5996 63.8208 11.7038 64.7042 12.8079 64.7042ZM12.8079 75.9667H37.3204C38.6454 75.9667 39.5288 75.0833 39.5288 73.7583C39.5288 72.4333 38.6454 71.55 37.3204 71.55H12.8079C11.4829 71.55 10.5996 72.4333 10.5996 73.7583C10.5996 75.0833 11.7038 75.9667 12.8079 75.9667ZM12.8079 86.125H71.1079C72.4329 86.125 73.3163 85.2417 73.3163 83.9167C73.3163 82.5917 72.4329 81.7083 71.1079 81.7083H12.8079C11.4829 81.7083 10.5996 82.5917 10.5996 83.9167C10.5996 85.2417 11.7038 86.125 12.8079 86.125ZM12.8079 95.6208H71.1079C72.4329 95.6208 73.3163 94.7375 73.3163 93.4125C73.3163 92.0875 72.4329 91.2042 71.1079 91.2042H12.8079C11.4829 91.2042 10.5996 92.0875 10.5996 93.4125C10.5996 94.7375 11.7038 95.6208 12.8079 95.6208Z" fill="white"/>
</svg>
