<svg width="59" height="92" viewBox="0 0 59 92" fill="none" xmlns="http://www.w3.org/2000/svg">
<path d="M9.32958 72.4338C10.107 72.4338 10.9493 72.5634 11.8563 72.8225C12.7634 73.0817 13.7784 73.6 14.9014 74.3775C16.37 75.5005 18.1192 76.4939 20.1493 77.3577C22.1793 78.2216 24.5333 78.6535 27.2113 78.6535C29.8892 78.6535 32.416 77.984 34.7915 76.6451C37.1671 75.3061 39.1324 73.4056 40.6873 70.9437C42.2423 68.4817 43.0197 65.523 43.0197 62.0676C43.0197 58.785 42.3502 56.0639 41.0113 53.9042C39.6723 51.7446 37.9014 50.1033 35.6986 48.9803C33.4958 47.8573 31.1418 47.2958 28.6366 47.2958C26.7361 47.2958 25.1596 47.4685 23.907 47.8141C22.6545 48.1596 21.4451 48.5268 20.2789 48.9155C19.1127 49.3042 17.7521 49.4986 16.1972 49.4986C14.2103 49.4986 12.677 48.8075 11.5972 47.4254C10.5174 46.0432 9.97747 44.4019 9.97747 42.5014C9.97747 41.292 10.215 40.2122 10.6901 39.262C11.1653 38.3117 11.8779 37.2751 12.8282 36.1521L35.6338 11.2732L39.1324 14.2535H7.25634C5.1831 14.2535 3.4554 13.5624 2.07324 12.1803C0.69108 10.7981 0 9.07043 0 6.99718C0 5.01033 0.69108 3.34742 2.07324 2.00845C3.4554 0.669489 5.1831 5.49221e-06 7.25634 0H46.907C49.585 0 51.5934 0.734275 52.9324 2.20282C54.2714 3.67138 54.9408 5.52865 54.9408 7.77465C54.9408 8.89766 54.6601 9.97747 54.0986 11.0141C53.5371 12.0507 52.7812 13.0441 51.831 13.9944L28.8958 39.262L25.3972 34.8563C26.3474 34.4244 27.6648 34.0357 29.3493 33.6901C31.0338 33.3446 32.4376 33.1718 33.5606 33.1718C38.6573 33.1718 43.0845 34.4892 46.8423 37.1239C50.6 39.7587 53.4939 43.1709 55.5239 47.3606C57.554 51.5502 58.569 56.0639 58.569 60.9014C58.569 67.2939 57.1437 72.8225 54.293 77.4873C51.4422 82.1521 47.4253 85.7371 42.2423 88.2423C37.0592 90.7474 31.0122 92 24.1014 92C20.9052 92 17.7521 91.6113 14.6423 90.8338C11.5324 90.0563 8.85446 89.0197 6.60845 87.7239C4.70798 86.6873 3.4338 85.5427 2.78592 84.2901C2.13803 83.0376 1.81409 81.8498 1.81408 80.7268C1.81408 78.7399 2.52676 76.861 3.95211 75.0901C5.37747 73.3193 7.16995 72.4338 9.32958 72.4338Z" fill="url(#paint0_linear_133_831)"/>
<defs>
<linearGradient id="paint0_linear_133_831" x1="-0.000178041" y1="9.2e-06" x2="-0.000149139" y2="92.0006" gradientUnits="userSpaceOnUse">
<stop stop-color="#0D99FF"/>
<stop offset="1" stop-color="white" stop-opacity="0.01"/>
</linearGradient>
</defs>
</svg>
