<svg width="106" height="106" viewBox="0 0 106 106" fill="none" xmlns="http://www.w3.org/2000/svg">
<path d="M61.8331 7.06689H15.8997C13.5579 7.0697 11.3127 8.00125 9.65673 9.65722C8.00076 11.3132 7.06921 13.5583 7.06641 15.9002V40.6336C7.06921 42.9754 8.00076 45.2206 9.65673 46.8766C11.3127 48.5325 13.5579 49.4641 15.8997 49.4669H61.8331C64.175 49.4641 66.4201 48.5325 68.0761 46.8766C69.732 45.2206 70.6636 42.9754 70.6664 40.6336V15.9002C70.6636 13.5583 69.732 11.3132 68.0761 9.65722C66.4201 8.00125 64.175 7.0697 61.8331 7.06689ZM67.1331 40.6336C67.1331 42.0392 66.5747 43.3873 65.5807 44.3812C64.5868 45.3752 63.2387 45.9336 61.8331 45.9336H15.8997C14.4941 45.9336 13.146 45.3752 12.1521 44.3812C11.1581 43.3873 10.5997 42.0392 10.5997 40.6336V15.9002C10.5997 14.4946 11.1581 13.1465 12.1521 12.1526C13.146 11.1586 14.4941 10.6002 15.8997 10.6002H61.8331C63.2387 10.6002 64.5868 11.1586 65.5807 12.1526C66.5747 13.1465 67.1331 14.4946 67.1331 15.9002V40.6336ZM22.9664 53.0002H12.3664C10.9608 53.0002 9.61268 53.5586 8.61874 54.5526C7.6248 55.5465 7.06641 56.8946 7.06641 58.3002V68.9002C7.06641 70.3059 7.6248 71.6539 8.61874 72.6479C9.61268 73.6418 10.9608 74.2002 12.3664 74.2002H22.9664C24.3721 74.2002 25.7201 73.6418 26.7141 72.6479C27.708 71.6539 28.2664 70.3059 28.2664 68.9002V58.3002C28.2664 56.8946 27.708 55.5465 26.7141 54.5526C25.7201 53.5586 24.3721 53.0002 22.9664 53.0002ZM24.7331 68.9002C24.7331 69.3688 24.5469 69.8181 24.2156 70.1495C23.8843 70.4808 23.435 70.6669 22.9664 70.6669H12.3664C11.8979 70.6669 11.4485 70.4808 11.1172 70.1495C10.7859 69.8181 10.5997 69.3688 10.5997 68.9002V58.3002C10.5997 57.8317 10.7859 57.3823 11.1172 57.051C11.4485 56.7197 11.8979 56.5336 12.3664 56.5336H22.9664C23.435 56.5336 23.8843 56.7197 24.2156 57.051C24.5469 57.3823 24.7331 57.8317 24.7331 58.3002V68.9002ZM22.9664 77.7336H12.3664C10.9608 77.7336 9.61268 78.292 8.61874 79.2859C7.6248 80.2798 7.06641 81.6279 7.06641 83.0336V93.6336C7.06641 95.0392 7.6248 96.3873 8.61874 97.3812C9.61268 98.3752 10.9608 98.9336 12.3664 98.9336H22.9664C24.3721 98.9336 25.7201 98.3752 26.7141 97.3812C27.708 96.3873 28.2664 95.0392 28.2664 93.6336V83.0336C28.2664 81.6279 27.708 80.2798 26.7141 79.2859C25.7201 78.292 24.3721 77.7336 22.9664 77.7336ZM24.7331 93.6336C24.7331 94.1021 24.5469 94.5515 24.2156 94.8828C23.8843 95.2141 23.435 95.4002 22.9664 95.4002H12.3664C11.8979 95.4002 11.4485 95.2141 11.1172 94.8828C10.7859 94.5515 10.5997 94.1021 10.5997 93.6336V83.0336C10.5997 82.565 10.7859 82.1157 11.1172 81.7843C11.4485 81.453 11.8979 81.2669 12.3664 81.2669H22.9664C23.435 81.2669 23.8843 81.453 24.2156 81.7843C24.5469 82.1157 24.7331 82.565 24.7331 83.0336V93.6336ZM47.6997 53.0002H37.0997C35.6941 53.0002 34.346 53.5586 33.3521 54.5526C32.3581 55.5465 31.7997 56.8946 31.7997 58.3002V68.9002C31.7997 70.3059 32.3581 71.6539 33.3521 72.6479C34.346 73.6418 35.6941 74.2002 37.0997 74.2002H47.6997C49.1054 74.2002 50.4535 73.6418 51.4474 72.6479C52.4413 71.6539 52.9997 70.3059 52.9997 68.9002V58.3002C52.9997 56.8946 52.4413 55.5465 51.4474 54.5526C50.4535 53.5586 49.1054 53.0002 47.6997 53.0002ZM49.4664 68.9002C49.4664 69.3688 49.2803 69.8181 48.949 70.1495C48.6176 70.4808 48.1683 70.6669 47.6997 70.6669H37.0997C36.6312 70.6669 36.1818 70.4808 35.8505 70.1495C35.5192 69.8181 35.3331 69.3688 35.3331 68.9002V58.3002C35.3331 57.8317 35.5192 57.3823 35.8505 57.051C36.1818 56.7197 36.6312 56.5336 37.0997 56.5336H47.6997C48.1683 56.5336 48.6176 56.7197 48.949 57.051C49.2803 57.3823 49.4664 57.8317 49.4664 58.3002V68.9002ZM47.6997 77.7336H37.0997C35.6941 77.7336 34.346 78.292 33.3521 79.2859C32.3581 80.2798 31.7997 81.6279 31.7997 83.0336V93.6336C31.7997 95.0392 32.3581 96.3873 33.3521 97.3812C34.346 98.3752 35.6941 98.9336 37.0997 98.9336H47.6997C49.1054 98.9336 50.4535 98.3752 51.4474 97.3812C52.4413 96.3873 52.9997 95.0392 52.9997 93.6336V83.0336C52.9997 81.6279 52.4413 80.2798 51.4474 79.2859C50.4535 78.292 49.1054 77.7336 47.6997 77.7336ZM49.4664 93.6336C49.4664 94.1021 49.2803 94.5515 48.949 94.8828C48.6176 95.2141 48.1683 95.4002 47.6997 95.4002H37.0997C36.6312 95.4002 36.1818 95.2141 35.8505 94.8828C35.5192 94.5515 35.3331 94.1021 35.3331 93.6336V83.0336C35.3331 82.565 35.5192 82.1157 35.8505 81.7843C36.1818 81.453 36.6312 81.2669 37.0997 81.2669H47.6997C48.1683 81.2669 48.6176 81.453 48.949 81.7843C49.2803 82.1157 49.4664 82.565 49.4664 83.0336V93.6336ZM68.8997 70.6669H58.2997C57.8312 70.6669 57.3818 70.853 57.0505 71.1843C56.7192 71.5156 56.5331 71.965 56.5331 72.4336V97.1669C56.5331 97.6354 56.7192 98.0848 57.0505 98.4161C57.3818 98.7474 57.8312 98.9336 58.2997 98.9336H68.8997C69.3683 98.9336 69.8176 98.7474 70.149 98.4161C70.4803 98.0848 70.6664 97.6354 70.6664 97.1669V72.4336C70.6664 71.965 70.4803 71.5156 70.149 71.1843C69.8176 70.853 69.3683 70.6669 68.8997 70.6669ZM67.1331 95.4002H60.0664V74.2002H67.1331V95.4002ZM65.3664 53.0002H61.8331C60.4274 53.0002 59.0794 53.5586 58.0854 54.5526C57.0915 55.5465 56.5331 56.8946 56.5331 58.3002V61.8336C56.5331 63.2392 57.0915 64.5873 58.0854 65.5812C59.0794 66.5752 60.4274 67.1336 61.8331 67.1336H65.3664C66.7721 67.1336 68.1201 66.5752 69.1141 65.5812C70.108 64.5873 70.6664 63.2392 70.6664 61.8336V58.3002C70.6664 56.8946 70.108 55.5465 69.1141 54.5526C68.1201 53.5586 66.7721 53.0002 65.3664 53.0002ZM67.1331 61.8336C67.1331 62.3021 66.9469 62.7515 66.6156 63.0828C66.2843 63.4141 65.835 63.6002 65.3664 63.6002H61.8331C61.3645 63.6002 60.9152 63.4141 60.5839 63.0828C60.2525 62.7515 60.0664 62.3021 60.0664 61.8336V58.3002C60.0664 57.8317 60.2525 57.3823 60.5839 57.051C60.9152 56.7197 61.3645 56.5336 61.8331 56.5336H65.3664C65.835 56.5336 66.2843 56.7197 66.6156 57.051C66.9469 57.3823 67.1331 57.8317 67.1331 58.3002V61.8336Z" fill="white"/>
<path d="M19.4337 61.8335H15.9004V65.3668H19.4337V61.8335Z" fill="white"/>
<path d="M44.1671 61.8335H40.6338V65.3668H44.1671V61.8335Z" fill="white"/>
<path d="M19.4337 86.5669H15.9004V90.1002H19.4337V86.5669Z" fill="white"/>
<path d="M44.1671 86.5669H40.6338V90.1002H44.1671V86.5669Z" fill="white"/>
<path d="M31.7999 14.1333H28.2666V17.6666H31.7999V14.1333Z" fill="white"/>
<path d="M24.7335 14.1333H21.2002V17.6666H24.7335V14.1333Z" fill="white"/>
<path d="M17.6671 14.1333H14.1338V17.6666H17.6671V14.1333Z" fill="white"/>
<path d="M58.2998 21.2002H54.7665C53.3608 21.2002 52.0127 21.7586 51.0188 22.7525C50.0249 23.7465 49.4665 25.0945 49.4665 26.5002V37.1002C49.4665 38.5058 50.0249 39.8539 51.0188 40.8479C52.0127 41.8418 53.3608 42.4002 54.7665 42.4002H58.2998C59.7055 42.4002 61.0535 41.8418 62.0475 40.8479C63.0414 39.8539 63.5998 38.5058 63.5998 37.1002V26.5002C63.5998 25.0945 63.0414 23.7465 62.0475 22.7525C61.0535 21.7586 59.7055 21.2002 58.2998 21.2002ZM60.0665 37.1002C60.0665 37.5687 59.8803 38.0181 59.549 38.3494C59.2177 38.6807 58.7684 38.8669 58.2998 38.8669H54.7665C54.2979 38.8669 53.8486 38.6807 53.5172 38.3494C53.1859 38.0181 52.9998 37.5687 52.9998 37.1002V26.5002C52.9998 26.0316 53.1859 25.5823 53.5172 25.251C53.8486 24.9197 54.2979 24.7335 54.7665 24.7335H58.2998C58.7684 24.7335 59.2177 24.9197 59.549 25.251C59.8803 25.5823 60.0665 26.0316 60.0665 26.5002V37.1002ZM40.6331 21.2002H37.0998C35.6942 21.2002 34.3461 21.7586 33.3521 22.7525C32.3582 23.7465 31.7998 25.0945 31.7998 26.5002V37.1002C31.7998 38.5058 32.3582 39.8539 33.3521 40.8479C34.3461 41.8418 35.6942 42.4002 37.0998 42.4002H40.6331C42.0388 42.4002 43.3869 41.8418 44.3808 40.8479C45.3747 39.8539 45.9331 38.5058 45.9331 37.1002V26.5002C45.9331 25.0945 45.3747 23.7465 44.3808 22.7525C43.3869 21.7586 42.0388 21.2002 40.6331 21.2002ZM42.3998 37.1002C42.3998 37.5687 42.2137 38.0181 41.8824 38.3494C41.551 38.6807 41.1017 38.8669 40.6331 38.8669H37.0998C36.6313 38.8669 36.1819 38.6807 35.8506 38.3494C35.5193 38.0181 35.3331 37.5687 35.3331 37.1002V26.5002C35.3331 26.0316 35.5193 25.5823 35.8506 25.251C36.1819 24.9197 36.6313 24.7335 37.0998 24.7335H40.6331C41.1017 24.7335 41.551 24.9197 41.8824 25.251C42.2137 25.5823 42.3998 26.0316 42.3998 26.5002V37.1002Z" fill="white"/>
<path d="M101.583 45.4634L98.5182 44.9493C98.2302 44.9087 97.9581 44.7925 97.7297 44.6125C97.5013 44.4325 97.3247 44.1951 97.2179 43.9246L96.9052 43.1597C96.7864 42.8896 96.7402 42.5931 96.7712 42.2997C96.8022 42.0062 96.9093 41.726 97.0819 41.4866L98.8892 38.9744C99.6237 37.9532 99.969 36.7031 99.8627 35.4497C99.7564 34.1963 99.2056 33.0222 98.3097 32.1392L95.0696 28.8991C94.1866 27.9991 93.0102 27.4454 91.7539 27.3385C90.4976 27.2315 89.2445 27.5784 88.222 28.3161L85.7169 30.1146C85.4658 30.2948 85.171 30.4046 84.8632 30.4326C84.5553 30.4605 84.2456 30.4056 83.9661 30.2736L83.2789 29.9927C83.0063 29.8851 82.7673 29.7067 82.5866 29.476C82.4059 29.2453 82.2899 28.9705 82.2507 28.6801L81.7384 25.6255C81.5674 24.5979 81.0957 23.6439 80.3829 22.8842C79.6701 22.1245 78.748 21.5932 77.7333 21.3572V5.3C77.7333 3.89435 77.1749 2.54628 76.181 1.55233C75.1871 0.558391 73.839 0 72.4333 0H5.3C3.89435 0 2.54628 0.558391 1.55233 1.55233C0.558391 2.54628 0 3.89435 0 5.3V100.7C0 102.106 0.558391 103.454 1.55233 104.448C2.54628 105.442 3.89435 106 5.3 106H72.4333C73.839 106 75.1871 105.442 76.181 104.448C77.1749 103.454 77.7333 102.106 77.7333 100.7V84.6428C78.7468 84.4074 79.668 83.8774 80.3807 83.1194C81.0934 82.3614 81.5658 81.4094 81.7384 80.3833L82.2525 77.3146C82.293 77.0264 82.4095 76.7541 82.5898 76.5257C82.7702 76.2972 83.008 76.1208 83.2789 76.0144L84.0421 75.7017C84.3126 75.5836 84.6095 75.5388 84.9028 75.5717C85.1961 75.6046 85.4757 75.714 85.7134 75.8889L88.2256 77.6962C89.2465 78.4306 90.4963 78.7758 91.7494 78.6696C93.0025 78.5633 94.1764 78.0126 95.059 77.1168L98.3026 73.8749C99.2015 72.9916 99.7545 71.8157 99.8614 70.5599C99.9684 69.3042 99.6222 68.0517 98.8856 67.0291L97.0854 64.5187C96.9061 64.2689 96.7964 63.976 96.7676 63.6699C96.7387 63.3638 96.7917 63.0556 96.9211 62.7767L97.2073 62.0789C97.3148 61.8064 97.4929 61.5674 97.7233 61.3864C97.9536 61.2054 98.228 61.089 98.5182 61.0489L101.573 60.5366C102.811 60.3346 103.937 59.6979 104.748 58.7409C105.56 57.7838 106.003 56.569 106 55.3143V50.6857C106.004 49.4325 105.561 48.219 104.752 47.2621C103.943 46.3053 102.82 45.6677 101.583 45.4634ZM77.7333 41.1492C80.2852 41.9103 82.5232 43.4748 84.1146 45.61C85.7059 47.7452 86.5655 50.337 86.5655 53C86.5655 55.663 85.7059 58.2548 84.1146 60.39C82.5232 62.5252 80.2852 64.0897 77.7333 64.8508V41.1492ZM74.2 100.7C74.2 101.169 74.0139 101.618 73.6826 101.949C73.3512 102.281 72.9019 102.467 72.4333 102.467H5.3C4.83145 102.467 4.38209 102.281 4.05078 101.949C3.71946 101.618 3.53333 101.169 3.53333 100.7V5.3C3.53333 4.83145 3.71946 4.38209 4.05078 4.05078C4.38209 3.71946 4.83145 3.53333 5.3 3.53333H72.4333C72.9019 3.53333 73.3512 3.71946 73.6826 4.05078C74.0139 4.38209 74.2 4.83145 74.2 5.3V100.7ZM102.467 55.3143C102.465 55.7313 102.316 56.1344 102.046 56.4523C101.777 56.7701 101.403 56.9822 100.992 57.051L97.9422 57.5633C97.0449 57.7071 96.2006 58.0826 95.4929 58.6527C94.7852 59.2228 94.2386 59.9678 93.9072 60.814L93.6563 61.427C93.2991 62.2605 93.1625 63.172 93.2596 64.0737C93.3568 64.9753 93.6844 65.8368 94.211 66.5751L96.0113 69.0767C96.2575 69.4177 96.3728 69.836 96.3361 70.2551C96.2995 70.6741 96.1133 71.066 95.8116 71.3592L92.5504 74.6187C92.2573 74.9159 91.8679 75.0988 91.452 75.1344C91.0362 75.17 90.6213 75.0561 90.282 74.813L87.7698 73.0093C87.0449 72.4874 86.1982 72.1604 85.3107 72.0595C84.4232 71.9587 83.5247 72.0874 82.7012 72.4333L82.0122 72.7142C81.1671 73.0442 80.4228 73.5894 79.8533 74.2956C79.2837 75.0018 78.9086 75.8446 78.7651 76.7405L78.2527 79.7986C78.1851 80.1631 78.0032 80.4966 77.7333 80.7508V68.506C81.2496 67.7084 84.3904 65.7392 86.6404 62.9217C88.8903 60.1042 90.1158 56.6056 90.1158 53C90.1158 49.3944 88.8903 45.8958 86.6404 43.0783C84.3904 40.2608 81.2496 38.2916 77.7333 37.494V25.2633C78.0035 25.5173 78.1855 25.8509 78.2527 26.2156L78.7633 29.2613C78.9058 30.1591 79.2806 31.004 79.8505 31.7121C80.4204 32.4203 81.1656 32.967 82.0122 33.2981L82.6252 33.549C83.4582 33.909 84.3702 34.047 85.2723 33.9498C86.1745 33.8526 87.0362 33.5234 87.7733 32.9943L90.2767 31.1905C90.6178 30.9435 91.0365 30.8277 91.4561 30.8643C91.8756 30.901 92.2679 31.0877 92.561 31.3901L95.8205 34.6479C96.1186 34.9403 96.3022 35.3299 96.3378 35.7461C96.3735 36.1622 96.2589 36.5773 96.0148 36.9163L94.2075 39.4302C93.6869 40.1577 93.3608 41.0063 93.2604 41.8952C93.1599 42.7841 93.2883 43.684 93.6333 44.5094L93.9125 45.1896C94.2435 46.034 94.789 46.7776 95.495 47.347C96.201 47.9164 97.0433 48.292 97.9387 48.4367L100.997 48.949C101.407 49.019 101.78 49.2315 102.049 49.5492C102.317 49.867 102.466 50.2694 102.467 50.6857V55.3143Z" fill="white"/>
</svg>
