<svg width="54" height="46" viewBox="0 0 54 46" fill="none" xmlns="http://www.w3.org/2000/svg">
<path d="M39.1571 43.9417L51.314 23.2751L39.1571 2.6084H14.8434L2.68652 23.2751L14.8434 43.9417H39.1571Z" stroke="white" stroke-width="4" stroke-linejoin="round"/>
<path d="M27.0003 29.3532C28.6124 29.3532 30.1585 28.7127 31.2984 27.5728C32.4383 26.4329 33.0787 24.8868 33.0787 23.2747C33.0787 21.6626 32.4383 20.1165 31.2984 18.9766C30.1585 17.8367 28.6124 17.1963 27.0003 17.1963C25.3882 17.1963 23.8421 17.8367 22.7022 18.9766C21.5623 20.1165 20.9219 21.6626 20.9219 23.2747C20.9219 24.8868 21.5623 26.4329 22.7022 27.5728C23.8421 28.7127 25.3882 29.3532 27.0003 29.3532Z" stroke="white" stroke-width="4" stroke-linejoin="round"/>
</svg>
