<svg width="16" height="13" viewBox="0 0 16 13" fill="none" xmlns="http://www.w3.org/2000/svg">
<path d="M15.2665 1.45258C14.7021 1.69892 14.1007 1.86221 13.4738 1.94149C14.1188 1.55829 14.6111 0.956116 14.8425 0.230298C14.2411 0.587072 13.5772 0.839079 12.8695 0.979712C12.2985 0.374707 11.4847 0 10.5968 0C8.87429 0 7.48752 1.39123 7.48752 3.09676C7.48752 3.34216 7.50839 3.57812 7.55961 3.80276C4.97293 3.67722 2.6841 2.44362 1.14652 0.56442C0.878082 1.02785 0.720624 1.55829 0.720624 2.12932C0.720624 3.20153 1.27552 4.15198 2.10265 4.70224C1.60277 4.6928 1.11237 4.54839 0.69691 4.32093C0.69691 4.33037 0.69691 4.34264 0.69691 4.35491C0.69691 5.8594 1.7754 7.10905 3.18968 7.39692C2.93642 7.46582 2.66039 7.49886 2.37393 7.49886C2.17474 7.49886 1.97365 7.48753 1.78489 7.446C2.18802 8.67206 3.33196 9.57343 4.69217 9.60269C3.63359 10.4267 2.28951 10.9231 0.834449 10.9231C0.579291 10.9231 0.334567 10.9118 0.0898438 10.8807C1.46807 11.765 3.10146 12.27 4.8629 12.27C10.5883 12.27 13.7185 7.55077 13.7185 3.46014C13.7185 3.32328 13.7137 3.19114 13.7071 3.05995C14.3246 2.62389 14.8435 2.07929 15.2665 1.45258Z" fill="#000B33"/>
</svg>
