<svg width="60" height="92" viewBox="0 0 60 92" fill="none" xmlns="http://www.w3.org/2000/svg">
<path d="M52.2197 77.7465C54.293 77.7465 56.0207 78.4376 57.4028 79.8197C58.785 81.2019 59.4761 82.9296 59.4761 85.0028C59.4761 86.9897 58.785 88.6526 57.4028 89.9915C56.0207 91.3305 54.293 92 52.2197 92H8.16338C5.91737 92 4.14648 91.3089 2.8507 89.9268C1.55493 88.5446 0.907042 86.7737 0.907042 84.6141C0.907042 82.4545 1.68451 80.554 3.23944 78.9127L31.4873 48.7211C34.5972 45.3521 37.1023 41.9183 39.0028 38.4197C40.9033 34.9211 41.8535 31.6601 41.8535 28.6366C41.8535 25.9587 41.2056 23.5399 39.9099 21.3803C38.6141 19.2207 36.9296 17.493 34.8563 16.1972C32.7831 14.9014 30.5371 14.2535 28.1183 14.2535C25.6131 14.2535 23.0648 15.0958 20.4732 16.7803C17.8817 18.4648 15.5925 20.6892 13.6056 23.4535C12.569 24.8357 11.5324 25.6995 10.4958 26.0451C9.45915 26.3906 8.50892 26.5634 7.64507 26.5634C5.7446 26.5634 3.99531 25.8507 2.39718 24.4253C0.799061 23 -6.86526e-07 21.3371 0 19.4366C0 17.9681 0.496714 16.5427 1.49014 15.1606C2.48357 13.7784 3.71455 12.3531 5.1831 10.8845C8.46573 7.60188 12.2667 4.96714 16.5859 2.98028C20.9052 0.993431 25.0516 5.49221e-06 29.0254 0C34.8995 0 39.9531 1.20939 44.1859 3.62816C48.4188 6.04694 51.7014 9.37277 54.0338 13.6056C56.3662 17.8385 57.5324 22.6329 57.5324 27.9887C57.5324 31.6169 56.8629 35.3099 55.5239 39.0676C54.185 42.8253 52.3493 46.4751 50.0169 50.0169C47.6845 53.5587 45.0066 56.9709 41.9831 60.2535L24.4901 78.9127L23.0648 77.7465H52.2197Z" fill="url(#paint0_linear_133_830)"/>
<defs>
<linearGradient id="paint0_linear_133_830" x1="-1.02075" y1="-2.622e-05" x2="-1.02084" y2="95.1579" gradientUnits="userSpaceOnUse">
<stop stop-color="#0D99FF"/>
<stop offset="1" stop-color="white" stop-opacity="0.01"/>
</linearGradient>
</defs>
</svg>
