<svg width="24" height="24" viewBox="0 0 24 24" fill="none" xmlns="http://www.w3.org/2000/svg">
<path fill-rule="evenodd" clip-rule="evenodd" d="M4.83096 9.95734C4.83096 9.95734 5.37262 9.88432 6.15856 9.67456C8.23094 9.12161 12 7.62076 12 4.01101C12 3.48432 11.8963 2.96279 11.6947 2.47619C11.4932 1.98959 11.1977 1.54746 10.8253 1.17503C10.4529 0.802607 10.0107 0.507182 9.52414 0.305627C9.03754 0.104071 8.51601 0.000331926 7.98932 0.000331926H4.06228C3.53129 -0.00649966 3.00423 0.0921845 2.51168 0.290658C2.01914 0.489132 1.57091 0.783444 1.193 1.15652C0.815099 1.52959 0.515045 1.974 0.31025 2.46395C0.105456 2.9539 0 3.47965 0 4.01068C0 4.54171 0.105456 5.06746 0.31025 5.55741C0.515045 6.04736 0.815099 6.49177 1.193 6.86484C1.57091 7.23792 2.01914 7.53223 2.51168 7.7307C3.00423 7.92918 3.53129 8.02786 4.06228 8.02103H4.83096V9.95734ZM6.15856 6.69343H4.06228C3.70642 6.69903 3.35301 6.63377 3.02262 6.50146C2.69223 6.36916 2.39146 6.17244 2.13783 5.92277C1.8842 5.6731 1.68278 5.37546 1.54529 5.04719C1.4078 4.71892 1.337 4.36658 1.337 4.01068C1.337 3.65478 1.4078 3.30244 1.54529 2.97417C1.68278 2.6459 1.8842 2.34827 2.13783 2.09859C2.39146 1.84892 2.69223 1.65221 3.02262 1.5199C3.35301 1.38759 3.70642 1.32233 4.06228 1.32793H7.98932C8.34167 1.32793 8.69056 1.39733 9.01609 1.53217C9.34162 1.66701 9.6374 1.86464 9.88654 2.11379C10.1357 2.36294 10.3333 2.65872 10.4682 2.98424C10.603 3.30977 10.6724 3.65867 10.6724 4.01101C10.6724 5.72561 9.47225 6.86734 7.83864 7.65528C7.29643 7.91289 6.73464 8.12708 6.15856 8.29584V6.69343ZM5.6939 17.2591C7.1609 17.2591 8.3491 16.0709 8.3491 14.6039C8.3491 13.1369 7.1609 11.9487 5.6939 11.9487C4.2269 11.9487 3.0387 13.1369 3.0387 14.6039C3.0387 16.0709 4.2269 17.2591 5.6939 17.2591ZM7.0215 14.6039C7.0215 14.956 6.88163 15.2937 6.63265 15.5427C6.38368 15.7917 6.046 15.9315 5.6939 15.9315C5.3418 15.9315 5.00412 15.7917 4.75514 15.5427C4.50617 15.2937 4.3663 14.956 4.3663 14.6039C4.3663 14.2518 4.50617 13.9142 4.75514 13.6652C5.00412 13.4162 5.3418 13.2763 5.6939 13.2763C6.046 13.2763 6.38368 13.4162 6.63265 13.6652C6.88163 13.9142 7.0215 14.2518 7.0215 14.6039ZM0.0515964 21.4192C0.0515964 19.5353 3.8107 18.5867 5.6939 18.5867C7.5771 18.5867 11.3362 19.536 11.3362 21.4192V23.8971H0.0515964V21.4192ZM1.3792 22.5695V21.4192C1.3792 21.4125 1.3792 21.3993 1.39646 21.3661C1.4177 21.3249 1.46615 21.2526 1.57103 21.1556C1.78943 20.9532 2.15518 20.7321 2.66166 20.5284C3.67727 20.1201 4.91858 19.9143 5.6939 19.9143C6.46855 19.9143 7.71119 20.1201 8.72614 20.5284C9.23195 20.7321 9.59837 20.9532 9.81676 21.1556C9.92164 21.2526 9.9701 21.3249 9.99134 21.3654C10.0086 21.3986 10.0086 21.4132 10.0086 21.4185V22.5695H1.3792ZM20.9613 14.6039C20.9613 16.0709 19.7731 17.2591 18.3061 17.2591C16.8391 17.2591 15.6509 16.0709 15.6509 14.6039C15.6509 13.1369 16.8391 11.9487 18.3061 11.9487C19.7731 11.9487 20.9613 13.1369 20.9613 14.6039ZM18.3061 15.9315C18.6582 15.9315 18.9959 15.7917 19.2449 15.5427C19.4938 15.2937 19.6337 14.956 19.6337 14.6039C19.6337 14.2518 19.4938 13.9142 19.2449 13.6652C18.9959 13.4162 18.6582 13.2763 18.3061 13.2763C17.954 13.2763 17.6163 13.4162 17.3673 13.6652C17.1184 13.9142 16.9785 14.2518 16.9785 14.6039C16.9785 14.956 17.1184 15.2937 17.3673 15.5427C17.6163 15.7917 17.954 15.9315 18.3061 15.9315ZM12.6638 21.4192C12.6638 19.5353 16.4229 18.5867 18.3061 18.5867C20.1893 18.5867 23.9484 19.536 23.9484 21.4192V23.8971H12.6638V21.4192ZM13.9914 22.5695V21.4192C13.9914 21.4125 13.9914 21.3993 14.0087 21.3661C14.0299 21.3249 14.0784 21.2526 14.1826 21.1556C14.4016 20.9532 14.768 20.7321 15.2739 20.5284C16.2895 20.1201 17.5308 19.9143 18.3061 19.9143C19.0808 19.9143 20.3234 20.1201 21.3383 20.5284C21.8442 20.7321 22.2106 20.9532 22.4296 21.1556C22.5338 21.2526 22.5823 21.3249 22.6035 21.3654C22.6208 21.3986 22.6208 21.4132 22.6208 21.4185V22.5695H13.9914ZM18.3725 10.2932C19.1491 10.5375 19.7001 10.6211 19.7001 10.6211V8.68483H19.9377C20.4687 8.69166 20.9958 8.59298 21.4883 8.3945C21.9809 8.19603 22.4291 7.90172 22.807 7.52864C23.1849 7.15557 23.485 6.71116 23.6898 6.22121C23.8945 5.73126 24 5.20551 24 4.67448C24 4.14345 23.8945 3.6177 23.6898 3.12775C23.485 2.6378 23.1849 2.19339 22.807 1.82032C22.4291 1.44724 21.9809 1.15293 21.4883 0.954459C20.9958 0.755985 20.4687 0.657301 19.9377 0.664132H17.3383C16.2746 0.664132 15.2545 1.08668 14.5023 1.83883C13.7502 2.59098 13.3276 3.61111 13.3276 4.67481C13.3276 8.1903 16.5052 9.70642 18.3725 10.2932ZM19.9377 7.35723H18.3725V8.8926C17.951 8.74206 17.5414 8.56011 17.1471 8.34828C15.7637 7.59753 14.6552 6.47106 14.6552 4.67415C14.6554 3.96267 14.9381 3.28039 15.4413 2.77735C15.9444 2.27432 16.6268 1.99173 17.3383 1.99173H19.9377C20.2936 1.98613 20.647 2.05139 20.9774 2.1837C21.3078 2.31601 21.6085 2.51272 21.8622 2.76239C22.1158 3.01207 22.3172 3.3097 22.4547 3.63797C22.5922 3.96624 22.663 4.31858 22.663 4.67448C22.663 5.03038 22.5922 5.38272 22.4547 5.71099C22.3172 6.03926 22.1158 6.3369 21.8622 6.58657C21.6085 6.83624 21.3078 7.03296 20.9774 7.16526C20.647 7.29757 20.2936 7.36283 19.9377 7.35723Z" fill="white"/>
</svg>
