<svg width="24" height="24" viewBox="0 0 24 24" fill="none" xmlns="http://www.w3.org/2000/svg">
<path opacity="0.1" fill-rule="evenodd" clip-rule="evenodd" d="M0 12C0 5.37258 5.37258 0 12 0C18.6274 0 24 5.37258 24 12C24 18.6274 18.6274 24 12 24C5.37258 24 0 18.6274 0 12Z" fill="white"/>
<path fill-rule="evenodd" clip-rule="evenodd" d="M17.0004 7.67457C17.5512 7.8257 17.9849 8.27101 18.1321 8.83651C18.3996 9.86142 18.3996 11.9999 18.3996 11.9999C18.3996 11.9999 18.3996 14.1383 18.1321 15.1633C17.9849 15.7288 17.5512 16.1741 17.0004 16.3253C16.0023 16.5999 11.9996 16.5999 11.9996 16.5999C11.9996 16.5999 7.99692 16.5999 6.99874 16.3253C6.44797 16.1741 6.01423 15.7288 5.86703 15.1633C5.59961 14.1383 5.59961 11.9999 5.59961 11.9999C5.59961 11.9999 5.59961 9.86142 5.86703 8.83651C6.01423 8.27101 6.44797 7.8257 6.99874 7.67457C7.99692 7.3999 11.9996 7.3999 11.9996 7.3999C11.9996 7.3999 16.0023 7.3999 17.0004 7.67457ZM10.7996 10.1999V14.1999L13.9996 12.1999L10.7996 10.1999Z" fill="white"/>
</svg>
