<svg width="392" height="84" viewBox="0 0 392 84" fill="none" xmlns="http://www.w3.org/2000/svg">
<path d="M318 18C320.122 18 322.157 17.1571 323.657 15.6569C325.157 14.1566 326 12.1217 326 10C326 7.87827 325.157 5.84344 323.657 4.34315C322.157 2.84285 320.122 2 318 2C315.878 2 313.843 2.84285 312.343 4.34315C310.843 5.84344 310 7.87827 310 10C310 12.1217 310.843 14.1566 312.343 15.6569C313.843 17.1571 315.878 18 318 18ZM322 78C325.183 78 328.235 76.7357 330.485 74.4853C332.736 72.2348 334 69.1826 334 66C334 62.8174 332.736 59.7652 330.485 57.5147C328.235 55.2643 325.183 54 322 54C318.817 54 315.765 55.2643 313.515 57.5147C311.264 59.7652 310 62.8174 310 66C310 69.1826 311.264 72.2348 313.515 74.4853C315.765 76.7357 318.817 78 322 78ZM378 82C381.183 82 384.235 80.7357 386.485 78.4853C388.736 76.2348 390 73.1826 390 70C390 66.8174 388.736 63.7652 386.485 61.5147C384.235 59.2643 381.183 58 378 58C374.817 58 371.765 59.2643 369.515 61.5147C367.264 63.7652 366 66.8174 366 70C366 73.1826 367.264 76.2348 369.515 78.4853C371.765 80.7357 374.817 82 378 82ZM346 50C350.243 50 354.313 48.3143 357.314 45.3137C360.314 42.3131 362 38.2435 362 34C362 29.7565 360.314 25.6869 357.314 22.6863C354.313 19.6857 350.243 18 346 18C341.757 18 337.687 19.6857 334.686 22.6863C331.686 25.6869 330 29.7565 330 34C330 38.2435 331.686 42.3131 334.686 45.3137C337.687 48.3143 341.757 50 346 50ZM370 18C372.122 18 374.157 17.1571 375.657 15.6569C377.157 14.1566 378 12.1217 378 10C378 7.87827 377.157 5.84344 375.657 4.34315C374.157 2.84285 372.122 2 370 2C367.878 2 365.843 2.84285 364.343 4.34315C362.843 5.84344 362 7.87827 362 10C362 12.1217 362.843 14.1566 364.343 15.6569C365.843 17.1571 367.878 18 370 18Z" stroke="white" stroke-width="4" stroke-linecap="round" stroke-linejoin="round"/>
<path d="M324 16L332 24M362 18L358 22M370 61L358 46M330 56L338 48" stroke="white" stroke-width="4" stroke-linecap="round" stroke-linejoin="round"/>
</svg>
