<svg width="299" height="308" viewBox="0 0 299 308" fill="none" xmlns="http://www.w3.org/2000/svg">
<path d="M206.28 228.14C201.613 227.272 187.176 237.804 191.171 252.212C194.257 263.358 208.207 270.253 219.196 264.043C234.021 260.064 237.238 242.781 228.281 233.162C222.961 227.455 213.71 224.807 206.28 228.14ZM206.392 237.704C206.85 237.512 208.348 237.109 208.774 237.096C220.186 236.863 224.389 253.278 212.513 256.527C200.918 259.699 195.355 242.333 206.392 237.704Z" fill="#075aee"/>
<path d="M120.783 238.304C122.566 238.732 124.519 238.256 125.725 237.116L133.478 212.692C129.925 205.886 112.21 179.638 102.953 141.724L102.86 141.353C109.506 136.66 117.774 133.648 124.701 129.493C147.899 115.575 159.08 89.9502 150.844 63.631C142.022 35.4265 115.745 16.3833 87.063 12.4076C54.1816 7.85248 23.0832 23.5281 2.10345 48.2051C0.237225 50.4106 -0.761494 52.3985 0.701393 54.8793L17.1549 82.7446C18.0448 84.2491 19.3444 84.9181 20.6825 85.0174L39.62 94.5565C39.9433 94.31 52.7123 84.9309 59.172 83.5865C72.5749 80.8144 91.6949 88.3145 75.0237 104.307C64.7931 114.121 43.6853 116.685 40.4618 132.48C37.2416 148.248 51.5887 169.644 57.6131 183.287C67.2483 205.112 77.0628 226.85 86.3907 248.806C87.7096 251.911 90.7794 251.838 92.9049 250.224C94.0317 250.019 120.191 238.656 120.783 238.304ZM57.7764 159.839C54.3192 151.756 45.7276 138.603 52.4146 129.579C55.5997 125.274 64.8635 122.777 69.393 120.091C104.806 99.102 98.6924 65.9198 76.4226 57.6707C56.4159 50.2602 38.5476 63.0612 24.1236 75.6542L10.7175 52.9523C42.168 18.1375 101.352 6.25195 132.604 48.9189C145.687 66.7809 148.85 91.7908 133.984 109.707C121.077 125.268 98.7724 130.655 83.6218 143.946C82.4694 144.96 81.7908 147.16 82.3862 148.619C93.4747 175.819 104.237 203.149 115.284 230.365L92.9625 239.984C81.4707 213.162 69.2522 186.667 57.7764 159.839ZM124.739 307.786C129.852 307.094 133.917 305.219 137.041 302.613C153.936 296.467 156.241 275.772 144.852 263.938C138.382 257.225 128.014 254.21 118.427 256.223C111.173 257.753 102.94 263.112 100.68 271.438C89.8735 288.579 105.306 310.398 124.739 307.786ZM106.986 286.041C105.194 277.424 112.716 270.292 119.259 269.844C137.265 268.634 142.633 294.946 124.144 298.228C116.084 299.662 108.609 293.852 106.986 286.041ZM298.135 32.0397C296.608 28.041 294.734 24.1839 292.533 20.5127C293.16 18.6561 292.571 17.174 291.416 16.2201C291.854 14.0113 290.936 11.6201 288.096 10.9799L239.866 0.134715C236.265 -0.675154 233.915 2.31464 233.889 5.13798C232.619 5.87422 231.617 7.11944 231.38 8.89923C222.705 74.7355 212.878 140.418 204.199 206.255C203.956 208.079 204.654 209.337 205.758 210.067C205.566 212.116 206.559 214.184 209.174 214.773L224.171 218.143C226.77 218.726 228.72 217.33 229.616 215.448C231.581 213.691 233.348 211.527 235.752 210.688C253.16 150.434 274.668 90.2031 298.135 32.0397ZM240.81 10.1829L282.664 19.594C258.166 80.792 238.227 143.955 221.837 207.785L213.838 205.986C222.449 140.668 232.186 75.5006 240.81 10.1829Z" fill="#075aee"/>
</svg>
