<svg width="120" height="120" viewBox="0 0 120 120" fill="none" xmlns="http://www.w3.org/2000/svg">
<rect x="1" y="1" width="118" height="118" rx="19" fill="white" stroke="#075aee" stroke-width="2"/>
<path d="M41.1924 54.0042C41.781 54.34 43.5552 55.3373 46.5151 56.9956C49.4752 58.6538 51.7427 59.9306 53.318 60.8261C53.491 60.9242 53.8587 61.1376 54.4212 61.4665C54.9838 61.7955 55.4512 62.0615 55.8232 62.2643C56.1954 62.4671 56.6454 62.6946 57.1736 62.9464C57.7016 63.198 58.1993 63.3872 58.6667 63.5125C59.1342 63.6388 59.5669 63.7014 59.9649 63.7014H59.991H60.0172C60.4153 63.7014 60.8482 63.6388 61.3156 63.5125C61.7828 63.3872 62.281 63.1978 62.8085 62.9464C63.3364 62.6943 63.7864 62.467 64.1586 62.2643C64.5308 62.0615 64.9979 61.7955 65.5607 61.4665C66.123 61.1373 66.4912 60.9242 66.6642 60.8261C68.2565 59.9306 72.3074 57.6565 78.8156 54.0038C80.0792 53.2904 81.1349 52.4296 81.9829 51.422C82.8316 50.4148 83.2555 49.3582 83.2555 48.2527C83.2555 47.329 82.8441 46.5382 82.0218 45.8806C81.1996 45.2228 80.2258 44.894 79.101 44.894H40.8808C39.548 44.894 38.5223 45.2578 37.804 45.9854C37.0857 46.7132 36.7266 47.6228 36.7266 48.7142C36.7266 49.5959 37.2027 50.5512 38.1546 51.5797C39.1065 52.6083 40.1194 53.4166 41.1924 54.0042Z" fill="#075aee"/>
<path d="M80.6587 56.25C74.9816 59.3564 70.6709 61.7706 67.7286 63.4921C66.742 64.0797 65.9416 64.5383 65.3269 64.8669C64.7122 65.1958 63.8947 65.5316 62.8733 65.8744C61.8522 66.2176 60.9005 66.3886 60.0176 66.3886H59.9911H59.965C59.0822 66.3886 58.13 66.2176 57.1089 65.8744C56.0878 65.5316 55.2698 65.1958 54.6553 64.8669C54.041 64.5383 53.2403 64.0797 52.2537 63.4921C49.9168 62.1068 45.6153 59.6925 39.3493 56.25C38.3624 55.7185 37.4882 55.1094 36.7266 54.4238V71.0905C36.7266 72.0147 37.1332 72.805 37.9468 73.4627C38.7603 74.1207 39.7385 74.4496 40.881 74.4496H79.1014C80.2436 74.4496 81.2217 74.1207 82.0353 73.4627C82.8491 72.8048 83.2556 72.0147 83.2556 71.0905V54.4238C82.5111 55.0952 81.6459 55.7044 80.6587 56.25Z" fill="#075aee"/>
</svg>
