<svg width="122" height="122" viewBox="0 0 122 122" fill="none" xmlns="http://www.w3.org/2000/svg">
<rect x="1" y="1" width="120" height="120" rx="20" fill="white" stroke="#075aee" stroke-width="2"/>
<g clip-path="url(#clip0_0_1)">
<path fill-rule="evenodd" clip-rule="evenodd" d="M60.3584 37.0121C50.8771 37.3448 43.0006 44.7419 42.0906 54.184C41.9047 56.0724 42.0123 57.9022 42.345 59.6536V59.6536C42.345 59.6536 42.3744 59.8591 42.4722 60.2504C42.7657 61.5616 43.206 62.8336 43.754 64.0273C45.662 68.5477 50.0748 76.1112 59.9768 84.34C60.5834 84.8488 61.4738 84.8488 62.0902 84.34C71.9922 76.121 76.405 68.5575 78.3228 64.0175C78.8805 62.8238 79.311 61.5616 79.6046 60.2407C79.6926 59.8591 79.7318 59.6438 79.7318 59.6438V59.6438C79.9568 58.4697 80.0742 57.2662 80.0742 56.0333C80.0742 45.2899 71.1801 36.6305 60.3584 37.0121ZM61.0335 65.5047C55.926 65.5047 51.7871 61.3659 51.7871 56.2583C51.7871 51.1508 55.926 47.012 61.0335 47.012C66.141 47.012 70.2799 51.1508 70.2799 56.2583C70.2799 61.3659 66.141 65.5047 61.0335 65.5047Z" fill="#075aee"/>
</g>
<defs>
<clipPath id="clip0_0_1">
<rect width="38.0742" height="47.7216" fill="white" transform="translate(42 37)"/>
</clipPath>
</defs>
</svg>
