<svg width="48" height="44" viewBox="0 0 48 44" fill="none" xmlns="http://www.w3.org/2000/svg">
<path d="M24.26 43.9501C18.88 43.9501 13.5 43.9501 8.10999 43.9501C7.18276 43.9449 6.26191 43.7965 5.38001 43.5101C4.43357 43.2041 3.57042 42.6841 2.85761 41.9904C2.1448 41.2966 1.60153 40.4479 1.27003 39.5101C0.718675 37.7446 0.591909 35.8738 0.900031 34.0501C1.07317 33.2564 1.31747 32.4799 1.63001 31.7301C1.72406 31.3153 1.78757 30.8942 1.82001 30.4701C2.03001 28.9401 2.23 27.4001 2.43 25.8701C2.67 24.0301 2.91666 22.1901 3.16999 20.3501L3.71003 16.2901C3.96003 14.4601 4.20003 12.6201 4.46003 10.7801C4.63003 9.53009 4.76001 8.28008 5.00001 7.05008C5.34729 5.24794 6.33909 3.63403 7.78999 2.5101C9.29892 1.36964 11.1609 0.796164 13.05 0.890073H35.63C37.4758 0.822193 39.2872 1.40241 40.75 2.53009C41.8408 3.34546 42.66 4.4713 43.1 5.7601C43.3287 6.50981 43.5024 7.27514 43.62 8.05008C43.87 9.66008 44.09 11.2701 44.32 12.8901C44.43 13.7501 44.52 14.6101 44.63 15.4701C44.79 16.6301 44.96 17.7901 45.11 18.9501C45.32 20.5501 45.49 22.1601 45.71 23.7601C45.93 25.3601 46.19 27.1001 46.41 28.7601C46.53 29.6501 46.58 30.5501 46.74 31.4301C46.82 31.8701 47.12 32.2601 47.24 32.7001C47.4701 33.4363 47.6276 34.1932 47.71 34.9601C47.7901 35.9796 47.77 37.0045 47.65 38.0201C47.4504 39.5391 46.7377 40.9443 45.6301 42.0028C44.5225 43.0613 43.0865 43.7095 41.56 43.8401C40.56 43.9101 39.56 43.9401 38.49 43.9401C33.75 43.9401 29.01 43.9401 24.26 43.9401V43.9501ZM44.55 29.1801C44.37 27.8401 44.18 26.4401 44 25.0401C43.86 24.0401 43.76 22.9601 43.62 21.9201C43.48 20.8801 43.29 19.7001 43.14 18.5901C43.02 17.6701 42.94 16.7401 42.82 15.8201C42.67 14.6901 42.51 13.5601 42.35 12.4401C42.18 11.1601 41.98 9.89007 41.83 8.61007C41.7779 7.65424 41.5329 6.71883 41.11 5.86007C40.6794 4.95214 39.9973 4.18686 39.1447 3.65509C38.2921 3.12331 37.3048 2.84737 36.3 2.86007C28.3 2.86007 20.24 2.86007 12.21 2.86007C11.8128 2.85325 11.4163 2.89694 11.03 2.99008C9.86955 3.28116 8.82949 3.92881 8.05634 4.84189C7.28319 5.75496 6.81587 6.88748 6.72004 8.08007C6.46004 9.97341 6.2067 11.8701 5.96003 13.7701L5.18 19.4201C5.01 20.7101 4.83004 22.0101 4.66004 23.3001C4.47004 24.8101 4.29003 26.3001 4.09003 27.8301C4.03003 28.3201 3.94999 28.8301 3.85999 29.3801L4.43 29.0901C5.43022 28.558 6.54708 28.2831 7.68 28.2901H40.8C41.1055 28.2765 41.4115 28.3034 41.71 28.3701C42.66 28.6201 43.6 28.9001 44.55 29.1801ZM24.21 41.9501H25.54C30.83 41.9501 36.12 41.9501 41.41 41.9501C42.4603 41.8781 43.456 41.4555 44.2375 40.7501C45.019 40.0448 45.5411 39.0975 45.72 38.0601C45.8383 37.259 45.8918 36.4497 45.88 35.6401C45.9276 34.3723 45.5394 33.1264 44.78 32.1101C44.2958 31.4965 43.6745 31.005 42.9659 30.6751C42.2573 30.3451 41.4813 30.1858 40.7 30.2101C36.25 30.2101 31.8 30.2101 27.35 30.2101H7.90003C6.7342 30.1618 5.58707 30.5148 4.65003 31.2101C4.11039 31.6074 3.66176 32.1154 3.33411 32.7C3.00646 33.2846 2.80731 33.9324 2.75001 34.6001C2.43822 36.2412 2.64079 37.9385 3.33002 39.4601C3.68827 40.1941 4.24377 40.814 4.93433 41.2502C5.6249 41.6865 6.42323 41.9219 7.24 41.9301C12.9 41.9801 18.56 41.9501 24.21 41.9501Z" fill="white"/>
<path d="M42.32 36.11C42.3281 35.7287 42.2593 35.3496 42.1177 34.9954C41.9761 34.6412 41.7646 34.3192 41.4958 34.0485C41.227 33.7779 40.9064 33.5641 40.5532 33.4201C40.2 33.276 39.8214 33.2046 39.44 33.21C39.0563 33.1945 38.6736 33.2587 38.316 33.3984C37.9583 33.5382 37.6335 33.7505 37.362 34.022C37.0905 34.2935 36.8782 34.6183 36.7384 34.976C36.5987 35.3336 36.5345 35.7164 36.55 36.1C36.5393 36.4745 36.6035 36.8474 36.7385 37.1968C36.8736 37.5463 37.0769 37.8653 37.3367 38.1353C37.5964 38.4053 37.9073 38.6208 38.2513 38.7693C38.5953 38.9178 38.9654 38.9962 39.34 39C39.7267 39.0107 40.1116 38.9439 40.4721 38.8036C40.8325 38.6633 41.1613 38.4522 41.439 38.1829C41.7167 37.9136 41.9376 37.5915 42.0889 37.2355C42.2402 36.8795 42.3188 36.4968 42.32 36.11V36.11Z" fill="white"/>
<path d="M29.97 9.81002C29.87 10.75 29.73 11.69 29.69 12.63C29.671 12.8711 29.5653 13.0972 29.3925 13.2663C29.2197 13.4355 28.9914 13.5362 28.75 13.55C28.6251 13.5465 28.5022 13.5173 28.3891 13.4643C28.2759 13.4112 28.1749 13.3354 28.0923 13.2415C28.0098 13.1477 27.9474 13.0379 27.9092 12.9189C27.8709 12.8 27.8576 12.6744 27.87 12.55C27.96 11.62 28.02 10.69 28.08 9.77002C28.08 9.07002 28.15 8.36003 28.21 7.66003C28.2201 7.52856 28.2561 7.40037 28.3159 7.28286C28.3757 7.16536 28.4582 7.06084 28.5586 6.97534C28.659 6.88983 28.7753 6.82502 28.9008 6.78463C29.0263 6.74425 29.1586 6.72908 29.29 6.74002L34.03 7.11001C34.2526 7.11571 34.4669 7.19553 34.639 7.33682C34.8111 7.47811 34.9311 7.67279 34.98 7.89001C35.0216 8.07217 35.002 8.26297 34.9243 8.43289C34.8466 8.60281 34.715 8.74238 34.55 8.83001C34.3359 8.93611 34.0988 8.98766 33.86 8.98004C33.22 8.98004 32.59 8.90003 31.86 8.85003C32.01 9.08003 32.13 9.25001 32.25 9.42001C33.0651 10.6649 33.6165 12.0637 33.87 13.53C34.1195 15.1197 33.9675 16.7466 33.4278 18.2626C32.8882 19.7786 31.9779 21.1356 30.78 22.21C29.6398 23.2707 28.2566 24.0351 26.7518 24.4361C25.2471 24.8372 23.6669 24.8626 22.15 24.51C20.8007 24.2416 19.5274 23.6784 18.421 22.8608C17.3146 22.0431 16.4026 20.9911 15.75 19.78C15.2515 18.8834 14.894 17.9154 14.69 16.91C14.4425 15.8547 14.3983 14.7619 14.56 13.69C14.8514 11.5452 15.8468 9.55788 17.39 8.04003C17.5639 7.87837 17.7926 7.78851 18.03 7.78851C18.2675 7.78851 18.4961 7.87837 18.67 8.04003C18.833 8.22317 18.9231 8.45981 18.9231 8.70501C18.9231 8.95022 18.833 9.18689 18.67 9.37002C17.6622 10.3613 16.9435 11.6084 16.5911 12.9773C16.2387 14.3463 16.266 15.7854 16.67 17.14C17.1197 18.6815 18.0325 20.0475 19.2847 21.0528C20.5368 22.0581 22.0677 22.6541 23.67 22.76C25.5641 22.8975 27.442 22.3274 28.94 21.16C30.0904 20.2891 30.9788 19.1183 31.508 17.776C32.0371 16.4337 32.1866 14.9716 31.94 13.55C31.7634 12.4058 31.2989 11.3254 30.59 10.41C30.41 10.16 30.22 9.92002 30.03 9.68002L29.97 9.81002Z" fill="white"/>
<path d="M42.32 36.11C42.3189 36.4986 42.2397 36.8829 42.0872 37.2403C41.9346 37.5977 41.7118 37.9207 41.432 38.1903C41.1522 38.4599 40.821 38.6705 40.4582 38.8096C40.0954 38.9487 39.7083 39.0134 39.32 39C38.9454 38.9962 38.5753 38.9178 38.2313 38.7693C37.8874 38.6208 37.5764 38.4053 37.3167 38.1353C37.0569 37.8653 36.8536 37.5463 36.7185 37.1968C36.5835 36.8474 36.5194 36.4745 36.53 36.1C36.5145 35.7164 36.5786 35.3336 36.7184 34.976C36.8581 34.6183 37.0705 34.2935 37.342 34.022C37.6135 33.7505 37.9383 33.5382 38.296 33.3984C38.6536 33.2587 39.0363 33.1945 39.42 33.21C39.8031 33.2018 40.1838 33.2713 40.5394 33.4141C40.8949 33.5569 41.2179 33.7703 41.4888 34.0412C41.7598 34.3121 41.9731 34.6351 42.1159 34.9906C42.2588 35.3462 42.3282 35.7269 42.32 36.11V36.11ZM39.45 35.11C39.3148 35.0939 39.1777 35.1088 39.0491 35.1533C38.9204 35.1979 38.8036 35.2711 38.7073 35.3673C38.6111 35.4636 38.5379 35.5805 38.4933 35.7091C38.4487 35.8378 38.4339 35.9748 38.45 36.11C38.4377 36.2444 38.4551 36.3799 38.501 36.5068C38.547 36.6337 38.6202 36.749 38.7156 36.8444C38.8111 36.9398 38.9263 37.0131 39.0532 37.059C39.1801 37.1049 39.3156 37.1223 39.45 37.11C39.7205 37.1019 39.9788 36.9962 40.1773 36.8124C40.3758 36.6285 40.5012 36.379 40.53 36.11C40.5251 35.9751 40.4928 35.8426 40.4353 35.7204C40.3777 35.5983 40.296 35.4891 40.1951 35.3994C40.0942 35.3097 39.9761 35.2413 39.848 35.1985C39.72 35.1556 39.5846 35.1391 39.45 35.15V35.11Z" fill="white"/>
</svg>
