<svg width="51" height="50" viewBox="0 0 51 50" fill="none" xmlns="http://www.w3.org/2000/svg">
<path d="M25.44 49.9901C20.5529 49.98 15.7787 48.5193 11.7227 45.7929C7.66664 43.0665 4.51139 39.1973 2.65681 34.6757C0.80223 30.1541 0.331824 25.1837 1.30525 20.3944C2.27867 15.6052 4.65208 11.2127 8.12464 7.77388C11.5972 4.33502 16.0126 2.00454 20.8111 1.07786C25.6096 0.151189 30.5752 0.67003 35.0785 2.56862C39.5818 4.4672 43.4201 7.66006 46.1068 11.7425C48.7935 15.8249 50.2076 20.6131 50.17 25.5001C50.1198 32.0213 47.4906 38.2576 42.8568 42.8464C38.223 47.4353 31.9614 50.0035 25.44 49.9901ZM25.52 1.99009C20.9059 1.98813 16.3948 3.35384 12.5565 5.91462C8.71828 8.47541 5.72516 12.1164 3.95533 16.3775C2.1855 20.6387 1.71839 25.3288 2.61299 29.8554C3.50758 34.3819 5.72376 38.5417 8.98152 41.8092C12.2393 45.0767 16.3924 47.3054 20.9163 48.2135C25.4401 49.1217 30.1316 48.6686 34.398 46.9116C38.6645 45.1545 42.3144 42.1723 44.8867 38.3417C47.4589 34.5112 48.8382 30.0042 48.85 25.3901C48.8566 22.3217 48.2581 19.2821 47.0887 16.4452C45.9193 13.6084 44.202 11.0299 42.0351 8.85743C39.8682 6.68495 37.2942 4.96106 34.4603 3.78441C31.6265 2.60775 28.5885 2.00141 25.52 2.0001V1.99009Z" fill="white"/>
<path d="M25.07 5.57007C32.39 5.72007 37.98 8.41007 41.87 14.0101C46.3 20.4001 46.67 27.2501 43.25 34.2401C42.6901 35.3072 42.0198 36.3127 41.25 37.2401C40.5753 38.0849 39.6289 38.6701 38.5716 38.8961C37.5142 39.1222 36.4112 38.9752 35.45 38.4801C35.03 38.2701 34.66 38.0101 34.92 37.4801C35.18 36.9501 35.6 37.0801 36.02 37.2701C36.7696 37.6619 37.638 37.7612 38.4566 37.5487C39.2753 37.3362 39.9857 36.827 40.45 36.1201C42.8833 32.8914 44.1675 28.942 44.0987 24.8997C44.0298 20.8574 42.6118 16.954 40.07 13.8101C38.2753 11.6001 36.001 9.82756 33.4196 8.62683C30.8383 7.4261 28.0174 6.82863 25.1709 6.8797C22.3244 6.93077 19.5268 7.62904 16.9902 8.9216C14.4536 10.2142 12.2444 12.0671 10.5301 14.3401C8.85728 16.5252 7.71544 19.0693 7.19479 21.7715C6.67414 24.4736 6.78893 27.2599 7.53006 29.9101C8.13005 32.2247 9.2025 34.3901 10.68 36.2701C11.1363 36.9041 11.7964 37.3623 12.55 37.568C13.3036 37.7736 14.1049 37.7144 14.82 37.4001L14.98 37.33C15.38 37.19 15.73 37.22 15.98 37.64C16.23 38.06 15.93 38.3301 15.57 38.5401C14.6176 39.0063 13.5358 39.1375 12.4995 38.9125C11.4633 38.6875 10.5332 38.1193 9.86001 37.3C7.84192 34.8368 6.50118 31.8898 5.97006 28.7501C5.04175 23.6633 6.16008 18.4157 9.08169 14.1494C12.0033 9.88312 16.4917 6.94341 21.57 5.97006C22.8 5.72006 24.17 5.67007 25.07 5.57007Z" fill="white"/>
<path d="M25.21 40.7299C24.4502 40.7028 23.7111 40.4747 23.0682 40.0689C22.4252 39.6631 21.9014 39.0941 21.55 38.4199C21.1166 37.7103 20.9025 36.8885 20.9345 36.0577C20.9666 35.2269 21.2433 34.424 21.73 33.7499C22.0272 33.1902 22.1754 32.5634 22.1601 31.9299C22.8101 26.6199 23.41 21.3099 24.01 15.9899C24.11 15.1999 24.19 14.3999 24.28 13.5999C24.3076 13.2967 24.4475 13.0147 24.6723 12.8094C24.8971 12.6041 25.1906 12.4902 25.495 12.4902C25.7995 12.4902 26.093 12.6041 26.3178 12.8094C26.5426 13.0147 26.6825 13.2967 26.71 13.5999C27.3034 18.6199 27.8867 23.6466 28.46 28.6799C28.61 30.0499 28.75 31.4199 28.93 32.7799C29.0124 33.1256 29.1331 33.461 29.29 33.7799C29.5737 34.3585 29.7853 34.9697 29.92 35.5999C30.0049 36.3095 29.9367 37.0289 29.7201 37.7099C29.4611 38.3809 29.07 38.993 28.57 39.5099C28.1298 39.9418 27.6021 40.2742 27.0225 40.4847C26.4428 40.6951 25.8248 40.7788 25.21 40.7299V40.7299ZM28.21 34.2699L28.32 31.0999C28.123 32.1449 28.086 33.2138 28.21 34.2699L28.14 34.3199L28 34.1999C27.6617 33.7766 27.2208 33.4468 26.7192 33.2418C26.2176 33.0367 25.6718 32.9633 25.1339 33.0284C24.5959 33.0935 24.0835 33.295 23.6453 33.6138C23.2071 33.9326 22.8576 34.3581 22.63 34.8499C22.3176 35.523 22.2465 36.2831 22.4286 37.0025C22.6107 37.7218 23.035 38.3565 23.63 38.7999C24.2434 39.2448 24.9956 39.456 25.7509 39.3955C26.5063 39.335 27.2152 39.0068 27.75 38.4699C28.2706 37.9126 28.5936 37.1997 28.6695 36.4409C28.7454 35.682 28.5699 34.9193 28.17 34.2699H28.21ZM25.63 15.3999H25.45L23.45 32.1299C24.0954 31.8509 24.7924 31.7112 25.4954 31.7198C26.1984 31.7284 26.8917 31.8852 27.53 32.1799L25.63 15.3999Z" fill="white"/>
<path d="M12.8 20.1601C12.8 20.0301 12.8 19.9801 12.8 19.9501C13.28 18.7101 13.28 18.7101 14.45 19.3001L16.64 20.4201C16.7307 20.4603 16.812 20.519 16.8787 20.5925C16.9453 20.666 16.9958 20.7527 17.0269 20.8469C17.058 20.9411 17.069 21.0408 17.0592 21.1395C17.0494 21.2383 17.019 21.3338 16.97 21.4201C16.9367 21.5081 16.8852 21.5881 16.8189 21.6548C16.7526 21.7216 16.6731 21.7736 16.5853 21.8076C16.4976 21.8415 16.4037 21.8567 16.3098 21.8519C16.2158 21.8472 16.1239 21.8227 16.04 21.7801C14.95 21.2601 13.87 20.6901 12.8 20.1601Z" fill="white"/>
<path d="M13.25 32.2699L12.34 31.0599C13.34 30.3399 14.27 29.6399 15.24 28.9799C15.3167 28.9215 15.405 28.8801 15.499 28.8584C15.593 28.8368 15.6906 28.8354 15.7852 28.8543C15.8797 28.8732 15.9692 28.912 16.0476 28.9681C16.126 29.0243 16.1916 29.0965 16.24 29.1799C16.3032 29.2634 16.3477 29.3596 16.3705 29.4618C16.3932 29.5641 16.3937 29.67 16.3719 29.7725C16.3501 29.8749 16.3065 29.9715 16.244 30.0556C16.1816 30.1397 16.1018 30.2094 16.01 30.2599L13.25 32.2699Z" fill="white"/>
<path d="M38.26 20.1601C37.17 20.7201 36.12 21.2901 35.05 21.7901C34.9658 21.8342 34.873 21.8595 34.7781 21.8644C34.6832 21.8693 34.5884 21.8537 34.5 21.8185C34.4117 21.7834 34.3321 21.7296 34.2665 21.6608C34.2009 21.5921 34.1509 21.51 34.12 21.4201C34.0691 21.3348 34.0369 21.2397 34.0256 21.1411C34.0142 21.0424 34.024 20.9425 34.0543 20.8479C34.0846 20.7533 34.1346 20.6662 34.2011 20.5925C34.2676 20.5187 34.349 20.46 34.44 20.4201C35.35 19.9301 36.27 19.4801 37.18 19.0001C37.232 18.9577 37.2938 18.9291 37.3598 18.9169C37.4257 18.9046 37.4937 18.9092 37.5574 18.9301C37.6212 18.951 37.6786 18.9876 37.7245 19.0365C37.7704 19.0855 37.8032 19.1452 37.82 19.2101C37.95 19.5201 38.07 19.8101 38.26 20.1601Z" fill="white"/>
<path d="M34.54 29.7299C34.54 28.9999 35.17 28.6299 35.69 28.9699C36.57 29.5499 37.43 30.1999 38.27 30.8399C38.3233 30.9123 38.3583 30.9964 38.3723 31.0852C38.3862 31.1739 38.3786 31.2647 38.35 31.3499C38.2486 31.5965 38.0951 31.8182 37.9 31.9999C37.8282 32.0506 37.7449 32.0826 37.6576 32.0931C37.5703 32.1036 37.4818 32.0922 37.4 32.0599C36.5334 31.4466 35.6733 30.8166 34.82 30.1699C34.695 30.046 34.5993 29.8957 34.54 29.7299V29.7299Z" fill="white"/>
</svg>
