<?xml version="1.0" encoding="utf-8"?>
<!-- Generator: Adobe Illustrator 27.0.0, SVG Export Plug-In . SVG Version: 6.00 Build 0)  -->
<svg version="1.1" id="Layer_1" xmlns="http://www.w3.org/2000/svg" xmlns:xlink="http://www.w3.org/1999/xlink" x="0px" y="0px"
	 viewBox="0 0 200.5 202.9" style="enable-background:new 0 0 200.5 202.9;" xml:space="preserve">
<g>
	<path d="M159.2,124.4c0,1.4,0,3.2,0,5c0,17.8,0,35.7,0,53.5c0,13.2-6.7,20-19.9,20c-25.3,0-50.6,0-76,0c-12.7,0-19.4-6.7-19.4-19.4
		c0-19.8,0-39.6,0-59.5c-5.7-0.7-11.2-0.8-16.4-2C12.2,118.3,0.8,104.5,0,89.1C-0.8,71.9,8.7,57.3,24.5,52c2.7-0.9,3.6-2,3.6-4.8
		C28.6,24.7,41.8,7.7,63.6,1.5c18.6-5.3,39.8,3.4,51.4,21.1c0.4,0.5,0.8,1.1,1.4,1.9c2.6-0.8,5.2-1.8,7.9-2.4
		c19.4-5,38.6,5.6,44.5,24.7c0.8,2.6,2,3.7,4.4,4.5c16.1,4.8,26.2,17.3,27.1,33.2c0.9,15.5-7.7,29.6-22.8,35.9
		C172.2,122.6,166.1,123,159.2,124.4z M52.5,132.4c0,17,0,34,0,51c0,8.4,2.9,11.2,11,11.2c25.3,0,50.7,0,76,0
		c8.3,0,11.3-3,11.3-11.6c0-33.5,0-67,0-100.5c0-8.8-3-11.8-11.7-11.8c-25,0-50,0-75,0c-8.8,0-11.7,2.9-11.7,11.7
		C52.4,99.1,52.5,115.7,52.5,132.4z M44,114.4c0-11.2,0-22.1,0-33.1c0-11.8,6.9-18.7,18.5-18.7c26,0,52,0,78,0
		c11.6,0,18.6,7,18.7,18.7c0.1,9.7,0.2,19.3,0,29c-0.1,3.9,1.4,4.8,5,4.7c14.5-0.4,26.3-11.3,27.8-25.8c1.4-14.4-8.2-27.6-22.6-30.1
		c-5.1-0.9-7-2.9-8.2-8c-4.4-19-25.2-27.6-42.1-17.8c-5.4,3.1-6.7,2.7-9.5-3c-8-16.4-26.6-25.2-43.8-20.7
		c-18.7,5-30.7,21.5-29.5,40.5c0.5,7.4,0.5,7.4-6.9,9.2c-12,2.9-20.7,13.6-21.2,25.9C7.5,101.4,21.2,117.8,44,114.4z" fill="white"/>
	<path d="M101.8,79.3c11.3,0,22.6,0,34,0c5.7,0,6.8,1.1,6.8,6.7c0,6.8,0,13.6,0,20.5c0,4.3-1.8,6.4-6.3,6.3
		c-23.1-0.1-46.3-0.1-69.4,0c-4.6,0-6.2-1.9-6.1-6.3c0.2-7,0.2-14,0-21c-0.2-4.9,2-6.4,6.6-6.3C78.9,79.5,90.3,79.3,101.8,79.3z
		 M69.6,87.9c0,5.7,0,11,0,16.3c21.7,0,42.9,0,64.1,0c0-5.6,0-10.9,0-16.3C112.2,87.9,91,87.9,69.6,87.9z" fill="white"/>
	<path d="M101.4,133c-3.2-0.5-7.9,1.2-7.9-4.1c0-5.2,4.6-4.2,7.9-4.1c3.4,0,8.3-1.1,8.1,4.4C109.3,134.4,104.5,132.5,101.4,133z" fill="white"/>
	<path d="M101.2,158.6c-1.3,0-3,0.5-3.9-0.1c-1.6-1-3.5-2.6-3.7-4.2c-0.2-1.1,2-3.4,3.5-3.8c2.5-0.7,5.4-0.8,7.8-0.1
		c1.8,0.5,4.2,2.4,4.5,4c0.5,2.9-1.8,4.3-4.7,4.2C103.6,158.6,102.4,158.6,101.2,158.6C101.2,158.6,101.2,158.6,101.2,158.6z" fill="white"/>
	<path d="M101.8,175.8c1.5,0,3.3-0.5,4.4,0.1c1.5,0.9,3.3,2.7,3.3,4.1c0,1.3-2,3.3-3.5,3.7c-2.5,0.6-5.4,0.7-7.8,0.1
		c-1.8-0.5-3.2-2.5-4.7-3.8c1.6-1.4,3.2-3.1,5-4.2C99.2,175.3,100.6,175.8,101.8,175.8C101.8,175.8,101.8,175.8,101.8,175.8z" fill="white"/>
	<path d="M127.1,175.7c3.2,0.3,7.9-1,7.9,4.2c0,5.3-4.7,4-7.9,4.1c-3.4,0-8.4,1.3-8.2-4.3C119,174.7,123.7,175.9,127.1,175.7z" fill="white"/>
	<path d="M126.9,133c-3.3-0.4-8.1,1.2-8.1-4.1c0-5.1,4.6-4.3,7.9-4.2c3.4,0.1,8.4-1.2,8.2,4.4C134.8,134.4,130,132.5,126.9,133z" fill="white"/>
	<path d="M126.6,158.6c-3-0.2-7.7,1.1-7.8-4c-0.1-5.4,4.8-4.3,8.3-4.4c0.3,0,0.7,0,1,0c3.2,0.1,7-0.2,6.9,4.4
		c-0.1,4.6-3.9,4-7.1,4.1C127.6,158.6,127.3,158.6,126.6,158.6z" fill="white"/>
	<path d="M76.2,124.7c1.3,0,2.9-0.5,3.9,0.1c1.6,1,3.8,2.5,3.9,4c0.1,1.3-2.1,3.4-3.7,3.9c-2.3,0.7-5.1,0.7-7.4,0
		c-1.8-0.5-3.3-2.5-4.9-3.8c1.6-1.4,3-3,4.7-4.1C73.6,124.3,75,124.7,76.2,124.7z" fill="white"/>
	<path d="M75.9,158.6c-3-0.2-7.9,1-7.7-4.4c0.2-4.8,4.9-3.8,8.2-4c1-0.1,2,0,3,0.1c2.7,0.2,5,1,4.9,4.3c0,3.2-2.2,4.1-5,4.1
		C78.4,158.6,77.4,158.6,75.9,158.6z" fill="white"/>
	<path d="M76.6,175.8c1.3,0,3-0.5,3.9,0.1c1.6,1.1,3.4,2.7,3.6,4.3c0.2,1-2.1,3.1-3.7,3.5c-2.3,0.6-5.1,0.7-7.4,0.1
		c-1.9-0.5-3.4-2.4-5-3.7c1.7-1.5,3.2-3.1,5.1-4.3C74,175.3,75.4,175.8,76.6,175.8C76.6,175.8,76.6,175.8,76.6,175.8z" fill="white"/>
</g>
</svg>
