<?xml version="1.0" standalone="yes"?>
<svg xmlns="http://www.w3.org/2000/svg" width="512" height="512" fill="none">
<path style="fill:none; stroke:none;" d="M0 0L0 512L512 512L512 0L0 0z"/>
<path style="fill:#ffffff; stroke:none;" d="M440 233C435.041 234.283 430.021 235.387 425 236.4C420.755 237.255 414.774 237.652 411.434 240.703C407.41 244.378 408.947 251.427 414.019 253.218C417.901 254.589 423.132 252.574 427 251.8C436.832 249.833 462.511 248.831 468.243 239.942C470.845 235.907 468.323 231.104 467.141 227C464.073 216.342 460.654 194.171 452.581 186.434C448.631 182.649 441.818 184.828 440.448 190.043C439.338 194.27 441.69 199.069 443 203C444.765 208.296 446.741 213.559 448 219C414.91 203.551 383.683 182.037 352 163.85C289.602 128.033 227.038 92.4257 165 55.9892C143.093 43.1228 121.064 30.4452 99 17.8495C93.2862 14.5878 80.6958 3.63367 74.7423 11.2785C67.6015 20.4479 83.2561 26.6373 89 30.0108C111.235 43.0696 133.587 55.9691 156 68.7191C215.557 102.599 274.739 137.182 334 171.576C369.165 191.985 406.061 210.614 440 233M402 321L402 288C402 283.177 402.964 277.098 399.566 273.148C394.786 267.591 382.61 270 376 270L310 270L310 223C310 217.786 311.461 209.56 307.486 205.434C302.83 200.6 290.158 203 284 203L218 203L218 168C218 163.076 219.074 156.465 215.991 152.228C211.849 146.537 199.184 149 193 149L126 149L126 113C126 108.177 126.964 102.098 123.566 98.1481C119.014 92.8566 108.268 95 102 95L43 95C36.5594 95 25.1017 92.7219 20.4336 98.1481C16.0116 103.288 18 113.683 18 120L18 175L18 393L18 455C18 461.786 15.7837 473.1 23.044 476.972C27.9725 479.601 36.5518 478 42 478C56.5563 478 72.5987 476.081 87 478.144C95.8067 479.406 105.819 488.783 114 492.742C129.097 500.046 147.217 503.992 164 503.992C180.783 503.992 198.903 500.046 214 492.742C222.226 488.762 230.474 481.292 239 478.563C244.897 476.676 252.852 478 259 478L300 478L441 478L476 478C480.69 478 487.013 479.126 490.772 475.682C497.311 469.69 494 452.15 494 444L494 356C494 347.638 497.606 328.247 489.867 322.742C484.113 318.651 471.771 321 465 321L402 321z"/>
<path style="fill:#075aee; stroke:none;" d="M34 110L34 463L74 463C64.6396 448.835 55.3631 436.251 49.6952 420C37.2198 384.23 45.1087 343.061 67.4784 313C75.1015 302.756 84.7153 293.423 95 285.885C98.9217 283.011 108.233 279.692 109.682 274.787C113.937 260.381 110 239.061 110 224L110 110L34 110M126 164L126 269L164 263.029L202 269L202 164L126 164M218 218L218 258C218 262.974 216.463 271.041 218.603 275.61C220.778 280.255 229.929 283.605 234 286.63C243.892 293.979 253.157 303.103 260.522 313C283.925 344.45 290.941 387.072 276.936 424C271.399 438.599 262.497 450.142 254 463L294 463L294 218L218 218M448 219L449 220L448 219M151 279.425C135.315 281.56 120.466 286.662 107 295.065C95.9133 301.983 86.2317 311.325 78.7207 322C27.6935 394.526 86.2925 498.443 176 487.715C191.35 485.879 205.616 480.828 219 473.128C230.184 466.694 240.195 457.363 247.844 447C301.195 374.719 242.363 266.989 151 279.425M310 285L310 463L386 463L386 285L310 285z"/>
<path style="fill:#ffffff; stroke:none;" d="M156 287.424C138.903 289.697 123.348 294.449 109 304.348C98.7119 311.446 89.9419 320.56 83.0787 331C37.6948 400.035 99.1203 490.045 179 478.715C191.999 476.871 205.023 471.8 216 464.655C283.943 420.434 269.351 311.065 189 290.378C178.456 287.663 166.862 285.981 156 287.424z"/>
<path style="fill:#075aee; stroke:none;" d="M163 302.594C148.341 303.124 134.809 306.544 122 313.873C52.0806 353.877 84.6237 467.31 165 464.406C179.659 463.876 193.191 460.456 206 453.127C275.96 413.1 243.397 299.689 163 302.594z"/>
<path style="fill:#ffffff; stroke:none;" d="M161.105 308.746C151.895 312.513 156.46 330.522 166.895 326.254C176.105 322.487 171.54 304.478 161.105 308.746M112.109 329.029C102.878 334.156 114.035 349.09 121.945 344.968C132.061 339.695 120.59 324.318 112.109 329.029M209.001 329.029C199.799 333.596 201.265 350.161 211.999 344.968C221.699 340.275 220.394 323.373 209.001 329.029z"/>
<path style="fill:#075aee; stroke:none;" d="M402 336L402 463L478 463L478 336L402 336z"/>
<path style="fill:#ffffff; stroke:none;" d="M163.005 337.762C152.868 339.295 156 356.927 156 364C156 370.906 150.888 379.81 152.667 386C153.499 388.893 155.53 391.609 158.043 393.258C161.392 395.454 165.371 394.548 169 395.815C175.081 397.938 183.123 406.53 189.981 404.215C194.091 402.827 196.475 398.077 194.503 394.104C191.001 387.049 180.494 385.971 175.729 379.895C168.809 371.07 172.815 357.415 171.906 347C171.494 342.284 168.574 336.919 163.005 337.762M93.044 376.742C81.2414 381.551 93.2461 394.214 102.956 390.258C114.759 385.449 102.754 372.786 93.044 376.742M225.044 376.742C213.241 381.551 225.246 394.214 234.956 390.258C246.759 385.449 234.754 372.786 225.044 376.742M116.001 422.032C106.301 426.725 107.606 443.627 118.999 437.971C128.201 433.404 126.735 416.839 116.001 422.032M206.055 422.032C195.939 427.305 207.41 442.682 215.891 437.971C225.122 432.844 213.965 417.909 206.055 422.032M161.105 440.746C151.895 444.513 156.46 462.522 166.895 458.254C176.105 454.487 171.54 436.478 161.105 440.746z"/>
</svg>
