<svg width="52" height="52" viewBox="0 0 52 52" fill="none" xmlns="http://www.w3.org/2000/svg">
<path d="M20.9806 40.0429H3.5106C2.7255 40.0964 1.94739 39.8649 1.31919 39.391C0.690986 38.9171 0.254781 38.2325 0.0905514 37.4629C0.0288258 37.157 0.00203173 36.845 0.0105954 36.533V3.53295C-0.0276876 3.05839 0.038046 2.58119 0.203344 2.1347C0.368643 1.68821 0.629423 1.28319 0.967505 0.947963C1.30559 0.612739 1.71287 0.355408 2.16074 0.193905C2.60862 0.0324013 3.0863 -0.0293735 3.56052 0.0129354C9.82052 0.0129354 16.0705 0.0129354 22.3305 0.0129354C22.634 0.0237825 22.9241 0.140553 23.1505 0.342952C25.5572 2.71629 27.9472 5.10627 30.3205 7.51294C30.5179 7.7455 30.6306 8.03808 30.6405 8.34295C30.6405 9.34295 30.6405 10.2429 30.6405 11.2029C30.6405 11.5329 30.7406 11.6529 31.0906 11.6429C35.1606 11.6429 39.2305 11.6429 43.3005 11.6429C43.6071 11.6442 43.9025 11.7581 44.1306 11.9629C46.5506 14.3429 48.9539 16.7429 51.3406 19.1629C51.5292 19.3835 51.6352 19.6628 51.6405 19.9529C51.6405 29.3396 51.6405 38.7329 51.6405 48.1329C51.678 48.6025 51.6134 49.0747 51.4509 49.5169C51.2884 49.9591 51.032 50.3609 50.6993 50.6945C50.3667 51.0281 49.9658 51.2856 49.524 51.4493C49.0823 51.6131 48.6102 51.6791 48.1405 51.6429H24.5305C24.0569 51.6804 23.5809 51.6149 23.1351 51.4509C22.6893 51.2869 22.2843 51.0283 21.948 50.6929C21.6116 50.3574 21.3518 49.9532 21.1865 49.5078C21.0212 49.0625 20.9544 48.5866 20.9906 48.1129C20.9906 45.6329 20.9906 43.1129 20.9906 40.6829L20.9806 40.0429ZM30.4205 26.6929C30.4205 26.1929 30.4205 25.6929 30.4205 25.2229C30.3721 24.9326 30.4214 24.6345 30.5606 24.3752C30.6999 24.1159 30.9212 23.9101 31.1899 23.7901C31.4586 23.67 31.7595 23.6425 32.0455 23.7118C32.3315 23.781 32.5865 23.9432 32.7705 24.1729L38.7705 29.4129C39.7105 30.2429 39.7705 30.9629 38.7705 31.7929C36.7705 33.5629 34.7705 35.3129 32.7705 37.0729C32.5779 37.2877 32.3225 37.4361 32.0406 37.4972C31.7587 37.5582 31.4647 37.5287 31.2005 37.4129C30.9409 37.2886 30.7275 37.0851 30.5909 36.8317C30.4543 36.5783 30.4017 36.2882 30.4405 36.003C30.4405 35.503 30.4405 35.003 30.4405 34.533H22.6206V48.1029C22.6206 49.4629 23.2406 50.1029 24.6206 50.1029H48.0205C49.4105 50.1029 50.0205 49.4629 50.0205 48.1029V20.6629H44.8005C44.5125 20.6868 44.2228 20.6481 43.9513 20.5493C43.6797 20.4504 43.4328 20.294 43.2275 20.0906C43.0222 19.8872 42.8635 19.6417 42.7622 19.3711C42.6609 19.1005 42.6193 18.8111 42.6405 18.5229V13.313H24.4105C24.0177 13.2612 23.6199 13.359 23.2958 13.5868C22.9716 13.8146 22.7449 14.1558 22.6605 14.5429C22.6054 15.4388 22.6054 16.3371 22.6605 17.2329H27.5705C27.7702 17.207 27.9731 17.2271 28.1638 17.2917C28.3545 17.3562 28.5278 17.4636 28.6706 17.6054C28.8135 17.7473 28.9219 17.9199 28.9878 18.1102C29.0536 18.3004 29.0751 18.5031 29.0505 18.7029V23.4329C29.0505 24.5129 28.5706 24.9929 27.5006 24.9929H23.2005H22.6605V26.6629L30.4205 26.6929ZM16.8806 25.033C16.8806 25.563 16.8806 26.0829 16.8806 26.6029C16.9075 26.8722 16.8496 27.1431 16.7152 27.378C16.5807 27.6128 16.3764 27.7998 16.1306 27.9129C15.8874 28.0352 15.6106 28.074 15.3431 28.0234C15.0756 27.9728 14.8322 27.8356 14.6505 27.6329L8.48057 22.2129C8.29233 22.0976 8.13678 21.9359 8.02891 21.7433C7.92103 21.5507 7.86436 21.3337 7.86436 21.1129C7.86436 20.8922 7.92103 20.6751 8.02891 20.4825C8.13678 20.2899 8.29233 20.1283 8.48057 20.0129L14.5805 14.6629C14.7721 14.4499 15.0251 14.3017 15.3047 14.239C15.5842 14.1763 15.8763 14.2022 16.1405 14.313C16.4046 14.4331 16.621 14.6381 16.7551 14.8955C16.8892 15.1528 16.9334 15.4476 16.8806 15.7329C16.8806 16.2229 16.8806 16.7329 16.8806 17.2029H20.9706C20.9706 16.5129 20.9706 15.8429 20.9706 15.2029C20.9412 14.7383 21.0111 14.2728 21.1756 13.8373C21.3402 13.4018 21.5956 13.0063 21.9248 12.6771C22.254 12.3479 22.6494 12.0926 23.0849 11.9281C23.5204 11.7635 23.9859 11.6936 24.4505 11.7229H28.4505H28.9906V9.08294H28.4005C26.8405 9.08294 25.2806 9.08294 23.7206 9.08294C23.4453 9.09414 23.1706 9.04832 22.9138 8.94839C22.657 8.84846 22.4238 8.69658 22.2285 8.50222C22.0332 8.30787 21.8801 8.07524 21.7789 7.81897C21.6777 7.56269 21.6306 7.28828 21.6405 7.01294C21.6405 5.85294 21.6405 4.69295 21.6405 3.52295V1.71295H3.64048C2.24048 1.71295 1.64048 2.34295 1.64048 3.71295V36.4329C1.64048 37.8329 2.27048 38.4329 3.64048 38.4329H20.9405V34.4829H19.7206C19.5288 34.5045 19.3347 34.4831 19.1522 34.4203C18.9697 34.3576 18.8035 34.255 18.6656 34.12C18.5278 33.985 18.4217 33.821 18.3551 33.6399C18.2885 33.4588 18.263 33.2651 18.2805 33.0729C18.2805 31.4329 18.2805 29.7829 18.2805 28.1329C18.2602 27.9362 18.2851 27.7374 18.3532 27.5517C18.4214 27.366 18.531 27.1983 18.6737 27.0614C18.8164 26.9245 18.9885 26.8219 19.1769 26.7615C19.3652 26.7011 19.5649 26.6845 19.7606 26.7129H20.9405V25.0229L16.8806 25.033ZM15.2705 16.1829L9.63059 21.123L15.2805 26.0429V24.753C15.2805 23.753 15.6605 23.373 16.6705 23.373H27.3905V18.8629H16.7005C15.6305 18.8629 15.2705 18.5029 15.2705 17.4229V16.1829ZM32.0505 25.6929V26.9229C32.0505 27.9729 31.6606 28.3529 30.6106 28.3529H19.9205V32.8629H30.6006C31.6606 32.8629 32.0505 33.2429 32.0505 34.2929V35.533L37.6905 30.6129L32.0505 25.6929ZM23.2805 2.97293C23.2805 4.31293 23.2805 5.65293 23.2805 6.97293C23.2805 7.12293 23.6205 7.35295 23.8205 7.37295C24.4068 7.403 24.9943 7.403 25.5805 7.37295H27.7105L23.2805 2.97293ZM48.6006 19.0229L44.2606 14.6729C44.2606 15.9429 44.2606 17.253 44.2606 18.563C44.2878 18.6674 44.3417 18.7629 44.4171 18.8401C44.4925 18.9172 44.5868 18.9734 44.6905 19.003C46.0305 19.043 47.3506 19.0229 48.6006 19.0229V19.0229Z" fill="white"/>
<path d="M23.2805 2.9729L27.7406 7.4129H25.6106C25.0243 7.44296 24.4369 7.44296 23.8506 7.4129C23.6506 7.4129 23.3106 7.16291 23.3106 7.01291C23.2706 5.65291 23.2805 4.3129 23.2805 2.9729Z" fill="white"/>
<path d="M48.6006 19.0229C47.3506 19.0229 46.0306 19.0229 44.7206 19.0229C44.6168 18.9933 44.5226 18.9372 44.4471 18.86C44.3717 18.7828 44.3177 18.6873 44.2905 18.5829C44.2905 17.2729 44.2905 15.9629 44.2905 14.6929L48.6006 19.0229Z" fill="white"/>
<path d="M36.2705 41.4228H25.7805C25.5911 41.443 25.4 41.443 25.2106 41.4228C25.0311 41.3874 24.8695 41.2907 24.7534 41.1494C24.6373 41.008 24.5737 40.8308 24.5737 40.6478C24.5737 40.4649 24.6373 40.2877 24.7534 40.1463C24.8695 40.005 25.0311 39.9083 25.2106 39.8729C25.383 39.8474 25.5582 39.8474 25.7306 39.8729H46.9305C47.0869 39.858 47.2442 39.858 47.4005 39.8729C47.5923 39.8929 47.7697 39.9841 47.8975 40.1285C48.0252 40.2729 48.0941 40.4601 48.0906 40.6528C48.1045 40.8487 48.0411 41.0421 47.9139 41.1917C47.7868 41.3412 47.606 41.435 47.4105 41.4528C47.2208 41.468 47.0303 41.468 46.8406 41.4528L36.2705 41.4228Z" fill="white"/>
<path d="M36.3205 44.8629H46.9205C47.0768 44.8478 47.2342 44.8478 47.3905 44.8629C47.584 44.8855 47.7618 44.9806 47.888 45.129C48.0142 45.2775 48.0794 45.4683 48.0705 45.6629C48.0759 45.7588 48.0624 45.8548 48.0306 45.9455C47.9988 46.0361 47.9494 46.1196 47.8853 46.1911C47.8212 46.2627 47.7437 46.3208 47.6571 46.3623C47.5704 46.4038 47.4765 46.4278 47.3806 46.4329C47.1909 46.4479 47.0002 46.4479 46.8105 46.4329H25.8105C25.6208 46.4479 25.4303 46.4479 25.2406 46.4329C25.0477 46.4151 24.8695 46.3224 24.7442 46.1747C24.619 46.027 24.5566 45.8361 24.5705 45.6429C24.5621 45.4488 24.6293 45.2591 24.758 45.1136C24.8867 44.9682 25.067 44.8783 25.2606 44.8629C25.4135 44.8479 25.5676 44.8479 25.7205 44.8629H36.3205Z" fill="white"/>
<path d="M42.6905 36.363H38.3205C37.7305 36.363 37.3806 36.053 37.3706 35.563C37.3606 35.073 37.7206 34.7429 38.3706 34.7329H47.0605C47.2415 34.708 47.4259 34.7363 47.591 34.8144C47.7562 34.8926 47.8951 35.0172 47.9906 35.173C48.3106 35.733 47.9005 36.353 47.1805 36.363H42.7105H42.6905Z" fill="white"/>
<path d="M42.5606 26.173H37.9406C37.2406 26.173 36.7906 25.583 37.1106 25.053C37.1996 24.9244 37.3154 24.8167 37.4501 24.7373C37.5847 24.6579 37.7349 24.6087 37.8905 24.593C40.9905 24.593 44.0905 24.593 47.1805 24.593C47.2962 24.5747 47.4145 24.5816 47.5272 24.6134C47.6399 24.6451 47.7443 24.701 47.8334 24.777C47.9224 24.853 47.9939 24.9475 48.043 25.0539C48.092 25.1602 48.1174 25.2759 48.1174 25.393C48.1174 25.5101 48.092 25.6258 48.043 25.7321C47.9939 25.8385 47.9224 25.933 47.8334 26.009C47.7443 26.085 47.6399 26.1409 47.5272 26.1726C47.4145 26.2044 47.2962 26.2113 47.1805 26.193L42.5606 26.173Z" fill="white"/>
<path d="M35.7606 19.493H39.7606C40.4006 19.493 40.7606 19.783 40.7606 20.293C40.7606 20.803 40.4006 21.083 39.7606 21.083H31.6505C30.9505 21.083 30.5405 20.523 30.8005 19.953C30.8782 19.7963 31.0028 19.6678 31.157 19.5854C31.3111 19.5029 31.4871 19.4706 31.6605 19.493H35.7606Z" fill="white"/>
<path d="M44.5805 31.2629C43.7305 31.2629 42.8805 31.2629 42.0405 31.2629C41.4405 31.2629 41.1006 30.9629 41.0906 30.4729C41.0806 29.9829 41.4106 29.6529 42.0106 29.6529C43.7239 29.6529 45.4338 29.6529 47.1405 29.6529C47.257 29.6371 47.3757 29.6466 47.4883 29.6807C47.6008 29.7148 47.7046 29.7727 47.7928 29.8504C47.881 29.9282 47.9516 30.0241 47.9995 30.1315C48.0474 30.2389 48.0716 30.3553 48.0705 30.4729C48.0705 30.9529 47.7006 31.2629 47.1206 31.2629C46.2706 31.2729 45.4205 31.2629 44.5805 31.2629Z" fill="white"/>
<path d="M11.6805 9.44287H4.77051C4.5975 9.45792 4.42362 9.45792 4.25061 9.44287C4.05792 9.42024 3.88116 9.32479 3.75659 9.17605C3.63202 9.02731 3.56903 8.83655 3.58057 8.64288C3.57647 8.45843 3.64046 8.27894 3.76038 8.13873C3.88029 7.99852 4.04774 7.90742 4.23059 7.88287C4.4036 7.86782 4.57761 7.86782 4.75061 7.88287H18.5205C18.6737 7.87287 18.8274 7.87287 18.9806 7.88287C19.1831 7.89575 19.3724 7.98808 19.5072 8.13977C19.642 8.29145 19.7115 8.49022 19.7006 8.69287C19.6981 8.89291 19.619 9.08438 19.4794 9.22769C19.3398 9.371 19.1505 9.45521 18.9506 9.46289H11.6805V9.44287Z" fill="white"/>
<path d="M10.1206 34.8631H4.76059C4.58758 34.8781 4.41358 34.8781 4.24057 34.8631C4.05581 34.8479 3.88368 34.7629 3.75925 34.6255C3.63482 34.4881 3.56736 34.3084 3.57053 34.1231C3.55297 33.9306 3.60935 33.7387 3.72824 33.5864C3.84713 33.4341 4.01961 33.3328 4.21054 33.3031C4.34648 33.2831 4.48464 33.2831 4.62058 33.3031H15.9605C16.1727 33.3031 16.3762 33.3874 16.5262 33.5374C16.6762 33.6874 16.7606 33.8909 16.7606 34.1031C16.7606 34.3152 16.6762 34.5187 16.5262 34.6688C16.3762 34.8188 16.1727 34.9031 15.9605 34.9031H10.0905L10.1206 34.8631Z" fill="white"/>
<path d="M8.46057 28.1631H12.2606C12.9206 28.1631 13.2606 28.4731 13.2606 28.9731C13.2606 29.4731 12.8706 29.7831 12.2606 29.7931H4.6206C3.9506 29.7931 3.5706 29.4831 3.6206 28.9631C3.6706 28.4431 3.99053 28.1631 4.67053 28.1631H8.46057Z" fill="white"/>
<path d="M8.20056 14.5629H4.57056C3.94056 14.5629 3.57056 14.2629 3.57056 13.7629C3.57056 13.2629 3.94056 12.9729 4.57056 12.9629H11.7905C12.4005 12.9629 12.7905 13.2429 12.7905 13.7329C12.7905 14.2229 12.4605 14.5529 11.7905 14.5529L8.20056 14.5629Z" fill="white"/>
<path d="M5.52051 23.0831C5.90051 23.0831 6.28052 23.0831 6.66052 23.0831C6.77377 23.0705 6.8884 23.0819 6.99695 23.1166C7.10549 23.1512 7.2056 23.2084 7.29053 23.2844C7.37546 23.3604 7.44335 23.4534 7.48987 23.5574C7.53638 23.6615 7.56042 23.7741 7.56042 23.8881C7.56042 24.0021 7.53638 24.1147 7.48987 24.2188C7.44335 24.3228 7.37546 24.4158 7.29053 24.4918C7.2056 24.5678 7.10549 24.625 6.99695 24.6597C6.8884 24.6944 6.77377 24.7057 6.66052 24.6931C5.90052 24.6931 5.13061 24.6931 4.37061 24.6931C4.25736 24.7057 4.14272 24.6944 4.03418 24.6597C3.92564 24.625 3.82553 24.5678 3.7406 24.4918C3.65567 24.4158 3.58778 24.3228 3.54126 24.2188C3.49474 24.1147 3.4707 24.0021 3.4707 23.8881C3.4707 23.7741 3.49474 23.6615 3.54126 23.5574C3.58778 23.4534 3.65567 23.3604 3.7406 23.2844C3.82553 23.2084 3.92564 23.1512 4.03418 23.1166C4.14272 23.0819 4.25736 23.0705 4.37061 23.0831C4.76061 23.0631 5.14051 23.0831 5.52051 23.0831Z" fill="white"/>
<path d="M5.28046 19.6129C4.98732 19.6279 4.6936 19.6279 4.40045 19.6129C4.29242 19.617 4.18478 19.5993 4.08368 19.561C3.98258 19.5228 3.89011 19.4646 3.81183 19.39C3.73355 19.3155 3.67103 19.226 3.62787 19.1269C3.58471 19.0278 3.56175 18.9211 3.56049 18.813C3.55916 18.7084 3.57863 18.6046 3.61774 18.5076C3.65685 18.4106 3.71478 18.3223 3.78827 18.2479C3.86176 18.1734 3.94933 18.1144 4.04584 18.074C4.14234 18.0337 4.24594 18.0129 4.35053 18.0129C4.99053 18.0129 5.63045 18.0129 6.27045 18.0129C6.3742 18.0126 6.47695 18.0338 6.57208 18.0752C6.66722 18.1166 6.75269 18.1773 6.82318 18.2534C6.89367 18.3295 6.94767 18.4195 6.98163 18.5175C7.01559 18.6155 7.02875 18.7195 7.02045 18.8229C7.01914 18.9267 6.99752 19.0292 6.95661 19.1245C6.91569 19.2199 6.85633 19.3062 6.78205 19.3787C6.70776 19.4511 6.61998 19.5082 6.52362 19.5467C6.42727 19.5852 6.32427 19.6043 6.22052 19.6029C5.91052 19.6329 5.59046 19.6129 5.28046 19.6129Z" fill="white"/>
</svg>
