<?xml version="1.0" standalone="yes"?>
<svg xmlns="http://www.w3.org/2000/svg" width="512" height="512">
<path style="fill:none; stroke:none;" d="M0 0L0 232L1 232C1.12349 187.248 23.5778 139.061 49.8735 104C57.3777 93.9943 65.3873 83.3071 75 75.2137C81.1853 70.0061 89.0312 71.2085 92.6674 79.0038C96.6863 87.6195 83.2652 97.3521 78.4282 103C61.964 122.225 48.0028 144.348 38.811 168C16.3427 225.814 15.5848 292.945 41.3056 350C50.7472 370.944 62.7676 390.439 77.5903 408C82.2472 413.517 94.9696 422.815 93.3333 431C91.8552 438.393 83.2172 442.582 77 438.346C65.2681 430.354 55.9918 416.261 47.6296 405C22.326 370.923 1.11922 323.206 1 280L0 280L0 512L512 512L512 280L511 280C510.878 324.215 488.859 372.299 462.873 407C455.151 417.313 446.901 428.45 437 436.786C430.815 441.994 422.969 440.792 419.333 432.996C415.324 424.403 428.836 414.613 433.711 409C450.217 389.994 464.064 367.48 473.189 344C495.664 286.169 496.351 219.075 470.694 162C461.267 141.028 449.248 121.586 434.41 104C429.784 98.5178 417.055 89.0619 418.667 81C420.145 73.6067 428.783 69.418 435 73.6536C446.685 81.6139 456.037 95.7766 464.37 107C489.674 141.077 510.881 188.794 511 232L512 232L512 0L0 0z"/>
<path style="fill:#ffffff; stroke:none;" d="M80 71.6682C73.2582 73.5813 68.0955 80.9694 63.7184 86C51.5822 99.9478 40.612 114.772 31.6944 131C-5.5177 198.719 -10.7401 281.227 18.2006 353C28.6082 378.811 43.4625 403.166 61.9498 424C67.3743 430.113 76.1753 443.856 85.9992 439.987C93.1236 437.181 95.7704 429.326 91.5008 423C85.4327 414.009 76.8581 406.626 70.2353 398C58.0848 382.174 47.6605 364.449 40.0116 346C12.2247 278.98 17.9458 204.386 52.3086 141C62.9268 121.413 79.2703 107.122 91.5008 89C96.8049 81.1409 90.0245 68.8237 80 71.6682M427 71.6682C419.966 73.6682 416.049 81.5315 419.857 88C425.012 96.7562 433.819 104.067 440.196 112C449.459 123.524 456.729 136.111 463.861 149C511.019 234.22 491.861 343.227 428.169 414C422.224 420.606 410.236 441.825 430 440.681C437.185 440.266 443.164 431.968 447.421 427C459.765 412.593 471.148 397.664 480.306 381C519.737 309.243 522.101 223.76 489.576 149C479.709 126.322 465.198 105.662 449.13 87C444.153 81.2194 436.076 69.0878 427 71.6682M230 278C224.669 314.234 209.864 350.53 200.629 386C198.125 395.616 188.038 415.274 196.279 423.772C201.61 429.269 209.18 426.834 213.826 421.956C224.989 410.237 234.298 395.868 244.116 383C274.977 342.552 305.816 302.035 337.21 262C344.153 253.145 369.227 230.134 361.258 218.044C356.588 210.96 346.285 213 339 213L280 213C283.399 194.755 286.047 176.315 289.08 158C291.95 140.673 294.681 123.323 297.586 106C298.75 99.0607 300.64 90.253 292.957 86.179C279.66 79.1289 266.839 104.717 260.627 113C234.406 147.961 208.348 183.038 182.127 218L155.873 253C152.069 258.083 147.077 264.185 149.742 270.985C152.964 279.203 162.907 278 170 278L230 278M123.039 117.858C108.487 124.013 94.9982 148.709 87.6944 162C59.9228 212.539 56.1974 272.101 76.3194 326C84.0177 346.621 96.1201 366.82 111.089 383C116.614 388.972 123.6 398.665 132.985 393.821C139.543 390.436 140.242 382.674 136.347 377C121.946 356.019 105.507 339.744 96.6921 315C79.6825 267.25 83.8999 216.451 108.312 172C113.608 162.356 120.356 153.391 127.439 145C130.951 140.84 135.909 137.163 137.991 132C141.727 122.733 132.068 114.039 123.039 117.858M380.004 117.742C373.263 120.351 371.506 128.113 375.009 134C378.932 140.591 385.607 145.91 390.335 152C398.737 162.822 405.384 174.639 411.219 187C434.192 235.669 429.213 293.523 403.688 340C395.912 354.16 381.439 365.026 374.457 379C370.112 387.695 377.713 396.615 386.996 394.721C392.103 393.679 395.571 388.542 398.989 385C408.695 374.943 416.814 363.12 423.719 351C453.017 299.58 457.432 233.213 432.769 179C424.431 160.671 413.93 142.683 399.961 128C394.658 122.425 388.828 114.328 380.004 117.742z"/>
<path style="fill:#075aee; stroke:none;" d="M268 140L183 255L233 255C240.144 255 248.46 253.98 253.58 260.108C259.771 267.518 252.993 280.963 250.71 289C243.986 312.662 234.577 337.69 231 362C247.406 348.729 260.074 325.789 272.884 309C290.883 285.411 315.524 261.399 329 235L277 235C269.325 235 261.286 235.85 256.953 227.996C253.556 221.839 257.321 211.513 258.414 205C260.927 190.009 263.254 174.993 265.753 160C266.733 154.119 269.76 145.725 268 140M230 363L231 364L230 363z"/>
</svg>
