<svg width="43" height="51" viewBox="0 0 43 51" fill="none" xmlns="http://www.w3.org/2000/svg">
<path d="M0.0208081 25.1561V3.42614C-0.0307792 2.96927 0.0205577 2.50666 0.171077 2.07222C0.321596 1.63779 0.567469 1.24256 0.890651 0.915546C1.21383 0.588529 1.60613 0.338026 2.03875 0.182392C2.47138 0.0267575 2.93336 -0.0300611 3.3908 0.0161321H38.9208C39.3731 -0.0304187 39.8301 0.0240805 40.2587 0.175678C40.6874 0.327276 41.077 0.572175 41.3995 0.892719C41.7219 1.21326 41.9692 1.60145 42.1233 2.02919C42.2775 2.45694 42.3347 2.91359 42.2908 3.36614V47.0161C42.3349 47.4683 42.2778 47.9246 42.1236 48.352C41.9694 48.7793 41.722 49.167 41.3993 49.4868C41.0766 49.8066 40.6868 50.0505 40.2581 50.2009C39.8294 50.3513 39.3726 50.4043 38.9208 50.3561H3.3908C2.93295 50.4042 2.47016 50.3488 2.03665 50.1938C1.60314 50.0388 1.21001 49.7884 0.886409 49.4609C0.562802 49.1335 0.316976 48.7374 0.16714 48.3021C0.0173037 47.8668 -0.0326983 47.4034 0.0208081 46.9461V25.1561ZM2.02081 25.1561V46.9461C2.02081 48.0561 2.33079 48.3661 3.44079 48.3661H38.9608C40.0608 48.3661 40.3708 48.0561 40.3708 46.9461V3.39614C40.3708 2.28614 40.0608 1.97612 38.9508 1.97612H3.3908C2.2908 1.97612 1.9808 2.28614 1.9808 3.39614L2.02081 25.1561Z" fill="white"/>
<path d="M21.2408 37.736C22.4508 37.496 23.6608 37.286 24.8608 37.006C25.5608 36.836 26.1008 37.006 26.2808 37.506C26.3331 37.6457 26.3535 37.7953 26.3405 37.9438C26.3276 38.0924 26.2815 38.2362 26.2058 38.3646C26.13 38.4931 26.0265 38.603 25.9028 38.6863C25.7791 38.7696 25.6383 38.8242 25.4908 38.846C23.2007 39.6261 20.7451 39.7873 18.3727 39.3132C16.0002 38.8391 13.7952 37.7465 11.9808 36.146C7.45081 32.296 5.77081 27.296 7.30081 21.546C8.83081 15.796 12.8608 12.116 18.8208 10.996C20.7191 10.6702 22.6638 10.7323 24.5374 11.1787C26.411 11.625 28.1748 12.4463 29.7224 13.5929C31.2699 14.7396 32.5691 16.1878 33.5416 17.8503C34.5141 19.5128 35.1398 21.3551 35.3808 23.266C35.666 25.1916 35.5465 27.1555 35.03 29.0323C34.5134 30.9091 33.6112 32.6575 32.3808 34.166C32.2294 34.3688 32.0586 34.5563 31.8708 34.726C31.6927 34.8365 31.4844 34.8882 31.2753 34.8739C31.0662 34.8596 30.8669 34.7799 30.7056 34.6462C30.5442 34.5124 30.4289 34.3314 30.376 34.1286C30.3232 33.9258 30.3353 33.7115 30.4108 33.516C30.4786 33.4095 30.5556 33.3091 30.6408 33.216C32.4315 31.1106 33.47 28.4687 33.5925 25.7075C33.7149 22.9463 32.9143 20.2229 31.317 17.9672C29.7196 15.7116 27.4166 14.0521 24.7714 13.2508C22.1261 12.4494 19.2893 12.5518 16.7088 13.5419C14.1282 14.5319 11.9508 16.3531 10.5204 18.7181C9.08987 21.0831 8.48774 23.8571 8.80899 26.6023C9.13025 29.3476 10.3566 31.9076 12.2945 33.8784C14.2324 35.8492 16.7714 37.1185 19.5108 37.486C20.0708 37.566 20.6408 37.566 21.2108 37.606L21.2408 37.736Z" fill="white"/>
<path d="M25.3308 25.206C25.3288 26.0327 25.0817 26.8403 24.6208 27.5266C24.1598 28.2129 23.5057 28.7471 22.7412 29.0616C21.9766 29.3761 21.136 29.4569 20.3255 29.2937C19.5151 29.1305 18.7712 28.7306 18.1881 28.1446C17.6049 27.5586 17.2085 26.8129 17.0492 26.0016C16.8899 25.1904 16.9747 24.3502 17.2929 23.5871C17.6111 22.8241 18.1484 22.1726 18.8369 21.7149C19.5254 21.2572 20.3341 21.014 21.1608 21.016C21.7112 21.012 22.2569 21.1177 22.766 21.3271C23.2751 21.5365 23.7372 21.8453 24.1255 22.2355C24.5138 22.6256 24.8204 23.0893 25.0274 23.5993C25.2343 24.1094 25.3375 24.6556 25.3308 25.206V25.206ZM23.4208 25.206C23.4208 24.7562 23.2871 24.3165 23.0368 23.9428C22.7865 23.569 22.4308 23.2781 22.0148 23.1069C21.5989 22.9357 21.1414 22.8919 20.7006 22.9812C20.2597 23.0704 19.8553 23.2886 19.5386 23.6081C19.222 23.9275 19.0074 24.3339 18.922 24.7755C18.8367 25.2171 18.8845 25.6742 19.0594 26.0886C19.2343 26.503 19.5284 26.8562 19.9043 27.1032C20.2802 27.3502 20.721 27.4799 21.1708 27.476C21.7704 27.4629 22.3411 27.2162 22.7615 26.7885C23.1818 26.3607 23.4183 25.7857 23.4208 25.186V25.206Z" fill="white"/>
<path d="M30.9308 42.7359C30.4333 42.734 29.9475 42.5848 29.5346 42.3072C29.1218 42.0295 28.8003 41.6359 28.6108 41.1759C27.5008 38.8559 26.4208 36.5059 25.3408 34.1759C24.7708 32.9159 24.2108 31.6559 23.6808 30.3759C23.6269 30.112 23.6269 29.8399 23.6808 29.5759C23.9408 29.6459 24.2708 29.6359 24.4408 29.7959C27.2341 32.4626 30.0108 35.1493 32.7708 37.8559C33.1625 38.179 33.4575 38.6038 33.6234 39.0837C33.7892 39.5636 33.8195 40.08 33.7108 40.5759C33.55 41.1919 33.1903 41.7375 32.6877 42.1281C32.185 42.5187 31.5674 42.7323 30.9308 42.7359V42.7359ZM25.6108 32.0359C25.5826 32.1273 25.5625 32.221 25.5508 32.3159C26.8608 35.1559 28.1308 38.0059 29.4808 40.8159C29.6002 41.0403 29.7659 41.2367 29.967 41.392C30.1682 41.5473 30.4001 41.658 30.6473 41.7168C30.8946 41.7755 31.1515 41.781 31.401 41.7327C31.6505 41.6845 31.8869 41.5837 32.0944 41.437C32.3019 41.2903 32.4758 41.1011 32.6045 40.882C32.7332 40.6628 32.8138 40.4188 32.8409 40.1661C32.868 39.9135 32.841 39.6579 32.7617 39.4165C32.6824 39.175 32.5525 38.9533 32.3808 38.7659C30.1808 36.5159 27.9208 34.3259 25.6108 32.0359Z" fill="white"/>
<path d="M21.6808 5.05599H29.3508C29.5156 5.02028 29.6861 5.02028 29.8508 5.05599C30.0357 5.18053 30.2038 5.32842 30.3508 5.496C30.2149 5.67508 30.057 5.83632 29.8808 5.97598C29.7708 6.03598 29.5908 5.97598 29.4408 5.97598H13.8408C13.4708 5.97598 12.9908 6.07598 12.9808 5.51598C12.9708 4.95598 13.4408 5.02599 13.8108 5.02599H21.6808V5.05599Z" fill="white"/>
<path d="M7.29082 5.53598C7.29079 5.88492 7.18704 6.22599 6.99275 6.51584C6.79846 6.80569 6.52242 7.03125 6.19966 7.16385C5.87689 7.29645 5.52198 7.33011 5.18004 7.26056C4.8381 7.19101 4.52454 7.0214 4.27922 6.77325C4.03389 6.52511 3.86786 6.20963 3.80223 5.86691C3.73659 5.5242 3.77431 5.16974 3.9106 4.84851C4.04688 4.52728 4.27559 4.2538 4.56764 4.06284C4.85969 3.87187 5.20191 3.77204 5.55082 3.776C5.78178 3.77325 6.01093 3.81703 6.22459 3.90475C6.43826 3.99248 6.63206 4.12237 6.79445 4.28662C6.95683 4.45087 7.08447 4.64616 7.16975 4.86081C7.25503 5.07546 7.2962 5.30507 7.29082 5.53598V5.53598ZM6.36082 5.53598C6.35834 5.42565 6.33362 5.31698 6.28813 5.21643C6.24264 5.11589 6.17729 5.02557 6.09605 4.95087C6.01482 4.87617 5.91935 4.81863 5.81535 4.78171C5.71135 4.74479 5.60098 4.72924 5.49083 4.73599C5.38085 4.73965 5.27276 4.76569 5.17317 4.8125C5.07358 4.85931 4.98459 4.92592 4.9116 5.00827C4.83861 5.09062 4.78316 5.18696 4.74864 5.29144C4.71412 5.39593 4.70126 5.50637 4.71083 5.616C4.71197 5.72193 4.73468 5.82653 4.77757 5.9234C4.82046 6.02027 4.88261 6.10736 4.96028 6.17941C5.03794 6.25146 5.12948 6.30695 5.22929 6.34247C5.3291 6.37798 5.43509 6.39278 5.54081 6.38599C5.65418 6.38781 5.76666 6.36583 5.87098 6.32144C5.97531 6.27705 6.06917 6.21124 6.14647 6.1283C6.22376 6.04535 6.28279 5.9471 6.31972 5.8399C6.35664 5.73271 6.37064 5.61893 6.36082 5.50598V5.53598Z" fill="white"/>
<path d="M36.7708 7.2861C36.4215 7.28605 36.08 7.18206 35.79 6.98731C35.4999 6.79256 35.2744 6.51589 35.1421 6.19254C35.0098 5.86919 34.9768 5.51377 35.0472 5.17157C35.1175 4.82937 35.2881 4.51587 35.5373 4.27097C35.7865 4.02606 36.1028 3.86084 36.4462 3.79636C36.7896 3.73187 37.1444 3.77102 37.4654 3.90885C37.7864 4.04667 38.0592 4.27693 38.2489 4.57028C38.4386 4.86363 38.5368 5.20681 38.5308 5.55612C38.5309 5.78586 38.4851 6.01329 38.3963 6.22516C38.3075 6.43703 38.1774 6.62909 38.0136 6.79013C37.8497 6.95118 37.6555 7.07799 37.4421 7.16315C37.2287 7.2483 37.0005 7.29009 36.7708 7.2861V7.2861ZM35.9508 5.48612C35.9411 5.59691 35.9546 5.70852 35.9904 5.81381C36.0262 5.9191 36.0836 6.01576 36.1589 6.09763C36.2342 6.17949 36.3257 6.24477 36.4276 6.28928C36.5295 6.33379 36.6396 6.35654 36.7508 6.35611C36.8565 6.3657 36.963 6.35362 37.0639 6.32062C37.1647 6.28762 37.2578 6.23439 37.3373 6.16419C37.4169 6.09398 37.4813 6.00828 37.5266 5.91232C37.5719 5.81637 37.5972 5.71216 37.6008 5.60611C37.6132 5.49652 37.6032 5.38555 37.5712 5.28C37.5392 5.17445 37.486 5.07655 37.4148 4.99228C37.3437 4.90801 37.2561 4.83916 37.1574 4.78995C37.0587 4.74074 36.9509 4.71222 36.8408 4.70612C36.7307 4.69657 36.6198 4.70939 36.5147 4.74381C36.4097 4.77822 36.3127 4.83351 36.2295 4.90637C36.1464 4.97923 36.0788 5.06816 36.031 5.16779C35.9831 5.26742 35.9558 5.37568 35.9508 5.48612V5.48612Z" fill="white"/>
<path d="M7.29079 44.8161C7.29674 45.165 7.19884 45.5078 7.00954 45.8009C6.82024 46.0941 6.5481 46.3243 6.22765 46.4624C5.90721 46.6005 5.55294 46.6403 5.20986 46.5766C4.86679 46.5129 4.5504 46.3487 4.30087 46.1048C4.05133 45.8609 3.87991 45.5483 3.8084 45.2068C3.7369 44.8652 3.76854 44.5102 3.89928 44.1867C4.03003 43.8631 4.254 43.5858 4.54272 43.3898C4.83144 43.1939 5.17188 43.0882 5.52081 43.0862C5.75134 43.0808 5.98059 43.1216 6.19512 43.2062C6.40965 43.2907 6.60514 43.4173 6.77004 43.5785C6.93495 43.7397 7.06596 43.9322 7.15539 44.1447C7.24482 44.3573 7.29086 44.5855 7.29079 44.8161V44.8161ZM6.3608 44.8662C6.36481 44.7555 6.34665 44.6452 6.30737 44.5416C6.26808 44.4381 6.20846 44.3435 6.13204 44.2633C6.05563 44.1832 5.96396 44.1192 5.86242 44.075C5.76088 44.0308 5.65152 44.0074 5.54079 44.0061C5.43018 44.0033 5.32019 44.0232 5.21755 44.0646C5.11492 44.1059 5.02183 44.1679 4.94405 44.2466C4.86628 44.3253 4.80546 44.4191 4.76534 44.5222C4.72523 44.6253 4.70667 44.7356 4.71081 44.8461C4.70538 44.9519 4.72153 45.0576 4.75829 45.1569C4.79505 45.2562 4.85164 45.347 4.92461 45.4237C4.99759 45.5005 5.08542 45.5615 5.18276 45.6032C5.2801 45.6449 5.38492 45.6663 5.49081 45.6661C5.60128 45.6744 5.71226 45.6598 5.81689 45.6234C5.92152 45.5871 6.01757 45.5296 6.09911 45.4546C6.18066 45.3796 6.24594 45.2887 6.29095 45.1875C6.33596 45.0863 6.35974 44.9769 6.3608 44.8662V44.8662Z" fill="white"/>
<path d="M36.7908 46.5961C36.4415 46.6 36.0988 46.4999 35.8066 46.3085C35.5143 46.1171 35.2856 45.8431 35.1496 45.5213C35.0136 45.1994 34.9765 44.8444 35.043 44.5014C35.1094 44.1584 35.2764 43.843 35.5228 43.5952C35.7691 43.3475 36.0836 43.1787 36.4262 43.1102C36.7688 43.0418 37.124 43.0769 37.4466 43.2111C37.7692 43.3452 38.0446 43.5723 38.2376 43.8635C38.4307 44.1547 38.5328 44.4967 38.5308 44.8461C38.5335 45.0758 38.4903 45.3037 38.404 45.5166C38.3176 45.7295 38.1897 45.923 38.0277 46.0859C37.8657 46.2488 37.6729 46.3778 37.4606 46.4654C37.2482 46.553 37.0205 46.5974 36.7908 46.5961V46.5961ZM36.7908 44.0161C36.6807 44.0119 36.5709 44.0304 36.4683 44.0707C36.3657 44.1109 36.2725 44.1719 36.1945 44.2498C36.1166 44.3277 36.0556 44.4209 36.0154 44.5235C35.9752 44.6261 35.9566 44.7359 35.9608 44.8461C35.9568 44.9523 35.9742 45.0583 36.0121 45.1576C36.05 45.2569 36.1075 45.3476 36.1813 45.4242C36.2551 45.5007 36.3435 45.5616 36.4414 45.6032C36.5393 45.6448 36.6445 45.6661 36.7508 45.6661C36.8668 45.6788 36.9841 45.6671 37.0952 45.6314C37.2063 45.5958 37.3087 45.5372 37.3956 45.4593C37.4825 45.3815 37.552 45.2862 37.5996 45.1796C37.6472 45.0731 37.6718 44.9578 37.6718 44.8411C37.6718 44.7244 37.6472 44.609 37.5996 44.5025C37.552 44.396 37.4825 44.3007 37.3956 44.2229C37.3087 44.145 37.2063 44.0863 37.0952 44.0507C36.9841 44.0151 36.8668 44.0033 36.7508 44.0161H36.7908Z" fill="white"/>
<path d="M25.6108 32.0361C27.9208 34.3261 30.1808 36.5161 32.3808 38.7661C32.5525 38.9535 32.6824 39.1753 32.7617 39.4167C32.841 39.6581 32.868 39.9137 32.8409 40.1664C32.8138 40.419 32.7332 40.6631 32.6045 40.8822C32.4758 41.1013 32.3019 41.2905 32.0944 41.4372C31.8869 41.5839 31.6505 41.6847 31.401 41.7329C31.1515 41.7812 30.8946 41.7758 30.6473 41.717C30.4001 41.6583 30.1682 41.5475 29.967 41.3922C29.7659 41.2369 29.6002 41.0405 29.4808 40.8161C28.1308 38.0061 26.8608 35.1561 25.5508 32.3161C25.5625 32.2212 25.5826 32.1275 25.6108 32.0361V32.0361Z" fill="white"/>
</svg>
