<?xml version="1.0" standalone="yes"?>
<svg xmlns="http://www.w3.org/2000/svg" width="512" height="512">
<path style="fill:none; stroke:none;" d="M0 0L0 512L512 512L512 0L0 0z"/>
<path style="fill:#ffffff; stroke:none;" d="M400 57C300.59 -10.0626 171.102 -1.11169 83 81.0895C64.6112 98.2466 50.0005 119.284 37.5787 141C23.4957 165.62 14.3984 193.986 10.2716 222C3.87439 265.426 8.64957 308.833 24.0502 350C28.6736 362.359 38.1341 396.876 54.8079 382.096C60.1841 377.33 47.375 359.535 44.7801 354C32.5096 327.826 25 296.943 25 268C25 172.965 75.412 87.0289 164 47.8619C218.105 23.9405 281.73 22.5814 337 43.4251C350.108 48.3684 362.98 54.6033 375 61.8002C378.473 63.8796 385.725 70.6207 389.91 69.5424C394.383 68.39 397.929 60.7162 400 57M428.001 52.6266C416.612 54.4656 417.142 72.5276 410.671 79.9568C403.892 87.7384 394.123 86.9798 386.094 92.0857C382.127 94.6084 380.154 99.4269 381.515 103.996C384.638 114.486 402.513 113.873 409.815 121.185C417.147 128.528 416.969 151.639 430.999 149.373C442.358 147.539 441.733 129.468 448.329 122.093C455.275 114.329 465.004 115.317 472.895 109.995C476.734 107.405 478.729 102.51 477.343 98.0146C474.113 87.5302 456.403 88.3436 449.185 80.8951C442.117 73.6006 441.588 50.4325 428.001 52.6266z"/>
<path style="fill:#075aee; stroke:none;" d="M429 83C424.927 90.3073 419.554 96.237 412 100L412 102C419.505 105.738 424.886 111.779 429 119L430 119C434.073 111.693 439.446 105.763 447 102L447 100L429 83z"/>
<path style="fill:#ffffff; stroke:none;" d="M115 465C199.753 522.176 314.998 523.603 399 463.573C430.841 440.818 455.66 411.859 474.999 378C488.697 354.019 497.356 326.207 501.576 299C508.042 257.305 504.377 213.652 489.424 174C485.057 162.422 476.385 127.506 460.164 141.789C453.828 147.367 467.201 165.561 469.799 172C481.937 202.078 487 232.715 487 265C487 354.431 429.286 433.794 350 471.219C295.634 496.882 228.66 497.65 173 475.797C161.361 471.228 149.756 465.794 139 459.396C135.459 457.289 129.436 451.449 125.093 452.022C120.531 452.624 116.572 461.262 115 465M181 151.465C160.15 155.225 159 173.726 159 191C159 197.539 158.3 204.545 159.465 211C160.236 215.277 163.603 219.772 163.603 224C163.603 228.549 159.974 233.326 159.3 238C157.906 247.672 158.954 258.234 159.001 268C159.034 274.796 164.424 282.932 163.511 289C160.84 306.744 151.901 333.168 163.8 349.996C173.628 363.895 192.156 361 207 361L290 361C303.843 361 319.442 362.985 333 359.985C352.526 355.663 353 337.227 353 321C353 314.047 353.565 306.85 352.192 300C351.41 296.096 348.397 291.889 348.397 288C348.397 283.223 352.062 277.976 352.711 273C353.934 263.607 353.109 253.467 352.996 244C352.916 237.262 347.58 229.04 348.489 223C351.163 205.236 360.084 178.811 348.2 162.004C338.31 148.017 319.917 151 305 151L223 151C209.493 151 194.301 149.065 181 151.465z"/>
<path style="fill:#075aee; stroke:none;" d="M180.148 170.028C176.627 172.113 177.007 176.46 177 180C176.985 187.145 173.234 211.237 181.059 214.397C190.183 218.082 206.174 215 216 215L296 215C304.323 215 326.181 218.874 332.682 213.397C335.612 210.928 334.998 206.414 335 203C335.003 195.957 338.696 172.735 330.941 169.603C322.06 166.017 306.56 169 297 169L217 169C207.726 169 188.179 165.273 180.148 170.028z"/>
<path style="fill:#ffffff; stroke:none;" d="M184.603 184.028C174.976 191.653 189.052 208.165 199.397 199.972C209.024 192.347 194.948 175.835 184.603 184.028M256.603 184.028C253.325 186.624 253.78 199.385 258.148 200.682C272.827 205.04 294.646 201 310 201C314.32 201 323.852 202.779 327.397 199.972C330.675 197.376 330.22 184.615 325.852 183.318C311.173 178.96 289.354 183 274 183C269.68 183 260.148 181.221 256.603 184.028z"/>
<path style="fill:#075aee; stroke:none;" d="M180.148 234.028C176.627 236.113 177.007 240.46 177 244C176.985 251.145 173.234 275.237 181.059 278.397C190.183 282.082 206.174 279 216 279L296 279C304.323 279 326.181 282.874 332.682 277.397C335.612 274.928 334.998 270.414 335 267C335.003 259.957 338.696 236.735 330.941 233.603C322.06 230.017 306.56 233 297 233L217 233C207.726 233 188.179 229.273 180.148 234.028z"/>
<path style="fill:#ffffff; stroke:none;" d="M184.603 248.028C174.976 255.653 189.052 272.165 199.397 263.972C209.024 256.347 194.948 239.835 184.603 248.028M256.603 248.028C253.325 250.624 253.78 263.385 258.148 264.682C272.827 269.04 294.646 265 310 265C314.32 265 323.852 266.779 327.397 263.972C330.675 261.376 330.22 248.615 325.852 247.318C311.173 242.96 289.354 247 274 247C269.68 247 260.148 245.221 256.603 248.028z"/>
<path style="fill:#075aee; stroke:none;" d="M180.148 298.028C176.627 300.113 177.007 304.46 177 308C176.985 315.145 173.234 339.237 181.059 342.397C190.183 346.082 206.174 343 216 343L296 343C304.323 343 326.181 346.874 332.682 341.397C335.612 338.928 334.998 334.414 335 331C335.003 323.957 338.696 300.735 330.941 297.603C322.06 294.017 306.56 297 297 297L217 297C207.725 297 188.179 293.273 180.148 298.028z"/>
<path style="fill:#ffffff; stroke:none;" d="M184.603 312.028C174.976 319.653 189.052 336.165 199.397 327.972C209.024 320.347 194.948 303.835 184.603 312.028M256.603 312.028C253.325 314.624 253.78 327.385 258.148 328.682C272.827 333.04 294.646 329 310 329C314.32 329 323.852 330.779 327.397 327.972C330.675 325.376 330.22 312.615 325.852 311.318C311.173 306.96 289.354 311 274 311C269.68 311 260.148 309.221 256.603 312.028M80.0039 377.746C70.5278 381.287 70.8559 396.626 65.0725 403.907C58.1421 412.631 46.8314 411.01 39.1088 417.43C32.5952 422.845 34.8417 432.031 42.0039 435.581C48.7022 438.901 56.0354 439.214 61.9599 444.329C70.065 451.328 72.1116 478.993 86.9961 473.258C96.2867 469.678 95.7302 455.139 101.39 448.004C108.694 438.797 119.797 440.428 127.891 433.581C134.307 428.154 132.1 419.376 124.995 415.919C118.415 412.717 110.956 412.209 105.04 407.468C96.7196 400.799 94.776 372.227 80.0039 377.746z"/>
<path style="fill:#075aee; stroke:none;" d="M83 408L66 426C72.9067 430.966 79.1474 436.266 83 444L84 444C87.7006 436.223 93.9949 430.785 101 426L83 408z"/>
</svg>
