<svg id="svg" version="1.1" width="1410" height="1008" xmlns="http://www.w3.org/2000/svg"><path d="M440.060 96.773 C 423.560 102.972,408.251 109.547,406.040 111.382 C 403.828 113.217,400.000 121.517,397.533 129.826 C 395.065 138.134,388.986 152.127,384.023 160.921 C 375.945 175.234,375.000 179.592,375.000 202.522 C 375.000 227.951,374.918 228.225,363.604 240.817 L 352.208 253.500 353.854 286.376 C 355.457 318.384,355.698 319.298,363.000 321.044 L 370.500 322.838 369.415 356.168 L 368.329 389.499 376.915 393.919 C 389.073 400.178,481.238 436.271,501.000 442.512 C 510.075 445.378,527.271 451.729,539.214 456.626 C 558.336 464.467,560.574 466.191,557.964 471.068 C 551.253 483.606,554.441 495.426,567.985 508.227 C 580.819 520.357,580.966 520.727,580.624 540.000 C 580.433 550.725,578.471 564.757,576.264 571.182 C 571.452 585.185,573.413 610.295,580.369 623.746 C 583.544 629.886,584.597 636.600,583.392 643.022 L 581.543 652.876 545.022 647.678 C 524.935 644.819,497.700 640.925,484.500 639.025 C 435.483 631.968,396.998 623.392,379.786 615.691 C 364.042 608.646,360.431 605.251,347.317 585.162 C 339.202 572.730,331.834 558.919,330.944 554.471 C 328.890 544.198,326.181 543.299,306.000 546.195 C 296.925 547.497,268.575 548.773,243.000 549.031 C 198.151 549.482,125.058 554.905,121.980 558.008 C 119.623 560.384,119.398 684.529,121.543 799.500 C 123.064 881.030,124.428 905.949,127.645 910.982 C 135.604 923.437,148.875 925.045,224.883 922.765 C 263.722 921.600,300.225 919.659,306.000 918.451 C 315.745 916.412,317.705 913.900,333.275 883.484 C 342.502 865.460,355.106 844.902,361.284 837.800 C 381.061 815.065,380.771 815.122,469.266 816.762 C 546.850 818.200,604.956 823.955,620.445 831.734 C 624.265 833.653,632.148 843.730,637.963 854.129 C 652.829 880.711,655.391 882.009,692.918 881.954 C 710.288 881.929,725.850 880.916,727.500 879.704 C 729.150 878.492,734.295 869.539,738.934 859.809 C 749.580 837.477,760.703 822.825,771.086 817.455 C 775.544 815.150,781.580 808.230,784.499 802.078 C 789.333 791.891,789.516 786.848,786.546 745.695 C 783.531 703.907,783.719 699.256,789.044 684.000 C 795.637 665.113,796.478 653.678,791.631 648.831 C 789.139 646.339,789.920 643.134,794.631 636.518 C 799.779 629.289,801.000 623.205,801.000 604.787 C 801.000 585.717,802.017 580.983,807.232 575.768 C 811.151 571.849,815.327 570.287,818.482 571.560 C 821.242 572.673,830.250 575.611,838.500 578.089 C 853.792 582.682,919.669 607.349,946.122 618.386 C 959.975 624.166,963.047 624.308,1004.622 621.095 C 1028.755 619.230,1058.343 616.420,1070.373 614.852 C 1082.402 613.283,1102.205 612.000,1114.377 612.000 C 1138.697 612.000,1146.000 610.290,1146.000 604.594 C 1146.000 600.307,1178.799 550.611,1212.390 504.000 C 1224.876 486.675,1237.259 469.119,1239.908 464.987 C 1242.557 460.855,1253.423 427.780,1264.056 391.487 C 1292.102 295.752,1292.359 294.782,1290.343 291.919 C 1285.485 285.019,1247.116 255.000,1243.155 255.000 C 1240.677 255.000,1135.792 227.226,1010.075 193.280 C 884.359 159.333,746.665 122.176,704.088 110.708 L 626.676 89.856 548.368 87.678 L 470.060 85.500 440.060 96.773 M661.500 154.483 C 762.150 183.079,893.100 220.248,952.500 237.080 C 1011.900 253.912,1062.349 268.686,1064.608 269.912 C 1067.463 271.460,1057.616 280.600,1032.324 299.876 C 999.975 324.531,994.294 330.273,981.199 351.552 C 973.096 364.719,962.784 384.156,958.283 394.746 C 953.782 405.336,948.825 414.000,947.267 414.000 C 944.588 414.000,794.720 366.797,633.000 315.018 C 592.575 302.075,531.150 282.517,496.500 271.556 C 461.850 260.595,423.021 248.219,410.214 244.055 L 386.927 236.483 387.391 208.992 C 387.809 184.229,388.854 179.531,397.919 161.667 C 403.455 150.758,408.852 137.489,409.914 132.178 C 410.976 126.868,414.021 121.164,416.681 119.503 C 429.579 111.448,464.219 99.646,471.000 100.995 C 475.125 101.817,560.850 125.886,661.500 154.483 M644.173 107.755 C 661.953 112.608,704.175 124.038,738.000 133.155 C 1001.720 204.232,1167.583 249.058,1179.000 252.340 L 1192.500 256.221 1174.500 258.285 C 1164.600 259.420,1140.050 260.495,1119.944 260.674 L 1083.389 261.000 888.944 205.742 C 782.000 175.351,658.050 140.229,613.500 127.695 C 568.950 115.161,529.800 103.721,526.500 102.273 C 522.683 100.597,537.116 99.510,566.173 99.285 C 608.015 98.960,614.557 99.670,644.173 107.755 M561.000 305.611 C 654.225 335.204,776.400 373.909,832.500 391.621 C 888.600 409.333,935.378 424.652,936.452 425.662 C 937.525 426.673,937.190 434.925,935.707 444.000 C 934.224 453.075,931.996 470.164,930.756 481.975 L 928.500 503.450 864.000 480.967 C 828.525 468.601,763.725 445.888,720.000 430.493 C 540.467 367.283,381.998 312.214,374.250 310.342 C 366.047 308.361,366.000 308.202,366.000 282.661 C 366.000 252.495,370.077 244.684,383.496 249.144 C 387.898 250.607,467.775 276.017,561.000 305.611 M1262.317 282.750 C 1275.186 293.326,1277.570 296.779,1276.300 303.000 C 1273.440 317.006,1238.733 433.428,1233.372 447.000 C 1228.622 459.025,1194.004 511.004,1192.048 509.048 C 1191.621 508.621,1193.887 498.198,1197.083 485.886 C 1204.328 457.982,1226.136 346.336,1228.773 323.653 C 1230.105 312.191,1229.619 306.118,1227.250 304.655 C 1225.336 303.472,1187.482 302.124,1143.130 301.659 L 1062.490 300.815 1047.561 316.158 C 1031.930 332.220,983.842 393.085,965.940 419.462 C 960.198 427.923,954.636 434.880,953.581 434.923 C 950.771 435.036,989.649 360.526,999.579 346.768 C 1004.236 340.315,1013.098 330.782,1019.273 325.582 C 1031.311 315.445,1075.562 281.915,1083.000 277.295 C 1087.895 274.255,1138.140 271.478,1204.651 270.574 L 1246.803 270.000 1262.317 282.750 M1127.747 319.154 C 1135.757 325.465,1151.663 353.189,1158.262 372.340 C 1166.845 397.250,1167.586 447.927,1159.787 476.744 C 1138.545 555.242,1078.574 601.331,1026.709 579.019 C 990.502 563.443,963.000 513.315,963.000 462.897 L 963.000 444.055 998.734 396.777 C 1018.387 370.775,1042.044 341.152,1051.305 330.949 L 1068.142 312.399 1095.821 314.103 C 1111.045 315.041,1125.411 317.314,1127.747 319.154 M1196.488 314.967 L 1218.477 315.000 1216.834 323.250 C 1215.930 327.788,1211.618 351.075,1207.251 375.000 C 1202.884 398.925,1195.277 436.725,1190.345 459.000 C 1185.414 481.275,1179.709 507.600,1177.667 517.500 C 1174.948 530.684,1169.088 542.896,1155.763 563.144 C 1145.757 578.348,1137.105 592.108,1136.535 593.722 C 1135.966 595.336,1119.300 598.148,1099.500 599.969 C 1079.700 601.791,1051.350 604.447,1036.500 605.872 C 1021.650 607.298,999.375 609.409,987.000 610.565 L 964.500 612.667 951.472 586.026 L 938.444 559.385 941.722 521.029 C 943.525 499.933,945.000 479.372,945.000 475.337 C 945.000 471.301,946.350 468.000,948.000 468.000 C 949.650 468.000,951.000 471.804,951.000 476.453 C 951.000 481.102,953.499 494.423,956.553 506.056 C 979.713 594.270,1060.542 624.948,1121.354 568.605 C 1182.706 511.762,1197.416 397.107,1152.025 329.545 C 1144.192 317.884,1143.805 316.269,1148.381 314.322 C 1151.196 313.124,1158.225 312.772,1164.000 313.539 C 1169.775 314.306,1184.395 314.949,1196.488 314.967 M489.331 363.241 C 546.074 383.173,616.800 407.947,646.500 418.294 C 676.200 428.641,752.206 455.195,815.402 477.303 L 930.304 517.500 928.034 532.500 C 924.639 554.933,925.441 562.173,932.907 576.479 C 936.645 583.640,940.826 592.444,942.199 596.043 L 944.694 602.586 929.097 597.967 C 920.519 595.427,910.125 591.655,906.000 589.585 C 901.875 587.515,880.950 580.062,859.500 573.023 C 838.050 565.983,813.750 557.164,805.500 553.424 C 797.250 549.684,747.975 529.571,696.000 508.729 C 644.025 487.887,589.350 465.344,574.500 458.634 C 559.650 451.923,529.275 439.868,507.000 431.844 C 458.912 414.521,387.095 385.295,383.305 381.505 C 381.116 379.316,383.216 327.000,385.493 327.000 C 385.861 327.000,432.588 343.308,489.331 363.241 M627.022 493.851 C 657.535 506.419,709.188 527.581,741.807 540.878 L 801.114 565.053 793.030 573.491 C 785.756 581.083,783.421 581.786,769.723 580.510 C 761.350 579.730,741.175 578.257,724.888 577.238 L 695.276 575.386 690.676 563.675 C 685.675 550.944,686.888 551.515,640.736 540.184 C 619.426 534.952,615.902 534.796,606.619 538.675 C 591.649 544.930,590.088 544.300,592.233 532.870 C 594.788 519.249,589.960 507.833,579.019 501.626 C 568.802 495.829,565.620 488.908,568.286 478.283 C 569.292 474.278,570.436 471.000,570.830 471.000 C 571.223 471.000,596.510 481.283,627.022 493.851 M637.961 556.526 C 649.628 564.171,656.976 578.892,656.989 594.646 C 656.998 606.199,655.294 610.734,647.689 619.396 C 638.849 629.464,637.406 630.000,619.145 630.000 C 600.702 630.000,599.671 629.603,594.042 620.348 C 580.775 598.532,583.708 570.669,600.784 556.300 C 611.234 547.508,624.318 547.587,637.961 556.526 M330.909 581.250 L 344.715 604.500 333.607 606.358 C 327.498 607.380,290.517 609.095,251.426 610.168 L 180.352 612.120 172.570 602.310 C 168.291 596.915,161.477 586.916,157.428 580.091 L 150.067 567.683 167.284 565.412 C 181.670 563.514,224.793 561.321,303.302 558.497 L 317.103 558.000 330.909 581.250 M676.636 561.994 C 676.718 562.272,678.408 566.276,680.393 570.891 C 690.088 593.445,680.760 630.550,664.917 632.449 C 655.368 633.594,655.319 633.192,663.346 619.587 C 671.060 606.513,671.697 585.262,664.865 568.912 L 660.038 557.359 668.263 559.423 C 672.787 560.559,676.555 561.715,676.636 561.994 M612.687 566.008 C 607.022 568.287,600.000 583.473,600.000 593.446 C 600.000 620.933,633.106 626.838,643.794 601.259 C 652.743 579.840,633.239 557.739,612.687 566.008 M148.027 589.467 C 162.409 613.625,172.912 623.985,194.907 635.708 C 225.993 652.277,298.621 666.109,400.500 674.864 C 438.450 678.125,494.475 684.189,525.000 688.339 C 555.525 692.489,586.575 696.588,594.000 697.448 C 601.425 698.308,624.482 701.066,645.237 703.577 C 671.105 706.707,696.688 707.634,726.573 706.524 L 770.171 704.905 772.109 719.044 C 773.175 726.821,774.910 746.351,775.965 762.445 C 777.537 786.439,777.024 793.016,773.115 798.982 C 768.781 805.597,767.174 806.031,755.424 803.760 C 748.316 802.386,716.102 801.203,683.837 801.131 L 625.175 801.000 610.680 791.808 C 600.640 785.441,595.225 783.575,593.063 785.737 C 588.744 790.056,597.591 799.298,613.344 806.924 C 624.097 812.130,631.880 813.003,667.697 813.021 C 714.381 813.045,750.521 815.730,748.486 819.023 C 747.748 820.217,723.824 822.154,695.322 823.328 C 652.644 825.086,641.118 824.655,630.000 820.889 C 615.051 815.824,591.375 811.735,550.223 807.113 C 512.874 802.917,379.892 802.697,345.000 806.774 C 245.795 818.363,212.088 827.312,188.811 848.239 C 170.440 864.757,165.788 872.339,172.457 874.898 C 175.542 876.083,182.680 871.499,193.109 861.635 C 206.052 849.394,213.504 845.160,232.773 839.098 C 254.809 832.166,295.243 825.154,342.000 820.157 L 361.500 818.073 350.039 830.779 C 343.735 837.767,331.874 857.213,323.680 873.992 L 308.781 904.500 293.141 906.430 C 284.538 907.492,248.475 909.363,213.000 910.588 C 152.301 912.684,148.119 912.482,142.035 907.157 C 135.644 901.565,135.547 899.887,133.537 760.567 L 131.504 619.634 144.502 633.454 C 151.651 641.055,163.238 650.165,170.250 653.698 C 177.263 657.231,183.165 661.782,183.366 663.811 C 183.567 665.840,184.580 686.400,185.616 709.500 C 187.163 743.996,188.304 751.500,192.000 751.500 C 195.701 751.500,196.651 745.145,197.350 715.707 C 197.817 696.020,196.763 672.994,195.008 664.536 C 191.966 649.884,191.045 648.782,175.485 641.150 C 163.003 635.028,156.563 629.237,148.153 616.571 C 142.102 607.457,135.992 600.000,134.575 600.000 C 133.159 600.000,132.000 593.250,132.000 585.000 C 132.000 576.750,133.013 570.024,134.250 570.052 C 135.488 570.081,141.687 578.818,148.027 589.467 M772.962 592.789 L 788.424 594.360 789.533 608.302 C 790.394 619.118,789.281 623.767,784.571 629.037 C 778.617 635.701,777.624 635.795,732.905 633.966 L 687.311 632.101 691.655 623.699 C 694.045 619.079,696.000 610.056,696.000 603.649 C 696.000 597.242,696.960 591.040,698.134 589.866 C 700.158 587.842,739.348 589.373,772.962 592.789 M366.556 624.283 C 384.783 633.582,428.225 643.774,480.340 650.977 C 505.728 654.486,537.947 659.190,551.938 661.431 C 565.929 663.671,578.275 664.948,579.373 664.269 C 581.872 662.725,585.000 670.571,585.000 678.381 C 585.000 683.364,583.497 684.019,575.250 682.629 C 532.740 675.466,464.219 667.356,409.500 663.011 C 351.709 658.422,323.228 654.840,276.000 646.222 C 215.211 635.129,185.544 624.443,213.150 623.585 C 220.493 623.357,248.775 622.253,276.000 621.131 C 303.225 620.010,331.966 618.847,339.870 618.546 C 349.424 618.183,358.366 620.105,366.556 624.283 M707.374 646.820 C 757.221 648.203,775.270 649.699,778.264 652.692 C 783.048 657.477,779.389 682.897,772.995 689.291 C 770.021 692.265,755.123 693.205,711.868 693.147 C 680.411 693.105,652.679 692.305,650.241 691.369 C 647.804 690.434,634.732 688.731,621.193 687.584 L 596.577 685.500 595.495 667.629 C 594.900 657.800,594.874 649.025,595.436 648.129 C 597.176 645.356,637.618 644.883,707.374 646.820 M208.028 667.647 C 206.035 672.841,211.961 812.961,214.271 815.271 C 215.080 816.080,217.972 815.885,220.699 814.839 C 225.008 813.185,225.449 808.974,224.065 782.664 C 222.494 752.791,222.559 752.410,228.987 753.811 C 289.677 767.038,413.476 789.000,427.346 789.000 C 435.355 789.000,438.305 781.020,431.250 778.440 C 429.188 777.686,391.050 770.968,346.500 763.511 C 301.950 756.055,255.876 747.731,244.113 745.014 L 222.726 740.074 220.889 724.787 C 219.879 716.379,219.040 701.173,219.026 690.995 C 218.998 671.308,217.087 663.000,212.585 663.000 C 211.060 663.000,209.009 665.091,208.028 667.647 M734.954 836.250 C 734.789 844.327,728.065 846.172,692.160 847.992 C 663.477 849.446,653.093 848.982,649.609 846.090 C 639.139 837.401,643.989 836.526,713.250 834.604 C 725.213 834.272,734.979 835.013,734.954 836.250 M722.436 863.250 C 721.579 867.727,717.305 868.628,693.414 869.367 C 673.857 869.971,663.981 869.065,660.711 866.367 C 656.789 863.130,660.379 862.226,682.763 860.817 C 697.468 859.891,712.636 858.879,716.470 858.567 C 721.642 858.146,723.181 859.354,722.436 863.250 " stroke="white" stroke-width="15" fill="white"/></svg>