<svg width="43" height="45" viewBox="0 0 43 45" fill="none" xmlns="http://www.w3.org/2000/svg">
<path d="M20.95 44.6C20.6795 44.0372 20.4941 43.4373 20.4 42.82C20.4 34.5333 20.4 26.24 20.4 17.94C20.4486 17.6455 20.3839 17.3435 20.2187 17.0948C20.0536 16.8462 19.8003 16.6693 19.51 16.6C18.9355 16.3637 18.4162 16.0109 17.9847 15.5641C17.5532 15.1172 17.2189 14.5859 17.0028 14.0035C16.7868 13.4211 16.6937 12.8002 16.7293 12.18C16.765 11.5599 16.9286 10.9538 17.21 10.4C17.4973 9.83166 17.8995 9.32914 18.3911 8.92431C18.8827 8.51947 19.453 8.22111 20.0659 8.04815C20.6788 7.87518 21.321 7.83138 21.9517 7.91948C22.5824 8.00759 23.188 8.22568 23.73 8.55999C24.2538 8.87686 24.7071 9.29773 25.062 9.79662C25.4168 10.2955 25.6656 10.8618 25.7931 11.4606C25.9205 12.0594 25.9239 12.678 25.803 13.2781C25.682 13.8783 25.4394 14.4473 25.09 14.95C24.5335 15.6625 23.8177 16.2344 23 16.62C22.7342 16.7117 22.5078 16.8917 22.3586 17.1301C22.2094 17.3685 22.1463 17.6508 22.18 17.93C22.18 26.28 22.18 34.64 22.18 43C22.18 43.63 22.18 44.26 21.53 44.6H20.95Z" fill="white"/>
<path d="M4.67999 0.52002C5.38999 1.08002 5.29999 1.67001 4.86999 2.39001C3.2746 4.92371 2.30712 7.80164 2.04797 10.7845C1.78881 13.7675 2.24548 16.7691 3.38 19.54C3.80724 20.5712 4.30165 21.5734 4.86001 22.54C5.18001 23.13 5.47001 23.73 4.74001 24.15C4.01001 24.57 3.62999 23.98 3.27999 23.44C1.74554 20.9338 0.754168 18.1334 0.369987 15.22C0.319987 14.9 0.239985 14.59 0.179985 14.28V10.51C0.532166 8.66912 0.99978 6.8522 1.58001 5.07001C2.30798 3.49394 3.15021 1.97323 4.1 0.52002H4.67999Z" fill="white"/>
<path d="M4.07 0.52002C3.12021 1.97323 2.27798 3.49394 1.55001 5.07001C0.969781 6.8522 0.502168 8.66912 0.149986 10.51V0.51001L4.07 0.52002Z" fill="white"/>
<path d="M42.53 12.64C42.4155 16.5344 41.2736 20.3292 39.22 23.64C38.86 24.2 38.44 24.64 37.8 24.21C37.16 23.78 37.34 23.27 37.68 22.69C41.5666 16.0233 41.6067 9.30331 37.8 2.52998C37.72 2.38998 37.55 2.24999 37.56 2.10999C37.56 1.67999 37.56 1.10999 37.78 0.849985C38.22 0.449985 38.78 0.670022 39.09 1.20002C40.4331 3.21392 41.3737 5.46872 41.86 7.84004C42.18 9.40004 42.31 11.03 42.53 12.64Z" fill="white"/>
<path d="M8.69999 3.62988C9.69999 3.62988 10.03 4.30987 9.69999 5.04987C9.36999 5.78987 8.97999 6.35987 8.69999 7.04987C7.82363 9.00985 7.43328 11.1524 7.56211 13.2955C7.69094 15.4386 8.33513 17.519 9.43998 19.3599L9.63999 19.6999C9.95999 20.2399 10.02 20.7699 9.39997 21.1299C9.28777 21.2021 9.16013 21.247 9.02738 21.2607C8.89464 21.2745 8.76051 21.2568 8.63587 21.209C8.51123 21.1613 8.3996 21.085 8.30998 20.9861C8.22035 20.8872 8.15524 20.7686 8.11997 20.6399C7.24292 18.8699 6.53317 17.0219 5.99998 15.1199C5.23708 11.3968 5.97375 7.52308 8.05 4.3399C8.23659 4.07737 8.45491 3.83887 8.69999 3.62988V3.62988Z" fill="white"/>
<path d="M36.89 12.9799C36.8161 15.6784 36.0332 18.3098 34.62 20.6099C34.27 21.1799 33.84 21.6099 33.19 21.2199C32.54 20.8299 32.68 20.2799 33.01 19.7099C34.3861 17.5514 35.1172 15.0447 35.1172 12.4849C35.1172 9.92502 34.3861 7.41842 33.01 5.25991C32.68 4.69991 32.58 4.19991 33.17 3.82991C33.76 3.45991 34.25 3.76987 34.6 4.34987C36.1668 6.95096 36.9611 9.94419 36.89 12.9799Z" fill="white"/>
<path d="M11.21 12.7501C11.1768 10.8441 11.668 8.96573 12.63 7.32007C12.96 6.73007 13.4 6.32006 14.04 6.69006C14.68 7.06006 14.56 7.69007 14.23 8.20007C13.4499 9.46944 13.0369 10.9301 13.0369 12.42C13.0369 13.9099 13.4499 15.3707 14.23 16.6401C14.54 17.1901 14.8 17.75 14.11 18.16C13.42 18.57 12.97 18.1101 12.63 17.5201C11.7403 16.0849 11.2501 14.4381 11.21 12.7501V12.7501Z" fill="white"/>
<path d="M31.38 12.8099C31.3398 14.4677 30.8713 16.0869 30.02 17.5099C29.71 18.0799 29.32 18.65 28.58 18.27C27.84 17.89 28.05 17.2699 28.39 16.6799C29.1589 15.4231 29.5658 13.9783 29.5658 12.5049C29.5658 11.0315 29.1589 9.58679 28.39 8.32995C28.07 7.75995 27.78 7.14991 28.54 6.72991C29.3 6.30991 29.67 6.89995 29.99 7.45995C30.9369 9.08136 31.4179 10.9327 31.38 12.8099V12.8099Z" fill="white"/>
</svg>
