<svg width="17" height="15" viewBox="0 0 17 15" fill="none" xmlns="http://www.w3.org/2000/svg">
<path d="M14.5117 0.0270424C14.9154 -0.0510807 15.2865 0.0400639 15.625 0.30048C15.9635 0.560898 16.1719 0.905951 16.25 1.33564C16.3281 1.76532 16.237 2.16246 15.9766 2.52704L7.89062 14.3239C7.63021 14.6625 7.29818 14.8708 6.89453 14.9489C6.49088 15.027 6.11979 14.9359 5.78125 14.6755C5.57292 14.5192 5.02604 13.9658 4.14062 13.0153C3.25521 12.0648 2.42187 11.1468 1.64062 10.2614L0.429687 8.93329C0.143229 8.62079 -1.19209e-07 8.24319 0 7.80048C0 7.35777 0.15625 6.98017 0.46875 6.66767C0.78125 6.35517 1.14583 6.20543 1.5625 6.21845C1.97917 6.23147 2.33073 6.40725 2.61719 6.74579L6.48437 10.9255L13.5156 0.652042C13.776 0.313501 14.1081 0.105169 14.5117 0.0270424Z" fill="#081420"/>
</svg>
