<svg width="119" height="124" viewBox="0 0 119 124" fill="none" xmlns="http://www.w3.org/2000/svg">
<path d="M112.738 58.8607L92.321 58.8375C92.1358 58.8375 91.9738 58.6755 91.9738 58.4903C91.9738 58.3051 92.1358 58.1431 92.321 58.1431C94.5664 58.1431 110.122 58.1431 112.738 58.1662C112.923 58.1662 113.085 58.3283 113.085 58.5134C113.085 58.6986 112.923 58.8607 112.738 58.8607ZM74.4274 85.0877C74.2422 85.0645 74.1033 84.8794 74.1496 84.6942L76.0709 73.6987C76.0941 73.5135 76.2792 73.3746 76.4644 73.4209C76.6496 73.4441 76.7885 73.6293 76.7422 73.8145C74.219 88.259 74.9598 84.0229 74.8209 84.8099C74.7977 84.9951 74.6126 85.134 74.4274 85.0877Z" fill="#0D99FF"/>
<path d="M108.481 77.842C108.296 77.7957 108.18 77.6105 108.226 77.4254C109.013 74.0689 111.328 63.2817 112.439 58.4206C112.485 58.2354 112.671 58.1197 112.856 58.166C113.041 58.2123 113.157 58.3975 113.11 58.5826C112.022 63.328 109.731 73.9994 108.897 77.5874C108.874 77.7494 108.666 77.8883 108.481 77.842ZM107.022 84.856H106.953C106.629 84.856 106.49 84.4624 106.721 84.2541C107.115 82.4948 107.485 80.9439 107.809 79.5087C107.856 79.3235 108.041 79.2078 108.226 79.2541C108.411 79.3004 108.527 79.4856 108.481 79.6707C108.134 81.1754 107.763 82.7726 107.346 84.6013C107.323 84.7402 107.184 84.856 107.022 84.856ZM85.2167 87.7032C85.0315 87.6801 84.8926 87.518 84.8926 87.3328L85.1241 84.7171C85.1472 84.5319 85.3093 84.393 85.4945 84.393C85.6796 84.4161 85.8185 84.5782 85.8185 84.7634L85.5871 87.3791C85.5871 87.5875 85.4019 87.7264 85.2167 87.7032ZM76.7444 82.6569C76.6518 82.6569 76.5361 82.6106 76.4898 82.518C76.3046 82.2634 76.4435 82.5874 77.6009 76.4994C77.624 76.3837 77.6472 76.3142 77.6472 76.2448C77.6935 76.0596 77.8787 75.9439 78.0639 75.967C78.249 76.0133 78.3648 76.1985 78.3416 76.3837C78.3416 76.43 78.3185 76.4763 78.2953 76.6152C77.925 78.6291 77.5777 80.342 77.2074 81.9624C85.3787 82.2402 95.8186 81.8698 104.962 82.0319C106.583 75.0642 108.226 68.2123 109.592 60.8975C106.652 60.8975 98.7584 60.8049 93.8047 60.8049C93.6195 60.8049 93.4575 60.6428 93.4575 60.4577C93.4575 60.2725 93.6195 60.1104 93.8047 60.1104C96.5362 60.1104 109.985 60.203 110.009 60.203C110.217 60.203 110.379 60.3882 110.356 60.6197C108.944 68.2123 107.231 75.342 105.564 82.4717C105.518 82.6337 105.379 82.7495 105.217 82.7495C95.8417 82.5643 85.1009 82.9578 76.7444 82.6569ZM102.277 85.805H103.481V86.268H102.277V85.805ZM90.4713 85.7587H90.4482C90.2167 85.8513 90.263 86.4069 90.6102 86.268C90.8186 86.1986 90.8649 85.9671 90.6797 85.805C90.6334 85.7587 90.5408 85.7356 90.4713 85.7587Z" fill="#0D99FF"/>
<path d="M108.829 87.2402H106.19C106.56 86.5226 106.838 86.0134 107.301 84.6245C107.324 84.555 107.324 84.4856 107.301 84.4161L107.37 84.2772H107.231C107.162 84.2078 107.069 84.1615 106.977 84.1615C106.444 84.1615 108.62 84.1615 87.7174 84.0921C87.6712 84.3698 87.2082 87.68 87.2082 87.7032C87.185 87.7958 87.1387 87.8421 87.0693 87.8884H99.662C108.25 87.9578 104.847 87.9347 108.852 87.9347C109.037 87.9347 109.199 87.7726 109.199 87.5874C109.199 87.4023 109.037 87.2402 108.829 87.2402ZM90.773 86.731C90.2638 86.9161 89.7776 86.5226 89.8471 85.9439C89.8934 85.6198 90.1249 85.3884 90.2869 85.3421C90.4489 85.2495 90.7499 85.2726 90.9813 85.4809C91.4443 85.8745 91.3054 86.5226 90.773 86.731ZM95.0092 86.3143H93.6203C93.4814 86.3143 93.3888 86.1986 93.3888 86.0828C93.3888 85.9439 93.5045 85.8513 93.6203 85.8513H95.0092C95.1481 85.8513 95.2406 85.9671 95.2406 86.0828C95.2406 86.1986 95.1249 86.3143 95.0092 86.3143ZM98.8518 86.3837H97.4629C97.324 86.3837 97.2314 86.268 97.2314 86.1522C97.2314 86.0134 97.3471 85.9208 97.4629 85.9208H98.8518C98.9907 85.9208 99.0833 86.0365 99.0833 86.1522C99.0833 86.268 98.9675 86.3837 98.8518 86.3837ZM103.944 86.4995C103.944 86.6384 103.852 86.731 103.713 86.731H102.046C101.907 86.731 101.815 86.6384 101.815 86.4995V85.5735C101.815 85.4347 101.907 85.3421 102.046 85.3421H103.713C103.852 85.3421 103.944 85.4347 103.944 85.5735V86.4995ZM86.7221 87.6106C86.7221 87.5643 87.2082 84.1152 87.2313 84.0689C86.0739 84.0689 58.8515 83.9532 58.8978 83.9532C58.7126 83.9532 58.5506 84.1152 58.5506 84.3004V87.1476H54.2681C54.083 87.1476 53.9209 87.3097 53.9209 87.4949C53.9209 87.68 54.083 87.8421 54.2681 87.8421L86.861 87.8652C86.7684 87.8189 86.6989 87.7263 86.7221 87.6106ZM45.7496 73.7448C45.657 73.7448 45.5644 73.6985 45.4949 73.629C45.4255 73.5596 45.4023 73.4438 45.4023 73.3512L47.0922 59.3465C47.1153 59.1613 47.2774 59.0224 47.4857 59.0456C47.6709 59.0687 47.8098 59.2308 47.7866 59.4391L46.1431 73.0735L90.0091 72.8883C90.0091 72.842 93.6203 46.939 93.6203 46.8927C93.6434 46.7075 93.8286 46.5687 94.0138 46.5918C94.199 46.615 94.3379 46.8001 94.3147 46.9853C94.3147 47.0316 90.6804 73.2355 90.6573 73.2587C90.6341 73.4207 90.4952 73.5596 90.3101 73.5596L45.7496 73.7448ZM47.7866 56.3141C47.6014 56.2909 47.4625 56.1289 47.4857 55.9206L49.245 40.1566C49.2681 39.9945 49.407 39.8556 49.569 39.8556C98.111 37.3556 95.2175 37.3325 95.4258 37.564C95.4953 37.6334 95.5184 37.7492 95.5184 37.8417L94.5462 44.7862C94.523 44.9714 94.3379 45.1103 94.1527 45.0872C93.9675 45.064 93.8286 44.8788 93.8517 44.6936L94.7545 38.1658L49.87 40.5269L48.1338 56.0132C48.157 56.1984 47.9718 56.3372 47.7866 56.3141Z" fill="#0D99FF"/>
<path d="M49.1992 44.4391C49.1992 44.2539 49.3381 44.0919 49.5464 44.0919C64.2919 43.6058 79.7087 42.8419 94.4541 42.3789C94.6393 42.3789 94.8014 42.5178 94.8014 42.7261C94.8014 42.9345 94.6625 43.0734 94.4541 43.0734C79.7087 43.5595 64.2919 44.3234 49.5464 44.7863C49.3613 44.7863 49.2224 44.6243 49.1992 44.4391Z" fill="#0D99FF"/>
<path d="M53.1321 43.2356C53.6818 43.2356 54.1275 42.7589 54.1275 42.1708C54.1275 41.5827 53.6818 41.106 53.1321 41.106C52.5824 41.106 52.1367 41.5827 52.1367 42.1708C52.1367 42.7589 52.5824 43.2356 53.1321 43.2356Z" fill="#0D99FF"/>
<path d="M56.6516 43.1199C57.2014 43.1199 57.647 42.6431 57.647 42.0551C57.647 41.467 57.2014 40.9902 56.6516 40.9902C56.1019 40.9902 55.6562 41.467 55.6562 42.0551C55.6562 42.6431 56.1019 43.1199 56.6516 43.1199Z" fill="#0D99FF"/>
<path d="M60.0305 42.9807C60.5803 42.9807 61.0259 42.504 61.0259 41.9159C61.0259 41.3278 60.5803 40.8511 60.0305 40.8511C59.4808 40.8511 59.0352 41.3278 59.0352 41.9159C59.0352 42.504 59.4808 42.9807 60.0305 42.9807Z" fill="#0D99FF"/>
<path d="M72.8086 41.2449C72.8086 41.0597 72.9475 40.8977 73.1558 40.8977C76.767 40.7819 85.4013 40.2495 88.9198 39.9949C89.105 39.9717 89.267 40.1338 89.2902 40.319C89.3133 40.5042 89.1513 40.6662 88.9661 40.6893C85.355 40.9671 76.8595 41.4764 73.1558 41.6153C72.9706 41.5921 72.8317 41.4301 72.8086 41.2449ZM104.8 68.2127L93.781 68.0969L94.0124 64.3469L105.332 64.6247L104.8 68.2127Z" fill="#0D99FF"/>
<path d="M104.8 68.5597C91.2352 68.4208 95.2861 68.4671 93.7583 68.444C93.6657 68.444 93.5731 68.3977 93.5037 68.3282C93.4342 68.2588 93.4111 68.1662 93.4111 68.0736L93.6426 64.3236C93.6657 64.1384 93.8046 63.9995 93.9898 63.9995L105.309 64.2773C105.518 64.2773 105.68 64.4625 105.633 64.6708L105.101 68.2588C105.124 68.4208 104.985 68.5597 104.8 68.5597ZM94.1518 67.7495L104.499 67.8421L104.939 64.9486L94.337 64.694L94.1518 67.7495ZM103.319 73.0505H92.3926C92.2074 73.0505 92.0453 72.8885 92.0453 72.7033C92.0453 72.5181 92.2074 72.356 92.3926 72.356H103.319C103.504 72.356 103.666 72.5181 103.666 72.7033C103.666 72.8885 103.504 73.0505 103.319 73.0505ZM102.578 77.7496H83.8277C83.6425 77.7496 83.4805 77.5876 83.4805 77.4024C83.4805 77.2172 83.6425 77.0552 83.8277 77.0552H102.578C102.763 77.0552 102.925 77.2172 102.925 77.4024C102.925 77.5876 102.763 77.7496 102.578 77.7496Z" fill="#0D99FF"/>
<path d="M109.037 98.3514C109.083 98.907 109.199 99.4625 109.407 99.9718C109.107 99.4857 108.968 98.9301 109.037 98.3514ZM112.255 102.426C111.56 102.287 110.866 102.009 110.31 101.592L110.38 101.685C110.357 101.662 110.333 101.615 110.31 101.592C109.824 101.222 109.431 100.713 109.292 100.111L109.94 101.037C109.732 100.713 109.57 100.342 109.431 99.995C110.912 102.449 114.338 101.87 116.421 99.8098C118.088 98.1431 118.042 96.1292 117.116 95.0181C117.556 95.2495 117.926 95.5968 118.204 95.9903C120.264 98.9301 117.324 103.467 112.255 102.426Z" fill="#0D99FF"/>
<path d="M113.273 91.6152C110.31 91.6152 107.902 94.0227 107.902 96.9856C107.902 99.9486 110.31 102.356 113.273 102.356C116.236 102.356 118.643 99.9486 118.643 96.9856C118.62 94.0227 116.213 91.6152 113.273 91.6152ZM115.981 95.6199L112.74 98.8607C112.601 98.9995 112.393 98.9995 112.254 98.8607L110.75 97.356C110.611 97.2171 110.611 97.0088 110.75 96.8699C110.888 96.731 111.097 96.731 111.236 96.8699L112.509 98.1431L115.518 95.1338C115.657 94.9949 115.865 94.9949 116.004 95.1338C116.143 95.2727 116.12 95.481 115.981 95.6199Z" fill="#0D99FF"/>
<path d="M88.4563 113.722C88.6878 112.935 88.6878 112.657 89.3591 106.731C89.4054 106.384 89.4285 106.037 89.5906 105.713C89.9609 104.949 90.7943 104.787 91.4887 105.69C92.5999 107.125 92.6462 109.532 90.6323 111.801C89.8915 112.634 88.9887 113.329 88.0859 113.977" fill="#0D99FF"/>
<path d="M82.4843 123.722C82.1834 122.241 82.5306 120.62 83.4797 118.93C84.9148 116.384 87.2991 114.671 88.8732 112.264C89.938 110.62 90.6788 108.19 89.614 106.245C89.5214 106.083 89.5908 105.875 89.7528 105.782C89.9149 105.69 90.1232 105.759 90.2158 105.921C91.4427 108.12 90.6325 110.829 89.4519 112.634C87.8778 115.088 85.4473 116.847 84.0815 119.255C83.2019 120.782 82.9009 122.241 83.1556 123.56C83.2019 123.745 83.063 123.93 82.8778 123.977C82.7158 124.023 82.5306 123.907 82.4843 123.722Z" fill="#0D99FF"/>
<path d="M86.9989 115.157C86.86 115.041 86.8137 114.81 86.9526 114.671C87.6933 113.745 89.0128 113.467 89.9156 113.074C90.8415 112.657 91.8137 112.403 92.5545 111.801C93.5267 111.014 93.9434 109.764 94.1054 108.838C94.4758 106.847 94.036 104.671 92.9249 102.842C92.4156 102.009 91.3739 101.754 90.5406 102.24C89.7767 102.68 88.6424 104.069 87.3693 105.18C86.9989 105.504 86.6054 105.852 86.397 106.222C85.0544 108.444 85.61 111.176 87.6008 112.634C87.7628 112.75 87.7859 112.958 87.6702 113.12C87.5545 113.282 87.3461 113.305 87.1841 113.19C84.9387 111.546 84.2674 108.398 85.7952 105.875C86.1887 105.25 86.8832 104.74 87.3461 104.254C89.2674 102.356 89.5915 101.986 90.1702 101.639C91.3276 100.967 92.786 101.338 93.4804 102.472C94.6841 104.44 95.1471 106.801 94.7536 108.953C94.5684 109.972 94.1054 111.407 92.948 112.333C92.1147 113.004 91.073 113.305 90.1702 113.699C89.2443 114.116 88.0637 114.347 87.4619 115.088C87.4156 115.204 87.1378 115.296 86.9989 115.157ZM84.9387 123.884C84.7535 123.861 84.6146 123.699 84.6378 123.491C84.7998 121.94 84.4063 120.481 83.5035 119.254C82.0915 117.379 79.1979 116.222 78.6887 113.537C78.6424 113.352 78.7812 113.166 78.9664 113.12C79.1516 113.074 79.3368 113.213 79.3831 113.398C79.8229 115.736 82.6239 116.916 84.0591 118.815C85.0776 120.18 85.5406 121.824 85.3322 123.537C85.2859 123.768 85.1239 123.907 84.9387 123.884Z" fill="#0D99FF"/>
<path d="M79.8933 117.865C76.5368 117.264 74.2451 114.092 74.7544 110.713C74.8701 109.972 75.1248 109.231 75.31 108.537C75.634 107.402 76.9998 106.87 78.0183 107.588C78.8979 108.213 79.847 108.791 80.5646 109.625C82.023 111.291 82.3007 113.93 81.2128 115.851C81.1202 116.014 80.9118 116.083 80.7498 115.99C80.5878 115.898 80.5183 115.689 80.6109 115.527C81.56 113.838 81.3054 111.546 80.0322 110.088C79.3609 109.324 78.435 108.768 77.6016 108.166C76.9998 107.75 76.1664 108.027 75.9813 108.745C75.7961 109.416 75.5414 110.157 75.4489 110.828C74.9859 113.838 77.0229 116.662 80.0091 117.194C80.1942 117.217 80.3331 117.402 80.2868 117.588C80.2637 117.773 80.0785 117.912 79.8933 117.865ZM83.5045 123.953C83.3424 123.861 83.273 123.652 83.3656 123.49C84.8934 120.527 89.2221 120.666 90.3564 117.889C90.4258 117.703 90.6341 117.634 90.8193 117.703C91.0045 117.773 91.0739 117.981 91.0045 118.166C90.3795 119.717 88.8054 120.551 87.3471 121.245C86.0276 121.87 84.6619 122.495 83.9906 123.815C83.9211 123.93 83.6896 124.046 83.5045 123.953Z" fill="#0D99FF"/>
<path d="M87.5299 121.153C89.4744 121.338 91.5809 121.454 93.1318 120.134C93.8726 119.509 94.3818 118.537 94.2893 117.565C94.1967 116.593 93.4791 115.667 92.53 115.482C91.7198 115.343 90.9096 115.713 90.2152 116.199C89.0114 117.056 88.0855 118.283 87.5531 119.671C87.4374 119.972 87.1133 120.25 87.1133 120.574C87.1364 120.898 87.229 121.269 87.5299 121.153Z" fill="#0D99FF"/>
<path d="M87.5758 121.5C87.2055 121.593 86.7888 121.338 86.7888 120.574C86.7888 120.111 87.1592 119.81 87.2518 119.555C87.7842 118.12 88.7795 116.824 90.0296 115.944C90.9555 115.296 91.812 115.018 92.599 115.18C93.6638 115.366 94.5666 116.407 94.6592 117.565C94.7518 118.583 94.2425 119.694 93.3629 120.435C92.6453 121.06 91.6499 121.454 90.4925 121.593C89.5203 121.662 88.5481 121.593 87.5758 121.5ZM92.9231 119.856C93.6407 119.255 94.0342 118.375 93.9648 117.588C93.8953 116.731 93.2472 115.968 92.4833 115.829C91.8814 115.713 91.2101 115.944 90.4462 116.477C89.312 117.287 88.4092 118.468 87.8999 119.787C87.7842 120.088 87.4832 120.389 87.4832 120.574C87.4832 120.667 87.4832 120.759 87.5064 120.806C87.9462 120.759 91.0481 121.454 92.9231 119.856ZM92.7379 124H77.2748C77.0897 124 76.9276 123.838 76.9276 123.653C76.9276 123.468 77.0897 123.306 77.2748 123.306H92.7379C92.9231 123.306 93.0851 123.468 93.0851 123.653C93.0851 123.838 92.9462 124 92.7379 124ZM41.5107 121.153C41.3024 120.643 41.2098 120.018 41.2329 119.301C41.2561 118.282 41.1866 117.75 41.1172 116.569C41.1172 116.384 41.2561 116.222 41.4413 116.199C41.6265 116.176 41.7885 116.338 41.8116 116.523C41.8811 117.657 41.9505 118.236 41.9274 119.301C41.9042 119.926 41.9968 120.458 42.1589 120.875C42.2283 121.06 42.1357 121.245 41.9505 121.315C41.7885 121.431 41.5802 121.338 41.5107 121.153Z" fill="#0D99FF"/>
<path d="M9.7992 83.0273C9.63716 83.1199 8.96586 83.9763 8.78067 83.9532C8.43345 83.9069 8.57234 83.2125 8.57234 82.8421C8.57234 82.4949 8.38715 81.6615 8.10938 81.43C8.31771 81.6152 11.165 80.7124 11.489 80.6198C12.1603 80.4578 13.7576 79.7171 14.3131 80.2495C13.2483 81.2448 11.0492 82.2634 9.7992 83.0273ZM29.4984 79.9485C30.1003 80.2495 30.4938 80.9439 30.378 81.5921C30.2854 82.0782 29.9382 82.4717 29.9151 82.981C29.8919 83.3976 30.1234 83.768 30.1929 84.1847C30.3317 85.0643 29.6836 85.944 28.8966 86.3375C28.1095 86.731 27.1604 86.7773 26.2576 86.8004C26.0956 86.5921 26.1882 86.2449 26.4197 86.0597C26.8595 85.7125 27.716 85.8514 28.4336 85.3421C28.7808 85.0875 29.0354 84.6245 28.9428 84.2078C28.8965 83.9995 29.1049 83.7217 29.0817 83.4902C29.0354 82.9347 28.9891 82.4717 29.0123 81.9161C29.0354 81.43 28.9197 81.2217 28.4336 81.1754C27.7623 81.106 26.4197 82.0087 26.6975 80.7819C26.9289 79.7171 28.7345 79.555 29.4984 79.9485ZM41.8827 118.629C41.7902 117.68 41.6744 116.731 41.5818 115.805C41.6976 116.87 45.4939 116.222 45.9568 116.569C44.892 117.611 43.3179 118.282 41.8827 118.629ZM12.0214 88.4903C11.1418 88.5366 10.1696 88.444 9.54457 87.8421C8.80382 87.1014 8.85012 85.9208 8.91957 84.8791C9.19735 85.8514 9.56772 86.9162 10.4705 87.3328C11.0029 87.5643 11.6279 87.5412 12.2066 87.4717C14.0122 87.3097 15.8178 86.9393 17.6233 86.7541C17.3224 88.1199 13.1789 88.444 12.0214 88.4903ZM22.9474 79.6708C23.1095 80.4115 23.2484 81.1986 23.04 81.9393C23.4336 80.5967 25.2854 78.6522 24.3363 77.1939C22.9474 75.1105 22.7622 78.8374 22.9474 79.6708Z" fill="#0D99FF"/>
<path d="M16.4684 101.986C16.4221 101.986 16.3527 101.963 16.3064 101.94C16.1444 101.847 15.9823 101.778 15.8203 101.662C12.7647 99.8332 10.6119 95.6896 9.68599 92.2637C9.63969 92.0785 9.75543 91.8933 9.94062 91.847C10.1258 91.8007 10.311 91.9164 10.3573 92.1016C10.8203 93.8378 11.5379 95.5044 12.4406 97.0322C13.5518 98.9304 14.7786 100.25 16.1907 101.083C16.3296 101.176 16.4916 101.245 16.6305 101.338C16.7925 101.43 16.862 101.639 16.7925 101.801C16.7231 101.917 16.5842 101.986 16.4684 101.986ZM26.3296 90.4581C26.075 90.2729 26.3065 90.435 25.9592 85.9673C25.9361 85.7821 26.0981 85.6201 26.2833 85.597C26.4685 85.5738 26.6305 85.7358 26.6537 85.921C26.7694 87.4025 26.8389 88.6062 26.862 89.7174C30.8435 88.5137 35.3343 87.5877 40.1723 86.9627C40.2186 83.5831 40.2649 80.1803 40.288 76.8006C35.5889 77.1941 30.7741 77.4256 26.075 77.8191C26.0981 78.8377 26.1676 79.9256 26.2602 81.2219C26.3991 81.1756 26.5611 81.1062 26.7694 81.0367C27.2093 80.8979 27.6028 80.8053 28.1352 80.759C28.4593 80.7358 28.8528 80.8284 29.0843 80.9905C29.2232 81.083 29.2926 81.2219 29.2926 81.4071C29.3158 81.6849 29.1769 82.009 29.0148 82.171C28.8759 82.3099 28.6676 82.3099 28.5287 82.1942C28.3898 82.0553 28.3898 81.8469 28.5056 81.708C28.5519 81.6618 28.575 81.5923 28.5982 81.546C28.5056 81.4997 28.3204 81.4766 28.2046 81.4766C27.7417 81.5229 27.3944 81.6155 26.9778 81.7312C26.7 81.8006 26.538 81.8932 26.3759 81.9395C26.2602 81.9858 26.1676 82.0321 26.0518 82.0553C25.9592 82.0784 25.8435 82.0784 25.7509 82.009C25.6583 81.9395 25.612 81.8469 25.5889 81.7543C25.4731 80.1108 25.3805 78.7682 25.3574 77.5182C25.3574 77.333 25.4963 77.171 25.6815 77.171C28.1583 76.9626 30.7278 76.7775 33.1815 76.6154C35.6121 76.4534 38.1353 76.2913 40.589 76.083C40.6816 76.083 40.7742 76.1062 40.8436 76.1756C40.9131 76.2451 40.9593 76.3376 40.9593 76.4302C40.9131 80.2034 40.8668 83.5831 40.8205 87.2868C40.8205 87.4488 40.6816 87.6109 40.5195 87.634C35.4038 88.2822 30.7278 89.2544 26.5843 90.5276C26.538 90.5507 26.4222 90.5275 26.3296 90.4581Z" fill="#0D99FF"/>
<path d="M26.4192 90.3887C25.5627 90.0878 24.8219 89.8563 24.1275 89.6248C23.4099 89.3933 22.6691 89.1387 21.8127 88.8609C21.6506 88.8146 21.558 88.6526 21.5812 88.4905C21.6043 88.3285 21.7201 88.2127 21.8821 88.1896C23.4099 87.9813 25.0303 87.8192 26.3497 87.6803C26.5349 87.6572 26.7201 87.7961 26.7432 87.9813C26.7664 88.1665 26.6275 88.3516 26.4423 88.3748C25.5627 88.4674 24.5442 88.5831 23.5025 88.6989C24.521 89.0229 25.4701 89.347 26.6738 89.7637C26.859 89.8331 26.9516 90.0183 26.8821 90.2035C26.8127 90.3655 26.6043 90.4581 26.4192 90.3887ZM37.6229 105.18C37.6229 105.227 37.6229 105.25 37.5998 105.296C37.2294 103.954 36.7433 102.588 36.2803 101.315H36.6507C36.8128 101.315 36.9285 101.407 36.9748 101.569C37.5072 103.329 37.5998 103.606 37.5998 103.653C37.6229 103.653 37.6229 103.63 37.6229 105.18ZM39.7757 122.773C37.947 117.704 36.2109 110.273 34.4053 105.227C34.3359 105.042 34.4285 104.856 34.6137 104.787C34.7988 104.717 34.984 104.81 35.0535 104.995C36.8822 110.065 38.6183 117.495 40.4239 122.542C40.4933 122.727 40.4007 122.912 40.2156 122.981C40.0304 123.051 39.8452 122.958 39.7757 122.773ZM28.0395 121.593C27.8544 121.569 27.7155 121.384 27.7618 121.199C28.6183 116.315 29.5442 110.18 30.4007 105.296C30.4238 105.111 30.609 104.972 30.7942 105.018C30.9794 105.042 31.1183 105.227 31.072 105.412C30.2155 110.273 29.2896 116.431 28.4331 121.315C28.4331 121.477 28.2479 121.639 28.0395 121.593ZM6.74311 120.829C6.55792 120.759 6.46533 120.574 6.53478 120.389L11.9746 105.134C12.0441 104.949 12.2293 104.856 12.4144 104.926C12.5996 104.995 12.6922 105.18 12.6228 105.366L7.18293 120.62C7.11348 120.806 6.9283 120.898 6.74311 120.829ZM19.1506 122.634C18.271 117.773 16.8126 110.412 15.933 105.528C15.9098 105.342 16.0256 105.157 16.2108 105.134C16.396 105.111 16.5811 105.227 16.6043 105.412C17.4839 110.273 18.9423 117.634 19.8219 122.519C19.845 122.704 19.7293 122.889 19.5441 122.912C19.3589 122.935 19.1737 122.819 19.1506 122.634ZM9.03479 86.4303C8.50238 84.9951 8.08571 83.097 7.99312 81.4766C7.96997 81.2914 8.13201 81.1294 8.31719 81.1062C8.50238 81.0831 8.66442 81.2451 8.68757 81.4303C8.80331 82.9812 9.17368 84.8099 9.70609 86.1988C10.0533 87.1248 10.3542 87.3563 11.7663 87.1942C14.3358 86.8933 16.9515 86.4072 18.7339 85.8979C18.9191 85.8516 19.1043 85.9442 19.1506 86.1294C19.1969 86.3146 19.1043 86.4998 18.9191 86.5692C17.0904 87.0785 14.4515 87.5877 11.8357 87.8887C10.3311 88.0507 9.54406 87.8424 9.03479 86.4303Z" fill="#0D99FF"/>
<path d="M8.75771 92.1945C8.61882 92.1482 8.52623 92.0324 8.50308 91.8935C8.38734 89.8565 8.20215 85.2963 8.31789 83.8842V83.8379C8.34104 83.6527 8.50308 83.5138 8.71142 83.537C8.8966 83.5601 9.05864 83.7222 9.01234 83.9537C8.91975 85.25 9.05864 89.4861 9.19753 91.5926C15.1929 93.3519 21.3041 92.6574 25.98 89.7176C26.1421 89.625 26.3504 89.6713 26.4662 89.8333C26.5819 89.9954 26.5125 90.2037 26.3504 90.3194C21.2115 93.5602 14.73 94 8.75771 92.1945ZM23.1791 81.7546C22.9939 81.7546 22.8319 81.5925 22.855 81.3842C22.9245 80.0879 23.1791 77.912 23.2254 76.6388C23.2254 76.4536 23.3874 76.2916 23.5958 76.3147C23.781 76.3147 23.943 76.4768 23.9199 76.6851C23.8504 77.9814 23.5958 80.1573 23.5495 81.4305C23.5263 81.6157 23.3643 81.7546 23.1791 81.7546ZM25.5402 71.3147C24.2439 70.111 22.6467 69.1388 20.9106 68.4212C20.7254 68.3517 20.6559 68.1434 20.7254 67.9582C20.7948 67.773 21.0032 67.7036 21.1884 67.773C22.9476 68.4906 24.6143 69.5091 26.0263 70.8054C26.1652 70.9443 26.1652 71.1527 26.0495 71.2915C25.9106 71.4304 25.6791 71.4304 25.5402 71.3147ZM29.1282 77.1944L29.0125 76.1064C28.1097 74.4166 27.2301 73.1203 26.1652 71.8934C26.0263 71.7545 26.0495 71.523 26.1884 71.4073C26.3273 71.2684 26.5588 71.2915 26.6745 71.4304C27.7856 72.6804 28.7347 74.0693 29.6606 75.8286C29.6838 75.8749 29.6838 75.8981 29.7069 75.9444L29.8458 77.1018C29.869 77.287 29.7301 77.4721 29.5449 77.4953C29.3134 77.5184 29.1514 77.3795 29.1282 77.1944ZM25.0078 83.0509C24.9615 82.8657 25.1004 82.6805 25.2856 82.6342C25.6791 82.5648 26.0263 82.4722 26.3736 82.3796C27.1143 82.1944 27.8551 81.9629 28.5495 81.6851C28.7347 81.6157 28.9199 81.7083 28.9893 81.8935C29.0588 82.0786 28.9662 82.2638 28.781 82.3333C28.0634 82.6111 27.2764 82.8425 26.5125 83.0509C26.1652 83.1435 25.7949 83.2129 25.4013 83.3055C25.2162 83.375 25.031 83.2361 25.0078 83.0509Z" fill="#0D99FF"/>
<path d="M14.7978 83.3746C14.1959 83.1663 13.8718 82.5876 13.9644 81.8237C14.0107 81.3839 13.9181 80.6894 13.9413 80.1338C13.9413 79.9487 14.1033 79.7866 14.2885 79.7866C14.4737 79.7866 14.6357 79.9487 14.6357 80.1338C14.6126 80.6431 14.7052 81.3607 14.6589 81.87C14.6357 82.032 14.6126 82.5413 15.0293 82.6802C15.3302 82.7728 15.3302 82.7265 21.2561 82.032C21.8349 81.9626 22.4136 81.7311 22.8997 81.3607C23.3626 81.0135 23.8719 80.7126 24.5432 80.2959C24.7052 80.1801 24.9136 80.0644 25.1451 80.0413C25.4691 79.995 25.8395 80.1107 25.9552 80.4348C26.0941 80.8514 25.7238 81.1524 25.4228 81.4533C25.5849 81.4302 25.7469 81.3839 25.909 81.3607C26.0941 81.3376 26.2793 81.4533 26.3025 81.6385C26.3256 81.8237 26.2099 82.0089 26.0247 82.032C25.5154 82.1246 24.9599 82.2403 24.4043 82.3561C24.2654 82.4024 24.1034 82.3329 24.0108 82.1941C23.9413 82.0552 23.9645 81.8931 24.0571 81.7774L25.0988 80.7357C25.0293 80.7589 24.9599 80.8051 24.8904 80.8514C24.2654 81.245 23.733 81.569 23.2932 81.8931C22.7145 82.3329 22.02 82.6107 21.3024 82.7033C19.4737 82.9116 17.6682 83.1431 15.8394 83.3746C15.4922 83.4441 15.145 83.4903 14.7978 83.3746ZM24.7747 84.2542C24.7284 84.0691 24.8441 83.8839 25.0293 83.8376C26.1867 83.5829 27.2516 83.2589 28.2932 82.8653C28.4553 82.7959 28.5942 82.7496 28.7099 82.657C28.7793 82.5876 28.8025 82.5181 28.8025 82.5181C28.7793 82.4718 28.7562 82.4024 28.733 82.3561C28.3627 82.3561 28.2701 81.87 28.571 81.7079C28.9645 81.4996 29.3349 81.8931 29.4738 82.3329C29.5664 82.6339 29.4506 82.9579 29.196 83.1894C29.0108 83.3515 28.8025 83.4441 28.571 83.5366C27.5062 83.9533 26.4182 84.2774 25.2145 84.5552C25.0062 84.5552 24.821 84.4394 24.7747 84.2542Z" fill="#0D99FF"/>
<path d="M25.2412 85.0182C25.2181 84.833 25.3338 84.6478 25.519 84.6247C26.7227 84.4395 27.2783 84.3006 28.3662 83.8145C28.4125 83.7913 28.482 83.7219 28.644 83.5136V83.4441C28.4588 83.3978 28.3431 83.1895 28.4125 83.0043C28.4588 82.8191 28.644 82.7034 28.8292 82.7728C29.0607 82.8423 29.2227 83.0043 29.2922 83.2126C29.3616 83.4441 29.3385 83.7219 29.1996 83.9302C29.0375 84.1617 28.8523 84.37 28.6209 84.4626C27.4635 84.9719 26.8616 85.1108 25.6116 85.3191C25.4495 85.3423 25.2875 85.2034 25.2412 85.0182Z" fill="#0D99FF"/>
<path d="M23.7804 86.4532C22.2989 86.4532 21.7202 85.9903 20.3081 86.4069C20.1229 86.4532 19.9377 86.3606 19.8683 86.1754C19.822 85.9903 19.9146 85.8051 20.0998 85.7356C21.1183 85.4347 21.7896 85.5273 22.4841 85.6199C23.7804 85.8282 24.0118 85.7125 24.4054 85.7125C25.8406 85.6662 27.0674 85.6199 28.3637 84.7403C28.41 84.7171 28.5026 84.5319 28.5489 84.3699V84.3467C28.41 84.2773 28.3406 84.1152 28.3869 83.9532C28.4332 83.768 28.6415 83.6523 28.8035 83.7217C29.1045 83.8143 29.2897 84.1384 29.1971 84.5088C29.1508 84.7866 28.9656 85.1801 28.7341 85.3421C27.2758 86.3143 25.8869 86.3838 24.4054 86.4301L24.0118 86.4532H23.7804ZM6.69692 81.7773C6.76636 79.8097 7.04414 77.7958 7.53026 75.8282C7.57655 75.643 7.76174 75.5272 7.94692 75.5735C8.13211 75.6198 8.24785 75.805 8.20156 75.9902C7.76174 77.7495 7.48396 79.5319 7.39136 81.2912C10.1692 80.4347 12.9701 79.8097 15.7016 79.4393C15.8405 78.6985 15.9099 77.9578 16.072 77.2402C16.1183 77.055 16.3035 76.9393 16.4886 76.9624C16.6738 77.0087 16.7896 77.1939 16.7664 77.3791C16.6044 78.1661 16.5349 78.9995 16.3498 79.8328C16.3266 79.9717 16.2109 80.0874 16.0488 80.1106C13.1321 80.481 10.1229 81.1754 7.13673 82.1245C6.90525 82.1939 6.67377 82.0088 6.69692 81.7773ZM8.20156 74.717C8.01637 74.6707 7.92378 74.4624 7.97007 74.2772C8.24785 73.3513 8.59508 72.4022 8.9886 71.4763C9.26638 70.7818 9.63675 70.0179 10.3312 69.4392C11.396 68.5364 13.0627 68.2124 14.4053 67.6568C14.9609 67.4253 15.3775 67.1938 15.7016 66.9392C15.8405 66.8235 16.0257 66.8466 16.1414 66.9392C17.2988 67.9577 18.8266 69.0689 20.0535 70.0874C20.1924 69.3929 20.4007 68.6522 20.4933 68.004C20.5165 67.7725 20.6785 67.68 20.8405 67.68C21.0257 67.68 21.2109 67.842 21.1646 68.0735C21.1183 68.4439 20.9563 69.2077 20.8868 69.4624C20.7942 69.9022 20.6785 70.3652 20.6322 70.805C20.609 70.9439 20.5396 71.0365 20.4007 71.0828C20.285 71.1291 20.1461 71.1059 20.0535 71.0133C19.3822 70.4346 18.6183 69.8327 17.8775 69.254C17.2062 68.7216 16.5118 68.1892 15.8868 67.6568C14.4053 68.6753 11.9747 68.93 10.7479 69.9716C10.1692 70.4577 9.86823 71.1059 9.6136 71.7541C9.24323 72.6568 8.89601 73.5828 8.61823 74.4856C8.57193 74.6707 8.38674 74.7865 8.20156 74.717Z" fill="#0D99FF"/>
<path d="M20.8409 68.444C20.6557 68.444 20.4937 68.282 20.4937 68.0968L20.4706 66.3838C20.4706 66.1987 20.6326 66.0366 20.8178 66.0366C21.003 66.0366 21.165 66.1755 21.165 66.3838C21.165 66.5922 21.1882 68.2126 21.1882 68.0968C21.1882 68.282 21.0261 68.444 20.8409 68.444ZM12.9474 84.509C12.8085 84.3932 12.7622 84.1617 12.9011 84.0229L14.0353 82.6108C14.1511 82.4719 14.3825 82.4256 14.5214 82.5645C14.6603 82.7034 14.7066 82.9117 14.5677 83.0506L13.4335 84.4627C13.2946 84.6016 13.0862 84.6247 12.9474 84.509ZM10.0307 85.0645C9.82233 84.8562 9.75289 84.5321 9.82233 84.2543C9.54455 83.9303 9.42881 83.4673 9.54455 83.0738C9.59085 82.8886 9.77604 82.7728 9.96122 82.8191C10.1464 82.8654 10.2622 83.0506 10.2159 83.2358C10.1464 83.4673 10.2622 83.7451 10.4473 83.884C10.6094 83.9997 10.6325 84.2543 10.4936 84.4164C10.4705 84.4395 10.4705 84.5321 10.4936 84.5784C10.6325 84.7173 10.6325 84.9256 10.4936 85.0645C10.3779 85.1803 10.1696 85.1803 10.0307 85.0645ZM32.253 77.2173C32.091 77.1247 32.0216 76.9163 32.1141 76.7543C32.3225 76.3608 32.554 75.9441 32.7623 75.5506C33.2253 74.7172 33.8734 73.5367 34.5216 72.1709C34.6142 71.9857 34.7994 71.9163 34.9845 72.0089C35.1697 72.1015 35.2392 72.2867 35.1466 72.4719C34.8919 73.0274 34.3595 74.0922 34.0586 74.6478C33.6188 75.4811 33.1558 76.2682 32.7392 77.0784C32.6466 77.1941 32.4151 77.3098 32.253 77.2173ZM38.3642 76.8469C38.1096 76.8469 37.9244 76.5691 38.0633 76.3376L38.9892 74.6015C39.0818 74.4395 39.2901 74.37 39.4522 74.4626C39.6142 74.5552 39.6836 74.7635 39.5911 74.9256L38.6651 76.6617C38.6188 76.7774 38.5031 76.8469 38.3642 76.8469ZM37.3457 72.0783C36.9753 71.7311 36.9984 70.6431 37.5309 70.4116C37.554 70.4116 37.5771 70.3885 37.6003 70.3885C37.8549 70.3191 38.1559 70.3422 38.4336 70.3885C38.5725 70.4117 38.7114 70.4348 38.7809 70.4116C39.1281 70.3885 39.4522 70.2496 39.5216 70.0644C39.5448 69.9487 39.4522 69.8098 39.3364 69.7172C39.1512 69.5783 38.8966 69.5089 38.6651 69.4394C37.9475 69.2311 37.4614 69.1385 36.929 69.5552C36.7207 69.7172 36.5123 69.9255 36.3503 70.0876C36.1188 70.3422 35.8642 70.782 35.6327 71.1755C35.6095 71.2218 35.5864 71.2913 35.5401 71.3607C35.3549 71.6617 34.9151 71.5459 34.8919 71.1987C34.8919 71.1061 34.9151 71.0135 34.9845 70.8978C35.2392 70.4116 35.5401 69.9024 35.841 69.6015C36.1883 69.2542 36.6049 68.8376 37.091 68.6755C37.6929 68.4672 38.2947 68.6061 38.8503 68.7681C39.1512 68.8607 39.4753 68.9533 39.7531 69.1616C40.6096 69.8098 40.2624 71.0367 38.804 71.1061C38.5262 71.1292 38.017 70.9904 37.8086 71.0367C37.7623 71.1524 37.7623 71.4765 37.8086 71.5691C37.9475 71.708 37.9475 71.9163 37.8086 72.0552C37.716 72.2172 37.4846 72.2172 37.3457 72.0783Z" fill="#0D99FF"/>
<path d="M39.2888 75.1106C39.1962 75.1106 39.1267 75.0874 39.0573 75.018C38.9184 74.8791 38.9184 74.6708 39.0573 74.5319C39.7286 73.8374 40.0758 73.4671 40.6545 72.7958C40.5388 72.8652 40.3999 72.9115 40.2379 72.9115C39.5666 72.8883 39.2888 72.1476 39.798 71.5457C39.9601 71.3837 40.099 71.1985 40.3073 71.0133C40.4925 70.8513 40.724 70.6893 40.9323 70.5272C41.2564 70.2957 41.6036 70.2031 41.9045 70.2957C42.4138 70.4346 42.6221 70.9902 42.5064 71.43C42.3906 71.8698 42.0434 72.2402 41.7193 72.6106C40.7703 73.7217 40.3999 74.1152 39.5434 75.018C39.474 75.0643 39.3814 75.1106 39.2888 75.1106ZM40.7008 72.1013C40.8629 72.1939 40.9092 72.3791 40.8397 72.5411C40.9786 72.4022 41.0712 72.2865 41.4416 71.8467C41.6036 71.6615 41.7888 71.43 41.8351 71.2217C41.8582 71.1059 41.8119 70.9439 41.7193 70.9207C41.6268 70.8976 41.4879 70.9439 41.349 71.0365L41.2564 71.1059C40.7471 71.4763 40.6777 71.5689 40.423 71.8467L40.3536 71.9393C40.2842 72.0319 40.2379 72.1245 40.2379 72.1707H40.261C40.3536 72.055 40.5388 72.0319 40.7008 72.1013Z" fill="#0D99FF"/>
<path d="M38.8258 72.032C38.4323 71.5922 38.7795 70.782 39.1962 70.4348C39.3351 70.319 39.5666 70.319 39.6823 70.4811C39.798 70.62 39.798 70.8515 39.636 70.9672C39.4508 71.1292 39.3119 71.4765 39.3351 71.569C39.474 71.6848 39.798 71.5459 39.9138 71.407C40.0295 71.245 40.2379 71.2218 40.3999 71.3376C40.5619 71.4533 40.5851 71.6616 40.4694 71.8237C40.261 72.1015 39.8906 72.3098 39.5434 72.3098C39.2425 72.3098 38.9879 72.2172 38.8258 72.032ZM41.5342 70.8515C41.3953 70.7357 41.349 70.5274 41.4416 70.3885C41.4416 70.3422 41.4184 70.1802 41.3721 70.1107C41.3258 70.0413 41.0944 69.8561 41.0018 69.8329C40.8397 69.8329 40.6777 69.7172 40.6545 69.5551C40.6314 69.4394 40.6082 69.3931 40.4694 69.3237C40.2842 69.2311 39.9369 69.1616 39.8212 69.1848C39.6823 69.2311 39.5203 69.1848 39.4277 69.069C39.3351 68.9533 39.3351 68.7912 39.4045 68.6755C39.6592 68.282 41.5342 65.481 41.5805 65.0181C41.6036 64.9255 41.5573 64.856 41.511 64.8097C41.4416 64.7634 41.2795 64.7866 41.1407 64.856C40.886 64.9949 40.9323 65.0181 37.7841 69.1153C37.6684 69.2774 37.4601 69.3005 37.298 69.1848C37.136 69.069 37.1128 68.8607 37.2286 68.6987L40.1453 64.9023C40.3073 64.694 40.4925 64.4394 40.7703 64.2773C41.1406 64.069 41.5805 64.0459 41.8814 64.231C42.1592 64.4162 42.2981 64.7403 42.2518 65.1107C42.2286 65.3653 42.1129 65.5968 41.974 65.8051C41.4647 66.7311 40.886 67.657 40.3073 68.5366C40.724 68.6292 41.0944 68.8144 41.2564 69.2079C41.5573 69.3237 41.8582 69.6246 41.9508 69.7635C42.0897 69.995 42.2286 70.4811 41.9971 70.782C41.9045 70.944 41.6731 70.9672 41.5342 70.8515Z" fill="#0D99FF"/>
<path d="M39.1264 70.9211C39.0106 70.7822 39.0338 70.5507 39.1727 70.435C39.3579 70.2729 40.5384 69.347 40.7236 69.1849C40.8625 69.0692 41.094 69.0924 41.2097 69.2312C41.3255 69.3701 41.3023 69.6016 41.1634 69.7174C40.9551 69.8794 39.7977 70.8285 39.6125 70.9674C39.5662 71.0368 39.2653 71.0831 39.1264 70.9211ZM56.9737 109.694C56.4876 109.069 56.0246 108.421 55.5385 107.796C55.4228 107.634 55.4459 107.426 55.608 107.31C55.77 107.194 55.9783 107.218 56.0941 107.38C58.2006 110.134 58.3163 110.667 59.7747 110.019C61.1404 109.417 63.3858 108.097 64.3349 107.241C64.7052 106.917 65.0756 106.546 65.2145 106.106C65.3302 105.736 65.2608 105.25 64.8904 105.019C64.5664 104.81 64.1265 104.833 63.8951 104.88C63.5247 104.949 63.108 105.019 62.7145 105.157C59.3811 106.315 58.0848 104.486 57.7607 103.884C57.6682 103.722 57.7376 103.514 57.8996 103.421C58.0617 103.329 58.27 103.398 58.3626 103.56C58.6867 104.162 59.7515 105.458 62.483 104.509C62.9228 104.347 63.3858 104.278 63.7793 104.208C64.196 104.139 64.7978 104.116 65.2839 104.463C65.8627 104.856 66.0941 105.62 65.8627 106.338C65.6775 106.94 65.2377 107.38 64.7978 107.796C63.7562 108.722 61.4645 110.065 60.0524 110.69C58.6635 111.269 57.9228 110.944 56.9737 109.694ZM42.2282 122.241C42.0894 122.102 42.0894 121.894 42.2051 121.755C42.344 121.616 42.5523 121.616 42.6912 121.732C43.3857 122.38 44.5431 122.38 45.4921 122.357C48.5014 122.287 49.7051 122.426 50.5385 121.847C50.8394 121.639 51.094 121.292 51.0246 120.968C50.9783 120.713 50.7005 120.458 50.307 120.273C49.9135 120.088 49.4505 119.995 48.9875 119.833C47.1588 119.185 46.1403 118.051 46.0014 116.454C45.9783 116.269 46.1172 116.083 46.3023 116.083C46.4875 116.06 46.6727 116.199 46.6727 116.384C46.9273 118.931 49.6588 119.232 50.5848 119.648C50.932 119.81 51.557 120.181 51.6959 120.852C51.8116 121.431 51.5107 122.056 50.932 122.449C50.0987 123.028 48.9875 123.028 48.1774 123.051L45.4921 123.097C44.3347 123.051 43.0847 123.028 42.2282 122.241ZM13.8484 105.528H37.2051C36.8115 104.093 36.2791 102.657 35.793 101.292H13.8484V105.528ZM13.3855 101.292H7.06597C6.88079 101.292 6.71875 101.454 6.71875 101.639V105.181C6.71875 105.366 6.88079 105.528 7.06597 105.528H13.3855V101.292Z" fill="#0D99FF"/>
<path d="M33.9455 83.5108C34.7874 83.4537 35.4376 82.9319 35.3979 82.3451C35.3581 81.7584 34.6435 81.329 33.8016 81.386C32.9598 81.443 32.3096 81.9649 32.3493 82.5516C32.389 83.1384 33.1037 83.5678 33.9455 83.5108Z" fill="#0D99FF"/>
<path d="M48.4791 115.898C47.9467 112.426 46.6272 106.153 45.8171 102.542C43.5485 100.134 41.0022 98.1665 38.5485 96.9165C37.0438 96.1757 36.5114 96.2683 35.2383 98.1896C35.4003 98.7452 35.5855 99.347 35.7938 99.9952C35.8864 100.065 35.8633 100.134 36.1411 100.875C36.8587 102.912 37.8077 105.412 38.1781 107.75V107.866C39.104 111.06 39.9142 114.069 40.3078 116.338C40.3309 116.5 40.4698 116.616 40.6318 116.616C43.0393 116.824 45.7939 116.616 48.2013 116.268C48.2939 116.245 48.3865 116.199 48.4328 116.13C48.456 116.083 48.4791 115.991 48.4791 115.898ZM39.8448 105.088C39.7522 105.157 39.6133 105.204 39.4976 105.204C38.9883 105.204 38.6411 104.671 38.8726 104.023C38.9652 103.815 39.0346 103.699 39.2198 103.398C39.2661 103.305 39.2661 103.259 39.2661 103.259C39.2198 103.236 39.0346 103.19 38.8957 103.074C38.6411 102.842 38.7337 102.495 38.8031 102.264C38.942 101.754 38.8263 101.963 38.4559 101.801C38.1318 101.662 37.9929 101.315 38.0161 101.014C38.0392 100.736 38.155 100.504 38.2476 100.296C38.317 100.18 38.4559 100.134 38.5485 100.204C38.6642 100.273 38.7105 100.412 38.6411 100.504C38.5485 100.69 38.4559 100.875 38.4559 101.06C38.4559 101.199 38.5022 101.361 38.6179 101.407C38.7568 101.454 38.9652 101.43 39.1503 101.592C39.405 101.824 39.3124 102.171 39.2429 102.403C39.1503 102.773 39.1735 102.75 39.3124 102.819C39.4281 102.866 39.567 102.912 39.6596 103.074C39.8679 103.444 39.4513 103.838 39.2892 104.231C39.1966 104.463 39.2198 104.764 39.4513 104.787C39.4744 104.787 39.5207 104.787 39.5439 104.764C39.6365 104.671 39.7985 104.694 39.8679 104.787C39.9605 104.856 39.9374 105.018 39.8448 105.088Z" fill="#0D99FF"/>
<path d="M59.0588 102.218C52.7856 96.1296 43.6652 90.25 38.7809 87.287C38.5262 87.1249 38.2253 87.3333 38.2485 87.6342C37.1836 87.5185 35.7021 87.7962 34.7299 87.912C32.5771 88.1898 30.4938 88.8148 28.4336 89.5324C27.878 89.7407 27.2067 90.1342 26.6049 90.0879C26.3734 90.0648 26.1419 90.0416 25.9104 90.0648C25.3317 90.1805 25.0076 90.7361 24.4984 90.9907C24.2206 91.1296 23.8734 91.199 23.5493 91.2916L22.5076 91.6389C18.4567 92.9815 13.9196 93.7453 9.98438 92.1018C11.1881 95.4352 12.6464 99.0695 15.6326 100.921H31.5123C33.1558 99.6945 33.1327 99.625 34.4058 98.6296C34.4058 98.5602 34.429 98.5602 34.6142 98.2593C35.1697 97.3565 35.9568 96.1296 36.929 96.037C37.5772 95.9676 38.2022 96.2454 38.7114 96.5C41.5818 97.9352 44.5448 100.343 47.0448 103.259C49.4059 105.065 51.9059 107.148 54.5449 109.532C54.7069 109.671 54.9615 109.648 55.0773 109.463C56.443 107.264 57.7162 104.857 59.0588 102.657C59.1977 102.495 59.1745 102.333 59.0588 102.218ZM12.7853 96.7546C12.6927 96.7546 12.6001 96.7083 12.577 96.6157L12.2066 95.6435C12.1603 95.5278 12.2298 95.3889 12.3455 95.3426C12.4612 95.2963 12.6001 95.3657 12.6464 95.4815L13.0168 96.4537C13.0631 96.5926 12.9474 96.7546 12.7853 96.7546ZM14.3594 95.8055C14.29 95.8055 14.1974 95.7593 14.1511 95.6898L13.665 94.8333C13.5955 94.7176 13.6418 94.5787 13.7575 94.5092C13.8733 94.4398 14.0122 94.4861 14.0816 94.6018L14.5677 95.4583C14.6372 95.5972 14.5446 95.8055 14.3594 95.8055ZM27.6234 95.5278C24.5215 96.7778 21.003 97.1019 17.7391 96.3843C17.6233 96.3611 17.5307 96.2454 17.5539 96.1065C17.577 95.9907 17.6928 95.8981 17.8316 95.9213C21.003 96.5926 24.4289 96.3148 27.4382 95.0879C27.5539 95.0417 27.6928 95.088 27.7391 95.2268C27.7854 95.3426 27.7391 95.4815 27.6234 95.5278ZM35.7484 89.4629C35.2623 89.4398 34.7531 89.5787 34.3827 89.8796C34.2901 89.949 34.1281 89.949 34.0586 89.8333C33.9892 89.7407 33.9892 89.5787 34.1049 89.5092C34.5679 89.1388 35.1929 88.9537 35.7947 88.9768C35.9336 88.9768 36.0262 89.0925 36.0031 89.2314C35.9799 89.3703 35.8642 89.4629 35.7484 89.4629ZM52.7393 100.782C52.1374 101.454 51.0726 101.384 50.355 100.898C49.0356 99.9954 48.8272 98.1204 47.6467 97.287C47.1374 96.9398 46.4892 96.8009 45.8642 96.5694C44.3133 95.9676 43.3411 95.0185 39.0586 91.4537C38.966 91.3611 38.9429 91.2222 39.0355 91.1296C39.1281 91.037 39.267 91.0139 39.3596 91.1064C43.7346 94.7639 44.5911 95.5972 46.0263 96.1528C46.6513 96.3843 47.3226 96.5231 47.9013 96.9398C49.2207 97.8657 49.4059 99.7176 50.6096 100.551C51.1189 100.898 51.9522 100.991 52.3921 100.528C52.4847 100.435 52.6235 100.435 52.7161 100.505C52.8087 100.551 52.8319 100.69 52.7393 100.782Z" fill="#0D99FF"/>
<path d="M16.5349 101.384C18.109 102.102 19.9146 102.287 21.6507 102.356C24.3128 102.495 27.1369 102.38 29.6137 101.523C29.5211 101.824 29.8684 102.079 30.123 101.917C30.4008 101.731 30.6554 101.546 30.91 101.361H16.5349V101.384ZM9.93767 75.3424C9.82193 75.2035 9.84507 74.972 9.98396 74.8563C10.7247 74.2544 10.6321 72.9581 11.0719 71.9859C11.3729 71.3377 11.9284 70.7822 12.5997 70.5044C12.7849 70.4349 12.9701 70.5044 13.0627 70.6896C13.1321 70.8747 13.0627 71.0599 12.8775 71.1525C12.3682 71.3609 11.9516 71.7775 11.7201 72.2868C11.3034 73.1896 11.4192 74.6248 10.4238 75.4118C10.3775 75.435 10.0534 75.4813 9.93767 75.3424ZM20.447 78.9072C20.2618 78.9072 20.0998 78.7452 20.1229 78.5368L20.1461 77.9581C19.8914 77.7729 19.7294 77.4952 19.6831 77.1942C19.6368 76.8007 19.7988 76.384 20.1229 76.1526C20.285 76.0368 20.4933 76.06 20.609 76.222C20.7248 76.384 20.7016 76.5924 20.5396 76.7081C20.4238 76.8007 20.3544 76.9628 20.3776 77.1016C20.4007 77.2405 20.5164 77.3794 20.6322 77.4489C20.7711 77.4952 20.8637 77.6341 20.8405 77.7961L20.7942 78.5831C20.7942 78.7683 20.6322 78.9072 20.447 78.9072ZM15.4701 91.5925C15.146 91.4073 14.8914 91.1064 14.7294 90.7823C14.6368 90.6202 14.7062 90.4119 14.8914 90.3193C15.0534 90.2267 15.2618 90.2962 15.3544 90.4814C15.4701 90.6897 15.6321 90.8749 15.8405 91.0138C16.0025 91.1064 16.0488 91.3378 15.9562 91.4999C15.8405 91.6388 15.6322 91.6851 15.4701 91.5925ZM13.5025 91.8703L12.646 90.8517C12.5303 90.7128 12.5303 90.4814 12.6923 90.3656C12.8312 90.2499 13.0627 90.2499 13.1784 90.4119L14.0349 91.4304C14.1507 91.5693 14.1507 91.8008 13.9886 91.9166C13.8497 92.0554 13.6182 92.0323 13.5025 91.8703ZM62.276 106.083C62.2528 105.898 62.3917 105.713 62.5769 105.69L63.9195 105.505C64.1047 105.481 64.2899 105.62 64.313 105.806C64.3362 105.991 64.1973 106.176 64.0121 106.199L62.6695 106.384C62.4612 106.407 62.2991 106.268 62.276 106.083ZM43.8036 121.014C43.4796 120.505 43.3175 119.903 43.3407 119.301C43.3407 119.116 43.5027 118.954 43.6879 118.954C43.8731 118.954 44.0351 119.116 44.0351 119.301C44.012 119.764 44.1509 120.25 44.4055 120.644C44.4981 120.806 44.4518 121.014 44.2897 121.13C44.1277 121.222 43.8962 121.176 43.8036 121.014ZM3.10892 93.9305C-0.270734 87.6804 -0.942034 79.9026 1.3265 73.1664C1.39594 72.9812 1.58113 72.8886 1.76632 72.9581C1.9515 73.0275 2.0441 73.2127 1.97465 73.3979C-0.224436 79.972 0.423717 87.5184 3.71078 93.6064C3.80337 93.7684 3.73392 93.9767 3.57188 94.0693C3.40985 94.1619 3.20151 94.0925 3.10892 93.9305ZM18.3405 64.8793C18.2711 64.6942 18.3868 64.509 18.5488 64.4395C18.734 64.3701 18.9192 64.4858 18.9887 64.6479C19.197 65.2729 20.0303 65.5043 20.6322 65.3192C21.234 65.1108 21.7664 64.6016 22.2294 63.7682C22.7618 62.8191 23.0628 61.7312 23.1322 60.6432C23.1553 60.1339 22.947 59.671 22.7618 59.1617C20.8868 60.5275 18.8035 60.6895 17.1368 59.5784C17.0673 59.5321 17.021 59.5089 16.7664 59.5784C16.5812 59.6478 16.3497 60.2265 16.4423 60.5275C16.5349 60.8284 16.7201 61.0367 17.0442 61.3145C17.1831 61.4302 17.2062 61.6617 17.0905 61.8006C16.9748 61.9395 16.7433 61.9627 16.6044 61.8469C16.2572 61.5691 15.9331 61.2451 15.771 60.7126C15.6321 60.1802 15.9331 59.1617 16.5349 58.9302C16.8127 58.8376 17.1599 58.7682 17.5072 58.9997C19.0581 60.0182 20.9331 59.7636 22.7155 58.3052C22.9007 58.1432 23.2016 58.2358 23.2711 58.4904C23.4563 59.208 23.8498 59.833 23.8035 60.6895C23.6878 62.634 22.6924 65.3886 20.8405 65.9905C19.9146 66.2914 18.6646 65.8979 18.3405 64.8793Z" fill="#0D99FF"/>
<path d="M17.6924 64.2772C17.1831 63.93 17.0674 63.467 16.9516 62.9578C16.9053 62.7726 17.0211 62.5874 17.2062 62.5411C17.3914 62.4948 17.5766 62.6106 17.6229 62.7957C17.7387 63.2819 17.8081 63.5365 18.0627 63.7217C18.2248 63.8374 18.2711 64.0458 18.1553 64.2078C18.0627 64.3467 17.8544 64.393 17.6924 64.2772ZM21.3035 63.0735C21.4192 62.9346 21.6044 62.9115 21.7433 62.9809C21.8359 62.8883 21.7202 62.5874 21.697 62.4717C21.4192 61.5689 21.8359 61.2217 22.16 61.3837C22.322 61.4763 22.4146 61.6846 22.322 61.8467C22.2063 62.0781 22.5998 62.6106 22.4609 63.143C22.3915 63.3745 22.1831 63.5828 21.9516 63.6522C21.4655 63.7911 21.0489 63.3976 21.3035 63.0735ZM20.5628 64.2772C20.4239 64.1383 20.4239 63.93 20.5628 63.7911C20.7016 63.6522 20.91 63.6522 21.0489 63.7911C21.0952 63.8374 21.1646 63.8606 21.2341 63.8606C21.4192 63.8374 21.6044 63.9532 21.6276 64.1383C21.6507 64.3235 21.535 64.5087 21.3498 64.5319C21.072 64.6013 20.7711 64.5087 20.5628 64.2772Z" fill="#0D99FF"/>
<path d="M13.0412 63.9069C13.6893 64.4624 15.4023 65.4347 16.2819 64.8559C16.5828 64.6476 16.7449 64.3004 16.8143 63.93C16.8838 63.5596 16.9069 63.4439 16.9301 63.0735C16.9301 62.7495 17.1153 62.0087 17.069 61.7309C16.9995 61.43 16.7217 61.4068 16.5597 61.1754C16.3745 60.9439 16.2588 60.7587 16.1893 60.4578C15.981 59.3698 16.9069 58.9068 17.6245 59.5318C18.481 60.2726 20.1245 60.8281 21.1199 60.0642C21.2357 59.9717 21.3514 59.8559 21.5134 59.8328C21.7449 59.8096 21.9301 60.018 22.0921 60.18C22.2542 60.342 22.4857 60.5272 22.7171 60.4115C22.9486 60.2957 23.0412 59.8559 23.2958 59.9254C23.5736 59.9717 23.5273 60.5041 23.8514 60.4809C24.0134 60.4809 24.1523 60.342 24.1755 60.18C24.3607 58.9068 23.944 57.5411 23.0875 56.592C22.3236 55.7587 20.5875 55.7355 19.4069 55.7818C19.268 55.7818 19.1755 55.6661 19.1986 55.5272C19.3375 54.7401 20.0782 53.7679 17.7171 53.1198C16.6523 52.8188 15.4949 52.8188 14.4995 53.3049C13.5041 53.7911 12.7634 54.8327 12.7634 55.9439C12.7634 57.055 13.6662 58.1661 14.7773 58.1892C14.0365 58.6753 13.2958 59.1615 12.7634 59.8559C12.2078 60.5504 11.8606 61.4531 12.0689 62.3328C12.1152 62.9578 12.5319 63.4902 13.0412 63.9069Z" fill="#0D99FF"/>
<path d="M16.073 67.3329C15.8878 67.3098 15.7489 67.1246 15.7721 66.9394L16.0962 64.4163C16.1193 64.2311 16.3045 64.0922 16.4897 64.1153C16.6749 64.1385 16.8138 64.3237 16.7906 64.5089L16.4665 67.032C16.4434 67.2172 16.2582 67.3561 16.073 67.3329ZM10.3785 59.4394C10.4711 59.2773 10.6795 59.2079 10.8415 59.3005C10.8878 59.3236 11.0498 59.2542 11.1656 59.1153C11.2119 59.069 11.2582 58.9996 11.2813 58.9533C11.698 58.3746 11.9758 58.2588 12.6702 58.3051H12.7628C13.3647 58.3283 13.9665 58.2125 14.4989 57.9116C14.661 57.819 14.8693 57.8884 14.9619 58.0505C15.0545 58.2125 14.985 58.4209 14.823 58.5134C13.6887 59.1384 12.6702 58.9764 12.6239 58.9764C12.1609 58.9533 12.1146 58.9533 11.8369 59.3468C11.7906 59.4162 11.7443 59.4857 11.698 59.532C11.0267 60.3653 10.1007 59.9255 10.3785 59.4394ZM34.175 123.259H16.698C16.5128 123.259 16.3508 123.097 16.3508 122.912C16.3508 122.727 16.5128 122.565 16.698 122.565H34.175C34.3602 122.565 34.5222 122.727 34.5222 122.912C34.5222 123.097 34.3602 123.259 34.175 123.259ZM15.1471 123.259H2.87847C2.69329 123.259 2.53125 123.097 2.53125 122.912C2.53125 122.727 2.69329 122.565 2.87847 122.565H15.1471C15.3323 122.565 15.4943 122.727 15.4943 122.912C15.4943 123.097 15.3323 123.259 15.1471 123.259ZM64.0594 123.259H53.689C53.5038 123.259 53.3418 123.097 53.3418 122.912C53.3418 122.727 53.5038 122.565 53.689 122.565H64.0594C64.2446 122.565 64.4067 122.727 64.4067 122.912C64.4067 123.097 64.2446 123.259 64.0594 123.259Z" fill="#0D99FF"/>
<path d="M53.687 123.259C53.5249 123.259 53.3629 123.143 53.3397 122.981C53.2703 122.634 53.6869 122.426 53.9416 122.68C54.011 122.75 54.0342 122.842 54.0342 122.935C54.0342 123.097 53.8721 123.259 53.687 123.259Z" fill="#0D99FF"/>
<path d="M53.6871 123.259C53.5019 123.259 53.3398 123.097 53.3398 122.912C53.3398 122.727 53.5019 122.565 53.6871 122.565C53.8723 122.565 54.0343 122.727 54.0343 122.912C54.0343 123.097 53.8723 123.259 53.6871 123.259ZM101.257 47.2632C101.025 47.0318 100.886 46.7077 100.886 46.3605V38.3974C100.886 37.7261 101.419 37.1706 102.09 37.1243L113.201 36.6613C113.919 36.6382 114.521 37.2169 114.521 37.9345L114.498 40.4808C114.498 40.666 114.336 40.828 114.15 40.828C113.965 40.828 113.803 40.666 113.803 40.4808L113.826 37.9345C113.826 37.6104 113.549 37.3558 113.225 37.3558L102.113 37.8187C101.812 37.8419 101.558 38.0734 101.558 38.3974V46.3605C101.558 46.6845 101.812 46.9392 102.136 46.9392L113.155 46.916C113.456 46.916 113.711 46.6614 113.734 46.3605C113.734 45.3882 113.78 43.004 113.78 42.4484C113.78 42.2632 113.942 42.1012 114.127 42.1012C114.312 42.1012 114.475 42.2632 114.475 42.4484L114.428 46.3605C114.428 47.0549 113.849 47.6105 113.155 47.6105L102.136 47.6336C102.09 47.6105 101.65 47.6568 101.257 47.2632ZM106.951 58.5365C106.766 58.5365 106.604 58.3744 106.604 58.1892L106.674 48.9994C106.674 48.8142 106.836 48.6521 107.021 48.6521C107.206 48.6521 107.368 48.8142 107.368 48.9994L107.299 58.1892C107.299 58.3744 107.16 58.5365 106.951 58.5365ZM113.456 92.1709C113.271 92.1709 113.109 92.0089 113.109 91.8237V79.2773H109.567C109.382 79.2773 109.22 79.1153 109.22 78.9301C109.22 78.7449 109.382 78.5829 109.567 78.5829H113.456C113.641 78.5829 113.803 78.7449 113.803 78.9301V91.8237C113.803 92.0089 113.664 92.1709 113.456 92.1709Z" fill="#0D99FF"/>
<path d="M28.0627 50.6661C28.5488 50.6892 29.0581 50.7124 29.5442 50.5966C30.0303 50.4809 30.4933 50.1568 30.6322 49.6707C30.7711 49.1846 30.4933 48.5827 29.984 48.5364C28.4331 49.7401 26.3497 50.0642 24.4053 49.8096C22.4608 49.555 20.6321 48.7911 18.8497 47.9346C18.5951 48.629 18.7108 49.4161 19.0349 50.0874C19.984 52.055 20.5858 51.8698 22.4377 51.3605C24.2895 50.8513 26.1877 50.6198 28.0627 50.6661Z" fill="#0D99FF"/>
<path d="M28.7357 40.9899L19.5458 41.5223C18.5967 41.5686 17.8328 42.4251 17.856 43.3973L17.8791 48.3742C17.8791 49.3465 18.6199 50.1566 19.5458 50.2029L19.7773 50.2261V51.9391C19.7773 52.24 20.1477 52.402 20.3791 52.1937L22.2079 50.365L28.5968 50.7354C29.7079 50.8048 30.6801 49.9715 30.7033 48.8835C30.7727 46.9622 30.7727 44.902 30.8422 42.9807C30.8422 42.4251 29.8931 40.9205 28.7357 40.9899ZM26.444 47.0779H21.2356C21.0967 47.0779 21.0042 46.9853 21.0042 46.8464C21.0042 46.7076 21.0967 46.615 21.2356 46.615H26.444C26.5829 46.615 26.6755 46.7076 26.6755 46.8464C26.6755 46.9853 26.5829 47.0779 26.444 47.0779ZM29.1292 44.5316C24.4532 44.6474 20.4023 44.7399 20.4486 44.7399C20.3329 44.7399 20.2171 44.6474 20.2171 44.5085C20.2171 44.3696 20.3097 44.277 20.4486 44.277C25.1246 44.1612 29.1755 44.0686 29.1292 44.0686C29.2449 44.0686 29.3607 44.1612 29.3607 44.3001C29.3607 44.4159 29.2681 44.5316 29.1292 44.5316ZM33.0876 44.5548C32.8561 42.564 31.6987 40.689 30.0551 39.5779C29.8931 39.4621 29.8468 39.2538 29.9625 39.0918C30.0783 38.9297 30.2866 38.8834 30.4487 38.9992C32.2774 40.2492 33.5274 42.2862 33.782 44.4853C33.8052 44.6705 33.6663 44.8557 33.4811 44.8788C33.2727 44.8788 33.1107 44.7399 33.0876 44.5548ZM34.5922 42.3557C34.4302 41.2446 33.9209 40.1797 33.157 39.3695C33.0181 39.2306 33.0413 38.9992 33.1802 38.8834C33.319 38.7677 33.5505 38.7677 33.6663 38.9066C34.5228 39.8325 35.0783 41.0131 35.2635 42.2631C35.2867 42.4483 35.1709 42.6334 34.9626 42.6566C34.8005 42.6566 34.6154 42.5409 34.5922 42.3557ZM82.8101 52.4715L81.9305 50.8742C81.8379 50.7122 81.9073 50.5039 82.0694 50.4113C82.2314 50.3187 82.4397 50.3881 82.5323 50.5502L83.412 52.1474C83.5046 52.3094 83.4351 52.5178 83.2731 52.6104C83.111 52.703 82.9027 52.6335 82.8101 52.4715Z" fill="#0D99FF"/>
<path d="M82.7852 52.4485C82.7389 52.2633 82.8315 52.0781 83.0167 52.0087L84.5908 51.5225C84.776 51.4762 84.9612 51.5688 85.0306 51.754C85.0769 51.9392 84.9843 52.1244 84.7991 52.1938L83.2251 52.68C83.0399 52.7263 82.8315 52.6337 82.7852 52.4485Z" fill="#0D99FF"/>
<path d="M84.6808 52.1012C84.4956 52.0317 84.403 51.8466 84.4493 51.6614L84.8891 50.3419C84.9586 50.1567 85.1437 50.0641 85.3289 50.1104C85.5141 50.1799 85.6067 50.3651 85.5604 50.5502L85.1206 51.8697C85.0743 52.0549 84.866 52.1475 84.6808 52.1012Z" fill="#0D99FF"/>
<path d="M86.9309 51.1061L85.1948 50.7589C85.0096 50.7126 84.8938 50.5506 84.917 50.3422C84.9633 50.1571 85.1485 50.0413 85.3337 50.0645L87.0698 50.4117C87.255 50.458 87.3707 50.62 87.3476 50.8284C87.3244 51.0135 87.1392 51.1524 86.9309 51.1061Z" fill="#0D99FF"/>
<path d="M86.6969 52.6104C86.5117 52.5873 86.3728 52.4021 86.4191 52.2169L86.6969 50.6891C86.7201 50.5039 86.9052 50.365 87.0904 50.4113C87.2756 50.4345 87.4145 50.6197 87.3682 50.8048L87.0904 52.3326C87.0673 52.541 86.8821 52.6567 86.6969 52.6104Z" fill="#0D99FF"/>
<path d="M87.7134 53.6058C87.3894 53.1891 86.9958 52.8419 86.556 52.5641C86.394 52.4715 86.3245 52.2632 86.4403 52.078C86.5329 51.916 86.7412 51.8465 86.9264 51.9623C87.4588 52.2632 87.9218 52.6799 88.2922 53.166C88.4079 53.328 88.3847 53.5363 88.2227 53.6521C88.0607 53.791 87.8292 53.7678 87.7134 53.6058Z" fill="#0D99FF"/>
<path d="M87.7635 53.5828C87.6478 53.4208 87.6941 53.2125 87.8561 53.0967C88.3422 52.7726 88.8515 52.518 89.407 52.3097C89.5922 52.2402 89.7774 52.3328 89.8469 52.518C89.9163 52.7032 89.8237 52.8884 89.6385 52.9578C89.1524 53.143 88.6663 53.3976 88.2265 53.6754C88.0876 53.7912 87.8793 53.7449 87.7635 53.5828Z" fill="#0D99FF"/>
<path d="M90.3534 54.4393C90.0757 53.8838 89.7053 53.3745 89.2886 52.9115C89.1497 52.7726 89.1729 52.5412 89.3118 52.4254C89.4507 52.3097 89.6821 52.3097 89.7979 52.4486C90.2609 52.9578 90.6312 53.5134 90.9553 54.1152C91.0479 54.2773 90.9785 54.4856 90.8164 54.5782C90.6544 54.6708 90.446 54.6014 90.3534 54.4393Z" fill="#0D99FF"/>
<path d="M89.1268 55.5734C89.0111 55.4113 89.0574 55.203 89.2194 55.0873C89.6129 54.8326 89.9833 54.5085 90.2842 54.115C90.3999 53.9761 90.6314 53.9298 90.7703 54.0687C90.9324 54.1845 90.9555 54.416 90.8166 54.5548C90.4694 54.9947 90.0527 55.365 89.5898 55.666C89.4509 55.7817 89.2425 55.7354 89.1268 55.5734Z" fill="#0D99FF"/>
<path d="M89.1046 56.7077L89.0352 55.5271C89.0352 55.3419 89.174 55.1799 89.3592 55.1567C89.5676 55.1567 89.7065 55.2956 89.7296 55.4808L89.7991 56.6614C89.7991 56.8466 89.6602 57.0086 89.475 57.0318C89.2666 57.0318 89.1046 56.8929 89.1046 56.7077Z" fill="#0D99FF"/>
<path d="M90.7934 57.4948C90.423 57.2864 89.8443 57.1707 89.4276 57.055C89.2424 57.0087 89.1267 56.8003 89.1962 56.6151C89.2424 56.4299 89.4508 56.3142 89.636 56.3837C90.0989 56.5225 90.7008 56.6383 91.1406 56.8929C91.3026 56.9855 91.3721 57.1938 91.2795 57.3559C91.1638 57.5179 90.9554 57.5874 90.7934 57.4948Z" fill="#0D99FF"/>
<path d="M90.4682 59.5089C90.283 59.4626 90.1673 59.2774 90.1904 59.0922C90.3293 58.444 90.3988 57.8885 90.5608 57.194C90.6071 57.0089 90.7923 56.8931 90.9775 56.9394C91.1627 56.9857 91.2784 57.1709 91.2321 57.3561C91.0701 58.0274 90.9775 58.6061 90.8617 59.2311C90.8386 59.4394 90.6534 59.5552 90.4682 59.5089Z" fill="#0D99FF"/>
<path d="M90.4233 59.5782C89.8909 59.5088 89.4279 59.4162 88.8261 59.2542C88.6409 59.2079 88.5251 58.9995 88.5946 58.8144C88.6409 58.6292 88.8492 58.5134 89.0344 58.5829C89.59 58.7449 90.0298 58.8375 90.5159 58.8838C90.7011 58.9069 90.84 59.069 90.8168 59.2773C90.7937 59.4857 90.6085 59.6014 90.4233 59.5782Z" fill="#0D99FF"/>
<path d="M87.5995 60.1105C87.4837 59.9484 87.53 59.7401 87.692 59.6244C88.1782 59.3003 88.4791 58.9994 88.6643 58.6984C88.7569 58.5364 88.9652 58.4669 89.1272 58.5595C89.2893 58.6521 89.3587 58.8605 89.2661 59.0225C89.0346 59.416 88.6411 59.8095 88.0856 60.1799C87.9235 60.3188 87.692 60.2725 87.5995 60.1105Z" fill="#0D99FF"/>
<path d="M88.2243 61.7312C88.0622 61.1756 87.8539 60.6201 87.5993 60.0876C87.5067 59.9256 87.5993 59.7173 87.7613 59.6247C87.9234 59.5321 88.1317 59.6247 88.2243 59.7867C88.5021 60.3423 88.7104 60.9441 88.8724 61.546C88.9187 61.7312 88.8261 61.9164 88.641 61.9627C88.4558 62.0321 88.2706 61.9164 88.2243 61.7312Z" fill="#0D99FF"/>
<path d="M86.6754 62.5874C86.606 62.4022 86.6985 62.217 86.8837 62.1476C87.4161 61.9624 87.9023 61.6846 88.3652 61.3605C88.5273 61.2448 88.7356 61.2911 88.8513 61.43C88.9671 61.592 88.9208 61.8003 88.7819 61.9161C88.2726 62.2865 87.7171 62.5874 87.1384 62.7957C86.9532 62.842 86.7448 62.7494 86.6754 62.5874Z" fill="#0D99FF"/>
<path d="M86.7177 62.657L85.8612 61.4532C85.7454 61.2912 85.7917 61.0829 85.9538 60.9671C86.1158 60.8514 86.3241 60.8977 86.4399 61.0597L87.2964 62.2634C87.4121 62.4255 87.3658 62.6338 87.2038 62.7495C87.0417 62.8653 86.8334 62.819 86.7177 62.657Z" fill="#0D99FF"/>
<path d="M84.2444 61.5225C84.2213 61.3374 84.3833 61.1753 84.5685 61.1522C85.0777 61.1059 85.425 61.0364 86.05 60.9438C86.2352 60.9207 86.4203 61.0364 86.4435 61.2448C86.4666 61.4531 86.3509 61.6151 86.1426 61.6383C85.4944 61.7309 85.1472 61.8003 84.5916 61.8466C84.4296 61.8466 84.2444 61.7077 84.2444 61.5225Z" fill="#0D99FF"/>
<path d="M83.8053 63.3052C83.6202 63.2357 83.5507 63.0274 83.6202 62.8422L84.2683 61.3376C84.3378 61.1524 84.5461 61.0829 84.7313 61.1524C84.9165 61.2218 84.9859 61.4302 84.9165 61.6154L84.2683 63.12C84.1989 63.282 83.9905 63.3746 83.8053 63.3052Z" fill="#0D99FF"/>
<path d="M83.9202 63.3513C83.2489 63.2587 82.9017 63.0967 82.1378 62.8652C81.9526 62.8189 81.86 62.6106 81.9063 62.4254C81.9526 62.2402 82.161 62.1476 82.3461 62.1939C83.1563 62.4254 83.4341 62.5643 84.036 62.6569C84.2212 62.68 84.36 62.8652 84.3369 63.0504C84.2675 63.2356 84.1054 63.3745 83.9202 63.3513Z" fill="#0D99FF"/>
<path d="M82.1628 62.8653C81.9776 62.8421 81.8388 62.657 81.8619 62.4718L82.0702 60.8977C82.0934 60.7125 82.2786 60.5736 82.4638 60.5968C82.6489 60.6199 82.7878 60.8051 82.7647 60.9903L82.5563 62.5644C82.5332 62.7727 82.348 62.9116 82.1628 62.8653Z" fill="#0D99FF"/>
<path d="M82.2067 61.2449C81.8826 60.944 81.4659 60.5505 81.0955 60.2032C80.9567 60.0643 80.9566 59.856 81.0724 59.7171C81.2113 59.5782 81.4196 59.5782 81.5585 59.694C81.8826 59.9949 82.2992 60.3884 82.6696 60.7356C82.8085 60.8745 82.8085 61.0829 82.6928 61.2218C82.577 61.3838 82.3455 61.3838 82.2067 61.2449Z" fill="#0D99FF"/>
<path d="M79.4744 60.9673C79.3818 60.8053 79.4513 60.5969 79.6365 60.5044C80.1457 60.2497 80.6781 59.9719 81.1643 59.6942C81.3263 59.6016 81.5346 59.6479 81.6504 59.8099C81.743 59.9719 81.6967 60.1803 81.5346 60.296C81.0254 60.5969 80.493 60.8747 79.9605 61.1294C79.7522 61.1988 79.5439 61.1294 79.4744 60.9673Z" fill="#0D99FF"/>
<path d="M79.4516 61.06C78.9655 60.5739 78.5488 60.0183 78.2479 59.3933C78.1553 59.2313 78.2247 59.0229 78.4099 58.9303C78.5719 58.8377 78.7803 58.9303 78.8729 59.0924C79.1507 59.6479 79.4979 60.1341 79.9377 60.5739C80.0766 60.7128 80.0766 60.9211 79.9377 61.06C79.7988 61.1757 79.5905 61.1989 79.4516 61.06Z" fill="#0D99FF"/>
<path d="M78.2961 59.4622C78.1803 59.3002 78.2266 59.0919 78.3655 58.9761L79.847 57.9113C80.009 57.7956 80.2174 57.8419 80.3331 57.9807C80.4489 58.1428 80.4026 58.3511 80.2637 58.4669L78.7822 59.5317C78.6201 59.6474 78.4118 59.6243 78.2961 59.4622Z" fill="#0D99FF"/>
<path d="M79.6814 58.2821C79.5888 57.8191 79.4036 57.2867 79.311 56.7775C79.2647 56.5923 79.3804 56.4071 79.5656 56.3608C79.7508 56.3145 79.936 56.4302 79.9823 56.6154C80.0749 57.0784 80.2601 57.6339 80.3527 58.1201C80.399 58.3052 80.2832 58.4904 80.098 58.5367C79.9128 58.583 79.7277 58.4673 79.6814 58.2821Z" fill="#0D99FF"/>
<path d="M79.5683 57.032L78.0869 56.5228C77.9017 56.4533 77.8091 56.2681 77.8785 56.083C77.948 55.8978 78.1332 55.8052 78.3183 55.8746L79.7998 56.3839C79.985 56.4533 80.0776 56.6385 80.0082 56.8237C79.9387 57.0089 79.7535 57.1015 79.5683 57.032Z" fill="#0D99FF"/>
<path d="M78.0402 56.4997C77.855 56.4303 77.7624 56.2451 77.8087 56.0599L78.3874 54.2775C78.4568 54.0923 78.642 53.9997 78.8272 54.046C79.0124 54.1154 79.105 54.3006 79.0587 54.4858L78.48 56.2682C78.4105 56.4534 78.2253 56.546 78.0402 56.4997Z" fill="#0D99FF"/>
<path d="M78.619 54.7403C78.4339 54.694 78.3181 54.5088 78.3876 54.3236C78.4339 54.1384 78.619 54.0227 78.8042 54.0921C79.3366 54.231 79.9153 54.2773 80.4709 54.2079C80.6561 54.1847 80.8413 54.3236 80.8644 54.5088C80.8876 54.694 80.7487 54.8792 80.5635 54.9023C79.9153 54.9486 79.244 54.9023 78.619 54.7403Z" fill="#0D99FF"/>
<path d="M80.3092 54.8094C80.1472 54.6937 80.1009 54.4853 80.2166 54.3233L80.9805 53.1427C81.0963 52.9807 81.3046 52.9344 81.4666 53.0501C81.6287 53.1659 81.675 53.3742 81.5592 53.5362L80.7953 54.7168C80.6796 54.8788 80.4713 54.902 80.3092 54.8094Z" fill="#0D99FF"/>
<path d="M80.9806 53.467L80.1704 51.9161C80.0778 51.754 80.1472 51.5457 80.3093 51.4531C80.4713 51.3605 80.6796 51.4299 80.7722 51.592L81.5824 53.1429C81.675 53.305 81.6056 53.5133 81.4435 53.6059C81.2815 53.6985 81.05 53.629 80.9806 53.467Z" fill="#0D99FF"/>
<path d="M80.1463 51.8927C80.0537 51.7307 80.1232 51.5224 80.3083 51.4298C80.8871 51.152 81.4658 50.7353 82.0908 50.4344C82.2528 50.3418 82.4611 50.4112 82.5537 50.5964C82.6463 50.7585 82.5769 50.9668 82.3917 51.0594C81.813 51.3372 81.2343 51.7538 80.6093 52.0548C80.4472 52.1242 80.2389 52.0548 80.1463 51.8927ZM86.9751 58.49C86.1649 59.4854 84.6602 59.8326 83.4797 59.3233C82.3222 58.7909 81.5815 57.4252 81.7898 56.1752C81.9982 54.902 83.1324 53.8603 84.4056 53.7446C85.3778 53.652 86.0028 53.8835 86.8362 54.6242L87.1602 54.9715C87.9241 55.99 87.8084 57.4946 86.9751 58.49Z" fill="#0D99FF"/>
<path d="M83.3615 59.6246C82.0421 59.0227 81.2319 57.5181 81.4634 56.106C81.6948 54.6708 82.968 53.5134 84.4032 53.3977C85.4912 53.3051 86.2088 53.5597 87.0884 54.3699C88.2921 55.4579 88.2921 57.4255 87.2504 58.7218C86.3477 59.8098 84.681 60.2033 83.3615 59.6246ZM84.4726 54.069C83.3615 54.1616 82.343 55.1107 82.1578 56.1986C81.9726 57.2866 82.6208 58.5135 83.6393 58.9764C84.681 59.4394 86.0004 59.1385 86.718 58.2588C87.4588 57.356 87.5282 56.0597 86.9032 55.1569L86.6023 54.856C85.8615 54.1847 85.3291 53.9995 84.4726 54.069ZM105.445 44.3235C104.473 43.7911 103.987 43.4208 102.968 43.143C102.737 43.0735 102.621 42.7958 102.783 42.5874C103.524 41.6615 104.589 40.9439 105.422 40.0411C105.561 39.9022 105.769 39.9022 105.908 40.018C106.047 40.1569 106.047 40.3652 105.931 40.5041C105.19 41.3143 104.357 41.9161 103.663 42.6337C104.45 42.9115 104.959 43.2587 105.769 43.7217C105.931 43.8143 106.001 44.0226 105.908 44.1847C105.815 44.3698 105.607 44.4161 105.445 44.3235ZM106.186 45.9902C106.001 45.9208 105.908 45.7124 105.977 45.5504C106.788 43.4671 107.528 41.1059 108.454 38.7448C108.524 38.5596 108.732 38.4902 108.894 38.5596C109.079 38.6291 109.149 38.8374 109.079 38.9994C108.13 41.3837 107.436 43.6754 106.602 45.7819C106.579 45.9671 106.371 46.0597 106.186 45.9902ZM108.616 44.3235C108.524 44.1615 108.593 43.9532 108.778 43.8606C109.542 43.4671 110.19 43.0735 110.839 42.6337C110.445 42.1939 109.797 41.5457 109.195 41.2217C109.033 41.1291 108.964 40.9207 109.056 40.7587C109.149 40.5967 109.357 40.5272 109.519 40.6198C110.329 41.0596 111.163 41.9624 111.602 42.4717C111.741 42.6337 111.695 42.8652 111.533 42.9809C110.769 43.5365 110.005 44.0226 109.079 44.4856C108.917 44.555 108.709 44.4856 108.616 44.3235ZM53.0372 69.8561H52.991C52.8058 69.833 52.6669 69.6478 52.69 69.4626C53.6854 62.5181 54.1947 55.2264 55.3752 48.3051C55.3984 48.1199 55.5836 47.981 55.7688 48.0273C55.9539 48.0504 56.0928 48.2356 56.0465 48.4208C55.3984 52.3329 54.9354 56.407 54.4956 60.3422C54.1484 63.3746 53.8011 66.5228 53.3613 69.5552C53.3613 69.7172 53.1993 69.8561 53.0372 69.8561Z" fill="#0D99FF"/>
<path d="M52.1829 50.967C52.7326 50.967 53.1783 50.4903 53.1783 49.9022C53.1783 49.3141 52.7326 48.8374 52.1829 48.8374C51.6331 48.8374 51.1875 49.3141 51.1875 49.9022C51.1875 50.4903 51.6331 50.967 52.1829 50.967Z" fill="#0D99FF"/>
<path d="M52.1824 51.3143C51.4417 51.3143 50.8398 50.6893 50.8398 49.9023C50.8398 49.1152 51.4417 48.4902 52.1824 48.4902C52.9232 48.4902 53.525 49.1152 53.525 49.9023C53.525 50.6893 52.9232 51.3143 52.1824 51.3143ZM52.1824 49.1847C51.8352 49.1847 51.5343 49.5088 51.5343 49.9023C51.5343 50.2958 51.8121 50.6199 52.1824 50.6199C52.5528 50.6199 52.8306 50.2958 52.8306 49.9023C52.8306 49.5088 52.5297 49.1847 52.1824 49.1847Z" fill="#0D99FF"/>
<path d="M51.3977 56.4299C51.9474 56.4299 52.3931 55.9532 52.3931 55.3651C52.3931 54.777 51.9474 54.3003 51.3977 54.3003C50.848 54.3003 50.4023 54.777 50.4023 55.3651C50.4023 55.9532 50.848 56.4299 51.3977 56.4299Z" fill="#0D99FF"/>
<path d="M51.3973 56.7543C50.6565 56.7543 50.0547 56.1293 50.0547 55.3422C50.0547 54.5552 50.6565 53.9302 51.3973 53.9302C52.138 53.9302 52.7399 54.5552 52.7399 55.3422C52.7399 56.1293 52.138 56.7543 51.3973 56.7543ZM51.3973 54.6478C51.0501 54.6478 50.7491 54.9718 50.7491 55.3654C50.7491 55.7589 51.0269 56.083 51.3973 56.083C51.7677 56.083 52.0454 55.7589 52.0454 55.3654C52.0454 54.9718 51.7677 54.6478 51.3973 54.6478Z" fill="#0D99FF"/>
<path d="M50.7727 61.8699C51.3225 61.8699 51.7681 61.3931 51.7681 60.8051C51.7681 60.217 51.3225 59.7402 50.7727 59.7402C50.223 59.7402 49.7773 60.217 49.7773 60.8051C49.7773 61.3931 50.223 61.8699 50.7727 61.8699Z" fill="#0D99FF"/>
<path d="M50.7723 62.2172C50.0315 62.2172 49.4297 61.5922 49.4297 60.8051C49.4297 60.0181 50.0315 59.3931 50.7723 59.3931C51.513 59.3931 52.1149 60.0181 52.1149 60.8051C52.1149 61.5922 51.513 62.2172 50.7723 62.2172ZM50.7723 60.0875C50.4251 60.0875 50.1241 60.4116 50.1241 60.8051C50.1241 61.1986 50.4019 61.5227 50.7723 61.5227C51.1427 61.5227 51.4204 61.1986 51.4204 60.8051C51.4204 60.4116 51.1195 60.0875 50.7723 60.0875Z" fill="#0D99FF"/>
<path d="M50.261 67.8191C50.8107 67.8191 51.2564 67.3424 51.2564 66.7543C51.2564 66.1662 50.8107 65.6895 50.261 65.6895C49.7113 65.6895 49.2656 66.1662 49.2656 66.7543C49.2656 67.3424 49.7113 67.8191 50.261 67.8191Z" fill="#0D99FF"/>
<path d="M50.2606 68.1662C49.5198 68.1662 48.918 67.5412 48.918 66.7542C48.918 65.9671 49.5198 65.3421 50.2606 65.3421C51.0013 65.3421 51.6032 65.9671 51.6032 66.7542C51.6032 67.5412 51.0013 68.1662 50.2606 68.1662ZM50.2606 66.0366C49.9133 66.0366 49.6124 66.3607 49.6124 66.7542C49.6124 67.1477 49.8902 67.4718 50.2606 67.4718C50.6309 67.4718 50.9087 67.1477 50.9087 66.7542C50.9087 66.3607 50.6309 66.0366 50.2606 66.0366ZM57.2976 49.9022C57.2976 49.717 57.4365 49.555 57.6449 49.555L76.3256 49.092C76.5107 49.0689 76.6728 49.2309 76.6728 49.4393C76.6728 49.6244 76.5339 49.7865 76.3256 49.7865L57.6449 50.2494C57.4597 50.2494 57.2976 50.1106 57.2976 49.9022ZM58.3856 54.4856C58.3856 54.3004 58.5245 54.1384 58.7328 54.1384L65.6773 53.9763C65.8625 53.9763 66.0246 54.1152 66.0246 54.3236C66.0246 54.5087 65.8857 54.6708 65.6773 54.6708L58.7328 54.8328C58.5708 54.8328 58.4088 54.6708 58.3856 54.4856ZM56.8578 58.5597C56.8578 58.3745 56.9967 58.2125 57.2051 58.2125L67.3209 57.9578C67.5061 57.9578 67.6681 58.0967 67.6681 58.3051C67.6681 58.4902 67.5292 58.6523 67.3209 58.6523L57.2051 58.9069C57.043 58.9069 56.881 58.7449 56.8578 58.5597ZM68.7329 54.3004C68.7329 54.1152 68.8718 53.9532 69.0801 53.9532L72.8302 53.8606C73.0153 53.8606 73.1774 53.9995 73.1774 54.2078C73.1774 54.393 73.0385 54.555 72.8302 54.555L69.0801 54.6476C68.895 54.6476 68.7329 54.4856 68.7329 54.3004ZM74.1033 54.3004C74.1033 54.1152 74.2422 53.9532 74.4505 53.9532L75.7237 53.93C75.9089 53.93 76.0709 54.0689 76.0709 54.2773C76.0709 54.4624 75.932 54.6245 75.7237 54.6245L74.4505 54.6476C74.2885 54.6476 74.1033 54.5087 74.1033 54.3004ZM68.9644 58.5365C68.9644 58.3514 69.1033 58.1893 69.3116 58.1893L70.6542 58.1662C70.8394 58.143 71.0014 58.3051 71.0014 58.5134C71.0014 58.6986 70.8626 58.8606 70.6542 58.8606L69.3116 58.8838C69.1496 58.8838 68.9875 58.7217 68.9644 58.5365ZM72.7376 58.6523C72.7376 58.4671 72.8765 58.3051 73.0848 58.3051L74.5663 58.2588C74.7515 58.2356 74.9135 58.3977 74.9135 58.606C74.9135 58.7912 74.7746 58.9532 74.5663 58.9532L73.0848 58.9995C72.8996 58.9995 72.7376 58.8606 72.7376 58.6523ZM55.8393 62.7495C55.8393 62.5643 55.9782 62.4023 56.1865 62.4023L74.8672 61.9393C75.0524 61.9393 75.2144 62.0782 75.2144 62.2866C75.2144 62.4718 75.0756 62.6338 74.8672 62.6338L56.1865 63.0968C56.0013 63.0968 55.8393 62.9579 55.8393 62.7495ZM55.2838 66.2449C55.2838 66.0597 55.4226 65.8977 55.631 65.8977L60.7468 65.782C60.9319 65.782 61.094 65.9208 61.094 66.1292C61.094 66.3144 60.9551 66.4764 60.7468 66.4764L55.631 66.5921C55.4458 66.5921 55.2838 66.4301 55.2838 66.2449ZM63.1542 66.2449C63.1542 66.0597 63.2931 65.8977 63.5014 65.8977L67.1125 65.8051C67.2977 65.8051 67.4598 65.944 67.4598 66.1523C67.4598 66.3375 67.3209 66.4996 67.1125 66.4996L63.5014 66.5921C63.3162 66.5921 63.1542 66.4533 63.1542 66.2449ZM71.719 66.1755C71.719 65.9903 71.8579 65.8283 72.0663 65.8283L76.0941 65.7357C76.2793 65.7357 76.4413 65.8746 76.4413 66.0829C76.4413 66.2681 76.3024 66.4301 76.0941 66.4301L72.0663 66.5227C71.8811 66.5227 71.719 66.3838 71.719 66.1755ZM71.9505 38.2123C71.7885 38.1197 71.719 37.9114 71.8116 37.7494L75.7237 30.2725C75.77 30.1567 75.8857 30.0873 76.0015 30.0873L85.1451 29.3928C85.3302 29.3697 85.4923 29.5317 85.5154 29.7169C85.5386 29.9021 85.3765 30.0641 85.1914 30.0873L76.233 30.7817L72.4135 38.0966C72.3209 38.2355 72.1126 38.3049 71.9505 38.2123ZM99.7748 25.5502C99.7516 25.3419 99.5896 25.203 99.3813 25.2261L85.9784 26.9854C85.7932 27.0086 85.6543 27.1706 85.6775 27.3558L86.0015 32.3327C86.0247 32.5179 86.1636 32.6567 86.3488 32.6567H99.8674C100.076 32.6567 100.238 32.4947 100.215 32.2864L99.7748 25.5502ZM88.3627 30.666C87.483 30.666 86.9969 29.7632 87.2978 28.9762C87.7145 27.9113 89.1729 28.2586 89.4043 29.3697C89.5201 29.8326 89.0108 30.666 88.3627 30.666ZM94.3812 30.1567L92.2053 30.2956C92.0896 30.2956 91.9738 30.203 91.9507 30.0873C91.9507 29.9484 92.0433 29.8558 92.159 29.8326L94.3349 29.6938C94.4738 29.6938 94.5664 29.7864 94.5896 29.9021C94.5896 30.041 94.497 30.1567 94.3812 30.1567ZM96.2794 29.578L96.3257 29.8095L96.3488 30.041C95.9785 30.041 95.9785 29.578 96.2794 29.578ZM97.9924 28.5595C89.7747 29.0919 91.0479 29.0225 90.909 29.0225C90.7932 29.0225 90.6775 28.9299 90.6775 28.8141C90.6775 28.6752 90.7701 28.5826 90.8858 28.5595L97.9692 28.0965C98.1081 28.0965 98.2007 28.1891 98.2239 28.3049C98.2239 28.4438 98.1081 28.5595 97.9924 28.5595ZM104.011 30.203C103.108 26.615 100.562 23.5363 97.2053 21.9622C97.0201 21.8928 96.9507 21.6844 97.0433 21.4993C97.1127 21.3141 97.3211 21.2446 97.5063 21.3372C101.048 22.9808 103.733 26.2447 104.682 30.041C104.729 30.2262 104.613 30.4114 104.428 30.4577C104.242 30.5039 104.057 30.3882 104.011 30.203Z" fill="#0D99FF"/>
<path d="M61.5011 28.4723C56.4495 28.4723 52.3164 24.3392 52.3164 19.2877C52.3164 14.2361 56.4495 10.103 61.5011 10.103C66.5526 10.103 70.6857 14.2361 70.6857 19.2877C70.6857 24.3392 66.5526 28.4723 61.5011 28.4723ZM61.5011 11.0215C56.9547 11.0215 53.2349 14.7413 53.2349 19.2877C53.2349 23.8341 56.9547 27.5539 61.5011 27.5539C66.0475 27.5539 69.7672 23.8341 69.7672 19.2877C69.7672 14.7413 66.0475 11.0215 61.5011 11.0215Z" fill="#0D99FF"/>
<path d="M56.4519 23.421C55.6712 23.421 55.0742 22.824 55.0742 22.0433C55.0742 21.2626 55.6712 20.6656 56.4519 20.6656C57.2326 20.6656 57.8296 21.2626 57.8296 22.0433C57.8296 22.824 57.2326 23.421 56.4519 23.421ZM56.4519 21.584C56.1764 21.584 55.9927 21.7677 55.9927 22.0433C55.9927 22.3188 56.1764 22.5025 56.4519 22.5025C56.7275 22.5025 56.9111 22.3188 56.9111 22.0433C56.9111 21.7677 56.7275 21.584 56.4519 21.584ZM61.9627 20.6656C60.9524 20.6656 60.1258 19.8389 60.1258 18.8286C60.1258 17.8183 60.9524 16.9917 61.9627 16.9917C62.973 16.9917 63.7996 17.8183 63.7996 18.8286C63.7996 19.8389 62.973 20.6656 61.9627 20.6656ZM61.9627 17.9102C61.4575 17.9102 61.0442 18.3235 61.0442 18.8286C61.0442 19.3338 61.4575 19.7471 61.9627 19.7471C62.4679 19.7471 62.8812 19.3338 62.8812 18.8286C62.8812 18.3235 62.4679 17.9102 61.9627 17.9102ZM65.6366 25.2579C64.8559 25.2579 64.2589 24.6609 64.2589 23.8802C64.2589 23.0995 64.8559 22.5025 65.6366 22.5025C66.4173 22.5025 67.0143 23.0995 67.0143 23.8802C67.0143 24.6609 66.4173 25.2579 65.6366 25.2579ZM65.6366 23.421C65.361 23.421 65.1773 23.6046 65.1773 23.8802C65.1773 24.1557 65.361 24.3394 65.6366 24.3394C65.9121 24.3394 66.0958 24.1557 66.0958 23.8802C66.0958 23.6046 65.9121 23.421 65.6366 23.421ZM66.555 19.7471C65.7743 19.7471 65.1773 19.1501 65.1773 18.3694C65.1773 17.5887 65.7743 16.9917 66.555 16.9917C67.3357 16.9917 67.9327 17.5887 67.9327 18.3694C67.9327 19.1501 67.3357 19.7471 66.555 19.7471ZM66.555 17.9102C66.2795 17.9102 66.0958 18.0939 66.0958 18.3694C66.0958 18.6449 66.2795 18.8286 66.555 18.8286C66.8306 18.8286 67.0143 18.6449 67.0143 18.3694C67.0143 18.0939 66.8306 17.9102 66.555 17.9102Z" fill="#0D99FF"/>
<path d="M55.9905 16.9917C56.2441 16.9917 56.4497 16.7861 56.4497 16.5325C56.4497 16.2788 56.2441 16.0732 55.9905 16.0732C55.7369 16.0732 55.5312 16.2788 55.5312 16.5325C55.5312 16.7861 55.7369 16.9917 55.9905 16.9917Z" fill="#0D99FF"/>
<path d="M60.1233 22.5024C60.3769 22.5024 60.5825 22.2968 60.5825 22.0432C60.5825 21.7896 60.3769 21.584 60.1233 21.584C59.8697 21.584 59.6641 21.7896 59.6641 22.0432C59.6641 22.2968 59.8697 22.5024 60.1233 22.5024Z" fill="#0D99FF"/>
<path d="M60.1238 16.0733C59.3431 16.0733 58.7461 15.4763 58.7461 14.6956C58.7461 13.9149 59.3431 13.3179 60.1238 13.3179C60.9045 13.3179 61.5015 13.9149 61.5015 14.6956C61.5015 15.4763 60.9045 16.0733 60.1238 16.0733ZM60.1238 14.2363C59.8483 14.2363 59.6646 14.42 59.6646 14.6956C59.6646 14.9711 59.8483 15.1548 60.1238 15.1548C60.3993 15.1548 60.583 14.9711 60.583 14.6956C60.583 14.42 60.3993 14.2363 60.1238 14.2363Z" fill="#0D99FF"/>
<path d="M64.2561 14.2363C64.5097 14.2363 64.7153 14.0307 64.7153 13.7771C64.7153 13.5235 64.5097 13.3179 64.2561 13.3179C64.0025 13.3179 63.7969 13.5235 63.7969 13.7771C63.7969 14.0307 64.0025 14.2363 64.2561 14.2363Z" fill="#0D99FF"/>
<path d="M61.5022 25.7168C61.7558 25.7168 61.9614 25.5112 61.9614 25.2576C61.9614 25.0039 61.7558 24.7983 61.5022 24.7983C61.2486 24.7983 61.043 25.0039 61.043 25.2576C61.043 25.5112 61.2486 25.7168 61.5022 25.7168Z" fill="#0D99FF"/>
<path d="M72.9827 15.1548C73.2363 15.1548 73.4419 14.9492 73.4419 14.6956C73.4419 14.4419 73.2363 14.2363 72.9827 14.2363C72.729 14.2363 72.5234 14.4419 72.5234 14.6956C72.5234 14.9492 72.729 15.1548 72.9827 15.1548Z" fill="#0D99FF"/>
<path d="M70.6863 12.3993C69.9056 12.3993 69.3086 11.8022 69.3086 11.0216C69.3086 10.2409 69.9056 9.64386 70.6863 9.64386C71.467 9.64386 72.064 10.2409 72.064 11.0216C72.064 11.8022 71.467 12.3993 70.6863 12.3993ZM70.6863 10.5623C70.4108 10.5623 70.2271 10.746 70.2271 11.0216C70.2271 11.2971 70.4108 11.4808 70.6863 11.4808C70.9618 11.4808 71.1455 11.2971 71.1455 11.0216C71.1455 10.746 70.9618 10.5623 70.6863 10.5623ZM76.1971 6.88846C75.4164 6.88846 74.8194 6.29146 74.8194 5.51077C74.8194 4.73007 75.4164 4.13307 76.1971 4.13307C76.9778 4.13307 77.5748 4.73007 77.5748 5.51077C77.5748 6.29146 76.9778 6.88846 76.1971 6.88846ZM76.1971 5.05153C75.9215 5.05153 75.7378 5.23523 75.7378 5.51077C75.7378 5.7863 75.9215 5.97 76.1971 5.97C76.4726 5.97 76.6563 5.7863 76.6563 5.51077C76.6563 5.23523 76.4726 5.05153 76.1971 5.05153ZM70.6863 5.51077C69.9056 5.51077 69.3086 4.91376 69.3086 4.13307C69.3086 3.35237 69.9056 2.75537 70.6863 2.75537C71.467 2.75537 72.064 3.35237 72.064 4.13307C72.064 4.91376 71.467 5.51077 70.6863 5.51077ZM70.6863 3.67384C70.4108 3.67384 70.2271 3.85753 70.2271 4.13307C70.2271 4.40861 70.4108 4.5923 70.6863 4.5923C70.9618 4.5923 71.1455 4.40861 71.1455 4.13307C71.1455 3.85753 70.9618 3.67384 70.6863 3.67384Z" fill="#0D99FF"/>
<path d="M73.4397 8.72559C73.6933 8.72559 73.8989 8.51999 73.8989 8.26636C73.8989 8.01273 73.6933 7.80713 73.4397 7.80713C73.1861 7.80713 72.9805 8.01273 72.9805 8.26636C72.9805 8.51999 73.1861 8.72559 73.4397 8.72559Z" fill="#0D99FF"/>
<path d="M66.092 6.88819C66.3457 6.88819 66.5513 6.68259 66.5513 6.42896C66.5513 6.17533 66.3457 5.96973 66.092 5.96973C65.8384 5.96973 65.6328 6.17533 65.6328 6.42896C65.6328 6.68259 65.8384 6.88819 66.092 6.88819Z" fill="#0D99FF"/>
<path d="M77.5725 10.5625C77.8261 10.5625 78.0317 10.3569 78.0317 10.1033C78.0317 9.84965 77.8261 9.64404 77.5725 9.64404C77.3189 9.64404 77.1133 9.84965 77.1133 10.1033C77.1133 10.3569 77.3189 10.5625 77.5725 10.5625Z" fill="#0D99FF"/>
<path d="M71.6026 18.3693V17.9101C71.6026 17.4049 71.1893 16.9916 70.6842 16.9916C70.5005 16.9916 70.3168 17.0375 70.1331 17.1753L69.582 16.4405C69.9035 16.2109 70.2708 16.0731 70.6842 16.0731C71.5108 16.0731 72.1996 16.6242 72.4292 17.4049C73.6232 17.2671 74.8172 16.8998 75.8276 16.3028C75.7816 16.0731 75.7357 15.8435 75.7357 15.6139C75.7357 14.3281 76.746 13.3177 78.0319 13.3177C78.2615 13.3177 78.4911 13.3637 78.7207 13.4096C79.5014 12.1237 79.8688 10.6542 79.8688 9.18465C79.8688 4.63825 76.149 0.918465 71.6026 0.918465C67.0562 0.918465 63.3364 4.63825 63.3364 9.18465C63.3364 9.64388 63.3824 10.149 63.4742 10.6083L62.5557 10.746C62.4639 10.2409 62.418 9.73573 62.418 9.18465C62.418 4.13309 66.5511 0 71.6026 0C76.6542 0 80.7873 4.13309 80.7873 9.18465C80.7873 10.9757 80.2821 12.7207 79.2718 14.2362L79.0422 14.6036L78.6748 14.4199C78.4452 14.2821 78.2615 14.2362 78.0319 14.2362C77.2512 14.2362 76.6542 14.8332 76.6542 15.6139C76.6542 15.8435 76.7001 16.0272 76.8379 16.2568L77.0216 16.6242L76.6542 16.8538C75.3224 17.7723 73.7151 18.2775 72.0618 18.3693H71.6026Z" fill="#0D99FF"/>
</svg>
