<svg width="146" height="124" viewBox="0 0 146 124" fill="none" xmlns="http://www.w3.org/2000/svg">
<path d="M118.71 59.3483C118.734 58.5291 117.815 57.8833 116.76 58.2556C116.297 58.4192 115.863 58.8214 115.876 59.3125C115.903 60.3607 118.226 61.4537 120.222 63.028C119.556 62.2056 118.858 61.3011 118.824 60.2433C118.811 59.8589 118.889 59.4742 118.857 59.0906C118.825 58.707 118.895 59.2204 118.539 59.0751L118.71 59.3483ZM127.275 51.9721C128.019 55.7306 128.136 59.6105 127.639 63.409C127.391 65.297 126.819 67.076 126.459 68.931C126.118 70.6827 126.007 72.5586 125.805 74.343C125.703 75.178 126.016 76.752 125.574 77.4676C125.132 78.1832 124.905 77.9077 124.096 77.6788C125.644 77.3197 124.73 75.2532 124.8 73.6657C124.869 72.0782 124.959 69.8241 125.045 68.2374C125.129 66.6927 125.836 66.2982 126.292 64.8202C127.443 61.083 127.842 57.1548 127.467 53.2625L127.909 58.1137L127.275 51.9721ZM99.8189 60.8882C98.2643 60.0321 97.0046 58.4936 96.8506 56.7253C96.8126 56.2893 96.8464 55.8297 97.0652 55.4506C97.284 55.0716 97.723 54.7962 98.1539 54.8733C97.5493 55.1755 97.2964 55.9483 97.4155 56.6137C97.5346 57.2792 97.9483 57.8523 98.3933 58.3612C99.8991 60.083 102.357 61.0065 104.399 61.9012C103.126 62.0713 100.917 61.4931 99.8189 60.8882ZM70.5128 102.554C70.1835 102.14 69.9825 101.628 69.6088 101.254C68.8847 100.529 67.741 100.508 66.7647 100.197C65.8233 99.8936 65.0034 99.2977 64.4244 98.496C64.2165 98.207 64.036 97.8511 64.1281 97.5075C64.2594 97.0166 64.8615 96.8254 65.3695 96.8335C66.8261 96.8578 67.9314 97.6728 71.461 99.788C72.345 100.318 74.692 101.881 74.184 103.217C73.6489 104.622 71.0794 103.266 70.5128 102.554ZM79.1256 94.6791C78.2799 93.5422 78.3706 91.9866 78.499 90.5753C78.5415 90.1079 78.5863 89.6319 78.771 89.2005C78.9558 88.7693 79.3072 88.3824 79.7646 88.2779C80.4275 88.1267 81.0984 88.6195 81.3946 89.2315C81.9877 90.4557 81.458 92.0392 82.2564 93.1728C82.6191 93.6873 83.2384 94.0545 83.3708 94.6701C83.5555 95.5305 82.685 96.265 82.5659 97.1371C82.5163 97.4985 82.9799 99.5467 82.0269 98.8942C81.7917 98.7331 81.7022 97.9141 81.5889 97.6407C80.8387 95.8242 79.9048 95.7276 79.1256 94.6791ZM87.2211 107.1C86.5919 104.02 88.5213 101.194 90.1564 100.807C91.0379 100.599 92.0568 100.93 92.8158 100.435C93.0583 100.874 93.0495 101.417 92.9039 101.896C92.7076 102.543 92.3962 102.953 90.5541 105.883C89.6413 107.335 89.1905 107.65 87.3154 107.829L87.2211 107.1V107.1ZM77.9605 74.8459C78.3052 76.2726 79.8071 77.1175 81.2456 77.4093C82.7833 77.721 84.4398 77.5833 85.8259 76.848C87.2121 76.1127 88.2887 74.7423 88.4977 73.1869C88.7069 71.6324 87.9578 69.9454 86.5762 69.2014C87.3374 70.1169 87.4565 71.4592 87.06 72.582C86.6632 73.7045 85.813 74.622 84.8366 75.3039C83.5355 76.2124 81.8849 76.7548 80.345 76.3706C78.8051 75.9862 77.5054 74.4832 77.7076 72.9092C77.8213 74.2513 78.3295 75.5299 79.1681 76.5838L77.9605 74.8462V74.8459ZM121.741 106.618C122.27 106.918 122.624 107.447 123.019 107.923C123.419 108.405 123.947 108.882 124.588 108.939C124.992 108.974 125.379 108.834 125.733 108.663C127.085 108.009 128.173 106.86 128.716 105.479C129.267 104.071 129.239 102.503 128.638 101.115C128.502 103.181 127.763 105.193 126.545 106.857C126.118 107.441 125.58 108.009 124.842 108.141C124.176 108.26 123.471 107.988 122.939 107.577C122.416 107.172 122.027 106.641 121.651 106.125C121.826 106.609 122.186 107.039 122.648 107.312L121.741 106.618ZM129.237 29.0554C130.809 28.3871 132.239 27.2305 132.938 25.6494C133.637 24.0684 133.474 22.0441 132.292 20.7954C133.042 23.6235 131.432 26.3667 128.912 26.8852C128.124 27.0474 127.269 26.9826 126.56 27.3687C125.405 27.9973 125.071 29.4739 124.012 30.2204C124.673 29.8594 125.684 29.9614 126.422 29.8374C127.384 29.6764 128.336 29.4384 129.237 29.0554ZM25.3038 106.528C23.7641 106.711 22.0828 106.833 20.7682 106.091C18.7969 104.978 18.5671 102.528 18.5491 100.438C20.125 100.106 20.1425 102.433 21.5492 103.152C22.9899 103.889 25.9323 102.962 27.5793 102.786C34.6784 102.027 41.8941 100.862 49.0247 100.535C42.6131 103.63 32.6459 106.528 25.3038 106.528ZM7.31094 59.6643C8.15975 60.0698 9.12121 60.1594 10.0607 60.2044C12.3159 60.312 14.5816 60.1968 16.814 59.8608C17.4887 59.7595 18.2249 59.6001 18.6395 59.0582C19.0357 58.5395 19.018 57.8247 18.9701 57.1739C18.8162 55.0816 18.5368 53.0004 18.1334 50.9416L17.952 55.5596C17.9247 56.2581 17.8785 57.0091 17.4423 57.5549C17.0494 58.0461 16.4025 58.2748 15.7751 58.3133C15.1473 58.3522 14.5233 58.226 13.9023 58.1283C11.9256 57.818 9.91459 57.7939 7.93107 58.0568C6.96764 58.1846 6.4734 58.0725 5.76596 57.4913C5.63952 58.4446 6.53169 59.292 7.31094 59.6643Z" fill="#0D99FF"/>
<path d="M30.8773 58.0704C30.9159 58.08 30.9652 58.0845 31.0244 58.0789C31.6366 58.3261 29.9035 58.2521 56.4103 55.9487V63.3812L56.4092 63.3815C55.0884 63.7195 54.1675 64.2067 54.1675 64.8995C54.1675 66.6202 59.845 67.0792 63.1991 67.0792C66.556 67.0792 72.2335 66.6202 72.2335 64.8995C72.2335 63.7364 69.6426 63.1478 66.9249 62.8915L66.9061 55.0078L90.5538 52.8874C90.9699 52.8521 91.3574 52.6613 91.6392 52.3532C91.921 52.045 92.0764 51.642 92.0746 51.2245V49.1644C92.1703 49.2492 92.3027 49.2908 92.4384 49.2632C92.4666 49.2576 96.6492 48.4206 96.7382 48.4249C96.7475 48.4558 96.758 48.5262 96.7515 48.6828C96.6966 49.9039 96.8872 50.9859 96.8362 52.1552C96.8325 52.2416 96.8553 52.3271 96.9017 52.4002C96.948 52.4732 97.0157 52.5302 97.0955 52.5635C97.1754 52.5969 97.2635 52.6049 97.348 52.5865C97.4326 52.5681 97.5094 52.5242 97.5682 52.4608C99.6775 50.1864 101.788 47.912 103.897 45.6408C104.874 44.5875 105.934 43.5579 107.202 43.546C107.315 43.5441 107.433 43.5489 107.564 43.5601C108.01 43.599 108.444 43.7057 108.902 43.8187C109.077 43.8617 109.255 43.904 109.434 43.9443C110.765 46.2705 112.999 48.1227 115.68 48.1227C117.212 48.1227 118.679 47.5152 119.603 46.4287C120.171 46.5566 121.516 46.603 122.938 47.1826C124.707 47.9027 126.046 49.1258 126.611 50.5384C126.997 51.5036 127.056 52.5971 127.082 53.5464C127.183 57.3458 126.76 61.141 125.824 64.8248C125.565 65.842 125.227 66.9947 124.479 67.7962C123.838 68.4808 122.859 68.9362 121.723 69.0776C120.597 69.2161 119.45 69.0494 118.475 68.8675C114.668 68.162 110.928 66.6759 107.661 64.5697C107.427 64.4196 107.196 64.266 106.967 64.1089C107.617 62.9475 107.707 62.5485 109.385 57.9321C112.859 58.3261 116.436 60.0291 119.266 62.6394C119.208 62.6744 119.15 62.7056 119.094 62.7301C119.042 62.7512 118.994 62.7825 118.954 62.8223C118.914 62.8621 118.882 62.9095 118.861 62.9617C118.84 63.0139 118.829 63.0698 118.829 63.1262C118.83 63.1827 118.842 63.2384 118.864 63.2902C118.887 63.3419 118.919 63.3886 118.96 63.4276C119.001 63.4665 119.049 63.4969 119.102 63.5169C119.155 63.5369 119.211 63.5462 119.267 63.5441C119.324 63.542 119.379 63.5287 119.43 63.5049C120.035 63.2427 120.652 62.6251 120.931 62.003C120.977 61.9008 120.98 61.7845 120.94 61.6798C120.9 61.575 120.821 61.4904 120.718 61.4445C120.616 61.3986 120.5 61.3952 120.395 61.435C120.29 61.4748 120.206 61.5546 120.16 61.6569C120.098 61.7943 120.006 61.9357 119.897 62.0714C119.545 61.7438 119.18 61.4291 118.805 61.128C119.63 59.87 119.822 57.5173 119.964 55.7597C119.968 55.7044 119.962 55.6487 119.945 55.5959C119.927 55.5431 119.9 55.4942 119.864 55.4519C119.828 55.4097 119.784 55.3749 119.735 55.3496C119.686 55.3243 119.632 55.309 119.576 55.3046C119.521 55.2999 119.465 55.3062 119.412 55.3232C119.36 55.3401 119.311 55.3673 119.268 55.4033C119.226 55.4393 119.191 55.4833 119.166 55.5327C119.141 55.5822 119.126 55.6362 119.122 55.6915C118.996 57.2455 118.811 59.527 118.134 60.6115C115.405 58.6055 112.226 57.3362 109.138 57.0577C109.046 57.0498 108.953 57.0726 108.874 57.1225C108.796 57.1724 108.736 57.2467 108.704 57.334L108.642 57.5041C108.402 57.3323 108.281 57.2244 107.975 56.9234C107.178 56.1328 106.867 55.8788 106.556 55.4786C105.776 54.507 105.719 53.9399 105.296 53.418C104.65 52.6224 103.676 52.6588 103.218 53.3927C103.018 53.7109 102.973 54.0883 103.096 54.415C102.748 53.7588 102.759 53.1846 102.747 53.111C102.719 52.6914 102.682 52.1676 102.257 51.8297C101.696 51.3853 100.874 51.7015 100.52 52.3084C100.517 52.3084 100.517 52.3107 100.517 52.311L100.644 51.955C100.092 51.7486 99.4832 52.0643 99.2793 52.6202C99.2041 52.8258 99.1475 53.0375 99.1075 53.2519C98.5161 53.5628 98.1207 54.1271 98.0683 54.7343C96.6929 55.3328 97.0731 56.9707 97.9132 58.2059C98.7549 59.4433 100.483 60.28 101.725 60.9007C100.546 62.3646 97.7433 64.8423 95.937 64.933C94.8153 64.987 93.6367 64.428 92.8533 63.4699C90.4229 60.4977 89.994 55.9318 89.9551 53.4746C89.9512 53.2414 89.7557 53.0618 89.5259 53.059C89.4704 53.0598 89.4157 53.0716 89.3648 53.0937C89.3138 53.1157 89.2678 53.1476 89.2292 53.1874C89.1906 53.2273 89.1602 53.2744 89.1398 53.326C89.1194 53.3775 89.1093 53.4327 89.1102 53.4881C89.1511 56.0548 89.6067 60.8345 92.1991 64.0047C93.1152 65.125 94.5478 65.8477 95.979 65.7767C96.5476 65.7485 97.1618 65.5441 97.7788 65.2408C97.0934 68.0133 96.5763 73.7325 96.3595 75.5881C96.3465 75.6994 96.3782 75.8113 96.4477 75.8992C96.5172 75.9871 96.6188 76.0438 96.7301 76.0567C96.8414 76.0697 96.9533 76.038 97.0411 75.9685C97.129 75.899 97.1857 75.7974 97.1987 75.6861C97.2376 75.3538 97.2868 74.8874 97.3463 74.3307C98.3432 64.947 98.7496 65.1571 98.8417 64.6271C100.141 63.771 101.338 62.6282 102.006 61.8777C102.181 61.6819 102.344 61.4834 102.497 61.2862C103.836 61.9514 105.007 62.5276 106.463 63.2579C106.332 63.5158 106.192 63.7691 106.044 64.0174C105.989 64.1088 105.971 64.2174 105.993 64.3215C106.015 64.4256 106.076 64.5176 106.163 64.579C106.505 64.8203 106.852 65.0541 107.204 65.2802C110.562 67.4453 114.407 68.9728 118.321 69.6983C119.084 69.8405 119.949 69.9743 120.847 69.9743C121.17 69.9743 121.498 69.9568 121.827 69.9163C122.849 69.7887 123.768 69.4347 124.492 68.9035C124.581 70.5412 124.429 72.9454 124.303 74.917C124.247 75.8008 124.193 76.6355 124.167 77.3102C124.166 77.3311 124.168 77.3511 124.171 77.3713L94.4563 77.3269H94.4557C94.3437 77.3268 94.2362 77.3711 94.1569 77.4503C94.0776 77.5294 94.033 77.6368 94.0328 77.7489C94.0327 77.8609 94.0771 77.9684 94.1563 78.0477C94.2354 78.127 94.3428 78.1716 94.4548 78.1717L130.377 78.2255H130.378C130.49 78.2256 130.598 78.1811 130.677 78.102C130.756 78.0228 130.801 77.9154 130.801 77.8034C130.801 77.6913 130.757 77.5839 130.677 77.5046C130.598 77.4253 130.491 77.3807 130.379 77.3806L125.007 77.3725C125.008 77.3629 125.011 77.3533 125.011 77.3435C125.037 76.6788 125.09 75.8492 125.146 74.9708C125.295 72.6401 125.463 69.9988 125.296 68.3152C125.291 68.2682 125.278 68.2224 125.258 68.1798C126.024 67.2558 126.377 66.0789 126.643 65.0329C127.597 61.2738 128.029 57.4011 127.926 53.5242C127.899 52.5019 127.833 51.3194 127.396 50.2247C126.736 48.5764 125.266 47.2178 123.257 46.4003C122.146 45.9472 121.022 45.7695 120.07 45.6554C119.181 45.5481 118.283 44.9953 117.949 44.2416C120.145 44.6768 122.452 44.4208 124.599 43.7902L124.644 43.7773C125.427 43.5463 126.001 42.8386 126.072 42.0171C126.592 36.2129 123.437 36.2002 121.894 34.82C120.356 33.4448 120.217 30.7179 118.413 29.1887C119.465 28.6564 120.126 27.4609 119.943 26.3198C119.694 24.7726 117.984 23.7247 116.53 24.2105C115.381 24.5878 114.658 25.8272 114.715 26.9979C113.465 26.5417 112.004 26.6133 110.781 27.23C110.48 27.382 110.197 27.5657 109.936 27.778C108.392 29.0389 107.569 31.4172 108.221 33.3598L108.222 33.3626C108.115 34.3392 108.151 35.3261 108.329 36.2923C107.438 37.3802 106.623 38.5281 105.89 39.7278C105.755 39.9479 105.701 40.2084 105.737 40.4643C105.774 40.7201 105.898 40.9552 106.089 41.1289C106.465 41.4682 106.915 41.8645 107.397 42.2306C107.665 42.4388 107.946 42.6306 108.237 42.8048C108.039 42.7662 107.839 42.7374 107.638 42.7184C107.476 42.7043 107.33 42.6986 107.191 42.7015C105.59 42.7164 104.38 43.8778 103.278 45.0662C101.41 47.0779 99.5422 49.0902 97.6752 51.1031C97.6392 50.2799 97.5589 49.5367 97.5955 48.7197C97.6045 48.5085 97.6254 48.014 97.2376 47.7343C97.0652 47.6104 96.8779 47.5786 96.7109 47.5808C96.0364 45.4546 96.8179 42.7443 96.2958 40.4398C95.9635 38.9705 95.1372 37.819 94.0293 37.2805C93.4957 37.0214 92.6508 36.9316 92.0746 37.2419V11.0055C92.0761 10.6791 91.9547 10.3642 91.7344 10.1233C91.5142 9.88249 91.2113 9.73342 90.8861 9.70581L83.54 9.04681C82.9506 6.73864 80.8196 4.03451 78.4179 3.71741C61.6268 1.4757 53.3865 0.26219 37.4335 0C36.3262 0.00619568 35.8544 1.32334 36.6365 2.03331C37.7123 3.0049 38.6892 4.02691 39.5679 5.10552C31.36 4.40822 31.5668 4.29642 31.0922 4.45807C29.8342 4.53214 28.8606 5.39897 28.4413 6.25482C28.0386 7.08279 28.047 7.91357 28.0583 8.71619L28.0611 8.91615V8.91896C28.2231 23.3898 27.8612 37.9995 27.7485 52.1873C27.7401 53.2997 27.7288 54.5614 28.1822 55.7301C28.6694 56.9918 29.5002 57.7127 30.8773 58.0704ZM104.043 55.533C103.882 55.4372 103.601 55.1669 103.35 54.8177C103.617 55.1162 104.015 55.3415 104.043 55.533ZM98.6116 57.7308C98.2506 57.1996 97.7219 56.1123 98.1692 55.6628C98.2796 56.0515 98.4556 56.3962 98.6195 56.7144C99.0782 57.6052 100.242 58.3374 100.637 58.3374C100.739 58.3375 100.837 58.3011 100.914 58.2349C100.99 58.1687 101.041 58.0772 101.056 57.9769C101.07 57.8766 101.049 57.7743 100.994 57.6887C100.94 57.6031 100.857 57.5398 100.76 57.5105C100.285 57.3669 99.6094 56.7916 99.3706 56.3277C99.0551 55.7155 98.6812 54.959 99.0585 54.3885C99.1881 55.6732 99.9479 56.7597 100.962 57.359C101.03 57.399 101.104 57.4179 101.177 57.4179C101.606 57.4179 101.761 56.8493 101.392 56.6316C100.771 56.2642 100.299 55.6904 100.058 55.0104C99.8166 54.3304 99.8219 53.5873 100.073 52.9108C100.114 52.7976 100.239 52.7064 100.345 52.7449C100.156 53.4794 100.47 55.0458 101.789 56.4032C101.953 56.5722 102.22 56.575 102.386 56.4117C102.467 56.3336 102.513 56.2268 102.514 56.1149C102.516 56.0029 102.473 55.8949 102.395 55.8146C101.657 55.0542 101.235 54.2037 101.142 53.2857C101.075 52.6529 101.582 52.3755 101.73 52.4915C102.083 52.7703 101.605 53.843 102.64 55.2767C102.93 55.6879 103.502 56.3779 104.079 56.4145C104.712 56.4533 105.119 55.7225 104.761 55.0655C104.423 54.4378 103.651 54.293 103.935 53.8405C104.11 53.5498 104.433 53.6937 104.637 53.9475C104.792 54.1395 104.917 54.4158 105.056 54.7022C105.801 56.1593 106.567 56.7 107.208 57.3523C107.525 57.6711 107.898 58.0369 108.275 58.2816C108.276 58.2816 108.277 58.2822 108.277 58.2825L108.285 58.287C108.304 58.3002 108.324 58.3134 108.343 58.3264L108.344 58.327C107.073 61.8303 107.03 61.9751 106.816 62.4899C101.483 59.815 99.5125 59.055 98.6116 57.7305V57.7308ZM118.737 46.1218C117.633 47.1964 115.809 47.5755 114.15 47.0365C112.751 46.5814 111.475 45.5382 110.503 44.0696C110.573 44.0716 110.643 44.0735 110.711 44.0724L110.715 44.0727L110.718 44.0724H110.719C111.114 44.069 111.864 44.0228 112.435 43.7483C112.536 43.6997 112.614 43.613 112.651 43.5072C112.688 43.4015 112.681 43.2854 112.633 43.1844C112.616 43.1505 112.594 43.1191 112.569 43.0909C112.775 42.5001 113.26 41.1379 113.314 40.7019C113.729 40.5085 114.084 40.1477 114.472 39.821C114.515 39.7854 114.55 39.7417 114.576 39.6924C114.602 39.6431 114.618 39.5891 114.623 39.5336C114.628 39.4782 114.622 39.4222 114.605 39.3691C114.588 39.316 114.561 39.2667 114.525 39.2241C114.489 39.1815 114.445 39.1464 114.396 39.1209C114.346 39.0953 114.292 39.0798 114.237 39.0752C114.181 39.0706 114.125 39.077 114.072 39.0941C114.019 39.1112 113.97 39.1386 113.928 39.1747C113.522 39.5163 113.204 39.8402 112.925 39.9548C112.383 40.1793 111.706 40.1181 111.231 39.8557C110.104 39.2474 109.531 37.7973 109.245 36.5506C108.997 35.4803 108.941 34.3747 109.079 33.2849C109.163 32.6141 109.551 32.0711 109.918 31.4335C111.072 32.669 112.561 33.7893 114.229 34.1416C115.679 34.4471 115.963 34.0312 116.712 33.5358C116.932 33.3905 117.106 33.3201 117.26 33.3147C117.715 33.3035 118.076 33.8197 117.882 34.4088C117.755 34.7955 117.415 35.1098 117.134 35.3404C117.061 35.3999 116.873 35.4874 116.76 35.6697C116.626 35.8851 116.671 36.0898 116.715 36.2627C116.769 36.5272 116.82 36.7919 116.869 37.0569C117.582 40.9425 116.992 42.9138 117.024 43.2622C116.997 43.3133 116.98 43.3695 116.975 43.4272C116.876 44.632 117.691 45.6075 118.737 46.1218ZM45.6625 20.1357C46.9596 29.8713 40.2855 40.3891 41.7451 50.0098L31.0528 50.6815C31.1083 3.52168 30.8838 5.52795 31.2823 5.29477C31.2843 5.29449 31.2865 5.29477 31.2882 5.29421C31.353 5.28858 31.4121 5.26886 31.4628 5.23788H31.4656C31.4656 5.23788 31.4679 5.2376 31.4685 5.23563C31.5569 5.22718 30.9849 5.18719 40.2804 6.01769C40.6361 6.66908 44.4208 10.8165 45.6622 20.1357H45.6625ZM31.5541 57.3289C31.4904 57.3347 31.4262 57.3272 31.3657 57.3068C31.3051 57.2865 31.2494 57.2537 31.2022 57.2105C31.155 57.1674 31.1174 57.1149 31.0916 57.0564C31.0659 56.9979 31.0527 56.9346 31.0528 56.8707V51.5281L41.8916 50.8471C42.2633 52.6743 42.953 54.4761 44.093 56.2047L31.5541 57.3289ZM66.0795 62.8183C65.0572 62.7479 64.0521 62.7169 63.1991 62.7169C61.4699 62.7169 59.1223 62.8408 57.2552 63.1928V55.8729L59.224 55.6963C59.1657 56.6964 59.2332 57.6997 59.4251 58.6829C59.77 60.4605 61.1525 61.026 62.2841 60.4431C62.9693 60.0902 63.4413 59.5255 63.6868 58.764C63.9783 57.8629 64.0473 56.1362 64.0293 55.2655L66.0612 55.0835L66.0795 62.8183ZM63.1858 55.3412C63.1965 56.0115 63.1439 57.697 62.8831 58.5044C62.7057 59.0533 62.3835 59.4416 61.8974 59.6917C61.2376 60.0319 60.4851 59.7106 60.2544 58.5216C60.0677 57.5663 60.0145 56.5916 60.0818 55.6194L63.1858 55.3412ZM92.92 44.2881C92.9266 44.3432 92.9439 44.3965 92.9711 44.4448C92.9982 44.4932 93.0346 44.5358 93.0782 44.5701C93.1218 44.6044 93.1717 44.6298 93.2251 44.6448C93.2785 44.6598 93.3344 44.6642 93.3895 44.6576C93.4446 44.651 93.4978 44.6337 93.5462 44.6065C93.5946 44.5794 93.6371 44.543 93.6715 44.4994C93.7058 44.4558 93.7311 44.4059 93.7462 44.3525C93.7612 44.2991 93.7655 44.2432 93.759 44.1881C93.597 42.8293 94.4028 41.4359 93.9403 40.1624C93.7573 39.6583 93.3695 39.391 93.0276 39.1553C92.7494 38.9629 92.3109 38.6596 92.3044 38.3025C92.3013 38.1138 92.3734 38.0423 92.4441 37.9973C92.7187 37.8221 93.3233 37.8767 93.6598 38.0403C94.5357 38.4662 95.1961 39.4085 95.4718 40.6262C95.9872 42.9034 95.1578 45.2955 95.8734 47.7222C91.9884 48.4939 92.2098 48.4142 92.0743 48.5347V39.4882C92.5474 39.9151 93.0037 40.059 93.1462 40.451C93.4928 41.406 92.7426 42.7975 92.92 44.2881ZM91.2297 11.0055V51.2245C91.2307 51.4308 91.1539 51.6299 91.0146 51.7821C90.8754 51.9343 90.6839 52.0285 90.4784 52.046L82.5744 52.7545C82.5713 52.7053 82.5589 52.6571 82.5378 52.6126C81.8826 51.2493 81.3284 49.8397 80.8796 48.3953L90.4477 47.794C90.5032 47.7908 90.5576 47.7766 90.6077 47.7523C90.6578 47.728 90.7025 47.6941 90.7394 47.6524C90.7763 47.6108 90.8047 47.5622 90.8227 47.5096C90.8408 47.4569 90.8483 47.4012 90.8448 47.3457C90.8413 47.2901 90.8269 47.2358 90.8023 47.1859C90.7778 47.1359 90.7436 47.0913 90.7017 47.0546C90.6599 47.018 90.6112 46.9899 90.5584 46.9721C90.5057 46.9543 90.45 46.9471 90.3944 46.9508L80.6345 47.5642L80.6343 47.5631C78.9558 41.5533 79.091 34.9211 81.0116 27.1089C82.4203 21.4269 83.2801 19.8938 83.6955 14.0867C83.8025 12.5829 83.8983 11.217 83.7096 9.91055L90.8107 10.5473C90.9253 10.557 91.0321 10.6095 91.1098 10.6945C91.1875 10.7794 91.2303 10.8904 91.2297 11.0055ZM37.2023 1.40501C36.9857 1.20816 37.1172 0.836135 37.4191 0.844584L37.774 0.850215C54.2441 1.16141 62.0579 2.418 78.305 4.55354C80.5002 4.8453 83.317 7.53367 82.8532 14.0273C82.4392 19.8194 81.4794 21.6612 80.1918 26.9087C78.2011 35.0047 78.0938 41.8704 79.9074 48.0993C79.9116 48.119 79.9178 48.1382 79.9251 48.1568C79.9291 48.168 79.9313 48.1801 79.9356 48.1911C80.3974 49.7738 80.9888 51.3199 81.707 52.8322L45.0567 56.1182C37.6289 45.5616 48.1275 32.2696 46.5014 20.0233C45.6439 13.5868 43.7123 9.28563 40.8361 5.34828C40.8313 5.34154 40.8264 5.33488 40.8214 5.32828C39.7653 3.93426 38.56 2.63316 37.2026 1.40529L37.2023 1.40501Z" fill="#0D99FF"/>
<path d="M110.887 36.8315C110.839 36.74 110.76 36.669 110.664 36.632C110.567 36.595 110.461 36.5946 110.364 36.6307C110.072 36.3885 110.986 35.6073 110.75 34.7748C110.719 34.6671 110.647 34.5759 110.549 34.5213C110.451 34.4668 110.336 34.4534 110.228 34.4841C110.12 34.5147 110.029 34.5869 109.974 34.6848C109.92 34.7827 109.906 34.8983 109.937 35.0061C109.977 35.146 109.88 35.3581 109.78 35.5476C109.598 35.8923 109.426 36.2263 109.469 36.6319C109.516 37.0774 109.909 37.4852 110.364 37.4852C110.483 37.4852 111.041 37.1275 110.887 36.8312V36.8315ZM116.363 37.1281C116.263 37.0772 116.147 37.068 116.041 37.1024C115.934 37.1369 115.846 37.2123 115.794 37.312C115.613 37.6671 114.99 38.3506 114.82 38.4638C114.471 38.6956 114.639 39.238 115.054 39.238C115.135 39.238 115.216 39.2152 115.288 39.167C115.577 38.9744 116.295 38.1906 116.547 37.6964C116.598 37.5966 116.607 37.4807 116.573 37.3741C116.538 37.2676 116.463 37.1791 116.363 37.1281ZM111.085 37.8273C111.003 37.8848 110.884 37.9006 110.789 37.8668C110.737 37.8481 110.682 37.8399 110.626 37.8426C110.571 37.8454 110.517 37.859 110.466 37.8828C110.365 37.9307 110.287 38.0169 110.249 38.1225C110.212 38.228 110.217 38.3442 110.265 38.4455C110.313 38.5468 110.399 38.6249 110.505 38.6626C110.681 38.7238 110.869 38.7429 111.053 38.7183C111.238 38.6937 111.414 38.6261 111.568 38.521C111.613 38.4893 111.652 38.449 111.682 38.4023C111.712 38.3556 111.732 38.3034 111.742 38.2488C111.752 38.1942 111.751 38.1382 111.739 38.084C111.727 38.0298 111.705 37.9785 111.673 37.9329C111.641 37.8874 111.601 37.8485 111.554 37.8186C111.508 37.7886 111.456 37.7682 111.401 37.7584C111.346 37.7486 111.29 37.7496 111.236 37.7614C111.182 37.7733 111.131 37.7957 111.085 37.8273ZM110.04 60.6776C109.986 60.6676 109.93 60.6686 109.875 60.6804C109.821 60.6922 109.77 60.7146 109.724 60.7463C109.679 60.778 109.64 60.8184 109.61 60.8652C109.58 60.912 109.559 60.9642 109.55 61.0189C109.43 61.6911 110.195 62.3679 111.096 61.991C111.187 62.9232 111.625 63.4803 112.132 63.7165C112.703 63.9818 113.405 63.8109 113.728 63.32C113.79 63.2264 113.812 63.1122 113.789 63.0024C113.766 62.8927 113.701 62.7964 113.608 62.7348C113.514 62.6732 113.4 62.6513 113.29 62.6739C113.18 62.6965 113.084 62.7618 113.022 62.8553C112.932 62.9931 112.677 63.0384 112.489 62.9505C112.276 62.852 112.097 62.6098 112.009 62.3042C111.914 61.9775 111.916 61.6032 111.917 61.2411C111.918 60.8893 111.513 60.6897 111.235 60.9062C110.997 61.0918 110.784 61.2462 110.586 61.258C110.492 61.2636 110.393 61.1938 110.382 61.1679C110.391 61.1133 110.39 61.0573 110.379 61.0031C110.367 60.9489 110.344 60.8976 110.313 60.852C110.281 60.8065 110.24 60.7677 110.194 60.7377C110.147 60.7078 110.095 60.6873 110.04 60.6776ZM115.842 66.1934C115.743 66.1402 115.628 66.1283 115.52 66.1604C115.413 66.1926 115.323 66.266 115.269 66.3646C115.216 66.4633 115.204 66.579 115.237 66.6864C115.269 66.7937 115.342 66.884 115.441 66.9372C116.331 67.4183 117.304 67.7297 118.308 67.8555C118.418 67.8674 118.529 67.8356 118.616 67.767C118.702 67.6983 118.759 67.5982 118.773 67.4884C118.787 67.3785 118.757 67.2676 118.69 67.1795C118.622 67.0914 118.523 67.0332 118.414 67.0174C117.513 66.9046 116.641 66.6253 115.842 66.1937L115.842 66.1934ZM125.466 54.2546C125.541 54.2547 125.615 54.2346 125.68 54.1964C125.745 54.1583 125.798 54.1035 125.835 54.0378C126.014 53.7147 126.118 53.3555 126.139 52.9868C126.16 52.6181 126.098 52.2494 125.958 51.9079C125.915 51.8044 125.832 51.7223 125.729 51.6796C125.625 51.6369 125.509 51.6371 125.405 51.6802C125.302 51.7232 125.22 51.8056 125.177 51.9092C125.134 52.0128 125.134 52.1291 125.177 52.2326C125.361 52.6741 125.331 53.2081 125.097 53.626C124.94 53.9088 125.147 54.2546 125.466 54.2546ZM124.716 53.4875L124.994 52.4728C125.009 52.4192 125.013 52.3632 125.006 52.3081C125 52.2529 124.982 52.1996 124.955 52.1512C124.927 52.1028 124.891 52.0603 124.847 52.0262C124.803 51.992 124.753 51.9669 124.699 51.9522C124.645 51.9375 124.589 51.9335 124.534 51.9404C124.479 51.9474 124.426 51.9652 124.378 51.9928C124.329 52.0204 124.287 52.0572 124.253 52.1012C124.219 52.1452 124.194 52.1955 124.179 52.2492L123.901 53.2639C123.886 53.3174 123.882 53.3734 123.889 53.4286C123.895 53.4838 123.913 53.5371 123.94 53.5855C123.968 53.6338 124.005 53.6763 124.048 53.7105C124.092 53.7446 124.142 53.7698 124.196 53.7845C124.25 53.7992 124.306 53.8032 124.361 53.7962C124.416 53.7893 124.469 53.7715 124.518 53.7439C124.566 53.7163 124.608 53.6794 124.642 53.6354C124.676 53.5914 124.701 53.5412 124.716 53.4875ZM100.41 67.7753C99.6955 68.2422 99.5567 69.3355 100.133 69.9663C100.217 70.0578 100.331 70.104 100.445 70.104C100.808 70.104 101.006 69.6692 100.757 69.3963C100.532 69.1507 100.594 68.6641 100.872 68.4821C100.901 68.4636 100.931 68.4453 100.962 68.4267C101.176 68.2963 101.575 68.0535 101.526 67.586C101.489 67.2357 101.217 67.0577 101.054 66.9512C101.015 66.9259 100.975 66.9017 100.942 66.873C100.83 66.7778 100.839 66.5167 100.961 66.3359C101.133 66.0833 101.464 65.907 101.756 65.7515C101.806 65.7261 101.851 65.6909 101.887 65.6481C101.923 65.6052 101.951 65.5556 101.968 65.5021C101.984 65.4486 101.99 65.3923 101.985 65.3364C101.98 65.2805 101.964 65.2263 101.938 65.1767C101.911 65.1272 101.875 65.0834 101.832 65.0479C101.788 65.0125 101.738 64.986 101.684 64.9701C101.631 64.9542 101.574 64.9491 101.518 64.9553C101.463 64.9614 101.409 64.9786 101.36 65.0058C100.999 65.1973 100.551 65.4358 100.262 65.8625C99.9363 66.3435 99.8969 67.0937 100.394 67.5167C100.461 67.5733 100.531 67.6187 100.594 67.6604C100.569 67.6767 100.544 67.6922 100.523 67.7049C100.484 67.7285 100.446 67.7519 100.41 67.7753H100.41ZM98.8729 70.3572L99.0238 69.73C99.0501 69.6211 99.032 69.5062 98.9735 69.4106C98.9151 69.315 98.821 69.2465 98.7121 69.2203C98.6032 69.194 98.4883 69.2121 98.3927 69.2706C98.2971 69.3291 98.2286 69.4231 98.2024 69.532L98.0514 70.1592C98.0252 70.2681 98.0433 70.383 98.1017 70.4786C98.1602 70.5742 98.2542 70.6427 98.3632 70.6689C98.4721 70.6952 98.587 70.6771 98.6826 70.6186C98.7782 70.5602 98.8466 70.4661 98.8729 70.3572ZM122.589 74.617C122.7 74.6169 122.806 74.5737 122.885 74.4965C122.964 74.4193 123.009 74.3142 123.012 74.2039L123.05 72.437C123.053 72.325 123.01 72.2166 122.933 72.1357C122.855 72.0548 122.749 72.008 122.637 72.0055C122.406 71.9957 122.211 72.1852 122.206 72.4184L122.167 74.1853C122.166 74.2415 122.176 74.2975 122.196 74.3498C122.217 74.4021 122.248 74.4498 122.287 74.49C122.327 74.5302 122.374 74.5622 122.426 74.584C122.477 74.6058 122.533 74.617 122.589 74.617ZM47.059 12.2589C47.1069 12.4448 47.2759 12.5771 47.4674 12.5771C67.6867 12.685 78.7001 15.1765 79.5131 15.1765C79.6764 15.1765 79.8285 15.0808 79.8961 14.9287C81.2822 11.8731 79.9685 7.11508 79.2625 7.01792C79.2343 7.01454 58.6573 4.4867 43.2459 3.49765C42.9028 3.47371 42.6761 3.85756 42.8657 4.15101C44.6737 6.91654 46.4338 9.81443 47.059 12.2589ZM51.2921 40.7055C47.9886 40.9393 45.4935 43.8146 45.7272 47.1152C45.9511 50.2967 48.6583 52.8851 52.1369 52.6801C55.4894 52.4441 57.9547 49.4901 57.7018 46.2675C57.4689 42.9666 54.6087 40.472 51.2921 40.7055ZM52.0778 51.8352C49.254 52.0383 46.7743 49.9174 46.5693 47.0561C46.3609 44.1002 48.7048 41.5363 51.7173 41.5363C54.4076 41.5363 56.6657 43.6223 56.8569 46.3295C57.0597 49.1654 54.9137 51.6353 52.0778 51.8352Z" fill="#0D99FF"/>
<path d="M54.5931 44.9039C53.4852 45.896 52.2551 46.8423 51.116 47.8296C50.7422 47.1519 50.2691 46.5339 49.7124 45.9963C49.6725 45.9577 49.6254 45.9274 49.5738 45.907C49.5222 45.8866 49.467 45.8766 49.4116 45.8775C49.3561 45.8785 49.3013 45.8903 49.2504 45.9124C49.1995 45.9345 49.1535 45.9664 49.1149 46.0063C49.0763 46.0462 49.046 46.0932 49.0256 46.1449C49.0052 46.1965 48.9952 46.2516 48.9962 46.3071C48.9971 46.3625 49.0089 46.4173 49.031 46.4682C49.0531 46.5191 49.085 46.5652 49.1249 46.6037C49.7421 47.1997 50.2431 47.9052 50.6023 48.6843C50.63 48.7443 50.6714 48.7969 50.7231 48.838C50.7749 48.879 50.8355 48.9074 50.9002 48.9207C50.9649 48.9341 51.0318 48.9321 51.0956 48.9149C51.1594 48.8977 51.2183 48.8658 51.2675 48.8218C52.4799 47.7361 54.0316 46.5485 55.1609 45.5296C55.2439 45.4543 55.2935 45.3492 55.299 45.2372C55.3044 45.1253 55.2652 45.0158 55.1899 44.9329C55.1146 44.8499 55.0094 44.8002 54.8975 44.7948C54.7856 44.7893 54.6761 44.8286 54.5931 44.9039ZM75.7353 21.6315C75.8474 21.6315 75.9548 21.587 76.034 21.5078C76.1132 21.4285 76.1578 21.3211 76.1578 21.2091C76.1578 21.097 76.1132 20.9896 76.034 20.9103C75.9548 20.8311 75.8474 20.7866 75.7353 20.7866H64.1173C64.0053 20.7866 63.8978 20.8311 63.8186 20.9103C63.7394 20.9896 63.6949 21.097 63.6949 21.2091C63.6949 21.3211 63.7394 21.4285 63.8186 21.5078C63.8978 21.587 64.0053 21.6315 64.1173 21.6315H75.7353ZM62.3622 26.1349C62.3622 26.2469 62.4067 26.3544 62.486 26.4336C62.5652 26.5128 62.6726 26.5573 62.7847 26.5573H75.8395C75.9516 26.5573 76.059 26.5128 76.1382 26.4336C76.2175 26.3544 76.262 26.2469 76.262 26.1349C76.262 26.0229 76.2175 25.9154 76.1382 25.8362C76.059 25.757 75.9516 25.7125 75.8395 25.7125H62.7847C62.6726 25.7125 62.5652 25.757 62.486 25.8362C62.4067 25.9154 62.3622 26.0229 62.3622 26.1349ZM50.7313 28.4662L60.129 27.9649C60.3571 27.9508 60.5317 27.7649 60.5289 27.5396L60.4359 17.9814C60.4331 17.7674 60.2726 17.5899 60.0614 17.5674L51.1312 16.5592C51.0732 16.5528 51.0146 16.5584 50.959 16.5757C50.9033 16.593 50.8518 16.6215 50.8077 16.6596C50.7636 16.6976 50.7278 16.7443 50.7025 16.7969C50.6772 16.8494 50.6631 16.9065 50.6609 16.9647L50.2863 28.0296C50.2835 28.1479 50.3285 28.2634 50.413 28.3479C50.5521 28.4819 50.7031 28.4611 50.7313 28.4662ZM57.1917 23.3322C57.8704 23.8983 58.428 24.7178 58.6448 25.4641C56.5411 25.3796 54.1164 25.3796 52.0155 25.5317C52.0999 24.8924 52.359 24.4052 52.7195 23.8729C53.6311 22.5268 55.73 22.1184 57.1917 23.3322ZM53.7869 20.2569C53.7897 19.5585 54.4177 18.846 55.1077 18.7587C55.9021 18.6595 56.7664 19.5669 56.7664 20.423C56.7664 21.171 56.2502 21.834 55.4118 21.834C54.5205 21.834 53.7869 21.0849 53.7869 20.2569ZM72.2027 96.6403C70.6152 95.858 68.9736 95.0491 67.1614 94.7467C64.5916 94.3178 62.0606 94.9765 59.9242 95.6774C58.5789 96.1185 57.9126 97.6465 58.5153 98.9268C60.5385 103.223 64.2328 104.274 66.8654 102.924C67.6117 102.541 67.9074 102.457 68.2583 103.232C69.2028 105.318 71.9743 106.264 74.0166 105.232C74.1158 105.181 74.1909 105.093 74.2253 104.987C74.2598 104.881 74.2509 104.765 74.2005 104.666C74.1502 104.566 74.0625 104.49 73.9566 104.455C73.8506 104.42 73.7352 104.428 73.6353 104.478C72.016 105.297 69.7714 104.525 69.0279 102.884C68.9604 102.735 68.8852 102.577 68.7756 102.427C68.0133 101.386 67.0535 101.878 66.4796 102.173C66.4187 102.204 66.3584 102.235 66.2993 102.264C64.5893 103.105 62.5735 102.422 61.3338 101.372C60.5134 100.678 59.8417 99.7601 59.2796 98.5669C58.8938 97.7474 59.3227 96.7639 60.1873 96.4801C65.6766 94.6799 67.7646 95.395 71.8292 97.3981C73.8671 98.403 74.3402 98.8823 74.9873 101.522L75.7486 104.625C75.7618 104.678 75.7855 104.729 75.8183 104.774C75.8512 104.819 75.8925 104.856 75.9399 104.885C75.9874 104.914 76.04 104.933 76.0949 104.941C76.1497 104.95 76.2057 104.947 76.2596 104.934C76.3134 104.921 76.3642 104.897 76.4089 104.864C76.4536 104.832 76.4915 104.79 76.5202 104.743C76.549 104.695 76.5681 104.643 76.5765 104.588C76.5849 104.533 76.5824 104.477 76.5692 104.423L75.808 101.321C75.5568 100.297 75.2442 99.0223 74.4016 98.0991C73.7792 97.4176 72.9416 97.0044 72.2027 96.6403ZM74.8477 85.131C73.9034 85.85 74.1321 87.2941 74.8265 88.2877C75.363 89.056 76.0699 89.733 76.1062 90.5277C76.1302 91.0527 75.8533 91.6148 75.7548 92.2493C75.5689 93.449 76.0733 94.7881 77.1043 95.8309C77.997 96.7341 79.1579 97.3382 80.1816 97.8713C80.2809 97.923 80.3968 97.9332 80.5037 97.8995C80.6105 97.8659 80.6997 97.7911 80.7514 97.6917C80.8032 97.5924 80.8134 97.4765 80.7797 97.3696C80.746 97.2627 80.6713 97.1736 80.5719 97.1219C79.5558 96.593 78.5048 96.0461 77.705 95.237C76.8618 94.3837 76.4447 93.3152 76.5898 92.3788C76.6222 92.1712 76.6816 91.9612 76.7444 91.7387C76.8556 91.3447 76.9705 90.9372 76.9502 90.4891C76.9108 89.6186 76.3729 88.9236 75.8984 88.3108C75.768 88.1418 75.6379 87.9742 75.519 87.8039C75.1287 87.2454 74.8079 86.2231 75.3596 85.8032C75.8029 85.4656 76.556 85.7492 77.0711 86.2037C77.2428 86.3558 77.4062 86.5225 77.5794 86.6993C78.0159 87.1454 78.4673 87.607 79.0951 87.8512C79.8974 88.1638 80.7558 88.0362 81.586 87.9131C82.5097 87.7766 83.3073 87.6583 83.8567 88.1449C84.4073 88.6324 84.4127 89.5547 84.3206 90.243C84.2969 90.4187 84.2682 90.5953 84.2395 90.7724C84.1198 91.5097 83.9959 92.2718 84.2079 93.0378C84.309 93.4036 84.4783 93.7362 84.6419 94.0578C84.8748 94.5155 85.0947 94.9478 85.0553 95.3747C85.0215 95.7436 84.7951 96.0968 84.5552 96.4708L84.4459 96.642C83.4453 98.2346 82.9018 100.147 82.9156 102.028C82.9164 102.139 82.9613 102.246 83.0405 102.325C83.1196 102.403 83.2265 102.447 83.338 102.447H83.3411C83.3966 102.447 83.4514 102.435 83.5025 102.414C83.5536 102.392 83.6 102.361 83.639 102.321C83.6779 102.282 83.7087 102.235 83.7296 102.184C83.7505 102.132 83.7611 102.077 83.7607 102.022C83.7477 100.3 84.2451 98.5494 85.1612 97.0917L85.2663 96.9267C85.5369 96.5043 85.8436 96.0261 85.8968 95.4521C85.9585 94.7819 85.6721 94.2192 85.395 93.6748C85.2434 93.3772 85.1007 93.0964 85.0221 92.8125C84.8596 92.2247 84.9635 91.5852 85.0733 90.9079C85.1035 90.7229 85.1333 90.5384 85.1578 90.3551C85.3296 89.0765 85.0731 88.0937 84.4169 87.5124C82.9671 86.2288 80.827 87.6186 79.4012 87.064C78.7374 86.8055 78.2558 86.1226 77.6304 85.5703C76.8807 84.9085 75.69 84.4892 74.8479 85.131H74.8477Z" fill="#0D99FF"/>
<path d="M94.504 97.4373C93.9801 97.6091 93.5698 98.027 93.2212 98.0155C92.8562 98.0025 92.4577 97.4804 91.9595 97.2067C91.338 96.8645 90.5289 96.8727 89.7955 97.2283C89.116 97.5578 88.6228 98.1042 88.2691 98.5438C86.5197 100.717 85.7075 103.552 86.0409 106.321C86.0543 106.433 86.1113 106.534 86.1995 106.603C86.2876 106.672 86.3996 106.704 86.5108 106.69C86.6221 106.677 86.7235 106.62 86.7927 106.532C86.8619 106.444 86.8933 106.332 86.8799 106.221C86.4062 102.285 88.6674 98.7145 90.1645 97.9887C90.6441 97.7555 91.1758 97.7398 91.5523 97.947C92.0167 98.2022 92.4442 98.8333 93.1913 98.8598C94.2299 98.8936 94.5966 97.8135 95.5446 98.3458C95.8839 98.5368 96.1469 98.8795 96.2314 99.2405C96.3841 99.8933 96.1424 100.667 95.5682 101.364C95.0286 102.018 94.3108 102.516 93.6174 103.101C92.2051 104.292 91.9088 105.089 91.7021 106.106C91.4982 107.11 91.3825 107.307 90.394 107.837C89.5674 108.281 88.3302 108.058 87.2052 108.269C87.7752 106.64 88.2621 104.269 89.9884 103.443C90.0886 103.394 90.1654 103.307 90.2021 103.202C90.2387 103.097 90.2323 102.981 90.1842 102.881C90.1361 102.78 90.0502 102.703 89.9452 102.665C89.8402 102.628 89.7247 102.633 89.6237 102.681C88.0523 103.432 87.3288 105.134 86.8284 106.699C86.3856 108.096 85.9393 109.69 84.8241 110.602C84.0074 111.27 82.9011 111.529 81.8558 112.117H80.1928C80.1193 111.888 80.0408 111.661 79.9574 111.435C79.994 111.184 80.043 110.928 80.1069 110.67C80.3637 109.631 80.7971 108.613 81.2165 107.629C81.5164 106.925 81.8265 106.198 82.0771 105.455C83.4528 101.375 82.9946 96.7102 80.8515 92.9758C80.8241 92.9273 80.7874 92.8846 80.7435 92.8503C80.6995 92.816 80.6492 92.7907 80.5955 92.7759C80.5417 92.7611 80.4856 92.7571 80.4303 92.7642C80.375 92.7712 80.3216 92.7891 80.2732 92.8168C80.2249 92.8446 80.1825 92.8816 80.1485 92.9258C80.1145 92.97 80.0897 93.0205 80.0753 93.0744C80.0609 93.1283 80.0574 93.1844 80.0648 93.2397C80.0723 93.2949 80.0906 93.3482 80.1187 93.3963C82.1436 96.9239 82.5762 101.331 81.2762 105.184C81.0362 105.897 80.7327 106.609 80.4392 107.298C80.0573 108.194 79.6647 109.118 79.3896 110.082C76.9516 104.89 72.5068 101.405 67.9693 97.8947C67.8807 97.8261 67.7684 97.7955 67.6573 97.8097C67.5461 97.8239 67.4452 97.8816 67.3766 97.9703C67.308 98.0589 67.2775 98.1711 67.2917 98.2823C67.3058 98.3934 67.3636 98.4944 67.4522 98.5629C72.1595 102.204 76.9417 105.951 79.0945 111.538C79.0713 111.73 79.0553 111.923 79.0463 112.117H75.6125C75.4394 112.117 75.2685 112.155 75.1123 112.23C74.956 112.304 74.8182 112.413 74.709 112.547C74.5998 112.681 74.5219 112.838 74.4809 113.006C74.4399 113.174 74.4368 113.35 74.4719 113.519L76.3644 122.624C76.4046 122.822 76.4967 123.005 76.6311 123.155H73.8729C73.7609 123.155 73.6534 123.2 73.5742 123.279C73.495 123.358 73.4505 123.466 73.4505 123.578C73.4505 123.69 73.495 123.797 73.5742 123.876C73.6534 123.956 73.7609 124 73.8729 124H87.2007C87.3127 124 87.4201 123.956 87.4994 123.876C87.5786 123.797 87.6231 123.69 87.6231 123.578C87.6231 123.466 87.5786 123.358 87.4994 123.279C87.4201 123.2 87.3127 123.155 87.2007 123.155H84.5545C84.8919 122.776 84.6906 122.951 87.3195 113.592C87.5231 112.864 86.9745 112.117 86.1958 112.117H83.8716C85.2496 111.507 86.0863 110.856 86.8103 109.266C87.8982 108.776 89.5364 109.256 90.7936 108.582C92.022 107.922 92.2789 107.513 92.5301 106.273C92.574 106.058 92.6154 105.854 92.6765 105.664C92.9962 104.675 93.9033 103.948 94.6867 103.318C95.2179 102.892 95.767 102.451 96.2199 101.901C96.9634 101 97.2675 99.9598 97.054 99.0482C96.7933 97.933 95.5969 97.0788 94.504 97.4373ZM79.7326 121.055C79.7326 121.21 79.6059 121.337 79.451 121.337H79.3383C79.1835 121.337 79.0567 121.21 79.0567 121.055C79.0567 120.9 79.1835 120.774 79.3383 120.774H79.451C79.6059 120.774 79.7326 120.9 79.7326 121.055ZM78.302 117.211C78.3555 117.276 78.4174 117.338 78.4794 117.397C78.6287 117.549 78.7976 117.721 78.8906 117.957C79.1911 118.714 78.4862 119.429 78.8596 119.923C78.9075 119.985 78.9553 119.996 78.9891 119.996C79.144 120.008 79.2623 120.14 79.2539 120.295C79.2454 120.444 79.1215 120.56 78.9722 120.56H78.9582C78.3521 120.529 78.0922 119.817 78.2175 119.227C78.3003 118.843 78.4797 118.451 78.3668 118.163C78.2865 117.962 78.0339 117.77 77.8683 117.569C77.5951 117.236 77.4796 116.732 77.7922 116.408C78.035 116.152 78.396 116.182 78.5385 116.079C78.6664 115.976 78.5892 115.708 78.4738 115.589C78.2873 115.387 77.9725 115.277 77.6768 115.119C77.2037 114.868 76.9305 114.519 76.9051 114.136C76.9025 114.099 76.9071 114.062 76.9188 114.026C76.9306 113.991 76.9491 113.959 76.9735 113.931C76.9978 113.903 77.0274 113.88 77.0607 113.863C77.0939 113.847 77.13 113.837 77.167 113.834C77.2039 113.832 77.241 113.836 77.2761 113.848C77.3113 113.859 77.3437 113.878 77.3715 113.902C77.3993 113.927 77.422 113.957 77.4381 113.99C77.4543 114.023 77.4636 114.059 77.4656 114.096C77.4853 114.353 77.8035 114.55 77.9415 114.623C78.2121 114.769 78.6075 114.903 78.8849 115.203C79.2381 115.582 79.2865 116.221 78.8765 116.527C78.7357 116.634 78.5752 116.673 78.4372 116.707C78.333 116.732 78.2372 116.755 78.1978 116.797C78.1302 116.868 78.1809 117.065 78.302 117.211ZM97.2872 107.05C97.2317 107.047 97.1761 107.054 97.1235 107.073C97.071 107.091 97.0227 107.12 96.9814 107.157C96.9401 107.194 96.9067 107.239 96.8831 107.29C96.8595 107.34 96.8462 107.395 96.844 107.45C96.5789 112.636 94.0812 117.766 90.1622 121.173C90.1204 121.209 90.0861 121.254 90.0613 121.303C90.0366 121.353 90.0219 121.407 90.018 121.462C90.0142 121.518 90.0213 121.573 90.0389 121.626C90.0565 121.678 90.0843 121.727 90.1207 121.769C90.1571 121.811 90.2013 121.845 90.251 121.87C90.3006 121.894 90.3546 121.909 90.4099 121.913C90.4653 121.917 90.5208 121.91 90.5734 121.892C90.626 121.874 90.6746 121.847 90.7164 121.81C94.8053 118.256 97.4111 112.904 97.6877 107.494C97.6905 107.438 97.6824 107.383 97.6638 107.331C97.6453 107.278 97.6166 107.23 97.5794 107.189C97.5422 107.148 97.4972 107.114 97.4471 107.091C97.397 107.067 97.3426 107.053 97.2872 107.05ZM50.168 36.6923C50.168 36.9261 50.3567 37.1148 50.5904 37.1148H75.0915C75.1575 37.1415 75.2292 37.1511 75.2999 37.1428C75.3707 37.1345 75.4382 37.1086 75.4963 37.0673C75.5543 37.0261 75.6011 36.9709 75.6322 36.9069C75.6634 36.8428 75.6779 36.7719 75.6744 36.7008L75.4773 32.9496C75.466 32.7243 75.2802 32.5469 75.0577 32.5469H50.5904C50.3567 32.5469 50.168 32.7384 50.168 32.9693V36.6923ZM76.1797 46.6496C75.1796 46.1799 73.9839 46.1765 72.981 46.6401C72.8872 46.6834 72.7946 46.7308 72.7019 46.7783C72.4671 46.8994 72.2451 47.0132 72.0345 47.0304C71.5554 47.0693 71.0936 46.6564 70.5695 45.7318C70.3724 45.3846 69.8449 45.4806 69.7843 45.8763C69.7077 46.3793 69.5596 46.7522 69.3318 47.0152C69.0868 47.2988 68.7257 47.4399 68.4345 47.3675C68.1875 47.3061 67.9679 47.0121 68.0411 46.7865C68.0737 46.6845 68.0664 46.574 68.0207 46.4772C67.9749 46.3804 67.8941 46.3046 67.7946 46.2651C67.6951 46.2256 67.5843 46.2254 67.4846 46.2645C67.3849 46.3035 67.3038 46.379 67.2576 46.4756C66.2995 48.5019 66.3038 48.5095 66.2497 48.6004C66.1821 48.4999 66.1106 48.3033 66.0757 48.1873C66.1914 47.6114 66.2148 47.0174 66.1348 46.4365C66.1219 46.343 66.0781 46.2566 66.0104 46.191C65.9427 46.1253 65.8549 46.0842 65.7612 46.0742C65.6674 46.0642 65.573 46.0859 65.4929 46.1357C65.4129 46.1856 65.3518 46.2608 65.3195 46.3494C65.1043 46.9457 65.0652 47.5914 65.2069 48.2093C65.0097 49.0175 64.5949 49.7737 64.0043 50.3563C62.8829 51.4634 61.9384 51.1781 61.1952 49.7813C60.0588 47.6446 59.9467 44.9365 60.9025 42.7134C61.2929 41.8057 62.042 40.8263 62.9604 41.2008C63.7641 41.5289 63.7514 42.8585 63.7283 43.2578C63.6351 44.834 63.1943 46.3701 62.4374 47.7559C62.3871 47.8538 62.3771 47.9674 62.4094 48.0726C62.4417 48.1778 62.5137 48.2663 62.6102 48.3192C62.7068 48.3721 62.8201 48.3852 62.9261 48.3558C63.0322 48.3264 63.1226 48.2567 63.178 48.1617C63.9951 46.6659 64.4711 45.0079 64.5718 43.3065C64.6563 41.841 64.1854 40.7883 63.2797 40.4185C62.3214 40.027 60.9721 40.4137 60.1264 42.3794C59.0557 44.8698 59.1762 47.7849 60.4494 50.1781C61.9758 53.0472 64.5811 51.9526 65.7318 49.2867C65.9036 49.4422 66.1064 49.5166 66.3238 49.4963C66.7873 49.4529 66.9949 49.013 67.0729 48.8477L67.5685 47.7973C68.3188 48.5779 69.7604 48.3081 70.3594 46.9451C70.7875 47.4844 71.3566 47.9324 72.1035 47.8724C72.5918 47.8325 72.9816 47.5705 73.3356 47.4069C73.8366 47.1752 74.3993 47.0957 74.9439 47.1645C74.9248 47.1926 74.7986 47.2917 74.7986 47.5153C74.7958 47.7773 74.9873 47.9885 75.2408 48.0054H75.2689C75.5353 48.0054 75.7302 47.7635 75.6857 47.5182C75.6961 47.4661 75.6942 47.4106 75.6781 47.3574C75.7257 47.3765 75.7741 47.3928 75.8206 47.4145C75.922 47.4621 76.0382 47.4675 76.1436 47.4295C76.249 47.3914 76.335 47.313 76.3826 47.2116C76.4302 47.1102 76.4356 46.994 76.3975 46.8886C76.3595 46.7832 76.2811 46.6973 76.1797 46.6496ZM82.3601 65.4518C79.0764 65.4518 76.4067 68.1244 76.4067 71.4081C76.4067 73.2471 77.2431 74.8862 78.5498 75.976L78.5526 75.9789L78.5554 75.9817L78.5611 75.9873C78.6794 76.0859 78.8004 76.1788 78.9272 76.2661L78.93 76.2689C78.9413 76.2774 78.9469 76.2858 78.961 76.2915H78.9638C79.9269 76.9674 81.0985 77.3616 82.3601 77.3616C85.6439 77.3616 88.3164 74.6918 88.3164 71.4081C88.3164 71.3884 88.3165 71.3659 88.3136 71.3462V71.3434C88.2798 68.0878 85.6241 65.4518 82.3601 65.4518ZM81.5153 73.6358C81.4083 73.6358 81.3013 73.5935 81.2168 73.5119L79.5496 71.8418C79.51 71.8028 79.4787 71.7563 79.4573 71.7051C79.4359 71.6538 79.4248 71.5988 79.4248 71.5433C79.4248 71.4878 79.4359 71.4328 79.4573 71.3815C79.4787 71.3303 79.51 71.2838 79.5496 71.2448C79.7129 71.0786 79.9804 71.0786 80.1466 71.2448L81.5153 72.6163L84.7962 69.3354C84.9595 69.1721 85.2271 69.1721 85.3932 69.3354C85.5594 69.5016 85.5594 69.7691 85.3932 69.9324L81.8138 73.5119C81.7321 73.5935 81.6251 73.6358 81.5153 73.6358ZM104.056 88.8377C104.138 91.0639 104.353 92.0454 104.417 92.7353C104.439 92.9691 104.639 93.1409 104.876 93.1212C105.107 93.0986 105.279 92.8931 105.259 92.6621C105.242 92.4594 104.736 88.8146 104.994 88.5448C105.149 88.3894 104.478 88.4936 118.073 88.925C118.225 88.9334 118.363 88.8574 118.444 88.7307L120.751 85.0978C120.909 84.9034 121.125 84.7936 121.351 84.8021C126.716 84.9879 126.296 84.9555 126.341 85.0133C126.378 85.0527 126.392 85.1147 126.383 85.1822C125.961 88.466 125.457 91.592 124.97 94.6166C124.798 95.6924 124.62 96.7935 124.449 97.8947C124.285 97.8778 124.119 97.9115 123.97 97.996C122.753 98.686 121.576 99.2943 120.576 99.1957C120.15 99.1535 119.771 99.403 119.723 100.156L106.47 99.7139C106.191 99.7055 105.952 99.4633 105.926 99.1676C105.757 97.1985 105.543 95.7693 105.366 94.3547C105.338 94.1237 105.126 93.9604 104.896 93.9886C104.665 94.0167 104.498 94.2279 104.529 94.4589C104.71 95.9149 104.921 97.323 105.084 99.238C105.149 99.9702 105.732 100.536 106.442 100.559L119.692 101.001C119.669 103.767 120.363 105.485 121.573 107.005C122.215 107.811 123.212 108.486 123.747 108.816C123.877 108.898 124.026 108.937 124.175 108.937C124.246 108.937 124.316 108.929 124.384 108.909H124.387C126.15 108.416 127.741 107.146 128.715 105.479C128.783 105.363 128.847 105.245 128.909 105.124C129.802 103.386 129.766 101.44 129.732 99.7252C129.729 99.514 129.636 99.3168 129.475 99.176C129.291 99.0155 129.069 98.9609 128.825 98.9817C127.597 99.1253 126.361 98.7029 125.254 98.2157C125.434 97.0526 125.62 95.8895 125.803 94.7518C126.293 91.7215 126.797 88.5871 127.22 85.2893C127.297 84.6962 126.885 84.1473 126.296 84.129L121.382 83.9572C120.894 83.9383 120.406 84.1521 120.05 84.6275L119.767 85.0704L107.542 84.6418C106.067 84.6292 104.823 86.017 104.958 87.649H104.957C104.412 87.7582 104.037 88.2567 104.056 88.8374V88.8377ZM120.621 100.604C120.644 100.452 120.785 100.342 120.94 100.364C121.092 100.384 121.201 100.528 121.179 100.68C121.018 101.863 121.221 103.147 121.818 104.276C121.891 104.414 121.838 104.586 121.7 104.656C121.667 104.674 121.632 104.685 121.595 104.689C121.558 104.692 121.521 104.689 121.486 104.678C121.45 104.667 121.418 104.649 121.389 104.626C121.361 104.602 121.337 104.574 121.32 104.541C120.709 103.374 120.431 101.987 120.621 100.604ZM125.598 102.054C126.532 102.989 125.803 104.58 124.336 104.535C123.483 104.501 122.798 103.834 122.812 103.043C122.841 101.688 124.643 101.09 125.598 102.054ZM121.976 104.763L122.041 104.766C122.198 104.772 122.317 104.904 122.311 105.059C122.305 105.211 122.179 105.329 122.029 105.329H122.018L121.951 105.327C121.796 105.318 121.677 105.189 121.683 105.031C121.689 104.876 121.824 104.763 121.976 104.763ZM107.534 85.4864L119.241 85.8976L117.861 88.0717L105.807 87.6521C105.664 86.4335 106.612 85.4487 107.534 85.4864H107.534Z" fill="#0D99FF"/>
<path d="M119.604 92.5576L110.26 92.2309C109.394 92.2016 108.664 92.8747 108.635 93.746C108.606 94.6041 109.275 95.3414 110.15 95.371L119.497 95.6977H119.55C119.957 95.697 120.348 95.5389 120.641 95.2565C120.934 94.974 121.106 94.5892 121.122 94.1825C121.129 93.9762 121.095 93.7704 121.023 93.5771C120.95 93.3837 120.84 93.2066 120.7 93.0557C120.559 92.9048 120.389 92.7831 120.201 92.6977C120.013 92.6122 119.81 92.5646 119.604 92.5576ZM121.453 86.6638L121.605 86.6692C121.661 86.6717 121.716 86.6631 121.769 86.644C121.821 86.6249 121.869 86.5955 121.911 86.5576C121.952 86.5198 121.985 86.4741 122.008 86.4234C122.031 86.3726 122.044 86.3177 122.046 86.2619C122.048 86.2061 122.039 86.1505 122.019 86.0982C122 86.046 121.97 85.9981 121.932 85.9575C121.893 85.9168 121.847 85.8842 121.796 85.8614C121.745 85.8387 121.69 85.8262 121.634 85.8249L121.482 85.8192C121.37 85.8153 121.261 85.856 121.179 85.9324C121.098 86.0089 121.049 86.1147 121.045 86.2267C121.041 86.3387 121.082 86.4477 121.159 86.5297C121.235 86.6116 121.341 86.6599 121.453 86.6638ZM123.502 86.6106C123.581 86.5333 123.626 86.4283 123.628 86.3182C123.631 86.208 123.59 86.1013 123.514 86.0209C123.439 85.9405 123.335 85.8927 123.225 85.8877C123.115 85.8827 123.007 85.9209 122.925 85.9941L122.847 86.0668C122.785 86.1246 122.742 86.1998 122.723 86.2825C122.705 86.3652 122.711 86.4516 122.742 86.5305C122.773 86.6094 122.827 86.6772 122.898 86.7249C122.968 86.7726 123.05 86.7981 123.135 86.7981C123.35 86.7981 123.461 86.6402 123.502 86.6106ZM125.133 86.8238C125.234 86.7773 125.314 86.6922 125.353 86.5872C125.392 86.4823 125.388 86.3661 125.341 86.2642L125.271 86.1096C125.225 86.0076 125.139 85.9283 125.035 85.8891C124.93 85.8499 124.813 85.854 124.711 85.9005C124.609 85.947 124.53 86.0321 124.491 86.137C124.452 86.242 124.456 86.3582 124.502 86.4602L124.573 86.6148C124.596 86.6653 124.628 86.7108 124.669 86.7486C124.71 86.7864 124.757 86.8159 124.809 86.8353C124.861 86.8547 124.917 86.8637 124.972 86.8617C125.028 86.8597 125.082 86.8468 125.133 86.8238ZM35.7624 11.6905C36.5025 11.6905 37.1029 11.1132 37.1029 10.4015C37.1029 9.68984 36.5025 9.11279 35.7624 9.11279C35.022 9.11279 34.4219 9.69012 34.4219 10.4015C34.4219 11.1129 35.022 11.6905 35.7624 11.6905Z" fill="#0D99FF"/>
<path d="M40.0902 11.7937C40.8304 11.7937 41.4305 11.2167 41.4305 10.505C41.4305 9.79328 40.8304 9.21631 40.0902 9.21631C39.35 9.21631 38.75 9.79328 38.75 10.505C38.75 11.2167 39.35 11.7937 40.0902 11.7937Z" fill="#0D99FF"/>
<path d="M123.882 26.9635C123.914 28.0032 123.838 29.0435 123.655 30.0675C123.64 30.1535 123.651 30.2421 123.688 30.3213C123.725 30.4004 123.786 30.4662 123.862 30.5094C123.938 30.5527 124.025 30.5714 124.112 30.5629C124.199 30.5544 124.281 30.5192 124.347 30.4621C125.2 29.7254 126.102 29.0283 127.027 28.3843L127.083 28.3927C127.292 28.4153 127.5 28.4265 127.706 28.4265C129.009 28.4265 130.268 27.9816 131.302 27.148C132.381 26.273 133.082 25.0775 133.346 23.8586C133.349 23.8558 133.349 23.8558 133.349 23.853V23.8336C133.4 23.6139 133.437 23.3886 133.459 23.1605C133.797 19.9331 131.488 17.0268 128.311 16.6832C126.79 16.517 125.292 16.9592 124.092 17.9279C121.27 20.2051 121.151 24.5317 123.882 26.9635ZM129.367 20.2401C129.486 20.3414 129.5 20.5189 129.398 20.6371C129.3 20.7554 129.122 20.7723 129.004 20.6709C128.15 19.95 126.913 20.0787 126.416 20.6343C125.982 21.1145 126.131 21.8008 127.024 22.0819C127.233 22.1466 127.45 22.1861 127.68 22.2255C127.928 22.2705 128.185 22.3156 128.438 22.3973C130.016 22.9098 130.04 24.5525 128.539 25.3064C128.258 25.4501 127.863 25.5965 127.424 25.6049C127.424 25.6373 127.423 25.6148 127.345 26.4414C127.331 26.5878 127.207 26.6976 127.064 26.6976H127.038C126.964 26.6905 126.896 26.6542 126.848 26.5966C126.801 26.5391 126.778 26.465 126.785 26.3907L126.864 25.5599C126.864 25.5543 126.864 25.5486 126.867 25.543C126.306 25.3881 125.853 24.9516 125.723 24.4334C125.714 24.3977 125.712 24.3606 125.717 24.3241C125.722 24.2876 125.735 24.2525 125.754 24.2209C125.773 24.1892 125.797 24.1616 125.827 24.1396C125.857 24.1176 125.89 24.1016 125.926 24.0926C126.078 24.0532 126.23 24.1462 126.27 24.2954C126.357 24.639 126.681 24.9291 127.078 25.0135C127.977 25.2067 129.208 24.4295 129.074 23.6787C129.004 23.3013 128.61 23.045 128.263 22.9324C128.049 22.862 127.824 22.8225 127.585 22.7803C127.345 22.738 127.097 22.6958 126.852 22.6169C124.759 21.9616 125.52 19.5098 127.72 19.6149L127.802 18.7531C127.811 18.6802 127.848 18.6137 127.905 18.5677C127.963 18.5218 128.036 18.5 128.109 18.507C128.182 18.5139 128.25 18.5491 128.298 18.605C128.345 18.6609 128.369 18.7332 128.365 18.8066L128.28 19.6909C128.677 19.7895 129.052 19.9753 129.367 20.2401ZM130.654 20.2936C130.63 20.2658 130.611 20.2334 130.599 20.1983C130.587 20.1632 130.582 20.1261 130.585 20.0891C130.588 20.0521 130.598 20.0161 130.614 19.983C130.631 19.9499 130.654 19.9205 130.683 19.8965C130.71 19.8722 130.743 19.8537 130.778 19.842C130.813 19.8303 130.85 19.8256 130.887 19.8283C130.924 19.8309 130.96 19.8407 130.993 19.8573C131.026 19.8738 131.055 19.8967 131.08 19.9246C131.933 20.9075 132.307 22.3156 132.06 23.6026C132.031 23.7378 131.913 23.8307 131.784 23.8307C131.742 23.8307 131.701 23.8216 131.663 23.8039C131.626 23.7862 131.592 23.7605 131.566 23.7285C131.539 23.6965 131.52 23.6591 131.509 23.6188C131.499 23.5786 131.497 23.5365 131.505 23.4956C131.722 22.3747 131.398 21.1469 130.654 20.2936ZM17.2481 100.843C17.848 101.189 18.5391 101.218 18.5689 101.249C18.9407 101.311 19.2842 101.372 19.5687 101.53C19.8745 101.784 20.6022 103.422 21.0866 103.693C21.1514 103.73 21.2218 103.749 21.295 103.749C21.3176 103.749 21.3401 103.747 21.3626 103.744C21.3992 103.753 21.3226 103.751 23.7198 103.547C32.2332 102.814 40.3411 102.119 48.5081 100.564C48.5109 100.564 48.5138 100.564 48.5166 100.561C49.798 100.319 51.0822 100.052 52.3692 99.7616C52.4752 99.7372 52.5679 99.6731 52.6282 99.5825C52.6884 99.4919 52.7116 99.3816 52.693 99.2744C51.2765 91.22 50.1866 83.7626 49.1643 75.0915C49.1362 74.8634 48.9277 74.6973 48.6996 74.7226C46.0101 75.007 43.3685 75.2408 40.7748 75.452C40.7816 75.2853 40.7782 74.9845 40.7483 73.9887C40.7117 72.7648 39.6024 71.5701 36.965 71.85C28.6744 72.7845 28.8171 72.7174 28.2449 72.967C26.9705 73.5223 27.173 74.9552 27.3209 76.0017C27.3454 76.1763 27.3685 76.3433 27.3842 76.4965H27.3837C26.4481 76.5757 20.6541 77.0874 20.484 77.1555C20.2784 77.1696 20.115 77.3273 20.0953 77.5357C19.4166 84.5481 18.0282 93.9514 17.0397 100.412C17.0144 100.586 17.096 100.755 17.2481 100.843V100.843ZM21.9033 102.857C22.5144 98.8632 22.3652 94.7797 22.0526 90.7581V90.7567C22.3258 90.7849 24.5401 90.848 26.1916 90.848C29.0027 90.848 31.8082 90.7224 34.6014 90.4774L34.7213 91.6036C34.7689 92.0513 35.0835 92.3907 35.4206 92.3575L38.0797 92.0961C38.4106 92.0637 38.6393 91.6838 38.5922 91.2439L38.4663 90.0594C42.2823 89.5687 46.0652 88.8487 49.7946 87.9033C49.8689 87.8845 49.9326 87.8456 49.9838 87.7958C50.5302 91.5385 51.1272 95.2162 51.7918 99.0237C41.9306 101.207 32.0699 101.981 21.9033 102.857ZM28.1573 75.8834C28.0049 74.8043 27.9461 74.0188 28.5825 73.7414C29.007 73.5567 28.7924 73.6215 37.0546 72.6904C39.0913 72.4733 39.8806 73.2413 39.9037 74.014C39.942 75.2926 39.9356 75.3793 39.9235 75.5224C35.5423 75.8685 32.1851 76.1011 28.2285 76.4292H28.2243C28.2057 76.2469 28.1834 76.0649 28.1573 75.8834ZM48.3729 75.6069C48.8517 79.6397 49.3474 83.4191 49.8853 87.1196V87.1207C49.7937 87.0721 49.6873 87.0591 49.5867 87.0844C45.8963 88.0193 42.153 88.7316 38.3771 89.2174L38.2256 87.7943C38.178 87.3463 37.8634 87.0072 37.5263 87.0402L34.8672 87.3015C34.536 87.3339 34.3076 87.7138 34.3547 88.1537L34.5124 89.6373C26.8086 90.3123 22.3525 89.8353 21.985 89.9313C21.2455 79.2316 21.1953 81.1757 21.1852 77.919C30.5387 76.9567 39.0414 76.5728 48.3729 75.6069Z" fill="#0D99FF"/>
<path d="M23.9985 82.9266C24.0495 82.9767 24.1004 83.0266 24.15 83.0775C24.2818 83.2127 24.4401 83.3927 24.4941 83.5845C24.5299 83.7109 24.5065 83.8537 24.4406 83.9097C24.4223 83.9255 24.3713 83.928 24.3705 83.9382C24.3214 83.8401 24.2361 83.765 24.1327 83.7288C24.0292 83.6925 23.9156 83.698 23.8161 83.744C23.7166 83.79 23.6389 83.873 23.5995 83.9753C23.5601 84.0777 23.5621 84.1913 23.6051 84.2922L24.2027 85.8104C24.2325 85.8864 24.2742 85.9923 24.2843 86.0684C24.1996 86.067 24.1165 86.0913 24.0459 86.138C23.9753 86.1848 23.9205 86.2518 23.8886 86.3303C23.8675 86.3816 23.8568 86.4366 23.8569 86.4921C23.8571 86.5476 23.8682 86.6025 23.8896 86.6537C23.911 86.7049 23.9422 86.7514 23.9816 86.7905C24.021 86.8297 24.0677 86.8606 24.119 86.8817C24.1984 86.9144 24.2826 86.9304 24.3677 86.9304C24.4795 86.9304 24.5924 86.9025 24.6966 86.8473C24.8012 86.7914 24.8924 86.7134 24.9638 86.6188C25.0353 86.5242 25.0854 86.4152 25.1106 86.2993C25.1782 85.9819 25.0644 85.6927 24.9887 85.5009L24.6825 84.7225C24.7946 84.6859 24.8994 84.629 24.9887 84.5527C25.3106 84.2784 25.4356 83.8081 25.3069 83.3544C25.201 82.9798 24.9566 82.6948 24.7555 82.4881C24.7009 82.4325 24.6457 82.3776 24.5899 82.3234L24.5214 82.2561C25.2159 81.6492 25.5184 80.6176 25.1993 79.7361C25.159 79.6338 25.0804 79.5512 24.9802 79.506C24.8799 79.4607 24.766 79.4563 24.6626 79.4937C24.5592 79.5311 24.4744 79.6074 24.4264 79.7063C24.3783 79.8052 24.3707 79.9189 24.4051 80.0234C24.6406 80.675 24.3167 81.4892 23.6977 81.801C23.6432 81.8284 23.5952 81.8674 23.5572 81.9152C23.5191 81.963 23.4919 82.0184 23.4774 82.0777C23.4628 82.1371 23.4613 82.1988 23.473 82.2588C23.4846 82.3187 23.5091 82.3755 23.5448 82.425C23.6839 82.6182 23.8439 82.7751 23.9982 82.9266H23.9985ZM48.6787 92.6093C48.6261 92.5137 48.5387 92.4421 48.4346 92.4095C48.3304 92.3768 48.2177 92.3857 48.12 92.4343C48.0223 92.4829 47.9472 92.5673 47.9103 92.67C47.8735 92.7727 47.8777 92.8857 47.9222 92.9853C48.7159 94.5833 49.0717 96.3631 48.9535 98.1435C48.949 98.1993 48.9556 98.2554 48.9729 98.3087C48.9903 98.3619 49.018 98.4112 49.0546 98.4536C49.0911 98.496 49.1358 98.5308 49.1859 98.5558C49.236 98.5808 49.2905 98.5956 49.3464 98.5993C49.4023 98.6031 49.4583 98.5956 49.5113 98.5775C49.5643 98.5594 49.6132 98.5309 49.655 98.4937C49.6969 98.4566 49.731 98.4114 49.7552 98.361C49.7795 98.3105 49.7935 98.2557 49.7964 98.1998C49.9246 96.2702 49.5389 94.3412 48.6787 92.6093ZM44.9551 95.0155C44.9035 95.036 44.8565 95.0664 44.8167 95.1051C44.7769 95.1437 44.7451 95.1899 44.7232 95.2408C44.7012 95.2917 44.6895 95.3465 44.6887 95.402C44.6879 95.4575 44.698 95.5125 44.7185 95.5641C44.9331 96.104 44.9224 96.7441 44.6895 97.2769C44.6457 97.3794 44.6442 97.495 44.6853 97.5986C44.7264 97.7022 44.8067 97.7854 44.9089 97.83C45.011 97.8746 45.1266 97.877 45.2305 97.8368C45.3344 97.7966 45.4182 97.7169 45.4637 97.6151C45.7896 96.8639 45.804 96.0139 45.5037 95.2521C45.4832 95.2005 45.4527 95.1535 45.4141 95.1137C45.3754 95.0739 45.3293 95.0421 45.2784 95.0201C45.2274 94.9982 45.1727 94.9865 45.1172 94.9857C45.0617 94.9849 45.0066 94.995 44.9551 95.0155ZM43.5154 78.0652C43.8238 78.1624 43.8762 78.2001 43.9877 78.2001C44.1102 78.2001 44.2243 78.1438 44.304 78.0523C44.2875 78.1451 44.3027 78.2408 44.3471 78.3241C44.3914 78.4073 44.4624 78.4732 44.5487 78.5113C45.3245 78.8535 46.012 79.3681 46.5589 80.016C46.5942 80.0598 46.6378 80.0962 46.6873 80.1229C46.7368 80.1496 46.7912 80.1662 46.8472 80.1716C46.9031 80.177 46.9596 80.1712 47.0133 80.1545C47.0671 80.1378 47.1169 80.1106 47.1599 80.0744C47.203 80.0382 47.2383 79.9937 47.264 79.9436C47.2896 79.8936 47.305 79.8389 47.3092 79.7828C47.3134 79.7267 47.3064 79.6704 47.2885 79.617C47.2707 79.5637 47.2424 79.5145 47.2052 79.4722C46.575 78.7255 45.7828 78.1324 44.8889 77.738C44.8068 77.702 44.7154 77.6932 44.628 77.7128C44.5406 77.7324 44.4617 77.7794 44.4028 77.847C44.4197 77.7479 44.4006 77.646 44.349 77.5598C44.2973 77.4735 44.2165 77.4086 44.1212 77.3767L43.7824 77.2637C43.7296 77.2454 43.6736 77.2377 43.6178 77.2411C43.5619 77.2445 43.5073 77.259 43.4571 77.2837C43.4069 77.3084 43.3621 77.3428 43.3253 77.385C43.2885 77.4271 43.2605 77.4761 43.2428 77.5292C43.2251 77.5823 43.2182 77.6384 43.2223 77.6942C43.2265 77.7499 43.2417 77.8044 43.2671 77.8542C43.2924 77.9041 43.3274 77.9484 43.3701 77.9846C43.4127 78.0209 43.4621 78.0483 43.5154 78.0652ZM46.5186 78.0213C46.6516 78.0433 46.7805 78.1264 46.8549 78.2384C46.8853 78.2853 46.9247 78.3256 46.9708 78.3572C47.017 78.3887 47.0689 78.4107 47.1236 78.4221C47.1783 78.4334 47.2347 78.4337 47.2895 78.4231C47.3444 78.4125 47.3966 78.3911 47.4431 78.3602C47.4896 78.3292 47.5295 78.2894 47.5605 78.2429C47.5916 78.1965 47.6131 78.1443 47.6238 78.0895C47.6345 78.0347 47.6342 77.9782 47.623 77.9235C47.6118 77.8688 47.5898 77.8168 47.5584 77.7707C47.4558 77.617 47.3228 77.486 47.1676 77.3857C47.0124 77.2854 46.8383 77.218 46.6561 77.1877C46.6012 77.1784 46.545 77.1799 46.4908 77.1924C46.4365 77.2048 46.3852 77.2279 46.3399 77.2602C46.2946 77.2925 46.2561 77.3334 46.2266 77.3807C46.1972 77.4279 46.1774 77.4805 46.1683 77.5354C46.1593 77.5903 46.1612 77.6465 46.1739 77.7007C46.1866 77.7549 46.2099 77.806 46.2425 77.8512C46.275 77.8963 46.3162 77.9346 46.3636 77.9638C46.411 77.993 46.4637 78.0126 46.5186 78.0213ZM15.5245 59.2785C17.31 59.2785 18.7631 57.8254 18.7631 56.0399V49.7963C18.7631 48.0109 17.31 46.5577 15.5245 46.5577H8.6163C6.83082 46.5577 5.37765 48.0109 5.37765 49.7963V56.0399C5.37765 56.5891 5.51565 57.1072 5.76066 57.5606V57.5635C6.03642 58.0814 6.44782 58.5146 6.95083 58.8167C7.45385 59.1188 8.02954 59.2784 8.6163 59.2785H15.5245ZM17.3353 48.2333C17.3269 48.6144 17.0328 48.9289 16.6481 48.9289C16.3919 48.9289 16.1412 48.7909 16.0201 48.5572C15.8455 48.2277 15.9751 47.7996 16.3018 47.6194C16.3102 47.6166 16.3187 47.611 16.3271 47.6081C16.3384 47.5969 16.3902 47.5757 16.406 47.5715C16.7355 47.4589 17.3353 47.7174 17.3353 48.2333ZM10.7735 51.0608C10.9059 51.1453 10.9425 51.3199 10.858 51.4495C10.7735 51.5818 10.5989 51.6184 10.4666 51.5339C10.154 51.3312 9.54284 51.0158 8.95425 51.1847C8.7036 51.2579 8.47549 51.4551 8.35721 51.6973C8.29525 51.8268 8.23611 52.024 8.3206 52.2267C8.47267 52.6069 8.96833 52.7787 9.433 52.8942C9.94837 53.0237 10.6524 53.1983 10.9847 53.7813C11.2551 54.2544 11.1819 54.8937 10.8073 55.3386C10.5454 55.6456 10.154 55.8484 9.72589 55.9047V56.3271C9.72589 56.482 9.59916 56.6088 9.44427 56.6088C9.28937 56.6088 9.16264 56.482 9.16264 56.3271V55.8991C8.77682 55.8456 8.38537 55.6822 8.01926 55.4231C7.98908 55.4019 7.96338 55.3749 7.94364 55.3438C7.9239 55.3126 7.91051 55.2778 7.90423 55.2414C7.89795 55.2051 7.89891 55.1678 7.90705 55.1318C7.91519 55.0958 7.93036 55.0618 7.95167 55.0317C8.04179 54.9021 8.2164 54.874 8.34313 54.9641C8.58814 55.1359 8.97396 55.3443 9.4161 55.3612C9.79629 55.3753 10.1624 55.226 10.3764 54.9725C10.5989 54.7106 10.6468 54.3276 10.4947 54.0601C10.2835 53.6884 9.73715 53.5504 9.29782 53.4405C8.72895 53.2997 8.04461 53.0575 7.79678 52.4379C7.67287 52.1282 7.69258 51.779 7.85029 51.4523C8.03898 51.0636 8.39382 50.7623 8.79654 50.644C8.87821 50.6215 8.95988 50.6018 9.04436 50.5905V50.0273C9.04436 49.8724 9.17109 49.7456 9.32599 49.7456C9.48088 49.7456 9.60761 49.8724 9.60761 50.0273V50.599C9.9878 50.6497 10.3849 50.8074 10.7735 51.0608ZM15.4879 47.8616C15.6484 48.1967 15.5019 48.6192 15.1696 48.7853C14.8154 48.9625 14.4033 48.7997 14.2375 48.4868C14.0657 48.1573 14.1952 47.7264 14.5191 47.549C14.5275 47.5434 14.536 47.5405 14.5444 47.5349C14.5529 47.5321 14.5613 47.5265 14.5698 47.5236C14.9077 47.3716 15.3302 47.5265 15.4879 47.8616ZM14.5078 50.6553V50.3849C14.5078 50.23 14.6346 50.1033 14.7894 50.1033C14.9443 50.1033 15.0711 50.23 15.0711 50.3849V50.8102C15.2682 50.8862 15.4653 50.9876 15.6597 51.1143C15.6929 51.1333 15.7219 51.1588 15.7449 51.1893C15.7679 51.2198 15.7845 51.2547 15.7936 51.2919C15.8027 51.329 15.8042 51.3676 15.7979 51.4053C15.7916 51.443 15.7777 51.4791 15.757 51.5112C15.7363 51.5434 15.7093 51.571 15.6776 51.5924C15.6459 51.6138 15.6102 51.6285 15.5726 51.6356C15.5351 51.6428 15.4964 51.6422 15.4591 51.6339C15.4218 51.6256 15.3865 51.6098 15.3555 51.5875C15.2203 51.5001 15.0288 51.3903 14.8063 51.3086C14.8007 51.3115 14.7951 51.3115 14.7894 51.3115C14.7247 51.3115 14.6627 51.2889 14.6148 51.2495C14.3726 51.1847 14.1051 51.165 13.8404 51.2411C13.5926 51.3115 13.3616 51.5086 13.2433 51.7536C13.1814 51.8803 13.1251 52.0775 13.2067 52.2802C13.3588 52.6604 13.8545 52.8322 14.322 52.9477C14.8345 53.0772 15.5386 53.2518 15.8709 53.8348C16.1412 54.3079 16.068 54.95 15.6935 55.3922C15.4118 55.7217 14.9809 55.9301 14.5135 55.9695V56.3271C14.5135 56.482 14.3867 56.6088 14.2318 56.6088C14.0741 56.6088 13.9502 56.482 13.9502 56.3271V55.9385C13.5982 55.8709 13.2405 55.7132 12.9054 55.4766C12.8752 55.4554 12.8495 55.4284 12.8298 55.3973C12.81 55.3661 12.7966 55.3313 12.7904 55.2949C12.7841 55.2586 12.785 55.2213 12.7932 55.1853C12.8013 55.1493 12.8165 55.1153 12.8378 55.0852C12.9279 54.9585 13.1025 54.9275 13.2293 55.0176C13.4743 55.1894 13.8601 55.4006 14.3022 55.4147C14.6824 55.4288 15.0485 55.2795 15.2626 55.0261C15.4851 54.767 15.5357 54.3811 15.3809 54.1136C15.1696 53.7419 14.6233 53.6039 14.184 53.494C13.6151 53.3532 12.9336 53.111 12.6829 52.4915C12.559 52.1845 12.5787 51.8325 12.7364 51.5058C12.9251 51.1171 13.28 50.8158 13.6827 50.7003C13.9418 50.6243 14.2206 50.6102 14.5078 50.6553ZM13.7784 47.7884C13.9389 48.1263 13.7925 48.5488 13.4602 48.7149C13.1313 48.8794 12.7043 48.7459 12.528 48.4136C12.3267 48.0308 12.5582 47.5538 12.8603 47.4532C12.9167 47.4279 12.9758 47.411 13.0349 47.4025C13.2935 47.3527 13.6359 47.4913 13.7784 47.7884ZM132.726 13.0168C139.278 17.5757 142.113 25.8965 139.702 33.509C139.67 33.6154 139.681 33.7302 139.733 33.8285C139.785 33.9268 139.873 34.0007 139.979 34.0342C140.085 34.0678 140.2 34.0582 140.299 34.0076C140.398 33.957 140.473 33.8694 140.508 33.7639C143.029 25.8016 140.066 17.0947 133.208 12.3232C133.162 12.2915 133.111 12.2691 133.057 12.2573C133.003 12.2454 132.947 12.2444 132.892 12.2542C132.838 12.264 132.785 12.2845 132.739 12.3144C132.692 12.3444 132.652 12.3833 132.62 12.4288C132.588 12.4743 132.566 12.5257 132.554 12.5799C132.542 12.6341 132.541 12.6901 132.551 12.7447C132.561 12.7993 132.581 12.8514 132.611 12.8981C132.641 12.9448 132.68 12.9851 132.726 13.0168ZM143.983 25.235C143.96 25.3446 143.981 25.4589 144.042 25.5528C144.104 25.6466 144.2 25.7122 144.309 25.7353C144.419 25.7583 144.533 25.7369 144.627 25.6756C144.721 25.6144 144.787 25.5184 144.81 25.4087C145.578 21.7547 144.364 17.6917 141.718 15.0577C141.679 15.0175 141.632 14.9854 141.58 14.9634C141.529 14.9414 141.473 14.9299 141.417 14.9295C141.361 14.9292 141.306 14.94 141.254 14.9614C141.202 14.9827 141.155 15.0142 141.115 15.054C141.076 15.0937 141.044 15.141 141.023 15.1929C141.002 15.2449 140.992 15.3005 140.992 15.3566C140.993 15.4127 141.005 15.4681 141.027 15.5196C141.049 15.5711 141.081 15.6176 141.122 15.6565C143.571 18.0939 144.693 21.8538 143.983 25.235ZM11.2531 96.7672C11.2529 96.6571 11.2097 96.5515 11.1327 96.4728C11.0558 96.3941 10.9511 96.3485 10.8411 96.3458C10.7311 96.3431 10.6243 96.3834 10.5436 96.4582C10.4629 96.5331 10.4145 96.6364 10.4088 96.7463C10.1247 102.474 13.8066 108.218 19.1633 110.404C19.2147 110.425 19.2696 110.436 19.3251 110.435C19.3806 110.435 19.4355 110.424 19.4867 110.402C19.5378 110.381 19.5842 110.35 19.6232 110.31C19.6622 110.271 19.693 110.224 19.7139 110.172C19.7562 110.069 19.7556 109.952 19.7122 109.849C19.6689 109.746 19.5863 109.664 19.4827 109.622C14.6306 107.642 11.2404 102.559 11.2382 97.3775C11.2481 97.341 11.2532 97.3034 11.2531 97.2656V96.7672ZM13.4157 111.241C13.4886 111.291 13.5712 111.314 13.6531 111.314C14.0682 111.314 14.2344 110.776 13.8916 110.543C11.573 108.963 9.81263 106.506 9.06183 103.803C9.03022 103.697 8.95825 103.607 8.8614 103.554C8.76454 103.5 8.65053 103.487 8.54389 103.517C8.43725 103.546 8.34649 103.616 8.29115 103.712C8.23581 103.808 8.22029 103.922 8.24794 104.029C9.05112 106.922 10.9346 109.55 13.4157 111.241ZM5.74939 63.9836C2.40288 62.1829 0.381962 58.1292 0.944642 54.3451C0.960922 54.2356 0.933571 54.1241 0.868474 54.0345C0.803378 53.945 0.705736 53.8846 0.596558 53.8663C0.487531 53.8486 0.375882 53.8741 0.285329 53.9373C0.194775 54.0006 0.132454 54.0966 0.111605 54.2051C-0.520635 58.1287 1.57463 62.6969 5.34892 64.7276C5.39774 64.754 5.45128 64.7705 5.50647 64.7761C5.56167 64.7818 5.61744 64.7764 5.67057 64.7605C5.72371 64.7445 5.77318 64.7182 5.81613 64.6831C5.85909 64.648 5.89469 64.6047 5.9209 64.5558C5.9472 64.507 5.96362 64.4534 5.96922 64.3982C5.97482 64.343 5.9695 64.2873 5.95354 64.2341C5.93759 64.181 5.91132 64.1315 5.87625 64.0885C5.84117 64.0455 5.79825 64.0099 5.74939 63.9836Z" fill="#0D99FF"/>
</svg>
