<svg width="117" height="124" viewBox="0 0 117 124" fill="none" xmlns="http://www.w3.org/2000/svg">
<path d="M69.3848 18.055C70.2791 17.8376 71.235 17.4007 71.5575 16.5391C71.934 15.5329 71.2886 14.4585 70.6723 13.5786C70.5296 15.1601 68.8147 16.1517 67.2339 16.3004C65.6529 16.4494 64.0622 16.0405 62.4786 16.1577C61.4578 16.2335 60.4569 16.54 59.5603 17.0316C58.9865 17.3465 57.4221 18.2375 57.5146 18.9631C61.4481 17.8789 65.4659 19.0069 69.3848 18.055ZM27.1539 77.9774C28.7655 79.3983 29.7815 81.4748 29.9147 83.6193C29.9325 83.9096 29.9675 84.256 30.2247 84.392C30.4633 84.5178 30.7724 84.3693 30.9153 84.1406C31.0583 83.9119 31.078 83.63 31.0923 83.3605C31.2886 79.7108 31.2676 76.0526 31.0295 72.4054C30.6873 73.6875 29.5102 74.6115 28.2463 75.0162C27.2649 75.3306 26.2307 75.3793 25.2078 75.3786C24.7709 75.3781 22.7997 75.0199 22.8931 75.7145C22.9654 76.252 24.4725 76.3933 24.927 76.5849C25.7425 76.9288 26.483 77.4021 27.1539 77.9774ZM42.7944 60.2244C44.0654 59.7078 45.1893 58.8932 46.299 58.0867C45.3239 58.7952 43.8573 59.1925 42.7219 59.5614C41.4615 59.9705 40.181 60.246 38.8803 60.4851C39.8152 61.1709 41.819 60.6211 42.7944 60.2244ZM39.9621 49.0541C39.7936 49.4656 39.9806 49.9553 40.3031 50.2612C40.9604 50.8844 41.9735 50.8594 42.7149 51.3531C41.8943 51.8001 40.9567 51.986 40.0276 51.8859C39.7774 51.8586 39.5017 51.7933 39.3625 51.5834C39.2197 51.3686 39.2714 51.0843 39.3286 50.833L40.0376 47.7131C39.9163 48.5033 39.8657 49.3026 39.8865 50.1018M63.0696 45.6813C62.9966 45.9906 62.9531 46.3138 63.0138 46.6256C63.0743 46.9374 63.2524 47.2386 63.5332 47.3869C63.8618 47.5607 64.2931 47.4893 64.5716 47.2433C64.8503 46.9972 64.9752 46.6003 64.9226 46.2322C64.8735 45.887 64.6861 45.5798 64.5394 45.2631C64.1194 44.3558 64.0258 43.3457 63.9169 42.3643C63.9572 43.6605 63.3562 44.4656 63.0696 45.6813ZM40.7746 106.347C40.2774 106.521 39.8085 106.706 39.2765 107.004C37.9895 107.725 37.2164 105.906 38.4672 105.417C39.8057 104.893 41.436 105.315 42.8321 104.752C42.8055 104.763 42.5766 105.44 42.4855 105.544C42.2573 105.805 41.9244 105.951 41.6042 106.063C41.3107 106.165 41.0387 106.254 40.7746 106.347ZM60.6858 105.712C61.8097 105.762 62.9698 105.808 64.029 105.432C64.8995 104.797 63.4547 105.23 63.0921 105.04C62.7295 104.851 62.0553 103.826 62.1005 103.431C60.2996 103.125 59.5571 103.881 58.3676 103.742C58.2715 105.221 59.3771 105.653 60.6858 105.712ZM97.3271 55.0839C98.4647 55.2085 99.6762 55.3211 100.699 54.8077C101.721 54.2943 102.383 52.897 101.72 51.9643C102.291 52.6992 101.776 53.8587 100.948 54.2834C100.12 54.7078 99.1327 54.614 98.2078 54.5098L89.326 53.5084L84.9349 53.0133C83.7128 52.8757 81.9293 52.9925 80.8249 52.4723C83.5627 53.0342 86.2643 53.6662 89.0364 54.0728C91.7135 54.4653 94.6195 55.0948 97.3271 55.0839ZM32.9293 36.1183C27.6949 39.5806 21.2303 39.4335 18.0233 37.5281C16.6807 36.7302 15.577 35.4534 15.2153 33.934C15.7876 35.2903 17.0278 36.283 18.3917 36.8368C19.7559 37.3905 21.2449 37.5524 22.7149 37.6314C26.6053 37.8409 30.6537 37.4588 33.6971 34.974L31.859 36.4373M101.266 105.726C102.058 105.907 102.938 105.866 103.62 105.421C103.859 105.266 104.085 105.022 104.063 104.738C104.038 104.433 103.732 104.22 103.431 104.169C103.13 104.117 102.823 104.178 102.518 104.179C101.443 104.182 100.53 103.449 99.5863 102.934C98.1142 102.131 95.2042 101.364 93.6744 102.355C93.9402 103.018 95.4445 103.256 96.0703 103.506C98.8468 104.615 100.026 105.444 101.266 105.726ZM11.1936 112.843C10.0743 111.633 9.55371 109.894 9.82431 108.267C9.8827 107.917 9.99113 107.546 10.2696 107.325C10.5407 107.109 10.919 107.081 11.2619 107.133C12.2855 107.288 13.1288 108.061 13.6464 108.958C14.1642 109.854 14.4119 110.876 14.6864 111.874C14.8769 112.568 15.2325 113.229 15.4144 113.911C15.5911 114.576 14.9633 114.602 14.4348 114.529C13.2092 114.361 12.0332 113.751 11.1936 112.843ZM24.9474 111.364C25.17 110.585 25.259 109.775 25.3473 108.97L26.0291 102.74C26.0759 102.312 26.1253 101.875 26.3088 101.485C26.4923 101.096 26.8377 100.755 27.2642 100.697C27.8066 100.622 28.3068 101.008 28.6451 101.438C29.4946 102.52 29.749 103.997 29.4979 105.35C29.2467 106.702 28.5294 107.935 27.6222 108.969C26.7149 110.003 25.6204 110.855 24.506 111.661L24.9474 111.364Z" fill="#0D99FF"/>
<path d="M34.1938 60.1642C34.2819 60.1641 34.3668 60.1305 34.4311 60.0702C34.4954 60.0098 34.5343 59.9273 34.5401 59.8394C34.5458 59.7514 34.5179 59.6645 34.462 59.5963C34.4061 59.5282 34.3263 59.4838 34.2389 59.4722C33.8886 59.4259 33.5293 59.3749 33.1577 59.3218C32.344 59.2074 31.7671 58.428 31.8716 57.5838C32.6348 51.301 32.1253 46.3854 34.1935 40.4833C34.2219 40.3968 34.2153 40.3026 34.175 40.221C34.1348 40.1394 34.0641 40.0769 33.9782 40.0468C33.8923 40.0167 33.798 40.0215 33.7157 40.0602C33.6333 40.0989 33.5694 40.1684 33.5376 40.2537C31.4275 46.2751 31.9444 51.225 31.1814 57.4992C31.0311 58.7167 31.8742 59.8431 33.0599 60.0102C33.1199 60.0187 34.1349 60.1642 34.1938 60.1642ZM48.0519 29.132C47.8132 28.9855 47.5426 28.8197 47.3526 28.3292C47.3362 28.2866 47.3115 28.2477 47.28 28.2147C47.2484 28.1817 47.2107 28.1552 47.169 28.1367C47.1272 28.1183 47.0823 28.1083 47.0367 28.1072C46.991 28.1061 46.9456 28.114 46.9031 28.1305C46.8605 28.147 46.8216 28.1717 46.7886 28.2032C46.7556 28.2347 46.7291 28.2724 46.7106 28.3142C46.6922 28.3559 46.6821 28.4009 46.6811 28.4465C46.68 28.4921 46.6879 28.5375 46.7044 28.5801C46.9792 29.2895 47.4231 29.5617 47.6886 29.7246L47.7402 29.7564C47.7975 29.7918 47.8607 29.8089 47.9237 29.8089C48.2727 29.8089 48.4031 29.3502 48.1077 29.1665L48.0519 29.1317V29.132ZM51.5259 25.6241C51.4811 25.6153 51.435 25.6156 51.3903 25.6247C51.3456 25.6339 51.3031 25.6518 51.2653 25.6775C51.2276 25.7031 51.1952 25.736 51.1702 25.7742C51.1452 25.8124 51.128 25.8551 51.1196 25.9C51.0517 26.254 51.2067 26.5728 51.3675 26.8383L51.3818 26.8622C51.4636 26.9965 51.6469 27.2767 51.5507 27.3985C51.4664 27.3765 51.3768 27.3869 51.2998 27.4278C51.2228 27.4687 51.164 27.5371 51.135 27.6193C51.1061 27.7016 51.1091 27.7917 51.1435 27.8718C51.1779 27.9519 51.2411 28.0162 51.3207 28.0519C51.778 28.2585 52.2629 27.8357 52.2745 27.3459C52.2884 26.7568 51.7453 26.3275 51.8019 26.0307C51.8192 25.9402 51.7999 25.8465 51.7482 25.7703C51.6965 25.6941 51.6166 25.6415 51.5262 25.6241H51.5259ZM50.5617 28.4179C50.5085 28.3427 50.4275 28.2916 50.3367 28.276C50.2458 28.2604 50.1525 28.2815 50.0772 28.3347C50.002 28.388 49.9509 28.4689 49.9353 28.5597C49.9197 28.6506 49.9408 28.7439 49.9941 28.8192C50.226 29.147 50.6175 29.3421 51.0151 29.3421C51.0883 29.3421 51.162 29.3354 51.2347 29.3217C51.2802 29.3139 51.3236 29.2972 51.3625 29.2725C51.4014 29.2477 51.435 29.2155 51.4614 29.1776C51.4877 29.1398 51.5063 29.0971 51.5159 29.052C51.5256 29.0069 51.5262 28.9603 51.5176 28.915C51.5091 28.8697 51.4917 28.8265 51.4663 28.788C51.4409 28.7495 51.4082 28.7164 51.3699 28.6907C51.3316 28.665 51.2886 28.6471 51.2433 28.6382C51.1981 28.6293 51.1515 28.6295 51.1064 28.6387C50.908 28.6758 50.6784 28.5831 50.5614 28.4179H50.5617ZM75.6717 42.3986L75.8276 42.1954C76.0222 41.9415 76.2648 41.6255 76.331 41.2448C76.3955 40.8757 76.2476 40.4538 75.9048 40.253C75.8943 40.0169 75.7963 39.7813 75.7016 39.6423C75.6031 39.4974 75.2899 39.222 74.9732 39.1173C74.7911 38.7396 74.3893 38.5728 73.9788 38.5005C74.5058 37.5814 75.0392 36.6223 75.4986 35.668C75.6101 35.4365 75.7115 35.2074 75.7303 34.9479C75.7905 34.1155 74.9444 33.6982 74.2137 34.1963C73.9408 34.3826 73.7619 34.6458 73.6183 34.8571L70.947 38.7853C70.3884 38.9488 69.9628 39.4045 69.5847 39.8482C69.3268 40.1478 69.0958 40.5949 68.8811 41.0451C68.8217 40.9693 68.7617 40.8919 68.705 40.8222C68.6715 40.781 68.629 40.748 68.5808 40.7257C68.5325 40.7035 68.4798 40.6926 68.4267 40.6939C68.3736 40.6952 68.3215 40.7087 68.2745 40.7333C68.2274 40.7579 68.1866 40.793 68.1552 40.8359C66.6567 42.8789 66.1738 43.9367 64.8238 45.1663C64.6876 43.3577 64.68 42.0216 64.5087 39.8355C64.4392 38.9185 64.0859 37.9211 61.9927 36.8433C61.3259 36.4999 60.5799 36.1325 59.6448 35.687C59.5616 35.6476 59.4662 35.6428 59.3795 35.6736C59.2928 35.7045 59.2219 35.7684 59.1823 35.8515C59.1427 35.9345 59.1377 36.0299 59.1683 36.1167C59.1989 36.2035 59.2627 36.2746 59.3457 36.3144C60.2743 36.7569 61.0143 37.1213 61.6746 37.4612C63.5535 38.4289 63.7627 39.1907 63.8158 39.8892C63.9821 42.0126 64.0132 43.8969 64.1723 45.7207C63.8174 46.0013 63.4535 46.2704 63.0811 46.5274C63.0054 46.58 62.9537 46.6605 62.9374 46.7512C62.921 46.842 62.9414 46.9355 62.994 47.0112C63.0466 47.0869 63.1271 47.1386 63.2178 47.1549C63.3086 47.1712 63.4021 47.1509 63.4778 47.0983C64.0387 46.7083 64.5113 46.3444 64.7566 46.1396C66.5167 44.6992 66.9896 43.6515 68.4471 41.6173C68.7129 41.9616 69.0078 42.358 69.2633 42.6727C70.2786 43.9221 71.6279 44.8984 72.8141 45.9614C72.0723 47.2906 70.5946 49.8129 69.976 50.7079C69.8154 50.9398 69.9848 51.253 70.2614 51.253C70.3717 51.253 70.4799 51.2007 70.5476 51.1031C71.2143 50.1393 72.7168 47.5718 73.5634 46.0455C73.5882 46.0006 73.6029 45.9507 73.6062 45.8995C73.6094 45.8483 73.6013 45.7969 73.5824 45.7492C73.5635 45.7015 73.5342 45.6585 73.4967 45.6235C73.4592 45.5884 73.4144 45.5621 73.3655 45.5465C73.3159 45.4691 73.3335 45.4941 73.2404 45.4109C73.2453 45.4056 73.2513 45.4017 73.2559 45.3961C74.3393 44.136 74.6215 43.7681 75.6717 42.3988V42.3986ZM75.6462 41.1255C75.6091 41.3382 75.44 41.5587 75.2762 41.7723L74.719 42.4987C74.7489 42.4195 74.7489 42.3321 74.719 42.253C74.689 42.1738 74.6313 42.1083 74.5565 42.0686C74.4818 42.029 74.3951 42.018 74.3128 42.0376C74.2305 42.0573 74.1582 42.1063 74.1094 42.1755C74.1015 42.1754 74.0936 42.1745 74.0858 42.1727C74.0812 42.1331 74.1048 42.0406 74.1877 41.9338C74.5116 41.5187 74.571 41.4577 75.1465 40.9777C75.2734 40.8711 75.4215 40.8136 75.5148 40.8338C75.6184 40.8563 75.6673 41.0055 75.6464 41.1257L75.6462 41.1255ZM75.1272 40.0336C75.152 40.0702 75.1743 40.1246 75.1898 40.1767C75.0213 40.2254 74.8538 40.3158 74.6998 40.4448C74.4998 40.6118 74.2758 40.7963 74.102 40.9677C73.9695 41.1024 73.8443 41.2442 73.7269 41.3924C73.625 41.5471 73.3085 41.7135 73.1672 41.5963C73.1424 41.4918 73.2566 41.167 73.4227 40.9899H73.4232C73.5615 40.8625 74.4414 40.0679 74.7605 39.7782C74.867 39.8144 75.0751 39.9617 75.1272 40.0336ZM74.2401 39.3119L73.8785 39.6395C73.7865 39.4566 73.6487 39.3007 73.4786 39.187C73.6648 39.1254 74.0527 39.2004 74.2401 39.3119ZM74.6055 34.7704C74.7433 34.6764 74.9006 34.6592 74.9669 34.6977C75.0149 34.725 75.0436 34.8073 75.0371 34.8976C75.004 35.3571 73.2999 38.2881 73.0699 38.6856C73.0446 38.7299 73.0294 38.7792 73.0254 38.83C73.0214 38.8809 73.0287 38.932 73.0467 38.9796C72.778 38.887 72.2055 38.7558 71.8327 38.7185C74.4002 34.9433 74.3743 34.9282 74.6055 34.7707V34.7704ZM69.8027 42.2343C69.6548 42.0503 69.5096 41.8642 69.3671 41.676C69.4158 41.6067 69.451 41.5115 69.4628 41.4399C69.6625 41.0173 69.891 40.5579 70.1127 40.3005C70.3416 40.0322 70.7063 39.6202 71.0339 39.4873C71.4354 39.3244 71.9038 39.4101 72.3892 39.5211C72.6427 39.579 72.9049 39.6385 73.0866 39.7606C73.1996 39.8369 73.3094 39.9752 73.2833 40.0984C73.2439 40.281 72.9313 40.4536 72.5729 40.4911C72.3164 40.5148 71.7581 40.3887 71.3855 40.5275C71.3606 40.535 71.3365 40.5451 71.3135 40.5574C70.6961 40.8574 70.864 42.3161 71.4527 42.3161C71.772 42.3161 71.9217 41.9206 71.683 41.7165C71.6168 41.6224 71.5996 41.2939 71.6485 41.1725C71.823 41.1271 72.2133 41.192 72.5359 41.1848C72.4341 41.5098 72.4328 41.8576 72.676 42.0891C72.8753 42.279 73.1378 42.3546 73.4047 42.324C73.4061 42.324 73.4074 42.3235 73.4086 42.3233C73.5249 42.8789 74.1871 43.0081 74.5432 42.7269C73.3924 44.2171 72.9096 44.7133 72.7193 44.9566C72.5514 44.8134 70.6194 43.2394 69.8029 42.2343H69.8027ZM52.0959 32.7228C53.8446 33.7202 55.8742 34.6775 57.6811 35.528C57.729 35.5505 57.7793 35.5612 57.8289 35.5612C58.1989 35.5612 58.3119 35.0568 57.9771 34.899C56.0648 33.9992 53.8972 32.9791 52.1026 31.9265C52.0599 31.9014 52.0124 31.8857 51.9631 31.8806C51.9139 31.8754 51.8641 31.8809 51.8172 31.8967C51.7703 31.9125 51.7273 31.9382 51.6911 31.972C51.655 32.0059 51.6265 32.0471 51.6077 32.0929C51.5877 32.1204 51.572 32.1508 51.5609 32.183C50.7804 34.5628 47.2169 34.9083 45.9809 32.7455C45.9628 32.4851 45.682 32.344 45.4642 32.4673L36.0838 37.7659C35.8369 37.9146 35.2977 38.3469 34.8022 38.7941C34.7344 38.856 34.6939 38.9422 34.6895 39.0339C34.6851 39.1256 34.7172 39.2153 34.7787 39.2834C34.8402 39.3515 34.9261 39.3926 35.0178 39.3976C35.1094 39.4025 35.1993 39.3711 35.2678 39.31C35.772 38.8552 36.2606 38.4706 36.4337 38.3666L45.4783 33.2578C47.0325 35.6599 50.9576 35.3235 52.0959 32.7228Z" fill="#0D99FF"/>
<path d="M53.6892 21.1843C53.7736 21.2213 53.8693 21.2233 53.9552 21.1897C54.041 21.1562 54.1101 21.09 54.1471 21.0055C54.1841 20.9211 54.1861 20.8254 54.1526 20.7396C54.119 20.6537 54.0528 20.5846 53.9684 20.5476C53.7547 20.454 53.514 20.432 53.2772 20.4776C53.3352 20.2568 53.385 20.0161 53.3514 19.765C53.2671 19.1265 52.6153 18.6494 51.9856 18.7576C51.8237 18.7854 51.6761 18.845 51.5461 18.8976C51.1516 19.057 51.1265 19.0493 50.8664 18.696C50.7227 18.5009 50.5443 18.2581 50.2454 18.1534C49.8854 18.0267 49.5532 18.1627 49.2863 18.2711C48.8695 18.4407 48.8359 18.4286 48.537 18.2641C48.3874 18.1821 48.2178 18.089 48.0083 18.0591C47.5612 17.9952 47.1071 18.2468 46.7602 18.7472C46.6321 18.9319 46.5123 19.1471 46.3921 19.3072C46.2471 19.0852 46.0483 18.8983 45.8059 18.7808C45.7648 18.7602 45.7199 18.7479 45.674 18.7447C45.6281 18.7416 45.582 18.7476 45.5384 18.7624C45.4948 18.7772 45.4545 18.8006 45.42 18.8311C45.3855 18.8615 45.3574 18.8986 45.3374 18.94C45.3173 18.9815 45.3057 19.0265 45.3032 19.0725C45.3007 19.1185 45.3073 19.1645 45.3227 19.2079C45.3382 19.2512 45.362 19.2911 45.393 19.3252C45.424 19.3593 45.4614 19.3869 45.5031 19.4063C45.6329 19.4691 45.7404 19.5725 45.8182 19.695C45.7478 19.717 45.6755 19.7376 45.6004 19.758C45.4702 19.7933 45.3356 19.8299 45.2006 19.8806C44.3151 20.2128 43.6914 21.1055 43.6837 22.051C43.6816 22.2873 43.7152 22.5137 43.7479 22.7321C43.7891 23.0092 43.8281 23.2703 43.7861 23.509C43.7057 23.967 43.2945 24.4999 43.4002 25.1342C43.5327 25.9324 44.6332 26.7097 45.4088 27.8164C45.6046 28.0963 45.7049 28.5916 45.7063 29.289C45.7063 29.3594 45.7323 29.4218 45.7686 29.4767C45.7499 30.4057 45.7466 31.2108 45.6908 32.1452C45.6853 32.2372 45.7166 32.3276 45.7778 32.3966C45.8389 32.4655 45.925 32.5074 46.017 32.5129C46.109 32.5184 46.1995 32.4871 46.2684 32.4259C46.3374 32.3647 46.3792 32.2787 46.3847 32.1866C46.492 30.3844 46.4118 28.8094 46.5733 27.841C46.6127 27.6061 46.6423 27.2803 46.5072 27.0565C46.3119 26.686 45.9707 26.6476 45.7098 26.4981C45.6438 26.4302 45.5868 26.354 45.5402 26.2716C45.378 25.9824 45.4274 25.4676 45.5235 25.4097C45.6454 25.3763 45.8618 25.4651 46.0103 25.5188C46.8854 25.8284 47.7905 25.7964 48.6797 25.454C48.7108 25.4445 48.7423 25.437 48.7731 25.4268C49.4093 25.2146 50.2172 24.7302 50.6944 24.1023C50.9554 23.8456 51.2009 23.5737 51.4296 23.288C51.4986 23.2525 51.5731 23.229 51.6499 23.2184C51.9414 23.6542 52.2435 24.0664 52.3454 24.5705C52.576 25.7276 52.5501 26.9211 52.2697 28.0671C52.0273 29.0557 51.6228 29.7443 51.0677 30.1138C50.738 30.3332 50.3087 30.4157 49.9176 30.3339C49.701 30.2887 49.4026 30.1717 49.2094 29.8717C49.1847 29.8333 49.1526 29.8002 49.1151 29.7741C49.0776 29.7481 49.0353 29.7298 48.9907 29.7201C48.9461 29.7104 48.9 29.7097 48.8551 29.7178C48.8102 29.7259 48.7673 29.7428 48.729 29.7675C48.6906 29.7922 48.6575 29.8243 48.6314 29.8618C48.6054 29.8993 48.5871 29.9416 48.5774 29.9862C48.5677 30.0308 48.5669 30.0768 48.5751 30.1218C48.5832 30.1667 48.6001 30.2095 48.6248 30.2479C48.8774 30.6399 49.2858 30.9122 49.7754 31.0143C50.0621 31.0727 50.3576 31.0741 50.6449 31.0183C50.7009 31.4277 50.7185 31.2595 50.782 31.8032C50.7927 31.8948 50.8394 31.9783 50.9117 32.0355C50.984 32.0926 51.0761 32.1187 51.1677 32.108C51.2592 32.0973 51.3428 32.0506 51.3999 31.9783C51.4571 31.906 51.4832 31.8139 51.4724 31.7224C51.4321 31.3778 51.409 31.2794 51.3809 31.1779C51.3649 31.1204 51.3485 31.0588 51.3144 30.7743C51.3612 30.7481 51.4083 30.722 51.4527 30.6923C53.1468 29.5649 53.4271 26.433 53.0268 24.4334C52.9735 24.1695 52.8825 23.9346 52.7731 23.7156C52.989 23.7754 53.2437 23.7673 53.54 23.5977C53.8324 23.43 54.0344 23.1279 54.0935 22.7683C54.1525 22.4087 54.0582 22.0577 53.8344 21.8052C53.7209 21.6766 53.5875 21.583 53.4698 21.5005C53.1834 21.2994 53.2121 21.2732 53.1899 21.2496C53.2131 21.2348 53.2358 21.2195 53.2613 21.2072C53.4058 21.1386 53.5659 21.1301 53.6892 21.1843ZM66.8059 105.706C66.8533 105.627 66.8674 105.533 66.8451 105.443C66.8228 105.354 66.7658 105.277 66.6868 105.229C65.6171 104.587 64.3503 104.584 63.1346 104.725C63.0105 104.739 62.8867 104.755 62.7635 104.771C62.7058 104.634 62.6581 104.542 62.6291 104.399C62.5955 104.241 62.5967 104.041 62.6034 103.88C62.606 103.834 62.5994 103.788 62.5841 103.745C62.5687 103.701 62.5449 103.661 62.514 103.627C62.4831 103.593 62.4457 103.566 62.404 103.546C62.3624 103.527 62.3172 103.515 62.2713 103.513C62.2253 103.512 62.1793 103.519 62.1362 103.535C62.093 103.551 62.0534 103.575 62.0197 103.606C61.986 103.638 61.9589 103.675 61.9399 103.717C61.9209 103.759 61.9104 103.804 61.909 103.851C61.8995 104.074 61.9016 104.323 61.9487 104.54C62.0145 104.867 62.1231 104.988 62.1989 105.25C62.222 105.33 62.2733 105.399 62.3433 105.444C62.4133 105.49 62.4973 105.509 62.58 105.497C63.8343 105.325 65.2272 105.164 66.3289 105.826C66.3849 105.859 66.7067 105.871 66.8059 105.706ZM64.0042 106.699C63.912 106.702 63.8247 106.741 63.7615 106.808C63.6983 106.875 63.6643 106.965 63.6671 107.057C63.6698 107.149 63.7091 107.236 63.7762 107.3C63.8433 107.363 63.9328 107.397 64.025 107.394L65.22 107.357C65.2656 107.356 65.3106 107.346 65.3522 107.327C65.3938 107.308 65.4313 107.282 65.4626 107.248C65.4939 107.215 65.5183 107.176 65.5345 107.133C65.5507 107.091 65.5583 107.045 65.5569 107C65.5535 106.908 65.514 106.821 65.447 106.758C65.3801 106.695 65.2909 106.66 65.1989 106.663L64.0042 106.699ZM39.4416 107.405L40.4288 107.405C40.521 107.404 40.6094 107.368 40.6745 107.303C40.7397 107.237 40.7763 107.149 40.7762 107.057C40.7762 106.965 40.7396 106.876 40.6744 106.811C40.6092 106.746 40.5208 106.709 40.4286 106.709H40.4281L39.4412 106.71C39.349 106.71 39.2606 106.747 39.1955 106.812C39.1303 106.877 39.0937 106.966 39.0938 107.058C39.0938 107.15 39.1304 107.239 39.1956 107.304C39.2608 107.369 39.3495 107.405 39.4416 107.405ZM44.0299 43.5372C44.5326 43.1612 44.5713 42.4574 44.3496 41.9562C44.1422 41.4873 43.7458 41.1498 43.4275 40.8785C43.3929 40.8476 43.3526 40.824 43.3088 40.8089C43.2649 40.7939 43.2186 40.7878 43.1724 40.791C43.1261 40.7941 43.081 40.8065 43.0397 40.8273C42.9983 40.8481 42.9615 40.877 42.9315 40.9123C42.9014 40.9476 42.8788 40.9885 42.8647 41.0326C42.8507 41.0768 42.8457 41.1233 42.8499 41.1694C42.8542 41.2155 42.8676 41.2603 42.8894 41.3012C42.9112 41.3421 42.9409 41.3782 42.9769 41.4074C43.2551 41.6446 43.5707 41.9136 43.7141 42.2375C43.8209 42.4789 43.8128 42.8318 43.6138 42.9807C43.4426 43.1084 43.0063 43.2469 42.9398 43.6823C42.8819 44.0629 43.1414 44.3006 43.4013 44.5386C43.7956 44.9134 43.829 45.6279 43.4713 46.0378C43.4107 46.1072 43.3801 46.1979 43.3863 46.2899C43.3926 46.3818 43.4351 46.4675 43.5045 46.5282C43.574 46.5888 43.6646 46.6193 43.7566 46.6131C43.8485 46.6068 43.9343 46.5643 43.9949 46.4949C44.5926 45.8105 44.5389 44.6609 43.8797 44.0347C43.6664 43.8384 43.6511 43.8153 43.6341 43.7875C43.6689 43.7557 43.7532 43.7078 43.8065 43.6774C43.8763 43.638 43.9557 43.5929 44.0299 43.5372ZM62.6085 42.5373C62.6519 42.5231 62.6921 42.5006 62.7267 42.4709C62.7614 42.4412 62.7899 42.4049 62.8105 42.3642C62.8312 42.3235 62.8436 42.2791 62.8471 42.2336C62.8506 42.1881 62.8451 42.1423 62.8309 42.099C62.4391 40.907 61.8004 39.8109 60.9566 38.8823C60.8939 38.8165 60.808 38.7779 60.7173 38.7747C60.6265 38.7715 60.5381 38.804 60.471 38.8651C60.4038 38.9263 60.3633 39.0113 60.3581 39.102C60.3528 39.1927 60.3833 39.2818 60.443 39.3503C61.2205 40.2062 61.809 41.2163 62.1702 42.3149C62.1843 42.3583 62.2069 42.3985 62.2366 42.4331C62.2663 42.4678 62.3025 42.4962 62.3433 42.5169C62.384 42.5376 62.4283 42.55 62.4738 42.5535C62.5194 42.557 62.5651 42.5515 62.6085 42.5373ZM60.2053 40.9598C60.1321 41.0158 60.0842 41.0987 60.0721 41.1901C60.0601 41.2814 60.0848 41.3739 60.1408 41.447C60.2812 41.63 60.3653 41.858 60.3772 42.0888C60.382 42.1808 60.4231 42.2672 60.4916 42.329C60.5601 42.3907 60.6503 42.4227 60.7424 42.4179C60.8345 42.4131 60.9209 42.3719 60.9826 42.3034C61.0443 42.2349 61.0763 42.1447 61.0715 42.0526C61.051 41.6795 60.919 41.3212 60.6925 41.024C60.6364 40.9508 60.5535 40.903 60.4622 40.891C60.3708 40.8789 60.2784 40.9037 60.2053 40.9598ZM69.8954 48.9999C69.9731 48.9503 70.028 48.8718 70.0479 48.7818C70.0678 48.6918 70.0511 48.5975 70.0015 48.5198C69.9519 48.4421 69.8735 48.3872 69.7834 48.3673C69.6934 48.3474 69.5992 48.3641 69.5214 48.4137C67.9738 49.4014 67.8427 49.4472 67.6823 49.722C67.4541 50.1136 67.602 50.5422 67.5355 50.7859C67.5014 50.9119 67.3781 51.0211 67.2491 51.0398C67.1191 51.0586 66.9708 50.9889 66.9023 50.8776C66.8783 50.8388 66.847 50.805 66.81 50.7783C66.773 50.7516 66.7311 50.7324 66.6867 50.7219C66.6423 50.7113 66.5962 50.7096 66.5512 50.7169C66.5061 50.7241 66.4629 50.7402 66.4241 50.7641C66.3852 50.7881 66.3515 50.8194 66.3247 50.8564C66.298 50.8934 66.2788 50.9353 66.2683 50.9797C66.2577 51.0241 66.256 51.0702 66.2633 51.1152C66.2705 51.1603 66.2866 51.2035 66.3106 51.2423C66.5276 51.5945 66.9475 51.7863 67.3485 51.7277C67.5494 51.697 67.7371 51.609 67.8893 51.4743C68.0414 51.3396 68.1516 51.1639 68.2064 50.9682C68.3084 50.5924 68.1863 50.2377 68.2829 50.0723C68.3234 50.0028 68.36 49.9792 69.8954 48.9999ZM42.2607 63.2053C42.239 63.2459 42.2256 63.2905 42.2213 63.3363C42.217 63.3822 42.2219 63.4285 42.2356 63.4724C42.2493 63.5164 42.2717 63.5572 42.3013 63.5925C42.3309 63.6278 42.3673 63.6568 42.4083 63.6779C42.4492 63.699 42.494 63.7117 42.5399 63.7153C42.5858 63.719 42.632 63.7134 42.6758 63.6991C42.7196 63.6847 42.76 63.6617 42.7949 63.6316C42.8297 63.6014 42.8582 63.5646 42.8786 63.5234C43.1087 63.0767 43.1061 62.5315 42.8891 62.0839C43.1787 61.7299 43.2593 61.2091 43.0563 60.7911C43.0364 60.7501 43.0086 60.7133 42.9745 60.683C42.9403 60.6527 42.9006 60.6294 42.8575 60.6145C42.8143 60.5995 42.7687 60.5932 42.7231 60.5959C42.6776 60.5986 42.633 60.6103 42.5919 60.6302C42.5509 60.6501 42.5141 60.678 42.4838 60.7121C42.4535 60.7462 42.4302 60.786 42.4153 60.8291C42.4003 60.8722 42.3941 60.9179 42.3968 60.9634C42.3995 61.009 42.4111 61.0536 42.431 61.0946C42.5334 61.3057 42.4509 61.6034 42.2545 61.7318C42.2142 61.758 42.1799 61.7924 42.1536 61.8326C42.1273 61.8728 42.1096 61.918 42.1017 61.9654C42.0938 62.0128 42.0958 62.0614 42.1075 62.108C42.1193 62.1545 42.1406 62.1982 42.1701 62.2361C42.3791 62.5044 42.4164 62.9029 42.2607 63.2053ZM48.8373 63.8292C49.6245 64.0845 50.4596 64.1575 51.2792 64.0426C51.3694 64.0284 51.4505 63.9794 51.5048 63.906C51.5591 63.8326 51.5824 63.7408 51.5696 63.6504C51.5568 63.56 51.5089 63.4783 51.4363 63.4229C51.3637 63.3675 51.2723 63.3429 51.1817 63.3545C50.4671 63.4548 49.739 63.3911 49.0527 63.1682C48.9659 63.1426 48.8726 63.1519 48.7925 63.1941C48.7124 63.2363 48.652 63.308 48.6239 63.394C48.5959 63.48 48.6025 63.5736 48.6423 63.6549C48.6821 63.7361 48.7521 63.7987 48.8373 63.8292ZM60.5347 52.6072C60.6139 52.607 60.6907 52.5798 60.7524 52.5301C60.8141 52.4804 60.8569 52.4111 60.8738 52.3337C60.8907 52.2563 60.8807 52.1754 60.8454 52.1045C60.8101 52.0336 60.7517 51.9768 60.6797 51.9436C58.5281 50.9581 56.2713 50.2206 53.9528 49.7454C53.8625 49.7269 53.7685 49.7451 53.6916 49.7959C53.6146 49.8466 53.561 49.9259 53.5425 50.0163C53.524 50.1066 53.5422 50.2006 53.593 50.2775C53.6438 50.3544 53.723 50.4081 53.8134 50.4266C56.0801 50.891 58.2865 51.6119 60.3901 52.5754C60.4369 52.597 60.4863 52.6072 60.5347 52.6072ZM59.1984 56.0789C59.2893 56.0787 59.3766 56.0427 59.4414 55.9788C59.5061 55.9149 59.5433 55.8282 59.5448 55.7372C59.5463 55.6462 59.5121 55.5583 59.4495 55.4923C59.3869 55.4263 59.3009 55.3874 59.2099 55.3841C58.3074 55.3518 57.4198 55.1441 56.5966 54.7727C56.555 54.7539 56.5101 54.7434 56.4645 54.7419C56.4189 54.7404 56.3734 54.7479 56.3307 54.7639C56.2879 54.78 56.2488 54.8043 56.2155 54.8355C56.1821 54.8667 56.1553 54.9042 56.1364 54.9458C56.1176 54.9873 56.1071 55.0322 56.1056 55.0778C56.1041 55.1235 56.1116 55.1689 56.1277 55.2117C56.1438 55.2544 56.1681 55.2935 56.1993 55.3269C56.2305 55.3602 56.2679 55.387 56.3095 55.4059C57.2194 55.8163 58.2008 56.0449 59.1984 56.0789ZM58.8944 61.764C59.5128 61.7614 60.012 61.2814 60.0097 60.6917C60.0074 60.1021 59.504 59.626 58.8856 59.6283C58.267 59.6311 57.7677 60.1111 57.77 60.701C57.7724 61.2904 58.2758 61.7665 58.8944 61.764ZM102.254 24.0099C102.268 22.8139 101.23 21.8698 100.033 22.0035L94.6829 22.6124C94.7081 22.2567 94.7297 22.0174 94.7315 21.9938C94.7716 21.4968 94.3516 21.0879 93.868 21.1101C93.2865 21.1338 92.7261 21.1641 92.1826 21.2014C92.0324 18.3689 89.0238 18.0964 87.7041 20.4427C87.4474 20.8988 87.2876 21.387 87.1768 21.8304C86.6148 21.9379 86.0592 22.0573 85.5048 22.1905C85.3648 22.225 85.236 22.2949 85.1307 22.3934C85.0254 22.492 84.9471 22.6158 84.9033 22.7532C84.8002 23.0805 84.7201 23.4145 84.6638 23.7529L81.0467 24.1642C80.0574 24.2777 79.3133 25.0791 79.2771 26.0695C79.1993 28.1531 79.1437 30.2218 79.1122 32.2177C79.1114 32.2633 79.1197 32.3087 79.1365 32.3511C79.1533 32.3936 79.1783 32.4323 79.21 32.4651C79.2418 32.4979 79.2797 32.5241 79.3216 32.5422C79.3635 32.5603 79.4085 32.5701 79.4541 32.5708H79.4597C79.5509 32.5708 79.6385 32.5349 79.7035 32.471C79.7685 32.407 79.8058 32.32 79.8072 32.2288C79.8385 30.2377 79.8939 28.1741 79.9717 26.0953C79.9949 25.4609 80.4912 24.9276 81.1255 24.8546L84.5718 24.463C84.5347 24.8807 84.5173 25.2999 84.5194 25.7192C84.5199 26.2169 84.9578 26.6006 85.4466 26.544L93.8868 25.5865C94.3122 25.5383 94.6365 25.1671 94.6254 24.7415C94.6138 24.2665 94.6192 23.7911 94.6416 23.3164L100.111 22.6941C100.891 22.6082 101.568 23.221 101.559 24.0022C101.455 34.0142 101.488 41.7864 101.624 49.9678C101.625 50.059 101.662 50.1459 101.727 50.2098C101.792 50.2738 101.88 50.3096 101.971 50.3096H101.977C102.023 50.3088 102.068 50.2991 102.11 50.2809C102.151 50.2627 102.189 50.2365 102.221 50.2037C102.253 50.1709 102.278 50.1321 102.294 50.0897C102.311 50.0472 102.319 50.0019 102.319 49.9562C102.175 41.3029 102.161 33.0103 102.254 24.0099ZM90.1871 21.504C90.0302 21.6886 89.7446 21.8112 89.4793 21.8112C89.0185 21.8112 88.9307 21.4778 88.8607 21.4104C88.6422 21.0872 88.6932 20.7123 88.9969 20.4077C89.2951 20.1088 89.809 20.0979 90.1192 20.3836C90.4296 20.6695 90.4609 21.1829 90.1871 21.504ZM92.3936 24.4749C92.3325 24.4748 92.2739 24.4507 92.2305 24.4077L92.1531 24.3312C92.1094 24.288 92.0847 24.2291 92.0844 24.1676C92.0841 24.1062 92.1083 24.0471 92.1515 24.0034C92.1948 23.9597 92.2536 23.935 92.3151 23.9347C92.3766 23.9344 92.4357 23.9585 92.4793 24.0018L92.5567 24.0787C92.7036 24.2242 92.5996 24.4749 92.3936 24.4749ZM92.4027 23.6241C92.3452 23.6241 92.2898 23.6026 92.2472 23.564C92.2047 23.5254 92.178 23.4723 92.1724 23.4151L92.0966 22.6427C92.0929 22.6121 92.0954 22.581 92.1039 22.5514C92.1124 22.5217 92.1267 22.4941 92.146 22.47C92.1654 22.446 92.1893 22.426 92.2164 22.4113C92.2436 22.3967 92.2733 22.3876 92.304 22.3846C92.3347 22.3815 92.3657 22.3847 92.3952 22.3938C92.4247 22.403 92.452 22.4179 92.4756 22.4377C92.4993 22.4576 92.5187 22.4819 92.5328 22.5094C92.5468 22.5368 92.5553 22.5668 92.5577 22.5975L92.6334 23.37C92.6365 23.4021 92.6329 23.4346 92.6227 23.4653C92.6126 23.496 92.5961 23.5242 92.5744 23.5482C92.5526 23.5721 92.5261 23.5912 92.4965 23.6043C92.467 23.6174 92.435 23.6241 92.4027 23.6241ZM81.1667 52.739L100.164 54.7449C100.446 54.7746 100.731 54.7439 100.999 54.655C101.268 54.5661 101.515 54.421 101.724 54.2293C101.932 54.0376 102.097 53.8037 102.208 53.5432C102.319 53.2827 102.374 53.0015 102.368 52.7184C102.361 52.384 102.354 52.0496 102.349 51.7152L102.348 51.6471C102.345 51.5552 102.307 51.468 102.241 51.4041C102.175 51.3402 102.086 51.3049 101.994 51.3056C101.948 51.3064 101.903 51.3161 101.862 51.3343C101.82 51.3525 101.782 51.3788 101.75 51.4116C101.718 51.4444 101.693 51.4832 101.677 51.5257C101.66 51.5681 101.652 51.6135 101.653 51.6591L101.654 51.7272C101.66 52.0625 101.665 52.3982 101.673 52.7334C101.677 52.9179 101.641 53.1011 101.569 53.2709C101.497 53.4407 101.389 53.5931 101.253 53.7181C101.118 53.8431 100.957 53.9377 100.782 53.9956C100.606 54.0535 100.421 54.0733 100.237 54.0538L81.2393 52.0479C80.9288 52.0171 80.64 51.8751 80.4261 51.648C80.2122 51.4209 80.0876 51.1241 80.0755 50.8123C79.8237 45.052 79.7259 39.3109 79.7852 33.7489C79.7857 33.7032 79.7773 33.6579 79.7603 33.6155C79.7433 33.5732 79.7181 33.5345 79.6861 33.5019C79.6542 33.4693 79.6162 33.4432 79.5742 33.4253C79.5322 33.4074 79.4871 33.3979 79.4414 33.3974H79.4375C79.3459 33.3974 79.2581 33.4335 79.193 33.4979C79.128 33.5623 79.0909 33.6497 79.0899 33.7412C79.0309 39.316 79.1289 45.0698 79.3812 50.8429C79.3997 51.3212 79.5907 51.7767 79.9189 52.1252C80.247 52.4737 80.6904 52.6917 81.1667 52.739Z" fill="#0D99FF"/>
<path d="M80.9524 34.8541C80.8893 34.9213 80.8556 35.0108 80.8585 35.1029C80.8615 35.195 80.9009 35.2822 80.9681 35.3452C81.7148 36.0461 82.561 36.8405 83.5866 37.306C84.673 37.7992 85.9609 37.8766 86.9599 37.255C87.3429 37.0168 87.6621 36.698 87.986 36.6959H87.9893C88.4411 36.6959 88.9357 37.3402 89.6333 37.4009C90.2378 37.4542 90.7157 37.0715 91.1522 36.8762C91.3936 36.7682 91.8568 36.7418 91.9188 36.9603C91.9313 37.0042 91.9523 37.0452 91.9807 37.081C92.009 37.1168 92.0441 37.1466 92.084 37.1688C92.1239 37.191 92.1677 37.2052 92.2131 37.2104C92.2584 37.2157 92.3044 37.212 92.3483 37.1995C92.3922 37.187 92.4332 37.166 92.469 37.1377C92.5047 37.1093 92.5346 37.0742 92.5568 37.0343C92.579 36.9944 92.5932 36.9506 92.5984 36.9052C92.6037 36.8599 92.6 36.814 92.5875 36.7701C92.3924 36.0848 91.5162 35.9522 90.8684 36.2418C90.7368 36.3007 90.6108 36.3688 90.4889 36.4346C89.789 36.8134 89.6585 36.8023 89.0437 36.408C88.7008 36.1879 88.3912 36.0009 87.9814 36.0009C87.3945 36.0048 86.9771 36.4256 86.5929 36.6647C85.7415 37.1947 84.6303 37.0163 83.8739 36.6732C82.953 36.255 82.1856 35.5347 81.4435 34.8383C81.4103 34.8071 81.3712 34.7827 81.3285 34.7666C81.2858 34.7505 81.2403 34.7429 81.1947 34.7444C81.1491 34.7458 81.1042 34.7563 81.0626 34.7751C81.021 34.7939 80.9836 34.8207 80.9524 34.8541ZM81.6861 42.7398C83.7738 43.6337 84.4906 44.0797 85.2906 44.0797C85.5992 44.0797 85.8988 44.0041 86.172 43.8097C86.3364 43.6925 86.4673 43.5433 86.583 43.4115C86.9532 42.9896 87.0278 42.966 87.5817 43.2338C87.7625 43.3211 87.967 43.4201 88.1918 43.4641C88.7941 43.5815 89.3372 43.2804 89.8087 43.1316C90.1601 43.0211 90.6045 43.0489 90.7092 43.2866C90.7276 43.3284 90.7541 43.3661 90.7871 43.3976C90.8201 43.4291 90.859 43.4539 90.9016 43.4704C90.9441 43.4869 90.9895 43.4948 91.0351 43.4938C91.0808 43.4927 91.1257 43.4827 91.1675 43.4643C91.2093 43.4459 91.247 43.4194 91.2785 43.3864C91.31 43.3534 91.3348 43.3145 91.3513 43.272C91.3678 43.2294 91.3757 43.184 91.3747 43.1384C91.3736 43.0928 91.3636 43.0478 91.3452 43.006C91.0688 42.3798 90.2586 42.2619 89.5999 42.4685C89.1447 42.6119 88.6998 42.8554 88.3252 42.782C87.9172 42.7021 87.4409 42.2406 86.8262 42.3937C86.2934 42.5267 86.06 43.0362 85.7688 43.2433C85.1382 43.6921 84.1373 43.0199 81.9664 42.1036C81.8821 42.0665 81.7864 42.0643 81.7005 42.0977C81.6145 42.1311 81.5454 42.1972 81.5082 42.2816C81.471 42.3659 81.4689 42.4616 81.5022 42.5476C81.5356 42.6335 81.6017 42.7027 81.6861 42.7398ZM100.472 46.0175L100.437 37.4976C100.437 37.4495 100.427 37.402 100.407 37.3581C100.388 37.3141 100.359 37.2747 100.324 37.2422C100.289 37.2098 100.247 37.1851 100.201 37.1696C100.156 37.1541 100.108 37.1482 100.06 37.1523L93.2459 37.7378C93.1591 37.7454 93.0782 37.7853 93.0194 37.8497C92.9606 37.914 92.9282 37.9982 92.9285 38.0853L92.9584 45.4904C92.9587 45.5777 92.9919 45.6616 93.0513 45.7256C93.1107 45.7896 93.192 45.8288 93.2791 45.8356L100.097 46.3652C100.145 46.3689 100.193 46.3627 100.239 46.3469C100.284 46.3311 100.325 46.306 100.361 46.2734C100.396 46.2407 100.424 46.2011 100.443 46.157C100.462 46.113 100.472 46.0655 100.472 46.0175ZM95.743 39.6548C95.891 39.2317 96.4228 38.6687 96.9952 38.7544C97.526 38.8348 97.9973 39.3994 97.9838 39.9388C97.9683 40.5625 97.4093 41.1225 96.7295 41.1225C95.9117 41.1225 95.5127 40.3125 95.743 39.6548ZM98.911 44.2391C98.7438 44.2391 96.9088 43.9956 94.1699 44.0324C94.0237 44.0407 93.896 43.8878 93.9461 43.7305C94.1388 43.1235 94.6087 42.4702 95.1717 42.0253C95.7752 41.5488 96.6832 41.3435 97.3798 41.5265C98.2153 41.7452 98.9912 42.551 99.1415 43.9833C99.1449 44.0156 99.1415 44.0482 99.1314 44.0791C99.1214 44.11 99.105 44.1384 99.0832 44.1625C99.0615 44.1866 99.0349 44.2059 99.0053 44.2191C98.9756 44.2323 98.9435 44.2391 98.911 44.2391ZM81.7837 31.8408C101.032 32.5275 97.7491 32.4235 98.1201 32.4235C98.1658 32.4235 98.2111 32.4144 98.2534 32.3969C98.2956 32.3793 98.334 32.3536 98.3663 32.3212C98.3986 32.2888 98.4241 32.2503 98.4415 32.208C98.4589 32.1657 98.4678 32.1203 98.4676 32.0746L98.4523 28.3653C98.4521 28.3185 98.4425 28.2722 98.424 28.2292C98.4055 28.1862 98.3785 28.1474 98.3446 28.1151C98.3107 28.0828 98.2706 28.0576 98.2268 28.0412C98.183 28.0248 98.1363 28.0174 98.0895 28.0194L81.7709 28.7351C81.6812 28.739 81.5965 28.7775 81.5346 28.8425C81.4727 28.9075 81.4383 28.994 81.4387 29.0838L81.4486 31.4947C81.449 31.5844 81.4841 31.6706 81.5465 31.735C81.609 31.7995 81.6939 31.8373 81.7837 31.8406V31.8408ZM88.1871 29.5779L97.1671 29.5413H97.1681C97.1985 29.5413 97.2286 29.5472 97.2568 29.5588C97.2849 29.5704 97.3105 29.5874 97.332 29.6089C97.3536 29.6303 97.3707 29.6558 97.3824 29.6839C97.3941 29.712 97.4002 29.7421 97.4002 29.7726C97.4003 29.803 97.3943 29.8331 97.3828 29.8613C97.3712 29.8894 97.3542 29.915 97.3327 29.9365C97.3112 29.9581 97.2857 29.9752 97.2576 29.9869C97.2295 29.9986 97.1994 30.0046 97.169 30.0047L88.189 30.0413H88.1881C88.1266 30.0414 88.0676 30.0171 88.0241 29.9738C87.9806 29.9304 87.956 29.8715 87.9559 29.8101C87.9558 29.7486 87.9801 29.6897 88.0234 29.6461C88.0668 29.6026 88.1257 29.5781 88.1871 29.5779ZM83.4172 29.4748C83.426 29.4457 83.4405 29.4186 83.4597 29.395C83.479 29.3715 83.5027 29.352 83.5295 29.3376C83.5563 29.3232 83.5857 29.3142 83.6159 29.3112C83.6462 29.3081 83.6768 29.3111 83.7059 29.3199C83.7351 29.3286 83.7622 29.3431 83.7857 29.3623C83.8093 29.3816 83.8288 29.4053 83.8432 29.4321C83.8576 29.4589 83.8666 29.4883 83.8696 29.5185C83.8727 29.5488 83.8697 29.5794 83.8609 29.6085C83.7542 29.9618 83.7004 30.3289 83.7011 30.6979C83.7011 30.7593 83.6768 30.8181 83.6335 30.8616C83.5902 30.9051 83.5314 30.9296 83.4701 30.9298H83.4696C83.4082 30.9298 83.3494 30.9055 83.3059 30.8621C83.2625 30.8188 83.238 30.76 83.2379 30.6986C83.2372 30.2841 83.2976 29.8717 83.4172 29.4748ZM14.9919 17.4227C14.7365 17.3664 14.4474 17.3025 14.2303 17.4111C13.6757 17.6905 13.8997 18.6191 13.9027 18.9419C13.9182 21.1616 13.9451 23.8345 13.9509 24.4849C13.951 24.5306 13.9602 24.5759 13.978 24.6181C13.9957 24.6602 14.0217 24.6984 14.0544 24.7304C14.0871 24.7624 14.1259 24.7876 14.1684 24.8045C14.2109 24.8213 14.2564 24.8296 14.3021 24.8287C14.3943 24.8277 14.4822 24.7902 14.5467 24.7244C14.6112 24.6585 14.6469 24.5698 14.6459 24.4777C14.5899 18.3191 14.6063 18.9609 14.5788 18.674C14.5658 18.5369 14.5334 18.2012 14.5665 18.0497C17.5174 18.3814 27.104 18.6112 28.2939 18.7486C28.5372 21.4628 28.4667 22.2517 27.9719 24.8787C27.9116 25.1948 27.8533 25.5112 27.7969 25.8279C27.7891 25.8729 27.7901 25.919 27.8 25.9635C27.8099 26.0081 27.8285 26.0503 27.8547 26.0877C27.8809 26.1251 27.9143 26.1569 27.9528 26.1814C27.9913 26.2059 28.0343 26.2226 28.0793 26.2305C28.1242 26.2384 28.1703 26.2373 28.2149 26.2274C28.2594 26.2175 28.3016 26.1989 28.339 26.1727C28.3764 26.1465 28.4082 26.1132 28.4327 26.0746C28.4572 26.0361 28.4739 25.9931 28.4818 25.9482C28.5369 25.634 28.596 25.3205 28.6549 25.0073C29.1831 22.2056 29.2352 21.428 28.9607 18.4067C28.9536 18.3281 28.9199 18.2542 28.8653 18.1973C28.8106 18.1404 28.7382 18.1037 28.66 18.0934C27.8549 17.988 27.3922 17.9753 26.7516 17.9581C26.7277 17.9574 15.6267 17.5622 14.9919 17.4229V17.4227Z" fill="#0D99FF"/>
<path d="M26.6016 21.3233C26.6083 21.2313 26.5782 21.1405 26.5179 21.0708C26.4576 21.001 26.3722 20.9581 26.2802 20.9514C24.2537 20.8036 20.7414 21.1247 18.7744 20.84C18.7287 20.8321 18.6818 20.8335 18.6367 20.8441C18.5915 20.8546 18.5489 20.8741 18.5113 20.9014C18.4738 20.9287 18.4421 20.9632 18.4181 21.0029C18.3942 21.0426 18.3784 21.0867 18.3717 21.1327C18.3651 21.1786 18.3677 21.2254 18.3794 21.2703C18.3911 21.3151 18.4117 21.3572 18.44 21.394C18.4682 21.4309 18.5035 21.4616 18.5439 21.4846C18.5842 21.5075 18.6287 21.5221 18.6748 21.5276C20.7317 21.8258 24.1937 21.4965 26.2297 21.6446C26.2753 21.6481 26.3211 21.6425 26.3644 21.6282C26.4078 21.6139 26.448 21.5912 26.4825 21.5613C26.5171 21.5314 26.5454 21.495 26.5658 21.4542C26.5863 21.4133 26.5984 21.3688 26.6016 21.3233ZM23.3717 25.5959L23.3865 25.5964C23.4777 25.5969 23.5655 25.5615 23.6309 25.4978C23.6962 25.4341 23.7339 25.3473 23.7358 25.2561C23.7377 25.1649 23.7036 25.0766 23.6409 25.0102C23.5783 24.9439 23.4921 24.9049 23.4009 24.9016C20.9381 24.7978 19.88 24.855 17.423 24.7517C17.3773 24.7492 17.3316 24.7559 17.2885 24.7714C17.2454 24.7869 17.2059 24.8108 17.1722 24.8418C17.1385 24.8727 17.1113 24.9101 17.0923 24.9518C17.0732 24.9934 17.0627 25.0384 17.0613 25.0842C17.0575 25.1762 17.0903 25.2661 17.1526 25.3339C17.215 25.4018 17.3017 25.4421 17.3938 25.446C19.8566 25.5498 20.9149 25.4926 23.3717 25.5959ZM26.3671 28.5603C26.3596 28.5153 26.3434 28.4722 26.3192 28.4335C26.2951 28.3948 26.2635 28.3612 26.2264 28.3347C26.1892 28.3082 26.1472 28.2892 26.1027 28.279C26.0583 28.2687 26.0122 28.2673 25.9672 28.2749C22.717 28.8168 19.4108 28.941 16.1291 28.6444C16.0373 28.6367 15.9462 28.6654 15.8755 28.7244C15.8048 28.7834 15.7602 28.8679 15.7514 28.9595C15.7473 29.005 15.7522 29.0508 15.7658 29.0944C15.7794 29.138 15.8015 29.1785 15.8308 29.2135C15.86 29.2486 15.8959 29.2775 15.9363 29.2987C15.9768 29.3198 16.021 29.3328 16.0665 29.3369C19.4073 29.6387 22.773 29.5122 26.0817 28.9604C26.1267 28.9529 26.1698 28.9366 26.2085 28.9124C26.2472 28.8882 26.2808 28.8567 26.3073 28.8195C26.3338 28.7823 26.3527 28.7403 26.363 28.6959C26.3732 28.6514 26.3746 28.6053 26.3671 28.5603ZM19.674 32.0041C19.149 32.0576 18.7737 32.5967 18.836 33.2081C18.8986 33.8195 19.3745 34.2715 19.8995 34.2182C20.4247 34.1647 20.8 33.6256 20.7377 33.0144C20.6754 32.4032 20.1993 31.9508 19.6743 32.0043L19.674 32.0041ZM53.0352 59.6616C53.195 59.5704 53.3767 59.4666 53.5294 59.3044C53.7328 59.088 53.8292 58.816 53.7935 58.5579C53.7448 58.202 53.4256 57.9263 53.0899 57.9449C52.4048 57.9803 51.76 58.8767 51.8318 59.5266C51.9022 60.1642 52.4831 60.6919 53.1265 60.7035C53.448 60.7081 53.7497 60.5914 53.9879 60.3977C54.2415 60.5335 54.5814 60.5302 54.8752 60.334C55.1421 60.524 55.4595 60.4846 55.7308 60.2969C56.1782 60.6361 56.7699 60.4241 56.9689 59.9851C57.0058 59.9013 57.0082 59.8064 56.9755 59.7209C56.9428 59.6354 56.8778 59.5663 56.7944 59.5285C56.7111 59.4907 56.6162 59.4873 56.5303 59.519C56.4445 59.5508 56.3747 59.6151 56.336 59.698C56.3172 59.7393 56.2595 59.7689 56.2162 59.7703C56.1917 59.7672 56.1684 59.7576 56.1489 59.7424C56.1295 59.7273 56.1144 59.7071 56.1054 59.6841C56.087 59.6264 56.0539 59.5745 56.0092 59.5335C55.9646 59.4925 55.9101 59.4639 55.851 59.4506C55.7919 59.4372 55.7303 59.4394 55.6724 59.4572C55.6145 59.4749 55.5622 59.5074 55.5207 59.5516C55.4771 59.5979 55.4011 59.679 55.3328 59.7265C55.3536 59.3674 54.8583 59.1878 54.6549 59.5794C54.5993 59.6621 54.5135 59.7638 54.4172 59.7905C54.4403 59.7244 54.4579 59.6561 54.4698 59.5861C54.5161 59.313 54.2381 59.0961 53.9846 59.2108C53.7601 59.312 53.6301 59.5379 53.6255 59.7849C53.5006 59.9223 53.3255 60.0166 53.139 60.0085C52.8162 60.0029 52.5248 59.6966 52.5213 59.4246C52.5316 59.479 52.5548 59.5302 52.5888 59.5738C52.6229 59.6174 52.6669 59.6523 52.7172 59.6755C52.7675 59.6987 52.8226 59.7095 52.8779 59.7071C52.9332 59.7047 52.9871 59.6891 53.0352 59.6616ZM53.1005 58.6422C53.1276 58.6851 53.0648 58.7836 53.0231 58.828C52.8927 58.9666 52.6807 59.0421 52.6038 59.1278C52.6432 59.0477 52.9068 58.6814 53.1005 58.6422Z" fill="#0D99FF"/>
<path d="M52.2773 111.018C52.323 111.018 52.3682 111.009 52.4104 110.992C52.4527 110.975 52.4911 110.949 52.5235 110.917C52.5558 110.885 52.5816 110.847 52.5992 110.805C52.6168 110.763 52.626 110.717 52.6261 110.672C52.6263 110.626 52.6175 110.581 52.6002 110.539C52.5829 110.497 52.5574 110.458 52.5253 110.426C52.4931 110.393 52.4549 110.368 52.4128 110.35C52.3707 110.332 52.3255 110.323 52.2799 110.323L47.2971 110.283C47.336 109.153 46.6292 107.637 45.793 107.167C45.0442 106.745 44.1986 106.669 43.3742 106.663C43.3705 106.487 43.364 106.318 43.3578 106.153C43.3532 106.032 43.3508 105.913 43.3474 105.793C43.8044 105.667 44.2562 105.522 44.7016 105.358C47.2983 94.9845 49.2351 91.5991 50.7802 80.2344C52.1471 90.5355 53.6044 94.396 56.8672 104.325C57.1823 104.262 57.5275 104.196 57.8889 104.126C58.0034 106.213 57.9649 107.529 58.0543 108.945C58.0572 108.991 58.0693 109.036 58.0898 109.078C58.1103 109.119 58.1389 109.156 58.1739 109.186C58.2088 109.216 58.2494 109.239 58.2934 109.254C58.3373 109.268 58.3836 109.273 58.4297 109.27C61.3697 109.027 64.8461 109.094 67.8033 108.771C67.8879 108.761 67.9661 108.721 68.0231 108.658C68.0802 108.595 68.1121 108.513 68.1128 108.428C68.1179 107.88 67.9062 107.002 67.6094 106.339C67.5913 106.297 67.5649 106.259 67.5318 106.226C67.4987 106.194 67.4594 106.169 67.4164 106.152C67.3734 106.135 67.3275 106.127 67.2813 106.128C67.2351 106.129 67.1896 106.14 67.1475 106.158C67.1053 106.177 67.0673 106.204 67.0358 106.238C67.0042 106.272 66.9797 106.312 66.9637 106.355C66.9477 106.398 66.9404 106.444 66.9424 106.491C66.9444 106.537 66.9556 106.582 66.9753 106.624C67.1949 107.114 67.3437 107.696 67.3965 108.114C64.6698 108.383 61.4916 108.347 58.7285 108.549C58.6502 106.93 58.7038 106.301 58.5779 103.994C60.3297 103.662 62.3613 103.29 63.8075 103.002C63.5804 93.2344 61.3873 74.9954 59.4977 65.2221C59.5445 65.1586 59.5712 65.0801 59.5658 64.9953C59.5334 64.4735 59.5596 64.5124 59.5503 64.1253C60.0369 64.2388 60.6536 64.3978 61.0493 64.4425C61.1381 64.4525 61.2273 64.4279 61.2985 64.3738C61.3696 64.3198 61.4172 64.2404 61.4314 64.1522C61.7362 62.2491 62.3599 59.7022 62.8393 57.7026C62.8967 57.6261 62.8949 57.6037 62.954 57.3629C63.0344 57.4204 63.1282 57.4436 63.2278 57.4222C64.8063 57.0826 66.5636 56.0491 67.7039 54.7894C68.331 54.0978 68.9245 53.3764 69.4823 52.6278C69.5102 52.5913 69.5306 52.5496 69.5422 52.5051C69.5539 52.4606 69.5566 52.4143 69.5502 52.3688C69.5438 52.3233 69.5285 52.2795 69.5051 52.2399C69.4817 52.2004 69.4506 52.1658 69.4138 52.1384C69.3769 52.1109 69.335 52.091 69.2904 52.0799C69.2458 52.0687 69.1994 52.0665 69.154 52.0734C69.1085 52.0803 69.0649 52.0961 69.0256 52.12C68.9864 52.1438 68.9522 52.1752 68.9251 52.2124C68.3806 52.9431 67.8013 53.6472 67.1891 54.3223C66.1454 55.4752 64.5454 56.4205 63.106 56.7369C63.2454 56.1584 64.8128 49.4927 64.8074 49.2923C64.8256 49.248 64.8343 49.2005 64.833 49.1526C64.8317 49.1048 64.8204 49.0578 64.7997 49.0146C64.7791 48.9714 64.7497 48.9331 64.7134 48.902C64.677 48.8708 64.6346 48.8477 64.5887 48.834C63.2091 48.4121 61.2154 47.8285 60.1501 47.5187C60.0623 47.495 59.9686 47.5067 59.8893 47.5513C59.8099 47.5958 59.7513 47.6698 59.7258 47.7571C59.7004 47.8445 59.7103 47.9384 59.7533 48.0186C59.7963 48.0988 59.8691 48.1589 59.956 48.186C60.9439 48.4735 62.7304 48.9962 64.0823 49.4065C63.6196 51.509 62.7779 55.1677 62.245 57.3354C62.1632 57.4405 62.188 57.4823 62.0029 58.2118C61.5961 59.9087 61.0959 61.994 60.8021 63.6988C60.282 63.5966 59.4947 63.3793 59.036 63.3109C55.5329 62.8005 52.0151 61.9125 48.9589 61.1016C49.1686 60.2045 49.6869 58.1995 49.8741 57.3968C51.4403 57.1713 54.9095 56.85 54.757 55.2539C55.0195 55.1525 55.2973 54.9103 55.3965 54.6845C55.4671 54.5227 55.4521 54.333 55.3539 54.1502C55.3432 54.13 55.3293 54.1108 55.3168 54.0909C56.0035 53.8611 56.0732 53.2455 55.6145 52.8616C55.8541 52.6799 55.9477 52.3866 55.8323 52.1383C55.6678 51.7734 55.197 51.708 55.0207 51.6835C53.9302 51.5289 52.4048 51.4722 51.1439 51.5326C52.4886 46.2049 52.3441 46.7906 52.4038 46.5705C53.8252 46.7667 57.8449 47.788 58.8316 47.9675C58.9223 47.984 59.0159 47.9637 59.0916 47.9113C59.1674 47.8588 59.2192 47.7783 59.2357 47.6876C59.2522 47.5969 59.2319 47.5034 59.1794 47.4277C59.127 47.3519 59.0465 47.3001 58.9558 47.2836C57.8734 47.0867 53.3097 45.9132 52.1675 45.8472C52.0886 45.843 52.0107 45.8657 51.9463 45.9116C51.882 45.9575 51.8351 46.0238 51.8133 46.0997C51.519 47.1395 51.2399 48.3706 50.9577 49.4718C50.0055 49.8119 48.9226 50.3643 48.0369 50.813C47.8735 50.5992 47.6662 50.6351 47.3851 50.6198C47.0536 50.6043 46.6926 50.731 46.4373 50.7704C44.3075 51.0908 42.141 51.1527 39.9882 51.5C39.936 51.5084 39.8826 51.5035 39.8328 51.4858C39.783 51.4681 39.7384 51.4382 39.7032 51.3987C39.6678 51.3605 39.6425 51.3139 39.6297 51.2633C39.617 51.2127 39.6171 51.1596 39.6302 51.1091C39.9616 49.8233 40.0964 48.6734 40.2391 47.4562C40.3434 46.5684 40.4509 45.6505 40.6422 44.6389C40.6507 44.5941 40.6503 44.548 40.641 44.5033C40.6317 44.4586 40.6136 44.4162 40.5879 44.3785C40.5622 44.3408 40.5293 44.3085 40.4912 44.2835C40.453 44.2585 40.4102 44.2413 40.3654 44.2328C40.3205 44.2242 40.2744 44.2245 40.2297 44.2338C40.185 44.243 40.1426 44.2611 40.1048 44.2868C40.0671 44.3125 40.0348 44.3455 40.0099 44.3837C39.9849 44.4219 39.9678 44.4648 39.9595 44.5096C39.7635 45.5453 39.6543 46.4755 39.5489 47.3751C39.4088 48.5683 39.2767 49.6956 38.9572 50.9361C38.9225 51.071 38.9164 51.2117 38.9391 51.3492C38.9619 51.4866 39.013 51.6178 39.0893 51.7344C39.0184 51.7692 38.9616 51.8273 38.9285 51.8989C38.5753 52.6698 38.0638 53.3577 37.4272 53.9178C37.3579 53.9787 37.3156 54.0645 37.3096 54.1565C37.3037 54.2485 37.3345 54.3391 37.3953 54.4084C37.4562 54.4777 37.542 54.52 37.634 54.5259C37.726 54.5319 37.8166 54.5011 37.8859 54.4403C38.5962 53.8153 39.1669 53.0477 39.561 52.1876C39.5691 52.1691 39.5749 52.1505 39.5797 52.1315C39.7426 52.1936 39.9203 52.2145 40.0985 52.1862C42.2978 51.8317 45.5863 51.6865 46.865 51.3909C47.0408 51.3503 47.2209 51.3086 47.3501 51.3139C47.4227 51.3179 47.4817 51.3193 47.5304 51.3202C47.7322 51.7449 47.8249 51.8373 48.0702 53.0196L48.1196 53.2547C48.3473 54.3189 48.4991 55.9314 48.4884 57.1753C48.4871 57.3021 48.4434 57.4248 48.3644 57.5239C48.2854 57.6231 48.1755 57.693 48.0521 57.7225C47.4206 57.8724 46.7904 58.0492 46.1477 58.2183C45.1336 58.4857 43.7614 58.7964 40.8695 59.4363C38.8099 59.8913 37.0917 59.8007 35.5417 59.6348C35.4501 59.6252 35.3584 59.6523 35.2867 59.7101C35.2149 59.7679 35.169 59.8518 35.159 59.9434C35.1542 59.9888 35.1583 60.0347 35.1712 60.0785C35.184 60.1223 35.2054 60.1631 35.2341 60.1986C35.2627 60.2341 35.2981 60.2636 35.3382 60.2855C35.3782 60.3073 35.4222 60.3211 35.4676 60.3259C36.5058 60.4371 37.4629 60.4971 38.5061 60.4487C38.5087 62.0955 38.7207 63.8234 38.6034 65.3639C38.599 65.4241 38.6115 65.4809 38.6347 65.5323C37.2884 77.5636 38.4197 95.0325 36.8002 106.332C37.0975 106.365 37.391 106.387 37.683 106.403C37.6703 106.557 37.6583 106.711 37.647 106.865C37.641 106.957 37.6714 107.047 37.7316 107.116C37.7919 107.185 37.877 107.228 37.9686 107.234C38.0601 107.241 38.1505 107.211 38.2201 107.152C38.2898 107.092 38.333 107.007 38.3402 106.915C38.3527 106.745 38.3653 106.585 38.378 106.43C39.818 106.454 41.2553 106.299 42.6572 105.969C42.6595 106.039 42.6607 106.109 42.6632 106.18C42.6734 106.443 42.6838 106.716 42.6817 107.009C42.6813 107.102 42.7181 107.191 42.7839 107.257C42.8499 107.323 42.9384 107.357 43.0327 107.358C43.9046 107.349 44.7465 107.375 45.452 107.772C46.0432 108.105 46.5956 109.299 46.6064 110.161C44.0023 110.093 40.7611 110.024 38.1922 109.956C38.214 109.385 38.2402 108.526 38.2726 107.98C38.2781 107.888 38.2467 107.797 38.1856 107.728C38.1244 107.659 38.0383 107.617 37.9463 107.612C37.8542 107.607 37.7638 107.638 37.6949 107.699C37.626 107.76 37.5842 107.846 37.5787 107.938C37.5541 108.355 37.5333 108.938 37.515 109.453C37.5065 109.703 37.4969 109.954 37.4863 110.205L33.0495 110.17C32.8503 110.159 32.7006 110.322 32.6992 110.514C32.6989 110.56 32.7075 110.605 32.7246 110.648C32.7417 110.69 32.767 110.728 32.799 110.761C32.8311 110.793 32.8692 110.819 32.9112 110.837C32.9532 110.855 32.9983 110.864 33.044 110.865L52.2743 111.018H52.2773ZM53.5194 88.2259C53.5167 88.2562 53.508 88.2856 53.4938 88.3126C53.4797 88.3395 53.4604 88.3634 53.4371 88.3829C53.4137 88.4024 53.3867 88.4171 53.3577 88.4262C53.3286 88.4352 53.2981 88.4385 53.2678 88.4357C53.2375 88.433 53.208 88.4243 53.1811 88.4102C53.1541 88.3961 53.1302 88.3768 53.1107 88.3534C53.0912 88.3301 53.0765 88.3031 53.0675 88.274C53.0584 88.245 53.0551 88.2144 53.0579 88.1841L53.2177 86.4185C53.2205 86.3882 53.2292 86.3587 53.2433 86.3318C53.2574 86.3048 53.2767 86.2809 53.3001 86.2614C53.3234 86.2419 53.3504 86.2272 53.3795 86.2182C53.4085 86.2091 53.439 86.2059 53.4693 86.2086C53.4997 86.2113 53.5291 86.22 53.5561 86.2341C53.583 86.2483 53.6069 86.2676 53.6264 86.2909C53.6459 86.3143 53.6606 86.3413 53.6697 86.3703C53.6787 86.3993 53.682 86.4299 53.6793 86.4602L53.5194 88.2259ZM54.4716 88.2161C54.4711 88.2772 54.4464 88.3356 54.403 88.3786C54.3596 88.4216 54.301 88.4457 54.2399 88.4457H54.2378C54.1765 88.4451 54.1179 88.4202 54.0749 88.3764C54.0319 88.3326 54.008 88.2735 54.0085 88.2122L54.0124 87.7423C54.013 87.6812 54.0376 87.6228 54.081 87.5798C54.1244 87.5369 54.183 87.5127 54.2441 87.5127H54.2462C54.3075 87.5133 54.3662 87.5383 54.4092 87.5821C54.4522 87.6258 54.476 87.6849 54.4755 87.7463L54.4716 88.2161ZM60.3691 98.1194C60.3088 98.1309 60.2464 98.1181 60.1955 98.0836C60.1447 98.0492 60.1096 97.996 60.098 97.9357C59.0374 92.4158 55.6896 74.7836 54.6447 69.3456C54.6383 69.3154 54.6381 69.2844 54.6439 69.2541C54.6497 69.2239 54.6615 69.1951 54.6785 69.1695C54.6956 69.1439 54.7175 69.1219 54.7432 69.1049C54.7688 69.0879 54.7976 69.0761 54.8278 69.0703C54.8581 69.0645 54.8891 69.0648 54.9193 69.0712C54.9494 69.0775 54.9779 69.0898 55.0032 69.1074C55.0285 69.1249 55.0501 69.1472 55.0667 69.1732C55.0832 69.1991 55.0945 69.2281 55.0997 69.2585C56.1418 74.6814 59.5017 92.3776 60.5528 97.8481C60.5644 97.9084 60.5515 97.9708 60.517 98.0216C60.4826 98.0725 60.4294 98.1075 60.3691 98.1192V98.1194ZM59.8093 78.2679C59.8393 78.2622 59.87 78.2625 59.8999 78.2687C59.9297 78.275 59.958 78.2871 59.9831 78.3043C60.0082 78.3215 60.0297 78.3436 60.0463 78.3691C60.0629 78.3947 60.0742 78.4233 60.0797 78.4532L60.4365 80.366C60.4432 80.3963 60.4437 80.4277 60.438 80.4582C60.4323 80.4887 60.4206 80.5178 60.4034 80.5437C60.3863 80.5696 60.3641 80.5918 60.3382 80.6089C60.3124 80.6261 60.2833 80.6379 60.2528 80.6436C60.2223 80.6493 60.1909 80.6488 60.1606 80.6421C60.1302 80.6354 60.1016 80.6228 60.0762 80.6048C60.0509 80.5869 60.0294 80.564 60.0131 80.5376C59.9968 80.5112 59.986 80.4817 59.9813 80.451L59.6242 78.5383C59.6186 78.5084 59.619 78.4776 59.6253 78.4478C59.6316 78.418 59.6437 78.3898 59.6609 78.3647C59.6781 78.3396 59.7001 78.3181 59.7256 78.3015C59.7511 78.2849 59.7796 78.2735 59.8096 78.2679H59.8093ZM59.5151 80.7731C59.5099 80.8031 59.4989 80.8317 59.4827 80.8575C59.4664 80.8832 59.4452 80.9055 59.4204 80.923C59.3955 80.9405 59.3674 80.953 59.3378 80.9597C59.3081 80.9664 59.2774 80.9672 59.2474 80.962C59.2174 80.9568 59.1887 80.9458 59.163 80.9296C59.1373 80.9133 59.115 80.8922 59.0975 80.8673C59.0799 80.8424 59.0675 80.8144 59.0608 80.7847C59.0541 80.755 59.0533 80.7243 59.0585 80.6943C59.1014 80.4393 59.0662 80.1773 58.9574 79.9427C58.9446 79.9151 58.9373 79.8853 58.936 79.8549C58.9347 79.8245 58.9393 79.7941 58.9497 79.7656C58.9602 79.737 58.9761 79.7107 58.9967 79.6883C59.0172 79.6658 59.042 79.6477 59.0696 79.6348C59.0972 79.622 59.127 79.6147 59.1574 79.6134C59.1878 79.612 59.2182 79.6167 59.2468 79.6271C59.2754 79.6375 59.3016 79.6535 59.324 79.674C59.3465 79.6946 59.3646 79.7194 59.3775 79.747C59.5259 80.0673 59.5738 80.425 59.5149 80.7731H59.5151ZM48.348 51.4346C49.0915 51.0577 49.9404 50.6251 50.7424 50.298C50.6154 50.7881 50.4905 51.2787 50.3678 51.7699C50.3443 51.8219 50.3341 51.8789 50.3382 51.9358C50.3441 52.0084 50.3727 52.0773 50.4199 52.1327C50.4672 52.1882 50.5306 52.2274 50.6013 52.2448L50.6069 52.2467C50.6092 52.2474 50.6115 52.2472 50.6139 52.2476C50.6317 52.2513 50.65 52.2536 50.6688 52.2546C50.6762 52.255 50.6838 52.2573 50.6912 52.2573C50.6954 52.2573 50.6993 52.2553 50.7035 52.255C50.7063 52.255 50.7088 52.2555 50.7116 52.2553C52.1263 52.1452 53.9686 52.2224 54.9579 52.3769C53.9007 52.5363 52.8294 52.5147 52.1972 52.5884C52.1518 52.5937 52.108 52.6079 52.0681 52.6301C52.0283 52.6523 51.9932 52.6822 51.9649 52.718C51.9365 52.7537 51.9155 52.7948 51.9031 52.8387C51.8906 52.8826 51.8869 52.9285 51.8922 52.9738C51.8974 53.0192 51.9116 53.063 51.9338 53.1029C51.9561 53.1427 51.9859 53.1778 52.0217 53.2061C52.0575 53.2345 52.0985 53.2555 52.1424 53.2679C52.1863 53.2804 52.2322 53.2841 52.2776 53.2788C52.6001 53.2411 53.9195 53.1938 54.3168 53.1521C54.5115 53.1542 55.0504 53.2883 55.1771 53.4007C54.697 53.6384 52.4089 53.6414 51.9004 53.6187C51.8084 53.6149 51.7187 53.6477 51.6508 53.7098C51.5829 53.7719 51.5423 53.8583 51.5378 53.9503C51.5337 54.0423 51.5662 54.1322 51.6284 54.2002C51.6905 54.2683 51.7771 54.3089 51.8691 54.3131C52.4057 54.3374 53.8563 54.3131 54.4521 54.2501C54.5534 54.2818 54.6732 54.3784 54.7246 54.4505C54.6648 54.5142 54.5555 54.5953 54.4948 54.611C54.242 54.6726 53.9376 54.6659 53.9619 54.6659C53.4571 54.6666 52.146 54.7206 51.659 54.7211C51.5668 54.7211 51.4784 54.7577 51.4133 54.8229C51.3481 54.8881 51.3115 54.9765 51.3116 55.0687C51.3116 55.1609 51.3482 55.2493 51.4134 55.3144C51.4786 55.3796 51.567 55.4161 51.6592 55.4161C51.9273 55.4161 52.535 55.3971 52.8213 55.3883C53.992 55.3529 53.8192 55.3656 54.0678 55.3582C54.0539 55.848 52.6392 56.2152 52.1629 56.3308C51.3738 56.5222 50.116 56.6389 49.1816 56.8011C49.1631 55.5755 49.0136 54.1113 48.7993 53.1095L48.7507 52.8783C48.6538 52.4105 48.5403 51.8936 48.348 51.4346ZM41.0196 60.1151C43.3789 59.5929 45.0956 59.2208 46.9002 58.7373C47.3295 58.6221 47.7737 58.503 48.2129 58.3986C48.4301 58.3463 48.6295 58.2373 48.7907 58.0826C48.9518 57.9279 49.0689 57.7331 49.1299 57.5182H49.1306C48.8746 58.5732 48.2989 60.803 48.2069 61.2869C48.1905 61.3732 48.2074 61.4626 48.2541 61.5369C48.3009 61.6113 48.3741 61.6652 48.459 61.6878C51.5828 62.5195 55.2162 63.4492 58.8502 63.9851C58.871 64.4791 58.8372 64.4244 58.8678 64.961C56.7694 65.2624 54.7216 65.3205 52.5857 65.3963L47.052 65.0775C43.7864 64.9733 41.7226 65.3236 39.3161 64.9904C39.3814 63.3978 39.1986 61.9132 39.2009 60.3994C39.8125 60.3426 40.4199 60.2476 41.0196 60.1151ZM38.9285 99.8144C38.919 99.8751 38.8857 99.9295 38.836 99.9657C38.7864 100.002 38.7244 100.017 38.6637 100.007C38.603 99.9979 38.5485 99.9646 38.5123 99.9149C38.4761 99.8653 38.4612 99.8033 38.4707 99.7426L38.7691 97.8423C38.7738 97.8122 38.7844 97.7834 38.8003 97.7574C38.8161 97.7315 38.8369 97.7089 38.8615 97.691C38.8861 97.673 38.914 97.6601 38.9436 97.653C38.9731 97.6458 39.0038 97.6446 39.0339 97.6493C39.064 97.654 39.0928 97.6646 39.1188 97.6805C39.1447 97.6963 39.1673 97.7172 39.1852 97.7417C39.2032 97.7663 39.2161 97.7942 39.2232 97.8238C39.2304 97.8534 39.2316 97.8841 39.2269 97.9141L38.9285 99.8144ZM39.7639 99.5486C39.7609 99.5794 39.7518 99.6093 39.737 99.6365C39.7223 99.6637 39.7022 99.6877 39.6781 99.707C39.6539 99.7263 39.6261 99.7406 39.5963 99.749C39.5666 99.7574 39.5354 99.7598 39.5047 99.756C39.474 99.7521 39.4444 99.7422 39.4176 99.7267C39.3908 99.7113 39.3674 99.6906 39.3487 99.666C39.33 99.6413 39.3165 99.6132 39.3088 99.5832C39.3012 99.5532 39.2996 99.522 39.3043 99.4914L39.4252 98.52C39.4282 98.4892 39.4374 98.4593 39.4521 98.4321C39.4669 98.4049 39.4869 98.381 39.5111 98.3616C39.5352 98.3423 39.563 98.328 39.5928 98.3196C39.6226 98.3112 39.6537 98.3088 39.6844 98.3127C39.7151 98.3165 39.7447 98.3264 39.7715 98.3419C39.7983 98.3573 39.8218 98.378 39.8404 98.4026C39.8591 98.4273 39.8727 98.4555 39.8803 98.4854C39.8879 98.5154 39.8895 98.5466 39.8849 98.5772L39.7639 99.5486ZM40.2905 90.418C40.4122 89.9848 40.367 89.5249 40.1182 89.0627C40.0572 88.9501 39.9884 88.8222 39.9565 88.6735C39.877 88.3023 40.0399 87.9722 40.272 87.6693C40.1763 87.5517 40.1369 87.3902 40.1735 87.2472C40.2741 86.8564 40.728 86.7526 40.7611 86.5825C40.7838 86.4667 40.5445 86.2623 40.4272 86.0473C40.2813 85.7797 40.2766 85.4357 40.4143 85.1032C40.5264 84.8322 40.7127 84.6065 40.8769 84.4075C40.9164 84.3613 40.9724 84.3324 41.0329 84.3271C41.0935 84.3218 41.1536 84.3405 41.2005 84.3791C41.2474 84.4178 41.2772 84.4733 41.2836 84.5337C41.2899 84.5942 41.2723 84.6547 41.2344 84.7022C41.0838 84.8848 40.9279 85.0736 40.8424 85.2805C40.7597 85.4797 40.7567 85.6836 40.8341 85.8254C40.9499 86.0376 41.2921 86.2837 41.2159 86.6717C41.1371 87.0739 40.6788 87.1872 40.6239 87.357C40.8378 87.3473 40.9499 87.5892 40.8144 87.7419C40.2 88.4339 40.4027 88.5931 40.582 88.9496C40.8283 89.4435 40.8834 90.0109 40.7368 90.5429C40.708 90.6453 40.6151 90.712 40.5139 90.712C40.3607 90.712 40.2491 90.5656 40.2905 90.4178V90.418ZM40.7724 103.248C40.712 103.237 40.6586 103.202 40.6238 103.152C40.5891 103.101 40.5759 103.039 40.5871 102.978C41.8892 95.9645 44.4117 75.1608 45.7168 68.1322C45.728 68.0718 45.7628 68.0183 45.8134 67.9835C45.8641 67.9487 45.9265 67.9355 45.9869 67.9467C46.0474 67.9579 46.1009 67.9926 46.1357 68.0433C46.1705 68.094 46.1837 68.1564 46.1725 68.2168C44.8691 75.2349 42.3483 96.0308 41.0426 103.063C41.037 103.093 41.0257 103.121 41.0091 103.147C40.9925 103.172 40.9711 103.194 40.946 103.212C40.9209 103.229 40.8926 103.241 40.8629 103.247C40.8331 103.254 40.8024 103.254 40.7724 103.248ZM116.205 106.085H116.203L106.14 106.126C106.094 106.126 106.049 106.135 106.007 106.152C105.965 106.17 105.927 106.196 105.894 106.228C105.862 106.26 105.837 106.299 105.819 106.341C105.802 106.383 105.793 106.428 105.793 106.474C105.793 106.52 105.802 106.565 105.82 106.607C105.837 106.649 105.863 106.687 105.896 106.719C105.928 106.752 105.966 106.777 106.008 106.795C106.051 106.812 106.096 106.821 106.141 106.821H106.143L116.206 106.78C116.298 106.78 116.387 106.743 116.452 106.677C116.517 106.612 116.553 106.524 116.553 106.431C116.553 106.339 116.516 106.251 116.451 106.186C116.385 106.121 116.297 106.084 116.205 106.085ZM98.2022 94.2065C98.1846 94.2297 97.9547 94.3678 97.9559 94.6467C97.9564 94.7496 97.9925 94.89 98.1378 95.026C98.6799 97.0768 102.259 98.5978 106.588 98.5978H106.663C110.986 98.5802 114.583 97.0421 115.15 94.9972C115.479 94.732 115.446 94.3323 115.068 94.1002C114.879 93.9808 114.56 93.8754 114.146 93.7828C112.239 87.5954 109.306 79.8952 107.169 73.9456C107.426 73.8715 107.659 73.7431 107.846 73.5661C108.053 73.3701 108.398 72.8854 108.381 72.313C108.369 71.9098 108.175 71.5391 107.821 71.241C107.514 70.9833 107.056 70.9196 106.619 70.9903C105.892 70.1673 105.226 69.267 104.143 68.7589C102.875 68.1642 101.503 68.0333 100.378 68.3994C99.3761 68.726 98.6787 69.3592 98.0043 69.9716C97.3734 70.5445 96.7776 71.0855 95.9579 71.3675C95.9416 71.373 95.927 71.3809 95.9122 71.3883L95.9039 69.337C96.1089 69.1783 96.2479 68.9626 96.2952 68.7226C96.468 67.8408 95.3958 67.2593 94.451 67.4958C94.0886 67.5852 93.7976 67.7743 93.6348 68.0231C93.43 68.325 93.5294 68.7386 93.7395 69.0286L93.7492 71.4182C92.9212 71.1731 92.3876 70.6699 91.671 70.0652C90.5492 69.1301 89.483 68.1221 88.0081 67.7766C86.745 67.4824 85.2618 67.7453 83.937 68.4981C82.8203 69.135 81.9135 70.036 81.1747 70.8427C81.063 70.8674 80.9556 70.9089 80.8563 70.9657C79.6696 71.2488 79.3926 73.2876 81.0125 73.6505C80.9854 73.6852 80.9624 73.7234 80.9499 73.7675C78.9408 80.7969 75.7489 89.185 72.6163 95.6689C72.0552 95.8241 71.9396 95.9395 71.8494 95.9872C71.8316 96.0104 71.5918 96.1547 71.593 96.4429C71.5934 96.5917 71.6601 96.7244 71.7885 96.841C72.37 99.0783 76.2817 100.739 81.0164 100.739H81.0991C85.8285 100.719 89.761 99.0389 90.3674 96.8074C90.7288 96.5224 90.675 96.1096 90.2891 95.8723C90.081 95.7412 89.7284 95.6256 89.2703 95.5243C87.6949 90.4097 85.4661 84.3155 83.4989 78.9363C81.4182 73.2476 81.6345 73.7772 81.5764 73.6829C83.0689 73.5228 83.3879 71.532 82.0365 70.9386C82.6862 70.2593 83.4109 69.5983 84.2811 69.1023C85.455 68.4351 86.7554 68.1987 87.8501 68.4536C89.2004 68.7696 90.2935 69.814 91.4741 70.8086C92.143 71.3763 92.8295 71.9492 93.7522 72.1401C93.8801 94.8914 93.7601 93.5325 93.9265 93.7223C93.9207 93.7292 93.914 93.7353 93.9082 93.7422C93.341 94.4354 93.224 95.4613 93.0319 96.2066C92.7296 97.381 92.7956 98.4801 93.2224 99.3858C93.2479 99.4395 93.2868 99.4815 93.3313 99.5146C93.2293 100.159 93.0528 101.038 92.9685 101.64C91.6263 101.919 90.5761 102.46 89.2884 103.133C88.917 103.328 88.5334 103.528 88.1527 103.713C85.7094 104.15 85.3936 104.676 85.3952 105.087C85.4031 107.031 96.5083 107.287 101.739 106.424C104.419 105.982 104.761 105.435 104.759 105.008C104.758 104.595 104.437 104.069 101.977 103.654L101.838 103.593C99.3254 102.253 96.6249 101.183 93.6881 101.525C93.7803 100.94 93.933 100.168 94.0231 99.5917C94.5958 99.5737 95.1064 99.5871 95.691 99.5686C95.7734 100.009 95.7202 100.237 95.8823 100.841C95.9084 100.927 95.9672 101 96.0462 101.044C96.1252 101.088 96.2182 101.099 96.3055 101.076C96.3928 101.053 96.4675 100.996 96.5139 100.918C96.5602 100.841 96.5745 100.748 96.5537 100.66C96.4217 100.17 96.4611 99.9861 96.3916 99.5468C96.4722 99.5129 96.5369 99.4498 96.5727 99.37C96.9661 98.4915 97.0424 97.5798 96.8202 96.414C96.6429 95.4838 96.3487 94.5705 95.9896 93.8238C96.0179 93.7195 96.0012 94.7336 95.9148 72.002C95.963 72.0268 96.0153 72.0437 96.0707 72.0437C96.1082 72.0437 96.1465 72.0377 96.1838 72.0247C97.1387 71.6962 97.8164 71.0811 98.4716 70.4861C99.1203 69.897 99.7331 69.3407 100.593 69.0604C101.552 68.7483 102.738 68.8678 103.848 69.3882C104.7 69.7881 105.298 70.523 105.913 71.238C104.681 71.9541 104.86 73.8629 106.478 74.0091C104.645 80.4054 101.746 88.019 98.9002 93.9123C98.385 94.0575 98.2701 94.1701 98.2022 94.2065ZM89.7286 96.3704C87.1428 97.3794 74.9357 97.3991 72.4673 96.4388C74.9975 95.411 87.3228 95.4495 89.7286 96.3704ZM82.846 79.1749C84.7667 84.4258 86.9347 90.3564 88.4979 95.3816C84.7087 94.7931 77.053 94.8404 73.4763 95.4798C76.3976 89.3511 79.3437 81.6507 81.3192 74.9854C81.8018 76.3201 82.3122 77.7151 82.846 79.1752V79.1749ZM98.2198 102.746C99.4046 103.132 100.362 103.593 101.522 104.212C101.53 104.216 101.537 104.22 101.545 104.223L101.736 104.307C101.763 104.319 101.792 104.326 101.822 104.331C101.824 104.332 101.825 104.333 101.828 104.334C103.52 104.616 103.948 104.919 104.045 105.013C103.685 105.425 100.751 106.177 95.0833 106.2C89.4168 106.222 86.4718 105.495 86.1095 105.086C86.2022 104.994 86.6097 104.703 88.1838 104.413C88.2004 104.42 88.2176 104.426 88.2356 104.43C92.7766 105.37 94.7679 105.356 99.2959 104.775C99.3412 104.769 99.3849 104.755 99.4245 104.732C99.4641 104.709 99.4989 104.679 99.5268 104.643C99.5547 104.607 99.5752 104.566 99.5871 104.521C99.5991 104.477 99.6022 104.431 99.5964 104.386C99.5906 104.341 99.576 104.297 99.5533 104.258C99.5306 104.218 99.5003 104.183 99.4642 104.155C99.4281 104.127 99.3868 104.107 99.3427 104.095C99.2987 104.083 99.2527 104.08 99.2074 104.086C95.1078 104.612 93.1286 104.669 89.2687 103.927C89.3829 103.868 89.4983 103.808 89.6109 103.75C90.6542 103.203 91.7331 102.639 92.8885 102.364C94.457 101.986 96.3003 102.118 98.2195 102.746L98.2198 102.746ZM95.5543 68.3894C95.6935 68.5527 95.5828 68.7432 95.3963 68.8393C95.3393 68.8687 95.2915 68.9132 95.2583 68.968C95.2251 69.0228 95.2076 69.0857 95.2079 69.1498L95.3057 93.1683C95.0416 93.0942 94.7791 93.1387 94.5332 93.2508L94.4341 68.9028C94.4338 68.8144 94.3999 68.7294 94.3391 68.6651C94.2543 68.5757 94.2103 68.4367 94.2133 68.4086C94.4253 68.0843 95.2454 68.0247 95.5543 68.3896V68.3894ZM96.0244 98.871C95.9989 98.8666 95.9734 98.8605 95.9465 98.8622C95.2162 98.9002 94.5611 98.8705 93.7724 98.9073C93.4161 98.0022 93.5345 97.0435 93.7052 96.3801C93.8859 95.6765 94.0041 94.7227 94.4461 94.1826C94.6368 93.9498 94.8933 93.8087 95.0758 93.8282C95.1403 93.8354 95.2357 93.8643 95.3191 94.0318C95.6731 94.7403 95.9636 95.6327 96.1374 96.5442C96.3153 97.4774 96.2811 98.1882 96.0244 98.871ZM114.452 94.5807C111.938 95.4541 101.337 95.49 98.8717 94.643C101.343 93.774 111.971 93.7371 114.452 94.5804V94.5807ZM106.867 75.1576C108.887 80.7411 111.567 87.8429 113.373 93.6407C109.907 93.1118 102.99 93.1563 99.76 93.723C102.405 88.1645 105.069 81.2026 106.867 75.1576Z" fill="#0D99FF"/>
<path d="M22.9513 113.85C23.272 113.502 23.5954 113.15 23.9158 112.793C24.4793 112.255 25.2976 111.952 26.092 111.659C26.4242 111.537 26.7384 111.421 27.0377 111.288C27.329 111.158 27.6348 111.035 27.9306 110.917C28.7967 110.57 29.6924 110.212 30.443 109.599C31.8271 108.469 32.3875 106.74 32.6139 105.49C33.0916 102.851 32.5173 99.9642 31.0384 97.5698C30.1914 96.1982 28.441 95.761 27.0535 96.5733C26.4919 96.9023 26.041 97.3527 25.6055 97.7885L23.6074 99.7858C23.439 99.9543 23.2495 100.125 23.0491 100.305C22.5517 100.754 22.0373 101.217 21.7104 101.761C20.8511 103.19 20.5228 104.916 20.8092 106.497C21.1097 108.154 22.0633 109.673 23.4256 110.664C23.4625 110.691 23.5043 110.71 23.5487 110.721C23.5931 110.732 23.6391 110.734 23.6842 110.727C23.7293 110.719 23.7725 110.703 23.8114 110.68C23.8504 110.656 23.8842 110.625 23.9111 110.588C23.9379 110.551 23.9572 110.509 23.9679 110.465C23.9786 110.42 23.9804 110.374 23.9733 110.329C23.9662 110.284 23.9503 110.241 23.9265 110.202C23.9027 110.163 23.8714 110.129 23.8345 110.102C22.6154 109.215 21.7619 107.856 21.4931 106.373C21.2364 104.956 21.5325 103.405 22.3061 102.119C22.5795 101.664 23.0546 101.236 23.5143 100.822C23.7217 100.635 23.9174 100.459 24.0988 100.277L26.0969 98.2801C26.5016 97.8754 26.92 97.4567 27.4047 97.1731C28.4635 96.5529 29.8003 96.8875 30.4467 97.9349C31.8368 100.185 32.3773 102.894 31.9299 105.366C31.7244 106.502 31.2233 108.064 30.0035 109.06C29.3351 109.606 28.5272 109.929 27.6723 110.272C27.3704 110.393 27.0584 110.518 26.7551 110.653C26.4764 110.777 26.1729 110.889 25.8515 111.007C25.6442 111.084 25.4306 111.164 25.2167 111.249C25.5318 110.844 25.8344 110.428 26.1119 109.995C27.5321 107.782 28.5115 104.466 27.0021 101.797C26.9799 101.757 26.9499 101.721 26.9139 101.693C26.878 101.664 26.8367 101.643 26.7924 101.63C26.7482 101.618 26.7019 101.614 26.6563 101.62C26.6107 101.625 26.5666 101.64 26.5265 101.662C26.4865 101.685 26.4514 101.715 26.4232 101.752C26.395 101.788 26.3743 101.829 26.3623 101.874C26.3502 101.918 26.3471 101.964 26.3531 102.01C26.3591 102.056 26.374 102.099 26.3971 102.139C27.7543 104.539 26.8373 107.577 25.5269 109.62C24.9072 110.586 24.1586 111.481 23.3866 112.342C23.3023 112.426 23.2208 112.513 23.1457 112.608C23.1441 112.609 23.1431 112.612 23.1415 112.614C22.908 112.871 22.6735 113.126 22.4405 113.379C21.6863 114.196 20.9065 115.04 20.2066 115.934C19.8365 116.405 19.4944 116.897 19.1818 117.408C18.5262 116.637 17.7415 115.992 16.9795 115.366C16.6677 115.112 16.3598 114.854 16.0557 114.591C15.9005 114.456 15.7546 114.322 15.6149 114.189C15.6859 114.201 15.759 114.191 15.824 114.16C15.8891 114.129 15.9428 114.078 15.9777 114.015C17.28 111.65 16.931 108.46 15.1482 106.432C14.4263 105.611 13.5156 104.985 12.6347 104.378C12.4276 104.236 12.2207 104.093 12.0164 103.949C11.4622 103.557 10.7769 103.461 10.1358 103.687C9.82027 103.799 9.53609 103.984 9.30702 104.228C9.07795 104.472 8.91066 104.768 8.81914 105.09C8.76793 105.269 8.71488 105.449 8.66182 105.629C8.45748 106.324 8.24595 107.042 8.13938 107.769C7.85209 109.733 8.35577 111.781 9.52137 113.388C10.687 114.994 12.4776 116.109 14.4337 116.445C14.4787 116.453 14.5248 116.451 14.5693 116.441C14.6138 116.431 14.6559 116.413 14.6932 116.386C14.7305 116.36 14.7622 116.326 14.7865 116.288C14.8109 116.249 14.8274 116.206 14.8351 116.161C14.8428 116.116 14.8416 116.07 14.8316 116.026C14.8215 115.981 14.8027 115.939 14.7764 115.902C14.7501 115.865 14.7166 115.833 14.678 115.808C14.6394 115.784 14.5964 115.768 14.5514 115.76C12.7723 115.454 11.1441 114.441 10.0839 112.98C9.02371 111.518 8.56567 109.656 8.82724 107.87C8.9264 107.191 9.13075 106.497 9.32861 105.826C9.38236 105.643 9.43587 105.461 9.48754 105.279C9.5472 105.064 9.6584 104.866 9.81156 104.702C9.96472 104.539 10.1553 104.416 10.3668 104.342C10.5733 104.268 10.7948 104.245 11.0121 104.275C11.2295 104.305 11.4363 104.388 11.6146 104.516C11.8215 104.663 12.031 104.807 12.2409 104.951C13.0867 105.533 13.9613 106.135 14.6263 106.891C16.2226 108.707 16.5349 111.562 15.3688 113.68C15.328 113.754 15.3188 113.837 15.3336 113.914C14.3749 112.938 13.8332 112.017 13.6483 111.063C13.6296 110.973 13.5765 110.895 13.5005 110.845C13.4246 110.794 13.3317 110.775 13.2421 110.793C13.1525 110.81 13.0734 110.862 13.0217 110.937C12.97 111.012 12.95 111.105 12.966 111.195C13.3047 112.945 14.6309 114.27 15.5989 115.115C15.907 115.384 16.2279 115.648 16.5381 115.903C17.378 116.593 18.1715 117.248 18.8116 118.055C17.8228 119.889 17.4361 121.643 17.6611 123.279L11.2298 123.305C11.1376 123.305 11.0493 123.342 10.9843 123.407C10.9193 123.473 10.8829 123.561 10.8831 123.653C10.8833 123.746 10.9201 123.834 10.9854 123.899C11.0508 123.964 11.1392 124 11.2314 124H11.2328L18.0698 123.972H18.0716L19.0917 123.968C19.0947 123.968 19.098 123.969 19.101 123.969C19.104 123.969 19.1068 123.968 19.1098 123.968L30.2776 123.923C30.3698 123.922 30.4581 123.885 30.5231 123.82C30.5881 123.755 30.6245 123.666 30.6243 123.574C30.6241 123.482 30.5873 123.394 30.5219 123.329C30.4566 123.264 30.3681 123.227 30.276 123.227H30.2746L21.0633 123.265C21.0981 122.817 21.0999 122.374 21.0652 121.94C21.744 121.455 22.4868 121.082 23.2736 120.703C23.306 120.74 23.3431 120.77 23.3848 120.798C23.5354 120.897 23.7138 120.921 23.8945 120.87C24.6405 120.939 25.3749 120.997 26.1117 120.997C26.5727 120.997 27.0315 120.974 27.4925 120.916C28.8873 120.745 30.092 120.256 30.9724 119.505C32.0266 118.606 32.6173 117.279 32.5131 116.044C32.3949 114.64 31.3338 113.412 30.0434 113.187C29.0958 113.02 28.0532 113.342 26.9481 114.139C25.4236 115.24 24.2235 116.815 23.5678 118.576C23.5261 118.687 23.445 118.805 23.357 118.933C23.1902 119.176 23.0025 119.452 23.0025 119.804C23.0025 119.876 23.0048 119.964 23.0164 120.056C22.3235 120.391 21.6196 120.74 20.9653 121.167C20.7631 120.033 20.3171 118.965 19.6394 118.001C19.9726 117.43 20.3449 116.882 20.7536 116.362C21.4361 115.491 22.2062 114.657 22.9509 113.85L22.9513 113.85ZM31.2113 116.922H31.2553C31.3827 116.922 31.4847 117.026 31.487 117.151C31.487 117.281 31.385 117.385 31.2576 117.385H31.2344C31.107 117.385 30.9935 117.283 30.9912 117.156C30.9912 117.028 31.0838 116.924 31.2113 116.922ZM28.7855 119.183C28.8064 119.139 28.818 119.076 28.8319 119.014C28.8527 118.907 28.8759 118.789 28.9477 118.673C29.1308 118.379 29.4667 118.34 29.7354 118.307C29.8281 118.296 29.9138 118.286 29.988 118.268C30.3147 118.191 30.5765 117.853 30.5695 117.517C30.5672 117.39 30.6691 117.285 30.7966 117.283C30.9217 117.281 31.0306 117.381 31.0329 117.51C31.0445 118.069 30.6413 118.59 30.0969 118.72C29.9949 118.743 29.8907 118.757 29.7911 118.768C29.5524 118.796 29.4018 118.819 29.3416 118.919C29.3138 118.963 29.2999 119.03 29.286 119.104C29.2698 119.19 29.2512 119.285 29.2049 119.382C29.0103 119.785 28.5446 119.85 28.2295 119.85C28.1345 119.85 28.0511 119.843 27.9955 119.839L25.5026 119.656C25.4563 119.651 25.4122 119.635 25.3775 119.607C25.3466 119.584 25.322 119.554 25.3062 119.519C25.2904 119.484 25.2838 119.446 25.2871 119.408C25.2964 119.278 25.4099 119.181 25.535 119.192L25.9544 119.222L28.0279 119.378C28.4542 119.408 28.7091 119.343 28.7855 119.183ZM19.2643 118.69C19.8304 119.576 20.1948 120.576 20.3317 121.619C19.7344 122.096 19.2414 122.664 18.8941 123.274L18.3621 123.276C18.1439 121.852 18.4476 120.313 19.2643 118.69ZM19.7182 123.271C19.9165 122.987 20.1428 122.725 20.3938 122.487C20.3975 122.747 20.3882 123.008 20.366 123.268L19.7182 123.271ZM32.7867 121.516C32.7172 121.575 32.6739 121.66 32.6662 121.751C32.6585 121.842 32.687 121.933 32.7456 122.003C32.8041 122.073 32.888 122.117 32.979 122.126C33.07 122.135 33.1608 122.108 33.2318 122.05C34.6932 120.831 35.3484 118.703 34.8253 116.874C34.7978 116.787 34.7379 116.715 34.6582 116.673C34.5785 116.63 34.4853 116.62 34.3983 116.645C34.3114 116.67 34.2376 116.727 34.1925 116.806C34.1474 116.884 34.1346 116.977 34.1569 117.065C34.607 118.638 34.0434 120.468 32.7867 121.516ZM87.2933 50.5514C87.3786 50.502 87.4615 50.4495 87.5421 50.3943C87.8111 50.8843 88.176 51.3391 88.7005 51.5319C88.8778 51.5967 89.0564 51.6266 89.2327 51.6266C90.0128 51.6264 90.7509 51.0456 91.0781 50.3028C91.3575 50.6429 91.7268 50.7444 92.0618 50.6276C92.5233 50.4654 92.6394 50.0419 92.7631 49.6066C92.8845 49.7977 93.0328 49.9815 93.2246 50.1295C93.65 50.4585 94.3478 50.5505 94.779 50.1358C94.8619 50.0558 95.0056 49.8705 95.0234 49.8461C95.05 49.874 95.0746 49.9041 95.2025 50.1156C95.4643 50.54 95.9165 50.5428 95.8934 50.534C96.3433 50.534 96.593 50.0201 96.2432 49.8014C96.1848 49.7649 96.1168 49.7465 96.0479 49.7487C95.979 49.7509 95.9123 49.7735 95.8563 49.8137C95.7115 49.7095 95.5389 49.1022 94.9835 49.1395C94.5994 49.1669 94.4252 49.5116 94.2971 49.6346C94.1458 49.7801 93.8342 49.7222 93.6495 49.5795C93.3923 49.3809 93.2283 49.0313 93.0837 48.7232C93.0616 48.6759 93.029 48.6342 92.9885 48.6012C92.948 48.5682 92.9006 48.5448 92.8498 48.5327C92.799 48.5206 92.7461 48.52 92.6951 48.5311C92.6441 48.5423 92.5962 48.5647 92.555 48.5969C92.0342 49.004 92.0996 49.8779 91.8315 49.9717C91.6545 50.0308 91.4492 49.6548 91.4427 49.3974C91.4309 48.9356 91.6026 48.3648 91.3371 47.8284C91.3018 47.7576 91.2434 47.701 91.1716 47.6678C91.0998 47.6346 91.0188 47.627 90.9421 47.646C90.8653 47.6651 90.7973 47.7097 90.7493 47.7726C90.7014 47.8355 90.6763 47.9129 90.6782 47.992C90.6965 48.6859 90.7176 49.4724 90.4039 50.1038C90.1379 50.6401 89.4862 51.0803 88.9399 50.8792C88.5506 50.7363 88.2777 50.3086 88.088 49.9414C88.7719 49.2612 89.2056 48.3374 89.2679 47.3653C89.3052 46.7814 89.1289 46.0751 88.5221 45.8436C87.9928 45.6416 87.4397 45.9374 87.1675 46.3343C86.5945 47.1684 86.867 48.8177 87.24 49.7551C87.1453 49.8258 87.0468 49.8909 86.9451 49.9499C86.9049 49.9725 86.8696 50.0027 86.8412 50.039C86.8129 50.0753 86.792 50.1168 86.7798 50.1612C86.7676 50.2056 86.7644 50.252 86.7703 50.2977C86.7762 50.3433 86.7911 50.3874 86.8142 50.4272C86.8373 50.4671 86.868 50.502 86.9047 50.5298C86.9414 50.5577 86.9832 50.578 87.0278 50.5895C87.0724 50.6011 87.1188 50.6036 87.1644 50.5971C87.21 50.5906 87.2538 50.575 87.2933 50.5514ZM87.7404 46.7277C87.8463 46.5734 88.0224 46.4752 88.1718 46.4752C88.5094 46.4752 88.5958 46.9825 88.5743 47.321C88.5298 48.0156 88.2413 48.6968 87.7896 49.2347C87.5771 48.5976 87.3642 47.2752 87.7404 46.7277ZM6.88598 85.2021C7.0824 85.3981 7.31556 85.5534 7.57211 85.6591C7.82866 85.7648 8.10355 85.8188 8.38102 85.8181H8.39029L29.2417 85.7331H29.2415C30.4127 85.7285 31.3614 84.7718 31.3568 83.6007L31.2981 69.2549C31.2978 68.9759 31.2421 68.6997 31.1343 68.4424C31.0264 68.1851 30.8687 67.9516 30.6701 67.7557C30.4736 67.5597 30.2404 67.4044 29.9838 67.2987C29.7272 67.193 29.4523 67.1389 29.1748 67.1396H29.1657L24.0108 67.1607L24.0041 65.4884C24.0042 65.196 23.8906 64.9151 23.6874 64.7049C23.5879 64.6008 23.4684 64.518 23.336 64.4615C23.2036 64.405 23.0612 64.3758 22.9173 64.3759H22.9126L14.5257 64.41C13.9263 64.4125 13.441 64.9155 13.4435 65.5313L13.4502 67.2036L8.31453 67.2244C8.03554 67.2248 7.7594 67.2806 7.50209 67.3884C7.24479 67.4963 7.01144 67.6541 6.81554 67.8528C6.61843 68.0503 6.46246 68.2849 6.35667 68.5432C6.25089 68.8014 6.19739 69.078 6.19927 69.3571L6.25788 83.7029C6.25822 83.9819 6.31391 84.2581 6.42173 84.5154C6.52954 84.7727 6.68734 85.0061 6.88598 85.2021ZM29.2387 85.0381L8.38728 85.1231C8.19967 85.124 8.01372 85.0879 7.8401 85.0168C7.66648 84.9457 7.5086 84.8411 7.37552 84.7088C7.24189 84.577 7.13573 84.4199 7.06319 84.2468C6.99066 84.0736 6.95318 83.8878 6.95293 83.7001L6.91563 74.5143C7.23767 74.9304 7.63107 75.2469 8.14494 75.499C9.01838 75.9276 9.98913 75.9554 10.9159 75.9971C11.9515 76.0434 12.9987 75.9925 14.0343 75.9809C15.0746 75.9716 16.1125 75.9577 17.1528 75.9392L17.1458 74.0811C17.1458 73.9513 17.2501 73.8471 17.3775 73.8471L20.4658 73.8355H20.4681C20.5284 73.8355 20.5863 73.8587 20.6303 73.9027C20.6743 73.9444 20.6998 74.0046 20.6998 74.0649L20.7068 75.865C22.7826 75.8164 24.8562 75.7515 26.9298 75.6727C28.0326 75.631 29.2628 75.3878 30.1108 74.6302C30.3466 74.4193 30.5088 74.1351 30.6216 73.8098L30.6615 83.6037C30.6625 83.9824 30.5134 84.346 30.2467 84.6149C29.98 84.8838 29.6174 85.036 29.2387 85.0381ZM14.1386 65.5285C14.1376 65.2959 14.3126 65.1059 14.5287 65.105L22.9156 65.0709H22.917C23.0185 65.0709 23.1149 65.1126 23.1881 65.1884C23.2657 65.2683 23.3086 65.3761 23.309 65.4912L23.316 67.1635L14.1453 67.2008L14.1386 65.5285Z" fill="#0D99FF"/>
<path d="M20.2419 75.8767L20.235 74.299L17.61 74.3106L17.6146 75.93H17.6737L17.6788 77.1396C17.6792 77.2309 17.6975 77.3212 17.7328 77.4054C17.7681 77.4896 17.8196 77.566 17.8844 77.6303C17.9492 77.6946 18.026 77.7455 18.1105 77.7801C18.1949 77.8146 18.2854 77.8323 18.3767 77.8319L19.4771 77.8273C19.5684 77.8269 19.6587 77.8086 19.7429 77.7733C19.8271 77.738 19.9035 77.6865 19.9678 77.6217C20.0321 77.5569 20.083 77.4801 20.1176 77.3956C20.1522 77.3112 20.1698 77.2207 20.1694 77.1294L20.1641 75.8765H20.2419V75.8767ZM9.56645 79.8079C9.7621 79.6196 9.87846 79.3637 9.89174 79.0925C9.90981 78.6713 9.70708 78.2955 9.55904 78.0207C9.51441 77.9413 9.44034 77.8825 9.35281 77.8571C9.26527 77.8317 9.17127 77.8418 9.09105 77.885C9.01084 77.9283 8.95083 78.0014 8.92396 78.0884C8.89709 78.1755 8.90551 78.2697 8.9474 78.3506C9.06926 78.5768 9.20735 78.8328 9.19738 79.0624C9.19345 79.1527 9.14641 79.2523 9.08061 79.3103C9.04841 79.3385 9.01899 79.3513 8.99119 79.3492C8.91833 79.3428 8.84533 79.3596 8.78257 79.3972C8.71982 79.4347 8.6705 79.4911 8.64165 79.5583C8.6128 79.6255 8.60588 79.7001 8.62189 79.7714C8.63789 79.8428 8.67599 79.9073 8.73077 79.9557C8.96912 80.1668 9.18047 80.4064 9.36002 80.6693C9.35162 80.6684 9.34326 80.667 9.335 80.6651C9.29724 80.6573 9.25924 80.6468 9.22078 80.6366C9.04123 80.5894 8.79564 80.524 8.54311 80.6274C8.48845 80.6497 8.44036 80.6855 8.4034 80.7316C8.36644 80.7776 8.34181 80.8323 8.33184 80.8905C8.32187 80.9487 8.32689 81.0084 8.34642 81.0641C8.36596 81.1199 8.39936 81.1697 8.44349 81.2089C8.75188 81.4846 8.97328 81.8441 9.08061 82.2436C9.09231 82.2877 9.11259 82.3291 9.14028 82.3654C9.16797 82.4017 9.20253 82.4321 9.242 82.455C9.28147 82.478 9.32506 82.4929 9.3703 82.499C9.41553 82.505 9.46152 82.5022 9.50564 82.4905C9.54975 82.4788 9.59113 82.4585 9.62741 82.4308C9.6637 82.4031 9.69417 82.3685 9.71709 82.3291C9.74001 82.2896 9.75494 82.246 9.76101 82.2008C9.76709 82.1555 9.76419 82.1095 9.75249 82.0654C9.68683 81.8195 9.58791 81.5836 9.45849 81.3644C9.6019 81.3551 9.7372 81.3129 9.8454 81.2416C9.98001 81.1528 10.0708 81.0196 10.1012 80.8665C10.1535 80.6012 10.0073 80.3855 9.94525 80.2935C9.83006 80.1233 9.7035 79.9611 9.56645 79.8079ZM27.0661 77.7862C26.9747 77.7981 26.8918 77.8457 26.8355 77.9187C26.7793 77.9917 26.7543 78.0841 26.7661 78.1755C26.9471 79.5866 26.7937 81.0206 26.3183 82.3615C26.2888 82.448 26.2946 82.5426 26.3343 82.6248C26.3741 82.7071 26.4446 82.7703 26.5307 82.801C26.6167 82.8316 26.7114 82.8271 26.7942 82.7885C26.877 82.7499 26.9412 82.6802 26.973 82.5946C27.4851 81.1505 27.6503 79.6062 27.4554 78.0865C27.4433 77.9952 27.3956 77.9124 27.3227 77.8561C27.2497 77.7999 27.1575 77.7747 27.0661 77.7862ZM28.6666 80.5713C28.5748 80.5651 28.4843 80.5953 28.4146 80.6554C28.345 80.7156 28.3018 80.8007 28.2945 80.8924L28.2398 81.6459C28.2341 81.7373 28.2647 81.8272 28.3249 81.8962C28.3852 81.9652 28.4702 82.0076 28.5615 82.0142C28.6529 82.0209 28.7432 81.9912 28.8127 81.9316C28.8823 81.872 28.9255 81.7874 28.933 81.6961L28.9879 80.9432C28.9946 80.8512 28.9646 80.7604 28.9043 80.6907C28.844 80.6209 28.7585 80.578 28.6666 80.5713ZM68.8126 17.7714C69.1626 17.7709 69.5091 17.701 69.8319 17.5657C70.1548 17.4304 70.4476 17.2324 70.6934 16.9832C70.9406 16.7354 71.1361 16.4409 71.2688 16.117C71.4014 15.793 71.4684 15.446 71.466 15.0959L71.4331 7.02944C71.4327 6.67942 71.3628 6.33297 71.2275 6.01014C71.0923 5.6873 70.8943 5.39449 70.6452 5.14864C70.3987 4.90275 70.1061 4.7079 69.7842 4.57527C69.4623 4.44264 69.1174 4.37484 68.7692 4.37575H68.7579L59.9801 4.41166C58.5076 4.41769 57.3204 5.61409 57.3267 7.08667L57.3593 15.1534C57.3605 15.6003 57.4748 16.0396 57.6913 16.4304L56.9101 18.8846C56.8897 18.9488 56.8883 19.0176 56.9062 19.0825C56.9242 19.1475 56.9606 19.2058 57.011 19.2505C57.0615 19.2951 57.1239 19.3241 57.1905 19.3339C57.2572 19.3437 57.3252 19.334 57.3865 19.3058L60.6513 17.8045L68.8126 17.7714ZM69.0456 5.67039L69.0769 5.65441C69.2871 5.55849 69.5651 5.65904 69.6649 5.86756C69.765 6.07561 69.6698 6.35548 69.4636 6.4595C69.2574 6.56353 68.9759 6.47387 68.8677 6.26976C68.7598 6.06588 68.8436 5.7823 69.0456 5.67039ZM67.1403 5.60182L67.1716 5.58606C67.3817 5.49015 67.6597 5.59069 67.7596 5.79898C67.8597 6.00703 67.7642 6.2869 67.5583 6.39093C67.3521 6.49518 67.0706 6.40552 66.9624 6.20141C66.8542 5.99753 66.9383 5.71395 67.1403 5.60182ZM65.3112 5.53301L65.3424 5.51725C65.5526 5.42133 65.8304 5.52189 65.9304 5.73017C66.0303 5.93822 65.9351 6.21809 65.7291 6.32212C65.5231 6.42614 65.2414 6.33671 65.1332 6.1326C65.025 5.92872 65.1091 5.64514 65.3112 5.53301ZM66.1327 8.77888C66.4223 8.69316 66.7374 8.68389 67.0636 8.74274L67.062 8.37344C67.0619 8.34301 67.0677 8.31286 67.0793 8.2847C67.0908 8.25655 67.1078 8.23094 67.1292 8.20934C67.1506 8.18774 67.1761 8.17057 67.2041 8.15882C67.2322 8.14706 67.2623 8.14095 67.2927 8.14083H67.2937C67.3549 8.14083 67.4137 8.16511 67.4572 8.20836C67.5006 8.2516 67.5251 8.3103 67.5254 8.37158L67.5274 8.87271C67.7603 8.95971 67.983 9.07156 68.1919 9.20634C68.2175 9.22281 68.2396 9.24416 68.2569 9.26918C68.2743 9.29419 68.2865 9.32237 68.2929 9.35211C68.2994 9.38186 68.2999 9.41258 68.2945 9.44252C68.289 9.47247 68.2778 9.50105 68.2613 9.52664C68.2448 9.55222 68.2235 9.57432 68.1984 9.59165C68.1734 9.60898 68.1452 9.62122 68.1155 9.62767C68.0858 9.63411 68.055 9.63463 68.0251 9.6292C67.9952 9.62377 67.9666 9.6125 67.941 9.59602C67.7881 9.49756 67.568 9.37708 67.3154 9.28812C67.3092 9.28881 67.3039 9.29182 67.2974 9.29182C67.2728 9.28673 67.2223 9.29414 67.1526 9.23761C66.3938 9.03095 65.8313 9.29854 65.5852 9.80987C65.4824 10.0235 65.468 10.2445 65.5445 10.4322C65.7217 10.8675 66.2724 11.0554 66.7874 11.1821C67.3259 11.3144 68.0633 11.4958 68.406 12.0912C68.6824 12.572 68.6094 13.2242 68.2285 13.6769C67.928 14.0344 67.4598 14.2515 66.9524 14.28L66.9543 14.7283C66.9544 14.7587 66.9485 14.7888 66.937 14.817C66.9254 14.8451 66.9085 14.8708 66.887 14.8924C66.8656 14.914 66.8401 14.9311 66.8121 14.9429C66.784 14.9546 66.7539 14.9607 66.7235 14.9609H66.7226C66.6613 14.9609 66.6025 14.9366 66.5591 14.8933C66.5156 14.8501 66.4911 14.7914 66.4909 14.7301L66.489 14.2545C66.1021 14.191 65.7106 14.027 65.3415 13.7684C65.2918 13.7329 65.2581 13.6793 65.2477 13.6191C65.2374 13.5589 65.2512 13.4971 65.2862 13.447C65.3212 13.397 65.3745 13.3628 65.4346 13.3519C65.4947 13.3409 65.5566 13.3542 65.607 13.3887C65.9956 13.6604 66.4059 13.8103 66.7942 13.8217C67.2258 13.8333 67.6298 13.6688 67.8738 13.3787C68.128 13.0766 68.1826 12.6325 68.0042 12.3222C67.7605 11.8983 67.1595 11.7509 66.6767 11.6323C66.085 11.4868 65.3728 11.2389 65.1152 10.6071C64.8163 9.87358 65.3637 9.00547 66.1327 8.77888ZM61.221 8.6825L61.2183 8.01456C61.2181 7.98413 61.224 7.95398 61.2355 7.92583C61.2471 7.89767 61.264 7.87206 61.2854 7.85046C61.3069 7.82886 61.3324 7.8117 61.3604 7.79994C61.3885 7.78818 61.4186 7.78207 61.449 7.78195H61.4499C61.5112 7.78195 61.57 7.80623 61.6134 7.84948C61.6569 7.89273 61.6814 7.95142 61.6816 8.01271L61.6844 8.68296C62.0991 8.72999 62.5358 8.8931 62.9656 9.16973C63.0169 9.20316 63.0528 9.25551 63.0656 9.31535C63.0784 9.3752 63.067 9.43767 63.0339 9.48914C63.0008 9.54061 62.9487 9.57689 62.8889 9.59006C62.8291 9.60322 62.7666 9.59221 62.7149 9.55942C62.3697 9.337 61.693 8.99342 61.0375 9.18641C60.5352 9.33492 60.1247 9.92107 60.3182 10.3953C60.4956 10.8307 61.0461 11.0188 61.5611 11.1453C62.0998 11.2778 62.8375 11.459 63.1799 12.0546C63.6697 12.9065 63.0828 14.0981 61.8338 14.2362L61.8362 14.7491C61.8363 14.7796 61.8304 14.8097 61.8188 14.8379C61.8073 14.8661 61.7903 14.8917 61.7689 14.9133C61.7474 14.9349 61.7219 14.9521 61.6938 14.9638C61.6657 14.9755 61.6356 14.9816 61.6052 14.9817H61.6042C61.5429 14.9817 61.4841 14.9574 61.4407 14.9141C61.3972 14.8708 61.3727 14.8121 61.3726 14.7507L61.3705 14.2345C60.9493 14.1859 60.5188 14.014 60.1152 13.7316C60.0649 13.6963 60.0306 13.6425 60.0199 13.582C60.0092 13.5215 60.023 13.4592 60.0582 13.4088C60.0935 13.3585 60.1473 13.3242 60.2078 13.3135C60.2683 13.3028 60.3306 13.3166 60.381 13.3518C60.7692 13.6238 61.1798 13.7735 61.5681 13.7851C61.999 13.7969 62.4038 13.6322 62.6477 13.3419C62.9017 13.04 62.9566 12.5959 62.7782 12.2856C62.5344 11.8616 61.9335 11.7141 61.4506 11.5952C60.8589 11.4499 60.1463 11.202 59.8891 10.5703C59.5877 9.83049 60.1479 8.80251 61.2208 8.6825H61.221ZM35.947 31.0128C33.7208 31.2676 31.4833 31.4114 29.2428 31.4437C29.2391 31.4312 29.2365 31.4189 29.2312 31.4066C28.5241 29.7413 28.2225 28.3433 28.3096 27.1328C28.3161 27.0409 28.2859 26.9501 28.2256 26.8805C28.1652 26.8108 28.0797 26.768 27.9878 26.7614C27.896 26.7554 27.8056 26.7859 27.7361 26.846C27.6666 26.9062 27.6236 26.9913 27.6164 27.083C27.5253 28.348 27.8177 29.7807 28.5 31.4502C27.5828 31.4525 26.6716 31.437 25.7692 31.3999C25.6776 31.3964 25.5882 31.4291 25.5206 31.491C25.4529 31.5529 25.4124 31.6389 25.4078 31.7305L25.4054 31.7838C25.4017 31.8829 25.3971 31.982 25.3915 32.0811C25.2884 34.4 24.8601 35.9895 23.0451 36.7471C20.9025 37.6407 18.2156 37.1642 16.6559 35.6142C14.3301 33.302 14.7471 29.4999 14.6607 26.2484C14.66 26.1568 14.623 26.0691 14.5579 26.0045C14.4928 25.9399 14.4049 25.9037 14.3132 25.9037H14.3106C14.265 25.904 14.2199 25.9133 14.1778 25.931C14.1358 25.9488 14.0976 25.9746 14.0656 26.0071C14.0335 26.0396 14.0082 26.0781 13.991 26.1204C13.9738 26.1627 13.9651 26.2079 13.9654 26.2535C14.059 29.5851 13.6292 33.5849 16.1659 36.107C16.9961 36.932 18.1079 37.4869 19.3029 37.736C19.3405 37.7615 19.3835 37.7802 19.4306 37.7897C22.312 38.3724 26.8919 38.3747 29.3447 37.9459C31.3312 37.6 33.2023 36.6369 34.0245 35.864C35.4171 34.5513 36.099 33.6824 36.3321 31.3932C36.3373 31.3415 36.3309 31.2894 36.3133 31.2405C36.2958 31.1916 36.2675 31.1473 36.2306 31.1108C36.1936 31.0744 36.149 31.0466 36.0999 31.0296C36.0508 31.0127 35.9986 31.0069 35.947 31.0128ZM32.4611 33.7269C31.5784 35.0556 30.0138 35.7787 28.804 35.7787C28.7435 35.7784 28.6856 35.7545 28.6425 35.7121C28.5994 35.6697 28.5746 35.6121 28.5734 35.5517C28.5722 35.4912 28.5947 35.4327 28.636 35.3886C28.6774 35.3445 28.7343 35.3183 28.7947 35.3156C30.097 35.2632 31.3541 34.5561 32.0753 33.4705C32.0922 33.4451 32.1139 33.4234 32.1391 33.4064C32.1644 33.3895 32.1927 33.3776 32.2225 33.3716C32.2523 33.3656 32.283 33.3656 32.3129 33.3714C32.3427 33.3773 32.3711 33.389 32.3965 33.4058C32.4218 33.4227 32.4436 33.4443 32.4605 33.4696C32.4775 33.4948 32.4893 33.5232 32.4953 33.553C32.5013 33.5828 32.5014 33.6135 32.4955 33.6434C32.4896 33.6732 32.4779 33.7016 32.4611 33.7269ZM105.8 29.2749C105.844 29.2862 105.89 29.2885 105.935 29.2819C105.98 29.2753 106.024 29.2598 106.063 29.2363C106.102 29.2129 106.136 29.1819 106.163 29.1452C106.191 29.1084 106.21 29.0667 106.221 29.0224C107.2 25.1107 105.114 20.6901 101.473 18.9581C101.39 18.9185 101.294 18.9135 101.207 18.9444C101.12 18.9752 101.049 19.0393 101.01 19.1226C100.97 19.2058 100.965 19.3014 100.996 19.3883C101.027 19.4752 101.091 19.5463 101.174 19.586C104.527 21.1806 106.448 25.2515 105.547 28.8533C105.536 28.8975 105.533 28.9436 105.54 28.9887C105.547 29.0339 105.562 29.0773 105.586 29.1165C105.609 29.1556 105.64 29.1898 105.677 29.217C105.714 29.2441 105.755 29.2638 105.8 29.2749ZM107.692 23.4048C107.745 23.4048 107.797 23.3928 107.844 23.3699C107.892 23.3469 107.933 23.3134 107.966 23.2721C107.998 23.2307 108.021 23.1825 108.032 23.1311C108.043 23.0797 108.043 23.0264 108.03 22.9752C107.713 21.6786 107.109 20.4699 106.262 19.4384C106.233 19.402 106.198 19.3718 106.157 19.3494C106.117 19.327 106.072 19.3129 106.026 19.308C105.98 19.3031 105.933 19.3073 105.889 19.3206C105.845 19.3339 105.804 19.3559 105.768 19.3853C105.732 19.4147 105.703 19.451 105.681 19.4919C105.66 19.5329 105.647 19.5777 105.643 19.6238C105.639 19.6699 105.644 19.7163 105.658 19.7603C105.672 19.8044 105.695 19.8451 105.725 19.8802C106.506 20.8307 107.063 21.9445 107.355 23.1393C107.373 23.2149 107.417 23.2822 107.478 23.3303C107.539 23.3785 107.615 23.4047 107.692 23.4048ZM6.71768 63.4761C6.79016 63.4207 6.83791 63.339 6.85065 63.2486C6.86338 63.1583 6.84006 63.0665 6.78573 62.9932C6.7314 62.9199 6.65042 62.8709 6.56027 62.8568C6.47012 62.8427 6.37803 62.8646 6.3039 62.9178C3.82767 64.7509 2.44939 67.9138 2.79252 70.9757C2.80278 71.0673 2.84901 71.1511 2.92105 71.2086C2.99309 71.2662 3.08503 71.2927 3.17665 71.2825C3.26826 71.2722 3.35205 71.226 3.40958 71.1539C3.4671 71.0819 3.49366 70.9899 3.48339 70.8983C3.16715 68.0781 4.43654 65.1649 6.71768 63.4761ZM1.78307 63.4493C0.717321 64.6702 0.0899353 66.2122 0.00050729 67.8304C-0.00446984 67.9225 0.0273355 68.0127 0.0889243 68.0814C0.150513 68.15 0.236841 68.1914 0.328918 68.1963C0.420995 68.2013 0.511277 68.1695 0.579905 68.1079C0.648532 68.0463 0.689883 67.96 0.694861 67.8679C0.775518 66.405 1.34257 65.0109 2.30598 63.9071C2.33671 63.8728 2.36033 63.8328 2.37548 63.7894C2.39064 63.746 2.39702 63.7 2.39425 63.6541C2.39149 63.6081 2.37964 63.5632 2.35939 63.5219C2.33914 63.4806 2.31089 63.4438 2.27628 63.4135C2.24167 63.3832 2.20139 63.36 2.15777 63.3454C2.11416 63.3308 2.06807 63.325 2.0222 63.3283C1.97632 63.3317 1.93156 63.3441 1.89051 63.3648C1.84946 63.3856 1.81294 63.4143 1.78307 63.4493ZM78.8794 10.2767H78.8827C78.9743 10.2767 79.0622 10.2405 79.1273 10.1761C79.1923 10.1116 79.2293 10.024 79.2302 9.93243C79.2793 4.33312 74.6748 0.313659 69.2333 0.313659H68.1523C68.0601 0.313659 67.9717 0.350273 67.9065 0.415446C67.8414 0.48062 67.8048 0.569014 67.8048 0.661183C67.8048 0.753352 67.8414 0.841746 67.9065 0.906919C67.9717 0.972093 68.0601 1.00871 68.1523 1.00871H69.2333C74.1283 1.00871 78.5817 4.59655 78.5349 9.92617C78.5345 9.97181 78.5431 10.0171 78.5602 10.0594C78.5773 10.1017 78.6026 10.1402 78.6346 10.1728C78.6666 10.2053 78.7046 10.2313 78.7467 10.2491C78.7887 10.2669 78.8338 10.2763 78.8794 10.2767ZM80.8237 5.29414C80.864 5.27271 80.8997 5.24355 80.9287 5.20833C80.9578 5.17311 80.9796 5.13251 80.9929 5.08885C81.0062 5.0452 81.0108 4.99935 81.0065 4.95391C81.0021 4.90848 80.9888 4.86435 80.9673 4.82406C79.8981 2.81375 78.2029 1.11598 76.1942 0.0435173C76.1539 0.0211877 76.1096 0.00709976 76.0637 0.00207327C76.0179 -0.00295322 75.9716 0.00118209 75.9274 0.0142388C75.8832 0.0272955 75.842 0.0490123 75.8063 0.078126C75.7706 0.10724 75.741 0.143168 75.7193 0.18382C75.6976 0.224473 75.6842 0.269038 75.6798 0.314921C75.6755 0.360803 75.6804 0.407087 75.6941 0.45108C75.7078 0.495072 75.7302 0.535893 75.7598 0.571167C75.7895 0.606442 75.8259 0.635466 75.8669 0.65655C77.7551 1.66483 79.3486 3.26066 80.3539 5.1505C80.3971 5.23183 80.4709 5.29265 80.559 5.31959C80.6471 5.34652 80.7423 5.33737 80.8237 5.29414Z" fill="#0D99FF"/>
</svg>
