<svg width="62" height="62" viewBox="0 0 62 62" fill="none" xmlns="http://www.w3.org/2000/svg">
<rect width="62" height="62" rx="3" fill="#0D99FF"/>
<path d="M15.5023 13.9501V48.0501H34.1023V13.9501H15.5023ZM13.9523 10.8501H35.6523C36.0634 10.8501 36.4577 11.0134 36.7484 11.3041C37.039 11.5948 37.2023 11.989 37.2023 12.4001V49.6001C37.2023 50.0112 37.039 50.4054 36.7484 50.6961C36.4577 50.9868 36.0634 51.1501 35.6523 51.1501H13.9523C13.5413 51.1501 13.147 50.9868 12.8563 50.6961C12.5656 50.4054 12.4023 50.0112 12.4023 49.6001V12.4001C12.4023 11.989 12.5656 11.5948 12.8563 11.3041C13.147 11.0134 13.5413 10.8501 13.9523 10.8501Z" fill="white"/>
<path d="M18.6008 20.1499H31.0008V23.2499H18.6008V20.1499ZM18.6008 29.4499H31.0008V32.5499H18.6008V29.4499ZM18.6008 38.7499H31.0008V41.8499H18.6008V38.7499ZM37.2008 32.5499H43.4008V35.6499H37.2008V32.5499ZM37.2008 38.7499H43.4008V41.8499H37.2008V38.7499ZM9.30078 48.0499H52.7008V51.1499H9.30078V48.0499Z" fill="white"/>
<path d="M37.2016 26.35V48.05H46.5016V26.35H37.2016ZM35.6516 23.25H48.0516C48.4626 23.25 48.8569 23.4133 49.1476 23.704C49.4383 23.9947 49.6016 24.3889 49.6016 24.8V49.6C49.6016 50.0111 49.4383 50.4053 49.1476 50.696C48.8569 50.9867 48.4626 51.15 48.0516 51.15H35.6516C35.2405 51.15 34.8462 50.9867 34.5555 50.696C34.2649 50.4053 34.1016 50.0111 34.1016 49.6V24.8C34.1016 24.3889 34.2649 23.9947 34.5555 23.704C34.8462 23.4133 35.2405 23.25 35.6516 23.25Z" fill="white"/>
</svg>
