<svg width="14" height="17" viewBox="0 0 14 17" fill="none" xmlns="http://www.w3.org/2000/svg">
<path d="M11.5 6.01172H10.7617V4.5C10.7617 2.42578 9.07422 0.738281 7 0.738281C4.92578 0.738281 3.23828 2.42578 3.23828 4.5V6.01172H2.5C1.69141 6.01172 0.988281 6.67969 0.988281 7.48828V15.0117C0.988281 15.8203 1.69141 16.4883 2.5 16.4883H11.5C12.3086 16.4883 13.0117 15.8203 13.0117 15.0117V7.48828C13.0117 6.67969 12.3086 6.01172 11.5 6.01172ZM4.75 4.5C4.75 3.26953 5.76953 2.25 7 2.25C8.23047 2.25 9.25 3.26953 9.25 4.5V6.01172H4.75V4.5ZM11.5 15.0117H2.5V7.48828H11.5V15.0117ZM7 12.7617C7.80859 12.7617 8.51172 12.0586 8.51172 11.25C8.51172 10.4414 7.80859 9.73828 7 9.73828C6.19141 9.73828 5.48828 10.4414 5.48828 11.25C5.48828 12.0586 6.19141 12.7617 7 12.7617Z" fill="#171721"/>
</svg>
