<svg width="16" height="16" viewBox="0 0 16 16" fill="none" xmlns="http://www.w3.org/2000/svg">
<path d="M8 0.511719C3.85156 0.511719 0.511719 3.85156 0.511719 8C0.511719 12.1484 3.85156 15.4883 8 15.4883C12.1484 15.4883 15.4883 12.1484 15.4883 8C15.4883 3.85156 12.1484 0.511719 8 0.511719ZM8 14.0117C4.69531 14.0117 1.98828 11.3047 1.98828 8C1.98828 4.69531 4.69531 1.98828 8 1.98828C11.3047 1.98828 14.0117 4.69531 14.0117 8C14.0117 11.3047 11.3047 14.0117 8 14.0117ZM11.4453 4.69531L6.48828 9.61719L4.55469 7.68359L3.5 8.73828L6.48828 11.7617L12.5 5.75L11.4453 4.69531Z" fill="#5FDCB3"/>
</svg>
