<svg width="16" height="16" viewBox="0 0 16 16" fill="none" xmlns="http://www.w3.org/2000/svg">
<path d="M8 0.511719C3.85156 0.511719 0.511719 3.85156 0.511719 8C0.511719 12.1484 3.85156 15.4883 8 15.4883C12.1484 15.4883 15.4883 12.1484 15.4883 8C15.4883 3.85156 12.1484 0.511719 8 0.511719ZM8 14.0117C4.69531 14.0117 1.98828 11.3047 1.98828 8C1.98828 4.69531 4.69531 1.98828 8 1.98828C11.3047 1.98828 14.0117 4.69531 14.0117 8C14.0117 11.3047 11.3047 14.0117 8 14.0117ZM10.707 4.23828L8 6.94531L5.29297 4.23828L4.23828 5.29297L6.94531 8L4.23828 10.707L5.29297 11.7617L8 9.05469L10.707 11.7617L11.7617 10.707L9.05469 8L11.7617 5.29297L10.707 4.23828Z" fill="#0D99FF"/>
</svg>
