<svg width="18" height="18" viewBox="0 0 18 18" fill="none" xmlns="http://www.w3.org/2000/svg">
<path d="M15.5602 0.75H2.75555C1.7243 0.75 0.907895 1.56641 0.907895 2.59766V15.4023C0.907895 16.4336 1.7243 17.25 2.75555 17.25H15.5602C16.5915 17.25 17.4079 16.4336 17.4079 15.4023V2.59766C17.4079 1.56641 16.5915 0.75 15.5602 0.75ZM10.0602 2.59766H15.5602V8.09766H12.8102L13.7556 4.40234L10.0602 5.34766V2.59766ZM2.75555 2.59766H8.25555V5.34766L4.56024 4.40234L5.50555 8.09766H2.75555V2.59766ZM8.25555 15.4023H2.75555V9.90234H5.50555L4.56024 13.5977L8.25555 12.6523V15.4023ZM15.5602 15.4023H10.0602V12.6523L13.7556 13.5977L12.8102 9.90234H15.5602V15.4023ZM11.5641 11.4062L9.1579 10.5898L6.75165 11.4062L7.56805 9L6.75165 6.59375L9.1579 7.41016L11.5641 6.59375L10.7477 9L11.5641 11.4062Z" fill="#8083A3"/>
</svg>
