<svg width="18" height="18" viewBox="0 0 18 18" fill="none" xmlns="http://www.w3.org/2000/svg">
<path d="M15.4023 0.75H2.59766C1.56641 0.75 0.75 1.56641 0.75 2.59766V15.4023C0.75 16.4336 1.56641 17.25 2.59766 17.25H15.4023C16.4336 17.25 17.25 16.4336 17.25 15.4023V2.59766C17.25 1.56641 16.4336 0.75 15.4023 0.75ZM9.90234 2.59766H15.4023V8.09766H12.6523L13.5977 4.40234L9.90234 5.34766V2.59766ZM2.59766 2.59766H8.09766V5.34766L4.40234 4.40234L5.34766 8.09766H2.59766V2.59766ZM8.09766 15.4023H2.59766V9.90234H5.34766L4.40234 13.5977L8.09766 12.6523V15.4023ZM15.4023 15.4023H9.90234V12.6523L13.5977 13.5977L12.6523 9.90234H15.4023V15.4023ZM11.4062 11.4062L9 10.5898L6.59375 11.4062L7.41016 9L6.59375 6.59375L9 7.41016L11.4062 6.59375L10.5898 9L11.4062 11.4062Z" fill="#0D99FF"/>
</svg>
